<svg xmlns="http://www.w3.org/2000/svg" width="126.767" height="139.349" viewBox="0 0 126.767 139.349"><defs><style>.a{fill:#92278f;}.b{fill:#977348;}.c{fill:#adf25e;}</style></defs><g transform="translate(-9548.355 2321.242)"><path class="a" d="M675.3,151.2h18.515v15.362H675.3Z" transform="translate(9042.045 -2667.358) rotate(23)"/><path d="M623.812,81.144c7.305,0,10.778-8.928,10.778-16.923S629.74,52.2,623.812,52.2c-8.982,0-13.952,4.026-13.952,12.021C609.86,75.658,617.884,81.144,623.812,81.144Zm20.3,26.318c-.18-.058-17.125-7.411-22.754-19.49a11.3,11.3,0,0,0-.958-2.334,5.24,5.24,0,0,0-1.5-2.042,10.454,10.454,0,0,0-4.91-2.976,10.869,10.869,0,0,0-13.413,7.119c-4.072,13.421-6.168,34.546-2.335,48.9a10.157,10.157,0,0,0,3.653,5.485c.3,15.7-3.473,23.983-14.611,34.837a6.883,6.883,0,0,0,0,9.92,7.307,7.307,0,0,0,5.09,2.042,7.414,7.414,0,0,0,5.09-2.042c7.006-6.827,11.617-13.188,14.491-19.724a81.9,81.9,0,0,1-4.132,15.055,6.981,6.981,0,0,0,4.371,8.928,6.9,6.9,0,0,0,2.4.408,7.19,7.19,0,0,0,6.766-4.668c6.647-18.382,8.563-33.67-2.216-50.476a9.967,9.967,0,0,0-.06-5.135c-1.5-5.6-1.677-14.413-.719-23.108a83.964,83.964,0,0,0,17.185,17.448,5.475,5.475,0,0,0,3.234,1.05,5.407,5.407,0,0,0,4.311-2.1,5.121,5.121,0,0,0-.659-7,5.488,5.488,0,0,0,4.431-3.151A5.142,5.142,0,0,0,644.111,107.461Z" transform="translate(8963.181 -2373.442)"/><path class="a" d="M720.141,275.654l-2.088-4.442c-.337-.707-1.819-1.312-3.3-1.312H695.423c-1.482,0-2.964.606-3.3,1.312l-2.155,4.442c-.337.707.606,1.312,2.088,1.312h26.066C719.6,276.967,720.546,276.395,720.141,275.654Z" transform="translate(8920.181 -2458.959)"/><path class="b" d="M.014,17.295C.238,12.4,4.081,8.722,8.37,8.722h.663A16.84,16.84,0,0,0,19.478,4.981,12.223,12.223,0,0,1,30.311,2.659c1.273.328,10.421,3.331,10.416,15.123a16.03,16.03,0,0,1-6.787,13.43V37.2a1.221,1.221,0,0,1-1.131,1.294H31.677A1.221,1.221,0,0,1,30.546,37.2V32.808a11.963,11.963,0,0,1-3.394.506c-.385,0-.755-.059-1.131-.1V37.2a1.221,1.221,0,0,1-1.131,1.294H23.758A1.221,1.221,0,0,1,22.627,37.2V32.389a12.815,12.815,0,0,1-2.852-1.578A18.134,18.134,0,0,0,9.018,26.842a6.471,6.471,0,0,1-1.63-.063L2.127,37.817a1.12,1.12,0,0,1-.993.675.98.98,0,0,1-.279-.04A1.275,1.275,0,0,1,0,37.2S-.008,17.763.014,17.295Zm7.908,2.428a1.832,1.832,0,0,0,1.7-1.942,1.832,1.832,0,0,0-1.7-1.942,1.832,1.832,0,0,0-1.7,1.942A1.832,1.832,0,0,0,7.921,19.723Zm-5.656,12.4,2.818-5.912a7.893,7.893,0,0,1-2.818-2.1v8.014Z" transform="matrix(1, 0.017, -0.017, 1, 9634.441, -2228.562)"/><circle class="c" cx="2.5" cy="2.5" r="2.5" transform="translate(9624 -2233)"/><circle class="c" cx="2.5" cy="2.5" r="2.5" transform="translate(9618 -2242)"/><circle class="c" cx="2.5" cy="2.5" r="2.5" transform="translate(9621 -2222)"/></g></svg>