<svg xmlns="http://www.w3.org/2000/svg" width="141.421" height="137.962" viewBox="0 0 141.421 137.962"><defs><style>.a{fill:#ed1c24;}.b{fill:#977348;}</style></defs><g transform="translate(-932.471 -452.046)"><path d="M206.526,705.867c7.051,0,10.4-8.843,10.4-16.761s-4.682-11.906-10.4-11.906c-8.67,0-13.467,3.988-13.467,11.906C193.06,700.435,200.747,705.867,206.526,705.867ZM229.3,735.055a38.286,38.286,0,0,1-11.27-2.2c.751.058,1.5.058,2.254.058a32.9,32.9,0,0,0,12.2-2.254,5.222,5.222,0,0,0-3.988-9.652,25.535,25.535,0,0,1-10,1.387c-6.647-.52-11.5-4.161-14.8-10.982-.116-.289-.231-.578-.4-.925l-.173-.347a4.788,4.788,0,0,0-1.445-1.907,10.647,10.647,0,0,0-4.682-2.948,10.446,10.446,0,0,0-12.947,7.051c-3.93,13.293-5.953,34.216-2.254,48.434a10.078,10.078,0,0,0,3.526,5.433c.289,15.547-3.352,23.755-14.1,34.5a6.936,6.936,0,0,0,4.913,11.848,7.059,7.059,0,0,0,4.913-2.023c6.762-6.762,11.213-13.062,13.987-19.535a82.8,82.8,0,0,1-3.988,14.912,6.959,6.959,0,0,0,4.219,8.843,6.5,6.5,0,0,0,2.312.4,6.948,6.948,0,0,0,6.531-4.624c6.415-18.206,8.265-33.349-2.138-49.995a10.122,10.122,0,0,0-.058-5.086c-1.387-5.26-1.618-13.293-.867-21.385a32.568,32.568,0,0,0,10.924,7.571,47.732,47.732,0,0,0,17.05,3.815h.058a5.2,5.2,0,0,0,5.2-5.144A4.964,4.964,0,0,0,229.3,735.055Z" transform="translate(763.296 -225.154)"/><path class="a" d="M259.4,813.6v54.707h75.2V813.6Zm52.937,32.449H302.093v10.244H291.849V846.049H281.6V835.8h10.244V825.561h10.244V835.8h10.244Z" transform="translate(739.296 -278.6)"/><path class="b" d="M.016,19.382C.271,13.8,4.648,9.619,9.531,9.619h.754a19.177,19.177,0,0,0,11.9-4.26A13.919,13.919,0,0,1,34.517,2.716c1.45.374,11.867,3.793,11.861,17.221A18.255,18.255,0,0,1,38.649,35.23v6.816a1.39,1.39,0,0,1-1.288,1.474H36.072a1.39,1.39,0,0,1-1.288-1.474v-5a13.623,13.623,0,0,1-3.865.577c-.438,0-.86-.067-1.288-.109v4.53a1.39,1.39,0,0,1-1.288,1.474H27.054a1.39,1.39,0,0,1-1.288-1.474V36.571a14.593,14.593,0,0,1-3.248-1.8,20.65,20.65,0,0,0-12.249-4.519,7.369,7.369,0,0,1-1.856-.072L2.422,42.751a1.275,1.275,0,0,1-1.131.768,1.117,1.117,0,0,1-.318-.046A1.452,1.452,0,0,1,0,42.046S-.009,19.915.016,19.382Zm9,2.765a2.086,2.086,0,0,0,1.932-2.211A2.086,2.086,0,0,0,9.02,17.726a2.086,2.086,0,0,0-1.932,2.211A2.086,2.086,0,0,0,9.02,22.148ZM2.579,36.265l3.209-6.732A8.988,8.988,0,0,1,2.579,27.14v9.125Z" transform="translate(1012.444 488.469) rotate(7)"/></g></svg>