<svg xmlns="http://www.w3.org/2000/svg" width="181.693" height="142.346" viewBox="0 0 181.693 142.346"><defs><style>.a{fill:#c89b65;}.b{fill:#58350b;}.c{fill:#977348;}</style></defs><g transform="translate(-10168.192 1636.339)"><path class="a" d="M1137.626,820.058a11.011,11.011,0,0,0-1.73-3.287c1.557-4.5-1.5-8.014-2.883-7.841-.807.115-1.845,1.845-2.71,3.632-1.615-3.287-5.132-4.267-6.112-3.459-.865.692-.461,3.978,0,6.285-5.189,2.249-8.649,7.9-8.13,10.782.692,3.863,7.438,5.074,16.432,2.768C1136.934,827.785,1139.471,825.19,1137.626,820.058Zm50.566,27.5a1.722,1.722,0,0,0-2.422-.058,11.328,11.328,0,0,1-12.685,2.537c-.058,0-.115-.058-.173-.058l-30.443-23.294a2.8,2.8,0,0,0-3.056-.288A2.886,2.886,0,0,0,1137.8,829v13.838a2.366,2.366,0,0,0,.058.634l1.845,8.245-1.557,13.088h-.577a2.883,2.883,0,1,0,0,5.766h3.171a2.92,2.92,0,0,0,2.883-2.537l1.787-15.049,7.034,5.132a2.131,2.131,0,0,0,.807.4l4.613,1.5.922,4.728h-.692a2.883,2.883,0,0,0,0,5.766h4.151a3.065,3.065,0,0,0,2.249-1.038,2.952,2.952,0,0,0,.577-2.364l-.98-4.958,7.034,6.169a2.9,2.9,0,0,0,3.229.4,2.831,2.831,0,0,0,1.5-2.883l-1.326-11.762a15.723,15.723,0,0,0,3.056.288,14.832,14.832,0,0,0,10.551-4.44A1.561,1.561,0,0,0,1188.192,847.561Z" transform="translate(9161.181 -2399.559)"/><path class="b" d="M1167.089,820.058a11.011,11.011,0,0,1,1.73-3.287c-1.557-4.5,1.5-8.014,2.883-7.841.807.115,1.845,1.845,2.71,3.632,1.615-3.287,5.132-4.267,6.112-3.459.865.692.461,3.978,0,6.285,5.189,2.249,8.649,7.9,8.13,10.782-.692,3.863-7.438,5.074-16.432,2.768C1167.781,827.785,1165.244,825.19,1167.089,820.058Zm-50.566,27.5a1.722,1.722,0,0,1,2.422-.058,11.328,11.328,0,0,0,12.685,2.537c.058,0,.115-.058.173-.058l30.443-23.294a2.8,2.8,0,0,1,3.056-.288,2.886,2.886,0,0,1,1.614,2.595v13.838a2.366,2.366,0,0,1-.058.634l-1.845,8.245,1.557,13.089h.577a2.883,2.883,0,1,1,0,5.766h-3.171a2.92,2.92,0,0,1-2.883-2.537l-1.787-15.049-7.034,5.132a2.131,2.131,0,0,1-.807.4l-4.613,1.5-.922,4.728h.692a2.883,2.883,0,0,1,0,5.766h-4.151a3.065,3.065,0,0,1-2.249-1.038,2.952,2.952,0,0,1-.577-2.364l.98-4.959-7.034,6.169a2.9,2.9,0,0,1-3.229.4,2.831,2.831,0,0,1-1.5-2.883l1.326-11.762a15.723,15.723,0,0,1-3.056.288,14.832,14.832,0,0,1-10.551-4.44A1.561,1.561,0,0,1,1116.523,847.561Z" transform="translate(9052.181 -2388.559)"/><path d="M375.567,382.687c5.281-.158,12.2-5.281,11.936-15.633-.211-7.235-4.647-10.774-12.569-10.563-5.281.158-9.453,3.908-9.242,11.091C365.8,374.871,369.124,382.846,375.567,382.687Zm.475,2.482a11.053,11.053,0,0,0-2.693-.37,8.865,8.865,0,0,0-2.641.37c-18.273.687-20.7,21.389-21.812,46.369a4.739,4.739,0,0,0,4.542,4.964h.211a4.762,4.762,0,0,0,4.753-4.542c.739-16.372,2.271-25.614,4.383-30.79v24.083a10.687,10.687,0,0,0,.687,3.7c-8.344,14.682-7.658,28.255-6.971,41.458.211,3.855.422,7.816.422,11.83a6.338,6.338,0,1,0,12.675,0c0-4.383-.211-8.5-.422-12.517-.634-11.883-1.109-21.653,4.014-32.11,4.595,10.615,4.331,22.128,4.067,35.173-.053,3.063-.106,6.285-.106,9.506a6.338,6.338,0,1,0,12.675,0c0-3.116.053-6.232.106-9.242.317-14.629.634-29.681-6.76-43.887a10.433,10.433,0,0,0,.739-3.855V401.858c1.954,5.281,3.433,14.418,4.119,30.1a4.762,4.762,0,0,0,4.753,4.542h.211a4.739,4.739,0,0,0,4.542-4.964C396.428,406.717,394,386.067,376.042,385.169Z" transform="translate(9885.181 -1992.822)"/><path class="c" d="M1137.626,820.058a11.011,11.011,0,0,0-1.73-3.287c1.557-4.5-1.5-8.014-2.883-7.841-.807.115-1.845,1.845-2.71,3.632-1.615-3.287-5.132-4.267-6.112-3.459-.865.692-.461,3.978,0,6.285-5.189,2.249-8.649,7.9-8.13,10.782.692,3.863,7.438,5.074,16.432,2.768C1136.934,827.785,1139.471,825.19,1137.626,820.058Zm50.566,27.5a1.722,1.722,0,0,0-2.422-.058,11.328,11.328,0,0,1-12.685,2.537c-.058,0-.115-.058-.173-.058l-30.443-23.294a2.8,2.8,0,0,0-3.056-.288A2.886,2.886,0,0,0,1137.8,829v13.838a2.366,2.366,0,0,0,.058.634l1.845,8.245-1.557,13.088h-.577a2.883,2.883,0,1,0,0,5.766h3.171a2.92,2.92,0,0,0,2.883-2.537l1.787-15.049,7.034,5.132a2.131,2.131,0,0,0,.807.4l4.613,1.5.922,4.728h-.692a2.883,2.883,0,0,0,0,5.766h4.151a3.065,3.065,0,0,0,2.249-1.038,2.952,2.952,0,0,0,.577-2.364l-.98-4.958,7.034,6.169a2.9,2.9,0,0,0,3.229.4,2.831,2.831,0,0,0,1.5-2.883l-1.326-11.762a15.723,15.723,0,0,0,3.056.288,14.832,14.832,0,0,0,10.551-4.44A1.561,1.561,0,0,0,1188.192,847.561Z" transform="translate(9139.181 -2364.559)"/></g></svg>