<svg xmlns="http://www.w3.org/2000/svg" width="142.4" height="82.112" viewBox="0 0 142.4 82.112"><defs><style>.a{fill:#92278f;}.b{fill:#977348;}</style></defs><g transform="translate(-626.6 -408.896)"><g transform="translate(-156.885 -802.391)"><g transform="translate(783.485 1243.391)"><path class="a" d="M40.9,5.625C42.627,3.549,41.4,0,38.954,0H2.753C.305,0-.921,3.549.81,5.625l17.436,20.9V45.313H13.685c-1.8,0-3.258,1.749-3.258,3.906a.725.725,0,0,0,.652.781h19.55a.725.725,0,0,0,.652-.781c0-2.157-1.459-3.906-3.258-3.906H23.46V26.527Z" transform="translate(0)"/></g></g><path class="b" d="M1144.763,823.764a14.647,14.647,0,0,0-2.3-4.372c2.071-5.982-1.994-10.661-3.835-10.43-1.074.153-2.454,2.454-3.6,4.832-2.148-4.372-6.826-5.675-8.13-4.6-1.15.92-.614,5.292,0,8.36-6.9,2.991-11.5,10.507-10.814,14.342.92,5.138,9.894,6.749,21.858,3.681C1143.842,834.041,1147.217,830.589,1144.763,823.764Zm67.26,36.583a2.291,2.291,0,0,0-3.221-.077,15.068,15.068,0,0,1-16.873,3.375c-.077,0-.153-.077-.23-.077L1151.2,832.583a3.723,3.723,0,0,0-4.065-.383,3.838,3.838,0,0,0-2.147,3.451v18.406a3.146,3.146,0,0,0,.077.844l2.454,10.967-2.071,17.41h-.767a3.835,3.835,0,1,0,0,7.669h4.218a3.884,3.884,0,0,0,3.835-3.375l2.378-20.017,9.357,6.826a2.832,2.832,0,0,0,1.074.537l6.135,1.994,1.227,6.289h-.92a3.835,3.835,0,0,0,0,7.67h5.522a4.077,4.077,0,0,0,2.991-1.381,3.927,3.927,0,0,0,.767-3.144l-1.3-6.6,9.357,8.206a3.861,3.861,0,0,0,4.295.537,3.766,3.766,0,0,0,1.994-3.835l-1.764-15.646a20.92,20.92,0,0,0,4.065.383,19.729,19.729,0,0,0,14.035-5.906A2.076,2.076,0,0,0,1212.023,860.347Z" transform="translate(-443.704 -399.939)"/></g></svg>