<svg xmlns="http://www.w3.org/2000/svg" width="157.467" height="133.854" viewBox="0 0 157.467 133.854"><defs><style>.a{fill:#c89b65;}.b{fill:#977348;}.c{fill:#58350b;}</style></defs><g transform="translate(-10367.954 3304.339)"><path d="M375.567,382.687c5.281-.158,12.2-5.281,11.936-15.633-.211-7.235-4.647-10.774-12.569-10.563-5.281.158-9.453,3.908-9.242,11.091C365.8,374.871,369.124,382.846,375.567,382.687Zm.475,2.482a11.053,11.053,0,0,0-2.693-.37,8.865,8.865,0,0,0-2.641.37c-18.273.687-20.7,21.389-21.812,46.369a4.739,4.739,0,0,0,4.542,4.964h.211a4.762,4.762,0,0,0,4.753-4.542c.739-16.372,2.271-25.614,4.383-30.79v24.083a10.687,10.687,0,0,0,.687,3.7c-8.344,14.682-7.658,28.255-6.971,41.458.211,3.855.422,7.816.422,11.83a6.338,6.338,0,1,0,12.675,0c0-4.383-.211-8.5-.422-12.517-.634-11.883-1.109-21.653,4.014-32.11,4.595,10.615,4.331,22.128,4.067,35.173-.053,3.063-.106,6.285-.106,9.506a6.338,6.338,0,1,0,12.675,0c0-3.116.053-6.232.106-9.242.317-14.629.634-29.681-6.76-43.887a10.433,10.433,0,0,0,.739-3.855V401.858c1.954,5.281,3.433,14.418,4.119,30.1a4.762,4.762,0,0,0,4.753,4.542h.211a4.739,4.739,0,0,0,4.542-4.964C396.428,406.717,394,386.067,376.042,385.169Z" transform="translate(10069.181 -3660.822)"/><path class="a" d="M24.418,19.9A21.185,21.185,0,0,1,42.35,29.375V19.9A10.6,10.6,0,0,1,52.937,9.308a3.529,3.529,0,1,1,0,7.058A3.534,3.534,0,0,0,49.408,19.9V48.129a7.065,7.065,0,0,1-7.058,7.058H22.939a1.764,1.764,0,0,1-1.765-1.765V51.658A3.53,3.53,0,0,1,24.7,48.129h3.529L14.117,37.542V53.423a1.764,1.764,0,0,1-1.765,1.765H8.823a1.764,1.764,0,0,1-1.765-1.765V30.688a13.976,13.976,0,0,0,3.529.5A14.139,14.139,0,0,0,24.418,19.9ZM7.058,9.308h7.058L21.175,2.25V17.072A10.587,10.587,0,1,1,0,17.072V2.25ZM15,18.131a1.765,1.765,0,1,0-1.765-1.765A1.764,1.764,0,0,0,15,18.131Zm-8.823,0a1.765,1.765,0,1,0-1.765-1.765A1.764,1.764,0,0,0,6.176,18.131Z" transform="translate(10468.954 -3256.672)"/><path class="b" d="M24.418,19.9A21.185,21.185,0,0,1,42.35,29.375V19.9A10.6,10.6,0,0,1,52.937,9.308a3.529,3.529,0,1,1,0,7.058A3.534,3.534,0,0,0,49.408,19.9V48.129a7.065,7.065,0,0,1-7.058,7.058H22.939a1.764,1.764,0,0,1-1.765-1.765V51.658A3.53,3.53,0,0,1,24.7,48.129h3.529L14.117,37.542V53.423a1.764,1.764,0,0,1-1.765,1.765H8.823a1.764,1.764,0,0,1-1.765-1.765V30.688a13.976,13.976,0,0,0,3.529.5A14.139,14.139,0,0,0,24.418,19.9ZM7.058,9.308h7.058L21.175,2.25V17.072A10.587,10.587,0,1,1,0,17.072V2.25ZM15,18.131a1.765,1.765,0,1,0-1.765-1.765A1.764,1.764,0,0,0,15,18.131Zm-8.823,0a1.765,1.765,0,1,0-1.765-1.765A1.764,1.764,0,0,0,6.176,18.131Z" transform="translate(10441.954 -3225.672)"/><path class="c" d="M32.048,19.9a21.185,21.185,0,0,0-17.931,9.479V19.9A10.6,10.6,0,0,0,3.529,9.308a3.529,3.529,0,1,0,0,7.058A3.534,3.534,0,0,1,7.058,19.9V48.129a7.065,7.065,0,0,0,7.058,7.058h19.41a1.764,1.764,0,0,0,1.765-1.765V51.658a3.53,3.53,0,0,0-3.529-3.529H28.233L42.35,37.542V53.423a1.764,1.764,0,0,0,1.765,1.765h3.529a1.764,1.764,0,0,0,1.765-1.765V30.688a13.976,13.976,0,0,1-3.529.5A14.139,14.139,0,0,1,32.048,19.9ZM49.408,9.308H42.35L35.292,2.25V17.072a10.587,10.587,0,1,0,21.175,0V2.25Zm-7.941,8.823a1.765,1.765,0,1,1,1.765-1.765A1.764,1.764,0,0,1,41.468,18.131Zm8.823,0a1.765,1.765,0,1,1,1.765-1.765A1.764,1.764,0,0,1,50.29,18.131Z" transform="translate(10367.954 -3241.672)"/></g></svg>