<svg xmlns="http://www.w3.org/2000/svg" width="156.14" height="116.577" viewBox="0 0 156.14 116.577"><defs><style>.a{fill:#67aee4;}.b{fill:#977348;}</style></defs><g transform="translate(-1398.484 -465.298)"><path class="a" d="M668.072,517.561l-2.09-3.1L651.2,530.8l1.682,2.417L679.031,514.2l-2.09-3.1Z" transform="translate(815.181 14.092)"/><path d="M704.24,425.756c5.535,0,12.9-5.2,12.9-16.053,0-7.583-4.594-11.4-12.9-11.4-5.535,0-9.964,3.819-9.964,11.4S697.486,425.756,704.24,425.756Zm52.033,64.875a6.64,6.64,0,0,0-7.916-5.037c-10.074,2.269-18.1,1.882-21.367-.941a5.544,5.544,0,0,1-1.55-2.159,9.713,9.713,0,0,0,2.325-4.262c3.6-13.617,1.661-33.6-2.159-46.387a10,10,0,0,0-12.4-6.753,10.383,10.383,0,0,0-4.539,2.823,4.463,4.463,0,0,0-1.384,1.937,10.876,10.876,0,0,0-.886,2.214c-5.2,11.458-20.868,18.433-21.035,18.488a4.975,4.975,0,0,0,1.495,9.521,5.007,5.007,0,0,0-.609,6.642,4.982,4.982,0,0,0,6.975,1,81.724,81.724,0,0,0,15.887-16.551c.886,8.248.72,16.606-.664,21.92a10.2,10.2,0,0,0,.111,5.48c-4.1,8.635-4.041,18.045.5,25.408,4.262,6.975,11.68,10.739,20.592,10.739a37.18,37.18,0,0,0,7.251-.775,6.644,6.644,0,1,0-2.712-13.008c-6.476,1.384-11.4,0-13.783-3.875a12.473,12.473,0,0,1-.609-1.218c4.207,2.989,9.8,4.484,16.661,4.484a67.957,67.957,0,0,0,14.724-1.827A6.487,6.487,0,0,0,756.272,490.63Z" transform="translate(798.181 66.998)"/><path class="b" d="M33.863,20.9A22.385,22.385,0,0,0,14.916,30.911V20.9A11.2,11.2,0,0,0,3.729,9.708a3.729,3.729,0,1,0,0,7.458A3.734,3.734,0,0,1,7.458,20.9V50.727a7.465,7.465,0,0,0,7.458,7.458h20.51a1.864,1.864,0,0,0,1.865-1.865V54.456a3.729,3.729,0,0,0-3.729-3.729H29.832L44.748,39.54V56.321a1.864,1.864,0,0,0,1.865,1.865h3.729a1.864,1.864,0,0,0,1.865-1.865V32.3a14.767,14.767,0,0,1-3.729.529A14.94,14.94,0,0,1,33.863,20.9ZM52.206,9.708H44.748L37.29,2.25V17.912a11.187,11.187,0,1,0,22.374,0V2.25Zm-8.39,9.323a1.865,1.865,0,1,1,1.865-1.865A1.864,1.864,0,0,1,43.816,19.031Zm9.323,0A1.865,1.865,0,1,1,55,17.166,1.864,1.864,0,0,1,53.139,19.031Z" transform="translate(1398.484 523.69)"/></g></svg>