<svg xmlns="http://www.w3.org/2000/svg" width="130.746" height="73.385" viewBox="0 0 130.746 73.385"><defs><style>.a{fill:#92278f;}.b{fill:#977348;}</style></defs><g transform="translate(-783.485 -1223.521)"><g transform="translate(783.485 1243.391)"><path class="a" d="M40.9,5.625C42.627,3.549,41.4,0,38.954,0H2.753C.305,0-.921,3.549.81,5.625l17.436,20.9V45.313H13.685c-1.8,0-3.258,1.749-3.258,3.906a.725.725,0,0,0,.652.781h19.55a.725.725,0,0,0,.652-.781c0-2.157-1.459-3.906-3.258-3.906H23.46V26.527Z" transform="translate(0)"/></g><path class="b" d="M33.85,26.712A29.368,29.368,0,0,1,58.708,39.852V26.712A14.693,14.693,0,0,1,73.385,12.035a4.892,4.892,0,0,1,0,9.785,4.9,4.9,0,0,0-4.892,4.892V65.85a9.794,9.794,0,0,1-9.785,9.785H31.8a2.445,2.445,0,0,1-2.446-2.446V70.743a4.893,4.893,0,0,1,4.892-4.892h4.892L19.569,51.173V73.189a2.445,2.445,0,0,1-2.446,2.446H12.231a2.445,2.445,0,0,1-2.446-2.446V41.673a19.374,19.374,0,0,0,4.892.694A19.6,19.6,0,0,0,33.85,26.712ZM9.785,12.035h9.785L29.354,2.25V22.8A14.677,14.677,0,1,1,0,22.8V2.25ZM20.792,24.266a2.446,2.446,0,1,0-2.446-2.446A2.445,2.445,0,0,0,20.792,24.266Zm-12.231,0a2.446,2.446,0,1,0-2.446-2.446A2.445,2.445,0,0,0,8.562,24.266Z" transform="translate(835.954 1221.271)"/></g></svg>