<svg xmlns="http://www.w3.org/2000/svg" width="100.905" height="137.962" viewBox="0 0 100.905 137.962"><defs><style>.a,.b{fill:none;stroke-linecap:round;stroke-width:10px;}.a{stroke:#72acd8;}.b{stroke:#000;}.c{fill:#72acd8;}</style></defs><g transform="translate(-9821.355 1624.955)"><path d="M206.526,705.867c7.051,0,10.4-8.843,10.4-16.761s-4.682-11.906-10.4-11.906c-8.67,0-13.467,3.988-13.467,11.906C193.06,700.435,200.747,705.867,206.526,705.867ZM229.3,735.055a38.286,38.286,0,0,1-11.27-2.2c.751.058,1.5.058,2.254.058a32.9,32.9,0,0,0,12.2-2.254,5.222,5.222,0,0,0-3.988-9.652,25.535,25.535,0,0,1-10,1.387c-6.647-.52-11.5-4.161-14.8-10.982-.116-.289-.231-.578-.4-.925l-.173-.347a4.788,4.788,0,0,0-1.445-1.907,10.647,10.647,0,0,0-4.682-2.948,10.446,10.446,0,0,0-12.947,7.051c-3.93,13.293-5.953,34.216-2.254,48.434a10.078,10.078,0,0,0,3.526,5.433c.289,15.547-3.352,23.755-14.1,34.5a6.936,6.936,0,0,0,4.913,11.848,7.059,7.059,0,0,0,4.913-2.023c6.762-6.762,11.213-13.062,13.987-19.535a82.8,82.8,0,0,1-3.988,14.912,6.959,6.959,0,0,0,4.219,8.843,6.5,6.5,0,0,0,2.312.4,6.948,6.948,0,0,0,6.531-4.624c6.415-18.206,8.265-33.349-2.138-49.995a10.122,10.122,0,0,0-.058-5.086c-1.387-5.26-1.618-13.293-.867-21.385a32.568,32.568,0,0,0,10.924,7.571,47.732,47.732,0,0,0,17.05,3.815h.058a5.2,5.2,0,0,0,5.2-5.144A4.964,4.964,0,0,0,229.3,735.055Z" transform="translate(9652.181 -2302.155)"/><path class="a" d="M9873.034-1592.033l6.145,18.866"/><path class="a" d="M9873.034-1592.033,9898-1502.577"/><path class="b" d="M9872.408-1564.737l7.846,1.636,7.179.818" transform="translate(-2 1)"/><path class="c" d="M9882.851-1493.976h31.125l12.285-24.572h-19.248Z" transform="translate(-4 -4)"/></g></svg>