<svg xmlns="http://www.w3.org/2000/svg" width="133.451" height="138.07" viewBox="0 0 133.451 138.07"><defs><style>.a{fill:#977348;}</style></defs><g transform="translate(-326.077 -375.638)"><path d="M708.314,430.864c6.565,0,15.3-6.171,15.3-19.04,0-8.995-5.449-13.525-15.3-13.525-6.565,0-11.818,4.53-11.818,13.525S700.3,430.864,708.314,430.864Zm61.715,76.946a7.876,7.876,0,0,0-9.388-5.974c-11.949,2.692-21.469,2.232-25.342-1.116a6.575,6.575,0,0,1-1.838-2.561,11.52,11.52,0,0,0,2.758-5.055c4.268-16.151,1.97-39.852-2.56-55.018a11.861,11.861,0,0,0-14.707-8.01,12.316,12.316,0,0,0-5.384,3.348,5.293,5.293,0,0,0-1.641,2.3,12.9,12.9,0,0,0-1.05,2.626c-6.171,13.59-24.752,21.863-24.948,21.928A5.9,5.9,0,0,0,687.7,471.57a5.939,5.939,0,0,0-.722,7.878,5.909,5.909,0,0,0,8.272,1.182A96.931,96.931,0,0,0,714.091,461c1.05,9.782.854,19.7-.788,26a12.1,12.1,0,0,0,.131,6.5c-4.858,10.242-4.793,21.4.591,30.135,5.055,8.272,13.853,12.737,24.423,12.737a44.094,44.094,0,0,0,8.6-.919,7.88,7.88,0,0,0-3.217-15.429c-7.682,1.641-13.525,0-16.348-4.6a14.834,14.834,0,0,1-.722-1.444c4.99,3.545,11.621,5.318,19.762,5.318a80.6,80.6,0,0,0,17.464-2.167A7.694,7.694,0,0,0,770.028,507.811Z" transform="translate(-310.704 -22.662)"/><path class="a" d="M3142.562,21226.879l5.1-39.359-21.043-13.25-20.653,13.25,6.025,39.359Z" transform="translate(-2779.885 -20721.381)"/></g></svg>