<svg xmlns="http://www.w3.org/2000/svg" width="150.874" height="108.991" viewBox="0 0 150.874 108.991"><defs><style>.a{fill:#8dc63f;}.b{fill:#977348;}</style></defs><g transform="translate(-926.115 -477.116)"><path d="M347.624,83.072c5.542,0,8.177-7.21,8.177-13.665s-3.68-9.707-8.177-9.707c-6.814,0-10.585,3.251-10.585,9.707C337.039,78.643,343.126,83.072,347.624,83.072ZM372.11,102.3a4.086,4.086,0,0,0-4.725-3.44c-9.04,1.649-14.4.565-21.624-10.414a8.3,8.3,0,0,0-5.542-5.843,7.842,7.842,0,0,0-5.679.424C316.051,88.632,313.779,102.2,314.1,116.1a4.156,4.156,0,0,0,4.089,4.147h.091a4.188,4.188,0,0,0,4-4.335c-.227-9.566.863-16.21,6.178-20.592-1.908,10.32-2.5,23.184-.136,32.466a8.9,8.9,0,0,0,1.635,3.3c-2.408,11.922-9.177,20.733-20.488,26.906a5.744,5.744,0,0,0-2.317,7.634,5.43,5.43,0,0,0,4.861,3.063,4.739,4.739,0,0,0,2.5-.66c13.311-7.21,21.851-17.765,25.44-31.524,5.951,6.927,7.087,14.8,3.725,24.644a5.731,5.731,0,0,0,3.316,7.21,4.946,4.946,0,0,0,1.817.33,5.476,5.476,0,0,0,5.133-3.77c5.361-15.644,2.135-28.98-9.54-39.676a10.99,10.99,0,0,0-.273-1.7c-1.408-5.607-1.272-15.079.136-23.513,5.179,5.513,10.63,7.963,17.581,7.963a38.6,38.6,0,0,0,7.041-.707A4.413,4.413,0,0,0,372.11,102.3Z" transform="translate(704.823 417.416)"/><path class="a" d="M226.772,202a31.958,31.958,0,0,1-16.259-4.1.824.824,0,1,1,.836-1.421c11.912,6.938,28.673,3.636,39.08-3.218,6.771-4.431,10.408-10.073,9.822-15.047a.822.822,0,1,1,1.63-.209c.711,5.726-3.135,11.787-10.575,16.677A44.681,44.681,0,0,1,226.772,202Z" transform="translate(760.296 359.511)"/><path class="b" d="M168.412,189.247c.326-1.909.652-4.562,0-5.074-.791-.605-3.631.14-4.934,2.793-.7-1.443-1.49-2.886-2.188-2.933-1.117-.14-3.584,2.747-2.328,6.331a8.893,8.893,0,0,0-1.4,2.653c-1.49,4.143.559,6.284,4.143,7.169,7.262,1.862,12.755.931,13.267-2.234C175.394,195.625,172.648,191.063,168.412,189.247Zm-10.753,39.941h-.7l-2.374-10.474,2.653-6.378a2.017,2.017,0,0,0,.186-.884V200.28a2.475,2.475,0,0,0-.838-1.815,2.369,2.369,0,0,0-1.909-.512l-24.346,4.609h-.047a.792.792,0,0,0-.326.047,9.389,9.389,0,0,1-9.543-4.283,1.414,1.414,0,1,0-2.374,1.536,12,12,0,0,0,9.869,5.679l-3.4,8.612-4.562,6.936a2.247,2.247,0,0,0-.326,1.722l1.815,9.124a2.341,2.341,0,0,0,2.281,1.862h2.886a2.328,2.328,0,0,0,0-4.655h-.978l-1.257-6.331,4.19-6.378c.093-.14.14-.279.233-.419l.791-1.955,11.777-1.024,9.264,2.979-.652,1.536a2.414,2.414,0,0,0-.14,1.4l2.979,12.988a2.3,2.3,0,0,0,2.281,1.815h2.56a2.281,2.281,0,1,0,0-4.562Z" transform="translate(808.296 351.311)"/></g></svg>