<svg xmlns="http://www.w3.org/2000/svg" width="162.013" height="103.909" viewBox="0 0 162.013 103.909"><defs><style>.a,.b{fill:none;}.a{stroke:rgba(0,0,0,0.8);stroke-width:5px;}.b{stroke:#a2e159;stroke-width:10px;}.c{fill:#977348;}</style></defs><g transform="translate(-667.541 -466.398)"><path class="a" d="M1582.443,20178.053v46.971" transform="translate(-776.885 -19662)"/><path class="a" d="M1529.422,20143.434v40.146" transform="translate(-776.885 -19662)"/><path class="b" d="M1602.24,20188.49,1516.126,20135" transform="translate(-1829.932 -19552.768) rotate(-3)"/><path class="c" d="M1177.243,220.583a3.014,3.014,0,0,0-4.051,1l-.47.763-11.389-3.64,1.174-8.982a2.918,2.918,0,0,0-.235-1.585l-5.343-11.742a2.93,2.93,0,0,0-3.7-1.526l-29.942,11.037a.53.53,0,0,0-.294.059,11.841,11.841,0,0,1-12.035-5.4,1.783,1.783,0,0,0-2.994,1.937,15.13,15.13,0,0,0,12.446,7.163l-3.933,9.922-9.276,3.7a2.866,2.866,0,0,0-1.468,1.292l-6.106,10.8a2.928,2.928,0,0,0,.47,3.523l2.583,2.583a2.788,2.788,0,0,0,2.055.822,2.979,2.979,0,0,0,2.113-.881,3.014,3.014,0,0,0,0-4.168l-1-1,4.521-7.926,9.511-3.816a2.837,2.837,0,0,0,1.644-1.644l1.115-2.759,16.791-4.11,15.206,2.583a1.939,1.939,0,0,0,.822,0l-.235,1.7a2.907,2.907,0,0,0,2,3.17l16.028,5.166a2.932,2.932,0,0,0,3.405-1.292l1.644-2.759A2.91,2.91,0,0,0,1177.243,220.583ZM1154.816,187a12.235,12.235,0,0,0,1.468,3.464c2.877,4.755,6.634,4.4,10.333,1.7,7.632-5.636,11.037-11.742,8.4-14.795-1.937-2.231-8.689-3.17-13.8-.528-1.585-1.82-3.934-4.227-4.99-4.051-1.233.235-2.759,3.64-1.174,7.045-1.937-.47-3.992-.822-4.579-.235C1149.415,180.661,1150.3,185.357,1154.816,187Z" transform="translate(-431.704 328.002)"/></g></svg>