<svg xmlns="http://www.w3.org/2000/svg" width="115.024" height="94.71" viewBox="0 0 115.024 94.71"><defs><style>.a{fill:#ed1c24;}</style></defs><path class="a" d="M110.906,72.78l-.271-.252c-.166-.152-.332-.305-.491-.465L84.305,46.232c-.057-.057-.115-.11-.177-.162a11.573,11.573,0,0,0-4.379-2.294V37.448a2.772,2.772,0,0,0-2.772-2.772H64.41a2.772,2.772,0,0,0-2.772,2.772v5.914H8.191A8.2,8.2,0,0,0,0,51.552v49.075A2.772,2.772,0,0,0,2.772,103.4h7.241a12.4,12.4,0,0,0,24.172,0H81.7a12.4,12.4,0,0,0,24.175-.017,9.486,9.486,0,0,0,9.151-9.465V82.294A13.1,13.1,0,0,0,110.906,72.78ZM67.183,40.22h7.023v3.141H67.183V40.22ZM22.1,107.485a6.858,6.858,0,1,1,6.858-6.858A6.866,6.866,0,0,1,22.1,107.485ZM36.359,67.727A2.772,2.772,0,0,1,33.587,70.5h-4.5V75a2.772,2.772,0,0,1-2.772,2.772H20.957A2.772,2.772,0,0,1,18.185,75V70.5h-4.5a2.772,2.772,0,0,1-2.772-2.772V62.368A2.772,2.772,0,0,1,13.687,59.6h4.5V55.1a2.772,2.772,0,0,1,2.772-2.772h5.36A2.772,2.772,0,0,1,29.089,55.1v4.5h4.5a2.772,2.772,0,0,1,2.772,2.772v5.359Zm33.781,2.7A2.444,2.444,0,0,1,67.7,67.982V54.9a1.361,1.361,0,0,1,1.36-1.359h8.729a3.207,3.207,0,0,1,2.283.945L93.408,67.822a1.524,1.524,0,0,1-1.078,2.6Zm23.642,37.062a6.858,6.858,0,1,1,6.858-6.858A6.866,6.866,0,0,1,93.783,107.485ZM70.694,31.626a2.772,2.772,0,0,1-2.772-2.772V21.092a2.772,2.772,0,1,1,5.544,0v7.762A2.772,2.772,0,0,1,70.694,31.626Zm13.459,2.356a2.772,2.772,0,0,1-1.96-4.732l4.891-4.891A2.772,2.772,0,1,1,91,28.28L86.113,33.17A2.76,2.76,0,0,1,84.153,33.983Zm-25.613,0a2.763,2.763,0,0,1-1.96-.812L51.688,28.28a2.772,2.772,0,1,1,3.92-3.92L60.5,29.251a2.772,2.772,0,0,1-1.96,4.732Z" transform="translate(0 -18.32)"/></svg>