<svg xmlns="http://www.w3.org/2000/svg" width="155.412" height="141.363" viewBox="0 0 155.412 141.363"><defs><style>.a{fill:#b0dfdb;}.b{fill:#977348;}.c{fill:#36bf56;}.d{fill:#60af2c;}.e{fill:#2185d0;}</style></defs><g transform="translate(-304.115 -375.637)"><path d="M708.314,430.864c6.565,0,15.3-6.171,15.3-19.04,0-8.995-5.449-13.525-15.3-13.525-6.565,0-11.818,4.53-11.818,13.525S700.3,430.864,708.314,430.864Zm61.715,76.946a7.876,7.876,0,0,0-9.388-5.974c-11.949,2.692-21.469,2.232-25.342-1.116a6.575,6.575,0,0,1-1.838-2.561,11.52,11.52,0,0,0,2.758-5.055c4.268-16.151,1.97-39.852-2.56-55.018a11.861,11.861,0,0,0-14.707-8.01,12.316,12.316,0,0,0-5.384,3.348,5.293,5.293,0,0,0-1.641,2.3,12.9,12.9,0,0,0-1.05,2.626c-6.171,13.59-24.752,21.863-24.948,21.928A5.9,5.9,0,0,0,687.7,471.57a5.939,5.939,0,0,0-.722,7.878,5.909,5.909,0,0,0,8.272,1.182A96.931,96.931,0,0,0,714.091,461c1.05,9.782.854,19.7-.788,26a12.1,12.1,0,0,0,.131,6.5c-4.858,10.242-4.793,21.4.591,30.135,5.055,8.272,13.853,12.737,24.423,12.737a44.094,44.094,0,0,0,8.6-.919,7.88,7.88,0,0,0-3.217-15.429c-7.682,1.641-13.525,0-16.348-4.6a14.834,14.834,0,0,1-.722-1.444c4.99,3.545,11.621,5.318,19.762,5.318a80.6,80.6,0,0,0,17.464-2.167A7.694,7.694,0,0,0,770.028,507.811Z" transform="translate(-310.704 -22.663)"/><g transform="translate(-10049.885 3655.638)"><rect class="a" width="57" height="57" rx="28.5" transform="translate(10360 -3248.638)"/><path class="b" d="M18.764,6.75C13.6,6.75,9.1,9.892,6.587,12.58L1.578,8.791a.954.954,0,0,0-1.557.841l1.387,6.3L.02,22.226a.954.954,0,0,0,1.557.841l5.01-3.789C9.1,21.965,13.6,25.107,18.764,25.107c7.885,0,14.278-7.343,14.278-9.178S26.65,6.75,18.764,6.75ZM23.78,17.305a1.377,1.377,0,1,1,1.377-1.377A1.377,1.377,0,0,1,23.78,17.305Z" transform="translate(10365.972 -3235.664)"/><path class="c" d="M12.5,6.841c0-2.994-2.874-4.591-2.874-4.591S6.75,3.847,6.75,6.841a2.285,2.285,0,0,0,2.3,2.572V10.3H10.2V9.411A2.282,2.282,0,0,0,12.5,6.841Z" transform="translate(10387.974 -3209.768)"/><path class="d" d="M14.661,8.569c0-4.121-3.956-6.319-3.956-6.319S6.75,4.448,6.75,8.569c0,2.937,2.01,3.474,3.165,3.54v1.216H11.5V12.107C12.651,12.043,14.661,11.506,14.661,8.569Z" transform="translate(10392.265 -3212.798)"/><rect class="a" width="21" height="3" transform="translate(10378 -3192.638)"/></g><rect class="b" width="68" height="51" transform="translate(304.115 466)"/><path class="e" d="M10346.943-1595.5s-4.12-7.505-6.3-9.2-1.09.123-2.423,2.423-2.181,3.141-2.908,6.776-1.333,5.1,0,7.764-2.648-2.12-2.648,0,.286,3.877,2.648,8.481,9.754,10.178,14.782,12.843,4-.242,5.331-2.181,1.333-4.18,0-5.574-3.211,1.03-5.331,0-3.15-1.454-3.15-4.12,3.756-4.483,3.15-6.543-4.785.971-5.573-1.7S10346.943-1595.5,10346.943-1595.5Z" transform="translate(-9969.885 2032)"/></g></svg>