<svg xmlns="http://www.w3.org/2000/svg" xmlns:xlink="http://www.w3.org/1999/xlink" width="123.645" height="144.955" viewBox="0 0 123.645 144.955"><defs><style>.a{fill:url(#a);}.b{fill:#95c7ec;}.c{fill:#2185d0;}.d{fill:#36bf56;}.e{fill:#60af2c;}</style><linearGradient id="a" x1="0.984" y1="0.016" x2="0" y2="1" gradientUnits="objectBoundingBox"><stop offset="0" stop-color="#977348"/><stop offset="1" stop-color="#4c3a24"/></linearGradient></defs><path d="M198.353,705.867c-7.051,0-10.4-8.843-10.4-16.761s4.682-11.906,10.4-11.906c8.67,0,13.467,3.988,13.467,11.906C211.82,700.435,204.133,705.867,198.353,705.867Zm-22.772,29.188a38.286,38.286,0,0,0,11.27-2.2c-.751.058-1.5.058-2.254.058a32.9,32.9,0,0,1-12.2-2.254,5.222,5.222,0,0,1,3.988-9.652,25.535,25.535,0,0,0,10,1.387c6.647-.52,11.5-4.161,14.8-10.982.116-.289.231-.578.4-.925l.173-.347a4.788,4.788,0,0,1,1.445-1.907,10.647,10.647,0,0,1,4.682-2.948,10.446,10.446,0,0,1,12.947,7.051c3.93,13.293,5.953,34.216,2.254,48.434a10.078,10.078,0,0,1-3.526,5.433c-.289,15.547,3.352,23.755,14.1,34.5a6.936,6.936,0,0,1-4.913,11.848,7.059,7.059,0,0,1-4.913-2.023c-6.762-6.762-11.213-13.062-13.987-19.535a82.8,82.8,0,0,0,3.988,14.912,6.959,6.959,0,0,1-4.219,8.843,6.5,6.5,0,0,1-2.312.4,6.948,6.948,0,0,1-6.531-4.624c-6.415-18.206-8.265-33.349,2.138-49.995a10.122,10.122,0,0,1,.058-5.086c1.387-5.26,1.618-13.293.867-21.385a32.568,32.568,0,0,1-10.924,7.571,47.732,47.732,0,0,1-17.05,3.815h-.058a5.2,5.2,0,0,1-5.2-5.144A4.964,4.964,0,0,1,175.581,735.055Z" transform="translate(-112.06 -677.2)"/><rect class="a" width="49" height="62" transform="translate(0 82.955)"/><rect class="b" width="49" height="62" transform="translate(0 20.955)"/><path class="c" d="M10126.487-1567.86s2.8-.652,4.1-5.779,2.145-9.833,1.119-14.726-1.538-5.406-5.22-4.847a12.1,12.1,0,0,0-9.507,7.083c-2.377,4.707,2.677,13.07,2.91,14.7s-1.978.445-1.978,3.567.7,4.381.932,9.134-1.911,7.41,0,9.879,4.707.7,7.643,0,3.309-1.212,4.1-2.8-.932-3.542-.932-3.542-4.66-1.445-6.524-3.542c-.927-1.042-.307-1.207-.441-2.18-.083-.355-.912-1.518-.49-2.667C10123.039-1565.856,10126.487-1567.86,10126.487-1567.86Z" transform="translate(-10063.512 1624.955)"/><path class="d" d="M6.75,6.841c0-2.994,2.874-4.591,2.874-4.591S12.5,3.847,12.5,6.841a2.285,2.285,0,0,1-2.3,2.572V10.3H9.049V9.411A2.282,2.282,0,0,1,6.75,6.841Z" transform="translate(6.779 68.824)"/><path class="e" d="M6.75,8.569c0-4.121,3.956-6.319,3.956-6.319s3.956,2.2,3.956,6.319c0,2.937-2.01,3.474-3.165,3.54v1.216H9.915V12.107C8.76,12.043,6.75,11.506,6.75,8.569Z" transform="translate(0.324 65.794)"/></svg>