<svg xmlns="http://www.w3.org/2000/svg" width="141.421" height="137.962" viewBox="0 0 141.421 137.962"><defs><style>.a{fill:#ed1c24;}.b{fill:#b0dfdb;}.c{fill:#977348;}.d{fill:#36bf56;}.e{fill:#60af2c;}</style></defs><g transform="translate(-932.471 -452.046)"><path d="M206.526,705.867c7.051,0,10.4-8.843,10.4-16.761s-4.682-11.906-10.4-11.906c-8.67,0-13.467,3.988-13.467,11.906C193.06,700.435,200.747,705.867,206.526,705.867ZM229.3,735.055a38.286,38.286,0,0,1-11.27-2.2c.751.058,1.5.058,2.254.058a32.9,32.9,0,0,0,12.2-2.254,5.222,5.222,0,0,0-3.988-9.652,25.535,25.535,0,0,1-10,1.387c-6.647-.52-11.5-4.161-14.8-10.982-.116-.289-.231-.578-.4-.925l-.173-.347a4.788,4.788,0,0,0-1.445-1.907,10.647,10.647,0,0,0-4.682-2.948,10.446,10.446,0,0,0-12.947,7.051c-3.93,13.293-5.953,34.216-2.254,48.434a10.078,10.078,0,0,0,3.526,5.433c.289,15.547-3.352,23.755-14.1,34.5a6.936,6.936,0,0,0,4.913,11.848,7.059,7.059,0,0,0,4.913-2.023c6.762-6.762,11.213-13.062,13.987-19.535a82.8,82.8,0,0,1-3.988,14.912,6.959,6.959,0,0,0,4.219,8.843,6.5,6.5,0,0,0,2.312.4,6.948,6.948,0,0,0,6.531-4.624c6.415-18.206,8.265-33.349-2.138-49.995a10.122,10.122,0,0,0-.058-5.086c-1.387-5.26-1.618-13.293-.867-21.385a32.568,32.568,0,0,0,10.924,7.571,47.732,47.732,0,0,0,17.05,3.815h.058a5.2,5.2,0,0,0,5.2-5.144A4.964,4.964,0,0,0,229.3,735.055Z" transform="translate(763.296 -225.154)"/><path class="a" d="M259.4,813.6v54.707h75.2V813.6Zm52.937,32.449H302.093v10.244H291.849V846.049H281.6V835.8h10.244V825.561h10.244V835.8h10.244Z" transform="translate(739.296 -278.6)"/><g transform="translate(-9351.885 3724.638)"><rect class="b" width="57" height="57" rx="28.5" transform="translate(10360 -3248.638)"/><path class="c" d="M18.764,6.75C13.6,6.75,9.1,9.892,6.587,12.58L1.578,8.791a.954.954,0,0,0-1.557.841l1.387,6.3L.02,22.226a.954.954,0,0,0,1.557.841l5.01-3.789C9.1,21.965,13.6,25.107,18.764,25.107c7.885,0,14.278-7.343,14.278-9.178S26.65,6.75,18.764,6.75ZM23.78,17.305a1.377,1.377,0,1,1,1.377-1.377A1.377,1.377,0,0,1,23.78,17.305Z" transform="translate(10365.972 -3235.664)"/><path class="d" d="M12.5,6.841c0-2.994-2.874-4.591-2.874-4.591S6.75,3.847,6.75,6.841a2.285,2.285,0,0,0,2.3,2.572V10.3H10.2V9.411A2.282,2.282,0,0,0,12.5,6.841Z" transform="translate(10387.974 -3209.768)"/><path class="e" d="M14.661,8.569c0-4.121-3.956-6.319-3.956-6.319S6.75,4.448,6.75,8.569c0,2.937,2.01,3.474,3.165,3.54v1.216H11.5V12.107C12.651,12.043,14.661,11.506,14.661,8.569Z" transform="translate(10392.265 -3212.798)"/><rect class="b" width="21" height="3" transform="translate(10378 -3192.638)"/></g></g></svg>