<svg xmlns="http://www.w3.org/2000/svg" width="146.244" height="119.986" viewBox="0 0 146.244 119.986"><defs><style>.a{fill:#b0dfdb;}.b{fill:#977348;}.c{fill:#36bf56;}.d{fill:#60af2c;}</style></defs><g transform="translate(-870.756 -1774.014)"><rect class="a" width="80" height="80" rx="40" transform="translate(937 1811)"/><path class="b" d="M26.236,6.75C19.02,6.75,12.718,11.143,9.21,14.9l-7-5.3A1.334,1.334,0,0,0,.029,10.78l1.939,8.8-1.94,8.8A1.334,1.334,0,0,0,2.2,29.564l7-5.3c3.508,3.758,9.81,8.151,17.027,8.151C37.262,32.417,46.2,22.15,46.2,19.583S37.262,6.75,26.236,6.75Zm7.013,14.758a1.925,1.925,0,1,1,1.925-1.925A1.926,1.926,0,0,1,33.249,21.508Z" transform="translate(945.35 1832.333)"/><path class="c" d="M14.786,8.669c0-4.186-4.018-6.419-4.018-6.419S6.75,4.482,6.75,8.669c0,2.983,2.042,3.528,3.214,3.6V13.5h1.607V12.262C12.744,12.2,14.786,11.652,14.786,8.669Z" transform="translate(978.8 1866.75)"/><path class="d" d="M17.812,11.086c0-5.762-5.531-8.836-5.531-8.836S6.75,5.323,6.75,11.086c0,4.107,2.81,4.857,4.425,4.95v1.7h2.212v-1.7C15,15.942,17.812,15.192,17.812,11.086Z" transform="translate(984.8 1862.514)"/><path d="M646.594,692.265c-7.577-2.384-12.876-.265-15.1,6.676-3.126,9.908,2.12,16.8,7.153,18.386,6.146,1.96,11.551-4.875,13.776-11.763C654.6,698.623,651.628,693.855,646.594,692.265Zm1.96,53.251c-3.6-3.126-12.611-12.982-13.829-22.943a8.123,8.123,0,0,0-.159-2.278,4.994,4.994,0,0,0-.689-2.172,9.223,9.223,0,0,0-3.285-3.868,9.546,9.546,0,0,0-13.247,2.543c-7.153,10.544-14.677,28.242-15.366,41.7a9.4,9.4,0,0,0,3.391,7.736c.106,13.723-3.232,21.194-12.929,30.838a6.358,6.358,0,0,0,4.5,10.862,6.472,6.472,0,0,0,4.5-1.854c6.2-6.2,10.279-11.975,12.823-17.909a75.9,75.9,0,0,1-3.656,13.67,6.38,6.38,0,0,0,3.868,8.107,5.96,5.96,0,0,0,2.119.371,6.369,6.369,0,0,0,5.987-4.239c5.828-16.532,7.524-30.308-1.7-45.409a10.424,10.424,0,0,0,.159-1.272,46,46,0,0,1,2.225-10.862,74.346,74.346,0,0,0,3.815,10.385,4.754,4.754,0,0,0,4.345,2.755,4.5,4.5,0,0,0,2.013-.477,4.784,4.784,0,0,0,2.278-6.358,65.767,65.767,0,0,1-4.928-16.161,64.04,64.04,0,0,0,11.6,14.094,4.774,4.774,0,0,0,6.729-.477A4.9,4.9,0,0,0,648.555,745.516Z" transform="translate(280.181 1082.689)"/><circle class="a" cx="4" cy="4" r="4" transform="translate(987 1800)"/><rect class="a" width="29" height="4" transform="translate(962 1890)"/><circle class="a" cx="2.5" cy="2.5" r="2.5" transform="translate(981 1791)"/><ellipse class="a" cx="7.5" cy="7" rx="7.5" ry="7" transform="translate(963 1786)"/><circle class="a" cx="3.5" cy="3.5" r="3.5" transform="translate(954 1801)"/></g></svg>