<svg xmlns="http://www.w3.org/2000/svg" width="158.782" height="139.649" viewBox="0 0 158.782 139.649"><defs><style>.a{fill:#92278f;}.b{fill:#977348;}</style></defs><g transform="translate(-9548.355 2321.242)"><path class="a" d="M675.3,151.2h18.515v15.362H675.3Z" transform="translate(9042.045 -2667.358) rotate(23)"/><path d="M623.812,81.144c7.305,0,10.778-8.928,10.778-16.923S629.74,52.2,623.812,52.2c-8.982,0-13.952,4.026-13.952,12.021C609.86,75.658,617.884,81.144,623.812,81.144Zm20.3,26.318c-.18-.058-17.125-7.411-22.754-19.49a11.3,11.3,0,0,0-.958-2.334,5.24,5.24,0,0,0-1.5-2.042,10.454,10.454,0,0,0-4.91-2.976,10.869,10.869,0,0,0-13.413,7.119c-4.072,13.421-6.168,34.546-2.335,48.9a10.157,10.157,0,0,0,3.653,5.485c.3,15.7-3.473,23.983-14.611,34.837a6.883,6.883,0,0,0,0,9.92,7.307,7.307,0,0,0,5.09,2.042,7.414,7.414,0,0,0,5.09-2.042c7.006-6.827,11.617-13.188,14.491-19.724a81.9,81.9,0,0,1-4.132,15.055,6.981,6.981,0,0,0,4.371,8.928,6.9,6.9,0,0,0,2.4.408,7.19,7.19,0,0,0,6.766-4.668c6.647-18.382,8.563-33.67-2.216-50.476a9.967,9.967,0,0,0-.06-5.135c-1.5-5.6-1.677-14.413-.719-23.108a83.964,83.964,0,0,0,17.185,17.448,5.475,5.475,0,0,0,3.234,1.05,5.407,5.407,0,0,0,4.311-2.1,5.121,5.121,0,0,0-.659-7,5.488,5.488,0,0,0,4.431-3.151A5.142,5.142,0,0,0,644.111,107.461Z" transform="translate(8963.181 -2373.442)"/><path class="b" d="M754.284,195.871a13.091,13.091,0,0,0-3.747-1.8c-1.338-4.634-6.557-5.908-7.828-4.981-.736.521-.6,2.548-.268,4.518-3.68-1.911-7.694-.7-8.163.463-.4,1.043,2.074,3.533,4.014,5.271-3.613,4.749-3.345,11.41-1,13.553,3.145,2.9,10.438.116,17.664-6.777C758.566,202.821,759.369,199.173,754.284,195.871Zm60.351,9.962a1.64,1.64,0,0,0-.6-2.433,2.259,2.259,0,0,0-2.81.521c-5.219,6.892-13.382,5.386-13.716,5.329a1.3,1.3,0,0,0-.468-.058h-.067l-34.993-5.734a3.477,3.477,0,0,0-2.743.637,2.839,2.839,0,0,0-1.2,2.259v13.9a2.087,2.087,0,0,0,.268,1.1l3.814,7.935L758.7,242.322h-1a2.926,2.926,0,1,0,0,5.792h3.68a3.3,3.3,0,0,0,3.279-2.259l4.282-16.159a2.592,2.592,0,0,0-.2-1.738l-.937-1.911,13.315-3.707,16.928,1.274,1.137,2.433a2.275,2.275,0,0,0,.335.521l6.022,7.935-1.807,7.877h-1.405a2.926,2.926,0,1,0,0,5.792h4.148a3.285,3.285,0,0,0,3.279-2.317l2.609-11.352a2.491,2.491,0,0,0-.468-2.143l-6.557-8.63-4.884-10.715A18.706,18.706,0,0,0,814.635,205.833Z" transform="translate(8892.181 -2429.765)"/><path class="a" d="M720.141,279.779l-2.088-7.626a3.533,3.533,0,0,0-3.3-2.253H695.423a3.533,3.533,0,0,0-3.3,2.253l-2.155,7.626c-.337,1.213.606,2.253,2.088,2.253h26.066C719.6,282.032,720.546,281.05,720.141,279.779Z" transform="translate(8920.181 -2464.025)"/></g></svg>