<svg xmlns="http://www.w3.org/2000/svg" width="159.232" height="123.01" viewBox="0 0 159.232 123.01"><defs><style>.a{fill:#67aee4;}.b{fill:#977348;}</style></defs><g transform="translate(-1395.392 -465.298)"><path class="a" d="M668.072,517.561l-2.09-3.1L651.2,530.8l1.682,2.417L679.031,514.2l-2.09-3.1Z" transform="translate(815.181 14.092)"/><path d="M704.24,425.756c5.535,0,12.9-5.2,12.9-16.053,0-7.583-4.594-11.4-12.9-11.4-5.535,0-9.964,3.819-9.964,11.4S697.486,425.756,704.24,425.756Zm52.033,64.875a6.64,6.64,0,0,0-7.916-5.037c-10.074,2.269-18.1,1.882-21.367-.941a5.544,5.544,0,0,1-1.55-2.159,9.713,9.713,0,0,0,2.325-4.262c3.6-13.617,1.661-33.6-2.159-46.387a10,10,0,0,0-12.4-6.753,10.383,10.383,0,0,0-4.539,2.823,4.463,4.463,0,0,0-1.384,1.937,10.876,10.876,0,0,0-.886,2.214c-5.2,11.458-20.868,18.433-21.035,18.488a4.975,4.975,0,0,0,1.495,9.521,5.007,5.007,0,0,0-.609,6.642,4.982,4.982,0,0,0,6.975,1,81.724,81.724,0,0,0,15.887-16.551c.886,8.248.72,16.606-.664,21.92a10.2,10.2,0,0,0,.111,5.48c-4.1,8.635-4.041,18.045.5,25.408,4.262,6.975,11.68,10.739,20.592,10.739a37.18,37.18,0,0,0,7.251-.775,6.644,6.644,0,1,0-2.712-13.008c-6.476,1.384-11.4,0-13.783-3.875a12.473,12.473,0,0,1-.609-1.218c4.207,2.989,9.8,4.484,16.661,4.484a67.957,67.957,0,0,0,14.724-1.827A6.487,6.487,0,0,0,756.272,490.63Z" transform="translate(798.181 66.998)"/><path class="b" d="M297.6,717.444a10.214,10.214,0,0,1,1.6-3.048c-1.444-4.171,1.39-7.433,2.674-7.273.749.107,1.711,1.711,2.513,3.369,1.5-3.048,4.759-3.957,5.668-3.209.8.642.428,3.69,0,5.829,4.813,2.086,8.021,7.326,7.54,10-.642,3.583-6.9,4.706-15.241,2.567C298.239,724.664,295.886,722.2,297.6,717.444Zm-46.952,25.508a1.6,1.6,0,0,1,2.246-.053,10.506,10.506,0,0,0,11.765,2.353c.053,0,.107-.053.16-.053l28.235-21.6a2.6,2.6,0,0,1,2.834-.267,2.676,2.676,0,0,1,1.5,2.406v12.834a2.192,2.192,0,0,1-.053.588l-1.711,7.647,1.444,12.139h.535a2.674,2.674,0,1,1,0,5.348h-2.941a2.708,2.708,0,0,1-2.674-2.353l-1.658-13.957-6.524,4.759a1.976,1.976,0,0,1-.749.374l-4.278,1.39-.856,4.385h.642a2.674,2.674,0,1,1,0,5.348h-3.85a2.843,2.843,0,0,1-2.086-.963,2.738,2.738,0,0,1-.535-2.193l.107-.428-1.872,2.567a2.612,2.612,0,0,1-2.139,1.123H264.71a2.567,2.567,0,0,1-1.979-.909,2.991,2.991,0,0,1-.7-2.086l.535-5.134a1.481,1.481,0,0,1,.053-.481l.7-6.631a14.584,14.584,0,0,1-2.834.267,13.757,13.757,0,0,1-9.786-4.118A1.665,1.665,0,0,1,250.646,742.953Z" transform="translate(1145.181 -176.036)"/></g></svg>