<svg xmlns="http://www.w3.org/2000/svg" width="141.421" height="137.962" viewBox="0 0 141.421 137.962"><defs><style>.a{fill:#ed1c24;}.b{fill:#977348;}</style></defs><g transform="translate(-932.471 -452.046)"><path d="M206.526,705.867c7.051,0,10.4-8.843,10.4-16.761s-4.682-11.906-10.4-11.906c-8.67,0-13.467,3.988-13.467,11.906C193.06,700.435,200.747,705.867,206.526,705.867ZM229.3,735.055a38.286,38.286,0,0,1-11.27-2.2c.751.058,1.5.058,2.254.058a32.9,32.9,0,0,0,12.2-2.254,5.222,5.222,0,0,0-3.988-9.652,25.535,25.535,0,0,1-10,1.387c-6.647-.52-11.5-4.161-14.8-10.982-.116-.289-.231-.578-.4-.925l-.173-.347a4.788,4.788,0,0,0-1.445-1.907,10.647,10.647,0,0,0-4.682-2.948,10.446,10.446,0,0,0-12.947,7.051c-3.93,13.293-5.953,34.216-2.254,48.434a10.078,10.078,0,0,0,3.526,5.433c.289,15.547-3.352,23.755-14.1,34.5a6.936,6.936,0,0,0,4.913,11.848,7.059,7.059,0,0,0,4.913-2.023c6.762-6.762,11.213-13.062,13.987-19.535a82.8,82.8,0,0,1-3.988,14.912,6.959,6.959,0,0,0,4.219,8.843,6.5,6.5,0,0,0,2.312.4,6.948,6.948,0,0,0,6.531-4.624c6.415-18.206,8.265-33.349-2.138-49.995a10.122,10.122,0,0,0-.058-5.086c-1.387-5.26-1.618-13.293-.867-21.385a32.568,32.568,0,0,0,10.924,7.571,47.732,47.732,0,0,0,17.05,3.815h.058a5.2,5.2,0,0,0,5.2-5.144A4.964,4.964,0,0,0,229.3,735.055Z" transform="translate(763.296 -225.154)"/><path class="a" d="M259.4,813.6v54.707h75.2V813.6Zm52.937,32.449H302.093v10.244H291.849V846.049H281.6V835.8h10.244V825.561h10.244V835.8h10.244Z" transform="translate(739.296 -278.6)"/><path class="b" d="M46.384,25c.669-1.607,1.257-3.242,1.988-4.829a6.525,6.525,0,0,1,2.892-2.893,14.981,14.981,0,0,1,2.18-.94.539.539,0,0,0,.319-.585c-.119-.6-.252-1.231-.338-1.869a8.474,8.474,0,0,1,.05-1.193c.006-.541,0-1.082-.021-1.622a9.511,9.511,0,0,1,.428-2.716c.144-.575.039-1.217.208-1.78.175-.585-.034-1.295.526-1.761a.071.071,0,0,0,.018-.054c-.089-.909.581-1.545.888-2.3A3.235,3.235,0,0,1,57.2.59a5.863,5.863,0,0,0,.9-.527.322.322,0,0,1,.5.176,20.01,20.01,0,0,1,.7,2.22,5.885,5.885,0,0,1,.424,2.216,6.282,6.282,0,0,0,.411,1.883c.067.336.1.678.138,1.023.025.237.176.285.324.1a4.792,4.792,0,0,1,1.1-1.167c.74-.455,1.289-1.133,2.014-1.563a19.86,19.86,0,0,1,3.513-1.8A19.237,19.237,0,0,1,71.076,2.4a2.781,2.781,0,0,1,1.114.217.338.338,0,0,1,.216.5c-.381.732-.723,1.416-1.109,2.074Q70.338,6.828,69.3,8.417c-.392.6-.869,1.143-1.3,1.719-.44.593-.847,1.213-1.309,1.788-.32.4-.715.735-1.062,1.113-.382.416-.774.827-1.116,1.275a8.423,8.423,0,0,0-1.5,4.169.514.514,0,0,1-.042.169c-.492.943.025,1.546.692,2.114.094.08.1.259.154.391a2.672,2.672,0,0,0,.282.664,3.326,3.326,0,0,1,.58,1.9c.034.422.159.835.219,1.256a.7.7,0,0,1-.006.2,1.427,1.427,0,0,0,.156.586A5.005,5.005,0,0,0,66.443,28c.194.139.249.2.1.186a.686.686,0,0,0-.285,0,1.556,1.556,0,0,0,.4.182l.1.038c.224.084.3.179.174.214s-.049.127.177.207l.59.209c.225.08.322.187.216.24s-.026.137.178.189.347.146.318.21.138.153.372.2a11.044,11.044,0,0,0,1.268.219,1.208,1.208,0,0,0,.433-.051,3.406,3.406,0,0,1,.833-.167,35.741,35.741,0,0,1,4.747.652c.234.045.617.1.855.128l1.025.106c.237.025.4.073.362.108s.115.126.342.2l3.171,1.06c.227.076.35.171.274.212s.042.149.267.23a6.365,6.365,0,0,1,1.675.748c.51.382,1.078.687,1.581,1.091a8.687,8.687,0,0,0,2.049.927l.218.094c.121.052.122.137,0,.19s-.06.212.132.355l1.244.926c.192.143.29.291.219.332s.042.167.251.282l.418.23c.209.115.369.228.358.251a.59.59,0,0,1-.311-.009c-.16-.029-.149.082.023.247.761.727,1.5,1.43,2.236,2.132.076.072.157.139.258.223.146.12.107.175-.086.121s-.241.066-.111.266c.368.564.725,1.122,1.108,1.661.246.346.559.644.837.966a.068.068,0,0,1,0,.051c0,.029-.084.038-.178.021s-.056.125.085.318l.708.972c.141.193.1.267-.089.165s-.267-.007-.165.21a6.6,6.6,0,0,1,.826,2.325,3.751,3.751,0,0,0,.456,1.254c.1.216.09.335-.013.261s-.156.057-.115.292l.565,3.262c.041.235.011.4-.066.368s-.086.127-.02.357l.154.532c.067.229.051.4-.034.375s-.084.141-.043.377c.108.615.038,1.266.488,1.771.159.178.237.279.123.279s-.093.157.047.351l.115.159c.14.194.177.325.083.293s-.178-.047-.187-.032a.056.056,0,0,0-.012.028,1.025,1.025,0,0,0,0,.171,2.006,2.006,0,0,1-1.2,2.285c-.716.324-1.232,1.051-2.166.962-.293-.028-.617.287-.929.441a.068.068,0,0,1-.05-.007c-.027-.01-.028-.067,0-.126s-.144-.068-.378-.019l-.506.107c-.234.049-.393.024-.356-.056s-.112-.071-.339,0c-1.957.646-3.951.378-5.93.415-.239,0-.406-.024-.375-.07s-.136-.083-.376-.083c-.68,0-1.366,0-2.052,0a7.77,7.77,0,0,1-.955-.066c-.7-.095-1.4-.2-2.1-.317-.766-.133-1.539.17-2.328-.291-.462-.27-.882-.475-1.045-.83-.1-.217-.256-.469-.489-.524-.433-.1-.841-.2-1.241-.319-.56-.172-1.044-.375-1.163-1.115a1.123,1.123,0,0,1,.435-1.288.25.25,0,0,0,.09-.156c.026-.1.234-.2.472-.216l.162-.014a.248.248,0,0,0,.208-.407l-.2-.336c-.123-.2-.252-.355-.287-.337a.671.671,0,0,0-.087.351c-.012.175-.108.144-.214-.07l-.15-.3c-.106-.214-.217-.379-.249-.368a.641.641,0,0,0-.088.33c-.017.171-.1.13-.192-.092l-.086-.215c-.089-.222-.173-.241-.189-.044s-.075.168-.174-.05a1.818,1.818,0,0,0-.988-.968c-.668-.284-1.312-.627-1.98-.912a.483.483,0,0,0-.435.119c-.327.393-.6.826-.919,1.23q-.495.637-1.026,1.245c-.449.516-.915,1.017-1.373,1.526a1.062,1.062,0,0,0-.073.094c-.038.054-.1.042-.144-.024s-.154.056-.252.275l-.1.235c-.1.218-.194.276-.216.128s-.15-.109-.285.088L63.816,59.5c-.135.2-.244.234-.244.082s-.109-.114-.242.083l-.593.876c-.134.2-.222.206-.2.019a.656.656,0,0,0-.022-.388c-.037-.027-.182.107-.322.3l-.239.328c-.141.193-.3.3-.349.235a.228.228,0,0,1-.056-.135c0-.018.015-.038.013-.056s-.01-.013-.026-.023a1.6,1.6,0,0,0-.379.233l-.4.292c-.194.14-.342.166-.33.058s-.159-.12-.378-.025a2.3,2.3,0,0,1-.556.185,12.552,12.552,0,0,0-1.453.115,2.493,2.493,0,0,1-2.29-.625,1.976,1.976,0,0,0-1.156-.424,1.44,1.44,0,0,1-.746-.327l-.712-.676a.623.623,0,0,1-.124-.686,1.958,1.958,0,0,1,1.134-1.168c.229-.068.337-.142.227-.234s-.005-.167.234-.167H54.8a1.742,1.742,0,0,0,.433-.027.519.519,0,0,0-.21-.083c-.117-.031-.036-.138.181-.239l.192-.089c.217-.1.308-.2.2-.227s-.018-.138.192-.251c.4-.215.795-.433,1.2-.642a1.8,1.8,0,0,1,.284-.11c.161-.051.189-.125.064-.161s-.115-.119.022-.184.117-.139-.045-.164-.114-.119.107-.211l.546-.225c.221-.091.323-.269.221-.39s-.159-.192-.14-.241a2.057,2.057,0,0,1,.207-.381c.132-.2.173-.356.089-.353s-.121-.1-.084-.22c.022-.076.043-.151.059-.228a5.814,5.814,0,0,1,.293-1.391,1.191,1.191,0,0,0-.088-1.391c-.149-.187-.338-.255-.379-.192s-.149-.029-.239-.206-.186-.267-.214-.2-.174-.029-.328-.211l-.391-.464c-.154-.183-.306-.257-.338-.167s-.128-.018-.236-.231c-.541-1.07-1.456-1.92-1.667-3.14,0-.005-.011-.009-.023-.013a.378.378,0,0,0-.142.1c-.064.06-.17-.078-.237-.307l-1.1-3.8a2.966,2.966,0,0,0-.383-.76,3.96,3.96,0,0,1-.894-1.977,1.582,1.582,0,0,1,.338-.749,2.482,2.482,0,0,0,.229-1.241,10.414,10.414,0,0,0-.064-1.682c-.02-.238-.057-.42-.107-.4s-.048-.15-.053-.389c-.018-1.024-.923-1.283-1.693-1.6-.221-.092-.564-.234-.774-.3a1.008,1.008,0,0,1-.356-.176,5.486,5.486,0,0,1-.7-.846,3.551,3.551,0,0,0-.729-.664,11.947,11.947,0,0,1-1.223-1.286,8.8,8.8,0,0,0-1.1-.98,1.149,1.149,0,0,1-.258-1.595A10.683,10.683,0,0,0,46.384,25Z" transform="translate(960.878 473.093)"/></g></svg>