<svg xmlns="http://www.w3.org/2000/svg" width="117.644" height="137.962" viewBox="0 0 117.644 137.962"><defs><style>.a{fill:#977348;}.b{fill:none;stroke:#f38604;stroke-width:10px;}</style></defs><g transform="translate(-10711.356 2516.955)"><rect class="a" width="65" height="67" rx="5" transform="translate(10764 -2489)"/><path d="M206.526,705.867c7.051,0,10.4-8.843,10.4-16.761s-4.682-11.906-10.4-11.906c-8.67,0-13.467,3.988-13.467,11.906C193.06,700.435,200.747,705.867,206.526,705.867ZM229.3,735.055a38.286,38.286,0,0,1-11.27-2.2c.751.058,1.5.058,2.254.058,6.589,0-.578.231,0-.058,2.659-1.1,3.119-2.667,2.021-5.326s2.659-4.929,0-3.831c-.058,0,1.621-.9-3.812-1.305-6.647-.52-11.5-4.161-14.8-10.982-.116-.289-.231-.578-.4-.925l-.173-.347a4.788,4.788,0,0,0-1.445-1.907,10.647,10.647,0,0,0-4.682-2.948,10.446,10.446,0,0,0-12.947,7.051c-3.93,13.293-5.953,34.216-2.254,48.434a10.078,10.078,0,0,0,3.526,5.433c.289,15.547-3.352,23.755-14.1,34.5a6.936,6.936,0,0,0,4.913,11.848,7.059,7.059,0,0,0,4.913-2.023c6.762-6.762,11.213-13.062,13.987-19.535a82.8,82.8,0,0,1-3.988,14.912,6.959,6.959,0,0,0,4.219,8.843,6.5,6.5,0,0,0,2.312.4,6.948,6.948,0,0,0,6.531-4.624c6.415-18.206,8.265-33.349-2.138-49.995a10.122,10.122,0,0,0-.058-5.086c-1.387-5.26-1.618-13.293-.867-21.385a32.568,32.568,0,0,0,10.924,7.571,47.732,47.732,0,0,0,17.05,3.815h.058a5.2,5.2,0,0,0,5.2-5.144A4.964,4.964,0,0,0,229.3,735.055Z" transform="translate(10542.181 -3194.155)"/><path class="b" d="M10764-2476.647c13.623-.6,63.517,0,63.517,0" transform="translate(0 -6)"/></g></svg>