<svg xmlns="http://www.w3.org/2000/svg" width="130.057" height="132.346" viewBox="0 0 130.057 132.346"><defs><style>.a{fill:#95c7ec;}.b{fill:#977348;}</style></defs><g transform="translate(-314.188 -378.661)"><path class="a" d="M38.653,89.167V60.945H59.82V89.167H81.339V46.833H95.1L49.236,4.5,3.375,46.833H17.133V89.167Z" transform="translate(342.148 411.844)"/><path d="M375.567,382.687c5.281-.158,12.2-5.281,11.936-15.633-.211-7.235-4.647-10.774-12.569-10.563-5.281.158-9.453,3.908-9.242,11.091C365.8,374.871,369.124,382.846,375.567,382.687Zm.475,2.482a11.053,11.053,0,0,0-2.693-.37,8.865,8.865,0,0,0-2.641.37c-18.273.687-20.7,21.389-21.812,46.369a4.739,4.739,0,0,0,4.542,4.964h.211a4.762,4.762,0,0,0,4.753-4.542c.739-16.372,2.271-25.614,4.383-30.79v24.083a10.687,10.687,0,0,0,.687,3.7c-8.344,14.682-7.658,28.255-6.971,41.458.211,3.855.422,7.816.422,11.83a6.338,6.338,0,1,0,12.675,0c0-4.383-.211-8.5-.422-12.517-.634-11.883-1.109-21.653,4.014-32.11,4.595,10.615,4.331,22.128,4.067,35.173-.053,3.063-.106,6.285-.106,9.506a6.338,6.338,0,1,0,12.675,0c0-3.116.053-6.232.106-9.242.317-14.629.634-29.681-6.76-43.887a10.433,10.433,0,0,0,.739-3.855V401.858c1.954,5.281,3.433,14.418,4.119,30.1a4.762,4.762,0,0,0,4.753,4.542h.211a4.739,4.739,0,0,0,4.542-4.964C396.428,406.717,394,386.067,376.042,385.169Z" transform="translate(-34.704 22.178)"/><path class="b" d="M1135.618,819.016a9.987,9.987,0,0,0-1.569-2.981c1.412-4.079-1.36-7.27-2.615-7.113-.732.1-1.674,1.674-2.458,3.295-1.464-2.981-4.655-3.87-5.544-3.138-.785.628-.418,3.609,0,5.7-4.707,2.04-7.845,7.165-7.374,9.78.628,3.5,6.747,4.6,14.906,2.51C1134.99,826.024,1137.291,823.67,1135.618,819.016Zm45.868,24.947a1.562,1.562,0,0,0-2.2-.052,10.275,10.275,0,0,1-11.506,2.3c-.052,0-.1-.052-.157-.052l-27.615-21.129a2.539,2.539,0,0,0-2.772-.261,2.617,2.617,0,0,0-1.464,2.354v12.552a2.147,2.147,0,0,0,.052.575l1.674,7.479-1.412,11.872h-.523a2.615,2.615,0,1,0,0,5.23h2.876a2.649,2.649,0,0,0,2.615-2.3l1.621-13.65,6.381,4.655a1.931,1.931,0,0,0,.732.366l4.184,1.36.837,4.289h-.627a2.615,2.615,0,1,0,0,5.23h3.766a2.78,2.78,0,0,0,2.04-.942,2.677,2.677,0,0,0,.523-2.144l-.889-4.5,6.381,5.6a2.633,2.633,0,0,0,2.929.366,2.568,2.568,0,0,0,1.36-2.615l-1.2-10.669a14.267,14.267,0,0,0,2.772.261,13.454,13.454,0,0,0,9.571-4.027A1.416,1.416,0,0,0,1181.485,843.963Z" transform="translate(-737.704 -353.824)"/></g></svg>