<svg xmlns="http://www.w3.org/2000/svg" width="122.714" height="95.254" viewBox="0 0 122.714 95.254"><defs><style>.a{fill:#b0dfdb;}.b{fill:#ffcb29;}.c{fill:none;stroke:#ed1c24;stroke-linecap:round;stroke-width:5px;}</style></defs><g transform="translate(566.678 -563.991)"><g transform="translate(-635.388 257.822)"><g transform="translate(83.934 377.705)"><ellipse cx="10.182" cy="10.182" rx="10.182" ry="10.182"/></g></g><g transform="translate(-765.663 384.726)"><g transform="translate(260.197 218.229)"><path class="a" d="M290.434,225.369l-3.6-7.14H260.2v9.848h31.839A11.119,11.119,0,0,1,290.434,225.369Z" transform="translate(-260.197 -218.229)"/></g></g><g transform="translate(-565 513.63)"><g transform="translate(0 50.361)"><path class="b" d="M109.145,113.864h9.922V108.9a4.913,4.913,0,0,0-4.961-4.961H105.97a18.066,18.066,0,0,1-7.938-1.984H31.354a3.557,3.557,0,0,1-3.572-3.572V89.852a3.557,3.557,0,0,1,3.572-3.572H85.332l-.794-1.389A14.093,14.093,0,0,0,72.83,78.342H71.441V74.373h7.938a1.875,1.875,0,0,0,1.984-1.984V52.345a1.875,1.875,0,0,0-1.984-1.984H21.829a1.875,1.875,0,0,0-1.984,1.984V72.19a1.875,1.875,0,0,0,1.984,1.984h7.938v4.167a13.725,13.725,0,0,0-9.129,6.35l-9.922,16.074a6.66,6.66,0,0,1-5.755,3.175,5.706,5.706,0,0,0-3.572,1.389A6.182,6.182,0,0,0,0,108.9v2.977H9.922a1.984,1.984,0,0,1,0,3.969H0v10.915a7.031,7.031,0,0,0,6.946,6.946h3.175a13.827,13.827,0,0,0,27.386,0H81.561a13.827,13.827,0,0,0,27.386,0h1.984a7.961,7.961,0,0,0,7.938-7.938v-7.938h-9.922a1.875,1.875,0,0,1-1.984-1.984A2.039,2.039,0,0,1,109.145,113.864ZM63.5,60.283a1.984,1.984,0,0,1,3.969,0v3.969a1.984,1.984,0,0,1-3.969,0Zm-9.922,0a1.984,1.984,0,0,1,3.969,0v3.969a1.984,1.984,0,0,1-3.969,0Zm-9.922,0a1.984,1.984,0,0,1,3.969,0v3.969a1.984,1.984,0,0,1-3.969,0Zm-9.922,0a1.984,1.984,0,0,1,3.969,0v3.969a1.984,1.984,0,0,1-3.969,0Zm0,13.891H67.472v3.969H33.736Zm-9.922,67.472a9.922,9.922,0,1,1,9.922-9.922A9.826,9.826,0,0,1,23.813,141.646ZM71.44,113.864a1.984,1.984,0,0,1-3.969,0v-1.984H59.534a1.984,1.984,0,1,1,0-3.969h9.922a1.875,1.875,0,0,1,1.984,1.984Zm23.813,27.782a9.922,9.922,0,1,1,9.922-9.922A9.826,9.826,0,0,1,95.254,141.646Z" transform="translate(0 -50.361)"/></g></g><g transform="translate(-532.705 603.107)"><rect class="a" width="24.778" height="9.696"/></g><g transform="translate(-563.582 257.52)"><g transform="translate(83.934 377.705)"><ellipse cx="10.18" cy="10.18" rx="10.18" ry="10.18"/></g></g><path class="c" d="M318.938,460.994h9.714" transform="translate(-883.115 166.361)"/><path class="c" d="M318.938,460.994h9.714" transform="translate(-775.115 168.361)"/><path class="c" d="M318.938,460.994h9.714" transform="translate(-960.315 900.15) rotate(-90)"/><path class="c" d="M318.938,460.994h9.714" transform="translate(-970.315 901.15) rotate(-90)"/><path class="c" d="M318.938,460.994h9.714" transform="translate(-980.315 901.15) rotate(-90)"/><path class="c" d="M318.938,460.994h9.714" transform="translate(-990.315 901.15) rotate(-90)"/></g></svg>