<svg xmlns="http://www.w3.org/2000/svg" width="136.467" height="124.258" viewBox="0 0 136.467 124.258"><defs><style>.a{fill:#ffcb29;}.b{fill:#a2e159;}.c,.d{fill:none;stroke-linecap:round;stroke-width:10px;}.c{stroke:#2185d0;}.d{stroke:#95c7ec;}</style></defs><g transform="translate(-9818 1957)"><circle class="a" cx="15" cy="15" r="15" transform="translate(9818 -1957)"/><path class="b" d="M17.68,23.778l15.646,6.457C38.718,16.073,46.536,5.175,54.624.067,39.933-.783,25.7,6.486,16.543,19.484a2.945,2.945,0,0,0,1.137,4.293Zm20.264,8.365L74.486,47.223c5.479-21.081,2.865-40.235-6.532-44.112a9.18,9.18,0,0,0-3.538-.695c-8.89,0-19.655,12.014-26.472,29.726ZM79.906,10.508a43.8,43.8,0,0,1,2.023,9.585c.88,8.665-.218,18.8-2.9,29l15.724,6.489a2.489,2.489,0,0,0,3.305-2.461c.355-16.62-6.422-32.555-18.148-42.615Zm5.9,67.3H49.2l9.951-31L49.931,43,38.761,77.8H2.452A2.631,2.631,0,0,0,0,80.585v5.56a2.632,2.632,0,0,0,2.452,2.781H85.808a2.632,2.632,0,0,0,2.452-2.781v-5.56a2.63,2.63,0,0,0-2.452-2.779Z" transform="translate(9856.399 -1927)"/><path class="c" d="M9814-1834.742h102.968" transform="translate(19 -3)"/><path class="d" d="M9814-1834.742h102.968" transform="translate(19 -11)"/></g></svg>