<svg xmlns="http://www.w3.org/2000/svg" width="141.47" height="137.962" viewBox="0 0 141.47 137.962"><defs><style>.a{fill:#ed1c24;}.b{fill:#977348;}</style></defs><g transform="translate(-932.471 -452.046)"><path d="M206.526,705.867c7.051,0,10.4-8.843,10.4-16.761s-4.682-11.906-10.4-11.906c-8.67,0-13.467,3.988-13.467,11.906C193.06,700.435,200.747,705.867,206.526,705.867ZM229.3,735.055a38.286,38.286,0,0,1-11.27-2.2c.751.058,1.5.058,2.254.058a32.9,32.9,0,0,0,12.2-2.254,5.222,5.222,0,0,0-3.988-9.652,25.535,25.535,0,0,1-10,1.387c-6.647-.52-11.5-4.161-14.8-10.982-.116-.289-.231-.578-.4-.925l-.173-.347a4.788,4.788,0,0,0-1.445-1.907,10.647,10.647,0,0,0-4.682-2.948,10.446,10.446,0,0,0-12.947,7.051c-3.93,13.293-5.953,34.216-2.254,48.434a10.078,10.078,0,0,0,3.526,5.433c.289,15.547-3.352,23.755-14.1,34.5a6.936,6.936,0,0,0,4.913,11.848,7.059,7.059,0,0,0,4.913-2.023c6.762-6.762,11.213-13.062,13.987-19.535a82.8,82.8,0,0,1-3.988,14.912,6.959,6.959,0,0,0,4.219,8.843,6.5,6.5,0,0,0,2.312.4,6.948,6.948,0,0,0,6.531-4.624c6.415-18.206,8.265-33.349-2.138-49.995a10.122,10.122,0,0,0-.058-5.086c-1.387-5.26-1.618-13.293-.867-21.385a32.568,32.568,0,0,0,10.924,7.571,47.732,47.732,0,0,0,17.05,3.815h.058a5.2,5.2,0,0,0,5.2-5.144A4.964,4.964,0,0,0,229.3,735.055Z" transform="translate(763.296 -225.154)"/><path class="a" d="M259.4,813.6v54.707h75.2V813.6Zm52.937,32.449H302.093v10.244H291.849V846.049H281.6V835.8h10.244V825.561h10.244V835.8h10.244Z" transform="translate(739.296 -278.6)"/><path class="b" d="M270.259,717.444a10.214,10.214,0,0,0-1.6-3.048c1.444-4.171-1.39-7.433-2.674-7.273-.749.107-1.711,1.711-2.513,3.369-1.5-3.048-4.759-3.957-5.668-3.209-.8.642-.428,3.69,0,5.829-4.813,2.086-8.021,7.326-7.54,10,.642,3.583,6.9,4.706,15.241,2.567C269.617,724.664,271.97,722.2,270.259,717.444Zm46.952,25.508a1.6,1.6,0,0,0-2.246-.053,10.506,10.506,0,0,1-11.765,2.353c-.053,0-.107-.053-.16-.053l-28.235-21.6a2.6,2.6,0,0,0-2.834-.267,2.676,2.676,0,0,0-1.5,2.406v12.834a2.192,2.192,0,0,0,.053.588l1.711,7.647-1.444,12.139h-.535a2.674,2.674,0,1,0,0,5.348H273.2a2.708,2.708,0,0,0,2.674-2.353l1.658-13.957,6.524,4.759a1.976,1.976,0,0,0,.749.374l4.278,1.39.856,4.385H289.3a2.674,2.674,0,1,0,0,5.348h3.85a2.843,2.843,0,0,0,2.086-.963,2.738,2.738,0,0,0,.535-2.193l-.107-.428,1.872,2.567a2.612,2.612,0,0,0,2.139,1.123h3.476a2.567,2.567,0,0,0,1.979-.909,2.991,2.991,0,0,0,.7-2.086l-.535-5.134a1.481,1.481,0,0,0-.053-.481l-.7-6.631a14.584,14.584,0,0,0,2.834.267,13.757,13.757,0,0,0,9.786-4.118A1.665,1.665,0,0,0,317.211,742.953Z" transform="translate(756.296 -229.036)"/></g></svg>