<svg xmlns="http://www.w3.org/2000/svg" width="627.717" height="265.782" viewBox="0 0 627.717 265.782"><defs><style>.a{fill:#a5b4b7;}.b{fill:#281d1c;}.c{fill:#3f2e2d;}.d{fill:#827579;}.e{fill:#9b8f92;}.f{fill:#634c53;}.g{fill:#3a2c30;}.h{fill:#a0a0a0;}.i{fill:#c64f38;}.j{fill:#af3a2b;}.k{fill:#e25a47;}.l{fill:#e5a9a1;}.m{fill:#f2c2bd;}.n{fill:#634744;}.o{fill:#e0cdad;}.p{fill:#d8c09e;}.q{fill:#c19772;}.r{fill:#ccb087;}.s{fill:#a84545;}.t{fill:#bc6161;}.u{fill:#f2dec2;}.v{fill:#382b2a;}.w{fill:#635352;}.x{fill:#7f6161;}.y{fill:#997474;}.z{fill:#564342;}.aa{fill:#d33154;}.ab{fill:#ba244b;}.ac{fill:#564347;}.ad{fill:#9572ce;}.ae{fill:#ffac3e;}.af{fill:#ff8a33;}.ag{fill:#50a1d3;}.ah{fill:#3b79b2;}.ai{fill:#725760;}.aj{fill:#9b707d;}.ak{fill:#b78b97;}.al{fill:#d6aeba;}.am{fill:#b7acaf;}.an{fill:#998f92;}.ao{fill:#d1c1c5;}.ap{fill:#ddced3;}.aq{fill:#c47080;}.ar{fill:#b59ea5;}.as{fill:#d3bec4;}.at{fill:#ead3d8;}.au{fill:#665e60;}.av{fill:#95b3ba;}.aw{fill:#494344;}.ax{fill:#bcc6c9;}.ay{fill:#d32d78;}.az{fill:#ff669d;}.ba{fill:#ed3e86;}.bb{fill:#ced8db;}.bc{fill:#54403c;}.bd{fill:#3a2a27;}.be{fill:#ff9566;}.bf{fill:#d14b5f;}.bg{fill:#c63450;}.bh{fill:#9b4b51;}.bi{fill:#843640;}.bj{fill:#ffb133;}.bk{fill:#ff8c2e;}.bl{fill:#ff6d2c;}.bm{fill:#ffb882;}.bn{fill:#7a2c39;}.bo{fill:#893a44;}.bp{fill:#c16161;}.bq{fill:#af5661;}.br{fill:#eddfd6;}.bs{fill:#b58383;}.bt{fill:#5e1c21;}.bu{fill:#b55b1a;}.bv{fill:#942631;}.bw{fill:#b54818;}.bx{fill:#b55f43;}.by{fill:#ea7b59;}.bz{fill:#ea9292;}.ca{fill:#f4a4a4;}.cb{fill:#5b2929;}.cc{fill:#ad505c;}.cd{fill:#4f3131;}.ce{fill:#fff5e1;}</style></defs><g transform="translate(-262 -298.749)"><path class="a" d="M566.281,0V-112.512h-1.717V0h1.717" transform="translate(-10.037 564.531)"/><path class="b" d="M612.485-265.3H332.106v129.418H612.485V-265.3" transform="translate(-10.037 564.531)"/><path class="c" d="M605.331-245.937H339.26v110.481h266.07V-245.937" transform="translate(-10.037 564.531)"/><path class="b" d="M681.3-132.721H276V-3.3H681.3V-132.721" transform="translate(-10.037 564.531)"/><path class="c" d="M455.288-115.044H282.941V-3.333H455.288V-115.044" transform="translate(-10.037 564.531)"/><path class="c" d="M670.565-115.044H476.752V-3.333H670.565V-115.044" transform="translate(-10.037 564.531)"/><path class="d" d="M428.983-138.718c3.893-14.309-1.893-27.461,2.631-37.141s6.208-21.781,6.208-21.781,8.839,16.1,6.524,33.144a39.291,39.291,0,0,1-15.363,25.779" transform="translate(-10.037 564.531)"/><path class="e" d="M432.236-177.264c.373,12.679,3.451,23.091,7.536,26.272a37.54,37.54,0,0,0,4.573-13.505c2.315-17.045-6.524-33.144-6.524-33.144a91.414,91.414,0,0,1-5.585,20.377" transform="translate(-10.037 564.531)"/><path class="f" d="M405.222-35.75c2.244-4.427,5.5-12.425,5.2-14.481s-9.924,2.637-9.924,2.637l4.723,11.844" transform="translate(-10.037 564.531)"/><path class="g" d="M403.443-36.243c1.7-3.345,4.159-9.391,3.932-10.945s-7.5,1.995-7.5,1.995l3.569,8.951" transform="translate(-10.037 564.531)"/><path class="f" d="M370.65-40.135c-1-5.275-1.979-14.432-1.08-16.328.879-1.859,8.677,5.9,8.677,5.9l-7.6,10.429" transform="translate(-10.037 564.531)"/><path class="g" d="M371.706-42.252c-.657-3.474-1.3-9.5-.711-10.752.579-1.222,5.715,3.885,5.715,3.885l-5,6.867" transform="translate(-10.037 564.531)"/><path class="h" d="M683.35-133.18H274.166v5.415H683.35v-5.415" transform="translate(-10.037 564.531)"/><path class="i" d="M643.87-49.277s6.9,4.668,7.4,5.543-.991,6.456-3.337,5.914-6.089-12.134-4.064-11.456" transform="translate(-10.037 564.531)"/><path class="i" d="M627.046-50.584c-1.973-.718-23.685,8.433-35.528,11.127s-27.635-12.921-49.347-14.536-36.247,20.456-34.991,38.938c53.308,11.722,92.946,9.781,120.582,5.024,7-5.383,1.257-39.834-.717-40.553" transform="translate(-10.037 564.531)"/><path class="j" d="M627.046-50.584c-1.431-.52-19.3,6.412-30.2,10.045-12.192,22.58-21.425,22.665-23.5,14.825-.819-3.093,2.171-12.188,3.905-16.384-7.1-2.977-15.26-7.492-24.687-10.06,6.9,3.01,11.311,7.587,11.311,12.712,0,9.065-13.779,16.415-30.776,16.415-9.72,0-18.383-2.405-24.023-6.159a37.46,37.46,0,0,0-1.893,14.135c53.308,11.722,92.946,9.781,120.582,5.024,7-5.383,1.257-39.836-.717-40.553" transform="translate(-10.037 564.531)"/><path class="i" d="M585.231-35.024c-13.809,13.052-15.255,24.777-15.255,24.777l6.316-.779s18.923-13.291,21.529-24.48c3.151-13.516-12.591.481-12.591.481" transform="translate(-10.037 564.531)"/><path class="j" d="M610.8-36.867c1.445-10.1,7.587-20.755,9.657-21.795s13.267,2.473,17.957,4.608c4.669,2.127,11.053,10.265,11.223,14.308s-6.8,21.385-11.851,23.54c-6.851,2.921-28.772-8.183-26.987-20.661" transform="translate(-10.037 564.531)"/><path class="i" d="M614.951-36.345c1.884-9.568,9.523-19.1,11.423-20.092s10.079,1.725,14.116,3.732c4.02,2,9.2,9.68,9.112,13.505-.088,3.841-7.308,20.267-11.921,22.322-6.257,2.79-25.057-7.651-22.729-19.468" transform="translate(-10.037 564.531)"/><path class="k" d="M639.761-52.823c-3.852-1.915-11.665-4.5-13.469-3.563a12.13,12.13,0,0,0-2.637,2.623c3.368,8.485,16.189,14.708,21.057,12.539A8.426,8.426,0,0,0,647.46-43.7c-1.625-3.592-4.943-7.757-7.7-9.127" transform="translate(-10.037 564.531)"/><path class="l" d="M610.117-33.5c-4.175,3.12-2.188,15.695-.024,16.939,3.644,2.093,15.211-1.169,16.8-6.281.928-3-14.043-12.7-16.773-10.658" transform="translate(-10.037 564.531)"/><path class="m" d="M612.2-32.672c-3.145,2.352-.5,9.493,1.129,10.431,2.748,1.579,10.32,1.457,11.516-2.4.7-2.258-10.587-9.573-12.645-8.034" transform="translate(-10.037 564.531)"/><path class="n" d="M625.428-20.985c-1.507-.646-4.151-6.3-2.808-7.6s9.071,1.723,9.449,2.76-5.152,5.48-6.641,4.84" transform="translate(-10.037 564.531)"/><path class="n" d="M628.457-33.344c-3.917,1.215-8.507-2.07-8.425-3.26.041-.593,2.2,1.5,4.663,2.354s5.209.457,3.763.907" transform="translate(-10.037 564.531)"/><path class="n" d="M641.477-27.469c-3.851,1.227-8.395-2.028-8.321-3.215.037-.594,2.177,1.488,4.609,2.327s5.133.434,3.712.888" transform="translate(-10.037 564.531)"/><path class="i" d="M623.53-56.672C617.4-46.377,611.749-35.6,606.8-26.344c-1.217,2.277-7.675,2.73-8.629.946-2.581-4.831,7.2-26.531,10.517-30.227,3.287-3.667,5.433-1.959,9.049-3.162,3.595-1.2,8.063-1.7,5.789,2.115" transform="translate(-10.037 564.531)"/><path class="k" d="M617.531-58.261c-3.584,1.195-5.725-.467-8.961,3.073-1.552,3.385-2.408,6.3-1.879,7.879.644,1.919,7.087,2.544,8.665.5,2.7-3.5,5.58-7.251,8.576-11.095-.049-1.829-3.505-1.321-6.4-.357" transform="translate(-10.037 564.531)"/><path class="j" d="M651.136-43.873c-1.179,2.148-3.177,9.4-6.029,14.054-5.3,8.648-6.1,16.476-2.716,19.82,4.739,4.685,1.693-.4,5.553-7.717,3.816-7.239,5.5-8.473,5.531-14.4.031-5.9-1.179-13.871-2.339-11.756" transform="translate(-10.037 564.531)"/><path class="i" d="M651.348-41.3c-1.029,1.873-2.771,8.2-5.257,12.252-4.623,7.543-5.317,14.366-2.368,17.281,4.132,4.085,1.477-.348,4.841-6.729,3.329-6.312,4.8-7.388,4.824-12.555.027-5.143-1.029-12.093-2.04-10.249" transform="translate(-10.037 564.531)"/><path class="e" d="M367.523-137.525c.625-21.091,8.592-52.647,10.155-62.645.836-5.351,33.9,2.657,33.9,2.657s2.031,23.119,3.592,25.307,14.685,18.9,17.809,32.963c-33.588,9.269-65.456,1.719-65.456,1.719" transform="translate(-10.037 564.531)"/><path class="d" d="M379.951-172.177,382.11-154.4l.135,16.309,17.535.525.269-30.092-20.1-4.524" transform="translate(-10.037 564.531)"/><path class="d" d="M393-167.864c6,2.209,15.677,8,17.676,32.024,5.519-.724,16.532-1.811,22.3-3.4-3.124-14.06-16.247-30.775-17.809-32.963s-3.592-25.307-3.592-25.307-33.064-8.008-33.9-2.657c-1.563,10-9.529,41.555-10.155,62.645,0,0,.248.057.691.152.737-24.255,12.843-34.891,24.785-30.491" transform="translate(-10.037 564.531)"/><path class="o" d="M509.987-207.675c-5.832,4.165-6.665,16.975-1.875,23.64l7.289-2.915c-9.06-6.457-5.415-20.725-5.415-20.725" transform="translate(-10.037 564.531)"/><path class="p" d="M509.755-207.433c-3.2,5.477-2.831,14.987,1.26,20.4l3.208-1.277c-7.011-6.456-4.695-18.069-4.468-19.12" transform="translate(-10.037 564.531)"/><path class="q" d="M564.629-156.725c.313.213,7.633,18.169,7.633,18.169h1.364s9.776-22.792,8.492-35.125-1.475-14.24-3.364-14.24-14.125,31.2-14.125,31.2" transform="translate(-10.037 564.531)"/><path class="q" d="M538.033-156.7c-.3.212-6.352,18.143-6.352,18.143h-1.355s-10.8-17.941-10.361-30.256,5.675-19,7.549-19S538.033-156.7,538.033-156.7" transform="translate(-10.037 564.531)"/><path class="p" d="M514.913-155.01s47.953,5.924,55.615,1.875,11.248-9.373,11.872-18.747-3.54-21.455-3.54-21.455-64.78-2.708-70.82,6.875,6.873,31.452,6.873,31.452" transform="translate(-10.037 564.531)"/><path class="o" d="M508.04-186.462c-2.244,3.559-.58,9.016,3.987,11.287,6.951,3.452,12.777,7.7,23.788,4.613,14.6-4.095,24.931-13.943,25.025-23.125-19.647-.056-48.841.945-52.8,7.225" transform="translate(-10.037 564.531)"/><path class="r" d="M579.759-190.413c.208,3.225-10.484,7.451-9.361,10.66,4.419,12.627-16.729,18.833-21.36,20.2-12.709,3.756-28.115-.855-39.137-5.817,2.344,5.832,4.627,11.079,4.627,11.079s48.631,5.839,56.292,1.788,10.957-10.007,11.581-19.38c.436-6.535-1.455-14.375-2.641-18.531" transform="translate(-10.037 564.531)"/><path class="r" d="M522.067-161.784c-.353-4.372-2.777-9.936-4.548-9.893s-2.921,3.619-2.569,7.992,2.077,7.884,3.848,7.843,3.623-1.568,3.269-5.941" transform="translate(-10.037 564.531)"/><path class="r" d="M557.176-160.737c-.152-6.537-3.62-14.844-6.561-14.775s-5.2,5.421-5.048,11.957,2.659,11.777,5.6,11.711,6.161-2.359,6.009-8.893" transform="translate(-10.037 564.531)"/><path class="p" d="M554.72-159.13c-.361,5.887-4.5,20.575-4.5,20.575h-1.355s-11.033-17.48-10.747-29.479,5.739-17.492,7.309-18.516c4.347-2.831,10.015,15.641,9.292,27.42" transform="translate(-10.037 564.531)"/><path class="o" d="M549.761-171.7c-.4-6.487-1.961-12.249-4.112-16.1a.709.709,0,0,0-.524-.016c-2.064.88-7.66,8.161-7.623,20.305.019,5.437,2.583,11.761,5.272,16.921,4.492-.456,7.7-9.559,6.987-21.107" transform="translate(-10.037 564.531)"/><path class="p" d="M520.1-157.132c-.053.357-5.383,18.576-5.383,18.576h-1.355s-11.037-17.827-10.756-30.061,5.715-17.889,7.305-18.883c2.009-1.255,12.713,13.428,10.188,30.368" transform="translate(-10.037 564.531)"/><path class="o" d="M509.915-187.5c-1.591.993-7.416,6.137-7.7,18.373-.113,4.863,1.959,11.116,4.02,16.276a4.551,4.551,0,0,0,3.088,1.4c4.623,0,8.371-8.82,8.371-19.7a43.872,43.872,0,0,0-.559-7.031c-2.681-6.2-6.161-9.98-7.221-9.319" transform="translate(-10.037 564.531)"/><path class="o" d="M582.733-195.769c1.732-3.989,3.767-15.7,1.5-17.476s-12.94,8.293-12.94,8.293l11.436,9.183" transform="translate(-10.037 564.531)"/><path class="s" d="M581.6-197.1c1.332-3.071,2.9-12.083,1.157-13.451s-9.959,6.383-9.959,6.383l8.8,7.068" transform="translate(-10.037 564.531)"/><path class="t" d="M581.228-196.894c1.167-2.689,2.539-10.58,1.013-11.779s-8.72,5.589-8.72,5.589l7.707,6.189" transform="translate(-10.037 564.531)"/><path class="o" d="M547.043-195.264c-2.421-3.671-6.405-14.919-4.375-17.027s14.608,6.171,14.608,6.171l-10.233,10.856" transform="translate(-10.037 564.531)"/><path class="s" d="M548.789-195.452c-1.907-2.891-5.044-11.749-3.444-13.409s11.5,4.859,11.5,4.859l-8.059,8.551" transform="translate(-10.037 564.531)"/><path class="t" d="M549.064-195.424c-1.728-2.62-4.569-10.644-3.121-12.149s10.423,4.4,10.423,4.4l-7.3,7.748" transform="translate(-10.037 564.531)"/><path class="p" d="M551.6-178.136c-7.343-11.248-5.86-22.441-.549-26.66s25.62-4.375,29.525,1.719c4.815,7.511.813,24.9-2.027,26.56-2.321,1.353-23.411,3.8-26.949-1.619" transform="translate(-10.037 564.531)"/><path class="o" d="M582.863-196.873a20.375,20.375,0,0,0-2.357-5.889c-3.853-6.092-23.892-5.936-29.132-1.717-3.836,3.085-6.549,10.044-4.177,17.781,1.08,3.523,10.836,3.207,18,1.583,8.576-1.943,15.276-6.644,17.664-11.757" transform="translate(-10.037 564.531)"/><path class="u" d="M570.755-189.653l-.063-2.045s-5.076-10.745.757-10.037,6.275,11.881,6.275,11.881l-6.969.2" transform="translate(-10.037 564.531)"/><path class="u" d="M554.2-189.185c-1.173-3.081.355-11.011,6.592-12.272s2.727,9.784,2.727,9.784l7.172-.025.063,2.045-16.553.468" transform="translate(-10.037 564.531)"/><path class="v" d="M558.311-194.068c0-.689-.412-1.248-.921-1.248s-.921.559-.921,1.248.412,1.248.921,1.248.921-.559.921-1.248" transform="translate(-10.037 564.531)"/><path class="v" d="M575.727-194.068c0-.689-.412-1.248-.921-1.248s-.921.559-.921,1.248.412,1.248.921,1.248.921-.559.921-1.248" transform="translate(-10.037 564.531)"/><path class="w" d="M570.941-185.49c0-1.775-1.975-3.212-4.412-3.212s-4.409,1.437-4.409,3.212.195,5.38,4.652,5.38,4.169-3.607,4.169-5.38" transform="translate(-10.037 564.531)"/><path class="x" d="M565.164-186.984c-2.656,3.2-5.859,14.06-8.748,12.888s-5.431-11.141-4.807-14.657,13.972-3.177,13.972-3.177l-.417,4.947" transform="translate(-10.037 564.531)"/><path class="y" d="M563.764-188.71c-2.136,2-5.247,4.705-7.571,4.116s-3.833-2.547-3.331-4.661,11.236-2.413,11.236-2.413l-.335,2.959" transform="translate(-10.037 564.531)"/><path class="x" d="M567.6-186.984c2.629,3.2,6.8,14.124,9.661,12.952s3.207-11.365,2.588-14.881-12.551-2.861-12.551-2.861l.3,4.791" transform="translate(-10.037 564.531)"/><path class="y" d="M568.765-187.448c2.219,2.7,6.855,3.493,8.051,3.381,1.683-.16,2.807-2.044,2.284-5.008s-10.589-2.416-10.589-2.416l.255,4.043" transform="translate(-10.037 564.531)"/><path class="v" d="M567.352-186.2c-3.319-.332-4.427-4.895-4.011-5.624s7.081-.624,7.707.417-2.656,5.311-3.7,5.207" transform="translate(-10.037 564.531)"/><path class="z" d="M567.685-189.97c-2.659-.184-3.936-1.079-3.6-1.677s5.673-.685,6.173.14-1.736,1.595-2.571,1.537" transform="translate(-10.037 564.531)"/><path class="aa" d="M468.534-149.153c-5.077-1.187-6.652,2.592-7.143,4.865-.212-.931-1.028-2.2-3.415-3.615-4.911-2.917-5.137,1.761-29.691,6.343s-39.057-1.344-39.057-1.344a3.271,3.271,0,0,0,0-3.541c-1.228-1.667-4.665.209-4.665.209s2.456-1.876.247-6.249a7.017,7.017,0,0,0-6.629-3.959c-1.964-16.663-45.209-24.381-45.209-7.841,0,7.5,0,25.724.559,28.249l138.933.631s3.191-12.081-3.929-13.748" transform="translate(-10.037 564.531)"/><path class="ab" d="M468.534-149.153c-5.077-1.187-6.652,2.592-7.143,4.867-.212-.932-1.028-2.2-3.415-3.616a5.264,5.264,0,0,0-2.873-.9c-3.515,4.237-10.44,8.369-21.595,10.4-15.1,2.752-33.213.8-39.863-3.2a33.444,33.444,0,0,1-4.417-1.305,3.271,3.271,0,0,0,0-3.541c-1.228-1.667-4.665.209-4.665.209a3.355,3.355,0,0,0,1-1.671c-3.345,3.46-7.324,4.943-9.355,3.3-2.271-1.835-1.247-6.868,2.287-11.241.161-.2.329-.392.5-.584a5.563,5.563,0,0,0-.813-.012,10.579,10.579,0,0,0-.765-2.832,13.841,13.841,0,0,1-4.057,6.857c-7.98,7.2-23.415,3.115-34.473-9.135a44.781,44.781,0,0,1-4.925-6.585,7.617,7.617,0,0,0-.988,3.853c0,7.5,0,25.724.559,28.249l138.932.631s3.192-12.081-3.928-13.748" transform="translate(-10.037 564.531)"/><path class="ac" d="M376.427-72.486c.313-9.164-12.393-6.77-12.08,0,.192,4.167-7.083,10.728-20.1,6.98S310.711-63.841,304.67-50.2s2.084,32.6,20.1,38.848l-.312-3.437c-14.685-5.312-18.643-17.184-17.5-27.808s19.5-20.364,37.18-13.747c18.643,6.978,31.9-4.867,32.285-16.144" transform="translate(-10.037 564.531)"/><path class="f" d="M364.347-72.486c.192,4.167-7.083,10.728-20.1,6.98a34.159,34.159,0,0,0-11.961-1.032c4.269,6.472,12.317,9.47,21.467,9.47,9.116,0,16.979-2.968,21.259-9.4a16.379,16.379,0,0,0,1.416-6.018c.313-9.164-12.393-6.77-12.08,0" transform="translate(-10.037 564.531)"/><path class="ac" d="M322.689-9.425c-9.232-11.392-4.633-27.7,8.073-33.649,17.341-8.123,27.62,14.2,70.633,6.856,6.873,10.467-1.847,27.575-1.847,27.575s-69.518,8.28-76.86-.782" transform="translate(-10.037 564.531)"/><path class="f" d="M361.223-19.091c0-7.712,1.841-14.672,4.887-17.86-15.932-3.968-24.183-11.355-35.348-6.124a22.433,22.433,0,0,0-12.213,14.609,21.923,21.923,0,0,1,15.133-5.93c11.724,0,15.309,15.419,15.309,26.357,1.847-.072,13.876,2.455,15.716,2.356a25.657,25.657,0,0,1-3.484-13.409" transform="translate(-10.037 564.531)"/><path class="ad" d="M409.759-15.444c-2.807-6.433-41.911,7.4-61.163,4.5s-50.935-17.692-56.952-16.728-7.284,15.685.8,22.519l151,1.608s7.42-10.937,7.42-18.978-38.3,13.51-41.111,7.075" transform="translate(-10.037 564.531)"/><path class="ae" d="M662.341-22.605C645.336-4.712,565.1-10.295,548.6-17.332c-10.9-4.648-35.525-19.411-41.619-19s2.233,10.973,2.233,10.973S480.58-54.3,476.3-51.513s-8.183,25.78,1.849,49.743L674.677-4.295s4.38-35.9-12.336-18.31" transform="translate(-10.037 564.531)"/><path class="af" d="M671.4-27.121c1.06,5.51-5.376,11.874-14.723,15.613-15.9,6.358-42.048,7.037-47.98,5.365-2.9-.816-1.169-2.544,1.089-4.51-.391.005-.781.013-1.172.017C559.157,9.45,506.109-32.105,505.477-35.262c-1.285-.3-1.367,3.429,3.737,9.9,0,0-3.04-3.072-7.279-7.109,2.087,5.156,5.9,11.283,12.853,17.487,17.677,15.783-3.841,8.705-23.2-4.1-13.06-8.643-17.992-14.6-18.868-24.021-1.771,9.368-1.359,25.124,5.428,41.334L674.677-4.295s2.439-20-3.277-22.826" transform="translate(-10.037 564.531)"/><path class="ag" d="M601.646-150.81c-4.368-1.753-7.888,3.207-9.169,5.357.823-1.737,1.847-5.4-3.037-7.061-6.521-2.215-25.7,10.419-36.236,11.271s-64.088-12.635-67.6-10.591-3.177,13.633,6.019,19.256l113.032-1.535s2.508-14.483-3.009-16.7" transform="translate(-10.037 564.531)"/><path class="ah" d="M600.727-139.506c-3.007,0-5.565-3.468-6.567-8.333a19.05,19.05,0,0,0-1.683,2.387c.823-1.737,1.847-5.4-3.037-7.061l-.337-.087c-6.321,8.748-26.451,15.147-50.324,15.147-23.268,0-42.983-6.079-49.82-14.487a7.76,7.76,0,0,0-3.355.107c-3.511,2.047-3.176,13.633,6.02,19.256l113.032-1.535a44.846,44.846,0,0,0,.54-8.335c-1.215,1.836-2.772,2.941-4.469,2.941" transform="translate(-10.037 564.531)"/><path class="ag" d="M515.365-144.558l-8.625,2.525c27.869,8.524,62.54,5.367,77.966,2.209,0,0-45.619,3-69.341-4.735" transform="translate(-10.037 564.531)"/><path class="f" d="M365.828-35.035s9.588-15.99,12.832-16.006,21.443.989,23.467,4.132,6.012,17.99,6.012,17.99c-11.329,22.732-42.248,12.127-42.311-6.115" transform="translate(-10.037 564.531)"/><path class="ac" d="M386.264-32.4c-6.7-1.257-14.016-3.716-19.632-3.949-.5.81-.8,1.31-.8,1.31.032,9.264,7.836,17.472,17.175,19.421,8.768,1.832,18.912-1.957,24.593-12.318-1.5-5.516-12.852-2.871-21.332-4.464" transform="translate(-10.037 564.531)"/><path class="ai" d="M370.639-34.288c2.105-4.945,5.945-10.575,11.732-10.471s1.737,11.154,1.737,11.154l6.891.737s-1.525-12.1,3.788-11.153S403-30.449,403-30.449l-13.048,1.842L386.9-30.555l-4.788,1.684-11.469-5.417" transform="translate(-10.037 564.531)"/><path class="aj" d="M391.684-27.923c0-1.192-2.239-2.393-5-2.684s-5,.44-5,1.632,2.237,2.392,5,2.682,5-.439,5-1.631" transform="translate(-10.037 564.531)"/><path class="g" d="M382.63-36.317c-3.311.421-6.368-.219-6.081-.6s6.081.6,6.081.6" transform="translate(-10.037 564.531)"/><path class="g" d="M392.67-35.126c3.144,1.239,6.3,1.388,6.121.944s-6.121-.944-6.121-.944" transform="translate(-10.037 564.531)"/><path class="ak" d="M370.126-34.285c-2.005,5.983,5.748,9.729,7.4,9.94,1.424.18,10.837-5.86,10.837-5.86l-1.227-2.932s-16.2-3.569-17.015-1.148" transform="translate(-10.037 564.531)"/><path class="al" d="M371.111-34.2c-1.443,3.795,4.2,4.907,5.473,5.068,1.1.139,8.624-2.153,8.624-2.153l-.992-1.9S371.7-35.736,371.111-34.2" transform="translate(-10.037 564.531)"/><path class="ak" d="M404.524-29.923c.439,6.294-7.933,7.995-9.575,7.787-1.412-.18-8.944-8.369-8.944-8.369l1.907-2.535s16.435.571,16.612,3.117" transform="translate(-10.037 564.531)"/><path class="al" d="M402.938-30.143c.375,4.625-6.3,3.7-7.572,3.535-1.1-.139-6.816-4.061-6.816-4.061l1.467-1.85s12.769.506,12.921,2.377" transform="translate(-10.037 564.531)"/><path class="g" d="M387.39-29.56c-2.428.091-4.648-3.6-3.617-4.478s6.465-.265,7.476.625-2.729,3.81-3.859,3.852" transform="translate(-10.037 564.531)"/><path class="am" d="M397.36-170.332c-11.559-7.029-25.307-20.308-26.713-35.149,0,0,3.748-14.421,12.04-20.569,2.764-2.048,16.393-1.532,19.781-1.157,7.059.781,11.608,10.323,14.687,25.108-1.563,10.467-19.795,31.768-19.795,31.768" transform="translate(-10.037 564.531)"/><path class="an" d="M382.556-210.079c-.315,4.656,4.156,22.908,13.861,34.824,0,0,15.277-16.905,15.216-34.731l-29.077-.093" transform="translate(-10.037 564.531)"/><path class="ao" d="M395.314-207.374c7.6,0,14.205-3.711,17.605-9.18-2.691-6.339-6.091-10.171-10.451-10.653-3.388-.375-17.017-.891-19.781,1.157a25.666,25.666,0,0,0-6.2,7.069c2.793,6.765,10.156,11.607,18.827,11.607" transform="translate(-10.037 564.531)"/><path class="ap" d="M383.108-209.9c.052-6,3.683-12.784,7.944-12.259s7.9,11.268,7.9,11.268l4.359-.22s-4.945-10.311-.315-11.153,8.259,11.995,8.259,11.995l-10.521,3.209-17.624-2.84" transform="translate(-10.037 564.531)"/><path class="ao" d="M376.948-218.186c-1.355-5.624-3.333-14.477-2.6-15.1s9.165,6.665,9.165,6.665l-6.561,8.436" transform="translate(-10.037 564.531)"/><path class="aq" d="M378.1-220.961c-.759-3.153-1.868-8.113-1.46-8.465s5.137,3.737,5.137,3.737l-3.677,4.728" transform="translate(-10.037 564.531)"/><path class="ao" d="M411.662-218.186c1.065-5.469,2.585-14.079,1.785-14.687s-9.163,6.481-9.163,6.481l7.377,8.205" transform="translate(-10.037 564.531)"/><path class="aq" d="M410.747-220.833c.672-3.445,1.628-8.867,1.124-9.249S406.1-226,406.1-226l4.645,5.167" transform="translate(-10.037 564.531)"/><path class="ar" d="M404.692-206.4c0-1.771-2.163-3.2-4.828-3.2s-4.828,1.433-4.828,3.2,2.161,3.2,4.828,3.2,4.828-1.433,4.828-3.2" transform="translate(-10.037 564.531)"/><path class="as" d="M382.556-210.079c.191,2.923,6.407,9.677,7.74,9.235s9.713-5.091,10.475-5.541.952-4.059.095-4.532-18.5-2.032-18.309.839" transform="translate(-10.037 564.531)"/><path class="at" d="M384.187-210.329c.153,1.955,5.165,6.473,6.24,6.177s7.832-3.405,8.447-3.705.768-2.716.077-3.032-14.916-1.359-14.764.56" transform="translate(-10.037 564.531)"/><path class="as" d="M411.648-209.769c-.109,2.923-4.184,9.367-4.951,8.924s-5.587-5.091-6.024-5.541-.548-4.059-.056-4.532,11.137-1.72,11.031,1.149" transform="translate(-10.037 564.531)"/><path class="at" d="M410.938-210.055c-.083,1.771-3.2,5.672-3.791,5.4s-4.277-3.081-4.613-3.355a3.656,3.656,0,0,1-.041-2.745c.377-.285,8.528-1.041,8.445.7" transform="translate(-10.037 564.531)"/><path class="au" d="M398.6-210.986c.172-.847,4.825-.921,4.86-.159s-1.669,1.939-2.333,1.976-2.667-1.124-2.527-1.817" transform="translate(-10.037 564.531)"/><path class="au" d="M393.664-213.781c0-.257-.805-.467-1.8-.467s-1.8.209-1.8.467.752-.089,1.744-.089,1.849.349,1.849.089" transform="translate(-10.037 564.531)"/><path class="au" d="M408.192-213.781c0-.257-.8-.467-1.8-.467s-1.8.209-1.8.467.823-.089,1.816-.089,1.777.349,1.777.089" transform="translate(-10.037 564.531)"/><path class="av" d="M334.1-133.308v-130.7h-2v130.7H334.1" transform="translate(-10.037 564.531)"/><path class="av" d="M365.032-133.308v-130.7h-2v130.7h2" transform="translate(-10.037 564.531)"/><path class="av" d="M395.964-133.308v-130.7h-2v130.7h2" transform="translate(-10.037 564.531)"/><path class="av" d="M426.895-133.308v-130.7H424.9v130.7h1.995" transform="translate(-10.037 564.531)"/><path class="av" d="M457.827-133.308v-130.7h-1.995v130.7h1.995" transform="translate(-10.037 564.531)"/><path class="av" d="M488.759-133.308v-130.7h-2v130.7h2" transform="translate(-10.037 564.531)"/><path class="av" d="M519.691-133.308v-130.7h-2v130.7h2" transform="translate(-10.037 564.531)"/><path class="av" d="M550.621-133.308v-130.7h-1.995v130.7h2" transform="translate(-10.037 564.531)"/><path class="av" d="M581.553-133.308v-130.7h-2v130.7h2" transform="translate(-10.037 564.531)"/><path class="av" d="M612.484-133.308v-130.7h-2v130.7h1.995" transform="translate(-10.037 564.531)"/><path class="a" d="M338.622-3.333v-130.7h-2v130.7h1.995" transform="translate(-10.037 564.531)"/><path class="a" d="M369.554-3.333v-130.7h-2v130.7h2" transform="translate(-10.037 564.531)"/><path class="a" d="M400.486-3.333v-130.7h-2v130.7h2" transform="translate(-10.037 564.531)"/><path class="a" d="M431.416-3.333v-130.7h-1.995v130.7h1.995" transform="translate(-10.037 564.531)"/><path class="a" d="M592.476-3.332v-130.7h-2.095v130.7h2.093" transform="translate(-10.037 564.531)"/><path class="a" d="M625.405-3.332v-130.7h-2.1v130.7h2.095" transform="translate(-10.037 564.531)"/><path class="a" d="M652.4-3.332v-130.7h-2.095v130.7H652.4" transform="translate(-10.037 564.531)"/><path class="a" d="M493.691-3.332v-130.7H491.6v130.7h2.093" transform="translate(-10.037 564.531)"/><path class="a" d="M526.619-3.332v-130.7h-2.095v130.7h2.093" transform="translate(-10.037 564.531)"/><path class="a" d="M559.548-3.332v-130.7h-2.093v130.7h2.095" transform="translate(-10.037 564.531)"/><path class="av" d="M613.748-262.981H331.026v5.416H613.748v-5.416" transform="translate(-10.037 564.531)"/><path class="av" d="M615.746-265.782H328.5v5.416H615.747v-5.416" transform="translate(-10.037 564.531)"/><path class="c" d="M590.614-115.044H476.752v79.331H590.614v-79.331" transform="translate(195.963 595.91)"/><path class="av" d="M621.744-137.81H322.3v5.415H621.744v-5.415" transform="translate(-10.037 564.531)"/><path class="a" d="M685.478-135.39H272.037v5.416H685.478v-5.416" transform="translate(-10.037 564.531)"/><path class="a" d="M467.66-134.244h-5.312v130.6h5.312v-130.6" transform="translate(-10.037 564.531)"/><path class="av" d="M476.5-262.4h-5.312v129.68H476.5V-262.4" transform="translate(-10.037 564.531)"/><path class="aw" d="M400.838-210.135a6,6,0,0,1-2.032-.327,4.093,4.093,0,0,0,2.323,1.293,3.892,3.892,0,0,0,2.152-1.476,5.363,5.363,0,0,1-2.443.509" transform="translate(-10.037 564.531)"/><path class="ax" d="M508.647-839.8l-121.024,2.141v-5.187H508.647v3.045" transform="translate(282.963 1318.531)"/><path class="ay" d="M461.4-768.21c-15.968,1.581-26.033-6.488-30.025-6.4s-2.911,2.828-2.911,2.828-3.161-6.737-9.732-2,4.907,9.648,4.907,9.648,22.209,1.164,29.363.665,8.4-4.741,8.4-4.741" transform="translate(282.963 1318.531)"/><path class="az" d="M399.255-769.321s-1.747-3.351,5.24-5.584,15.472,7.072,36.432,7.817,13.808-4.653,35.433-9.307,27.2,4.877,26.2,14.7l-109.794-1.488c-2.744-6.7,6.488-6.143,6.488-6.143" transform="translate(282.963 1318.531)"/><path class="ba" d="M399.255-769.321s-.833-1.607.973-3.337c2.96,5.225,23.584,6.611,48.656,6.611,27.1,0,49.116-2.068,49.116-7.9a2.359,2.359,0,0,0-.061-.528c3.977,3.029,5.123,7.871,4.623,12.787l-110.57.883c-3.452-9.9,7.264-8.513,7.264-8.513" transform="translate(282.963 1318.531)"/><path class="ba" d="M486.107-773.034a64.975,64.975,0,0,1-27.759,3.341,59.366,59.366,0,0,1,8.533-4.059c4.949,2.059,10.864,2.265,19.225.717" transform="translate(282.963 1318.531)"/><path class="bb" d="M453.308-842.411h2.176v80.854h-2.176v-80.854" transform="translate(282.963 1318.531)"/><path class="ax" d="M452.06-842.411h2.176v80.854H452.06v-80.854" transform="translate(282.963 1318.531)"/><path class="ax" d="M503.613-842.411h2.176v80.854h-2.176v-80.854" transform="translate(282.963 1318.531)"/><path class="bb" d="M504.695-842.411h2.176v80.854h-2.176v-80.854" transform="translate(282.963 1318.531)"/><path class="ax" d="M492.749-842.411h1.476v80.854h-1.476v-80.854" transform="translate(282.963 1318.531)"/><path class="ax" d="M478.675-842.4h1.477v34.436h-1.477V-842.4" transform="translate(282.963 1318.531)"/><path class="ax" d="M464.883-807.733v-1.476h29.063v1.476H464.883" transform="translate(282.963 1318.531)"/><path class="ax" d="M464.6-842.411h1.476v80.854H464.6v-80.854" transform="translate(282.963 1318.531)"/><path class="bb" d="M493.748-842.411h1.476v80.854h-1.476v-80.854" transform="translate(282.963 1318.531)"/><path class="bb" d="M479.673-842.4h1.476v34.436h-1.476V-842.4" transform="translate(282.963 1318.531)"/><path class="bb" d="M465.88-807.733v-1.476h29.063v1.476H465.88" transform="translate(282.963 1318.531)"/><path class="bb" d="M465.6-842.411h1.477v80.854H465.6v-80.854" transform="translate(282.963 1318.531)"/><path class="ax" d="M444.831-842.411h1.476v80.854h-1.476v-80.854" transform="translate(282.963 1318.531)"/><path class="ax" d="M430.756-842.411h1.476v80.854h-1.476v-80.854" transform="translate(282.963 1318.531)"/><path class="ax" d="M416.683-842.411h1.476v80.854h-1.476v-80.854" transform="translate(282.963 1318.531)"/><path class="ax" d="M402.608-842.411h1.476v80.854h-1.476v-80.854" transform="translate(282.963 1318.531)"/><path class="bb" d="M454.25-838.329l54.4.665v-5.187h-54.4v4.521" transform="translate(282.963 1318.531)"/><path class="a" d="M386.03-843.953l124.864-3.567v6.612H386.03v-3.045" transform="translate(282.963 1318.531)"/><path class="ax" d="M508.647-761.45l-121.024,2.14V-764.5H508.647v3.047" transform="translate(282.963 1318.531)"/><path class="bb" d="M454.25-759.976l54.4.665V-764.5h-54.4v4.521" transform="translate(282.963 1318.531)"/><path class="bc" d="M385.134-762.169h124.59l2.916,5.053H382.218l2.916-5.053" transform="translate(282.963 1318.531)"/><path class="a" d="M386.03-846.563l66.762.7.791,4.953H386.03v-5.656" transform="translate(282.963 1318.531)"/><path class="bd" d="M383.808-762.169h68.017l1.591,5.053h-71.2l1.591-5.053" transform="translate(282.963 1318.531)"/><path class="be" d="M507.555-880.779c-1.6-2.953-1.765-3.564-3.419-5.3-.716-.753-2.047-5.015-2.06-5.752a4.831,4.831,0,0,1,3.048-5.075c2.825-1.085,4.757.073,5.521,1.839s5.336,2.961,5.835,3.528c1.748,1.989-3.184,4.917.592,13.067l-9.517-2.3" transform="translate(282.963 1318.531)"/><path class="be" d="M514.971-884.911c.8-.728,2.58-7.263,2.316-8.736s.287-4.953.325-5.8-1.879-1.472-2.105-.755-.92,5.072-1.377,5.891c-.912,1.628-2.6.135-3.229-.149-.468,1.317,1.831,11.591,4.071,9.551" transform="translate(282.963 1318.531)"/><path class="be" d="M511.461-893.894c-1.012-1.984-2.723-4.293-2.6-4.952s1.744-4.875,1.448-5.324-1.7-1.74-2.151-1.011-1.848,5.205-1.745,6.277a17.858,17.858,0,0,0,1.169,4.068c.231.319,4.229,1.637,3.876.941" transform="translate(282.963 1318.531)"/><path class="be" d="M508.937-893.834c-1.4-1.848-3.82-4.369-3.835-5.119s.687-5.383.6-5.873c-.108-.613-2.044-1.153-2.325-.235s-1.012,5.8-.687,6.932a22.447,22.447,0,0,0,2.283,4.412c.292.276,4.455.531,3.965-.117" transform="translate(282.963 1318.531)"/><path class="be" d="M507.039-891.135c-1.8-1.513-4.883-4.237-5.076-4.956s-.495-4.553-.7-5.009c-.252-.571-2.259-.721-2.312.216s.412,5.78,1,6.805,2.287,3.032,3.051,4.592c.193.393,4.668-1.119,4.039-1.648" transform="translate(282.963 1318.531)"/><path class="bf" d="M565.125-838.449c-12.271-3.761-55.877,17.041-61.841,20.292l-3.417,58.7,1.521.836s12.379-45.677,13.1-47.4c0,0,42.691-.791,58.717-5.608s6.124-22.471-8.076-26.821" transform="translate(282.963 1318.531)"/><path class="bg" d="M512.505-811.185s40.7-.813,56.728-5.631c4.972-1.495,9.109-8.124,9.736-11.309,4.108,6.395,3.655,13.664-5.768,16.5-16.027,4.817-57.2,6.072-57.2,6.072-.717,1.72-14.615,46.933-14.615,46.933l-1.06-.581c2.515-12.205,11.564-50.511,12.177-51.981" transform="translate(282.963 1318.531)"/><path class="bh" d="M569.865-918.214a42.038,42.038,0,0,0,5.9-33.491s2.5-3.755,1.876-5.485-2.735-.847-2.735-.847,3.437-2.075,2.831-3.971-4.009-.884-4.009-.884,6.047-5.357,3.828-7.757c-2.239-2.42-9.127-.315-9.127-.315s5.813-6.372-1.236-10.389c-7.155-4.077-16.884,11.431-16.884,11.431s1.881-8.28-1.305-8.057-7.645,4.951-7.169,13.54c0,0-7.08-2.129-7.583,4.467-.716,9.357,10.113,31.424,10.113,31.424l25.5,10.335" transform="translate(282.963 1318.531)"/><path class="bi" d="M569.865-918.214l-18.589-7.533c-.011-5.505-3.313-16.673-1.961-22.948,3.367-15.631,17.529-20.345,21.323-28.205.385,3.088-2.209,5.937-2.209,5.937s6.888-2.105,9.127.315c2.219,2.4-3.828,7.757-3.828,7.757s3.4-1.023,4.009.884-2.831,3.971-2.831,3.971,2.1-.895,2.735.847-1.876,5.485-1.876,5.485a42.038,42.038,0,0,1-5.9,33.491" transform="translate(282.963 1318.531)"/><path class="bj" d="M545.711-905.711c-7.435,7.327-20.539,29.444-24.007,31.433-1.707.98-8.188,4.009-4.095,12.369,2.067,4.219,11.04,4.211,15.2,2.911,3.42-1.068,12.056-11.3,16.635-17.019,5.1-6.379,1.831-35.176-3.732-29.695" transform="translate(282.963 1318.531)"/><path class="bk" d="M528.457-872.69c3.42-1.068,12.084-19.735,16.661-25.457,2.056-2.569,9.58,20.085,6.144,24.381-4.577,5.723-15.133,15.481-18.553,16.549-4.159,1.3-13.033-.473-15.1-4.692-2.2-4.487-1.347-7.436.176-9.36,3.559,2.237,7.541-.443,10.672-1.421" transform="translate(282.963 1318.531)"/><path class="be" d="M531.688-875.193c-3.485-2.076-19.981-10.7-19.981-10.7l-4.489,4.5s10.183,18.685,14.744,20.805,11.044,2.305,12.925-1.623c1.369-2.863-.745-11.521-3.2-12.984" transform="translate(282.963 1318.531)"/><path class="bf" d="M550.807-813.318c-2.3,12.625-8.2,50.705-4.279,56.251l60.225-3.967v-1.152s-46.149-6.909-47.941-7.421c0,0,27.98-43.164,21.325-58.519-5.513-12.727-23.285-21.192-29.671-9.589-1.319,2.4.8,21.9.34,24.4" transform="translate(282.963 1318.531)"/><path class="bg" d="M568-806.921c0-4.116-15.161-21.4-23-28.672,2.267-1.013,4.988-2.105,5.337-2.74,6.385-11.6,25.451-2.043,30.967,10.684,6.653,15.355-22.492,58.041-22.492,58.041,1.792.512,47.941,7.421,47.941,7.421v1.152l-60.225,3.967a3.692,3.692,0,0,1-.367-.689C556.612-773.63,568-801.365,568-806.921" transform="translate(282.963 1318.531)"/><path class="bj" d="M550.075-837.054c2.56,5.8,24.6,28.12,29.552,28.973s6.824-7.167,6.824-7.167,6.313-3.071,3.071-12.795c0,0,13.564-9.555,2.3-34.975,0,0,2.915-26.569-2.816-34.805-3-4.308-15.977-16.132-22.52-16.377-11.329-.425-23.367,9.619-23.8,12.539-.683,4.607,8.787,35.683,9.469,37.62,6.312,17.913-3.537,23.695-2.084,26.987" transform="translate(282.963 1318.531)"/><path class="bf" d="M562.324-901.607c-6.4.584-9.777-3.563-10.587-8.32,4.289-2.487,9.593-4.465,14.752-4.272,2.516.093,5.984,1.9,9.472,4.336-1.829,3.844-8.288,7.767-13.637,8.256" transform="translate(282.963 1318.531)"/><path class="bk" d="M577.251-816.218c5.119-4.777.855-15.355-2.388-19.449-1.924-2.432-13.716-7.149-21.976-9.259,1.523-4.1,2.465-10.053-.728-19.115-.595-1.688-10.052-21.7-7.067-34.581.8,16.311,12.28,18.959,18.3,14.928,13.948-9.341,18.425-16.761,25.336-9.341,4.973,9.119,3.1,30.019,3.1,30.019,11.26,25.42-2.3,34.975-2.3,34.975,3.243,9.724-3.071,12.795-3.071,12.795s-1.876,8.019-6.824,7.167-26.992-23.172-29.552-28.973a1.854,1.854,0,0,1-.137-.888c10.081,12.484,22.927,25.819,27.313,21.724" transform="translate(282.963 1318.531)"/><path class="bl" d="M574.248-866.435c7.285-5.115,13.407-16.072,17.439-22.38,2.369,10.069.92,25.595.92,25.595,2.441,5.512,2.931,10.477,3.429,14.561a59.677,59.677,0,0,0-18.725-6.151,58.013,58.013,0,0,0-23.052.779c-.039-.869-.131-1.789-.268-2.751a64.908,64.908,0,0,0,20.257-9.653" transform="translate(282.963 1318.531)"/><path class="bm" d="M574.593-910.531l-7.464-23.119-16.535,10.523s1.245,9.228,2.588,13.405c1.048,3.265,4.575,6.661,8.531,6.271a19.759,19.759,0,0,0,12.88-7.08" transform="translate(282.963 1318.531)"/><path class="bh" d="M501.856-909.048c1.039-1.128,4.9,1.952,8,4.528l-4.471,8.727c-1.7-3.169-4.573-12.125-3.533-13.255" transform="translate(282.963 1318.531)"/><path class="bn" d="M503.215-907.171c.689-.748,3.255,1.3,5.312,3.005l-2.968,5.791c-1.125-2.1-3.033-8.047-2.344-8.8" transform="translate(282.963 1318.531)"/><path class="bh" d="M523.292-904.766c-.1-3.375-.992-9.587-1.695-10.337s-4.3,8.873-4.3,8.873l5.993,1.464" transform="translate(282.963 1318.531)"/><path class="bn" d="M522.36-906.564c-.065-2.025-.517-5.74-.853-6.176s-1.987,5.416-1.987,5.416l2.84.76" transform="translate(282.963 1318.531)"/><path class="bo" d="M532.339-885.826c2.237.071.939-6.143,1.536-7.593s.04-3.149-1.649-2.5c-1.848.711-1.379,5.488-2.659,5.872-.544.163-3.5-.877-3.369-.043.177,1.128,3.812,4.192,6.141,4.265" transform="translate(282.963 1318.531)"/><path class="bo" d="M553.631-888.342c-4.917-3.183-9.492-1.621-11.157.98s15.376,1.748,11.157-.98" transform="translate(282.963 1318.531)"/><path class="bh" d="M546.208-865.11c-10.288,3.76-29.673-12.847-35.389-22.4l12.948-11.752s3.325,13.18,18.539,10.609c3.924-.664,10.9,1.279,12.763,4.205,3.113,4.892-1.167,16.525-8.86,19.337" transform="translate(282.963 1318.531)"/><path class="bo" d="M523.767-899.262a15.9,15.9,0,0,0,6.58,8.763c-4.348,1.257-5.92,4.4-5.92,7,0,3.957,5.4,6.292,13.712,6.292s15.057-3.209,15.057-7.167a3.954,3.954,0,0,0-.812-2.305,7.2,7.2,0,0,1,2.684,2.235c3.113,4.892-1.167,16.525-8.86,19.337-10.288,3.76-29.673-12.847-35.389-22.4l12.948-11.752" transform="translate(282.963 1318.531)"/><path class="bh" d="M526.935-891.158c5.123-7.147,4.76-11.729,4.481-12.191s-10.3-3.543-11.393-3.577-9.755.4-10.852,1.816-5.323,13.235-5.239,14.315,5.147,6.109,10.467,6.176c4.139.052,11.593-5.223,12.536-6.539" transform="translate(282.963 1318.531)"/><path class="bo" d="M531.405-903.356l.011.008c.279.461,1.012,5.28-4.111,12.425-.943,1.316-8.4,6.705-12.539,6.653-5.321-.067-10.749-5.445-10.835-6.525-.027-.352,26.82-11.563,27.473-12.561" transform="translate(282.963 1318.531)"/><path class="bp" d="M522.893-899.82c1.187-.48,2.407-.231,2.724.556s-.387,1.815-1.573,2.295-2.407.231-2.725-.557.387-1.813,1.575-2.293" transform="translate(282.963 1318.531)"/><path class="bq" d="M549.445-873.8c2.883-2.2-7.957-10.369-9.557-9.512-.66.355-1.364,1.408-.939,2.091-1.236-.172-2.112,1.113-1.881,1.747.471,1.3,10.223,7.319,12.377,5.675" transform="translate(282.963 1318.531)"/><path class="bo" d="M537.413-895.33c-1.848-1.912-5.748-1.028-5.737-.048s2.191,2.48,3.3,2.664c1.22.2,3.112-1.913,2.433-2.616" transform="translate(282.963 1318.531)"/><path class="bj" d="M562.665-850.083c5.493-2.483,26.843-22.472,28.235-26.956,4.228-13.619-4.175-29.22-12.412-19.707-3.764,4.349-23.6,29.852-26.329,32.705-1.425,1.488-3.352,9.473-.243,12.336,2.851,2.625,8.591,2.6,10.749,1.621" transform="translate(282.963 1318.531)"/><path class="bk" d="M552.159-864.041c.475-.5,1.473-1.685,2.805-3.317,2.948,2.5,9.828,2.883,11.947,1.927,4.308-1.948,18.2-15.925,24.66-24.029a25.912,25.912,0,0,1-.671,12.421c-1.392,4.484-22.463,26.527-27.957,29.009-2.157.975-9.265.563-12.116-2.063-3.109-2.863-.093-12.46,1.332-13.948" transform="translate(282.963 1318.531)"/><path class="br" d="M488.607-757.069H502.34s-.8-5.033-2.835-5.289-10.9,5.289-10.9,5.289" transform="translate(282.963 1318.531)"/><path class="bg" d="M549.416-808.8c-.241-.3-5.092-11.857-5.092-11.857l6.483,6.921-1.391,4.936" transform="translate(282.963 1318.531)"/><path class="bs" d="M545.3-905.294l.009-.009a.064.064,0,0,1-.009.009m.024-.025.012-.011-.012.011m.023-.023.055-.056-.055.056m.06-.061.019-.019-.019.019m.024-.024.129-.131-.129.131m.133-.133c.027-.028.053-.055.081-.081-.027.027-.055.053-.081.081m.088-.089a.158.158,0,0,0,.015-.015.158.158,0,0,1-.015.015m.028-.027.009-.009a.031.031,0,0,0-.009.009m28.813-5.177h0l-3.152-9.764h0l3.152,9.764" transform="translate(282.963 1318.531)"/><path class="bt" d="M571.337-920.618l-4.208-13.032,4.208,13.032h0" transform="translate(282.963 1318.531)"/><path class="bu" d="M542.716-900.018q-.44-.65-.819-1.345c1.208-1.515,2.353-2.855,3.4-3.931a.067.067,0,0,0,.009-.009l.015-.016.012-.011.011-.012.055-.056a.01.01,0,0,0,.005-.005l.019-.019.005-.005.129-.131,0,0c.027-.028.055-.055.081-.081a.035.035,0,0,1,.007-.008.144.144,0,0,0,.015-.015l.013-.012a.032.032,0,0,1,.009-.009c.008-.008.016-.017.025-.025a2.561,2.561,0,0,1,.727-.509c-2.211,1.873-3.605,3.6-3.748,4.56a7.268,7.268,0,0,0,.027,1.643" transform="translate(282.963 1318.531)"/><path class="bu" d="M562.972-891.278c-7.443,0-13.671-2.087-17.776-5.871-.044-.479-.08-.969-.1-1.473q-.132.568-.232,1.155a16.461,16.461,0,0,1-2.144-2.551,7.268,7.268,0,0,1-.027-1.643c.143-.959,1.537-2.687,3.748-4.56a.035.035,0,0,1,.009-.005,37.1,37.1,0,0,1,5.291-3.7h0c.759,4.456,3.765,8.375,9.4,8.375.383,0,.777-.017,1.184-.055,5.349-.489,11.807-4.412,13.636-8.255a66.655,66.655,0,0,1,12.7,11.561q-.484.26-.972.511a5.688,5.688,0,0,0-4.008-1.879c-1.655,0-3.425.885-5.189,2.923-.625.724-1.7,2.032-3.059,3.724a48.275,48.275,0,0,1-12.457,1.744m-10.745-18.928c.229-.128.463-.256.7-.383h0c-.235.125-.468.253-.7.381m22.264-.645h0v0h0v0" transform="translate(282.963 1318.531)"/><path class="bv" d="M561.14-901.552c-5.637,0-8.644-3.919-9.4-8.375h0c.161-.093.324-.187.488-.279.229-.128.463-.256.7-.381.085.307.172.6.259.865.993,3.092,4.207,6.3,7.9,6.3a6.19,6.19,0,0,0,.627-.031,19.759,19.759,0,0,0,12.88-7.08l-.1-.32h0q.732.472,1.469.988c-1.829,3.843-8.287,7.765-13.636,8.255-.407.037-.8.055-1.184.055" transform="translate(282.963 1318.531)"/><path class="bw" d="M545.2-897.148c-.113-.105-.225-.211-.336-.319q.1-.586.232-1.155c.024.5.06.995.1,1.473" transform="translate(282.963 1318.531)"/><path class="bs" d="M550.6-923.094h0m0-.007h0m0-.007h0m0,0v0m0,0s0,0,0,0,0,0,0,0m0,0h0m0,0s0,0,0,0,0,0,0,0m0,0h0" transform="translate(282.963 1318.531)"/><path class="bx" d="M561.087-903.42c-3.7,0-6.911-3.209-7.9-6.3-.087-.268-.173-.559-.259-.865h0a122.962,122.962,0,0,1-2.324-12.505h0s0,0,0-.005h0a.011.011,0,0,0,0-.005h0v-.007h0s0,0,0,0h0v0s0,0,0,0h0l16.535-10.523,4.208,13.032,3.152,9.764v0l.1.32a19.759,19.759,0,0,1-12.88,7.08,6.21,6.21,0,0,1-.627.031" transform="translate(282.963 1318.531)"/><path class="bu" d="M575.429-893.022c1.363-1.692,2.433-3,3.059-3.724,1.764-2.037,3.535-2.923,5.189-2.923a5.688,5.688,0,0,1,4.008,1.879,62.569,62.569,0,0,1-10.071,4.135q-1.1.342-2.185.633" transform="translate(282.963 1318.531)"/><path class="bm" d="M567.788-937.706c.773,6.812,1.427,16.339.727,18.833-1.175,4.195-16.368,10.893-18.8,10.86-5.771-8.4-12.963-34.22-9.632-43.644s17.405-8.072,20.424-4.317,6.815,14.167,7.28,18.268" transform="translate(282.963 1318.531)"/><path class="bi" d="M560.967-961.984c-7.132,9.575,2.316,34.972,2.316,34.972l3.921-2.469s0-10.315,4.472-13.984-7.229-23.192-10.709-18.519" transform="translate(282.963 1318.531)"/><path class="bm" d="M566.641-927.447c3.749-2.344,9.161-10.224,7.593-13.959s-5.553-1.993-7.693,2.033.1,11.925.1,11.925" transform="translate(282.963 1318.531)"/><path class="by" d="M567.875-930.539c2.42-1.517,5.912-6.616,4.9-9.032s-3.584-1.291-4.965,1.316.065,7.716.065,7.716" transform="translate(282.963 1318.531)"/><path class="bm" d="M567.587-929.4c1.559-.979,3.808-4.267,3.157-5.825s-2.309-.832-3.2.849.041,4.976.041,4.976" transform="translate(282.963 1318.531)"/><path class="bz" d="M509.264-893.162c5.265,1.6,8.317,1.023,10.556-.384s4.543-7.421,2.688-7.293-19.577,5.757-13.244,7.677" transform="translate(282.963 1318.531)"/><path class="ca" d="M511.533-894.7c3.792,1.149,5.989.737,7.6-.277s3.271-5.344,1.935-5.252-14.1,4.147-9.537,5.529" transform="translate(282.963 1318.531)"/><path class="bz" d="M531.912-903.782c-1.189-2.141-8.451,1.815-9.216,2.955s2.755,3.571,5.633,2.8,4.223-4.607,3.583-5.757" transform="translate(282.963 1318.531)"/><path class="ca" d="M530.485-903.568c-.877-1.579-6.232,1.339-6.8,2.179s2.031,2.633,4.153,2.067,3.115-3.4,2.643-4.245" transform="translate(282.963 1318.531)"/><path class="cb" d="M523.509-899.156c.749-.767,1.249-2.344.728-2.783s-3.619.8-3.943,1.247,2.928,1.829,3.215,1.536" transform="translate(282.963 1318.531)"/><path class="bh" d="M524.32-877.381c2.237.071.939-6.143,1.536-7.593s.04-3.149-1.649-2.5c-1.848.711-1.379,5.488-2.659,5.872-.544.163-3.5-.877-3.369-.043.179,1.128,3.812,4.192,6.141,4.265" transform="translate(282.963 1318.531)"/><path class="cc" d="M524.543-880.853c-.895,0-1.64-1.615-1.833-3.775.268-1.263.4-2.569,1.275-2.905,1.689-.649,2.66,1.024,2.064,2.473a9.963,9.963,0,0,0-.351,3.159c-.32.647-.717,1.048-1.155,1.048" transform="translate(282.963 1318.531)"/><path class="cc" d="M529.349-886.9c-1.672-1.876-5.543-1.26-5.9-.017-.44,1.533,2.588,3.3,4.111,3.389s2.48-2.6,1.788-3.372" transform="translate(282.963 1318.531)"/><path class="bo" d="M555.915-899.968c-.275-8.233,5.889-10.416,6.037,1.829s-1.145,24.407-14.237,30.824l-.311-1.125c13.189-7.672,8.783-23.295,8.511-31.528" transform="translate(282.963 1318.531)"/><path class="bf" d="M543.684-858.742c2.431,8.7,8.189,14.2,20.217,12.54l-.512-1.664,5.759-.128s4.861-16.121-7.165-20.6-18.3,9.852-18.3,9.852" transform="translate(282.963 1318.531)"/><path class="bm" d="M560.044-867.735c-3.813-1.577-29.013-10.591-29.013-10.591l-6.521,8.719s21.371,18.055,26.317,19.515,14.128-1.365,14.483-4.683-2.581-11.851-5.265-12.96" transform="translate(282.963 1318.531)"/><path class="be" d="M525.7-871.2c2.4,2.013,19.555,13.376,23.443,14.524,4.211,1.243,12.024-1.161,12.325-3.987.172-1.609-.567-4.66-1.657-7.163l.229.093c2.684,1.109,5.62,9.643,5.265,12.96s-9.536,6.144-14.483,4.683-26.317-19.515-26.317-19.515l1.195-1.6" transform="translate(282.963 1318.531)"/><path class="bq" d="M555.38-884.459c1.857-.715-5.033-12.112-7.04-12.3s-3.445.793-2.805,2.736,8.375,10.128,9.845,9.563" transform="translate(282.963 1318.531)"/><path class="cb" d="M522.171-904.162a3.1,3.1,0,0,0-1.137.795,2.019,2.019,0,0,1,1.2-1.135,2.514,2.514,0,0,1,1.685.225,3.563,3.563,0,0,0-1.745.115" transform="translate(282.963 1318.531)"/><path class="cb" d="M514.025-901.3a3.09,3.09,0,0,0-1.137.793,2.011,2.011,0,0,1,1.2-1.133,2.5,2.5,0,0,1,1.685.225,3.557,3.557,0,0,0-1.744.115" transform="translate(282.963 1318.531)"/><path class="cd" d="M543.468-935.9c-.355-1.4.005-2.667.8-2.824s1.727.857,2.079,2.261-.007,2.665-.8,2.82-1.731-.851-2.081-2.257" transform="translate(282.963 1318.531)"/><path class="bm" d="M549.657-939.219c-1.075-.571-3.889,13.4-3.432,15.049.227.821,5.427-1.056,5.427-1.056s-1.8-13.893-1.995-13.993" transform="translate(282.963 1318.531)"/><path class="by" d="M549.239-938.755c-1.016,2.913-3.179,12.932-2.783,14.3.179.621,3.432-.385,4.772-.868.036.3.06.469.06.469s-5.508,2.259-5.716,1.44c-.4-1.58,2.624-14.727,3.667-15.344" transform="translate(282.963 1318.531)"/><path class="cd" d="M551.983-938c-.465-1.377-.213-2.669.563-2.893s1.788.707,2.255,2.079.219,2.671-.56,2.9-1.788-.712-2.257-2.084" transform="translate(282.963 1318.531)"/><path class="bh" d="M547.759-947.979c.82-.8,7.3.385,8.785.891s1.328,1.528.881,2.532-8.2,1.593-9.951-.1c-.807-.78-.537-2.521.284-3.327" transform="translate(282.963 1318.531)"/><path class="bh" d="M544.316-944.406c.145,1.667-3.877,4.1-4.756,3.737s-1.619-.861-1.147-1.764,3.18-4.295,4.133-4.2,1.705,1.46,1.769,2.228" transform="translate(282.963 1318.531)"/><path class="cd" d="M558.043-924.572s.713,5.013-.76,5.94c-1.6,1.005-6.276,2.507-7.6,1.941l-2.445-4.675c1.951.055,10.8-3.207,10.8-3.207" transform="translate(282.963 1318.531)"/><path class="by" d="M552.861-915.7c-.063-.268.464-.605,1.177-.752s1.343-.047,1.407.221-.464.605-1.177.751-1.344.048-1.407-.22" transform="translate(282.963 1318.531)"/><path class="ce" d="M548.489-921.347c.044.025.64,1.2,1.185,2.277a28.608,28.608,0,0,0,8.245-2.46l.008-.007a17.139,17.139,0,0,0-.141-2.571s-7.62,2.807-9.3,2.76" transform="translate(282.963 1318.531)"/><path class="bm" d="M530.361-868.755c-1.823-1.448-4.969-4.125-8-3.327-1.007.264-5.8-.844-6.376-1.3A4.831,4.831,0,0,1,514-878.962c.96-2.872,3.083-3.627,4.931-3.093s5.679-2.236,6.432-2.26c2.648-.085,1.772,5.584,10.464,7.849l-5.465,7.711" transform="translate(282.963 1318.531)"/><path class="bm" d="M529.523-878.934c-.053-1.08-3.965-6.609-5.272-7.343s-3.64-3.369-4.271-3.94-2.329.516-1.92,1.147,3.329,3.935,3.671,4.808c.679,1.739-1.545,2.089-2.168,2.4.72,1.2,10.111,5.956,9.96,2.931" transform="translate(282.963 1318.531)"/><path class="bm" d="M520.359-881.935c-2.176-.483-5.045-.629-5.473-1.145s-2.655-4.445-3.191-4.5-2.425.209-2.147,1.017,2.843,4.736,3.736,5.339a17.809,17.809,0,0,0,3.884,1.684c.392.024,3.952-2.224,3.191-2.392" transform="translate(282.963 1318.531)"/><path class="bm" d="M518.8-879.95c-2.316-.1-5.8.169-6.389-.295s-3.717-3.952-4.153-4.2c-.541-.305-2.189.845-1.66,1.647s3.837,4.469,4.915,4.937a22.4,22.4,0,0,0,4.859,1.043c.4-.049,3.24-3.1,2.429-3.135" transform="translate(282.963 1318.531)"/><path class="bm" d="M519.675-876.768c-2.311.425-6.375,1.073-7.052.767s-3.828-2.513-4.311-2.647c-.6-.168-1.992,1.285-1.3,1.921s4.723,3.357,5.885,3.557,3.795.164,5.485.565c.424.1,2.1-4.315,1.293-4.164" transform="translate(282.963 1318.531)"/></g></svg>