<svg xmlns="http://www.w3.org/2000/svg" width="534.201" height="343.501" viewBox="0 0 534.201 343.501"><defs><style>.a{fill:#d9dbd8;}.b{fill:#ff9566;}.c{fill:#ffb882;}.d{fill:#5db3c6;}.e{fill:#429ead;}.f{fill:#ffca55;}.g{fill:#ffea92;}.h{fill:#65516d;}.i{fill:#574560;}.j{fill:#93223d;}.k{fill:#5b9daf;}.l{fill:#76b7ce;}.m{fill:#5d9eaf;}.n{fill:#b5dfea;}.o{fill:#513a3a;}.p{fill:#3a2828;}.q{fill:#d1b8b8;}.r{fill:#f4e0d3;}.s{fill:#9b84a5;}.t{fill:#425c66;}.u{fill:#b58383;}.v{fill:#b5794b;}.w{fill:#b55f43;}.x{fill:#4f3131;}.y{fill:#ea7b59;}.z{fill:#fff5e1;}.aa{fill:#af3149;}.ab{fill:#681220;}.ac{fill:#381919;}.ad{fill:#a6402e;}.ae{fill:#7d1926;}.af{fill:#7dcedb;}.ag{fill:#b3dee5;}.ah{fill:#8db3b7;}.ai{fill:#c9f2ed;}.aj{fill:#a84d35;}.ak{fill:#913624;}.al{fill:#875156;}.am{fill:#6d3c42;}.an{fill:#603139;}.ao{fill:#ffe8bb;}.ap{fill:#671c13;}.aq{fill:#2f5159;}.ar{fill:#b57860;}.as{fill:#66423b;}.at{fill:#994034;}.au{fill:#491d2e;}.av{fill:#ffebeb;}.aw{fill:#ef8f6f;}.ax{fill:#813123;}.ay{fill:#77281b;}.az{fill:#49221e;}.ba{fill:#6d211b;}</style></defs><g transform="translate(-1127 -811.999)"><path class="a" d="M599.285-1.333c-147.515,0-267.1-6.386-267.1-14.264,0-7,94.485-12.827,219.1-14.034,1.268.273,3.7.01,7.609,0,4.166,0,11.319-.23,19.546-.228,5.375,0,10.628-.068,16.36,0h7.76c146.015.093,263.83,6.444,263.83,14.262,0,7.878-119.578,14.264-267.1,14.264" transform="translate(794.818 1156.834)"/><path class="b" d="M30.985-891c-.271,3.805.716,5.721-1.712,9.056,0,0-1.041,9.908.392,14.241,0,0,10.157.113,11.147-2.147s2.075-4.865,1.882-6.495a22.124,22.124,0,0,1,2.013-10.941L30.985-891" transform="translate(1184 1898.531)"/><path class="c" d="M131.463-930.927c-4.661,3.673-7.827,2.8-10.738,5.724,0,0-2.546,9.629-1.8,14.132,0,0,10.005,1.248,11.331-.833s2.558-4.1,2.87-5.708c.4-2.079,6.3-5.331,6.3-5.331l-7.962-7.984" transform="translate(1184 1898.531)"/><path class="c" d="M119.737-909.087c-.887-.6-.459-5.013.247-5.449s2.81-1.083,3.406-.209-.365,4.992-.8,5.349a4.75,4.75,0,0,1-2.855.309" transform="translate(1184 1898.531)"/><path class="c" d="M123.718-909.814c-.7-.692.228-5.077.9-5.444s2.586-.8,3,.133-.944,4.973-1.367,5.287a3.674,3.674,0,0,1-2.529.024" transform="translate(1184 1898.531)"/><path class="c" d="M127.036-909.628c-.658-.9.879-5.519,1.552-5.633.628-.107,2.154.185,2.344,1.18.183.964-1.208,4.471-1.578,4.731a2.987,2.987,0,0,1-2.318-.277" transform="translate(1184 1898.531)"/><path class="c" d="M117.022-919.611c1.127-1.265,7.527.036,7.731.881a2.925,2.925,0,0,1-1.419,3.036c-1.251.664-5.972.336-6.344-.041a6.2,6.2,0,0,1,.032-3.876" transform="translate(1184 1898.531)"/><path class="c" d="M128.8-929.071c1.874.741.544,4.419.017,5.081-.649.817-4.316,2.287-6.886,2.331-.346.005-1.307,3.209-1.619,3.349-2.553,1.149-3.6-.019-3.5-.729a16.76,16.76,0,0,1,2.844-5.9c2.235-1.968,8.537-4.371,9.143-4.131" transform="translate(1184 1898.531)"/><path class="d" d="M30.583-921.323c2.18-36.3,17.529-70.252,22.182-73.6s14.121,47.8,12.347,52.619c-1.763,4.795-8.6,15.253-12.4,30.221-.675,2.655-22.414-4.5-22.128-9.244" transform="translate(1184 1898.531)"/><path class="e" d="M55.617-992.024a56.572,56.572,0,0,1-.4,31.653c-1.765,4.844-.87,23.988-4.679,39.16-.52,2.071-13.823.795-19.731-3.271q-.128,1.576-.225,3.159c-.285,4.744,22.07,12.8,22.744,10.148,3.8-14.947,11.094-26.481,12.859-31.276,1.463-3.972-5.7-38.8-10.57-49.573" transform="translate(1184 1898.531)"/><path class="f" d="M49.583-907.194l4.571-3.608c.687-6.867-5.136-18.976-17.008-19.781,0,0-5.076.735-7.09,4.724s-.155,8.732,1.488,11.336c3.175,5.032,18.039,7.329,18.039,7.329" transform="translate(1184 1898.531)"/><path class="g" d="M51.8-919.287c-2.357-5.2-7.24-10.181-14.542-10.652a11.23,11.23,0,0,0-4.357,1.805,18.859,18.859,0,0,0,3.526,3.225A18.948,18.948,0,0,1,51.8-919.287" transform="translate(1184 1898.531)"/><path class="d" d="M166.412-957.31c-17.548-23.733-43.955-41.377-49.263-41.2s-1.8,34.328,1.77,36.76,27.313,21.351,36.161,19.62c2.281-.447,13.692-11.989,11.332-15.183" transform="translate(1184 1898.531)"/><path class="e" d="M154.712-941.672a12.191,12.191,0,0,0,2.569-1.836c-14.88-16.8-33.405-29.409-42.161-33.1.832,7.295,2.507,14.988,4,16,3.565,2.432,26.748,20.661,35.6,18.931" transform="translate(1184 1898.531)"/><path class="f" d="M146.054-941.724l-4.781-3.441c-.863-6.953,4.844-19.572,17.027-20.989,0,0,5.233.492,7.4,4.451s1.292,16.576-.613,19.216c-4.28,5.933-19.028.764-19.028.764" transform="translate(1184 1898.531)"/><path class="g" d="M142.713-952.871a30.6,30.6,0,0,0,11.181-3.753,29.52,29.52,0,0,0,9.285-7.283,11.943,11.943,0,0,0-4.78-1.7c-8.108.943-13.343,6.847-15.687,12.74" transform="translate(1184 1898.531)"/><path class="h" d="M95.068-883.654l32.891,122.716h.866l-7.791-155.8L98.43-914.2l-3.363,30.543" transform="translate(1184 1898.531)"/><path class="i" d="M99.052-888.279l-3.489-.421-.994,8.167,33.389,119.053h.8l-29.709-126.8" transform="translate(1184 1898.531)"/><path class="j" d="M105.946-1065.423c-4.81-6.661-41.173-7.981-33.96,13.08-12.549,1.647-8.383,24.561,6.635,38.661l27.778-8.608s4.356-36.472-.454-43.133" transform="translate(1184 1898.531)"/><path class="k" d="M43.591-871.151v-2.02H26.4v3.607l17.192-1.587" transform="translate(1184 1898.531)"/><path class="k" d="M27.314-873.171h-2.02l-1.251,17.6H28.66l-1.346-17.6" transform="translate(1184 1898.531)"/><path class="k" d="M43.663-873.171h-2.02l-1.25,17.6H45.01l-1.347-17.6" transform="translate(1184 1898.531)"/><path class="h" d="M65.534-911.032c-1.8,40.129,10.78,150.094,10.78,150.094h1.25L91.085-875.6l10.33-3.817,5.035-35.545-40.916,3.935" transform="translate(1184 1898.531)"/><path class="i" d="M95.77-895.671A263.17,263.17,0,0,0,121.9-899.5l-.064-17.173-23.4,2.477-34.294,2.232c-.209,4.683,1.177,11.256,1.315,17.555a254.18,254.18,0,0,0,30.319-1.261" transform="translate(1184 1898.531)"/><path class="i" d="M91.852-875.1l5.291-.813,8.839-6.524c-9.213,4.357-15.107,4.643-23.911,1.495l4.891,4.212L77.218-760.938h.346L91.852-875.1" transform="translate(1184 1898.531)"/><path class="d" d="M52.655-994.927c-5.125,7.529,7.213,80.5,8.079,84.825s-.43,6.909.723,9.507,53.065,1.889,60.154-4.313c2.308-2.02,3.751-7.791,3.751-8.944s-5.193-11.541-5.193-11.541,6.2-67.5,5.916-69.227-32.023-13.428-39.529-13.579c-7.213-.144-32.4,11.073-33.9,13.272" transform="translate(1184 1898.531)"/><path class="e" d="M91.127-956.166s-28.589,6.157-36.049,2.175l.363-9.42c8.67,8.183,35.687,7.245,35.687,7.245" transform="translate(1184 1898.531)"/><path class="e" d="M124.731-970.2c-4.8,11.775-5.288,41.835-5.288,43.959,0,3.261,2.31,12.228,2.31,12.228s.362,6.884-4.347,9.057-47.643,5.253-50.9,3.443c-2.408-1.337-.011-25.12-12.51-52.02A393.252,393.252,0,0,0,60.734-910.1c.866,4.328-.431,6.909.723,9.507s53.065,1.889,60.154-4.313c2.308-2.02,3.751-7.791,3.751-8.944s-3.971-11.759-3.971-11.759,1.664-25.119,3.341-44.593" transform="translate(1184 1898.531)"/><path class="g" d="M105.135-1003.35c-7.525-2.707-15.306-5.557-18.45-5.62-3.167-.063-9.927,2.835-16.5,5.427,10.568,7.629,24.662,8.752,34.948.193" transform="translate(1184 1898.531)"/><path class="c" d="M75.833-1005.438l.569-15.756,24.157.111,1.967,17.159s-7.935,3.567-14.9,3.033a22.862,22.862,0,0,1-11.795-4.547" transform="translate(1184 1898.531)"/><path class="l" d="M53.893-856.293H25.883l-9.437,26.4,9.437,23.515h28.01l9.437-23.515-9.437-26.4" transform="translate(1184 1898.531)"/><path class="m" d="M16.446-829.894l9.437,23.515h28.01l9.437-23.515H16.446" transform="translate(1184 1898.531)"/><path class="n" d="M37.448-856.293H9.437L0-829.894l9.437,23.515h28.01l9.437-23.515-9.437-26.4" transform="translate(1184 1898.531)"/><path class="o" d="M35.378-853.455H10.727L2.421-829.073l8.305,19.856H35.378l8.305-19.856-8.305-24.383" transform="translate(1184 1898.531)"/><path class="p" d="M39.579-819.261l4.1-9.812-8.305-24.384H10.727L2.421-829.073l.077.185,37.08,9.627" transform="translate(1184 1898.531)"/><path class="c" d="M127.075-926.526c4.593-7.459,17.858-30.4,21.024-32.265,2.168-1.277,10.04-2.795,13.767,1.087,1.717,1.788,1.493,10.505,1.179,14.22-.312,3.681-29,24.587-29,24.587l-6.97-7.628" transform="translate(1184 1898.531)"/><path class="b" d="M161.866-957.7c-3.727-3.881-11.6-2.364-13.767-1.087-.925.544-2.715,2.893-4.895,6.123,5.532-4.088,10.079-5.872,11.935-4.217,3.173,2.831-2.7,14.591-13.109,26.267-3.329,3.733-7.985,11.721-7.985,11.721s28.688-20.905,29-24.587c.315-3.715.539-12.432-1.179-14.22" transform="translate(1184 1898.531)"/><path class="c" d="M42.219-879.341c2.562-8.24,11.191-31.924,10.4-35.388S39.775-928.9,32.943-924c-3.12,2.237.579,39.121.579,39.121l8.7,5.541" transform="translate(1184 1898.531)"/><path class="b" d="M34.82-892.055c1.454-14.667,6.269-26.313,10.753-26.013,2.71.18,4.678,4.689,5.49,11.464,1.127-3.963,1.807-7.037,1.56-8.124-.787-3.463-12.847-14.169-19.68-9.275-3.12,2.237-1.6,44.975-1.6,44.975l4.125.26c-.269-3.855-1.113-8.617-.649-13.287" transform="translate(1184 1898.531)"/><path class="q" d="M12.727-811.877H33.378l6.995-17.432L33.352-850.8h-20.6L5.731-829.309Zm21.386,1.087H11.992L4.576-829.27l.061-.188,7.329-22.425H34.14l7.387,22.613-7.415,18.48" transform="translate(1184 1898.531)"/><path class="r" d="M126.849-757.067H137.6s-7.65-5.356-9.2-4.963c-2.518.64-1.549,4.963-1.549,4.963" transform="translate(1184 1898.531)"/><path class="r" d="M78.495-757.067H67.747s7.651-5.356,9.2-4.963c2.518.64,1.549,4.963,1.549,4.963" transform="translate(1184 1898.531)"/><path class="q" d="M8.081-823.159v-13.532l-1.086,3.451v7.272l1.086,2.809" transform="translate(1184 1898.531)"/><path class="q" d="M12.727-811.151h.426v-40.369h-.4l-.687,2.183v36.477l.661,1.709" transform="translate(1184 1898.531)"/><path class="q" d="M18.225-811.151v-40.369H17.138v40.369h1.087" transform="translate(1184 1898.531)"/><path class="q" d="M23.3-811.151v-40.369H22.211v40.369H23.3" transform="translate(1184 1898.531)"/><path class="q" d="M28.369-811.151v-40.369H27.282v40.369h1.088" transform="translate(1184 1898.531)"/><path class="q" d="M33.378-811.151l.064-.165v-39.917l-.091-.287h-1v40.369h1.023" transform="translate(1184 1898.531)"/><path class="q" d="M38.514-824.429v-10.7l-1.087-3.449v16.964l1.087-2.811" transform="translate(1184 1898.531)"/><path class="i" d="M88.863-896.566l1.63,15.851,1.721-.181L91.4-896.566H88.863" transform="translate(1184 1898.531)"/><path class="i" d="M90.4-893.487l-.453-4.257h5.616l.272,4.167-5.435.091" transform="translate(1184 1898.531)"/><path class="s" d="M91.1-894.114l-.327-2.815,4.05.087.2,2.752-3.919-.024" transform="translate(1184 1898.531)"/><path class="e" d="M76.968-959.531,61.442-958.26l.8,9.749,15.527-1.271-.8-9.749" transform="translate(1184 1898.531)"/><path class="e" d="M69.846-963.058l-3.119.256-.145,6.541,4.473-.365-1.208-6.432" transform="translate(1184 1898.531)"/><path class="r" d="M69.323-963.535l-2.082.171-.138,3.851,2.985-.244-.765-3.777" transform="translate(1184 1898.531)"/><path class="r" d="M76.019-959.206l-13.334,1.091.685,8.373L76.7-950.834l-.685-8.372" transform="translate(1184 1898.531)"/><path class="e" d="M64.86-901.276c2.174-8.695,13.949-11.593,13.949-11.593l-16.484,2.9,2.535,8.695" transform="translate(1184 1898.531)"/><path class="e" d="M120.292-924.1l-26.447,7.428,26.447-12.319Z" transform="translate(1184 1898.531)"/><path class="e" d="M56.165-957.207l10.48,32.543L55.622-947.49Z" transform="translate(1184 1898.531)"/><path class="e" d="M56.091-939.046l.58-29.637-2.7,15.415Z" transform="translate(1184 1898.531)"/><path class="e" d="M125.967-963.795l-8.882-17.952,8.624,12.492Z" transform="translate(1184 1898.531)"/><path class="e" d="M123.7-962.843l.575-14.805,1.187,11.167Z" transform="translate(1184 1898.531)"/><path class="e" d="M92.4-956.166s23.549,2.537,30.252-2.355l1.811-9.239c-7.79,9.239-32.063,11.593-32.063,11.593" transform="translate(1184 1898.531)"/><path class="t" d="M51.443-988.056q-1.315-.692-2.539-1.437a21.4,21.4,0,0,1,3.618-5.215c-.646,1.167-.983,3.492-1.079,6.652" transform="translate(1184 1898.531)"/><path class="u" d="M52.66-994.934l0,0,0,0m0-.007,0,0,0,0m.005-.008h0m.005-.007,0,0,0,0m.006-.007,0,0,0,0m.006-.008,0,0,0,0m.006-.008h0m.014-.017h0m.006-.007v0m.006-.008v0m.007-.008h0m.007-.008h0m.008-.008s0,0,0,0,0,0,0,0m.031-.033h0m.008-.009h0m52.356-8.273h0" transform="translate(1184 1898.531)"/><path class="t" d="M82.976-980.983c-12.119,0-23.167-2.677-31.533-7.073.1-3.16.432-5.485,1.079-6.652l.02-.017.114-.2,0-.007,0,0,0,0,0,0a.011.011,0,0,0,0-.005h0l0-.005,0,0,0,0,0,0,0-.005,0,0,0-.005h0l.013-.016h0l.006-.007v0a.022.022,0,0,0,.005-.005v0a.018.018,0,0,0,.005-.005h0l.005-.007h0l.006-.007s0,0,0,0l.03-.032h0l.008-.009h0c1.333-1.385,9.324-5.279,17.408-8.467h0a31.592,31.592,0,0,0,18.324,6.177,25.648,25.648,0,0,0,16.624-5.984h0c8.154,2.752,16.369,5.976,19.556,7.7-7.962,8.725-23.652,14.664-41.713,14.664" transform="translate(1184 1898.531)"/><path class="u" d="M70.27-1003.576l0,0c.495-.195.991-.392,1.485-.588-.44.175-.882.351-1.322.524l-.168.067" transform="translate(1184 1898.531)"/><path class="t" d="M70.23-1003.56l.04-.016.168-.067-.207.083" transform="translate(1184 1898.531)"/><path class="u" d="M102.482-1004.3h0l-.558-4.875h0l.559,4.875" transform="translate(1184 1898.531)"/><path class="v" d="M88.511-997.366a31.592,31.592,0,0,1-18.324-6.177l.017-.007.027-.011.207-.083c.441-.173.882-.349,1.322-.524,1.378-.549,2.751-1.1,4.085-1.623l-.013.352a22.862,22.862,0,0,0,11.795,4.547q.727.056,1.462.055c6.565,0,13.436-3.088,13.436-3.088l-.044-.38h0l2.653.955h0a25.648,25.648,0,0,1-16.624,5.984" transform="translate(1184 1898.531)"/><path class="w" d="M89.089-1000.836c-.49,0-.978-.017-1.462-.055a22.862,22.862,0,0,1-11.795-4.547l.013-.352h0l.556-15.4h.038c.54,4.352,1.079,7.532,1.461,8.267,1.313,2.52,12.029,5.18,18.112,5.381q.137,0,.273,0a11.935,11.935,0,0,0,5.637-1.637l.558,4.875.044.38s-6.871,3.088-13.436,3.088" transform="translate(1184 1898.531)"/><path class="c" d="M74.684-1055.511c-1.243,8.788,1.9,40.063,3.217,42.584s12.029,5.18,18.112,5.381,12.322-6.4,13.07-8.325-2.192-42.359-3.36-44.888-30.235-.439-31.039,5.248" transform="translate(1184 1898.531)"/><path class="x" d="M102.834-1040.354c-.157-1.653-1.175-2.871-2.271-2.715s-1.847,1.623-1.685,3.277,1.175,2.867,2.266,2.712,1.855-1.619,1.691-3.275" transform="translate(1184 1898.531)"/><path class="c" d="M93.411-1041.42c1.132-1.051,10.875,12.849,11.007,14.813.069.975-7.449,1.063-7.449,1.063s-3.767-15.689-3.558-15.876" transform="translate(1184 1898.531)"/><path class="y" d="M94.152-1041.091c2.583,2.724,9.755,12.635,9.846,14.272.043.741-4.586.976-6.524,1,.085.336.128.529.128.529s8.08.2,7.991-.768c-.178-1.863-9.829-14.792-11.441-15.035" transform="translate(1184 1898.531)"/><path class="x" d="M90.953-1039.16c0-1.673-.894-2.961-1.992-2.887s-1.993,1.485-1.992,3.152.888,2.965,1.99,2.895,1.99-1.493,1.994-3.16" transform="translate(1184 1898.531)"/><path class="j" d="M90.624-1046.3c-.707,2.059-7.275,3.861-8.233,3.173s-1.661-1.5-.557-2.459,6.463-4.3,7.66-3.915,1.454,2.251,1.13,3.2" transform="translate(1184 1898.531)"/><path class="j" d="M97.222-1047.472c1.07,1.923,7.128,2.5,7.8,1.637s1.087-1.807-.077-2.557-6.534-3.087-7.477-2.481-.739,2.516-.242,3.4" transform="translate(1184 1898.531)"/><path class="x" d="M89.03-1022.248s1.277,5.687,3.579,6.087c2.505.433,9.177.153,10.633-.992l1.1-6.025c-2.486.851-15.312.931-15.312.931" transform="translate(1184 1898.531)"/><path class="y" d="M100.036-1015.492c-.036-.315-.862-.463-1.844-.332s-1.75.493-1.713.808.862.463,1.844.332,1.75-.495,1.713-.808" transform="translate(1184 1898.531)"/><path class="z" d="M102.741-1022.651c-.047.045-.3,1.555-.53,2.932a46.037,46.037,0,0,1-11.692.7l-.014,0a17.222,17.222,0,0,1-.944-2.825s11.039-.069,13.179-.8" transform="translate(1184 1898.531)"/><path class="c" d="M75.387-1036.428a4.347,4.347,0,0,0-7.826.952c-1.342,3.616,4.248,10.564,10.4,13.068l-2.571-14.02" transform="translate(1184 1898.531)"/><path class="y" d="M74.647-1034.661a2.734,2.734,0,0,0-4.923.6c-.844,2.275,2.672,6.645,6.54,8.22l-1.617-8.819" transform="translate(1184 1898.531)"/><path class="c" d="M75.323-1030.855a1.646,1.646,0,0,0-2.964.36c-.508,1.369,1.609,4,3.938,4.949l-.974-5.309" transform="translate(1184 1898.531)"/><path class="aa" d="M73.14-1059.844c4.06,2.2,5.282,22.655,6.34,32.657l-2.973-.439s-1.058-9.424-3.463-11.06c-2.387-1.624-2.213-22.408.1-21.159" transform="translate(1184 1898.531)"/><path class="j" d="M76.871-1050c-.892-5.019-2.076-8.951-3.731-9.847-2.308-1.249-6.377,18.357-.1,21.159a1.983,1.983,0,0,1,.649.685c.24-5.361,1.476-9.851,3.178-12" transform="translate(1184 1898.531)"/><path class="ab" d="M69.475-1025.469c-6.375-11.5-6.849-23.616.52-26.376-.71,5.352-.312,11.661,3.048,13.16h0a2.328,2.328,0,0,1,.438.4c.066.087.13.177.2.269a4.254,4.254,0,0,0-1.94-.464,4.441,4.441,0,0,0-4.177,3.008c-.812,2.188.915,5.6,3.768,8.5l-1.853,1.5m4.23-12.537-.012-.005s0-.007,0-.009l.011.015" transform="translate(1184 1898.531)"/><path class="u" d="M106-1065.349h0m-.013-.017,0-.005,0,.005m-.013-.019,0-.007,0,.007m-.013-.019-.013-.019.013.019" transform="translate(1184 1898.531)"/><path class="ab" d="M106.557-1055.621a29.744,29.744,0,0,0-.833-5.137c-.33-.715-2.888-1.06-6.407-1.06-8.078,0-21.217,1.821-24.085,5.188a6.374,6.374,0,0,0-1.957-3.133h0l-.038-.024h0l-.018-.012h0l-.018-.012h0l-.017-.009h0l-.017-.011h0l-.017-.009a.525.525,0,0,0-.1-.04.47.47,0,0,0-.122-.017c-.6,0-1.279,1.212-1.861,3.061-.269-5.209,2.74-8.587,7.1-10.581l11.392-2.332q.527-.014,1.05-.013c6.936,0,13.491,1.773,15.347,4.344h0c0,.007.009.012.013.019l.008.012,0,.007.01.013,0,.005.011.016h0c1.084,1.573,1.688,4.695,1.981,8.564l-1.423,1.164" transform="translate(1184 1898.531)"/><path class="w" d="M78.906-1033.125c-.753-8.041-1.754-18.279-3.675-23.505,2.868-3.367,16.007-5.188,24.085-5.188,3.519,0,6.077.345,6.407,1.06a29.744,29.744,0,0,1,.833,5.137c-1.764,1.441-3.916,3.2-6.33,5.163a8.425,8.425,0,0,0-2.287-.513.909.909,0,0,0-.476.1c-.817.527-.772,2.039-.42,3.007-2.315,1.884-4.793,3.9-7.353,5.98a1.358,1.358,0,0,0-.639-.163c-.03,0-.06,0-.091,0-.912.056-1.677,1.032-1.915,2.309-2.691,2.187-5.437,4.417-8.14,6.612m10.358-16.4c-1.535,0-6.386,3.036-7.431,3.945-1.1.96-.4,1.771.557,2.459a1.4,1.4,0,0,0,.756.149c2.016,0,6.874-1.569,7.477-3.323.324-.949.068-2.816-1.13-3.2a.781.781,0,0,0-.23-.031" transform="translate(1184 1898.531)"/><path class="ac" d="M87.046-1039.737c.238-1.277,1-2.253,1.915-2.309.03,0,.06,0,.091,0a1.36,1.36,0,0,1,.639.163q-1.311,1.066-2.645,2.149" transform="translate(1184 1898.531)"/><path class="ab" d="M83.147-1042.973a1.4,1.4,0,0,1-.756-.149c-.959-.688-1.661-1.5-.557-2.459,1.044-.909,5.9-3.945,7.431-3.945a.78.78,0,0,1,.23.031c1.2.384,1.454,2.251,1.13,3.2-.6,1.753-5.461,3.323-7.477,3.323" transform="translate(1184 1898.531)"/><path class="ab" d="M97.043-1047.867c-.352-.968-.4-2.48.42-3.007a.91.91,0,0,1,.476-.1,8.42,8.42,0,0,1,2.287.513l-3.183,2.592" transform="translate(1184 1898.531)"/><path class="w" d="M71.328-1026.974c-2.853-2.905-4.58-6.315-3.768-8.5a4.441,4.441,0,0,1,4.177-3.008,4.254,4.254,0,0,1,1.94.464l.015.02s0-.008,0-.012l.012.005c1.119,1.556,1.879,4.775,2.322,7.219l-.584.473-.8-4.347a2.674,2.674,0,0,0-2.3-1.295,2.8,2.8,0,0,0-2.628,1.893c-.568,1.532.841,4.015,3,5.953l-1.4,1.136" transform="translate(1184 1898.531)"/><path class="ad" d="M72.727-1028.109c-2.163-1.939-3.572-4.421-3-5.953a2.8,2.8,0,0,1,2.628-1.893,2.674,2.674,0,0,1,2.3,1.295l.8,4.347-.019.016-.1-.556a1.609,1.609,0,0,0-1.382-.779,1.681,1.681,0,0,0-1.582,1.139,2.645,2.645,0,0,0,.59,2.205l-.221.18" transform="translate(1184 1898.531)"/><path class="w" d="M72.949-1028.289a2.645,2.645,0,0,1-.59-2.205,1.681,1.681,0,0,1,1.582-1.139,1.609,1.609,0,0,1,1.382.779l.1.556q-1.252,1.016-2.476,2.009" transform="translate(1184 1898.531)"/><path class="ae" d="M76.028-1030.788c-.443-2.444-1.2-5.663-2.322-7.219l-.011-.015c.242-5.352,1.477-9.833,3.177-11.976-.868-4.881-2.011-8.733-3.6-9.767a6.374,6.374,0,0,1,1.957,3.133c1.921,5.227,2.921,15.464,3.675,23.505q-1.449,1.178-2.878,2.337m-2.546-7.5a2.336,2.336,0,0,0-.438-.4,1.227,1.227,0,0,1,.438.4m-.208-21.475-.038-.024.038.024m-.038-.024a.127.127,0,0,1-.018-.012l.018.012m-.02-.012-.018-.012.018.012m-.019-.012-.017-.009.017.009m-.02-.011-.017-.011.017.011m-.02-.012-.017-.009a.484.484,0,0,0-.1-.04.526.526,0,0,1,.1.04l.017.009" transform="translate(1184 1898.531)"/><path class="ab" d="M73.693-1038l-.015-.02c-.066-.092-.13-.183-.2-.269a1.229,1.229,0,0,0-.438-.4h0c-3.36-1.5-3.759-7.808-3.048-13.16h0a30.449,30.449,0,0,1,1.063-4.991v0c.583-1.849,1.265-3.061,1.861-3.061a.476.476,0,0,1,.122.017.477.477,0,0,1,.1.04l.017.009h0l.017.011h0l.017.009h0l.018.012h0a.11.11,0,0,0,.018.012h0l.038.024h0c1.585,1.033,2.728,4.885,3.6,9.767-1.7,2.143-2.934,6.624-3.177,11.976,0,0,0,.005,0,.009s0,.008,0,.012" transform="translate(1184 1898.531)"/><path class="d" d="M66.651-1049.371c-2.629-6.748-5.932-20.337-5.313-23.7s31.036-13.512,34.306-13.464c2.824.041,10.837,22.051,10.837,22.051l-39.831,15.111" transform="translate(1184 1898.531)"/><path class="af" d="M105.073-1065.959c-1.582-4.229-7.543-19.743-9.848-19.777-2.05-.029-15.373,4.177-24.294,7.943l-.006.131a19.266,19.266,0,0,0,17.216,19.34l15.461-5.865a19.48,19.48,0,0,0,1.471-1.771" transform="translate(1184 1898.531)"/><path class="ag" d="M73.514-1052.545c12.426-7.237,36.785-21.42,41.546-19.544s-7.79,9.665-7.79,9.665L73.682-1051.96l-.168-.585" transform="translate(1184 1898.531)"/><path class="ag" d="M116.515-1069.649l-.445-1.556-1.528,1.651Z" transform="translate(1184 1898.531)"/><path class="ah" d="M73.668-1051.991c12.436-7.221,37.055-20.525,41.813-18.644s-7.8,9.655-7.8,9.655l-34.009,8.989" transform="translate(1184 1898.531)"/><path class="ai" d="M96.307-1078.905c-1.009-2.352-3.076-3.811-4.617-3.259s-1.973,2.905-.965,5.256,3.076,3.811,4.617,3.259,1.973-2.905.965-5.256" transform="translate(1184 1898.531)"/><path class="c" d="M30.768-865.863c-.969-.456-1.222-4.883-.591-5.421s2.61-1.5,3.333-.729.4,4.989.031,5.408a4.733,4.733,0,0,1-2.773.743" transform="translate(1184 1898.531)"/><path class="c" d="M34.591-867.191c-.8-.576-.554-5.052.053-5.517s2.433-1.191,2.982-.328-.17,5.06-.539,5.435a3.677,3.677,0,0,1-2.5.411" transform="translate(1184 1898.531)"/><path class="c" d="M37.9-867.517c-.788-.785.022-5.589.67-5.805.6-.2,2.157-.147,2.5.808.329.924-.509,4.6-.833,4.916a2.989,2.989,0,0,1-2.334.081" transform="translate(1184 1898.531)"/><path class="c" d="M26.471-875.845c.919-1.424,7.443-1.119,7.774-.316a2.924,2.924,0,0,1-.937,3.219c-1.134.848-5.85,1.248-6.275.932a6.2,6.2,0,0,1-.563-3.835" transform="translate(1184 1898.531)"/><path class="c" d="M36.654-887c1.966.445,1.216,4.283.8,5.019-.517.907-3.914,2.921-6.447,3.359-.341.059-.8,3.372-1.086,3.559-2.347,1.528-3.556.533-3.569-.184a16.742,16.742,0,0,1,1.9-6.267c1.908-2.289,7.766-5.629,8.4-5.485" transform="translate(1184 1898.531)"/><path class="c" d="M332.146-981.934c-1.495-1.155-2.672-1.517-3.351.385l2.671,3.687c1.495-.136,2.175-2.917.68-4.072" transform="translate(1184 1898.531)"/><path class="h" d="M284.1-888.883l34.785,128.648h.935L305.074-910.29l-22.208-9.884,1.237,31.291" transform="translate(1184 1898.531)"/><path class="aj" d="M255.813-1016.971c-.243,1.216,3.321,5.507,4.628,6.211-3.705,12.129,13.659,21.847,19.544,11.933,0,0,5.744,6.329,13.221-3.931,3.741-5.135.085-12.668.085-12.668,5.855-2.285,2.969-32.1-12.639-29.3,0,0-23.579,21.42-24.84,27.756" transform="translate(1184 1898.531)"/><path class="ak" d="M294.741-1016.816c-5.112.489-11.024-4.279-13.964-11.672-2.485-6.243-2.144-12.585.463-16.308-.2.025-.387.033-.587.069,0,0-23.579,21.42-24.84,27.756-.243,1.216,3.321,5.507,4.628,6.211-3.705,12.129,13.659,21.847,19.544,11.933,0,0,5.744,6.329,13.221-3.931,3.741-5.135.085-12.668.085-12.668a3.069,3.069,0,0,0,1.449-1.391" transform="translate(1184 1898.531)"/><path class="ak" d="M255.946-1035.449c-.991-.012-3.716,4.336-4.037,5.768-10.1-1.392-14.66,17.684-5.908,21.657,0,0-3.936,6.9,5.364,12.388,4.655,2.745,9.893-2.307,9.893-2.307s1.431,1.961,8.469-1.723,5.551-14.737,5.551-14.737-14.172-20.989-19.332-21.047" transform="translate(1184 1898.531)"/><path class="e" d="M284.911-998.668c12.816,13.208,27.649,46.161,27.532,48.447s-8.492,2.236-12.857-3-18.021-24.443-21.756-27.427,1.544-23.725,7.081-18.02" transform="translate(1184 1898.531)"/><path class="c" d="M331.15-982.251c-11.856,8.075-29.184,27.193-27.433,29.947s7.092,3.88,9.809.884,18.349-29.835,18.349-29.835l-.725-1" transform="translate(1184 1898.531)"/><path class="h" d="M260.318-760.235h1.268L279.45-887.884l13.764,3.993,8.624-36.235-37.761-10.688c-7.288,14.671-13.227,23.771-3.759,170.578" transform="translate(1184 1898.531)"/><path class="i" d="M305.483-906.123l-.409-4.167-5.044-2.244,1.808-7.592-37.761-10.688c-2.325,4.679-4.512,8.8-6.105,17-.228,1.171,32.783,13.309,47.512,7.695" transform="translate(1184 1898.531)"/><path class="i" d="M261.586-760.235l18.5-126.821,5.5,1.156,8.828-3.053c-10.185.933-14.94-.481-20.783-5.439l3.124,6.521s-14.085,101.688-16.531,126.249c.031.467.059.917.089,1.387h1.268" transform="translate(1184 1898.531)"/><path class="i" d="M283.281-887.191l13.435,44.956L286.2-887.259Z" transform="translate(1184 1898.531)"/><path class="al" d="M281.385-946.359,319.206-991.1l2.18.448,26.551,31.787-47.345,48.373-19.207-35.871" transform="translate(1184 1898.531)"/><path class="am" d="M280.943-947.019,319.206-991.1l26.635,31.885-46.168,47.172-18.729-34.98" transform="translate(1184 1898.531)"/><path class="an" d="M319.206-991.1l26.635,31.885-46.168,47.172,28.851-47.024L319.206-991.1" transform="translate(1184 1898.531)"/><path class="d" d="M256.819-996.612c1.888-6.455,21.469,10.7,28.372,21.9s22.371,67.06,22.371,67.06c-13.484,4.651-45.741-9.053-49.231-15.924-.324-.64,8.543-12.9,9.332-28.081.764-14.729-14.108-33.793-10.844-44.953" transform="translate(1184 1898.531)"/><path class="e" d="M287.145-951.028c2.863-.608,6.065,1.475,9.135,5.479-4.035-12.605-8.273-24.6-11.088-29.164-6.9-11.2-26.484-28.353-28.372-21.9-3.264,11.16,11.608,30.224,10.844,44.953-.789,15.185-9.656,27.441-9.332,28.081,1.3,2.563,6.608,6.076,13.449,9.233-1.643-17.963,8.913-35.311,15.364-36.684" transform="translate(1184 1898.531)"/><path class="d" d="M257.186-997.332c-2.213,6.087,11.788,39.52,13.052,41.257s32.588-1.005,34.167-2.427S286.138-997.3,283.77-999.348s-25.952.279-26.584,2.016" transform="translate(1184 1898.531)"/><path class="ao" d="M280.2-1000.088a97.952,97.952,0,0,0-19.7,1.569l20.2,7.46-.5-9.029" transform="translate(1184 1898.531)"/><path class="e" d="M279.347-958c-1.237-1.595-21.94-39.939-22.161-39.329-2.213,6.087,9.529,40.884,10.793,42.62s34.847-2.368,36.425-3.789c.141-.127.1-.553-.071-1.207-10.261,1.535-24.065,2.892-24.987,1.705" transform="translate(1184 1898.531)"/><path class="e" d="M256.978-996.683c-12.589,10.04-27.807,36.965-28.015,39.245s6.856,4.173,11.244.027,18.5-19.9,22.051-21.976.159-21.633-5.28-17.3" transform="translate(1184 1898.531)"/><path class="d" d="M264.186-986.112c-.131-6.123-2.911-14.591-6.685-11.475-10.2,8.417-22.132,28.005-26.3,36.176a10.18,10.18,0,0,0,10.028-2.132c4.563-4.26,19.229-20.363,22.924-22.543l.035-.027" transform="translate(1184 1898.531)"/><path class="g" d="M234.777-951.546c-6.475-.905-7.2-4.121-6.657-6.884a6.368,6.368,0,0,1,9.149-4.121c4.755,2.4,5.027,7.655,4.12,9.149s-6.612,1.856-6.612,1.856" transform="translate(1184 1898.531)"/><path class="b" d="M256.331-927.366c-11.4-8.223-28.132-28-26.4-30.736s6.924-3.789,9.521-.76,18.032,30.775,18.032,30.775l-1.153.721" transform="translate(1184 1898.531)"/><path class="c" d="M233.917-956.2c-1.579,2.491,12.188,19.145,23.268,28.3l.3-.189s-15.2-27.321-17.965-30.691a6.428,6.428,0,0,0-5.6,2.579" transform="translate(1184 1898.531)"/><path class="c" d="M264.361-998.966c.144-.433-3.317-37.653-3.317-37.653l10.243,7.357,6.848,29.392.148,5.736-13.921-4.832" transform="translate(1184 1898.531)"/><path class="r" d="M318.323-757.067h10.748s-7.651-5.356-9.2-4.963c-2.517.64-1.549,4.963-1.549,4.963" transform="translate(1184 1898.531)"/><path class="r" d="M262.361-757.067H251.613s7.651-5.356,9.2-4.963c2.517.64,1.549,4.963,1.549,4.963" transform="translate(1184 1898.531)"/><path class="e" d="M285.237-976l-13.588,1.112,3.232,9.364,13.588-1.112L285.237-976" transform="translate(1184 1898.531)"/><path class="e" d="M277.2-979.374l-2.729.224,1.58,6.572,3.913-.319-2.764-6.477" transform="translate(1184 1898.531)"/><path class="r" d="M276.835-979.4l-1.823.149,1.243,3.509,2.612-.213-2.032-3.445" transform="translate(1184 1898.531)"/><path class="r" d="M284.426-975.64l-11.669.953,3.592,7.633,11.669-.955-3.592-7.632" transform="translate(1184 1898.531)"/><path class="i" d="M281.409-908.658l-1.253,14.605,1.535-.141,2.271-14.283-2.552-.181" transform="translate(1184 1898.531)"/><path class="e" d="M263.513-980.8l2.039-8.288-4.824,7.744,2.785.544" transform="translate(1184 1898.531)"/><path class="e" d="M266.553-979.752l-4.807-10.016,2.8,11.74Z" transform="translate(1184 1898.531)"/><path class="ap" d="M284.911-998.668c-.011-.011-.021-.02-.032-.032.011.012.021.021.032.032m-.032-.032-.013-.013.013.013m-.016-.016-.011-.011.011.011m-.017-.017s0,0,0,0,0,0,0,0" transform="translate(1184 1898.531)"/><path class="aq" d="M287.963-992.742a44.784,44.784,0,0,0-4.193-6.607,1.625,1.625,0,0,0-.487-.268,2.915,2.915,0,0,1,1.56.88s0,0,0,0,0,.005.007.007l.011.011,0,0,.013.013h0c.011.012.021.021.032.032h0c1.077,1.112,2.171,2.372,3.267,3.732a19.266,19.266,0,0,1-.215,2.195" transform="translate(1184 1898.531)"/><path class="ap" d="M264.362-999.158c-.008-.252-.041-.757-.1-1.467.053.705.088,1.209.1,1.467h0" transform="translate(1184 1898.531)"/><path class="ap" d="M278.069-1000.151h0L277.4-1003h0l.664,2.849" transform="translate(1184 1898.531)"/><path class="t" d="M277.335-983.512c-.145,0-.292,0-.44-.007-4.508-.115-8.243-2.064-11.609-4.495l.265-1.076-.544.873q-.536-.394-1.059-.8c-.612-4.444-2.34-8.995-4.659-9.231.368-.092.769-.184,1.213-.273h0l20.2,7.46-.5-9.029a11.635,11.635,0,0,1,3.047.467l.036.005a1.624,1.624,0,0,1,.487.268,44.786,44.786,0,0,1,4.193,6.607c-.847,5.368-4.043,9.229-10.628,9.229M260.5-998.519l.008,0,.085-.016c-.032.005-.063.012-.093.019m3.859-.639h0m13.707-.991h0v0h0v0" transform="translate(1184 1898.531)"/><path class="ar" d="M280.7-991.059l-20.2-7.46c.031-.007.061-.013.093-.019.268-.055.551-.108.841-.16l.209-.037c.264-.047.532-.092.811-.137l.288-.047.828-.127.288-.04c.165-.024.331-.048.5-.071h0a1,1,0,0,1,0,.192l13.921,4.832-.148-5.736-.065-.279h0c.376,0,.739.008,1.089.017h.021c.356.011.7.024,1.021.043l.5,9.029" transform="translate(1184 1898.531)"/><path class="ap" d="M257.893-997.872q.064-.04.128-.076c-.043.024-.084.049-.127.076h0" transform="translate(1184 1898.531)"/><path class="aq" d="M257.381-997.552a1.7,1.7,0,0,1,.475-.3l.037-.024h0q-.114.07-.228.156a1.936,1.936,0,0,0-.285.164" transform="translate(1184 1898.531)"/><path class="t" d="M257.2-997.338l-.007,0h0l.157-.184.032-.029a1.936,1.936,0,0,1,.285-.164c-.055.04-.109.084-.165.129l-.3.249" transform="translate(1184 1898.531)"/><path class="aq" d="M257.183-997.322l0-.011.005-.007h0l.007,0-.019.016" transform="translate(1184 1898.531)"/><path class="t" d="M263.949-989.015c-3.009-2.331-5.753-4.913-8.547-6.7.6-.565,1.191-1.107,1.78-1.6v-.007l.019-.016.3-.249c.056-.045.111-.089.165-.129q.114-.086.228-.156c.043-.027.084-.052.127-.076a2.192,2.192,0,0,1,1.076-.3c.06,0,.12,0,.179.008a.057.057,0,0,0,.015,0c2.319.236,4.047,4.787,4.659,9.231" transform="translate(1184 1898.531)"/><path class="w" d="M278.282-994.134l-13.921-4.832a1,1,0,0,0,0-.192h0c-.009-.257-.044-.761-.1-1.467-.1-1.36-.28-3.473-.5-6.011,1.289-1,2.557-2.06,3.8-3.172A26.761,26.761,0,0,0,277.4-1003l.664,2.849v0l.065.279.148,5.736" transform="translate(1184 1898.531)"/><path class="aq" d="M265.286-988.014l-.279-.2.544-.873-.265,1.076" transform="translate(1184 1898.531)"/><path class="c" d="M260.577-1021.915c2.845,9.008,10.707,19.567,24.583,20.687,0,0,10.939-18.569.675-45.88-2.256-6.008-14.556-5.311-18.613-3.136-8.46,4.535-10.4,16.437-6.644,28.329" transform="translate(1184 1898.531)"/><path class="as" d="M287.427-1026.995c-.271-1.936-1.456-3.457-2.656-3.4s-1.944,1.692-1.673,3.635,1.459,3.463,2.651,3.4,1.949-1.689,1.679-3.633" transform="translate(1184 1898.531)"/><path class="as" d="M275.7-1026.4c-.241-2.243-1.483-4.057-2.789-4.071s-2.155,1.8-1.911,4.04,1.488,4.063,2.787,4.068,2.153-1.8,1.913-4.037" transform="translate(1184 1898.531)"/><path class="as" d="M268.838-1026.994s3.656-3.144,7.315-2.649a3.4,3.4,0,0,0-3.705-1.191c-2.591.575-3.609,3.84-3.609,3.84" transform="translate(1184 1898.531)"/><path class="as" d="M288.747-1028.724s-3.961-2.129-7.025-1.112a2.746,2.746,0,0,1,2.929-1.641c2.4.068,4.1,2.753,4.1,2.753" transform="translate(1184 1898.531)"/><path class="at" d="M267.421-1031.079l-.191-.473a9.057,9.057,0,0,1,5.937-5.473l.4,1.673a8.5,8.5,0,0,0-6.149,4.273" transform="translate(1184 1898.531)"/><path class="at" d="M288.641-1032.992a9.95,9.95,0,0,0-7.423-2.984l-.119-1.676c1.068-.131,4.863.616,7.733,4.063l-.192.6" transform="translate(1184 1898.531)"/><path class="y" d="M283.066-1020.391l0,.187a2.107,2.107,0,0,1-2.8,1.563,2.909,2.909,0,0,1-1.745-1.485,2.78,2.78,0,0,0,2.025,2.791,2.107,2.107,0,0,0,2.809-1.559,2.43,2.43,0,0,0-.289-1.5" transform="translate(1184 1898.531)"/><path class="au" d="M276.482-1013.432l8.243-.211s-.489,4.157-3.86,4.152c-3.228,0-4.383-3.941-4.383-3.941" transform="translate(1184 1898.531)"/><path class="av" d="M277.062-1013.279l7-.18s.687,1.816-3.285,1.988c-4.183.18-3.713-1.808-3.713-1.808" transform="translate(1184 1898.531)"/><path class="aw" d="M282.806-1008.208c-.032-.513-.716.016-1.6.033s-1.632-.48-1.6.033.776.913,1.66.895,1.572-.448,1.54-.961" transform="translate(1184 1898.531)"/><path class="ak" d="M264.335-1014.365c1.771-9.553.557-20.716-5.737-23.412s-1.715,15.744-1.715,15.744l7.452,7.668" transform="translate(1184 1898.531)"/><path class="c" d="M261.018-1019.9c-2.648-3.061-8.629-.739-8.516,2.271s9.764,6.983,11.013,5.279-.681-5.449-2.5-7.549" transform="translate(1184 1898.531)"/><path class="y" d="M260.441-1018.628c-1.72-1.989-5.608-.48-5.535,1.476s6.347,4.539,7.159,3.432-.443-3.543-1.624-4.908" transform="translate(1184 1898.531)"/><path class="c" d="M261.7-1016.619c-1.119-1.295-3.648-.312-3.6.96s4.128,2.952,4.656,2.232-.288-2.3-1.056-3.192" transform="translate(1184 1898.531)"/><path class="u" d="M251.911-1029.695v0m0-.015a0,0,0,0,0,0,0,0,0,0,0,1,0,0m0-.015a.005.005,0,0,1,0,0,0,0,0,0,0,0,0m0-.013v0m0-.015s0,0,0-.005,0,0,0,.005m0-.017s0,0,0,0,0,0,0,0m0-.012a.035.035,0,0,0,0-.009.035.035,0,0,1,0,.009m.005-.017s0,0,0-.005,0,0,0,.005m0-.011a4.233,4.233,0,0,1,.149-.424,4.354,4.354,0,0,0-.149.424m.149-.425.008-.02-.008.02m.011-.027a.019.019,0,0,0,0-.008.019.019,0,0,1,0,.008m.009-.023a.021.021,0,0,1,0-.007.021.021,0,0,0,0,.007m.009-.023h0" transform="translate(1184 1898.531)"/><path class="ap" d="M247.707-998.5c-4.416-4.759-1.707-9.523-1.707-9.523h0c-3.224-1.464-4.643-4.979-4.643-8.764,0-6.128,3.72-12.967,9.508-12.967a7.568,7.568,0,0,1,1.043.073.049.049,0,0,1,0-.013v0a.038.038,0,0,0,0-.012,0,0,0,0,0,0,0s0-.008,0-.012a.005.005,0,0,1,0,0,.025.025,0,0,1,0-.011v0l0-.011s0,0,0-.005a.039.039,0,0,1,0-.012s0,0,0,0,0-.005,0-.008a.035.035,0,0,0,0-.009s0-.005,0-.008,0,0,0-.005a.01.01,0,0,0,0-.005,4.354,4.354,0,0,1,.149-.424h0l.008-.02,0-.007a.018.018,0,0,0,0-.008.159.159,0,0,0,.007-.015.023.023,0,0,1,0-.007.15.15,0,0,1,.007-.016h0a16.21,16.21,0,0,1,3.271-4.867c-.625,4.608,1.493,13.14,1.493,13.14l.669.689c-2.531.028-5.125,1.719-5.051,3.711.095,2.509,6.82,5.688,9.777,5.688a2.021,2.021,0,0,0,1-.2c.176,1.96.34,3.829.487,5.513-5.155,3.995-10.645,6.983-16.057,8.133" transform="translate(1184 1898.531)"/><path class="w" d="M263.765-1006.635c-.147-1.684-.311-3.553-.487-5.513h0c.176,1.96.341,3.831.487,5.513h0" transform="translate(1184 1898.531)"/><path class="ax" d="M263.765-1006.635c-.145-1.683-.311-3.553-.487-5.513a.747.747,0,0,0,.237-.207,3.052,3.052,0,0,0,.255-2.513,31.164,31.164,0,0,0,3.792,5.061c-1.24,1.112-2.508,2.173-3.8,3.172" transform="translate(1184 1898.531)"/><path class="ay" d="M288.441-1038.651c-.412-1.715-.9-3.471-1.489-5.271a10.969,10.969,0,0,1,2.6,1.815,30.023,30.023,0,0,1-1.107,3.456" transform="translate(1184 1898.531)"/><path class="u" d="M266.743-1049.976h0m.049-.029.012-.007-.012.007m.048-.028.02-.011-.02.011m.049-.028.023-.013-.023.013m.049-.028.025-.015-.025.015m.051-.028.027-.016-.027.016m.049-.028.029-.016-.029.016m.051-.028.029-.016-.029.016m.053-.029.027-.013-.027.013m.077-.041.02-.011-.02.011m.021-.012.019-.009-.019.009m.02-.009.02-.011a.094.094,0,0,0-.02.011m.02-.011.06-.031-.06.031m.065-.035.012-.005-.012.005m.023-.011.008,0-.008,0" transform="translate(1184 1898.531)"/><path class="w" d="M267.562-1009.807a31.164,31.164,0,0,1-3.792-5.061c-.009-.036-.017-.071-.027-.107l.592.609c1.724-9.3.62-20.119-5.241-23.177.855-5.415,3.356-9.916,7.649-12.433h0l.048-.028.012-.007.036-.021.02-.011.029-.017.023-.013a.17.17,0,0,0,.027-.015l.025-.015.025-.013.027-.016.023-.012.029-.016.021-.012.029-.016.024-.013.027-.013.051-.028h0l.02-.011s0,0,0,0l.019-.009h0a.1.1,0,0,1,.02-.011h0l.06-.031s0,0,.005,0l.012-.005.011-.005.008,0a17.874,17.874,0,0,1,6.309-1.423,38.192,38.192,0,0,1,11.853,4.065,4.554,4.554,0,0,1,.293.575c.405,1.075.765,2.132,1.105,3.181l.012.005c.585,1.8,1.077,3.556,1.489,5.271-.4,1.056-.879,2.159-1.419,3.3a10.251,10.251,0,0,0-5.663-2.313,2.083,2.083,0,0,0-.26.015l.119,1.676a2.736,2.736,0,0,1,.457-.031,10.722,10.722,0,0,1,4.977,1.416c-.507,1.023-1.063,2.073-1.665,3.14-.111-.015-.223-.023-.336-.027h-.143a2.714,2.714,0,0,0-2.787,1.643,5.843,5.843,0,0,1,1.839-.275c.149,0,.3,0,.445.013a2.785,2.785,0,0,0-.907,1.8,89.925,89.925,0,0,1-15.537,18.488m3.536-18.684a6.144,6.144,0,0,0-.1,2.063c.24,2.236,1.488,4.063,2.787,4.068h.011c1.3,0,2.141-1.807,1.9-4.037a6.039,6.039,0,0,0-1.273-3.233,7,7,0,0,1,.933-.065,5.96,5.96,0,0,1,.8.053h0a3.229,3.229,0,0,0-2.705-1.3,4.689,4.689,0,0,0-1,.113c-2.591.575-3.609,3.84-3.609,3.84a13.6,13.6,0,0,1,2.26-1.5m2.069-8.535a9.056,9.056,0,0,0-5.937,5.473l.191.473a8.5,8.5,0,0,1,6.149-4.273l-.4-1.673" transform="translate(1184 1898.531)"/><path class="az" d="M283.1-1028.295a2.785,2.785,0,0,1,.907-1.8c.063,0,.127.007.189.012q-.528.89-1.1,1.791" transform="translate(1184 1898.531)"/><path class="az" d="M273.793-1022.36h-.011c-1.3-.005-2.547-1.832-2.787-4.068a6.142,6.142,0,0,1,.1-2.063,10.242,10.242,0,0,1,3.324-1.14,6.04,6.04,0,0,1,1.273,3.233c.239,2.231-.607,4.037-1.9,4.037" transform="translate(1184 1898.531)"/><path class="az" d="M268.838-1026.994s1.019-3.265,3.609-3.84a4.7,4.7,0,0,1,1-.113,3.229,3.229,0,0,1,2.705,1.3,5.96,5.96,0,0,0-.8-.053,7.017,7.017,0,0,0-.933.065,10.242,10.242,0,0,0-3.324,1.14,13.593,13.593,0,0,0-2.26,1.5" transform="translate(1184 1898.531)"/><path class="az" d="M281.722-1029.836a2.714,2.714,0,0,1,2.787-1.643h.143c.113,0,.225.012.336.027q-.384.678-.792,1.365c-.063-.005-.127-.009-.189-.012-.148-.009-.3-.013-.445-.013a5.843,5.843,0,0,0-1.839.275" transform="translate(1184 1898.531)"/><path class="ba" d="M267.421-1031.079l-.191-.473a9.057,9.057,0,0,1,5.937-5.473l.4,1.673a8.5,8.5,0,0,0-6.149,4.273" transform="translate(1184 1898.531)"/><path class="ba" d="M286.653-1034.591a10.724,10.724,0,0,0-4.977-1.416,2.749,2.749,0,0,0-.457.031l-.119-1.676a2.107,2.107,0,0,1,.26-.015,10.25,10.25,0,0,1,5.663,2.313c-.121.253-.243.505-.369.763" transform="translate(1184 1898.531)"/><path class="ap" d="M264.335-1014.365l-.592-.609a13.394,13.394,0,0,0-2.725-4.929,4.378,4.378,0,0,0-3.4-1.441h-.065l-.669-.689s-2.119-8.532-1.493-13.14l0,0c.233-1.7.839-2.869,2.067-2.869a2.93,2.93,0,0,1,1.137.268c.173.075.327.177.491.264a.191.191,0,0,0,.005-.029c5.861,3.059,6.965,13.88,5.241,23.177" transform="translate(1184 1898.531)"/><path class="w" d="M262.279-1011.945c-2.957,0-9.683-3.179-9.777-5.688-.075-1.992,2.52-3.683,5.051-3.711h.065a4.378,4.378,0,0,1,3.4,1.441,13.393,13.393,0,0,1,2.725,4.929c.009.036.017.071.027.107a3.052,3.052,0,0,1-.255,2.513.747.747,0,0,1-.237.207h0a2.021,2.021,0,0,1-1,.2m-1.132-1.511a3.937,3.937,0,0,0,1.091.2.631.631,0,0,0,.523-.173c.5-.677-.2-2.123-.923-3.031a9.556,9.556,0,0,0-1.4-2.171,2.844,2.844,0,0,0-2.209-.936c-1.659,0-3.375,1.107-3.325,2.412.06,1.6,4.267,3.619,6.241,3.7" transform="translate(1184 1898.531)"/><path class="ad" d="M261.147-1013.456c-1.975-.077-6.181-2.1-6.241-3.7-.049-1.305,1.667-2.412,3.325-2.412a2.844,2.844,0,0,1,2.209.936,9.556,9.556,0,0,1,1.4,2.171c-.044-.056-.089-.109-.133-.161a1.848,1.848,0,0,0-1.437-.609c-1.079,0-2.195.721-2.163,1.569.031.811,1.7,1.788,3.043,2.2" transform="translate(1184 1898.531)"/><path class="w" d="M262.238-1013.254a3.937,3.937,0,0,1-1.091-.2c-1.343-.415-3.012-1.392-3.043-2.2-.032-.848,1.084-1.569,2.163-1.569a1.849,1.849,0,0,1,1.437.609c.044.052.089.105.133.161.725.908,1.42,2.353.923,3.031a.631.631,0,0,1-.523.173" transform="translate(1184 1898.531)"/><path class="d" d="M253.235-1057.057c-11.355,7.64-4.263,24.473-1.429,27.648,0,0,11.085-19.819,34.167-18.324,0,0-13.817-22.057-32.737-9.324" transform="translate(1184 1898.531)"/><path class="af" d="M264.123-1046.74c7.3,0,13.6-2.936,16.6-7.187-5.693-5.376-15.577-11.147-27.487-3.131a13.485,13.485,0,0,0-4.377,4.737c3.327,3.368,8.921,5.58,15.265,5.58" transform="translate(1184 1898.531)"/><path class="ai" d="M270.442-1050.665c.983-.773.452-3.089-1.187-5.175s-3.764-3.147-4.747-2.373-.452,3.089,1.187,5.173,3.764,3.148,4.747,2.375" transform="translate(1184 1898.531)"/><path class="ag" d="M251.354-1030.135c7.777-16.152,25.951-37.205,39.56-35.564s-4.083,21.272-4.083,21.272c-8.936-2.112-19.213,3.529-34.945,14.989-.136.1-.6-.395-.532-.7" transform="translate(1184 1898.531)"/><path class="ah" d="M251.818-1029.387c7.777-16.152,25.951-37.205,39.56-35.565s-4.083,21.272-4.083,21.272c-9.013-2.129-19.516,2.613-35.477,14.293" transform="translate(1184 1898.531)"/><path class="c" d="M256.045-928.622c.681,2.168,1.629,3.051,2.263,3.2s3.075.984,3.741.459c.683-.537,1.655-4.007.551-4.208s-4.088.557-6.339-1.087c-1.723-1.256-.216,1.636-.216,1.636" transform="translate(1184 1898.531)"/><path class="c" d="M260.122-925.142c1.7.549,6.54,2.461,7.064,2.175s-5.859-3.377-5.859-3.377l-1.205,1.2" transform="translate(1184 1898.531)"/><path class="c" d="M258.583-929.066c2.212-.869,4.993-3.493,5.509-3.307s-3.751,4.116-3.751,4.116l-1.759-.809" transform="translate(1184 1898.531)"/><path class="c" d="M261.265-926.388c1.824.087,7.231.719,7.747.265s-6.727-1.843-6.727-1.843l-1.02,1.577" transform="translate(1184 1898.531)"/><path class="c" d="M260.406-927.12c1.651-.569,6.848-1.947,7.227-2.607.388-.676-6.7.693-6.7.693l-.527,1.913" transform="translate(1184 1898.531)"/><path class="c" d="M330.409-981.512c-.711.347-2.937.745-3.275.123s2.767-1.435,2.767-1.435l.508,1.312" transform="translate(1184 1898.531)"/><path class="c" d="M331.37-980.3c-.624.485-2.724,1.329-3.181.788s2.419-1.969,2.419-1.969l.763,1.181" transform="translate(1184 1898.531)"/><path class="c" d="M332.479-978.783c-.624.485-2.724,1.329-3.181.788s2.419-1.969,2.419-1.969l.763,1.181" transform="translate(1184 1898.531)"/></g></svg>