<svg xmlns="http://www.w3.org/2000/svg" width="169.628" height="61.155" viewBox="0 0 169.628 61.155"><defs><style>.a{fill:rgba(0,0,0,0.8);}</style></defs><g transform="translate(8905.894 -4231.764)"><g transform="translate(-8828.317 4259.609)"><path class="a" d="M-5.821-8.214a8.208,8.208,0,0,0,.487,2.658A4.091,4.091,0,0,0-3.762-3.4a4.28,4.28,0,0,0,2.446.731A4.5,4.5,0,0,0,1.8-3.85,4.7,4.7,0,0,0,3.108-7.524a6.4,6.4,0,0,0-1.2-3.795A3.914,3.914,0,0,0-1.479-13,4.279,4.279,0,0,0-4.573-11.8,4.764,4.764,0,0,0-5.821-8.214M.125,5.4q-3.268,0-3.765.081a4.124,4.124,0,0,0-1.41.69A4.648,4.648,0,0,0-6.542,7.828a4.759,4.759,0,0,0-.578,2.344,4.66,4.66,0,0,0,1.7,3.733A6.809,6.809,0,0,0-.87,15.346a8.759,8.759,0,0,0,3.937-.892,6.063,6.063,0,0,0,2.668-2.395A5.79,5.79,0,0,0,6.6,9.178a3.893,3.893,0,0,0-.72-2.364,2.907,2.907,0,0,0-1.867-1.2A24.254,24.254,0,0,0,.125,5.4M10.677-12.921l.162.365q-.832,1.278-1.035,1.664H6.03A5.081,5.081,0,0,1,6.6-8.559a6.342,6.342,0,0,1-.66,2.8A6.718,6.718,0,0,1,4.1-3.445,9.643,9.643,0,0,1,1.433-1.923a9.487,9.487,0,0,1-3.4.569H-2.9A9.55,9.55,0,0,0-4.441.066a1.59,1.59,0,0,0-.345.954,1.278,1.278,0,0,0,.822,1.258,10.023,10.023,0,0,0,3.4.365L3.98,2.582a8.442,8.442,0,0,1,3.3.507A3.94,3.94,0,0,1,9.135,4.906a5.724,5.724,0,0,1,.711,2.77A8.091,8.091,0,0,1,8.394,12.13,9.04,9.04,0,0,1,4.2,15.509a14.869,14.869,0,0,1-5.844,1.157,13.738,13.738,0,0,1-3.318-.386,8.56,8.56,0,0,1-2.719-1.167,5.918,5.918,0,0,1-1.877-2.039,5.256,5.256,0,0,1-.71-2.618,6,6,0,0,1,.223-1.573A6.284,6.284,0,0,1-9.19,7.108l3.673-2.05A5.178,5.178,0,0,1-7.739,3.972,1.922,1.922,0,0,1-8.2,2.684,4.353,4.353,0,0,1-7.688.857L-4.421-1.5A6.42,6.42,0,0,1-8.307-3.749a5.79,5.79,0,0,1-1-3.287A7.2,7.2,0,0,1-8.6-10.172,5.6,5.6,0,0,1-6.46-12.556a12.751,12.751,0,0,1,3.206-1.411,11.675,11.675,0,0,1,3.237-.517,8.162,8.162,0,0,1,4.83,1.643q3.673,0,5.865-.081" transform="translate(10.265 14.484)"/></g><g transform="translate(-8805.772 4259.771)"><path class="a" d="M-8.772,0l.386.264Q-8.61,2.923-8.61,7.021v4.586q0,.447.081,2.872a26.379,26.379,0,0,0,.173,2.831,1.19,1.19,0,0,0,.274.589.838.838,0,0,0,.447.233q.263.051,2.192.173l.182.162v.853l-.162.182q-2.537-.162-4.891-.162-2.333,0-4.87.162l-.183-.182v-.853l.183-.162q1.968-.122,2.222-.182a.928.928,0,0,0,.447-.254,1.087,1.087,0,0,0,.264-.588q.071-.4.162-2.618T-12,11.3v-4q0-.81-.081-2.212t-.132-1.725a.633.633,0,0,0-.315-.477,2.406,2.406,0,0,0-1.055-.152l-1.7-.02-.183-.162V1.684l.163-.162A26.435,26.435,0,0,0-8.772,0" transform="translate(15.469)"/></g><g transform="translate(-8793.658 4249.057)"><path class="a" d="M-8.772,0l.386.244Q-8.61,2.577-8.61,9.6V22.322q0,.447.081,2.871a26.41,26.41,0,0,0,.173,2.831,1.187,1.187,0,0,0,.274.588.839.839,0,0,0,.447.234q.263.05,2.192.172l.182.163v.852l-.162.183q-2.537-.163-4.891-.163-2.333,0-4.87.163l-.183-.183v-.852l.183-.163q1.968-.121,2.222-.182a.927.927,0,0,0,.447-.253,1.089,1.089,0,0,0,.264-.589q.071-.4.162-2.618T-12,22.018V11.506l-.081-4.3q-.061-2.252-.132-3.125A2.783,2.783,0,0,0-12.4,3.044a.758.758,0,0,0-.426-.243,18.338,18.338,0,0,0-2.456-.081l-.183-.182V1.684l.163-.182A25.881,25.881,0,0,0-8.772,0" transform="translate(15.469)"/></g><g transform="translate(-8782.131 4260.197)"><path class="a" d="M-21.186-12.015l-1.989,4.363L-27.862,3.306A33.393,33.393,0,0,1-29.375,6.35a5.771,5.771,0,0,1-2.212,2.344,5.659,5.659,0,0,1-2.77.72,4.684,4.684,0,0,1-2.415-.67,22.685,22.685,0,0,0,1.035-3.125h.487A2.911,2.911,0,0,0-33.1,6.695a3.082,3.082,0,0,0,2.506-1.43,33.3,33.3,0,0,0,3.014-6.322q-.771-2.171-1.563-4.1l-3.227-8q-.507-1.236-1.5-3.541a21.958,21.958,0,0,0-1.187-2.536,2.278,2.278,0,0,0-.5-.436,5.129,5.129,0,0,0-1.643-.386l-.163-.162v-.812l.183-.163q2.333.142,4.789.142,2.881,0,4.444-.142l.162.163v.812l-.142.162q-.223.021-1.248.091a2.26,2.26,0,0,0-1.279.325.8.8,0,0,0-.253.578,12.7,12.7,0,0,0,.629,2.243q.629,1.9,1.217,3.358l1.279,3.165q1.258,3.126,1.948,4.607l1.075-2.375" transform="translate(37.36 21.188)"/></g><g transform="translate(-8771.211 4246.542)"><path class="a" d="M-32.533-7.023a4.628,4.628,0,0,0-.7,3.574,1.57,1.57,0,0,1-.594,1.8C-35.34-.459-35.554,1.33-35.71,3.105c-.1,1.149-.208,2.3-.3,3.449a1.341,1.341,0,0,1-1.361,1.325,29.033,29.033,0,0,1-3.093.165c-6.529-.089-9.142,4.435-9.462,9.348a21.672,21.672,0,0,0,3.794,13.247c.095.149.182.3.343.574a6.164,6.164,0,0,1-3.4-1.029,11.683,11.683,0,0,1-5.409-8.173,13.176,13.176,0,0,1,2.206-10.733,20.153,20.153,0,0,1,5.047-4.282c2.6-1.794,5.252-3.562,7.123-6.178C-38.263-1.912-37.3-4.87-38.8-8.15c-2.075-4.527-8.309-5.687-11.613-2.19a6.243,6.243,0,0,0-.019,8.3A4.157,4.157,0,0,0-48.4-.992c.921.188,1.367-.488.991-1.363A12.359,12.359,0,0,0-48.363-4c-1.075-1.707-1.081-3,0-4.161a4,4,0,0,1,4.822-.894A5.274,5.274,0,0,1-41.3-2.526,11.862,11.862,0,0,1-45.491,2.3c-1.856,1.367-3.794,2.625-5.688,3.939-4.746,3.293-6.6,7.9-6.116,13.547a17.439,17.439,0,0,0,3.009,8.851,11.421,11.421,0,0,0,9.005,4.968c2.79.167,5.585.269,8.378.379a3.385,3.385,0,0,0,1.348-.141c.421-.168,1.1-.589,1.064-.816a3.416,3.416,0,0,0-.827-1.367c-.085-.111-.337-.1-.416-.114l1.778-3.717c.282,1.166.548,2.691,1.032,4.144a2.142,2.142,0,0,0,2.809,1.5c.326-.1.791-.433.806-.682a1.2,1.2,0,0,0-.539-1c-1.486-.426-1.49-1.561-1.466-2.742.027-1.336.018-2.675.1-4.008a12.5,12.5,0,0,1,2.931-7.118,10.849,10.849,0,0,0,2.312-6.4,6.948,6.948,0,0,0-.889-3.378,20.583,20.583,0,0,1-1.059-2.969c-.155-.528.051-.916.708-1,.535-.072,1.042-.338,1.577-.423C-24.1,3.507-23.405,2.3-22.7,1.17c.568-.906.219-1.624-.734-2.122a3.072,3.072,0,0,1-1.206-.928,4.547,4.547,0,0,0-3.888-2.166,3.982,3.982,0,0,1-2.912-1.629c-.358-.411-.688-.845-1.094-1.347" transform="translate(57.369 12.384)"/></g><g transform="translate(-8809.656 4241.075)"><path class="a" d="M-17.364-8.882a4.457,4.457,0,0,0,.6-.287c.124-.083.289-.24.279-.35s-.207-.213-.332-.3a1.325,1.325,0,0,0-.262-.111c1.83-.706,2.012-.844,1.758-1.337.147-.116.3-.225.44-.353s.234-.254.37-.4l-.365-.311c.623-.417,1.23-.826,1.84-1.229.124-.083.262-.143.394-.213L-12.768-14a6.563,6.563,0,0,0-.885.006,19.816,19.816,0,0,0-4.86,1.355,2.728,2.728,0,0,1-.559.1l-.049-.118a7.2,7.2,0,0,0,.719-.683c.181-.223.593-.408.279-.8l1.219-1.38-.122-.136a17.389,17.389,0,0,0-5.986,4.278c-.305-.2-.587-.413-.894-.577a5.981,5.981,0,0,0-1.162-.531,2.153,2.153,0,0,0-2.328.823,2.168,2.168,0,0,1-.74.51c-.635.282-1.292.514-1.935.779a2.1,2.1,0,0,0-.548.347c.485-.152.97-.307,1.457-.455a2.048,2.048,0,0,1,.475-.107c.482-.024,1.086-.215,1.422,0A4.121,4.121,0,0,1-25.8-9.043a11.224,11.224,0,0,0,3.609,4.531,10.439,10.439,0,0,0-.565,1.163A9.2,9.2,0,0,0-22.944-2.3c-.055.249-.156.488-.257.794l.412-.039c.044.263.087.517.13.772l.455-.209c-.016.2-.215.543.253.52.009.037.012.051.015.066q.074.347.148.7c.211-.162.5-.28.619-.493a9.163,9.163,0,0,0,.856-7.333c.3-.018.59-.029.877-.054a1.967,1.967,0,0,0,1.443-.567c.065-.076.212-.081.322-.115.457-.144.5-.226.307-.623" transform="translate(30.62 15.663)"/></g><g transform="translate(-8856.867 4258.96)"><path class="a" d="M-4.356-4.833l.1.1H15.4l.072-.109c-.672-.7-1.339-1.409-2.025-2.1A.688.688,0,0,0,13-7.082q-7.445-.011-14.891,0a.629.629,0,0,0-.414.121c-.692.7-1.366,1.417-2.046,2.129M2,3.976c-.1.25-.189.5-.287.75A16.681,16.681,0,0,1,.532,7.632,6.024,6.024,0,0,0-.5,11.56,1.577,1.577,0,0,0,.518,13.119a12.362,12.362,0,0,0,7.548.806A12.054,12.054,0,0,0,16.088-3.716a.593.593,0,0,0-.6-.358q-9.924.017-19.85,0a.576.576,0,0,0-.606.344A11.954,11.954,0,0,0-4.245,9.149a2.661,2.661,0,0,0,.209.242A1.263,1.263,0,0,0-4,8.239a9.445,9.445,0,0,1-.349-1.5,6.047,6.047,0,0,1,.619-2.869C-3.043,1.778-1.482.212-.366-1.625a7.134,7.134,0,0,1-.326.987,14.716,14.716,0,0,1-1.2,2.849A6.691,6.691,0,0,0-2.83,6.839L-.993,3.746c.016.089.034.123.025.147A27.656,27.656,0,0,1-2.584,8.383a.557.557,0,0,0,.037.514,13.2,13.2,0,0,0,1,.918A26.272,26.272,0,0,1,2,3.976m3.567-12.5h7.977c.849,0,.873.023,1.122.84a.678.678,0,0,0,.185.251,12.894,12.894,0,0,1,3.78,7.348,12.948,12.948,0,0,1-2.807,10.447,12.743,12.743,0,0,1-8.071,4.7A12.886,12.886,0,0,1-2.753,12.316a12.636,12.636,0,0,1-4.77-8.273A13.039,13.039,0,0,1-3.853-7.321a1.387,1.387,0,0,0,.313-.611c.115-.472.446-.584.857-.586.84-.006,1.681,0,2.521,0Z" transform="translate(7.681 8.522)"/></g><g transform="translate(-8845.95 4265.778)"><path class="a" d="M-2.289-4.16h-.2c-.114.18-.319.361-.313.537,0,.151.278.434.38.412a.67.67,0,0,0,.462-.412c.022-.161-.211-.357-.331-.537M2.387-5.15l2.5,1.49A3.05,3.05,0,0,1,5.93-5.611a2.882,2.882,0,0,1,2.158-.672c.4,1.336-.79,2.907-2.44,3.231,1.864.705,2.685,1.763,2.484,3.2C6.7.5,5.553-.418,4.854-2.454L3.149-1.261c.107.339.22.7.372,1.176A4.326,4.326,0,0,1,2.294-.2,17.459,17.459,0,0,0-.993-1,5.372,5.372,0,0,1-4.037-3.046,5.7,5.7,0,0,1-1.207-5a1.673,1.673,0,0,0,.868-.582A4.329,4.329,0,0,1,2.9-7.332c.179-.01.359,0,.56,0A4.013,4.013,0,0,1,2.387-5.15" transform="translate(4.037 7.337)"/></g><g transform="translate(-8846.809 4274.459)"><path class="a" d="M-2.748-3.085-1.2-4.006l-.748-1.43A3.018,3.018,0,0,1,.576-4.371a1.58,1.58,0,0,0,.6.43,3.942,3.942,0,0,1,1.8,1.255A3.814,3.814,0,0,1,.528-1.259c-.41.077-.814.188-1.221.279-.365.081-.731.155-1.19.252l.241-.817-1.094-.768A1.826,1.826,0,0,1-4.784-.635c-.2-.859.388-1.679,1.506-2.04a1.938,1.938,0,0,1-1.569-2,1.754,1.754,0,0,1,2.1,1.594" transform="translate(4.847 5.44)"/></g><g transform="translate(-8844.548 4269.087)"><path class="a" d="M-.316,0c.136.19.267.3.276.414.006.074-.184.244-.253.228A.416.416,0,0,1-.555.373C-.573.291-.436.177-.316,0" transform="translate(0.557)"/></g><g transform="translate(-8896.496 4231.764)"><path class="a" d="M-17.424-.527a30.134,30.134,0,0,0-13.3.788A22.62,22.62,0,0,1-27.1,5.53a24.22,24.22,0,0,1,8.7-.152A24.274,24.274,0,0,1,1.634,33.26,24.274,24.274,0,0,1-26.248,53.286c-.6-.1-1.184-.225-1.765-.364a54.41,54.41,0,0,1-2.672,5.483,30.619,30.619,0,0,0,3.469.786A30.258,30.258,0,0,0,7.54,34.228,30.259,30.259,0,0,0-17.424-.527" transform="translate(30.725 0.93)"/></g><g transform="translate(-8905.894 4242.293)"><path class="a" d="M-17.4-52.591a.744.744,0,0,0-.241.86,6.627,6.627,0,0,0,.488,1.014c.255.429.556.832.823,1.255a2.831,2.831,0,0,1,.271.573.706.706,0,0,1-.342.929,2.13,2.13,0,0,1-.6.251,4.589,4.589,0,0,0-1.255.5,3.89,3.89,0,0,1-1.254.427,6.637,6.637,0,0,0-1.441.4,3.426,3.426,0,0,1-2.426-.021,4.416,4.416,0,0,0-.467-.154,3,3,0,0,0-.494-.025.882.882,0,0,1-.73-.373c-.142.05-.3.155-.355.115-.141-.1,0-.228.042-.343.009-.025.042-.058.035-.072-.126-.249.111-.311.225-.433a1.46,1.46,0,0,1,.165-.121,1.616,1.616,0,0,1,1.684-.323,1.528,1.528,0,0,0,.851.032c.719-.142,1.434-.293,2.155-.419a.77.77,0,0,0,.553-.976,2,2,0,0,0-.877-1.152,3.711,3.711,0,0,1-.831-.92c-.234-.294-.411-.636-.66-.913a2.154,2.154,0,0,1-.522-1.808c.053-.434.075-.873.111-1.309a2.173,2.173,0,0,1,.454-1.171c.159-.2.316-.414.491-.606a4.144,4.144,0,0,0,1-2.361c.033-.258.061-.517.1-.774a1.3,1.3,0,0,0-.087-.734,19.135,19.135,0,0,1-.982-3.28c-.214-.968-.355-1.953-.59-2.915-.282-1.156-.629-2.3-.95-3.441A21.366,21.366,0,0,1-23.646-73a20.075,20.075,0,0,1-.193-2.366,6.325,6.325,0,0,1,.084-.9.3.3,0,0,0-.013-.157,30.74,30.74,0,0,1-1.284-3.4c-.106-.287-.233-.566-.35-.85a2.67,2.67,0,0,1-1.767-.02c-.487-.156-.981-.3-1.456-.484a2.452,2.452,0,0,1-.52-.388c-.059-.044-.119-.087-.181-.126a6.034,6.034,0,0,1-.686-.444,1.311,1.311,0,0,1-.489-1.213l-.191-.124a.948.948,0,0,1,.186-.169,4.945,4.945,0,0,1,2.21-.447,7.723,7.723,0,0,1,3.277.9,2.194,2.194,0,0,0,.627.14c.734.091,1.47.154,2.2.259a2.964,2.964,0,0,1,1.659.837c.229-.166.461-.331.69-.5a1.509,1.509,0,0,1,1.157-.429.2.2,0,0,0,.14-.062,3,3,0,0,1,1.36-.743.445.445,0,0,1,.317.031.235.235,0,0,0,.324-.052.319.319,0,0,1,.065-.05.947.947,0,0,0,.526-.82.3.3,0,0,1,.027-.119,1.319,1.319,0,0,0-.024-1.089.827.827,0,0,0-.556-.577c-.1-.036-.2-.076-.308-.114a1.37,1.37,0,0,1-.786-.843,1.176,1.176,0,0,0-.338-.494,2.329,2.329,0,0,1-.925-1.564c-.068-.361-.161-.717-.238-1.077a.492.492,0,0,1,.006-.164,3.929,3.929,0,0,0,.156-1.1,1.044,1.044,0,0,1,.157-.523.682.682,0,0,1,1-.408c.552.219,1.086.484,1.636.707.456.186.923.344,1.387.51a1.15,1.15,0,0,0,1.16-.29,1.446,1.446,0,0,1,1.138-.372,4.7,4.7,0,0,1,1.9.464,9.055,9.055,0,0,1,2.315,1.971,2.143,2.143,0,0,1,.467.925c.073.347.189.686.276,1.03a2.13,2.13,0,0,1-.009,1.069,10.32,10.32,0,0,0-.163,1.382c-.014.129-.025.259-.05.387a.732.732,0,0,1-.689.677.3.3,0,0,0-.277.236,25.405,25.405,0,0,1-2.148,4.168.8.8,0,0,0-.1.549,4.865,4.865,0,0,1,.033,1.284c-.173,1.213-.424,2.416-.6,3.63-.154,1.083-.236,2.176-.365,3.263a12.831,12.831,0,0,0,.24,3c.335,2.9.7,5.8,1.056,8.694a1.636,1.636,0,0,0,1.143,1.348,6.522,6.522,0,0,0,5.485-.956,4.476,4.476,0,0,0,.588-.541c.249-.244.489-.5.74-.741a.391.391,0,0,1,.462-.129.362.362,0,0,1,.183.421,2.784,2.784,0,0,1-.2.745,5.385,5.385,0,0,1-2.121,2.465,8.1,8.1,0,0,1-2.358.816,7.2,7.2,0,0,1-2.935-.01c-.443-.092-.885-.187-1.329-.275-.263-.052-.289-.036-.348.233-.084.381-.173.763-.229,1.149a3.278,3.278,0,0,1-.451,1.244,5.973,5.973,0,0,0-.827,3.117,3.056,3.056,0,0,0,.518,1.559,12.265,12.265,0,0,1,.588,1.1,1.04,1.04,0,0,1-.2,1.184,12.885,12.885,0,0,0-1.586,2.363,1.638,1.638,0,0,1-.252.371.513.513,0,0,1-.3.135c-.139.012-.283-.091-.421.041-.018.018-.134-.028-.173-.072a.244.244,0,0,0-.289-.063A.959.959,0,0,1-15.745-44c-.021-.016-.056-.05-.065-.045-.22.144-.39-.084-.592-.079a.512.512,0,0,1-.238-.051.413.413,0,0,0-.382-.031c-.148.062-.227-.023-.179-.181.111-.372.218-.747.357-1.109a.617.617,0,0,1,.874-.432.532.532,0,0,0,.563-.13,8.968,8.968,0,0,0,.784-.753.752.752,0,0,0,.2-.821.444.444,0,0,1-.044-.179,1.524,1.524,0,0,0-.48-.966,11.2,11.2,0,0,1-.808-1.132c-.487-.779-.948-1.572-1.422-2.358-.063-.1-.14-.2-.225-.322" transform="translate(30.692 92.74)"/></g></g></svg>