<svg xmlns="http://www.w3.org/2000/svg" width="167.314" height="205.495" viewBox="0 0 167.314 205.495"><defs><style>.a{fill:#d2d2d2;}</style></defs><path class="a" d="M462.433,98.876c-1.4.152-4.093-.526-6.053-1.033-1.961-.525-3.548-.937-3.548-.937a11.5,11.5,0,0,0-8.692,1.511c-2.371,1.511-4.312,5.488-5.9,7.468a17.494,17.494,0,0,1-3.309,3.194C421.085,119.292,409.7,102.6,409.7,102.6q-2.352-3.586-4.484-7.344c-.976-1.741-1.951-3.472-2.869-5.25-3.576-6.952-6.426-14.229-5.326-22.166.517-3.662,1.291-7.229.89-10.93a41.448,41.448,0,0,0-3.691-12.049c-1.482-3.347-3.271-6.589-4.973-9.84a97.3,97.3,0,0,0-6.254-10.194c-4.38-5.938-7.535-19.325-7.535-19.325a21.7,21.7,0,0,0-1.262-4.017c-.947-2.113-4.954-2.037-5.613.688-.211.842-.383,1.74-.517,2.63-.421,2.782-2.64,6.368-3.309,9.094a18.527,18.527,0,0,0-.315,5.585c.2,2.8-1.588,5.957-2.85,8.463-1.54,3.079-1.1,7.152-.354,10.289a37.319,37.319,0,0,1,.354,9.744,26.239,26.239,0,0,0,1.491,9.878,34.986,34.986,0,0,1,1.243,9.716c-.076,6.856,3.2,13.3,5.776,17.3,1.511,2.353.028,4.256-1.023,6.856s.966,6.35,2.964,9.151c1.636,2.295,1.511,2.372-1.052,1.253a92.675,92.675,0,0,0-9.113-3.137c-5.059-1.7-10.155-3.213-15.137-5.115-7.517-2.859-15.473-6.445-21.745-11.619-1.951-1.74-22.692-19.928-25.283-15.539-2.678,4.542,1.386,9.9,4.79,13.264,2,1.979.823,4.762,2.181,7.21,1.081,1.979,3.758,4.217,6.11,5.938,2.267,1.664,3.232,5.192,5.116,7.286a30.833,30.833,0,0,0,6.139,4.781c2.372,1.511,3.634,5.04,5.308,7.306,2.275,3.079,7.324,5.757,11.093,7.431,2.562,1.138,4.283,2.8,4.14,4.016s2.143,3.682,4.753,4.686a91.463,91.463,0,0,0,14.727,3.663c2.754.487,3.863,2.878,5.049,5.059a11.73,11.73,0,0,0,2.965,3.347c6.158,4.073,19.746,4.017,27.167,3.644,2.8-.153,3.634,1.4,1.8,3.528-6.368,7.392-13.272,14.344-19.908,21.478-3.156,3.4-6.283,6.817-9.324,10.327-1.874,2.189-4.59,4.686-5.967,7.191a20.63,20.63,0,0,0-1.425,3.136,16.233,16.233,0,0,0-.946,5.977c.182,1.607,3,.728,3.911.861s-.956,2.295-1.033,3.72a2.321,2.321,0,0,0,1.09,2.189,9.722,9.722,0,0,0,3.108.584c1.76.1,2.658.354,2.658,1.061a1.12,1.12,0,0,0,.727.976,2.393,2.393,0,0,0,2.181-.469c1.08-.669,2.333-.372,3.538-.563a21.446,21.446,0,0,0,3.939-1.606c1.052-.431,1.951.258,2.7,1.2s3.969,1.74,5.69.057,2.954-5.8,3.815-8.463c1.166-3.528,2.447-6.855,2.447-6.855,2.391-6.168,5.154-12.145,6.369-18.6a7.539,7.539,0,0,1,5.594-5.938c2.735-.507,5.709-1.042,6.3-1.2,4.112-.956,8.281-2.036,11.915-4.236a80.681,80.681,0,0,0,21.994-20.4c2.82-3.844,7.344-10.93,6.474-16.064a56.169,56.169,0,0,1-.87-8.387c-.038-2.8,1.339-7.248,3.433-9.113.249-.22.526-.449.794-.669,2.189-1.76,5.154-3.347,5.813-4.408S463.81,98.7,462.433,98.876Z" transform="translate(-298.841 0.001)"/></svg>