<svg xmlns="http://www.w3.org/2000/svg" width="412.18" height="499.774" viewBox="0 0 412.18 499.774"><defs><style>.a{fill:#d3d3d3;}</style></defs><path class="a" d="M52.97,187.415c34.959,0,72.132,29.2,72.132,83.3,0,27.453-10.385,47.057-20.428,66.031-10.687,20.194-20.79,39.268-20.79,69.325,0,49.05,23.588,72.884,72.132,72.884h11.506a72.953,72.953,0,0,1-21.81-52.06V385.243c0-53.5,30.612-80.673,52.952-100.5,4.327-3.844,8.393-7.443,11.895-10.981,5.133-5.186,12.016-11.409,19.522-18.18,18.556-16.717,49.59-44.7,49.59-57.754V93.708c0-30.016,22.36-44.312,32.786-49.335C316.782,31.622,330.689,0,362.1,0a10.353,10.353,0,0,1,10.3,10.412c0,16.126,7.084,31.236,10.3,31.236,14.873,0,23.769,13.483,30.914,24.342,2.636,3.986,5.133,7.768,7.286,9.945,2.536,2.562,6.259,5.145,10.1,7.89,11.17,7.992,23.829,17.062,23.829,30.707,0,37.926-44.237,52.059-72.132,52.059a49.626,49.626,0,0,0-8.312.468h-.02c-1.993,2.928-1.993,18.18-1.973,35.831v5.348c0,5.084,1.811,8.359,5.6,14.723,6.34,10.677,15.014,25.278,15.014,58.16,0,21.942-15.8,55.314-20.609,64.973V437.3h10.3a31.11,31.11,0,0,1,30.914,31.236v20.824a10.354,10.354,0,0,1-10.306,10.412H156.015c-59.815,0-92.741-33.269-92.741-93.708,0-35.262,12.337-58.588,23.226-79.147,9.66-18.242,17.993-33.982,17.993-56.208,0-45.837-30.813-62.472-51.522-62.472a10.413,10.413,0,0,1,0-20.825Z" transform="translate(-42.666)"/></svg>