<svg xmlns="http://www.w3.org/2000/svg" width="464.956" height="450" viewBox="0 0 464.956 450"><defs><style>.a{fill:#d2d2d2;}</style></defs><path class="a" d="M464.929,361.958l-7.061-4.091c-.448-.259-44.676-26.324-44.676-63.995V272.347a94.6,94.6,0,0,0-12.215-46.756c15.885-8.826,26.745-26.4,26.745-46.612H400.479c0,11.6-7.862,21.289-18.26,23.474a84.26,84.26,0,0,0-40.8-19.769l-151.6-27.245A41.259,41.259,0,0,1,159.88,131.7L104.81,21H82.639V72.882L46.314,82.457V92.588L0,111.737v15.743L27.05,156H82.639v49.518c0,37.536,16.842,72.1,45.406,93.955v142.8H100.8V471h54.487V447.454L188.1,320.782c3.433-.453,130.367-25.556,130.367-25.556a149.05,149.05,0,0,0,33.319,55.734c23.339,24.606,53.454,39.5,85.931,42.76v48.557H410.469V471h54.487V370.468Z" transform="translate(0 -21)"/></svg>