<svg xmlns="http://www.w3.org/2000/svg" width="179.969" height="157.547" viewBox="0 0 179.969 157.547"><defs><style>.a{fill:#d2d2d2;}</style></defs><g transform="translate(-1091.398 -1516.26)"><g transform="translate(1091.398 1516.26)"><g transform="translate(0 0)"><path class="a" d="M37.673,72.319c10.995-9.3,30.662-9.723,30.662-9.723A45.036,45.036,0,0,0,64.661,79.5,84.076,84.076,0,0,1,82.683,94.209s9-10.943,21.157-9.727a24.722,24.722,0,0,1-5.35,17.752,24.722,24.722,0,0,1,5.35,17.752c-12.159,1.216-21.157-9.727-21.157-9.727-8.542,8.986-16.983,14.858-25.04,18.251a51.475,51.475,0,0,1-.008,12.633,29.108,29.108,0,0,1-16.583-8.927C21.4,132.667,5.923,118.668,0,102.234,5.58,86.755,19.636,73.436,37.673,72.319ZM23.753,96.188a3.627,3.627,0,1,0-3.627-3.627A3.627,3.627,0,0,0,23.753,96.188Z" transform="translate(-0.001 -62.596)"/></g></g><g transform="translate(1167.398 1595.26)"><g transform="translate(0 0)"><path class="a" d="M37.673,72.319c10.995-9.3,30.662-9.723,30.662-9.723A45.036,45.036,0,0,0,64.661,79.5,84.076,84.076,0,0,1,82.683,94.209s9-10.943,21.157-9.727a24.722,24.722,0,0,1-5.35,17.752,24.722,24.722,0,0,1,5.35,17.752c-12.159,1.216-21.157-9.727-21.157-9.727-8.542,8.986-16.983,14.858-25.04,18.251a51.475,51.475,0,0,1-.008,12.633,29.108,29.108,0,0,1-16.583-8.927C21.4,132.667,5.923,118.668,0,102.234,5.58,86.755,19.636,73.436,37.673,72.319ZM23.753,96.188a3.627,3.627,0,1,0-3.627-3.627A3.627,3.627,0,0,0,23.753,96.188Z" transform="translate(-0.001 -62.596)"/></g></g></g></svg>