<svg xmlns="http://www.w3.org/2000/svg" width="188.483" height="110.423" viewBox="0 0 188.483 110.423"><defs><style>.a{fill:#d2d2d2;}.b{fill:#ebebeb;}</style></defs><g transform="translate(-1226.398 -1845.26)"><path class="a" d="M48.731,60.272S67.064,24.353,75.1,61.9c11.385,5.794,29.644-3.088,51.448-1.54,7.512.535,61.918-.687,61.936,47.559.018,30.829-20.572,46.666-33.761,47.233-3.045.124-14.87,0-15.633-.041-4.05-.187-8.437-.377-8.488-2.505-.1-4.469,17.173-6.3,18.528-7.266s1.346-6.889-6.562-4.766c-13.7,3.861-37.178,1.355-42.58-.187s-8.944,6.428-12.03,10.677a9.958,9.958,0,0,1-7.91,4.049H59.588c-4.049,0-2.7-4.541,6.177-6.469s3.943-6.419,0-10.314c-3.631-3.587-12.839-13.137-19.678-14.282C.74,116.326,1.358,88.343,1.939,84.1-10.308,72.555,39.084,60.858,48.731,60.272Z" transform="translate(1226.398 1800.482)"/><circle class="b" cx="5" cy="5" r="5" transform="translate(1261.398 1876)"/></g></svg>