<svg xmlns="http://www.w3.org/2000/svg" width="158.994" height="188.211" viewBox="0 0 158.994 188.211"><defs><style>.a{fill:#d2d2d2;}</style></defs><g transform="translate(-45.238 0)"><g transform="translate(45.238 0)"><path class="a" d="M200.741,76.145c-2.037-4.893-3.828-9.873-6.054-14.706-1.927-4.187-5.161-6.68-8.809-8.811a45.627,45.627,0,0,0-6.64-2.862,1.641,1.641,0,0,1-.971-1.781c.364-1.822.768-3.748,1.029-5.692a25.808,25.808,0,0,0-.152-3.634c-.02-1.647,0-3.295.063-4.94a28.966,28.966,0,0,0-1.3-8.271c-.439-1.751-.118-3.706-.633-5.421-.533-1.783.1-3.943-1.6-5.365a.216.216,0,0,1-.054-.165c.273-2.769-1.771-4.706-2.7-7.011A9.853,9.853,0,0,0,167.785,1.8,17.857,17.857,0,0,1,165.047.191a.98.98,0,0,0-1.532.537,60.944,60.944,0,0,0-2.138,6.76c-.48,2.211-1.65,4.213-1.291,6.748.258,1.814-.867,3.8-1.253,5.736-.2,1.024-.311,2.066-.42,3.116-.075.723-.535.867-.988.3a14.593,14.593,0,0,0-3.352-3.553c-2.253-1.387-3.927-3.451-6.134-4.761a60.485,60.485,0,0,0-10.7-5.475,58.589,58.589,0,0,0-11.7-2.275,8.47,8.47,0,0,0-3.393.662A1.03,1.03,0,0,0,121.49,9.5c1.16,2.231,2.2,4.313,3.376,6.317q2.919,4.978,6.075,9.816c1.2,1.825,2.645,3.48,3.95,5.235,1.341,1.806,2.579,3.693,3.985,5.446.974,1.213,2.178,2.24,3.234,3.389,1.164,1.268,2.357,2.519,3.4,3.884,2.855,3.739,3.964,8.131,4.558,12.7a1.564,1.564,0,0,0,.128.514c1.5,2.872-.076,4.708-2.108,6.437-.286.244-.31.789-.469,1.19a8.138,8.138,0,0,1-.859,2.021c-1.348,1.722-1.6,3.711-1.767,5.783-.1,1.284-.485,2.542-.668,3.824a2.118,2.118,0,0,0,.017.614,4.344,4.344,0,0,1-.474,1.785c-1.121,2.465-1.9,5.175-4.218,6.836-.592.424-.759.62-.294.565a2.089,2.089,0,0,1,.867-.007,4.739,4.739,0,0,1-1.21.553l-.311.116c-.682.254-.92.545-.531.651s.149.387-.538.631l-1.8.638c-.686.242-.98.571-.657.731s.079.418-.543.574-1.057.444-.97.639-.422.466-1.133.617a33.637,33.637,0,0,1-3.863.668,3.68,3.68,0,0,1-1.317-.154A10.372,10.372,0,0,0,124.816,91a108.85,108.85,0,0,0-14.458,1.985c-.714.139-1.879.316-2.6.391l-3.121.322c-.723.075-1.217.222-1.1.33s-.352.382-1.042.613l-9.656,3.228c-.69.231-1.065.52-.834.647s-.129.453-.814.7a19.385,19.385,0,0,0-5.1,2.278c-1.554,1.165-3.282,2.092-4.815,3.321-1.727,1.383-4.131,1.919-6.242,2.824-.2.086-.4.171-.664.286-.368.158-.373.417-.011.58s.182.645-.4,1.08l-3.79,2.82c-.584.435-.883.887-.668,1.01s-.128.507-.766.858c-.429.236-.852.468-1.273.7-.638.35-1.125.693-1.09.765a1.8,1.8,0,0,0,.947-.028c.486-.088.455.249-.071.751-2.319,2.213-4.561,4.356-6.811,6.492-.232.22-.478.424-.787.678-.444.365-.325.532.261.37s.734.2.337.81c-1.121,1.718-2.209,3.416-3.375,5.059-.748,1.053-1.7,1.96-2.551,2.943a.208.208,0,0,0-.009.157c.015.088.257.116.543.063s.17.381-.258.97c-.71.974-1.4,1.926-2.157,2.96-.428.587-.306.813.273.5s.813-.02.5.639c-1.142,2.428-2.333,4.537-2.515,7.081a11.425,11.425,0,0,1-1.39,3.818c-.311.657-.275,1.021.041.794s.474.172.35.889c-.585,3.376-1.155,6.674-1.72,9.935-.124.717-.034,1.218.2,1.12s.262.387.059,1.087c-.161.552-.316,1.085-.47,1.619-.2.7-.155,1.209.1,1.141s.257.431.13,1.148c-.329,1.872-.115,3.855-1.486,5.393-.484.543-.722.849-.374.849s.283.478-.142,1.069c-.116.161-.231.321-.349.485-.426.59-.538.991-.252.892s.541-.142.571-.1a.17.17,0,0,1,.037.084,3.123,3.123,0,0,1,0,.521c-.366,3.155.653,5.6,3.658,6.96,2.179.985,3.752,3.2,6.6,2.931.892-.084,1.88.875,2.83,1.343a.206.206,0,0,0,.151-.023c.082-.032.086-.2.009-.383s.438-.207,1.151-.057l1.541.325c.713.15,1.2.074,1.083-.17s.343-.217,1.033.011c5.96,1.967,12.035,1.15,18.059,1.263.727.013,1.237-.074,1.141-.213s.415-.254,1.144-.253c2.072,0,4.162.012,6.25-.01a23.666,23.666,0,0,0,2.909-.2c2.139-.289,4.276-.6,6.4-.966,2.332-.4,4.687.518,7.091-.887,1.407-.822,2.686-1.445,3.182-2.529.3-.661.78-1.428,1.489-1.6,1.317-.312,2.562-.6,3.78-.971,1.706-.524,3.18-1.143,3.541-3.4.256-1.6.128-3.07-1.324-3.922a.761.761,0,0,1-.274-.474c-.079-.3-.714-.6-1.439-.657l-.494-.042a.754.754,0,0,1-.634-1.24c.217-.361.42-.7.615-1.024.376-.623.767-1.082.875-1.025a2.043,2.043,0,0,1,.263,1.069c.037.534.329.44.651-.213.158-.32.309-.627.456-.926.322-.652.661-1.154.758-1.12a1.953,1.953,0,0,1,.269,1.006c.051.521.312.4.584-.281.087-.217.174-.433.262-.654.27-.676.528-.735.577-.134s.229.511.53-.153a5.535,5.535,0,0,1,3.01-2.947c2.036-.864,3.994-1.91,6.03-2.778a1.47,1.47,0,0,1,1.325.364c.994,1.2,1.84,2.515,2.8,3.746q1.507,1.939,3.123,3.791c1.369,1.57,2.787,3.1,4.18,4.646a3.237,3.237,0,0,1,.221.285c.114.163.312.129.44-.074s.47.171.767.837c.1.233.209.47.317.716.295.665.59.839.657.388s.456-.331.867.269l3.194,4.658c.411.6.744.711.744.249s.331-.348.738.254l1.8,2.666c.408.6.676.628.6.058a2,2,0,0,1,.068-1.181c.113-.083.553.327.982.914q.366.5.728,1c.428.588.918.918,1.063.716a.7.7,0,0,0,.171-.41c0-.055-.045-.114-.04-.17,0-.021.029-.038.078-.071a4.865,4.865,0,0,1,1.155.709c.4.29.812.586,1.233.889.59.425,1.041.5,1.006.178s.484-.366,1.15-.075a7.011,7.011,0,0,0,1.693.564c1.459.232,3.033-.047,4.425.352,2.786.8,5.118-.428,6.973-1.9a6.017,6.017,0,0,1,3.52-1.291,4.386,4.386,0,0,0,2.271-.995l2.17-2.059a1.9,1.9,0,0,0,.377-2.091c-.815-1.626-1.709-3.041-3.454-3.559-.7-.207-1.026-.432-.692-.713s.016-.509-.711-.509h-.59a5.307,5.307,0,0,1-1.319-.083,1.581,1.581,0,0,1,.64-.254c.356-.095.109-.42-.551-.727l-.585-.272c-.66-.305-.938-.616-.621-.692s.056-.419-.585-.766c-1.208-.656-2.42-1.317-3.646-1.955a5.475,5.475,0,0,0-.864-.336c-.489-.157-.574-.379-.194-.491s.35-.362-.066-.561-.356-.423.137-.5.346-.364-.325-.642l-1.663-.686c-.672-.278-.983-.818-.672-1.187.279-.332.484-.584.426-.734a6.266,6.266,0,0,0-.631-1.159c-.4-.607-.526-1.086-.272-1.075s.367-.29.255-.671c-.068-.231-.131-.461-.179-.694-.29-1.419-.276-2.981-.893-4.235a3.628,3.628,0,0,1,.269-4.237c.453-.569,1.029-.777,1.154-.584s.453-.087.728-.627.568-.814.651-.613.531-.087,1-.643l1.192-1.414c.469-.556.932-.784,1.03-.508s.39-.054.719-.7c1.648-3.259,4.433-5.846,5.077-9.564,0-.016.034-.028.07-.038a1.152,1.152,0,0,1,.431.3c.194.181.516-.237.72-.935,1.138-3.912,2.24-7.7,3.363-11.564a9.033,9.033,0,0,1,1.167-2.314c2.11-2.9,2.651-4.864,2.723-6.022a4.818,4.818,0,0,0-1.029-2.28c-.763-1.215-.6-2.511-.7-3.78a31.716,31.716,0,0,1,.2-5.122c.061-.725.172-1.278.327-1.208s.148-.457.161-1.184c.054-3.118,2.811-3.908,5.158-4.888.672-.281,1.716-.712,2.357-.914a3.071,3.071,0,0,0,1.083-.535,16.709,16.709,0,0,0,2.137-2.577,10.813,10.813,0,0,1,2.221-2.022c1.427-1.054,2.453-2.636,3.726-3.917a26.79,26.79,0,0,1,3.365-2.984,3.5,3.5,0,0,0,.787-4.857A32.533,32.533,0,0,1,200.741,76.145Z" transform="translate(-45.238 0)"/></g></g></svg>