<svg xmlns="http://www.w3.org/2000/svg" width="45.864" height="25.848" viewBox="0 0 45.864 25.848"><g transform="translate(0 -10.008)"><path d="M6.144,22.375A6.145,6.145,0,1,0,9.4,33.724a9.349,9.349,0,0,1,0-10.4A6.07,6.07,0,0,0,6.144,22.375Z"/><path d="M19.7,21.627a7.336,7.336,0,1,0,1.867,12.781A10.166,10.166,0,0,1,19.7,21.627Z"/><path d="M25.4,19.283A8.185,8.185,0,1,0,35.829,30.432,11.261,11.261,0,0,1,25.4,19.283Z"/><path d="M36.654,10.008a9.211,9.211,0,1,0,9.21,9.21A9.211,9.211,0,0,0,36.654,10.008Zm3.91,7.714a2.007,2.007,0,1,1,2.008-2.008A2.008,2.008,0,0,1,40.564,17.722Z"/></g></svg>