<svg xmlns="http://www.w3.org/2000/svg" width="71.166" height="50.886" viewBox="0 0 71.166 50.886"><g transform="translate(155 -709.129)"><path d="M189.889,179.878a6.477,6.477,0,0,0-4.908-4.264,13.469,13.469,0,0,0-25.644.3A13.515,13.515,0,0,0,143.166,185h53.395a6.491,6.491,0,0,0-6.338-5.134C190.114,179.869,190,179.869,189.889,179.878Z" transform="translate(-289 542.713)" fill="rgba(0,0,0,0.8)"/><path d="M64.079,425.581a2.718,2.718,0,0,0-2.57-1.865H9.634a2.718,2.718,0,0,0-2.57,1.865L.152,446.015a2.782,2.782,0,0,0,2.57,3.706h65.72a2.782,2.782,0,0,0,2.57-3.706Z" transform="translate(-155 310.294)" fill="rgba(0,0,0,0.8)"/></g></svg>