<svg xmlns="http://www.w3.org/2000/svg" width="38.084" height="54.44" viewBox="0 0 38.084 54.44"><g transform="translate(-44.515 -52)"><g transform="translate(71.383 54.313)"><path d="M344.869,21.467q-.121-.139-.253-.271l-7.373-7.381-.009-.009a.569.569,0,0,0-.966.411v7.632a.575.575,0,0,0,.576.576h7.593A.577.577,0,0,0,344.869,21.467Z" transform="translate(-336.269 -13.643)"/></g><g transform="translate(44.515 52)"><g transform="translate(0)"><path d="M118,14.4h-11.87a1.916,1.916,0,0,1-1.949-2.005s0,0,0,0V.586a.592.592,0,0,0-.6-.586H84.269a3.717,3.717,0,0,0-3.754,3.678V50.762a3.717,3.717,0,0,0,3.754,3.678h30.576a3.717,3.717,0,0,0,3.754-3.678V14.985A.592.592,0,0,0,118,14.4ZM90.014,12.932h3v-2.9a2.043,2.043,0,0,1,4.086,0v2.9h3.005a2,2,0,1,1,0,4h-3v2.988a2.043,2.043,0,0,1-4.086,0V16.936h-3a2,2,0,1,1,0-4Zm19.139,31.645H89.961a2,2,0,1,1,0-4h19.191a2,2,0,1,1,0,4Zm0-6.947H89.961a2,2,0,1,1,0-4h19.191a2,2,0,1,1,0,4Zm0-6.94H89.961a2,2,0,1,1,0-4h19.191a2,2,0,1,1,0,4Z" transform="translate(-80.515)"/></g></g></g></svg>