<svg xmlns="http://www.w3.org/2000/svg" width="47.26" height="47.815" viewBox="0 0 47.26 47.815"><g transform="translate(-313.603 -924.707)"><path d="M47.708,23.908c0-.457-.015-.92-.045-1.381l2.569-2.351-.148-.77a24.126,24.126,0,0,0-1.838-5.657l-.332-.71-3.459-.392a21.264,21.264,0,0,0-1.625-2.234L43.525,7l-.572-.535a24.127,24.127,0,0,0-4.813-3.5l-.686-.379L34.428,4.3a21.022,21.022,0,0,0-2.633-.855L30.354.281l-.778-.1a24.121,24.121,0,0,0-5.949,0l-.778.1L21.409,3.447a21.043,21.043,0,0,0-2.633.855L15.75,2.588l-.686.379a24.124,24.124,0,0,0-4.813,3.5L9.679,7l.7,3.414A21.22,21.22,0,0,0,8.75,12.646l-3.459.392-.332.71A24.116,24.116,0,0,0,3.12,19.405l-.148.77,2.569,2.351c-.03.461-.045.924-.045,1.381s.015.92.045,1.381L2.972,27.64l.148.77a24.12,24.12,0,0,0,1.838,5.658l.332.71,3.459.392A21.233,21.233,0,0,0,10.376,37.4l-.7,3.414.572.535a24.127,24.127,0,0,0,4.813,3.5l.686.379,3.026-1.715a21.034,21.034,0,0,0,2.633.855l1.441,3.167.778.1a24.11,24.11,0,0,0,5.949,0l.778-.1,1.441-3.167a21.032,21.032,0,0,0,2.633-.855l3.026,1.715.686-.379a24.124,24.124,0,0,0,4.813-3.5l.572-.535-.7-3.414a21.249,21.249,0,0,0,1.625-2.234l3.459-.392.332-.71a24.13,24.13,0,0,0,1.838-5.657l.148-.77-2.569-2.351c.03-.462.045-.924.045-1.381Zm-36.608,0a15.5,15.5,0,1,1,15.5,15.5A15.52,15.52,0,0,1,11.1,23.908Z" transform="translate(310.631 924.707)" fill="rgba(0,0,0,0.8)"/><circle cx="10" cy="10" r="10" transform="translate(327.217 938.479)" fill="rgba(0,0,0,0.8)"/></g></svg>