<svg xmlns="http://www.w3.org/2000/svg" width="43.864" height="43.877" viewBox="0 0 43.864 43.877"><g transform="translate(-0.082 -95.121)"><path d="M106.5.359a1.224,1.224,0,0,0-1.731,1.731l2.568,2.568L105.085,6.83,109.2,10.95l2.253-2.171L109.4,6.721l4.625,4.625a1.224,1.224,0,1,0,1.731-1.731Zm0,0" transform="translate(-72.168 95.121)"/><path d="M38.054,17.725,28.172,7.841A.943.943,0,0,0,26.84,9.175L28.266,10.6,25.54,13.327,27.8,15.586a.572.572,0,0,1-.809.809l-2.26-2.259-2.086,2.087L24.9,18.482a.565.565,0,0,1-.77.826.322.322,0,0,1-.028-.028l-2.259-2.259L19.76,19.1l2.26,2.259a.565.565,0,0,1-.771.826.309.309,0,0,1-.027-.028L18.963,19.9l-2.087,2.085,2.259,2.259a.571.571,0,1,1-.8.81L16.071,22.8l-2.089,2.09,2.258,2.258a.565.565,0,1,1-.77.827l-.028-.028-2.259-2.259L11.1,27.762l2.259,2.259a.565.565,0,0,1-.77.827.225.225,0,0,1-.028-.03L10.3,28.561,7.577,31.287l1.931,1.931-2.33,2.331,1.185,1.178-8.1,8.114a.565.565,0,1,0,.77.827c.008-.011.019-.019.027-.029l8.1-8.1,1.186,1.186,2.334-2.335,1.931,1.932L35.3,17.634l1.4,1.424a.942.942,0,1,0,1.333-1.333Zm0,0" transform="translate(0 93.179)"/></g></svg>