<svg xmlns="http://www.w3.org/2000/svg" width="30.95" height="51.9" viewBox="0 0 30.95 51.9"><g transform="translate(-112.2)"><g transform="translate(112.2)"><path d="M131.246,8.571a4.285,4.285,0,1,0-4.285-4.285A4.267,4.267,0,0,0,131.246,8.571Zm.238,14.761H143.15V19.046h-8.571l-4.761-7.856a4.425,4.425,0,0,0-3.571-2.143,2.146,2.146,0,0,0-1.19.238L112.2,13.332v12.38h4.285V16.9l5-1.667L112.2,51.9h4.285l6.9-19.284L128.865,40V51.9h4.285V36.663L127.2,25.95l1.667-6.9Z" transform="translate(-112.2)" fill="rgba(0,0,0,0.8)"/></g></g></svg>