<svg xmlns="http://www.w3.org/2000/svg" width="27.5" height="32" viewBox="0 0 27.5 32">
  <path id="Icon_awesome-shopping-bag" data-name="Icon awesome-shopping-bag" d="M21.607,10V8A7.939,7.939,0,0,0,13.75,0,7.938,7.938,0,0,0,5.893,8v2H0V27a4.956,4.956,0,0,0,4.911,5H22.589A4.956,4.956,0,0,0,27.5,27V10ZM9.821,8a3.929,3.929,0,1,1,7.857,0v2H9.821Zm9.821,7.5A1.5,1.5,0,1,1,21.116,14,1.487,1.487,0,0,1,19.643,15.5Zm-11.786,0A1.5,1.5,0,1,1,9.33,14,1.487,1.487,0,0,1,7.857,15.5Z" fill="rgba(0,0,0,0.6)"/>
</svg>
