<svg xmlns="http://www.w3.org/2000/svg" width="121.569" height="139.026" viewBox="0 0 121.569 139.026"><defs><style>.a{fill:#41dc6a;}.b{fill:#fff;}.c{fill:#1ea141;}</style></defs><g transform="translate(-7270.423 895.47)"><path class="a" d="M411.9-352.469l-15.94-18.493L383.1-366.55l-4.4,38.539s-5.6,78.078-7.113,81.769c-2.979,7.262,81.746,4.137,80.458,0s-12.2-120.253-12.2-120.308c-4.248-1.493-7.439-3.091-10.635-4.09" transform="translate(6875.377 -579.823) rotate(8)"/><path class="a" d="M440.978-337.724l-1.135-28.047c6.271,2.332,18.411,11.088,25.212,37.519,4.4,17.082,2.877,11.674,3.72,14.961,1.44,5.611,1.547,5.69,1.505,6.521-.181,3.659-20.531,7.432-20.679,3.877l-8.624-34.83" transform="translate(6875.377 -579.823) rotate(8)"/><path class="b" d="M429.182-370.724c-3.595,7.364-29.659,8.135-34.211,0l-8.459,3.531s7.575,17.833,23.575,18,26.924-17.832,26.924-17.832l-7.829-3.7" transform="translate(6875.377 -579.823) rotate(8)"/><path class="a" d="M383.1-365.771c-6.269,2.332-16.533,11.088-22.545,37.519-3.631,15.961-4.071,21.092-4.007,22.343.181,3.659,18.376,6.139,18.525,2.585C375.12-304.4,382.7-319.1,382.7-319.1l1.931-18.627L383.1-365.771" transform="translate(6875.377 -579.823) rotate(8)"/><path class="c" d="M448-266.657c-10.111-44.909-5.476-58.688-4.992-59.943,1.517,18.592,3.356,40.851,4.985,59.865l.007.077" transform="translate(6875.377 -579.823) rotate(8)"/></g></svg>