<svg xmlns="http://www.w3.org/2000/svg" width="210.721" height="60.887" viewBox="0 0 210.721 60.887"><defs><style>.a{fill:#ffa63b;}.b{fill:#ffbe57;}.c{fill:#ffa245;}</style></defs><g transform="translate(-7257.345 1367.731)"><path class="a" d="M865.186-788.575c-76.162,10.756-119.382,11.476-192.867,0l9.528,27.712H856.929l8.257-27.712" transform="translate(6593 -556.212)"/><path class="b" d="M869.137-801.263,847.4-760.075l13.7,19.7,13.964-60.887h-5.929" transform="translate(6593 -566.468)"/><path class="b" d="M670.273-801.263l21.736,41.189-13.7,19.7-13.961-60.887h5.928" transform="translate(6593 -566.468)"/><path class="b" d="M865.609-774.941c-74.474,6.908-117.46,6.957-191.666,0l4.507,17.873H861.1l4.507-17.873" transform="translate(6593 -549.776)"/><path class="c" d="M772.758-761.017c-37.911,0-72.2-2.4-96.889-6.283l2.58,10.232H861.1l2.351-9.317c-24.084,3.337-55.858,5.368-90.694,5.368" transform="translate(6593 -549.776)"/></g></svg>