<svg xmlns="http://www.w3.org/2000/svg" width="49.36" height="49.343" viewBox="0 0 49.36 49.343"><defs><style>.a{fill:#83706d;}.b{fill:#b5431d;}.c{fill:#9f2f0a;}.d{fill:#cf491c;}.e{fill:#fff;}.f{fill:#4d3530;}</style></defs><g transform="translate(-7669.461 951.262)"><path class="a" d="M219.539-390.916q-1.212-.378-2.428-.656l-.024-.023-1.225-1.227.544.545a2.765,2.765,0,0,0,2.029.7,9.137,9.137,0,0,0,2.848-.56c5.04-1.687,12.844-7.2,20.509-14.869a96.327,96.327,0,0,0,8.932-10.217c.091-.129.188-.253.28-.383h0l.985-1.44c4.391-6.3,6.289-11.431,4.455-13.265l-2.535-2.535,3.215,3.215c1.831,1.829-.052,6.939-4.415,13.209l-1.025,1.5c-.092.131-.188.253-.28.384-1.155,1.541-2.445,3.139-3.848,4.76a2.744,2.744,0,0,1-.459,3.268l-6.981,6.983a2.727,2.727,0,0,1-1.935.8,2.777,2.777,0,0,1-1.351-.351c-5.653,4.867-10.984,8.3-14.779,9.6a10.236,10.236,0,0,1-2.513.575m19.377-12.019-.137.125.037-.024.1-.1m-27.675,4.083a2.994,2.994,0,0,1-1.761-.472c-1.865-3.421,4.129-13.623,14.047-23.809q.5-.52,1.023-1.037c6.791-6.791,13.691-11.895,18.681-14.144q-.132.444-.268.885a.53.53,0,0,0,.351.66l.155.023a.527.527,0,0,0,.5-.372c.175-.568.345-1.141.508-1.715a9.973,9.973,0,0,1,3.367-.745,3.116,3.116,0,0,1,1.647.4c.96,1.567.128,4.7-2.085,8.655q-.452.81-.98,1.663a74.319,74.319,0,0,0-9.563,7.211,4.3,4.3,0,0,0-.916.811c-1.373,1.233-2.761,2.545-4.144,3.928a85.136,85.136,0,0,0-11.951,14.624q-.852.528-1.663.98a25.406,25.406,0,0,1-4.144,1.913,9.091,9.091,0,0,1-2.807.547M239.8-427.97a.527.527,0,0,0-.484.315c-.472,1.064-.967,2.127-1.471,3.157a9.415,9.415,0,0,0,2.436-2.731.529.529,0,0,0-.269-.7.544.544,0,0,0-.212-.044m2.576-6.509a.529.529,0,0,0-.5.353c-.381,1.085-.791,2.183-1.217,3.259a.528.528,0,0,0,.3.685l.193.037a.527.527,0,0,0,.491-.333c.432-1.089.847-2.2,1.232-3.3a.528.528,0,0,0-.324-.673.527.527,0,0,0-.173-.029" transform="translate(7461 -511.002)"/><path class="b" d="M249.2-439.564l7.249,7.249c2.929,2.929-3.657,14.271-14.712,25.327s-22.4,17.641-25.327,14.712l-7.249-7.249c1.4,1.4,4.729.624,9.036-1.787a79.989,79.989,0,0,0,16.284-12.932,79.989,79.989,0,0,0,12.932-16.284c2.411-4.307,3.183-7.639,1.787-9.036" transform="translate(7461 -511.002)"/><path class="c" d="M249.2-439.564c1.4,1.4.624,4.729-1.787,9.036A80.023,80.023,0,0,0,231.125-417.6a79.988,79.988,0,0,0-12.932,16.284c-4.307,2.411-7.639,3.184-9.036,1.787-2.928-2.929,3.657-14.271,14.713-25.327s22.4-17.64,25.325-14.712" transform="translate(7461 -511.002)"/><path class="b" d="M233.859-414.862c-12,12-22.091,16.648-24.04,14.7s2.7-12.037,14.7-24.041,22.092-16.647,24.041-14.7S245.863-426.866,233.859-414.862Zm-9.989-9.991c-11.056,11.056-17.636,22.4-14.7,25.34s14.284-3.645,25.34-14.7,17.635-22.4,14.7-25.339-14.284,3.644-25.339,14.7" transform="translate(7461 -511.002)"/><path class="d" d="M250.569-425.814l.312,5.847L251-417.61c-.092.129-.189.253-.28.383a96.331,96.331,0,0,1-8.932,10.217c-11.055,11.056-22.4,17.641-25.325,14.713l-7.249-7.249c1.4,1.4,4.729.623,9.035-1.787a79.956,79.956,0,0,0,16.285-12.932,96.031,96.031,0,0,0,8.931-10.217c.111-.151.215-.293.324-.429l1.385-.188,5.391-.715" transform="translate(7461 -511.002)"/><path class="b" d="M232.134-403.679a1.588,1.588,0,0,1-1.115-.473,1.471,1.471,0,0,1-.084-2.075,1.345,1.345,0,0,1,.96-.389,1.586,1.586,0,0,1,1.115.472,1.474,1.474,0,0,1,.084,2.077,1.35,1.35,0,0,1-.96.388" transform="translate(7461 -511.002)"/><path class="b" d="M225.318-398.482a1.608,1.608,0,0,1-1.127-.481,1.457,1.457,0,0,1-.111-2.049,1.287,1.287,0,0,1,.921-.369,1.6,1.6,0,0,1,1.125.481,1.451,1.451,0,0,1,.112,2.048,1.288,1.288,0,0,1-.921.371" transform="translate(7461 -511.002)"/><path class="e" d="M245.119-411.8a.909.909,0,0,1,0,1.3l-6.984,6.983a.912.912,0,0,1-1.3,0l-5.847-5.845a.919.919,0,0,1,0-1.3l6.983-6.984a.916.916,0,0,1,1.3,0Zm-8.444-7.145-6.984,6.983a2.766,2.766,0,0,0,0,3.9l5.845,5.847a2.761,2.761,0,0,0,3.9,0l6.983-6.984a2.75,2.75,0,0,0,0-3.9l-5.847-5.847a2.757,2.757,0,0,0-3.9,0" transform="translate(7461 -511.002)"/><path class="f" d="M244.373-416.984a.9.9,0,0,1,0,1.279l-6.415,6.415a.9.9,0,0,1-1.279,0,.9.9,0,0,1,0-1.279l6.415-6.415a.9.9,0,0,1,1.279,0" transform="translate(7461 -511.002)"/></g></svg>