<svg xmlns="http://www.w3.org/2000/svg" width="84.324" height="37.204" viewBox="0 0 84.324 37.204"><defs><style>.a{fill:#b3b3b3;}.a,.b,.c,.d,.e,.f,.g,.h{fill-rule:evenodd;}.b{fill:#ededed;}.c{fill:#cfcfcf;}.d{fill:#664b37;}.e{fill:#423123;}.f{fill:#613d27;}.g{fill:#80553b;}.h{fill:#966548;}</style></defs><g transform="translate(-7502.463 967.807)"><path class="a" d="M447.628-543.249l42.152,8.412.007,1.413c0,5.425-18.876,9.823-42.159,9.823s-42.157-4.4-42.157-9.823l-.008-1.316c3.183-4.689,21.548-12.623,42.165-8.509" transform="translate(7097 -407.002)"/><path class="b" d="M447.628-524.863c23.219,0,42.159-4.413,42.159-9.824s-18.94-9.824-42.159-9.824-42.157,4.412-42.157,9.824,18.937,9.824,42.157,9.824" transform="translate(7097 -407.002)"/><path class="c" d="M487.085-534.2c-1.239,4.225-18.429,7.572-39.457,7.572s-38.22-3.347-39.455-7.572c-.532-3.856,6.947-14.984,8.728-17.113l-.008.164c0,3.9,13.76,7.063,30.735,7.063s30.736-3.163,30.736-7.063l-.009-.164c1.776,2.135,9.185,13.3,8.731,17.113" transform="translate(7097 -407.002)"/><path class="b" d="M447.627-544.087c16.931,0,30.737-3.173,30.737-7.063s-13.807-7.063-30.737-7.063-30.733,3.173-30.733,7.063,13.805,7.063,30.733,7.063" transform="translate(7097 -407.002)"/><path class="a" d="M447.627-545.428c15.931,0,28.921-2.641,28.921-5.879s-12.991-5.88-28.921-5.88-28.919,2.641-28.919,5.88,12.991,5.879,28.919,5.879" transform="translate(7097 -407.002)"/><path class="d" d="M443.344-551.835c2.105,0,3.813,1.1,3.813,2.467s-1.708,2.467-3.813,2.467-3.813-1.1-3.813-2.467,1.707-2.467,3.813-2.467" transform="translate(7097 -407.002)"/><path class="e" d="M446.035-550.265a2.587,2.587,0,0,1,2.692,2.467,2.508,2.508,0,0,1-1.936,2.368q-.792-.006-1.577-.019a2.5,2.5,0,0,1-1.869-2.349,2.585,2.585,0,0,1,2.691-2.467" transform="translate(7097 -407.002)"/><path class="e" d="M452.539-559.011c2.105,0,3.812,1.1,3.812,2.467s-1.707,2.467-3.812,2.467-3.812-1.105-3.812-2.467,1.707-2.467,3.812-2.467" transform="translate(7097 -407.002)"/><path class="e" d="M428.767-556.993c2.105,0,3.812,1.1,3.812,2.467s-1.707,2.467-3.812,2.467-3.812-1.1-3.812-2.467,1.705-2.467,3.812-2.467" transform="translate(7097 -407.002)"/><path class="e" d="M459.192-558.637c2.1,0,3.813,1.1,3.813,2.467s-1.709,2.467-3.813,2.467-3.813-1.1-3.813-2.467,1.707-2.467,3.813-2.467" transform="translate(7097 -407.002)"/><path class="e" d="M465.995-558.415c2.107,0,3.811,1.105,3.811,2.467s-1.7,2.467-3.811,2.467-3.813-1.1-3.813-2.467,1.708-2.467,3.813-2.467" transform="translate(7097 -407.002)"/><path class="e" d="M439.234-560.732c2.105,0,3.812,1.105,3.812,2.467s-1.707,2.468-3.812,2.468-3.815-1.1-3.815-2.468,1.707-2.467,3.815-2.467" transform="translate(7097 -407.002)"/><path class="e" d="M473.395-552.883a4.415,4.415,0,0,1,3.361,1.3.274.274,0,0,0-.208.273c0,1.171-1.684,2.263-4.587,3.179-1.395-.368-2.38-1.252-2.38-2.287,0-1.363,1.708-2.468,3.813-2.468" transform="translate(7097 -407.002)"/><path class="e" d="M420.844-552.883a2.587,2.587,0,0,1,2.691,2.468,2.4,2.4,0,0,1-1.107,1.992c-2.367-.851-3.72-1.836-3.72-2.884a.281.281,0,0,0-.229-.289,2.738,2.738,0,0,1,2.365-1.287" transform="translate(7097 -407.002)"/><path class="d" d="M440.952-556.844c2.107,0,3.812,1.105,3.812,2.467s-1.705,2.468-3.812,2.468-3.813-1.105-3.813-2.468,1.707-2.467,3.813-2.467" transform="translate(7097 -407.002)"/><path class="d" d="M434.224-554.9c2.105,0,3.812,1.105,3.812,2.467s-1.707,2.468-3.812,2.468-3.815-1.1-3.815-2.468,1.709-2.467,3.815-2.467" transform="translate(7097 -407.002)"/><path class="d" d="M447.755-556.32c2.1,0,3.813,1.1,3.813,2.467s-1.709,2.467-3.813,2.467-3.813-1.105-3.813-2.467,1.707-2.467,3.813-2.467" transform="translate(7097 -407.002)"/><path class="d" d="M426.3-553.48c2.105,0,3.812,1.1,3.812,2.467s-1.707,2.467-3.812,2.467-3.813-1.1-3.813-2.467,1.707-2.467,3.813-2.467" transform="translate(7097 -407.002)"/><path class="d" d="M459.416-555.125c2.1,0,3.813,1.105,3.813,2.468s-1.709,2.467-3.813,2.467-3.812-1.105-3.812-2.467,1.705-2.468,3.812-2.468" transform="translate(7097 -407.002)"/><path class="d" d="M468.462-555.349c2.107,0,3.813,1.105,3.813,2.467s-1.707,2.468-3.813,2.468-3.813-1.105-3.813-2.468,1.707-2.467,3.813-2.467" transform="translate(7097 -407.002)"/><path class="f" d="M435.57-559.087c2.105,0,3.813,1.1,3.813,2.467s-1.708,2.468-3.813,2.468-3.813-1.105-3.813-2.468,1.707-2.467,3.813-2.467" transform="translate(7097 -407.002)"/><path class="d" d="M444.914-560.805c2.105,0,3.813,1.1,3.813,2.467s-1.708,2.467-3.813,2.467-3.812-1.1-3.812-2.467,1.705-2.467,3.812-2.467" transform="translate(7097 -407.002)"/><path class="f" d="M463.378-556.993a2.586,2.586,0,0,1,2.691,2.467,2.586,2.586,0,0,1-2.691,2.467,2.585,2.585,0,0,1-2.691-2.467,2.585,2.585,0,0,1,2.691-2.467" transform="translate(7097 -407.002)"/><path class="f" d="M423.384-555.8a2.586,2.586,0,0,1,2.691,2.467,2.587,2.587,0,0,1-2.691,2.468,2.586,2.586,0,0,1-2.691-2.468,2.585,2.585,0,0,1,2.691-2.467" transform="translate(7097 -407.002)"/><path class="f" d="M437.662-552.435c2.107,0,3.813,1.105,3.813,2.468s-1.707,2.467-3.813,2.467-3.812-1.1-3.812-2.467,1.708-2.468,3.812-2.468" transform="translate(7097 -407.002)"/><path class="f" d="M447.9-552.732c2.107,0,3.813,1.1,3.813,2.467S450.01-547.8,447.9-547.8s-3.812-1.105-3.812-2.467,1.707-2.467,3.812-2.467" transform="translate(7097 -407.002)"/><path class="f" d="M453.211-555.648c2.107,0,3.812,1.1,3.812,2.467s-1.705,2.467-3.812,2.467-3.811-1.1-3.811-2.467,1.707-2.467,3.811-2.467" transform="translate(7097 -407.002)"/><path class="f" d="M425.4-551.088a2.586,2.586,0,0,1,2.692,2.467,2.34,2.34,0,0,1-.584,1.537,37.145,37.145,0,0,1-4.776-1.231l-.023-.307a2.586,2.586,0,0,1,2.691-2.467" transform="translate(7097 -407.002)"/><path class="e" d="M461.883-552.209a2.586,2.586,0,0,1,2.691,2.468,2.586,2.586,0,0,1-2.691,2.467,2.586,2.586,0,0,1-2.691-2.467,2.586,2.586,0,0,1,2.691-2.468" transform="translate(7097 -407.002)"/><path class="f" d="M468.462-552.359a2.584,2.584,0,0,1,2.691,2.467,2.584,2.584,0,0,1-2.691,2.467,2.584,2.584,0,0,1-2.691-2.467,2.584,2.584,0,0,1,2.691-2.467" transform="translate(7097 -407.002)"/><path class="d" d="M451.492-549.967a2.585,2.585,0,0,1,2.691,2.467,2.4,2.4,0,0,1-1.064,1.965q-1.534.06-3.12.087a2.419,2.419,0,0,1-1.2-2.052,2.587,2.587,0,0,1,2.692-2.467" transform="translate(7097 -407.002)"/><path class="g" d="M430.56-551.76c2.107,0,3.813,1.1,3.813,2.467s-1.707,2.467-3.813,2.467-3.812-1.105-3.812-2.467,1.708-2.467,3.812-2.467" transform="translate(7097 -407.002)"/><path class="g" d="M448.278-554.825a2.585,2.585,0,0,1,2.691,2.467,2.586,2.586,0,0,1-2.691,2.467,2.586,2.586,0,0,1-2.691-2.467,2.585,2.585,0,0,1,2.691-2.467" transform="translate(7097 -407.002)"/><path class="g" d="M455.6-549.593a2.584,2.584,0,0,1,2.689,2.468,2.314,2.314,0,0,1-.413,1.317c-1.4.107-2.853.193-4.348.257a2.34,2.34,0,0,1-.62-1.575,2.588,2.588,0,0,1,2.692-2.468" transform="translate(7097 -407.002)"/><path class="g" d="M442.6-547.5a2.632,2.632,0,0,1,2.652,2.052c-1.805-.031-3.565-.093-5.263-.188A2.662,2.662,0,0,1,442.6-547.5" transform="translate(7097 -407.002)"/><path class="g" d="M437.215-548.547a2.586,2.586,0,0,1,2.691,2.467,2.251,2.251,0,0,1-.043.437c-1.861-.105-3.648-.248-5.34-.423v-.015a2.587,2.587,0,0,1,2.692-2.467" transform="translate(7097 -407.002)"/><path class="g" d="M464.051-554a2.584,2.584,0,0,1,2.691,2.467,2.585,2.585,0,0,1-2.691,2.467,2.586,2.586,0,0,1-2.691-2.467A2.585,2.585,0,0,1,464.051-554" transform="translate(7097 -407.002)"/><path class="h" d="M443.183-553.4c1.563,0,2.829.82,2.829,1.831s-1.267,1.831-2.829,1.831-2.831-.82-2.831-1.831,1.268-1.831,2.831-1.831" transform="translate(7097 -407.002)"/><path class="h" d="M434.074-550.415a2.587,2.587,0,0,1,2.692,2.467,2.4,2.4,0,0,1-1.108,1.995c-1.264-.117-2.48-.253-3.64-.4a2.344,2.344,0,0,1-.633-1.591,2.584,2.584,0,0,1,2.689-2.467" transform="translate(7097 -407.002)"/><path class="h" d="M440.428-550.041a2.586,2.586,0,0,1,2.692,2.467,2.416,2.416,0,0,1-1.165,2.033q-1.688-.07-3.3-.176a2.377,2.377,0,0,1-.921-1.857,2.586,2.586,0,0,1,2.691-2.467" transform="translate(7097 -407.002)"/><path class="h" d="M455.679-552.808a2.587,2.587,0,0,1,2.692,2.467,2.588,2.588,0,0,1-2.692,2.468,2.588,2.588,0,0,1-2.692-2.468,2.587,2.587,0,0,1,2.692-2.467" transform="translate(7097 -407.002)"/><path class="h" d="M458.819-550.715a2.587,2.587,0,0,1,2.691,2.467,2.474,2.474,0,0,1-1.627,2.268q-.806.076-1.639.143a2.528,2.528,0,0,1-2.119-2.411,2.589,2.589,0,0,1,2.693-2.467" transform="translate(7097 -407.002)"/><path class="h" d="M449.324-547.948a2.585,2.585,0,0,1,2.689,2.452q-2.144.068-4.387.068c-.332,0-.664,0-.993,0v-.049a2.587,2.587,0,0,1,2.692-2.467" transform="translate(7097 -407.002)"/><path class="h" d="M428.243-548.547a2.638,2.638,0,0,1,2.651,2.035c-1.8-.26-3.453-.561-4.917-.9a2.761,2.761,0,0,1,2.267-1.136" transform="translate(7097 -407.002)"/><path class="h" d="M464.574-549.817a2.587,2.587,0,0,1,2.692,2.468,2.049,2.049,0,0,1-.031.363c-1.539.291-3.235.545-5.056.76a2.28,2.28,0,0,1-.3-1.123,2.587,2.587,0,0,1,2.691-2.468" transform="translate(7097 -407.002)"/><path class="d" d="M452.091-552.049c1.265,0,2.293.665,2.293,1.485s-1.028,1.484-2.293,1.484-2.3-.664-2.3-1.484,1.028-1.485,2.3-1.485" transform="translate(7097 -407.002)"/><path class="d" d="M438.26-551.525c1.268,0,2.295.664,2.295,1.484s-1.027,1.484-2.295,1.484-2.295-.664-2.295-1.484,1.028-1.484,2.295-1.484" transform="translate(7097 -407.002)"/></g></svg>