<svg xmlns="http://www.w3.org/2000/svg" width="36.395" height="62.758" viewBox="0 0 36.395 62.758"><defs><style>.a{fill:#30b0a9;}.b{fill:#238c85;}.c{fill:#fff;}.d{fill:#d9d9d9;}</style></defs><g transform="translate(-7575.531 1052.291)"><path class="a" d="M542.925-485.111v20.925a1.1,1.1,0,0,1-.973,1.095l-.129.008-25.429,5.552a1.1,1.1,0,0,0,1.1-1.1v-20.925a45.659,45.659,0,0,0-1.217-10.468l-2.249-9.513a45.653,45.653,0,0,1-1.22-10.468v-4.731l25.433-5.551v4.729a45.515,45.515,0,0,0,1.219,10.468l2.247,9.513q.284,1.2.5,2.409a45.6,45.6,0,0,1,.719,8.059" transform="translate(7069 -532.002)"/><path class="b" d="M517.493-479.559v20.925a1.1,1.1,0,0,1-1.1,1.1l-.081-.005a1.056,1.056,0,0,1-.456-.135l-8.757-4.871a1.108,1.108,0,0,1-.568-.963v-20.313a45.589,45.589,0,0,1,2.189-13.945l.044-.139a45.508,45.508,0,0,0,2.188-13.947v-2.891h1.855v4.731a45.656,45.656,0,0,0,1.22,10.468l2.249,9.513a45.656,45.656,0,0,1,1.217,10.468" transform="translate(7069 -532.002)"/><path class="c" d="M532.1-468.794l-.067.016a10.119,10.119,0,0,0-2.909,1.272c-.96.593-2.232,1.081-2.591-.147l-.163-.559a2.174,2.174,0,0,1,.863-2.241l1.051-.785a3.467,3.467,0,0,0,1.284-2l.065-.3a3.573,3.573,0,0,1,2.445-2.671l.021-.005v7.421" transform="translate(7069 -532.002)"/><path class="c" d="M529.136-475.446s2.18-.737,2.243-1.723,0-3.575,0-3.575a1.1,1.1,0,0,0-1.829-.448,6.084,6.084,0,0,0-2.083,3.795c-.011,2.017,1.669,1.951,1.669,1.951" transform="translate(7069 -532.002)"/><path class="c" d="M526.192-470.853s1.987-1.329,1.7-2.176S526.632-476,526.632-476a1.38,1.38,0,0,0-2.064.232,4.554,4.554,0,0,0-.8,3.808,1.93,1.93,0,0,0,2.427,1.105" transform="translate(7069 -532.002)"/><path class="d" d="M532.1-468.794l.065-.012a7.484,7.484,0,0,1,2.907.059c.961.208,2.235.184,2.593-1.275l.163-.665a1.576,1.576,0,0,0-.864-1.983L535.917-473a1.926,1.926,0,0,1-1.285-1.457l-.065-.276a1.917,1.917,0,0,0-2.444-1.487l-.02,0v7.421" transform="translate(7069 -532.002)"/><path class="d" d="M535.068-476.948s-2.18.365-2.243-.6,0-3.6,0-3.6.568-1.752,1.829-1.5a3.163,3.163,0,0,1,2.081,2.775,3.237,3.237,0,0,1-1.668,2.923" transform="translate(7069 -532.002)"/><path class="d" d="M538.011-473.589s-1.984-.448-1.7-1.472,1.261-3.783,1.261-3.783,1.091-1.635,2.063-.868,1.1,2.812.805,3.733a3.173,3.173,0,0,1-2.428,2.389" transform="translate(7069 -532.002)"/></g></svg>