<svg xmlns="http://www.w3.org/2000/svg" width="61.263" height="47.109" viewBox="0 0 61.263 47.109"><defs><style>.a{fill:#83706d;}.b{fill:#ccc;}.c{fill:#f0f9fc;}.d{fill:#e05728;}.e{fill:#a4b0ae;}.f{fill:#c1d7d6;}.g{fill:#4d3530;}.h{fill:#30b0a9;}</style></defs><g transform="translate(-7945.482 1502.686)"><path class="a" d="M181.256-539.575H126.89l-.076-.117.029.117h-2.927a8.079,8.079,0,0,0-1.753-2.5,7.7,7.7,0,0,1,1.926.461,10.3,10.3,0,0,0-1.848-3.844,18.81,18.81,0,0,1,4.07,2.183c-.148-2.792.266-5.788,1.807-7.916a17.305,17.305,0,0,0,1.128,5.921c.2.589.423,1.157.643,1.7v-3.9h.012v5.947H176.64V-551.82c.385.1.771.212,1.151.32l.145.02a.723.723,0,0,0,.076-.005v3.173h-.691v.836h.688v7.02c1.683-2.42,2.12-5.593,2.573-8.495a14.97,14.97,0,0,1,.673,9.376m-3.244-12.96q-.682-.194-1.372-.379v-4.813h.691v-1.365l.015.011v-5.861h.667v0h.015v6.539l-.015-.011v1.367h-.691v.837h.691v3.673" transform="translate(7824 -916.002)"/><path class="b" d="M129.9-568.365v26.836H176.64v-26.3L153.27-584.563l-23.368,16.2" transform="translate(7824 -916.002)"/><path class="c" d="M177.328-548.157v7.9H129.21v-7.9h48.117" transform="translate(7824 -916.002)"/><path class="c" d="M177.33-548.992H129.212v-7.9H177.33v7.9" transform="translate(7824 -916.002)"/><path class="c" d="M129.212-557.727H177.33v-7.9H129.212Z" transform="translate(7824 -916.002)"/><path class="d" d="M182.745-565.435l-1.668,1.881-4.136-2.907-11.244-7.9-1.185-.835-11.24-7.9-11.243,7.9-1.187.835-11.243,7.9-4.137,2.907-1.634-1.907,5.384-3.883,6.962-5.016,1.157-.835,10.957-7.9,4.983-3.592,4.984,3.592,10.957,7.9,1.153.835,6.965,5.021,5.413,3.9" transform="translate(7824 -916.002)"/><path class="e" d="M176.64-565.623h-8.6l-1.189-.837h9.789v.837m-36.853,0h-9.865v-.837h11.053l-1.188.837m25.911-8.736H155.614l0,0-1.184-.832h10.085l1.185.835m-13.484,0H140.858l0,0,1.184-.832H153.4l-1.181.832,0,0" transform="translate(7824 -916.002)"/><path class="f" d="M129.228-558.207v-7.413h.693v0h9.865l0,0-9.54,6.7-.323.229-.693.481m48.1-.885-.671-.471-8.617-6.057,0,0h8.62v0h.671v6.528" transform="translate(7824 -916.002)"/><path class="f" d="M176.941-566.46H166.85l-.511-.359-1.185-.833-9.54-6.707H165.7l11.244,7.9m-35.967,0H129.617l.3-.217,10.937-7.681h11.355l-9.541,6.707-1.187.833-.511.359" transform="translate(7824 -916.002)"/><path class="f" d="M164.512-575.193H154.424l-.512-.359-.511.359H142.049l11.233-7.889,11.229,7.891" transform="translate(7824 -916.002)"/><path class="g" d="M163.15-552.276v12.02H142.506v-12.02A10.323,10.323,0,0,1,152.832-562.6a10.279,10.279,0,0,1,7.295,3.024,10.28,10.28,0,0,1,3.024,7.3" transform="translate(7824 -916.002)"/><path class="h" d="M136.15-540.256h-9.941l-.075-.116.029.116h-2.927a8.059,8.059,0,0,0-1.753-2.5,7.631,7.631,0,0,1,1.926.461,10.282,10.282,0,0,0-1.847-3.844,18.766,18.766,0,0,1,4.071,2.183c-.148-2.792.265-5.788,1.806-7.916a17.292,17.292,0,0,0,1.128,5.92,34.982,34.982,0,0,0,1.43,3.483l.091-.171a10.825,10.825,0,0,1,3.146-3.524,8.728,8.728,0,0,0-.3,4.448,5.178,5.178,0,0,1,3.331-1.659,3.616,3.616,0,0,0-.116,3.119" transform="translate(7824 -916.002)"/><path class="h" d="M180.576-540.256h-11.4a6.838,6.838,0,0,0,2.591-3.8,5.855,5.855,0,0,1,.827,2.273,13.545,13.545,0,0,0,2.467-4.78,11.206,11.206,0,0,1,1.728,6.131c2.141-2.484,2.615-6.007,3.115-9.2a14.975,14.975,0,0,1,.673,9.375" transform="translate(7824 -916.002)"/></g></svg>