<svg xmlns="http://www.w3.org/2000/svg" width="45.749" height="37.023" viewBox="0 0 45.749 37.023"><defs><style>.a{fill:#fff;}.b{fill:#5768de;}.c{fill:#7d8aeb;}.d{fill:#e05728;}</style></defs><g transform="translate(-7580.648 657.227)"><path class="a" d="M362.4-131.812a2.4,2.4,0,0,0-2.395,2.4v6.979a2.4,2.4,0,0,0,2.395,2.395h12.24a2.4,2.4,0,0,0,2.4-2.395v-6.979a2.4,2.4,0,0,0-2.4-2.4Zm12.24,14.183H362.4a4.813,4.813,0,0,1-4.807-4.808v-6.979a4.814,4.814,0,0,1,4.807-4.809h12.24a4.816,4.816,0,0,1,4.809,4.809v6.979a4.815,4.815,0,0,1-4.809,4.808" transform="translate(7235 -523.002)"/><path class="b" d="M382.846-97.2H354.2a8.551,8.551,0,0,1-8.552-8.552v-11.873a8.552,8.552,0,0,1,8.552-8.552h28.645a8.553,8.553,0,0,1,8.552,8.552v11.873a8.552,8.552,0,0,1-8.552,8.552" transform="translate(7235 -523.002)"/><path class="c" d="M346.854-104.081V-119.3a5.672,5.672,0,0,1,5.672-5.672h31.992a5.671,5.671,0,0,1,5.672,5.672v15.221a5.672,5.672,0,0,1-5.672,5.672H352.527a5.675,5.675,0,0,1-5.673-5.673" transform="translate(7235 -523.002)"/><path class="a" d="M365.567-120.135a3.031,3.031,0,0,0-1.465,2.126c-.081.368,1.465.181,1.465.181v-2.307" transform="translate(7235 -523.002)"/><path class="a" d="M355.338-104.507a1.112,1.112,0,0,1-1.089,1.26h-4.516s.107-1.068,1.731-.916c3.265.305,3.764-1.221,3.764-1.221l.111.877" transform="translate(7235 -523.002)"/><path class="a" d="M361.187-113.969c-1,.429-6.207,5.429-6.193,7.8a5.806,5.806,0,0,0,.439,2.348.984.984,0,0,0,.891.57h4.731s.3-.645-.265-.882a8.54,8.54,0,0,0-2.365-.1,1.6,1.6,0,0,0,1.64-.616,1.429,1.429,0,0,0,.156-1.639l2-1.545.195,3.412.539,1.373h1.332s.132-.645-.233-.816-.6-.984-.6-.984l.5-2.882.267-1.359c.743-.8.719-.321,1.285-1.747l.812-2.832a7.857,7.857,0,0,0-.072-1.747s.98-.055,1.467-.093.563-.245.563-.245.729-.795.629-1c-.073-.153-.861-.337-1.415-.614-.163-.081-.364-.61-.755-.862l-1.165-.459a3.776,3.776,0,0,0-1.217.572,1.661,1.661,0,0,0-.732.944c-.067.128-1.243,2.9-2.431,3.4" transform="translate(7235 -523.002)"/><path class="d" d="M387.543-111.69a8.444,8.444,0,0,1-8.444,8.444,8.444,8.444,0,0,1-8.443-8.444,8.444,8.444,0,0,1,8.443-8.444,8.445,8.445,0,0,1,8.444,8.444" transform="translate(7235 -523.002)"/><path class="a" d="M380.806-106.1h-3.413v-11.175h3.413V-106.1" transform="translate(7235 -523.002)"/><path class="a" d="M384.686-113.4v3.415H373.512V-113.4h11.173" transform="translate(7235 -523.002)"/></g></svg>