<svg xmlns="http://www.w3.org/2000/svg" width="75.004" height="61.263" viewBox="0 0 75.004 61.263"><defs><style>.a{fill:#5768de;}.b{fill:#b5431d;}.c{fill:#fff;}.d{fill:#e05728;}.e{fill:#7d8aeb;}</style></defs><g transform="translate(-7670.046 810.061)"><path class="a" d="M241.222-221.654l.167.053c.228.075.452.156.671.248,5.105,2.117,6.509,8.739,3.036,13.04-1.064,1.317-2.484,3.179-3.843,4.985a42.44,42.44,0,0,0-6.457,12.469l-.043.133a42.49,42.49,0,0,0-2.052,13.892c.045,2.26.111,4.6.2,6.291.3,5.52-4.707,10.072-10.088,8.807-.229-.055-.46-.119-.688-.193l-.167-.053c-.228-.075-.452-.156-.669-.248-5.107-2.116-6.511-8.739-3.037-13.04,1.064-1.317,2.484-3.179,3.843-4.985a42.468,42.468,0,0,0,6.456-12.469l.044-.135a42.507,42.507,0,0,0,2.052-13.891c-.045-2.26-.111-4.6-.2-6.291-.3-5.521,4.707-10.072,10.087-8.8.231.053.46.116.689.191" transform="translate(7481 -588.002)"/><path class="b" d="M220.379-187.01a18.338,18.338,0,0,1-23.247,2.219c3.08,1.791,10.436-1.773,17.063-8.4s10.195-13.983,8.4-17.063a18.336,18.336,0,0,1-2.219,23.247" transform="translate(7481 -588.002)"/><path class="c" d="M214.2-193.194c-6.627,6.629-13.983,10.193-17.063,8.4l-.283-.187a17.608,17.608,0,0,1-2.429-2.032A18.363,18.363,0,0,1,192-190a5.766,5.766,0,0,0,4.053.037c3.6-.988,8.391-4.06,12.852-8.524s7.537-9.255,8.524-12.852a5.759,5.759,0,0,0-.036-4.053,18.3,18.3,0,0,1,2.989,2.424,17.685,17.685,0,0,1,2.032,2.429l.187.283c1.792,3.08-1.775,10.435-8.4,17.063" transform="translate(7481 -588.002)"/><path class="d" d="M208.9-198.488c-4.461,4.464-9.255,7.536-12.852,8.524A5.766,5.766,0,0,1,192-190a18.274,18.274,0,0,1-1.583-3.024,18.359,18.359,0,0,1,4.007-19.944,18.358,18.358,0,0,1,19.943-4.007,18.25,18.25,0,0,1,3.027,1.583,5.759,5.759,0,0,1,.036,4.053c-.987,3.6-4.06,8.389-8.524,12.852" transform="translate(7481 -588.002)"/><path class="e" d="M260.8-209.47c-4.339-3.424-10.8-1.419-12.864,3.712-.632,1.571-1.563,3.719-2.477,5.785a42.47,42.47,0,0,1-7.735,11.72l-.1.1a42.436,42.436,0,0,1-11.123,8.569c-1.995,1.064-4.071,2.147-5.592,2.892-4.965,2.428-6.495,9.021-2.764,13.1q.24.262.5.507l.129.12.2.173,42.16-46.391-.341-.292" transform="translate(7481 -588.002)"/><path class="a" d="M234.665-171.994a42.474,42.474,0,0,1,7.736-11.72l.1-.1a42.405,42.405,0,0,1,11.125-8.569c1.993-1.063,4.068-2.147,5.589-2.892,4.967-2.428,6.495-9.021,2.764-13.1q-.238-.262-.5-.507l-.128-.12-.2-.172-42.16,46.391.341.291c4.34,3.425,10.8,1.419,12.864-3.711.632-1.572,1.563-3.72,2.477-5.787" transform="translate(7481 -588.002)"/></g></svg>