<svg xmlns="http://www.w3.org/2000/svg" width="10" height="14" viewBox="0 0 10 14"><defs><style>.a{fill:rgba(0,0,0,0.8);}</style></defs><path class="a" d="M9.625,4.25A.375.375,0,0,0,10,3.875V2.625a.375.375,0,0,0-.375-.375H.375A.375.375,0,0,0,0,2.625v1.4A.375.375,0,0,0,.375,4.4H3.04a2.254,2.254,0,0,1,1.905.852H.375A.375.375,0,0,0,0,5.625v1.25a.375.375,0,0,0,.375.375H5.336A2.16,2.16,0,0,1,3,9.082H.375A.375.375,0,0,0,0,9.457v1.657a.375.375,0,0,0,.121.276l5.158,4.761a.375.375,0,0,0,.254.1h2.58a.375.375,0,0,0,.254-.651L3.652,11.247a4.281,4.281,0,0,0,4.322-4h1.65A.375.375,0,0,0,10,6.875V5.625a.375.375,0,0,0-.375-.375H7.791a4.28,4.28,0,0,0-.445-1Z" transform="translate(0 -2.25)"/></svg>