<svg xmlns="http://www.w3.org/2000/svg" width="356.688" height="214.622" viewBox="0 0 356.688 214.622"><defs><style>.a{fill:#d9dbd8;}.b{fill:#af54ad;}.c{fill:#c279d3;}.d{fill:#ffb882;}.e{fill:#ff9566;}.f{fill:#ce3c4e;}.g{fill:#af3a43;}.h{fill:#ffca55;}.i{fill:#ff9f48;}.j{fill:#9968bc;}.k{fill:#7948a3;}.l{fill:#dd3e14;}.m{fill:#ea602a;}.n{fill:#cc3112;}.o{fill:#ffb14a;}.p{fill:#f2d6c0;}.q{fill:#b5682c;}.r{fill:#b55f43;}.s{fill:#ef5222;}.t{fill:#bc3515;}.u{fill:#ff693b;}.v{fill:#ffb96c;}.w{fill:#f9a755;}.x{fill:#662323;}.y{fill:#684159;}.z{fill:#512f46;}.aa{fill:#893131;}.ab{fill:#fffbdd;}.ac{fill:#7d1e23;}.ad{fill:#931f28;}.ae{fill:#a6402e;}.af{fill:#2d4155;}.ag{fill:#763224;}.ah{fill:#ea7b59;}.ai{fill:#b58172;}.aj{fill:#942631;}.ak{fill:#d19d69;}.al{fill:#e5b488;}.am{fill:#b7714e;}.an{fill:#9b3c2f;}.ao{fill:#e5ca9e;}.ap{fill:#f7cdaa;}.aq{fill:#f2d9b1;}.ar{fill:#f9e7c7;}.as{fill:#6d313d;}.at{fill:#822a21;}.au{fill:#9b4b5e;}.av{fill:#682f35;}.aw{fill:#873a45;}.ax{fill:#ffbc45;}.ay{fill:#ffe394;}</style></defs><g transform="translate(-1501.182 -732.74)"><path class="a" d="M510.528-1.333c-98.5,0-178.346-6.386-178.346-14.264,0-7,63.088-12.827,146.291-14.034.847.273,2.47.01,5.08,0,2.781,0,7.558-.23,13.051-.228,3.589,0,7.1-.068,10.924,0h5.181c97.5.093,176.16,6.444,176.16,14.262,0,7.878-79.843,14.264-178.342,14.264" transform="translate(1169 948.695)"/><g transform="translate(-9708 2100)"><path class="b" d="M750.677-144.749c-7.928-5.945-15.193-15.457-15.591-19.552s6.379-34.765,36.728-33.031c4.625.264,18.629,19.819,18.629,19.819l-39.767,32.764" transform="translate(10506 -1168.468)"/><path class="c" d="M771.363-196.445c-16.335-.933-25.068,8.571-29.376,17.141a15.534,15.534,0,0,0,.864,2.041c5.011,9.815,19.285,12.555,31.883,6.12a30.651,30.651,0,0,0,11.513-10.013c-3.661-4.871-11.717-15.108-14.884-15.289" transform="translate(10506 -1168.468)"/><path class="d" d="M836.678-156.128c2.884,10.405.828,23.019-15.463,25.192l-.423,6.229c28.4-5.758,17.768-32.422,17.768-32.422l-1.883,1" transform="translate(10506 -1168.468)"/><path class="e" d="M829.123-133.274a24.188,24.188,0,0,1-7.908,2.34l-.423,6.228a30.949,30.949,0,0,0,10.7-4.089,38.1,38.1,0,0,1-2.372-4.479" transform="translate(10506 -1168.468)"/><path class="f" d="M788.542-172c2.817-8.157,7.7-6.044,9.027-4.452s.672,2.653.672,2.653,2.909-4.112,7.2-1.173c4.311,2.956,4.984,7.9.681,9.583a5.64,5.64,0,0,1,1.211,6.9c-2,4.311-4.4,2.421-4.4,2.421s2.531,2.287.013,6.424c-2.5,4.107-3.687,2.771-3.687,2.771a4.9,4.9,0,0,1-1.029,5.291c-2.341,2.245-6.247.179-6.247.179s1.576,4.313-.74,5.623a6.3,6.3,0,0,1-7.3-.409l4.6-35.812" transform="translate(10506 -1168.468)"/><path class="g" d="M782.647-137.88c-2.773,7.8-7,8.852-10.3,7.8,0,0-6.871,4.094-9.116-1.057,0,0-3.7,2.641-4.888-.264,0,0-4.624,8.586-12.551,1.849s1.188-13.342,1.188-13.342-2.905-.133-1.717-4.493,9.313-4.736,9.313-4.736l28.075,14.248" transform="translate(10506 -1168.468)"/><path class="h" d="M800.893-135.318c6.18.379,11.976,6.919,23.471,2.559l3.271,18.777s-18.431,3.023-24.376-.446-2.365-20.889-2.365-20.889" transform="translate(10506 -1168.468)"/><path class="i" d="M799.927-127.833c-.339,5.176.009,11.468,3.331,13.4,5.945,3.469,24.535.848,24.535.848l-1.868-10.209c-4.028,2.652-21.515,4.2-26-4.043" transform="translate(10506 -1168.468)"/><path class="d" d="M803.875-1.659h.912l18.631-66.4L812.8-71.183l-8.92,69.524" transform="translate(10506 -1168.468)"/><path class="e" d="M812.4-28.779l11.021-39.278L812.8-71.183l-5.519,43.009,5.12-.605" transform="translate(10506 -1168.468)"/><path class="j" d="M808.345-72.878,802.8-35.028l19.42.2,4.857-44.844-18.729,6.795" transform="translate(10506 -1168.468)"/><path class="k" d="M815.771-66.357l10.263-3.723,1.04-9.593-18.729,6.795L802.8-35.028l8.369.085,4.605-31.415" transform="translate(10506 -1168.468)"/><path class="d" d="M787.009-1.659h.853l18.633-66.4-10.624-3.127L787.009-1.659" transform="translate(10506 -1168.468)"/><path class="e" d="M794.413-24.995,806.5-68.056l-10.624-3.127-5.983,46.933,4.524-.745" transform="translate(10506 -1168.468)"/><path class="j" d="M788.733-69.708c0,.594-1.988,36.265-1.988,36.265l19,1.784,3.093-15.061,7.112-4.364,3.713-24.569-30.931,5.945" transform="translate(10506 -1168.468)"/><path class="k" d="M794.03-57.786l32-12.294.876-7.181-39.129,8.152c0,.595-1.036,35.667-1.036,35.667l6.641.624c.1-10.576.663-24.557.644-24.968" transform="translate(10506 -1168.468)"/><path class="k" d="M809.609-46.012,820.8-53.259,804.083-48.1Z" transform="translate(10506 -1168.468)"/><path class="i" d="M785.7-57.7,830.409-75.19s-13.213-49.741-24.575-58.064-28.137,9.226-29.324,12.193C775.585-118.748,785.7-57.7,785.7-57.7" transform="translate(10506 -1168.468)"/><path class="h" d="M822.074-101.976c-.987-2.655-9.381-21.593-9.023-19.35,1.177,7.382-1.631,20.924-14.045,53.579-.5,1.316.044,2.795.121,4.159L829.69-75.547s-3.587-15.574-7.616-26.429" transform="translate(10506 -1168.468)"/><path class="l" d="M811.4-103.825c-2.719,4.263-6.761,7.182-8.109,6.623s.4-4.221-.9-5.145-9.6-2.217-7.1-5.528,11.919-3.287,10.867.72-2.333,6.99-1.545,6.666,4.108-6.371,5.08-6.237,3.448.169,1.705,2.9" transform="translate(10506 -1168.468)"/><path class="m" d="M809.7-106.728c-.617-.085-2.179,2.32-3.441,4.171-.905,1.885-1.135,3.648-.555,4.648a19.713,19.713,0,0,0,5.7-5.916c1.743-2.733-.732-2.767-1.705-2.9" transform="translate(10506 -1168.468)"/><path class="l" d="M803.8-103.1c-2.719,4.264-6.763,7.183-8.109,6.623s.4-4.221-.9-5.144-5.331,0-2.825-3.307,7.644-5.509,6.592-1.5-2.335,6.991-1.545,6.667,4.108-6.372,5.08-6.238,3.448.168,1.705,2.9" transform="translate(10506 -1168.468)"/><path class="m" d="M802.091-106c-.617-.085-2.179,2.32-3.441,4.17-.905,1.884-1.136,3.648-.555,4.648a19.739,19.739,0,0,0,5.7-5.918c1.743-2.733-.732-2.765-1.705-2.9" transform="translate(10506 -1168.468)"/><path class="h" d="M805.834-133.254c-11.363-8.324-28.952,9.627-30.14,12.593-.156.392.821,2.078,1.195,5.263,10.217,2.7,14.049-13.421,28.945-17.856" transform="translate(10505 -1168.468)"/><path class="l" d="M786.117-111.95c4-8.195,17.288-27.96,23.736-18.327,2.741,4.1-1.216,15.814-3.595,17.851-2.7,2.313-22.223,4.736-20.141.476" transform="translate(10506 -1168.468)"/><path class="n" d="M810.215-121.619c.74-3.379.88-6.8-.363-8.659-5.267-7.866-15.089,3.87-20.695,12.9,7.317-5.1,17.507-.96,21.057-4.241" transform="translate(10506 -1168.468)"/><path class="l" d="M806.946-113.25c.869-.1,5.559-2.071,5.3-3.8s-5.713.525-6.135.891c-.985.855.136,2.991.835,2.913" transform="translate(10506 -1168.468)"/><path class="d" d="M829.925-124.164c-10.532,7.2-17.233,9.793-34.229,10.56l-.988,5.684c28.963-1.826,36.527-15.4,36.527-15.4l-1.309-.84" transform="translate(10506 -1168.468)"/><path class="e" d="M800.915-112.536c.173-.507.363-.993.557-1.468-1.793.148-3.709.266-5.783.352l-1,5.681q2.718-.164,5.188-.46a24.835,24.835,0,0,1,1.041-4.105" transform="translate(10506 -1168.468)"/><path class="l" d="M788.193-99.968c-3.828,12.8-13.453,17.609-19.251,12.249s-2.188-9.3,0-11.376-.109-8.421-4.047-3.828-5.907,15.642,4.156,19.36,17.939-3.719,20.455-17.172l-1.313.767" transform="translate(10506 -1168.468)"/><path class="m" d="M767.97-84.016a14.689,14.689,0,0,0,1.469-3.312c-.165-.132-.337-.243-.5-.391-5.8-5.358-2.188-9.3,0-11.376s-.109-8.421-4.047-3.828c-3.789,4.42-5.751,14.814,3.075,18.907" transform="translate(10506 -1168.468)"/><path class="o" d="M776.338-121.157c-1.528-.5-6.544,16.426,3.108,25.279,6.348,5.822,16.393,2.324,16.393,2.324l2.256-20.784c-10.388.16-16.523-5.114-21.757-6.819" transform="translate(10506 -1168.468)"/><path class="h" d="M798.1-114.338c-10.388.16-16.523-5.114-21.757-6.819-.177-.057-.4.128-.644.5a13.206,13.206,0,0,0-.919,4.842c0,7.917,6.667,14.9,14.891,15.6a14.556,14.556,0,0,0,7.016-1.093l1.413-13.029" transform="translate(10506 -1168.468)"/><path class="m" d="M802.87-112.4c.48-.776,1.433-5.671-.683-6.3s-3.269,5.044-3.144,5.577c.292,1.241,3.441,1.345,3.827.721" transform="translate(10506 -1168.468)"/><path class="m" d="M813.982-113.477c.145-.727-.815-4.548-2.955-4.213s-1.072,4.783-.761,5.114c.724.773,3.6-.317,3.716-.9" transform="translate(10506 -1168.468)"/><path class="p" d="M812.507,0h-9.6s.543-3.94,2.353-4.486S812.507,0,812.507,0" transform="translate(10506 -1168.468)"/><path class="p" d="M792.037,0h-7.7s1.721-3.7,3.532-4.219S792.037,0,792.037,0" transform="translate(10506 -1168.468)"/><path class="q" d="M784.85-117.24c-3.291-1.465-6-3.1-8.512-3.917a.241.241,0,0,0-.068-.011c-.163,0-.359.172-.568.49a23.246,23.246,0,0,1,4.672-5.388h-.005a14.151,14.151,0,0,0,12.209-8.039h0a20.131,20.131,0,0,1,4.212-1.159,59.551,59.551,0,0,1-7.747,14.195,35.47,35.47,0,0,1-4.193,3.829" transform="translate(10505 -1168.468)"/><path class="r" d="M780.7-129.029h0l-1.967-3.636a22.936,22.936,0,0,0,9.633-3.2l1.125,1.411c-.439,2.466-5.363,5.233-8.791,5.423" transform="translate(10506 -1168.468)"/><path class="s" d="M806.19-148.58c-2.568.493-5.879,6.713-5.839,10.239l7.9-2.071c-.939-1.735-.609-8.448-2.061-8.168" transform="translate(10506 -1168.468)"/><path class="s" d="M821.254-143.057c1.552,1.415-.053,7.795-2.359,10.657l-4.423-4.8c1.805-1.048,5.9-6.659,6.781-5.86" transform="translate(10506 -1168.468)"/><path class="t" d="M820.562-141.23c1.048.963-.208,5.356-1.876,7.335l-2.971-3.273c1.277-.728,4.253-4.607,4.847-4.061" transform="translate(10506 -1168.468)"/><path class="t" d="M805.319-146.68c-1.508.367-3.451,4.993-3.427,7.615l4.636-1.54c-.551-1.291-.356-6.284-1.209-6.075" transform="translate(10506 -1168.468)"/><path class="s" d="M793.746-136.029c.991,4.425,8.689,12.965,14.069,14.4.991.265,7.7-.935,13.977-5.493,0,0-4.131-12.483-9.656-13.795-6.672-1.587-18.391,4.888-18.391,4.888" transform="translate(10506 -1168.468)"/><path class="u" d="M812.137-140.917c-6.672-1.587-18.391,4.888-18.391,4.888l.065.221c6.281,4.377,20.067,7.937,27.831,8.257-.777-2.185-4.587-12.2-9.505-13.367" transform="translate(10506 -1168.468)"/><path class="v" d="M807.587-128.477c-1.847.718-6.7,1.436-6.513-2.243.1-2.056,4.041-1.387,6.571-.035,2,1.067,2.284,1.365-.057,2.278" transform="translate(10506 -1168.468)"/><path class="w" d="M810.367-127.4c.98,1.729,5.376,5.269,8.147,1.473,1.539-2.108-2.244-3.576-5.429-3.615-2.549-.029-3.968-.067-2.717,2.142" transform="translate(10506 -1168.468)"/><path class="v" d="M811.8-128.014c.741,1.168,3.959,3.586,5.835,1.068,1.043-1.4-1.685-2.42-3.953-2.477-1.816-.045-2.827-.084-1.881,1.409" transform="translate(10506 -1168.468)"/><path class="x" d="M810.935-129.445a3.25,3.25,0,0,1-1.991-.937c-.575.3,1.457,2.128,1.457,2.128s2.411-.881,2.187-1.336a3.626,3.626,0,0,1-1.653.145" transform="translate(10506 -1168.468)"/><path class="d" d="M754.9-144.352c5.945,9.776,23.78,18.1,37.916,5.152s4.373-35.989-2.377-41.22c-10.569-8.192-42.437,24.723-35.539,36.068" transform="translate(10506 -1168.468)"/><path class="y" d="M753.8-148.781c4.1-21.4,24.884-49.475,41.4-50s-1.056,22.195-1.056,22.195c-5.813-4.888-29.461,7.267-40.341,27.808" transform="translate(10506 -1168.468)"/><path class="z" d="M754.526-147.332c4.095-21.4,24.884-49.475,41.4-50s-1.057,22.2-1.057,22.2c-5.812-4.888-29.46,7.267-40.34,27.808" transform="translate(10506 -1168.468)"/><path class="h" d="M769.394-185.136c-5.205,2.707-11.051-4.62-11.051-4.62a17.034,17.034,0,0,1,8.695-3.441s6.884,5.705,2.356,8.061" transform="translate(10506 -1168.468)"/><path class="aa" d="M808.658-131.878s-.633-2.353-5.163-1.312c0,0,2.356-1.179,3.8-.816s1.359,2.128,1.359,2.128" transform="translate(10506 -1168.468)"/><path class="ab" d="M792.51-166.152c-1.5-1.984-3.881-2.707-5.381-1.627-1.541,1.111-1.617,3.729-.1,5.865,1.552,2.183,3.368,1.965,4.9.719a3.255,3.255,0,0,0,.585-4.957" transform="translate(10506 -1168.468)"/><path class="ac" d="M751.673-126.976a9.169,9.169,0,0,1-5.884-2.58c-2.4-2.04-3.237-4.066-3.24-5.9,0-4.229,4.428-7.44,4.428-7.44h0s-2-.092-2-2.617a7.227,7.227,0,0,1,.285-1.876c1.164-4.264,8.965-4.719,9.3-4.736-.044.168-.087.336-.129.5-.056.215-.108.428-.156.639-.071.3-.139.595-.2.889a11.284,11.284,0,0,0-.749,2.121,14.253,14.253,0,0,0-4.155-.767,4.78,4.78,0,0,0-.651.04c-2.447.34-4.688,4.144-1.9,5.435a8.375,8.375,0,0,0,3.456.685,9.461,9.461,0,0,0,3.917-.815,9.648,9.648,0,0,0,1.58,2.2,4.775,4.775,0,0,0-1.131,5.183c.329.791,1.452,1.087,2.849,1.087a19.464,19.464,0,0,0,6.257-1.255,27.653,27.653,0,0,0,2.951,1.491c-1.111,1.315-2.141,2.616-3.072,3.909-.061-.117-.133-.216-.189-.343a.121.121,0,0,0-.005-.013,6.188,6.188,0,0,1-2.935,1.1h-.023a1.959,1.959,0,0,1-1.908-1.311.142.142,0,0,1-.009-.021c0-.01-.009-.021-.013-.032h0a7.709,7.709,0,0,1-.42.663c-.859,1.236-3.011,3.767-6.247,3.767m1.755-15.265a10.1,10.1,0,0,0-4.385,1.356c-1.317.907-1.851,3.323-.215,3.323a2.025,2.025,0,0,0,.245-.016c1.929-.248,4.64-2.008,5.269-3.912.18-.543-.236-.751-.915-.751" transform="translate(10506 -1168.468)"/><path class="r" d="M766.494-134.694a27.65,27.65,0,0,1-2.951-1.491c.871-.34,1.443-.683,1.463-.927.035-.415-.464-1.1-1.135-1.8a3.685,3.685,0,0,0,2-3.613c.029-1.6-.641-3.14-2-3.321-2.716-.363-3.668-1.971-1.765-3.328a6.1,6.1,0,0,0,2.552-5.353,2.758,2.758,0,0,0-.333-.987,4.461,4.461,0,0,0-2.647-2.291q.372-.438.748-.865,2.544-2.83,5.04-5.131c6.969-6.365,14.565-10.592,20.193-11.945a16.7,16.7,0,0,1,3.687-.467h.068a5.668,5.668,0,0,1,3.287.941c.28.463.557.945.828,1.445.488.948.937,1.877,1.363,2.817-1.175,2.057-2.428,4.037-3.741,5.947a4.884,4.884,0,0,0-.636-1.087,4.966,4.966,0,0,0-3.76-2.128,2.735,2.735,0,0,0-1.621.5c-1.541,1.111-1.617,3.729-.1,5.865a3.321,3.321,0,0,0,2.592,1.652q-1.424,1.83-2.895,3.573c-.2-.016-.357-.019-.433-.019h-.055l-.028.427c-.075,0-.117,0-.117,0l-.025.372c-6.848,8.025-14.159,14.8-19.573,21.217m8.332-23.605a3.761,3.761,0,0,0-2.1.627c-2.059,1.367-2.555,4.556-1.015,7.144a3.441,3.441,0,0,0,2.964,1.988,4.772,4.772,0,0,0,2.612-.94,2.032,2.032,0,0,0,.644-.24,2.311,2.311,0,0,0,1.02-1.281,3.827,3.827,0,0,0,.116-4.771,5.216,5.216,0,0,0-4.243-2.527m-.663-7.613s-7.832,3.5-9.291,11.268l2.064.843c.3-1.719,4.227-7.811,9.061-9.4l-1.835-2.712m13.421-7.551a8.074,8.074,0,0,0-4.337,1.364l.976,2.828A6.215,6.215,0,0,1,788.761-171a5.509,5.509,0,0,1,2.839.627l.051-1.683a6.63,6.63,0,0,0-4.065-1.407m-33.309,22.477c.048-.211.1-.424.156-.639-.053.215-.105.425-.156.639" transform="translate(10506 -1168.468)"/><path class="ac" d="M763.871-138.914h0c1.308-.509,1.971-2.088,2-3.612a3.685,3.685,0,0,1-2,3.613m-8.3-2.285a9.652,9.652,0,0,1-1.58-2.2,5.848,5.848,0,0,0,1.988-1.455,6.982,6.982,0,0,0,.419,1.536,6.985,6.985,0,0,0,.756,1.4,3.4,3.4,0,0,0-1.583.712m.357-5.387a7.032,7.032,0,0,0-2.6-1.389,11.285,11.285,0,0,1,.749-2.121,20.443,20.443,0,0,1,1.776-3.059c.3-.395.617-.841.959-1.3a21.952,21.952,0,0,1,2.352-2.595l.032-.028a3.526,3.526,0,0,1,1.775-.795c.045,0,.089,0,.133,0a2.464,2.464,0,0,1,.576.068,4.462,4.462,0,0,1,2.647,2.291,2.756,2.756,0,0,1,.333.987c-.009-.065-.021-.131-.035-.195a10.389,10.389,0,0,0-2.723.676,9.225,9.225,0,0,0-5.972,7.463" transform="translate(10506 -1168.468)"/><path class="ad" d="M748.828-137.562c-1.636,0-1.1-2.416.215-3.323a10.1,10.1,0,0,1,4.385-1.356c.679,0,1.095.208.915.751-.629,1.9-3.34,3.664-5.269,3.912a2.028,2.028,0,0,1-.245.016" transform="translate(10506 -1168.468)"/><path class="ad" d="M763.87-138.916a12.561,12.561,0,0,0-2.877-2.287,7.623,7.623,0,0,0-3.092-.772,4.33,4.33,0,0,0-.751.063,6.985,6.985,0,0,1-.756-1.4,6.986,6.986,0,0,1-.419-1.536c.052-.06.1-.121.149-.183a1.075,1.075,0,0,0-.2-1.552,9.225,9.225,0,0,1,5.972-7.463,10.39,10.39,0,0,1,2.723-.676c.013.064.025.129.035.195a6.1,6.1,0,0,1-2.552,5.353c-1.9,1.357-.951,2.965,1.765,3.328,1.361.181,2.032,1.721,2,3.321-.029,1.524-.692,3.1-2,3.612" transform="translate(10506 -1168.468)"/><path class="ad" d="M750.07-142.582a8.375,8.375,0,0,1-3.456-.685c-2.785-1.291-.544-5.095,1.9-5.435a4.785,4.785,0,0,1,.651-.04,14.253,14.253,0,0,1,4.155.767,7.032,7.032,0,0,1,2.6,1.389,1.075,1.075,0,0,1,.2,1.552c-.048.061-.1.123-.149.183a5.848,5.848,0,0,1-1.988,1.455,9.461,9.461,0,0,1-3.917.815" transform="translate(10506 -1168.468)"/><path class="ae" d="M758.028-136.2c-.884,0-1.595-.187-1.8-.688-.543-1.305-.051-3.767,2.191-3.767a4.826,4.826,0,0,1,1.955.488,7.2,7.2,0,0,1,1.5,1.135c-.044-.025-.084-.047-.119-.063a3.057,3.057,0,0,0-1.239-.309c-1.42,0-1.732,1.56-1.388,2.388.132.317.581.435,1.141.435a4.992,4.992,0,0,0,.517-.028,11.429,11.429,0,0,1-2.76.409" transform="translate(10506 -1168.468)"/><path class="r" d="M760.27-136.581c-.56,0-1.009-.117-1.141-.435-.344-.828-.032-2.388,1.388-2.388a3.058,3.058,0,0,1,1.239.309c.035.016.075.037.119.063.5.3,1.52,1.208,1.489,1.577-.019.241-1.392.723-2.576.845a4.991,4.991,0,0,1-.517.028" transform="translate(10506 -1168.468)"/><path class="af" d="M776.9-149.444a2.764,2.764,0,0,1-2.4-1.684,2.814,2.814,0,0,1,.911-3.723,2.028,2.028,0,0,1,.965-.241,2.21,2.21,0,0,1,.363.031,1.1,1.1,0,0,0-.165,1.287,1.06,1.06,0,0,0,.915.628.767.767,0,0,0,.379-.1.947.947,0,0,0,.451-.885,3.2,3.2,0,0,1,.428.647,3.227,3.227,0,0,1,.207,2.48,2.312,2.312,0,0,1-1.02,1.281,2.032,2.032,0,0,1-.644.24,2,2,0,0,1-.388.037" transform="translate(10506 -1168.468)"/><path class="ad" d="M766.937-153.8l-2.064-.843c1.459-7.769,9.291-11.268,9.291-11.268L776-163.2c-4.835,1.588-8.759,7.68-9.061,9.4" transform="translate(10506 -1168.468)"/><path class="af" d="M790.011-160.765a3,3,0,0,1-1.436-1.268c-.7-1.185-.485-2.535.456-3.021a1.636,1.636,0,0,1,.751-.176,1.932,1.932,0,0,1,.359.035.847.847,0,0,0-.033,1.049,1.05,1.05,0,0,0,.847.535.624.624,0,0,0,.295-.071.675.675,0,0,0,.307-.715,3.112,3.112,0,0,1,.416.539c.053.085.1.172.145.26q-1.034,1.442-2.105,2.833" transform="translate(10506 -1168.468)"/><path class="ad" d="M784.223-169.272l-.976-2.828a8.074,8.074,0,0,1,4.337-1.364,6.63,6.63,0,0,1,4.065,1.407l-.051,1.683a5.509,5.509,0,0,0-2.839-.627,6.215,6.215,0,0,0-4.537,1.729" transform="translate(10506 -1168.468)"/><path class="d" d="M839.333-152.536c-.668-3.176.329-7.619-.515-9.307-.656-1.316-4.283-1.357-4.652-.417s3.509,9.06,3.509,9.06l1.657.664" transform="translate(10506 -1168.468)"/><path class="d" d="M836.137-156.336c-1.375-1.5-4.384-3.161-4.888-3.6s.025-1.089,1.667-.447,1.921,1.355,2.585.689c.732-.733,1.3,4.084.636,3.357" transform="translate(10506 -1168.468)"/><path class="d" d="M835.786-161.65c-.86-1.7-2.857-5.757-3.349-5.479s2.215,6.408,2.215,6.408l1.135-.929" transform="translate(10506 -1168.468)"/><path class="d" d="M837.09-161.908c-.433-1.781-1.425-6.011-1.936-5.824s.7,6.527.7,6.527l1.233-.7" transform="translate(10506 -1168.468)"/><path class="d" d="M839.085-160.665c-.076-1.844-.217-6.217-.751-6.169s-.591,6.535-.591,6.535l1.341-.365" transform="translate(10506 -1168.468)"/><path class="d" d="M826.749-119.156c2.317-2.273,6.6-3.825,7.565-5.445.755-1.261-1.164-4.34-2.155-4.144s-5.744,7.836-5.744,7.836l.333,1.753" transform="translate(10506 -1168.468)"/><path class="d" d="M828.229-123.9c.528-1.968.3-5.395.4-6.057s.932-.566,1.273,1.165-.105,2.347.812,2.548c1.012.223-2.743,3.293-2.487,2.344" transform="translate(10506 -1168.468)"/><path class="d" d="M832.519-127.054c.972-1.64,3.312-5.507,2.812-5.771s-4.207,5.319-4.207,5.319l1.395.452" transform="translate(10506 -1168.468)"/><path class="d" d="M833.438-126.092c1.267-1.325,4.3-4.439,3.865-4.769s-5.123,4.108-5.123,4.108l1.257.661" transform="translate(10506 -1168.468)"/><path class="d" d="M833.465-123.741c1.513-1.059,5.121-3.533,4.793-3.956s-5.824,3.021-5.824,3.021l1.031.935" transform="translate(10506 -1168.468)"/><path class="ag" d="M783.641-144.628l10.537-7.793s1.519,4.949-1.7,8.06c-3.913,3.777-8.835-.267-8.835-.267" transform="translate(10506 -1168.468)"/><path class="ab" d="M784.959-145.056l8.755-6.584a6.176,6.176,0,0,1-2.033,5.827,5.433,5.433,0,0,1-6.721.757" transform="translate(10506 -1168.468)"/><path class="ah" d="M789.126-155.85a4.92,4.92,0,0,0-2.888-.856l-.332,5.184c3.2-.08,4.595-3.16,3.22-4.328" transform="translate(10506 -1168.468)"/><path class="ah" d="M794.334-143.753c-.141-.2-.916.3-1.744,1.137s-1.42,1.72-1.28,1.931.948-.321,1.788-1.181,1.375-1.685,1.236-1.887" transform="translate(10506 -1168.468)"/><path class="aa" d="M816.525-130.419s-.509-1.888-4.139-1.054a5.852,5.852,0,0,1,3.049-.652c1.16.289,1.089,1.706,1.089,1.706" transform="translate(10507 -1168.468)"/><path class="ai" d="M774.677-148.541a3.441,3.441,0,0,1-2.964-1.988c-1.54-2.588-1.044-5.777,1.015-7.144a3.761,3.761,0,0,1,2.1-.627,5.216,5.216,0,0,1,4.243,2.527,3.827,3.827,0,0,1-.116,4.771,3.227,3.227,0,0,0-.207-2.48,3.2,3.2,0,0,0-.428-.647,1.255,1.255,0,0,0-.136-.52,1.063,1.063,0,0,0-.913-.617.768.768,0,0,0-.368.092.763.763,0,0,0-.161.113,2.208,2.208,0,0,0-.363-.031,2.028,2.028,0,0,0-.965.241,2.814,2.814,0,0,0-.911,3.723,2.764,2.764,0,0,0,2.4,1.684,2,2,0,0,0,.388-.037,4.773,4.773,0,0,1-2.612.94" transform="translate(10506 -1168.468)"/><path class="ai" d="M789.621-160.261a3.321,3.321,0,0,1-2.592-1.652c-1.517-2.136-1.441-4.755.1-5.865a2.735,2.735,0,0,1,1.621-.5,4.966,4.966,0,0,1,3.76,2.128,4.884,4.884,0,0,1,.636,1.087q-.51.74-1.029,1.467c-.044-.088-.092-.175-.145-.26a3.113,3.113,0,0,0-.416-.539,1.111,1.111,0,0,0-.159-.429,1.045,1.045,0,0,0-.841-.527.627.627,0,0,0-.288.067.575.575,0,0,0-.127.091,1.932,1.932,0,0,0-.359-.035,1.636,1.636,0,0,0-.751.176c-.941.487-1.153,1.836-.456,3.021a3,3,0,0,0,1.436,1.268c-.131.168-.26.337-.391.5" transform="translate(10506 -1168.468)"/><path class="aj" d="M780.369-126.066l.257-2.959.073,0c3.428-.19,8.352-2.957,8.791-5.423h0l3.06.344h0l.027,0a14.151,14.151,0,0,1-12.209,8.039" transform="translate(10505 -1168.468)"/></g><g transform="translate(-10232 2473)"><path class="ak" d="M1148.272-57.369s7.643,7.12,24.8,4.385,24.651-3.878,30.752,1.461,11.949,17.415,5.339,27.2l-.577,5.784c-7.625-3.813-37.5.995-40.263,3.388s-4.284.615-4.284.615-11.185-3.178-14.364-1.907-18.431-16.4-20.084-21.1,18.685-19.829,18.685-19.829" transform="translate(10818 -1541.468)"/><path class="al" d="M1150.688-52.962c1.185-6.356,3.751-14.635,3.412-16.245s-8.836,5.821-8.836,5.821l5.424,10.424" transform="translate(10817 -1541.468)"/><path class="al" d="M1123.615-52.749c-.864-6.115-3.04-15.492-2.584-17.04s8.54,6.277,8.54,6.277l-5.956,10.763" transform="translate(10817 -1541.468)"/><path class="am" d="M1181.025-.043h-6.016c.761-4.957,12.288-10.464,10.847-16.228-1.169-4.68-9.831-.8-14.407-11.481s-5.847-23.261.635-25.041S1191.9-46.7,1192.8-36.4c.763,8.685-4.595,14.377-1.864,18.261,2.2,3.135-3.729,9.238-9.915,18.092" transform="translate(10817 -1541.468)"/><path class="am" d="M1145.305-.043h-4.956c.141-5.82,6.253-13.527,5.852-16.427-.847-6.111-6.311-8.585-10.516-16.836-3.467-6.8-.2-21.709,10.364-11.6,6.864,6.568,5.168,25.63,4.808,28.863s-4.747,11.986-5.552,16" transform="translate(10817 -1541.468)"/><path class="ak" d="M1148.272-57.369s7.643,7.12,24.8,4.385,24.651-3.878,30.752,1.461,11.949,17.415,5.339,27.2l-.577,5.784c-7.625-3.813-37.5.995-40.263,3.388s-4.284.615-4.284.615-11.185-3.178-14.364-1.907-18.431-16.4-20.084-21.1,18.685-19.829,18.685-19.829" transform="translate(10817 -1541.468)"/><path class="am" d="M1169.592-17.368c17.027-1.317,34.405-6.549,42.016-12.5a16.817,16.817,0,0,1-2.449,5.551l-.076,6.591c-7.625-3.815-38.153.757-40.912,3.152s-4.465.289-4.465.289-11.043-2.812-14.221-1.54-18.244-17.009-19.9-21.712a3.209,3.209,0,0,1,.416-2.37c3.295,10.868,17.659,24.24,39.589,22.542" transform="translate(10817 -1541.468)"/><path class="al" d="M1142.145-52.517c3.385-2.813,6.127-4.852,6.127-4.852s7.643,7.12,24.8,4.385,24.651-3.878,30.752,1.461a23.229,23.229,0,0,1,3.391,3.745,10.078,10.078,0,0,1,.061,1.063c0,9.805-14.192,17.753-31.7,17.753-14.232,0-31.18-13.884-33.425-23.556" transform="translate(10817 -1541.468)"/><path class="ak" d="M1170.336-18.968c2.311-4.951,1.511-13.677-2.935-21.2s-8.016,11.467-8.016,11.467,7.592,16.921,10.951,9.732" transform="translate(10817 -1541.468)"/><path class="ak" d="M1201.221-26.971c-4.069-3.363-6.455-10.521-4.825-17.643s12.036,7.114,12.036,7.114-1.3,15.412-7.211,10.529" transform="translate(10817 -1541.468)"/><path class="am" d="M1205.709-20.243c-5.051-3.508-8.628-11.753-7.608-20.448s14.605,7,14.605,7,.34,18.544-7,13.451" transform="translate(10817 -1541.468)"/><path class="ak" d="M1162.933-.043h-4.959c.389-5.281,6.829-12.276,6.551-14.908-.588-5.547-5.945-7.79-9.8-15.279-3.177-6.169.72-19.7,10.857-10.524,6.584,5.961,4.08,23.26,3.581,26.194s-5.255,10.879-6.229,14.516" transform="translate(10817 -1541.468)"/><path class="ak" d="M1208.185-.043h-4.957c.141-5.82,6.253-13.527,5.852-16.427-.848-6.111-6.312-8.585-10.517-16.836-3.465-6.8-.2-21.709,10.364-11.6,6.864,6.568,5.169,25.63,4.808,28.863s-4.747,11.986-5.549,16" transform="translate(10817 -1541.468)"/><path class="am" d="M1150.73-49.817c1.1,4.992-4.141,20.438-10.915,25.565l-6-6.34,16.913-19.225" transform="translate(10817 -1541.468)"/><path class="ak" d="M1138.992-27.661c-6.527-3.979-15-14.9-16.185-19.962-1.671-7.162,4.3-15.329,5.4-16.007s17.228-1.111,18.584-.009,5.932,10.761,5.847,14.914c-.189,9.344-13.644,21.065-13.644,21.065" transform="translate(10817 -1541.468)"/><path class="al" d="M1147.017-64.2c.512.417,7.127,12.044,6.589,17.188-4.552,14.129-10.695-3.239-16.848-3.239-5.42,0-11.576,2.75-13.451-1.585-1.561-3.6,4.295-12.309,4.824-12.634,1.1-.679,17.528-.829,18.885.271" transform="translate(10817 -1541.468)"/><path class="al" d="M1188.99-88.3s12.56-8.673,22.729,1.5,1.677,32.4-14.255,33.332l-4.407-1.44c13.983-2.881,18.9-13.983,17.88-20.168s-9.829-15.255-21.948-13.22" transform="translate(10817 -1541.468)"/><path class="an" d="M1150.81-58.095c.543-1.546,2.741-9.617,2.565-9.815s-4.128,4.386-4.431,5.045,1.865,4.769,1.865,4.769" transform="translate(10817 -1541.468)"/><path class="an" d="M1124.136-56.641c-.423-1.806-2.425-11.375-2.2-11.575s4.687,5.684,4.948,6.461-2.751,5.113-2.751,5.113" transform="translate(10817 -1541.468)"/><path class="ao" d="M1130.056-47.326c0-1.187,2.129-2.151,4.755-2.151s4.756.963,4.756,2.151-2.129,2.153-4.756,2.153-4.755-.964-4.755-2.153" transform="translate(10817 -1540.468)"/><path class="ap" d="M1144.685-51.153s.409-8.035-3.715-8.106c-2.627-.045-3.035,2.355-6.34,2.264s-2.084-3.261-4.484-2.264-4.573,8.47-4.573,8.47l19.112-.364" transform="translate(10817 -1541.468)"/><path class="al" d="M1131.428-52.086s2.921-4.411.049-7.421l7.953.219c-2.657,1.82-3.505,3.373-2.884,7.228l-5.119-.025" transform="translate(10817 -1541.468)"/><path class="aq" d="M1147.261-46.881c-1.467,1.613-5.548,3.783-6.489,3.58s-7.441-6.182-7.441-6.182a13.213,13.213,0,0,1,1.284-2.521c.331-.2,9.317-.625,10.16-.2,1.213.609,2.931,4.839,2.487,5.327" transform="translate(10817 -1541.468)"/><path class="ar" d="M1144.66-51.807a5.443,5.443,0,0,1,1.643,2.3c-1.708,1.205-4.028,2.313-4.693,2.169-.6-.128-3.575-2.729-5.455-4.413,2.372-.188,7.872-.375,8.505-.057" transform="translate(10817 -1541.468)"/><path class="aq" d="M1123.66-46.881c1.224,1.613,4.72,3.783,5.555,3.58s6.78-6.182,6.78-6.182a13.478,13.478,0,0,0-1.027-2.521c-.281-.2-8.157-.625-8.912-.2-1.091.609-2.767,4.839-2.4,5.327" transform="translate(10817 -1541.468)"/><path class="ar" d="M1126.348-52.025c.695-.388,7.931,0,8.189.187l.108.145c-1.185.879-5.239,3.853-5.893,3.972-.593.107-2.648-.755-4.069-1.661a6.442,6.442,0,0,1,1.665-2.643" transform="translate(10817 -1541.468)"/><path class="al" d="M1154.692-31.452c-1.676-7.448,1.019-13.72,4.855-14.569s8.307,4.5,9.984,11.947-.208,14.964-2.339,15.393-10.823-5.323-12.5-12.771" transform="translate(10817 -1541.468)"/><path class="al" d="M1197.634-35.928c-2.977-7.912-.967-13.049,2.693-14.425s9.039,3.456,12.015,11.368,2.535,18.317-1.237,17.288c-2.384-.652-10.495-6.316-13.471-14.231" transform="translate(10817 -1541.468)"/><path class="as" d="M1139.572-53.213a2.025,2.025,0,0,1-.107-.633c0-.694.3-1.257.679-1.257s.68.563.68,1.257a2.025,2.025,0,0,1-.107.633h-1.145" transform="translate(10817 -1541.468)"/><path class="as" d="M1129.336-53.213a2.022,2.022,0,0,1-.105-.633c0-.694.3-1.257.679-1.257s.679.563.679,1.257a1.987,1.987,0,0,1-.107.633h-1.145" transform="translate(10817 -1541.468)"/><path class="at" d="M1151.709-66.279c.855-.955,1.593-1.715,1.667-1.631a41.9,41.9,0,0,1-1.261,5.321,18.6,18.6,0,0,1-.405-3.691" transform="translate(10817 -1541.468)"/><path class="at" d="M1123.992-65.883a10.73,10.73,0,0,1-.955,4.063,50.524,50.524,0,0,1-1.1-6.4,11.435,11.435,0,0,1,2.053,2.333" transform="translate(10817 -1541.468)"/><path class="ak" d="M1162.933-.043h-7.019s.772-3.149,3.036-3.286c1.48-.088,3.983,3.286,3.983,3.286" transform="translate(10817 -1541.468)"/><path class="am" d="M1144.636-.043h-7.016s.769-3.149,3.033-3.286c1.481-.088,3.983,3.286,3.983,3.286" transform="translate(10817 -1541.468)"/><path class="am" d="M1180.141-.043h-7.016s.771-3.149,3.033-3.286c1.481-.088,3.983,3.286,3.983,3.286" transform="translate(10817 -1541.468)"/><path class="ak" d="M1207.314-.043H1200.3s.769-3.149,3.033-3.286c1.48-.088,3.983,3.286,3.983,3.286" transform="translate(10817 -1541.468)"/><path class="as" d="M1134.291-49.361c.888-.045,2.319-2.256,2.256-2.922s-4.832-.6-5.119-.027,1.623,3.013,2.863,2.949" transform="translate(10818 -1541.468)"/><path class="au" d="M1131.757-52.111l.007-.191c.248-.5,4.389-.557,4.444.021l-.017.137a6.477,6.477,0,0,1-2.256.357,6.693,6.693,0,0,1-2.177-.325" transform="translate(10818 -1541.468)"/></g><g transform="translate(-10168 2475)"><path class="av" d="M1114.653-21.355c7.684.855,13.688,7.072,16.165,12.441l-31.583-.827c.916-4.439,8.873-10.085,15.417-11.615" transform="translate(10739 -1541.468)"/><path class="aw" d="M1109.684-19.281a23.212,23.212,0,0,1,4.8-1.752,18.764,18.764,0,0,1,11.312,6,18.961,18.961,0,0,1-7.533-.1c-3.865-.764-7.045-2.38-8.574-4.148" transform="translate(10739 -1541.468)"/><path class="ax" d="M1097.052-10.345a2.7,2.7,0,0,1,2.48-2.345h30.849a3.189,3.189,0,0,1,2.927,2.767L1135.356,0h-40.439l2.135-10.345" transform="translate(10739 -1541.468)"/><path class="h" d="M1100.491-10.345c.231-1.379,1.059-2.345,2.009-2.345h24.983c1.121,0,2.1,1.14,2.372,2.767L1131.51,0h-32.748l1.728-10.345" transform="translate(10739 -1541.468)"/><path class="ay" d="M1123.569-11.785h6.147a2.986,2.986,0,0,1,2.311,1.055,17.817,17.817,0,0,1-6.447,3.29l-2.011-4.344" transform="translate(10739 -1541.468)"/><path class="ay" d="M1100.232-11.785h18.9l2.437,5.267a37.4,37.4,0,0,1-5.971.472c-7.5,0-13.947-2.127-16.961-5.2a2.609,2.609,0,0,1,1.6-.54" transform="translate(10739 -1541.468)"/></g></g></svg>