<svg xmlns="http://www.w3.org/2000/svg" width="356.688" height="330.844" viewBox="0 0 356.688 330.844"><defs><style>.a{fill:#d9dbd8;}.b{fill:#6d6954;}.c{fill:#edce77;}.d{fill:#f2dd86;}.e{fill:#f9e9a7;}.f{fill:#e26161;}.g{fill:#bf4b5e;}.h{fill:#af374e;}.i{fill:#cad14a;}.j{fill:#baba32;}.k{fill:#b2ad8e;}.l{fill:#9b9679;}.m{fill:#d3cca7;}.n{fill:#dbddbf;}.o{fill:#cec8aa;}.p{fill:#c4bf9b;}.q{fill:#e2cea6;}.r{fill:#eae2be;}.s{fill:#f2ebce;}.t{fill:#dbc7a9;}.u{fill:#d4b594;}.v{fill:#e2cfb7;}.w{fill:#f7ebc6;}.x{fill:#fff1ca;}.y{fill:#ffb882;}.z{fill:#af54ad;}.aa{fill:#933a93;}.ab{fill:#ff9566;}.ac{fill:#ead6a4;}.ad{fill:#fff7d7;}.ae{fill:#fffad9;}.af{fill:#b55f43;}.ag{fill:#ea7b59;}.ah{fill:#6b2720;}.ai{fill:#63443f;}.aj{fill:#c64450;}.ak{fill:#ef8f6f;}.al{fill:#fffbd7;}</style></defs><g transform="translate(-12035.182 1665.482)"><path class="a" d="M510.528-1.333c-98.5,0-178.346-6.386-178.346-14.264,0-7,63.088-12.827,146.291-14.034.847.273,2.47.01,5.08,0,2.781,0,7.558-.23,13.051-.228,3.589,0,7.1-.068,10.924,0h5.181c97.5.093,176.16,6.444,176.16,14.262,0,7.878-79.843,14.264-178.342,14.264" transform="translate(11703 -1333.305)"/><path class="b" d="M51-543.331H49.234l.458,32.849h.853L51-543.331" transform="translate(12106 -996.468)"/><path class="c" d="M67.759-564.421H32.476v24.985H67.759v-24.985" transform="translate(12106 -996.468)"/><path class="d" d="M66.261-564.421H34.88v24.985H66.261v-24.985" transform="translate(12106 -996.468)"/><path class="e" d="M36.009-563.487c1.978,3.4,7.494,5.844,13.994,5.844S62.019-560.088,64-563.487H36.009" transform="translate(12106 -996.468)"/><path class="d" d="M43.913-508.368h12.41c0-5.315-12.41-5.313-12.41,0" transform="translate(12106 -996.468)"/><path class="f" d="M68.821-540.976H31.414v2.083H68.821v-2.083" transform="translate(12106 -996.468)"/><path class="g" d="M96.7-608.068c-10.6-7.609-16.939-17.1-15.624-32.88.271-3.26,5.3-4.348,5.3-4.348s-1.631-12.363,5.3-16.167,11.549-1.631,11.549-1.631,4.568-7.933,13.45-5.435c4.348,1.223,4.076,5.977,4.076,5.977s5.843-2.037,11.141,6.657,3.4,18.613,3.4,18.613,5.228,8.72-.271,23.776c-4.394,12.029-14.267,15.217-14.267,15.217s6.431-20.036-1.087-25.471C105.916-633.7,96.7-608.068,96.7-608.068" transform="translate(12106 -996.468)"/><path class="h" d="M135.289-637.28a30.206,30.206,0,0,0-.505-11.5c-3.316,9.112-14.864,14.273-26.986,11.663-11.514-2.48-19.671-11.137-19.837-20.285-2.506,5.088-1.582,12.1-1.582,12.1s-5.027,1.088-5.3,4.348c-1.315,15.776,5.027,25.271,15.624,32.88,0,0,9.213-25.628,22.961-15.689,7.517,5.435,1.087,25.471,1.087,25.471s9.873-3.188,14.266-15.217c5.5-15.056.271-23.776.271-23.776" transform="translate(12106 -996.468)"/><path class="i" d="M142.68-524.875c1.665-16.4-6.857-55.345-13.158-60.1s-4.207,22.255-2.342,33.531a150.7,150.7,0,0,1,2.217,23.675c-.11,2.565,12.657,9.052,13.282,2.892" transform="translate(12106 -996.468)"/><path class="j" d="M127.18-551.441a124.345,124.345,0,0,1,1.4,24.277c-.075,1.736,6.561,4.659,10.528,4.853.519-17.2-6.491-51.335-12.392-62.12-2.671,4.752-1.031,23.936.467,32.989" transform="translate(12106 -996.468)"/><path class="i" d="M76.356-523.548c-2.143-16.667,6.034-56.492,12.211-61.4s4.858,22.587,3.315,34.077a154.964,154.964,0,0,0-1.539,24.105c.184,2.608-13.183,9.475-13.987,3.216" transform="translate(12106 -996.468)"/><path class="j" d="M93.66-583.275C87.715-578.117,78.269-539.225,80.1-521c4.2-.227,10.832-3.159,10.707-4.937a143.481,143.481,0,0,1,1.075-24.928c1.217-9.06,4.406-27.176,1.778-32.405" transform="translate(12106 -996.468)"/><path class="j" d="M93.977-508.48v-42.713l30.339-4.347,8.065,48.005-38.4-.945" transform="translate(12106 -996.468)"/><path class="i" d="M129.742-508.136c-.134-9.18-7.4-15.223-16.518-15.223-8.9,0-16.285,5.692-16.756,14.564l33.273.659" transform="translate(12106 -996.468)"/><path class="k" d="M40.628-432.991l-23.1-2.989L0-414.408l2.315,63.751h41.3l-2.989-82.333" transform="translate(12106 -996.468)"/><path class="l" d="M40.628-432.991,29.669-414.94l-1.088,64.283H43.617l-2.989-82.333" transform="translate(12106 -996.468)"/><path class="m" d="M29.849-414.26l10.779-18.731-23.1-2.989L0-414.408l.006.148H29.849" transform="translate(12106 -996.468)"/><path class="n" d="M233.977-564.317H180.568L155.421-511.68l51.508,1.861,28.165-53.145-1.117-1.353" transform="translate(12106 -996.468)"/><path class="o" d="M182.126-562.277l-22.811,50.6,50.508,3.04,25.332-54.324-53.029.687" transform="translate(12106 -996.468)"/><path class="p" d="M235.155-562.964l-53.029.687-18.575,41.2Z" transform="translate(12106 -996.468)"/><path class="p" d="M212.331-514.664,119.6-512.533l-.113,3.723h91.691l1.149-5.853" transform="translate(12106 -996.468)"/><path class="n" d="M160.233-514.256,119.6-512.533l-.113,3.723h40.471l.271-5.445" transform="translate(12106 -996.468)"/><path class="q" d="M38.78-350.658H210.042V-503.912H38.78Z" transform="translate(12106 -996.468)"/><path class="r" d="M43.8-350.658h162.62V-503.912H43.8Z" transform="translate(12106 -996.468)"/><path class="s" d="M189.988-503.912H117.006L58.834-350.658h72.982l58.172-153.254" transform="translate(12106 -996.468)"/><path class="t" d="M43.8-478.671v-23.475h72.537l-4.9,12.92A294.109,294.109,0,0,0,43.8-478.671" transform="translate(12106 -996.468)"/><path class="u" d="M210.042-478.476q-1.794-.522-3.624-1.021v-22.648h3.624v23.669" transform="translate(12106 -996.468)"/><path class="t" d="M206.418-479.5c-7.512-2.056-15.429-3.829-23.691-5.289l6.589-17.359h17.1V-479.5" transform="translate(12106 -996.468)"/><path class="v" d="M182.728-484.787a323.873,323.873,0,0,0-56.143-4.772q-7.668,0-15.154.333l4.9-12.92h72.982l-6.589,17.359" transform="translate(12106 -996.468)"/><path class="w" d="M213.174-509.617H35.646v14.945H213.174v-14.945" transform="translate(12106 -996.468)"/><path class="i" d="M87.682-537.9c-3.7-3.379-.589-44.273,1.042-46.991s18.749-9.783,21.467-9.511,18.885,8.152,19.359,9.459c.594,1.636,4.7,42.495,2.258,45.484s-37.875,7.265-44.125,1.559" transform="translate(12106 -996.468)"/><path class="x" d="M120.076-590.364c-4.247-2.048-8.592-4.379-9.885-4.508-1.55-.156-7.786,2.553-13.16,5,6.944,16.723,14.519,37.227,14.519,37.227l8.527-37.723" transform="translate(12106 -996.468)"/><path class="y" d="M118.365-591.176c-3.649-1.7-7.055-3.584-8.174-3.7-1.4-.14-6.6,2.136-11.547,4.285,6.267,15.469,12.363,31.967,12.363,31.967l7.359-32.556" transform="translate(12106 -996.468)"/><path class="h" d="M91.792-602.721c-5.272-5.212-11.383-22-10.2-30.115l9.013,10.455c-1.523,6.129-.418,13.132,1.183,19.66" transform="translate(12106 -996.468)"/><path class="z" d="M128.577-535.995c8.7-3.441,18.31,3.289,18.018,10.735l-3.319-1.752,1.505,4.621s-15.423,3.859-19.092-8.4l2.887-5.208" transform="translate(12106 -996.468)"/><path class="aa" d="M144.782-522.391l-1.505-4.621,3.319,1.752c.007-.169-.019-.335-.021-.5a25.2,25.2,0,0,0-6.856-4.189c-5.333-2.228-10.62-2.539-13.864-1.129l-.164.3c3.669,12.255,19.092,8.4,19.092,8.4" transform="translate(12106 -996.468)"/><path class="z" d="M92.731-528.273c-4.506,8.447-16.054,10.009-21.149,4.575l3.577-1.132-4.347-2.175S78.9-540.695,90.2-534.7l2.536,6.431" transform="translate(12106 -996.468)"/><path class="aa" d="M90.842-533.065c-1.192,3.012-4.849,6.179-9.769,8.069a20.643,20.643,0,0,1-9.321,1.452c5.173,5.236,16.52,3.631,20.98-4.729l-1.89-4.792" transform="translate(12106 -996.468)"/><path class="y" d="M80.209-522.933c3.822,1.089,53.205-15.269,53.205-15.269l.313-1.376s-45.376,2.856-49.769,4.515-8.3,10.835-3.749,12.131" transform="translate(12106 -996.468)"/><path class="ab" d="M125.271-537.353a49.543,49.543,0,0,1-10.108-.943c-11.794.875-25.645,2.035-30.091,2.943.146,0,.289-.007.435-.007,6.878,0,12.455,1.845,12.455,4.121s-9.064,2.4-15.942,2.4c-1.251,0-2.341,0-3.291-.025-.958,2.664-.8,5.283,1.479,5.931,3.44.981,43.779-12.171,51.812-14.811a56.465,56.465,0,0,1-6.75.391" transform="translate(12106 -996.468)"/><path class="y" d="M138.632-525.533c-3.675,1.377-51.477-11.759-51.477-11.759l-.242-1.22s44.138.956,48.307,2.329,7.788,9.011,3.412,10.649" transform="translate(12106 -996.468)"/><path class="ab" d="M135.22-536.183a5.7,5.7,0,0,0-.684-.161c2.1,2.889,2.991,6.661.245,7.827-2.906,1.235-35.189-6.172-47.693-9.113l.067.339s48.436,13.924,52.111,12.548c4.376-1.64.124-10.067-4.045-11.439" transform="translate(12106 -996.468)"/><path class="j" d="M103.229-557.759H90.494l-.909,10.189,15.307-.324-1.663-9.865" transform="translate(12106 -996.468)"/><path class="j" d="M98.6-562.519H95.317l-.234,6.8,3.944-.216-.428-6.585" transform="translate(12106 -996.468)"/><path class="x" d="M102.514-558.868H91.1l-.815,10.189L104-549l-1.491-9.865" transform="translate(12106 -996.468)"/><path class="k" d="M18.9-432.5,8.328-417.915H26.6l8.18-12.288L18.9-432.5" transform="translate(12106 -996.468)"/><path class="ac" d="M94.739-558.344H91.551l-.228,6.423,3.831-.2-.416-6.219" transform="translate(12106 -996.468)"/><path class="ad" d="M182.017-459.911H66.8v42.752H182.017v-42.752" transform="translate(12106 -996.468)"/><path class="ae" d="M173.593-509.617H79.938l-4.709,14.945h93.655l4.709-14.945" transform="translate(12106 -996.468)"/><path class="af" d="M108.152-571.636q-1.054,0-2.09-.076c-2.143-5.588-4.766-12.324-7.42-18.875,1.587-.689,3.2-1.392,4.706-2.024l6.389,4.011,5.253-4.076-.006-.136c1.056.521,2.206,1.088,3.38,1.636l-4.277,18.919a28.537,28.537,0,0,1-5.936.621" transform="translate(12106 -996.468)"/><path class="af" d="M109.737-588.6l-6.389-4.011v-.043l-.223-19.044h11.05l.806,18.824,0,.061.006.136-5.253,4.076" transform="translate(12106 -996.468)"/><path class="y" d="M109.928-593.279c-6.946-3.232-14.008-9.116-16.156-14.913-3.218-8.683-1.8-34.141,3.081-38.124a18.757,18.757,0,0,1,22.63,0c5.025,3.8,6.314,32.755,4.167,38.124-2.717,6.793-13.722,14.913-13.722,14.913" transform="translate(12106 -996.468)"/><path class="y" d="M90.586-619.636c-.2-3.392-.644-8.292-3.091-7.929-2.021.3-3.455,4.5-.484,9.239,1.408,2.244,4,5.759,3.575-1.309" transform="translate(12106 -996.468)"/><path class="ag" d="M88.938-620.249c-.148-2.271-.435-5.559-1.67-5.412-1.02.121-1.692,2.873-.125,6.149.743,1.552,2.1,4,1.795-.737" transform="translate(12106 -996.468)"/><path class="y" d="M125.94-619.636c.2-3.392.645-8.292,3.091-7.929,2.021.3,3.455,4.5.484,9.239-1.408,2.244-4,5.759-3.575-1.309" transform="translate(12106 -996.468)"/><path class="ag" d="M127.588-620.249c.148-2.271.435-5.559,1.67-5.412,1.02.121,1.692,2.873.124,6.149-.743,1.552-2.1,4-1.795-.737" transform="translate(12106 -996.468)"/><path class="o" d="M203.4-535.533c2.183-2.4,2.528-4.823.773-5.42s-4.947.859-7.128,3.255-2.528,4.821-.773,5.419,4.947-.859,7.128-3.253" transform="translate(12106 -996.468)"/><path class="ah" d="M102.071-609.784l12.634-.512s-1.631,7.357-6.19,6.976-6.444-6.464-6.444-6.464" transform="translate(12106 -996.468)"/><path class="ai" d="M119.3-623.858c.122-2.311-.911-4.287-2.315-4.416s-2.636,1.656-2.76,3.973.91,4.292,2.308,4.412,2.641-1.651,2.766-3.969" transform="translate(12106 -996.468)"/><path class="ai" d="M102.807-623.832c-.115-2.327-1.271-4.183-2.6-4.161s-2.3,1.931-2.179,4.257,1.277,4.188,2.6,4.159,2.294-1.932,2.182-4.255" transform="translate(12106 -996.468)"/><path class="ai" d="M95.537-624.366s3.753-2.971,7.465-2.612c0,0-1.1-1.583-3.752-.995s-3.714,3.607-3.714,3.607" transform="translate(12106 -996.468)"/><path class="ai" d="M121.27-625.969s-4.171-2.768-7.934-2.228c0,0,.961-1.639,3.731-1.188s4.2,3.416,4.2,3.416" transform="translate(12106 -996.468)"/><path class="aj" d="M95.492-632.017l-.271-.565c1.87-3.1,6.144-4.184,8.2-4.012l.234,1.553a10.292,10.292,0,0,0-8.161,3.024" transform="translate(12106 -996.468)"/><path class="aj" d="M122.061-630.844c-2.793-2.972-7.929-4.088-9.171-4.115l.088-1.564a16.265,16.265,0,0,1,9.415,5.165l-.332.513" transform="translate(12106 -996.468)"/><path class="ak" d="M110.383-614.815l-.022.135a2.367,2.367,0,0,1-2.744,1.135,1.979,1.979,0,0,1-1.379-1.065,1.679,1.679,0,0,0,1.458,2,2.368,2.368,0,0,0,2.748-1.131,1.353,1.353,0,0,0-.061-1.077" transform="translate(12106 -996.468)"/><path class="al" d="M112.96-607.663a13.8,13.8,0,0,0,.8-2.331l-10.822.44a11.665,11.665,0,0,0,1.4,2.789l8.622-.9" transform="translate(12106 -996.468)"/><path class="y" d="M94.973-536.492c-3.064-.264-7.081,1.153-8.779.56-1.321-.461-1.866-3.812-1.038-4.26s8.965,2.24,8.965,2.24l.853,1.46" transform="translate(12106 -996.468)"/><path class="y" d="M90.973-539.028c-1.6-1.1-3.569-3.7-4.051-4.124s-1.016.147-.184,1.593,1.534,1.628,1,2.316c-.584.76,4,.747,3.231.215" transform="translate(12106 -996.468)"/><path class="y" d="M85.95-538.76c-1.714-.605-5.784-2-5.592-2.489s6.3,1.336,6.3,1.336l-.713,1.153" transform="translate(12106 -996.468)"/><path class="y" d="M85.892-537.524c-1.728-.2-5.822-.651-5.72-1.143s6.205-.077,6.205-.077l-.485,1.22" transform="translate(12106 -996.468)"/><path class="y" d="M128.636-538.136c2.589.092,5.741,1.961,7.236,1.571,1.165-.305,2.079-3.561,1.451-4.1s-7.776,1.183-7.776,1.183l-.91,1.348" transform="translate(12106 -996.468)"/><path class="y" d="M132.317-540.185a32.367,32.367,0,0,0,3.94-3.616c.46-.36.827.261-.064,1.6s-1.5,1.435-1.156,2.179c.383.819-3.437.276-2.72-.161" transform="translate(12106 -996.468)"/><path class="y" d="M136.464-539.34c1.511-.4,5.093-1.315,5-1.819s-5.437.595-5.437.595l.436,1.224" transform="translate(12106 -996.468)"/><path class="y" d="M136.342-538.108c1.467,0,4.939.028,4.921-.472s-5.157-.793-5.157-.793l.236,1.265" transform="translate(12106 -996.468)"/></g></svg>