<svg xmlns="http://www.w3.org/2000/svg" width="359.954" height="329.242" viewBox="0 0 359.954 329.242"><defs><style>.a{fill:#dd4528;}.b{fill:#ed633e;}.c{fill:#f9744b;}.d{fill:#fcc995;}.e{fill:#f2b47c;}.f{fill:#ffdcb6;}.g{fill:#593a41;}.h{fill:#ff9364;}.i{fill:#ddceb8;}.j{fill:#efebda;}.k{fill:#ffb882;}.l{fill:#ea7b59;}.m{fill:#c6a08d;}.n{fill:#5d5263;}.o{fill:#887793;}.p{fill:#efe9d0;}.q{fill:#ead9b7;}.r{fill:#f3e9d5;}.s{fill:#dfc698;}.t{fill:#d16189;}.u{fill:#bf4979;}.v{fill:#d4b47f;}.w{fill:#ffba55;}.x{fill:#684555;}.y{fill:#4c2f3d;}.z{fill:#5b302c;}.aa{fill:#4c241e;}.ab{fill:#ffeadc;}.ac{fill:#d9dbd8;}.ad{fill:#8ea39f;}.ae{fill:#6d5c57;}.af{fill:#c7ddda;}.ag{fill:#daefeb;}.ah{fill:#9dbab5;}.ai{fill:#daedea;}.aj{fill:#a4bcb8;}</style></defs><g transform="translate(-1508.182 -654.12)"><g transform="translate(-10013 2330)"><path class="a" d="M941.2-28.871c-.159-9.782-6.248-7.2-5.977,1.223S938.755-4.686,948.538-5.5l.408-1.767c-10.325-.815-7.585-11.82-7.745-21.6" transform="translate(10760 -1492.468)"/><path class="b" d="M943.816,0h54.065S987.714-54.912,987.2-60.167s1.187-27.117,1.187-27.117L959.918-86.1s-1.431,21.131-3.343,25.273C947.036-40.168,942.97-19.321,943.816,0" transform="translate(10760 -1492.468)"/><path class="a" d="M969.122-53.956l1.436,29.282L968.239,0h19.789l-6.175-26.662L980.682-55.4l-4.247-2.724-7.313,4.171" transform="translate(10760 -1492.468)"/><path class="a" d="M954.842-47.4l-1.193,25.724L950.35,0h12.861l-2.077-23.421,1.325-25.248L959.9-51.062,954.842-47.4" transform="translate(10760 -1492.468)"/><path class="a" d="M997.862,0h.02l-.031-.168Z" transform="translate(10760 -1492.468)"/><path class="a" d="M974.3-46.643c6.595.784,15.349,10.847,19.36,23.635-2.86-15.72-6.171-34.219-6.456-37.159-.509-5.253,1.187-27.117,1.187-27.117L959.918-86.1s-1.431,21.131-3.343,25.273C947.036-40.168,942.97-19.321,943.816,0h9.341C951.1-24.765,963.43-47.935,974.3-46.643" transform="translate(10760 -1492.468)"/><path class="b" d="M943.194,0h13.768s-2.467-46.191-8.083-40.3c-4.755,4.985-7.541,31-5.685,40.3" transform="translate(10760 -1492.468)"/><path class="b" d="M961.212,0H949.727s2.557-4.473,7.492-3.8c4.18.568,4.087,3.247,3.993,3.8" transform="translate(10760 -1492.468)"/><path class="b" d="M952.5-51.1c-4.159-21.139,2.625-41.832,6.864-45.083l1.779,4.321s-3.9,3.832,1.523,28.661c3.811,17.449-8.132,22.438-10.165,12.1" transform="translate(10760 -1492.468)"/><path class="c" d="M960.7-95.784l-1.331-.4c-6.1,3.685-11.388,23.822-7.229,44.96a8.682,8.682,0,0,0,2.261,4.2c2.237-2.376,3.651-7.807,1.747-16-5.053-21.752,2.016-30.451,4.552-32.767" transform="translate(10760 -1492.468)"/><path class="b" d="M988.9-96.181c-2.607-4-9.6-5.975-15-6.356s-14.364,5.593-15.572,7.183,0,11.059,1.844,19.193l26.82.954s4.513-16.969,1.908-20.973" transform="translate(10760 -1492.468)"/><path class="b" d="M994.2-52.344c5.111-21.28-.181-41.673-7.1-45.384l-2.108,4.351s6.8,5.2.18,30.2c-4.652,17.565,6.531,21.241,9.031,10.835" transform="translate(10760 -1492.468)"/><path class="c" d="M986.483-98.622l-1.193,1.887c6.093,6.387,11.885,25.885,7.763,46.247a13.508,13.508,0,0,1-.553,1.976,10.25,10.25,0,0,0,1.7-3.832c5.111-21.28,2.228-40.111-7.719-46.279" transform="translate(10760 -1492.468)"/><path class="c" d="M988.412-96.986c-2.84-3.444-9.335-5.161-14.416-5.507-5.343-.361-14.2,5.32-15.4,6.832l-.067.125c.761,6.995,7.143,12.456,14.9,12.456,8.273,0,14.98-6.205,14.98-13.861l0-.045" transform="translate(10760 -1492.468)"/><path class="d" d="M957.122-78.556c-.816,6.052,4.415,16.791,7.38,17.892s12.28-14.416,12.7-18.061-.747-5.625-3.12-6.3-16.369,2.068-16.963,6.473" transform="translate(10760 -1492.468)"/><path class="e" d="M977.063-81.976c-.012.305-.023.609-.061.941-.424,3.644-9.807,18.62-12.771,17.519-2.4-.891-6.233-7.268-7.179-13.375.128,6.279,4.643,15.971,7.357,16.979,2.965,1.1,12.372-15.168,12.795-18.813a8.781,8.781,0,0,0-.141-3.251" transform="translate(10760 -1492.468)"/><path class="f" d="M974.428-84.429a4.843,4.843,0,0,0-.788-.29c-2.276-.621-15.629,2.155-16.149,6.375a10.187,10.187,0,0,0-.056,1.421,28.317,28.317,0,0,0,6.413-.957c5.673-1.488,10.008-4.244,10.58-6.549" transform="translate(10760 -1492.468)"/><path class="d" d="M992.132-78.556C992.816-72.5,988.6-61.9,986.1-60.8S975.6-75.08,975.243-78.725s.629-5.625,2.624-6.3,13.767,2.068,14.265,6.473" transform="translate(10760 -1492.468)"/><path class="e" d="M986.172-63.584c-2.493,1.1-10.437-14.351-10.793-17.993-.013-.132-.012-.247-.02-.373a10.5,10.5,0,0,0-.116,3.225C975.6-75.08,983.51-58.81,986-59.912c2.379-1.051,6.411-11.548,6.18-17.767-.739,6.144-3.969,13.192-6.012,14.095" transform="translate(10760 -1492.468)"/><path class="e" d="M977.832-75.19s-2.429-4.84-.713-8.223l-4.08-.662c3.035,2.535,3.035,5.932,2.039,8.965l2.755-.08" transform="translate(10760 -1492.468)"/><path class="f" d="M978.722-84.6a3.129,3.129,0,0,0-1.6,1.182,15.7,15.7,0,0,0,2.275,2.072c4.252,3.191,9.381,4.1,12.019,2.365-.7-3.839-10.936-6.217-12.691-5.62" transform="translate(10760 -1492.468)"/><path class="g" d="M976-81.69c-1.652-.572-4.764-2.605-4.576-3.751s7.881-1.271,8.58.064-4,3.687-4,3.687" transform="translate(10760 -1492.468)"/><path class="e" d="M970.186-70.805c.559,5.607,10.643,5.127,11.279,1.448s-3.115-12.2-5.276-11.809-6.321,7.167-6,10.361" transform="translate(10760 -1492.468)"/><path class="d" d="M971.9-73.881c.408,3.679,7.8,3.362,8.271.949s-2.284-8-3.868-7.744-4.636,4.7-4.4,6.795" transform="translate(10760 -1492.468)"/><path class="g" d="M983.908-89.1a2.014,2.014,0,0,0-1.88-2.128,2.014,2.014,0,0,0-1.88,2.128,2.015,2.015,0,0,0,1.88,2.128,2.015,2.015,0,0,0,1.88-2.128" transform="translate(10760 -1492.468)"/><path class="h" d="M977.242-90.329a77.1,77.1,0,0,0,9.2,2.233c.461.025,2.7-2.672-.156-4.109s-14.521.088-9.043,1.876" transform="translate(10760 -1492.468)"/><path class="g" d="M965.29-88.312a2.014,2.014,0,0,1,1.727-2.253,2.012,2.012,0,0,1,2.023,1.992,2.014,2.014,0,0,1-1.727,2.254,2.014,2.014,0,0,1-2.023-1.992" transform="translate(10760 -1492.468)"/><path class="h" d="M971.855-90a76.911,76.911,0,0,1-9.021,2.871c-.459.057-2.88-2.478-.132-4.111s14.493-.925,9.153,1.24" transform="translate(10760 -1492.468)"/></g><g transform="translate(-8783 1923)"><path class="i" d="M1128.509-492.357c6.8,5.16,11.984,7.705,15.723,7.607s11.189,1.388,11.744,2.169,2.336,3.557,2.336,3.557l-44.965-.159s11.487-15.964,15.163-13.175" transform="translate(9438 -600.468)"/><path class="j" d="M1129.163-491.865c-9.913,10.9-15.587,20.913-21.181,36.668,0,0-35.124.348-46.755,3.115-13.033,3.1-39.212,1.469-39.212,1.469s8.4-11.84,7.992-36.069c-.057-3.465,29.695,2.98,45.069.713s31.964-6.948,36.539-10.705c2.363-1.941,14.175,1.231,17.548,4.809" transform="translate(9438 -600.468)"/></g><g transform="translate(-9961 2163)"><path class="k" d="M953.808-615.294c-5.767-3.349-10.883-9.116-9.58-12.557s6.047-4.187,7.813-1.955,1.767,14.512,1.767,14.512" transform="translate(10574 -836.468)"/><path class="l" d="M953.891-617.356c-4.339-2.34-8.252-6.369-7.368-8.773s4.372-2.925,5.728-1.365,1.64,10.139,1.64,10.139" transform="translate(10574 -836.468)"/><path class="k" d="M953.235-618.8c-2.741-1.592-5.173-4.333-4.553-5.968s2.873-1.989,3.713-.929.84,6.9.84,6.9" transform="translate(10574 -836.468)"/><path class="k" d="M984.782-613.777c6.607-2.756,12.721-7.988,11.612-11.545s-6.223-4.773-8.357-2.728-3.255,14.273-3.255,14.273" transform="translate(10574 -836.468)"/><path class="l" d="M986.486-617.141c4.157-1.736,8.007-5.028,7.309-7.267s-3.917-3-5.261-1.716-2.048,8.983-2.048,8.983" transform="translate(10574 -836.468)"/><path class="k" d="M986.2-617.118c2.863-1.44,5.428-3.969,4.82-5.523s-2.931-1.935-3.819-.953-1,6.476-1,6.476" transform="translate(10574 -836.468)"/><path class="m" d="M988.6-449.651H951.483v46.969H988.6v-46.969" transform="translate(10574 -836.468)"/><path class="n" d="M997.172-353.126h-1.311L966.7-485.935l25.805-2.576,4.667,135.385" transform="translate(10574 -836.468)"/><path class="o" d="M995.862-353.126h1.311l-1.053-30.557a22.98,22.98,0,0,0-6.472,2.253l6.215,28.3" transform="translate(10574 -836.468)"/><path class="n" d="M940.322-353.126h1.395L964.6-480.289l-27.627-2.467,3.349,129.63" transform="translate(10574 -836.468)"/><path class="o" d="M943.567-379.212c-1.324,0-2.631.039-3.917.105l.672,25.981h1.395l4.684-26.028c-.935-.035-1.877-.059-2.833-.059" transform="translate(10574 -836.468)"/><path class="p" d="M930-396.048l32.989,1.8,4.4-44.788,5.632,44.581,33.157-2.92L1000.6-516.52s2.512-64.748.557-67.4-30.416-10.349-34.044-11.145-35.719,9.553-37.673,12.207,3.071,72.708,3.071,72.708L930-396.048" transform="translate(10574 -836.468)"/><path class="q" d="M933.146-395.876c-.024-1.141-.04-2.289-.04-3.444,0-39.319,17.4-90.862,33.421-100.177,28.985-16.845,33.695,60.858,33.695,100.177,0,.811-.016,1.612-.029,2.416l5.987-.471L1000.6-516.52s2.511-64.748.557-67.4a4.26,4.26,0,0,0-1.339-.937c.083,1.629.135,3.269.135,4.931,0,32.116-11.46,47.675-30.707,47.191s-38.992-16.829-38.992-48.945c0-.619.017-1.229.029-1.843a3.242,3.242,0,0,0-.844.665c-1.953,2.653,3.071,72.708,3.071,72.708L930-396.048l3.149.172" transform="translate(10574 -836.468)"/><path class="r" d="M932.18-495.268l.261-11.869h0l-.261,11.869h0" transform="translate(10574 -836.468)"/><path class="s" d="M932.18-495.268l.261-11.869c7.432-1.408,25.821-9.183,35.961-13.617h0l.052-.023c2.5-1.1,4.5-1.984,5.692-2.52,9.351,3.591,20.431,7.611,26.555,9l.244,5.2q-5.766-.534-11.728-.543c-21.431,0-41.191,5.356-57.037,14.373" transform="translate(10574 -836.468)"/><path class="t" d="M984.022-590.411a96.507,96.507,0,0,0-16.819-5.444c-1.651-.361-9.3,1.3-17.211,4.853l17.769,39.609,16.26-39.019" transform="translate(10574 -836.468)"/><path class="u" d="M951.143-591.507l4.516-1.963,23.3.748,4.055,1.861-10.975,7.892-4-5.581-1.488-.093-4.465,5.675-10.944-8.539" transform="translate(10574 -836.468)"/><path class="k" d="M981.623-545.585l4.255,11.789c-2.793.369-7.257,1.989-8.448,2.923l-5.145-7.673s6.885-3.141,9.339-7.039" transform="translate(10574 -836.468)"/><path class="k" d="M979.935-542.109c.48-.861.129-2.3,1.544-3.945,4.269-4.967,5.021-9.371,5.937-9.545,1.333-.255,2.984.6,3.167,1.319s-4.123,7.129-3.071,7.375c1.733.405,4.933-1.72,5.764-1.469,1.811.548,1.38,8.507.972,10.629s-6.017,5.067-10.717,4.32c-1.723-.275-3.6-8.683-3.6-8.683" transform="translate(10574 -836.468)"/><path class="k" d="M992.565-540.748c.127,1.94.415,4.179-4.04,6.939,2.985-.833,5.968-2.509,6.235-3.891.409-2.123.812-10.217-1-10.765-.081-.025-4.732,2.237-4.853,2.255,1.637,2.252,3.468,2.529,3.659,5.463" transform="translate(10574 -836.468)"/><path class="k" d="M990.055-547.324a4.92,4.92,0,0,1-2.543.417c-1.052-.245,3.255-6.652,3.071-7.375s-1.833-1.573-3.167-1.319c-.916.175-1.668,4.579-5.937,9.545-2.327,2.707-1.635,5.731-.815,8.287a5.9,5.9,0,0,0,5.981-1.509c1.539-1.673,2.629-6.26,3.409-8.047" transform="translate(10574 -836.468)"/><path class="k" d="M990.136-543.621a39,39,0,0,1,5.875-1.419c.892.043,1.792,2.595.681,3.367a21.271,21.271,0,0,1-6.64,1.968c-.444-.124-1.332-3.541.084-3.916" transform="translate(10574 -836.468)"/><path class="k" d="M990.263-539.007a53.458,53.458,0,0,1,5.405-1.4c1.056-.011,1.6,2.3.576,3.14-.968.788-6.295,1.928-6.705,1.8s-.592-3.205.724-3.537" transform="translate(10574 -836.468)"/><path class="k" d="M989.574-547.077c1.679-.935,5.044-2.287,5.944-2.795.723-.411,2.187,2.827,1.039,3.348s-4.729,2.451-5.149,2.381-3.011-2.28-1.833-2.935" transform="translate(10574 -836.468)"/><path class="p" d="M929.438-582.86c-6.272,7.357-10.975,53.236-15.069,62.909-2.132,5.041,9.116,12.464,15.815,13.023s45.207-16.929,45.207-16.929l-8.372-22.7-32.37,12.279s.559-2.232,0-2.977-1.3.187-1.3.187.559-51.031-3.908-45.793" transform="translate(10574 -836.468)"/><path class="q" d="M967.018-546.555l-6.865,2.6c-1.379,5.972-4.735,18.877-8.568,21.673-5.028,3.669-27.173,11.685-25.816,5.028.9-4.4,8.072-13.113,12.844-18.531l-3.965,1.5s.559-2.232,0-2.977-1.3.187-1.3.187.313-28.668-1.411-40.824c.7,23.829-.2,39.048-2.5,45.832-2.583,7.609-10.325,23.912-14.4,14.267a12.663,12.663,0,0,1-.651-2.2l-.016.04c-2.132,5.041,9.116,12.464,15.815,13.023s45.207-16.929,45.207-16.929l-8.372-22.7" transform="translate(10574 -836.468)"/><path class="v" d="M968.4-520.755h0c.016-.008.035-.016.052-.023l-.052.023" transform="translate(10574 -836.468)"/><path class="s" d="M968.4-520.755l-11.567-8.632,6.7-15.848-5.62,15.491s7.327,3.027,16.22,6.443l-5.683,2.524-.052.023" transform="translate(10574 -836.468)"/><path class="k" d="M969.94-545.267c-3.832-2.175-8.371-3.276-12.533-4.247-2-.467-7.793.588-10.661,2.828-4.956,3.872-2.4,7.827-1.172,5.3.908-1.869,3.283-3.329,5.781,1.208.519.944,2.957.924,4.755-.129,1.931-1.133,5.233-1.541,11.863,4.467l1.968-9.427" transform="translate(10574 -836.468)"/><path class="k" d="M948.747-544.063c-2.16,2.587-3.011,2.957-3.892,4.508s-2.144,4.555-2.672,5.384c-.589.927-3.671.319-3.5-.56A44.189,44.189,0,0,1,941.32-541a29.621,29.621,0,0,1,4.652-5.031c2.3-2.147,5.624-1.452,2.775,1.964" transform="translate(10574 -836.468)"/><path class="k" d="M957.383-544.647c1.281,1.289-2,5.249-1.925,5.868s2.3,1.993,2.345,2.963-1.572,2.263-2.036,2.063a15.653,15.653,0,0,1-3.655-3.439c-.443-.916-.287-3.361-1.865-4.521-2.86-2.1,3.337-6.751,7.136-2.933" transform="translate(10574 -836.468)"/><path class="k" d="M951.543-542.088a13.627,13.627,0,0,0-1.824,3.736c-.175,1.167,3.125,2.005,3.363,2.723s-.812,2.571-1.775,2.5-4.491-2.791-4.971-3.381.068-5.864,1.185-7.385c1.283-1.751,5.483-.828,4.021,1.811" transform="translate(10574 -836.468)"/><path class="p" d="M1000.435-584.507c6.505,6.837,13.531,45.148,17.928,54.137,2.293,4.687-7.272,16.039-13.951,16.557s-46.495-15.932-46.495-15.932l7.653-21.093,32.76,11.412s-.629-2.076-.095-2.767,1.308.172,1.308.172-3.741-47.355.891-42.487" transform="translate(10574 -836.468)"/><path class="q" d="M1018.363-530.369c-1.919-3.923-4.281-14.324-7.171-24.129.916,12.383.583,22.255-2.236,22.648-3.181.444-8.033-10.465-10.5-25.139a135.519,135.519,0,0,0,1.088,14.969s-.773-.864-1.308-.172.095,2.767.095,2.767l-32.76-11.412-.216.6c12.761,3.855,42.315,15.349,40.981,19.947-1.369,4.72-26.409,2.767-38.551-.759a55.186,55.186,0,0,1-8.264-3.112l-1.6,4.419s39.815,16.451,46.495,15.932,16.244-11.871,13.951-16.557" transform="translate(10574 -836.468)"/><path class="w" d="M967.762-552.845l-3.535-7.264,2.6-31.476,1.117-.269,3.757,30.04-3.944,8.969" transform="translate(10574 -836.468)"/><path class="t" d="M951.922-592.223l2.911-5.027,26.045.465,1.675,5.3L972.04-584.6l-4-5.581-1.488-.093-4.465,5.675-10.165-7.624" transform="translate(10574 -836.468)"/><path class="k" d="M956.692-612.039l-.651,14.811a13.908,13.908,0,0,0,11.161,5,19.367,19.367,0,0,0,12.464-4.58l1.025-16.163-24,.931" transform="translate(10574 -836.468)"/><path class="x" d="M996.726-661.438c-2.708-6.008-10.431-3.724-10.431-3.724s4.773-3.1,1.436-6.247c-3.352-3.165-19.024,2.173-19.024,2.173-19.941,3.721-17.307,17.66-17.307,17.66-4.621,8.461-1.185,36.04,2.487,39.039l29,2.552c8.22-6.125,9.247-37.664,9.247-37.664s7.257-7.871,4.591-13.789" transform="translate(10574 -836.468)"/><path class="y" d="M976.022-647.149c-11.48,1.688-21.6-2.3-24.381-9.139a12.743,12.743,0,0,0-.24,4.712c-4.621,8.461-1.185,36.04,2.487,39.039l29,2.552c8.22-6.125,9.247-37.664,9.247-37.664s6.113-6.649,5.028-12.333c-3.137,6.217-11.327,11.392-21.141,12.833" transform="translate(10574 -836.468)"/><path class="k" d="M954.163-604.545c.792,2.784,7.273,8.691,13.04,8.691s15.221-5.42,16.021-7.009,5.139-38.5,3.149-44.019-10.981-8.131-14.239-8.224-13.941.56-15.753,6.543-3.841,38.317-2.219,44.019" transform="translate(10574 -840.468)"/><path class="x" d="M974.438-639.73c-.468.164-.68,2.333-.383,2.588a90.541,90.541,0,0,0,9.745,1.887c.533-.071.895-2.253.671-2.587s-9.537-2.06-10.033-1.888" transform="translate(10575 -838.468)"/><path class="l" d="M971.746-635.826c.937,8.2,2.581,19.313,2.457,20.867s-7.641,1.267-8.456.68,4.115-21.7,4.115-21.7l1.884.149" transform="translate(10575 -838.468)"/><path class="k" d="M972.007-636.586c-.069,7.207,1.627,19.259,1.5,20.812s-5.927,1.512-6.743.925,2.915-21.923,2.915-21.923l2.325.185" transform="translate(10575 -838.468)"/><path class="x" d="M956.763-638.889c-.416.383.207,2.9.609,3.061a90.9,90.9,0,0,0,10.692-2.025c.517-.305.044-2.905-.316-3.184s-10.547,1.744-10.985,2.148" transform="translate(10575 -838.468)"/><path class="l" d="M969.971-601.562c.005.272-.888.767-2.112.717s-2.315-.624-2.32-.9,1.153.072,2.376.121,2.052-.215,2.056.057" transform="translate(10575 -838.468)"/><path class="z" d="M964.743-630.81c.085-1.836-.7-3.364-1.745-3.413s-1.969,1.4-2.055,3.237.695,3.364,1.745,3.413,1.968-1.4,2.055-3.237" transform="translate(10575 -838.468)"/><path class="z" d="M980.458-629.452c.085-1.836-.7-3.364-1.745-3.413s-1.968,1.4-2.055,3.237.7,3.364,1.745,3.413,1.968-1.4,2.055-3.237" transform="translate(10575 -838.468)"/><path class="aa" d="M961.212-611.131l15.172.952s-.635,6.86-8.333,6.181c-6.428-.567-6.839-7.133-6.839-7.133" transform="translate(10575 -838.468)"/><path class="ab" d="M974.4-606.933a7.747,7.747,0,0,0,.961-2.772l-13.135-.824a8.97,8.97,0,0,0,.745,2.892l11.428.7" transform="translate(10575 -838.468)"/><path class="ac" d="M510.528-1.333c-98.5,0-178.346-6.386-178.346-14.264,0-7,63.088-12.827,146.291-14.034.847.273,2.47.01,5.08,0,2.781,0,7.558-.23,13.051-.228,3.589,0,7.1-.068,10.924,0h5.181c97.5.093,176.16,6.444,176.16,14.262,0,7.878-79.843,14.264-178.342,14.264" transform="translate(11137 -1178.305)"/></g><g transform="translate(-8783 1923)"><path class="ad" d="M1166.651-375.215H993.636v11.72h173.014v-11.72" transform="translate(9435 -598.468)"/><path class="ae" d="M1171.06-606.768c-7.944-8.595-16.713-13.408-19.589-10.753s1.233,11.776,9.177,20.369,16.713,13.408,19.589,10.753-1.235-11.776-9.177-20.369" transform="translate(9435 -598.468)"/><path class="ad" d="M1017.82-397.544h-8.557v46.887h2.233l6.324-46.887" transform="translate(9435 -598.468)"/><path class="af" d="M1000.24-397.544h-8.556v46.887h2.231l6.325-46.887" transform="translate(9435 -598.468)"/><path class="ad" d="M1145.256-397.544h8.556v46.887h-2.231l-6.325-46.887" transform="translate(9435 -598.468)"/><path class="af" d="M1161.441-397.544H1170v46.887h-2.232l-6.324-46.887" transform="translate(9435 -598.468)"/><path class="af" d="M1170-478.024l-178.316-2.115v113.853H1170V-478.024" transform="translate(9435 -598.468)"/><path class="ag" d="M1131.072-478.024H1051.54l-23.72,111.738h79.532l23.72-111.738" transform="translate(9435 -598.468)"/><path class="ah" d="M1170-467.582h-41.145l1.769-8.335q.822-.924,1.656-1.715l37.72.443v9.607" transform="translate(9435 -598.468)"/><path class="ah" d="M1040.442-467.582h-37.352l-.743-11.575,39.316.336a63.964,63.964,0,0,1-1.222,11.239" transform="translate(9424.336 -598.468)"/><path class="af" d="M983.916-481.256a.943.943,0,0,0-.941.936.942.942,0,0,0,.931.947l195.722,2.3v-4.181H983.916" transform="translate(9435 -598.468)"/><path class="af" d="M1175.486-477.163l38.789-72.461-2.155-2.16-41.715,72.5,5.08,2.12" transform="translate(9435 -598.468)"/><path class="af" d="M1213.36-552.385l-54.3-62.163-1.56.6,53.477,64.006,2.383-2.443" transform="translate(9435 -598.468)"/><path class="af" d="M1165.069-479.21a8.186,8.186,0,0,0,8.185,8.187,8.187,8.187,0,0,0,8.187-8.187,8.186,8.186,0,0,0-8.187-8.185,8.186,8.186,0,0,0-8.185,8.185" transform="translate(9435 -598.468)"/><path class="ae" d="M1169.116-479.21a4.14,4.14,0,0,0,4.139,4.14,4.14,4.14,0,0,0,4.14-4.14,4.139,4.139,0,0,0-4.14-4.139,4.138,4.138,0,0,0-4.139,4.139" transform="translate(9435 -598.468)"/><path class="af" d="M1140.233-620.913c6.3,17.935,28.167,38.227,36.08,43.564l6.263-10.2L1154.122-622.3l-13.889,1.383" transform="translate(9435 -598.468)"/><path class="ai" d="M1154.123-622.3l-13.889,1.383c.193.552.4,1.108.625,1.664L1151-620.257l28.453,34.748-4.443,7.233c.464.343.907.659,1.3.927l6.264-10.2L1154.123-622.3" transform="translate(9435 -598.468)"/><path class="aj" d="M1175.342-596.38a28.267,28.267,0,0,1-12.957,6.932,107.1,107.1,0,0,0,13.927,12.1l6.264-10.2-7.233-8.832" transform="translate(9435 -598.468)"/><path class="aj" d="M1158.3-617.193l-4.179-5.1-13.889,1.383a49.452,49.452,0,0,0,3.112,6.944,65.263,65.263,0,0,1,14.956-3.224" transform="translate(9435 -598.468)"/><path class="af" d="M1180.7-583.033a3.815,3.815,0,0,0,3.815,3.815,3.814,3.814,0,0,0,3.813-3.815,3.813,3.813,0,0,0-3.813-3.813,3.815,3.815,0,0,0-3.815,3.813" transform="translate(9435 -598.468)"/><path class="af" d="M1211-550.555a1.322,1.322,0,0,0,1.321,1.323,1.323,1.323,0,0,0,1.321-1.323,1.322,1.322,0,0,0-1.321-1.321,1.322,1.322,0,0,0-1.321,1.321" transform="translate(9435 -598.468)"/><path class="af" d="M1183.569-583.033a.941.941,0,0,0,.941.943.942.942,0,0,0,.941-.943.942.942,0,0,0-.941-.941.941.941,0,0,0-.941.941" transform="translate(9435 -598.468)"/><path class="af" d="M1208.509-550.555a3.814,3.814,0,0,0,3.813,3.815,3.814,3.814,0,0,0,3.813-3.815,3.813,3.813,0,0,0-3.813-3.813,3.813,3.813,0,0,0-3.813,3.813" transform="translate(9435 -598.468)"/><path class="ae" d="M1182.757-583.033a1.753,1.753,0,0,0,1.753,1.752,1.752,1.752,0,0,0,1.752-1.752,1.752,1.752,0,0,0-1.752-1.752,1.753,1.753,0,0,0-1.753,1.752" transform="translate(9435 -598.468)"/><path class="ae" d="M1210.164-550.555a2.159,2.159,0,0,0,2.159,2.16,2.158,2.158,0,0,0,2.159-2.16,2.158,2.158,0,0,0-2.159-2.159,2.159,2.159,0,0,0-2.159,2.159" transform="translate(9435 -598.468)"/></g></g></svg>