<svg xmlns="http://www.w3.org/2000/svg" width="147.531" height="437.363" viewBox="0 0 147.531 437.363"><g transform="translate(-5297.654 -22133.999)"><path d="M403.443-1.333c-39.356,0-71.261-6.386-71.261-14.264,0-7,25.208-12.827,58.453-14.034a14.856,14.856,0,0,0,6.452,3.351,6.467,6.467,0,0,0,1.019.08,7.556,7.556,0,0,0,6.209-3.66c38.956.093,70.388,6.444,70.388,14.262,0,7.878-31.9,14.264-71.26,14.264" transform="translate(4968 22572.695)" fill="#d9dbd8"/><path d="M340.7-192.836a49.489,49.489,0,0,1-1.283-10.148c0-3.744.785-5.959,1.833-7.2a4.751,4.751,0,0,1,3.848-1.651,11.236,11.236,0,0,1,3.444.635c1.029.343,1.832.721,2.245.9,26.235,11.128,50.791,37.876,60.4,72.077,2.259,8.028,6.836,28.389,6.833,46.188,0,6.922-.695,13.455-2.455,18.7s-4.559,9.163-8.736,11.053a10.457,10.457,0,0,1-4.371.931c-5.157.019-10.8-3.511-16.211-7.145-2.711-1.812-5.371-3.636-7.935-5.023a16.25,16.25,0,0,0-7.423-2.348,7.816,7.816,0,0,0-1.772.2.667.667,0,0,0-.5.8.666.666,0,0,0,.8.5,6.525,6.525,0,0,1,1.471-.162,15,15,0,0,1,6.789,2.188c3.712,2,7.78,5.061,11.961,7.636s8.5,4.684,12.817,4.692a11.8,11.8,0,0,0,4.92-1.049c4.629-2.1,7.625-6.4,9.451-11.844s2.523-12.109,2.524-19.121c0-18.02-4.6-38.419-6.884-46.548-9.731-34.6-34.508-61.624-61.161-72.944-.365-.156-1.241-.569-2.344-.936a12.484,12.484,0,0,0-3.865-.7,6.1,6.1,0,0,0-4.871,2.127c-1.335,1.6-2.143,4.145-2.144,8.061a50.742,50.742,0,0,0,1.312,10.428.667.667,0,0,0,.792.512.667.667,0,0,0,.512-.792" transform="translate(4968 22572.695)" fill="#f0365e"/><path d="M342.006-193.116a48.136,48.136,0,0,1-1.253-9.868,15.708,15.708,0,0,1,.475-4.183,4.656,4.656,0,0,1,1.639-2.717,3.746,3.746,0,0,1,2.235-.621,9.916,9.916,0,0,1,3.023.567c.471.156.9.325,1.26.476s.644.28.885.384A90.222,90.222,0,0,1,368.4-198.648a2,2,0,0,0,2.8-.425,2,2,0,0,0-.427-2.8,94.169,94.169,0,0,0-18.935-10.892c-.148-.063-.483-.215-.9-.391A15.6,15.6,0,0,0,345.1-214.5a8.292,8.292,0,0,0-3.061.552,7.388,7.388,0,0,0-3.9,3.695,16.192,16.192,0,0,0-1.388,7.275,52.105,52.105,0,0,0,1.341,10.708,2,2,0,0,0,2.376,1.536,2,2,0,0,0,1.536-2.376" transform="translate(4968 22572.695)" fill="#f0365e"/><path d="M409.9-203.482c2.328,22.172,17.781,81.242,19.684,88.317C432.1-105.8,440.92-56.36,441.512-35.8c.223,7.761,1.211,6.58,4.237,5.4a11.13,11.13,0,0,1,4.224-.859c3.832.021,9.485,1.984,11.369,1.216-.145-1.153-.351-4-.351-4a336.158,336.158,0,0,1-1.072-45.489c1.108-28.979-5.071-52-5.535-57.117-5.415-59.576-4.047-97.44-6.349-106.045,0,0-31.46,6.169-72.129-.708-3.26,49.455-.747,85.146-.548,105.505.228,23.311,8.78,76.324,10.228,102.873.209.9,6.347,7.94,11.5,8.739s9.324-4.632,8.593-9.41c-4.2-27.426,1.693-68.669-2.933-96.664l7.152-71.128" transform="translate(4968 22572.695)" fill="#f68678"/><path d="M421.6-374.168l-19.1.3-19.4,8.095-4.4,45.34s-5.6,91.856-7.113,96.2c-2.979,8.544,81.746,4.867,80.458,0s-12.2-141.473-12.2-141.537c-4.248-1.756-15.044-7.223-18.24-8.4" transform="translate(4968 22572.695)" fill="#f7911d"/><path d="M462.992-230.355c-5.54,4.9-3.956,11.381-4.591,15.733-.433,2.955-2.111,6.287.4,5.317,4.508-1.732,3.8-9.188,3.8-9.188a3.413,3.413,0,0,1,1.711,2.615c.412,3.281-3.508,10.073-3.963,13.341-.485,3.479,6.708.521,9.544-3.347,5.249-6.612,5.255-18.236,5.244-19.309-.025-2.324.005-8.9.005-8.9l-12.963-8.74s1.677,11.659.809,12.476" transform="translate(4968 22572.695)" fill="#f68678"/><path d="M440.978-337.724l-1.135-28.047c6.271,2.332,18.411,11.088,25.212,37.519,13.083,50.839,12.156,94.134,12.093,95.385-.181,3.659-14.752,2.843-14.9-.712L440.978-337.724" transform="translate(4968 22572.695)" fill="#f7911d"/><path d="M435.575-406.1c-.471,3.519-3.2,8.031-5.813,6.671a5.809,5.809,0,0,1-3.409-6.444c.468-3.521,2.309-5.245,5.108-5.808,3.012-.608,4.577,2.061,4.115,5.581" transform="translate(4968 22572.695)" fill="#f47063"/><path d="M390.166-406.1c.467,3.519,3.195,8.031,5.809,6.671a5.805,5.805,0,0,0,3.411-6.444c-.469-3.521-2.309-5.245-5.108-5.808-3.012-.608-4.58,2.061-4.112,5.581" transform="translate(4968 22572.695)" fill="#f47063"/><path d="M401.291-389.72c1.107,3.852-.423,14.208-.679,16.364-.036.3-7.1,3.129-7.1,3.129,4.42,14.109,30.139,15.407,36.78-.048l-6.429-3.051s-2.175-9.6-.833-15.927l-21.736-.468" transform="translate(4968 22572.695)" fill="#f68678"/><path d="M401.627-387.448a21.914,21.914,0,0,1,.025,3.695s6.291,7.449,10.784,7.449,10.235-6.884,10.235-6.884-.093-4.611.113-6.532l-21.157,2.272" transform="translate(4968 22572.695)" fill="#f47063"/><path d="M430.614-413.42a17.739,17.739,0,0,1-17.737,17.737,17.739,17.739,0,0,1-17.739-17.737c0-13.152,7.943-19.477,17.739-19.477s17.737,6.6,17.737,19.477" transform="translate(4968 22572.695)" fill="#f68678"/><path d="M430.614-413.42c0,9.487,0,17.428-3.617,22.585-2.179,3.105-7.836,8.445-11.933,9.8a11.925,11.925,0,0,1-4.948-.193c-4.065-1.439-9.279-6.641-11.36-9.6-3.617-5.157-3.617-13.1-3.617-22.585" transform="translate(4968 22572.695)" fill="#f68678"/><path d="M423.648-407.006c0,1.611-.969,2.921-2.171,2.921s-2.169-1.311-2.169-2.921.972-2.923,2.169-2.923,2.171,1.308,2.171,2.923" transform="translate(4968 22572.695)" fill="#122235"/><path d="M406.86-407.006c0,1.611-.973,2.921-2.171,2.921s-2.171-1.311-2.171-2.921.971-2.923,2.171-2.923,2.171,1.308,2.171,2.923" transform="translate(4968 22572.695)" fill="#122235"/><path d="M418.6-414.322a10.764,10.764,0,0,1,1.177-.132,14.491,14.491,0,0,1,2.591.093,12.9,12.9,0,0,1,2.539.576c.668.255,1.1.449,1.1.449a.389.389,0,0,1,.2.516.389.389,0,0,1-.424.224l-.041-.007s-.447-.081-1.093-.237c-.319-.1-.717-.117-1.12-.216s-.855-.12-1.293-.2c-.884-.124-1.779-.191-2.449-.231s-1.117-.056-1.117-.056a.392.392,0,0,1-.389-.4.4.4,0,0,1,.328-.384" transform="translate(4968 22572.695)" fill="#122235"/><path d="M406.83-413.54s-.444.005-1.119.056-1.567.107-2.449.231c-.439.079-.888.1-1.293.2s-.8.117-1.12.216c-.648.156-1.095.237-1.095.237l-.04.007a.39.39,0,0,1-.453-.315.389.389,0,0,1,.224-.425s.431-.195,1.1-.449a12.868,12.868,0,0,1,2.537-.576,14.505,14.505,0,0,1,2.592-.093,10.755,10.755,0,0,1,1.177.132.393.393,0,0,1,.324.453.4.4,0,0,1-.384.328" transform="translate(4968 22572.695)" fill="#122235"/><path d="M409.77-397.606c1.137-.536,5.227-.579,6.2,0s-2.048,1.352-3.1,1.352-4.005-.855-3.1-1.352" transform="translate(4968 22572.695)" fill="#f47063"/><path d="M406.395-391.926c3.812.96,9.76.823,13.308.425.441-.048.607.025.043.263a22.043,22.043,0,0,1-6.609.992,17.949,17.949,0,0,1-6.887-1.456c-.368-.229-.2-.313.145-.224" transform="translate(4968 22572.695)" fill="#f47063"/><path d="M429.182-370.724c-3.595,7.364-29.659,8.135-34.211,0l-8.459,3.531s7.575,17.833,23.575,18,26.924-17.832,26.924-17.832l-7.829-3.7" transform="translate(4968 22572.695)" fill="#fff"/><path d="M412.98-426.228c-2.515,0-4.631-1.068-7.289-1.725-4.748-1.176-7.039,3.921-7.039,3.921-2.724,4.473-2.14,18.492-2.176,19.3s-1.121.916-1.148,0c0,0-1.856-10.633-1.673-16.316.241-7.528,3.2-16.739,12.508-14.9,0,0,5.272-4.405,14.035-2.068,8.7,2.319,11.259,8.555,11.979,15.843.725,7.312-1.531,15.355-1.531,17.2,0,1.06-1.187.925-1.187-.037,0-1.492.44-16.192-2.351-20.356-3.377-5.032-11.691-.863-14.128-.863" transform="translate(4968 22572.695)" fill="#122235"/><path d="M405.626-35.019s3.295,3.828,3.295,16.159a3.759,3.759,0,0,1-3.417,3.369c-6.768.363-24.86,1.376-29.084,1.376-5.133,0-10.005-.349-10.912-2.355-1.357-3-.527-8.573,9.725-11.7,5.135-1.571,5.648-3.021,6.684-6.847,1.5-5.841,8.337-5.841,10.672,3.161,2,5.659,14,2.609,13.037-3.161" transform="translate(4968 22572.695)" fill="#040606"/><path d="M362.226-226.273c5.109,6.277,2.243,13,2.155,17.8-.06,3.271-1.519,3.125-4.063,1.631-4.559-2.672-1.509-6.048-2.1-4.04-1.028,3.472,4.871,4.472,4.779,8.081-.1,3.841-6.8.795-11.3-2.131-7.348-4.459-3.712-16.781-3.511-17.937.443-2.5,1.577-9.607,1.577-9.607l13.489-6.825s-1.819,11.989-1.028,13.024" transform="translate(4968 22572.695)" fill="#f68678"/><path d="M383.1-365.771c-6.269,2.332-16.533,11.088-22.545,37.519-3.631,15.961-12.117,95.681-12.053,96.932.181,3.659,14.751,2.844,14.9-.711.048-1.073,19.3-87.066,19.3-87.066l1.931-18.627L383.1-365.771" transform="translate(4968 22572.695)" fill="#f7911d"/><path d="M397.814-20.941s13.107-21.719-32.435-60.8c-.779-6.984-1.719-11.15-8.881-13.469-3.777-1.224-12.225,4.615-12.225,4.615s-13.087-2.134-14.108,1.607-1.128,10.281,5.667,13c1.352.54,12.509,4.488,13.444,8,3.191,11.961,1.617,41.571.847,46.271-11.563.8-11.589,2.839-10.716,5.557.6,1.868,16.6.672,24.221,1.718,9.419,2.243,27.46,2.087,31.549-.3,19.388-.1,35.044.981,34.123-.438-2.112-3.253-1.36-5.469-9.519-6.305s-21.967.544-21.967.544" transform="translate(4968 22572.695)" fill="#893c22"/><path d="M374.443-43.769a17.654,17.654,0,0,1,11.792-16.643c11.812,15.131,13.7,26.174,13.273,32.672a17.574,17.574,0,0,1-7.4,1.637,17.666,17.666,0,0,1-17.667-17.667" transform="translate(4968 22572.695)" fill="#040606"/><path d="M416.986-21.677c.98.041,1.921.1,2.795.192,8.159.836,7.407,3.052,9.519,6.305.5.773-3.916.8-11.165.69a10.27,10.27,0,0,1-1.357-5.107,10.47,10.47,0,0,1,.209-2.08" transform="translate(4968 22572.695)" fill="#040606"/><path d="M363.364-82.669a11.169,11.169,0,0,1-.915,2.827,16.882,16.882,0,0,1-4.325,5.736,17.081,17.081,0,0,1-8.808,3.883,1.334,1.334,0,0,0-1.127,1.513,1.335,1.335,0,0,0,1.513,1.125,19.456,19.456,0,0,0,12.34-6.7,19.509,19.509,0,0,0,2.832-4.454A13.658,13.658,0,0,0,366-82.29a1.335,1.335,0,0,0-1.131-1.509,1.334,1.334,0,0,0-1.509,1.131" transform="translate(4968 22572.695)" fill="#f0365e"/><path d="M354.155-95.269c-4.516,1-4.1,27.612,9.9,35.167,9.387,5.068,5.261-12.661,4.34-16.169-1.547-5.88-5.059-21.036-14.239-19" transform="translate(4968 22572.695)" fill="#040606"/><path d="M448-266.657c-10.111-44.909-5.476-58.688-4.992-59.943,1.517,18.592,3.356,40.851,4.985,59.865l.007.077" transform="translate(4968 22572.695)" fill="#f47423"/><path d="M368.115-253.682c.4-26.319,11.935-77.348,11.935-77.348l-3.037,37.381h0c-2.831,12.679-6.211,27.841-8.895,39.956a.042.042,0,0,1,0,.009" transform="translate(4968 22572.695)" fill="#f47423"/><path d="M384.882-117.414c-3.584,0-6.723-1.144-8.549-3.833l-.484-6.023a55.344,55.344,0,0,0,10.761.94c6.351,0,12.893-.819,16.669-2.373l.287,2.375c-4.2,5.139-12.175,8.915-18.684,8.915" transform="translate(4968 22572.695)" fill="#f57a6d"/><path d="M441.271-117.253c-10.783,0-13.7-5.7-13.759-5.808l-.052-.205-1.451-5.656c0-.013-.008-.028-.011-.041a68.783,68.783,0,0,0,11.233.833q.82,0,1.645-.016c11.579-.032,16.113-2.528,16.465-2.732l.023-.011.615,3.284c.008.039.015.079.023.119-.036.094-3.892,10.233-14.732,10.233" transform="translate(4968 22572.695)" fill="#f57a6d"/><path d="M359.268-205.137c1.027.632,2.795,1.871,4.536,3.128s3.5,2.555,4.591,3.361a2,2,0,0,0,2.8-.425,2,2,0,0,0-.425-2.8c-1.088-.8-2.848-2.1-4.621-3.384s-3.553-2.532-4.779-3.288a2,2,0,0,0-2.752.652,2,2,0,0,0,.653,2.752" transform="translate(4968 22572.695)" fill="#f0365e"/><path d="M449.568-222.8s10.919,67.961,9.249,87.937c-.12,8.727-35.675,7.716-37.9,4s-9.02-38.156-9.02-38.156-4.3,31.339-5.416,37.555-34.453,7.12-37.12.891,2.352-74.674,5.176-91.117l75.028-1.109" transform="translate(4968 22572.695)" fill="#122235"/><path d="M440.44-34.037c.427,5.708-6.568,8.808-6.525,14.161.007,1.029-.125,3.131.443,3.953,1.7,2.476,5.979,2.79,9.509,2.79,5.084,0,10.328-.357,14.316-1.891,6.664-2.571,2.809-13.145,2.809-19.013,0-1.1.852,8.076-5.572-1.322-8.833-11.333-14.98,1.322-14.98,1.322" transform="translate(4968 22570.695)" fill="#040606"/><path d="M409.092-215.233c-13.755,0-27.347-1.791-34.565-6.253,5.167,1.685,16.349,2.372,28.653,2.372,16.915,0,35.955-1.3,44.416-3.088l2.064-.02c-5.024,4.041-22.927,6.989-40.568,6.989" transform="translate(4968 22571.695)" fill="#040606"/><path d="M403.18-219.114c-12.3,0-23.487-.687-28.653-2.372l-.019-.012,73.088-.7c-8.461,1.789-27.5,3.088-44.416,3.088" transform="translate(4969 22571.695)" fill="#f47423"/></g></svg>