<svg xmlns="http://www.w3.org/2000/svg" width="30" height="24.38" viewBox="0 0 30 24.38"><defs><style>.a{fill:#00acee;}</style></defs><path class="a" d="M32.571,7.7a12.306,12.306,0,0,1-3.535.969,6.173,6.173,0,0,0,2.706-3.405,12.322,12.322,0,0,1-3.908,1.494,6.161,6.161,0,0,0-10.488,5.614A17.474,17.474,0,0,1,4.659,5.944a6.161,6.161,0,0,0,1.9,8.217,6.13,6.13,0,0,1-2.788-.77c0,.026,0,.051,0,.077A6.159,6.159,0,0,0,8.713,19.5a6.165,6.165,0,0,1-2.78.105,6.161,6.161,0,0,0,5.75,4.274,12.349,12.349,0,0,1-7.644,2.635,12.483,12.483,0,0,1-1.468-.086A17.421,17.421,0,0,0,12.005,29.2c11.321,0,17.512-9.379,17.512-17.512q0-.4-.018-.8A12.5,12.5,0,0,0,32.571,7.7Z" transform="translate(-2.571 -4.817)"/></svg>