<svg xmlns="http://www.w3.org/2000/svg" width="381.885" height="255.725" viewBox="0 0 381.885 255.725"><defs><style>.a{fill:#d9dbd8;}.b{fill:#dd5a4e;}.c{fill:#fab729;}.d{fill:#332a34;}.e{fill:#e9a325;}.f{fill:#c6524e;}.g{fill:#f49111;}.h{fill:#d78019;}.i{fill:#ae8725;}.j{fill:#f25944;}.k{fill:#12110f;}.l{fill:#f5746b;}.m{fill:#f35e49;}.n{fill:#f79996;}.o{fill:#fbc7b0;}.p{fill:#e68243;}.q{fill:#be6739;}.r{fill:#4b2b1f;}.s{fill:#7f255e;}.t{fill:#57c6b4;}.u{fill:#1b2749;}.v{fill:#351418;}.w{fill:#50b0a6;}.x{fill:#8dd8c8;}</style></defs><g transform="translate(-12383.263 -13064.31)"><path class="a" d="M194.824,15.507C89.567,15.507,4.236,5.649,4.236-6.511S89.566-28.528,194.824-28.528,385.41-18.67,385.41-6.511,300.084,15.507,194.824,15.507" transform="matrix(1, 0.017, -0.017, 1, 12379.298, 13297.804)"/><path class="b" d="M593.3-398.743s.388,34.331,2.328,34.331,3.105-34.331,3.105-34.331H593.3" transform="translate(12131.526 13663.586)"/><path class="b" d="M569.945-398.328S570.333-364,572.272-364s3.105-34.331,3.105-34.331h-5.433" transform="translate(12127.591 13663.656)"/><path class="b" d="M349.906-398.9s.386,34.33,2.328,34.33,3.105-34.33,3.105-34.33h-5.433" transform="translate(12090.509 13663.56)"/><path class="b" d="M379.324-397.236s.386,34.33,2.328,34.33,3.105-34.33,3.105-34.33h-5.433" transform="translate(12095.466 13663.84)"/><path class="c" d="M335.529-419.248l3.462,25.722,301.164-.48L635.7-413.312l-300.167-5.936" transform="translate(12088.399 13660.131)"/><path class="c" d="M637.023-396.532H336.855s3.27-119.8,45.675-121.357c49.228-1.8,203.233-.517,214.61,0,0,0,46.09,6.555,39.883,121.357" transform="translate(12088.623 13643.351)"/><path class="c" d="M346.216-460.232c-.215,1.22-26.48,8.809-29.511,25.335s0,48.277,0,48.277h33.836l-4.325-73.612" transform="translate(12085 13653.224)"/><path class="c" d="M587.2-460.667c.215,1.221,26.482,8.811,29.512,25.335s0,48.279,0,48.279H582.881l4.324-73.614" transform="translate(12130.085 13653.15)"/><path class="d" d="M316.706-394.383c-.695-3.526-1.348-19.785-1.348-19.785h.146c.349,10.853,1.2,19.785,1.2,19.785h0m76.133-.079,117.437-.187c0,.02,0,.042,0,.062l-117.44.125" transform="translate(12085 13660.986)"/><path class="e" d="M345.633-394.419l-1.161-19.75H504.381c.3,5.964.647,12.785.988,19.519l-117.437.187-42.3.044" transform="translate(12089.906 13660.986)"/><path class="e" d="M316.684-394.383h0s-.852-8.932-1.2-19.785h33.875l1.161,19.75-33.834.036" transform="translate(12085.021 13660.986)"/><path class="d" d="M498.824-397.413c0-.025,0-.048,0-.073l19.653-.031c0,.028,0,.056-.008.084l-19.644.02" transform="translate(12115.919 13663.793)"/><path class="e" d="M498.843-394.68c-.142-7.1-.2-14.058-.069-19.488h21.678c-.581,5.81-1.27,12.653-1.957,19.457l-19.653.031" transform="translate(12115.898 13660.986)"/><path class="d" d="M534.339-397.44l.013-.1,41.293-.065c0,.037,0,.078,0,.118l-41.307.044m46.691-.05c0-.04,0-.083,0-.122l4.511-.006a.489.489,0,0,0,.028.123l-4.542,0" transform="translate(12121.904 13663.776)"/><path class="f" d="M569.688-397.485c0-.041,0-.081,0-.118l5.389-.009c0,.039,0,.081,0,.122l-5.385.006" transform="translate(12127.861 13663.777)"/><path class="e" d="M534.349-394.747l2.471-19.421h48.964c.094,6.425-.025,12.858-.243,19.279a.421.421,0,0,0,0,.061l-4.51.006-5.389.009-41.292.065" transform="translate(12121.906 13660.986)"/><path class="d" d="M578.923-394.707a.436.436,0,0,0,.036-.123l16.464-.026c0,.044,0,.087,0,.132l-16.5.017m21.864-.022c0-.056,0-.109.006-.16h16.591s.826-8.655,1.184-19.279h.154c.031,3.731-1.338,19.421-1.338,19.421l-16.6.019" transform="translate(12129.418 13660.987)"/><path class="f" d="M593.046-397.5c0-.045,0-.089,0-.132l3.714-.006,0-.027h1.661c0,.051,0,.1-.006.161l-5.361,0" transform="translate(12131.798 13663.768)"/><path class="e" d="M578.953-394.83a.372.372,0,0,0,0-.059c.2-5.97.3-11.95.252-17.925,0-.444,0-.9,0-1.354h5.461l-1.133,19.279h15.583l0,.026-3.714.006-16.464.026" transform="translate(12129.423 13660.987)"/><path class="e" d="M616.717-394.889H582.881l1.133-19.279H617.9c-.358,10.624-1.184,19.279-1.184,19.279" transform="translate(12130.085 13660.986)"/><path class="g" d="M374.144-430.511H585.6c4,0,8.041-.447,12.025-.05,3.309.33,6.963,1.033,9.8,2.876,5.322,3.454,5.282,8.924,5.4,14.622.146,7.031.03,14.075-.21,21.1-.022.6.915.6.933,0,.2-5.97.3-11.95.252-17.925-.041-5.244.743-11.676-2.856-16.02-5.145-6.217-14.51-5.766-21.733-5.542-10.6.332-21.266,0-31.873,0h-183.2a.468.468,0,0,0,0,.935" transform="translate(12094.831 13658.057)"/><path class="g" d="M595.036-457.581a24.057,24.057,0,0,0-17.335,6.759c-.508.5.231,1.173.76.759a32.6,32.6,0,0,1,16.657-6.916c.357-.048.246-.586-.083-.6" transform="translate(12129.184 13653.667)"/><path class="g" d="M594.4-457.586c-4.817-1.267-10.7-2.127-15.646-1.418-.481.07-.293.726.1.776,5.093.636,10.327.711,15.454,1.273.365.041.428-.541.087-.631" transform="translate(12129.342 13653.388)"/><path class="g" d="M560.039-419.055c1.031-13.424.29-27.157.285-40.618-.006-13.541.036-27.08-.24-40.618a.476.476,0,0,0-.95,0c-.277,13.538-.235,27.077-.24,40.618-.006,13.468-.746,27.188.284,40.618a.431.431,0,0,0,.862,0" transform="translate(12125.998 13646.396)"/><path class="g" d="M374.781-501.882c-1.937,27.418-1.614,55.318-1.4,82.792a.844.844,0,0,0,1.687,0c.226-27.5,1.315-55.318.16-82.792a.224.224,0,0,0-.447,0" transform="translate(12094.751 13646.168)"/><path class="g" d="M344.1-458.46a16.261,16.261,0,0,1,14.979,6.6c.21.277.684.02.478-.28a15.792,15.792,0,0,0-15.492-6.58.132.132,0,0,0,.034.259" transform="translate(12089.821 13653.441)"/><path class="g" d="M340.972-458.465a59.134,59.134,0,0,1,13.05-1.016c2.466.1,12.055-.042,12.96,3.39a.425.425,0,0,0,.832-.112c.1-3.54-5.654-3.454-8.086-3.75a57.494,57.494,0,0,0-18.9.968c-.343.072-.195.583.143.52" transform="translate(12089.26 13653.206)"/><path class="g" d="M377.549-430.7c-7.993,1.287-16.869,3-22.422,9.482-6.64,7.747-5.849,18.695-4.948,28.129.07.737,1.229.746,1.161,0-.849-9.219-1.848-19.792,4.674-27.309,5.492-6.327,13.843-8.057,21.689-9.744.368-.079.206-.615-.154-.558" transform="translate(12090.769 13658.2)"/><path class="e" d="M448.112-424.947c-21.381,0-30.106-4.507-31.031-5.023h75.2c-.1.483-.192.982-.271,1.5-7.547.961-17.791,2.055-30.927,3.021-4.761.351-9.072.5-12.966.5m44.376-5.958H419.179c8.055-2.9,20.772-3.861,34.112-3.861,14.15,0,29,1.083,39.71,2.086q-.28.837-.513,1.775" transform="translate(12102.143 13657.516)"/><path class="h" d="M492.288-430.527h-75.2l-.084-.047q1.024-.472,2.183-.888H492.5c-.075.3-.146.615-.212.935" transform="translate(12102.131 13658.072)"/><path class="i" d="M453.605-496.466c-1.073,0-5.079-11.031-5.947-14.194-.528-1.919-2.462-2.485-7.17-2.485-3.412,0-8.282.3-15.13.589q-1.7.072-3.214.072c-13.159,0-16.38-3.806-16.554-4.024,1.98,1.155,4.807,1.881,8.72,1.881.27,0,.544,0,.824-.011,8.064-.2,14.828-.5,20.191-.5,5.821,0,9.993.351,12.4,1.553,4.272,2.136,4.509,13,6.343,15.471a4.487,4.487,0,0,1-.33,1.571.16.16,0,0,1-.132.076m20.55-10.616c-2.519,0-11.1-7.454-12.946-8.653h0a21.424,21.424,0,0,1,3.144-.815s7.74,6.971,10.942,7.22a4.245,4.245,0,0,1-.544,1.958.625.625,0,0,1-.6.29" transform="translate(12100.207 13643.732)"/><path class="j" d="M469.531-518.131a12.15,12.15,0,0,0-2.53-7.588c-1.69-2.094-4.149-2.825-3.88-4.253.869-4.627.335-5.718-.041-5.964l-.379.117-2.825,4.942a1.97,1.97,0,0,1-1.56.986,1.964,1.964,0,0,1-2.121-1.94c-.014-2.136-.217-5.131-1.245-5.14-1.223-.012-1.838,4.082-2.755,6.061-.514,1.111-4.091,1.778-5.276,1.471a74.162,74.162,0,0,0-9.973-1.723c-6.352-.728-26.92-.807-31.951,4.077-4.046,3.926-6.1,16.308,10.711,15.887s27.967-1.257,32.591,1.055,4.52,14.85,6.832,15.9,1.867-11.378,2.206-14.429c.361-3.25,7.589-4.439,7.589-4.439s8.851,7.971,11.539,7.17c.578-.171,2.49-4.749-6.936-12.192" transform="translate(12099.631 13640.291)"/><path class="k" d="M452.908-520.2a37.5,37.5,0,0,0-10.2,3.786c-.148.089-.05.36.125.291A88.9,88.9,0,0,1,453-519.857a.179.179,0,0,0-.1-.346" transform="translate(12106.449 13643.116)"/><path class="k" d="M450.642-518.546a63.993,63.993,0,0,0-7.944,4.9c-.188.14-.014.458.189.323,2.588-1.739,5.2-3.415,7.938-4.9.207-.112.023-.424-.182-.315" transform="translate(12106.446 13643.393)"/><path class="k" d="M447.271-522.476c.494.608,1.55,1.949,2.488,1.7.844-.223,1.145-1.563,1.2-2.284.014-.218-.355-.274-.388-.053-.106.729-.355,2.177-1.415,1.817a5.747,5.747,0,0,1-1.719-1.343l-.162.162" transform="translate(12107.231 13642.604)"/><path class="k" d="M454.635-523.958c.522.67,1.641,1.767,2.608,1.3.887-.43.681-1.985.377-2.708-.118-.276-.514-.067-.461.195.115.573.5,2.373-.687,2.058a3.215,3.215,0,0,1-1.617-1.063c-.125-.157-.34.064-.22.22" transform="translate(12108.466 13642.225)"/><path class="l" d="M452.715-521.23a1.479,1.479,0,0,1,.8-.552,4.389,4.389,0,0,1,.979-.154l.237.028c.136.08.134.274.114.429-.03.238-.086.514-.3.614l-.38.025q-.619-.079-1.231-.21" transform="translate(12108.148 13642.825)"/><path class="l" d="M447.432-536.676s-1.178,6.206-.333,6.139,1.154-.573,1.154-1.089-.335-5.55-.821-5.05" transform="translate(12107.15 13640.335)"/><path class="l" d="M454.54-535.515s-2.124,5.031-1.282,5.128,1.223-.276,1.3-.711.534-4.752-.022-4.417" transform="translate(12108.207 13640.533)"/><path class="k" d="M455.878-521.323c3.138-.943,6.273-1.714,9.443-2.519.31-.079.17-.5-.128-.464a38.316,38.316,0,0,0-9.409,2.641c-.2.086-.132.41.094.343" transform="translate(12108.646 13642.425)"/><path class="k" d="M456.778-520.947c2.022-.192,4.06-.33,6.073-.611.245-.033.189-.452-.059-.435-2.01.153-4.013.447-6.014.686-.224.026-.232.382,0,.36" transform="translate(12108.805 13642.815)"/><path class="m" d="M446.069-520.156a3.039,3.039,0,0,1-1.117-.313.313.313,0,0,1,.083-.611c.29-.022.537-.094.8-.094a1.175,1.175,0,0,1,.377.058.491.491,0,0,1-.129.96h-.014" transform="translate(12106.804 13642.953)"/><path class="j" d="M411.027-521.52a18.018,18.018,0,0,1-2.365-11.988c1.2-6.566,7.988-33.474-8.373-36.629-10.69-2.06-10.168,10.98-4.944,15.3s10.546,1.045,7.546,19.025c-2.385,14.295,5.785,17.208,4.45,17.171l3.686-2.876" transform="translate(12097.871 13634.665)"/><path class="n" d="M409.915-530.75a5.951,5.951,0,0,0,.09,2.34,3.93,3.93,0,0,0,1,2.116.427.427,0,0,0,.707-.413c-.129-.639-.559-1.2-.745-1.831a9.178,9.178,0,0,1-.293-2.11c-.02-.41-.684-.556-.76-.1" transform="translate(12100.923 13641.293)"/><path class="n" d="M414.272-531.617c-.327,3.647.432,7.81,3.152,10.5a.579.579,0,0,0,.907-.7c-1.834-3.155-3.412-6.042-3.577-9.806a.241.241,0,0,0-.481,0" transform="translate(12101.658 13641.154)"/><path class="n" d="M419.158-531.778c0,3.566.957,7.68,3.389,10.409.447.5,1.2-.139.9-.695-1.711-3.216-3.169-6-3.531-9.714-.047-.477-.76-.5-.759,0" transform="translate(12102.493 13641.104)"/><path class="n" d="M424.83-532.053a33.539,33.539,0,0,0,5.006,14.507c.463.714,1.6.064,1.147-.67a39.082,39.082,0,0,1-5.458-13.93c-.067-.39-.742-.3-.695.094" transform="translate(12103.448 13641.062)"/><path class="n" d="M430.2-531.7a52.1,52.1,0,0,0,3.009,8.9c.352.768,1.488.1,1.136-.664-1.274-2.761-2.547-5.531-3.552-8.4a.307.307,0,0,0-.592.164" transform="translate(12104.352 13641.115)"/><path class="n" d="M435.143-530.969c.327.975.643,1.952.964,2.929a12.578,12.578,0,0,0,1,2.646.564.564,0,0,0,1.027-.433,12.625,12.625,0,0,0-1.081-2.608c-.432-.932-.868-1.859-1.293-2.792-.157-.346-.734-.1-.614.259" transform="translate(12105.185 13641.231)"/><path class="o" d="M522.277-486.312s-4.252,14-11.124,16.764c-8.119,3.263-38.029,8.354-38.029,8.354l6.734,7.647s27.744-2.03,35.437-4.648c8.817-3,19.468-10.652,19.762-18.513l.256-3.3-13.036-6.307" transform="translate(12111.588 13648.829)"/><path class="p" d="M510.858-435.721a9.125,9.125,0,0,1,.254-3.912c1.349-4.8,2.691-18.594-23.123-25.714-14.15-3.9-61.21-2.13-65.574,14.72-3.138,12.106,3.8,20.044,7.952,23.556a8.809,8.809,0,0,0,5.754,2.053l65.969-.38a8.931,8.931,0,0,0,8.769-10.324" transform="translate(12102.909 13652.069)"/><path class="q" d="M472.562-446.812c.151-1.842.349-3.682.581-5.515.212-1.681.45-3.364.776-5.026.171-.871.369-3.309,1.108-3.9.93-.749,1.357,1.65,1.586,2.569a46.689,46.689,0,0,1,.9,5.057q.458,3.4.695,6.82c.042.6.977.6.935,0-.153-2.219-.65-16.4-3.992-15.814-1.977.346-2.309,5.938-2.519,7.285-.441,2.828-.765,5.677-1,8.529-.05.6.885.6.935,0" transform="translate(12111.335 13652.817)"/><path class="q" d="M486.663-444.484c.153-1.842.351-3.68.583-5.515.212-1.681.45-3.362.776-5.026.17-.871.369-3.309,1.108-3.9.932-.749,1.357,1.65,1.586,2.569a47.414,47.414,0,0,1,.9,5.059c.305,2.262.538,4.54.695,6.818.041.6.977.6.935,0-.153-2.219-.651-16.4-3.992-15.814-1.977.346-2.309,5.938-2.519,7.287-.443,2.826-.767,5.677-1,8.527-.048.6.887.6.935,0" transform="translate(12113.712 13653.21)"/><path class="p" d="M425.385-448.328s-13.321.94-15.065,8.945c-1.144,5.244,4.615,14.139,22.28,15.144s22.68-6.793,18.266-6.919-34.727-1.566-34.325-7.26,8.843-4.824,8.843-4.824v-5.085" transform="translate(12100.98 13655.229)"/><path class="q" d="M470.991-449.318c4.077,2.727-11.319,15.987-13.013,17.671a.577.577,0,0,0,.117.9c8.772,4.8,18.3,4,27.28.142,6.344-2.725,18.938-7.843,20.488-15.46.174-.855-1.122-1.225-1.318-.363-2.417,10.61-43.586,25.683-43.676,13.511-.03-3.908,18.848-12.192,10.4-16.872a.275.275,0,0,0-.277.474" transform="translate(12109.008 13654.977)"/><path class="q" d="M473.2-444.678c-1.151.555-3.462,2.856-2.435,4.274a1.581,1.581,0,0,0,1.991.3c1.246-.539,2.424-1.334,3.612-2a.542.542,0,0,0-.547-.935q-.949.542-1.9,1.081c-.6.343-1.271.915-1.966.82-.661-.09-.371-.39-.145-.835a7.519,7.519,0,0,1,.449-.774,19.005,19.005,0,0,1,1.264-1.519.268.268,0,0,0-.323-.419" transform="translate(12111.147 13655.84)"/><path class="q" d="M481.911-441.806c-.854.751-4.612,3.932-3.086,5.307.723.653,1.951.006,2.689-.263a35.2,35.2,0,0,0,4.118-1.815c.6-.31.067-1.226-.531-.908-.773.411-1.553.8-2.354,1.153a8.436,8.436,0,0,1-2.734,1.05l-.271.078a.7.7,0,0,1,.056-.96,5.378,5.378,0,0,1,.65-1.083,14.685,14.685,0,0,1,1.789-2.233.23.23,0,0,0-.324-.326" transform="translate(12112.488 13656.318)"/><path class="r" d="M461.647-437.286l5.927,7.264s-8.469-.925-9.588-3.613l3.661-3.65" transform="translate(12109.037 13657.091)"/><path class="q" d="M433.659-454.383c4.255-.4,10.514-1.337,14.183,1.5,5.07,3.917,5.018,9.563,4.454,15.23a.6.6,0,0,0,.444.583c4.4.871,8.8,1.809,13.2,2.691.846.17,1.2-1.136.357-1.3-2.842-.536-6.048-.781-8.79-1.7-3.333-1.116-3.2-.975-3.7-4.292-.537-3.531-.048-6.552-2.455-9.579-4.264-5.36-11.8-4.52-17.744-3.531-.221.037-.173.416.053.394" transform="translate(12104.904 13654.02)"/><path class="q" d="M459.291-451.952c-1.734,2.468-4.515,6.93-3.555,10.207.326,1.111.877,1.426,1.907,1.771s2.178.321,3.233.714c1.274.477,2.487,1.181,3.721,1.754.709.329,1.327-.734.615-1.053-1.109-.5-2.191-1.073-3.314-1.538-1.01-.418-2.412-.4-3.331-.871-2.456-1.254-1.817-3.315-1.24-5.537a16.44,16.44,0,0,1,2.342-5.226c.162-.232-.217-.45-.377-.221" transform="translate(12108.624 13654.603)"/><path class="s" d="M527.939-371.32a83.469,83.469,0,0,1-1.193,9.122l-18.9.293c.176-.469,1.5-1.818,6.235-1.935l.866-7.491s8.915-.014,12.989.011" transform="translate(12117.439 13668.205)"/><path class="s" d="M512.544-364.844l.327,1.768-5.023.078s.671-1.714,4.7-1.846" transform="translate(12117.439 13669.299)"/><path class="s" d="M520.74-362.941a3.788,3.788,0,0,1,4.439-3.585,34.136,34.136,0,0,1-.606,3.526l-3.833.059" transform="translate(12119.612 13669.009)"/><path class="s" d="M499.618-371.32a83.176,83.176,0,0,1-1.2,9.122l-18.9.293c.176-.469,1.5-1.818,6.235-1.935l.866-7.491s8.914-.014,12.989.011" transform="translate(12112.667 13668.205)"/><path class="s" d="M484.223-364.844l.327,1.768-5.023.078s.672-1.714,4.7-1.846" transform="translate(12112.667 13669.299)"/><path class="s" d="M492.419-362.941a3.788,3.788,0,0,1,4.439-3.585A34.191,34.191,0,0,1,496.25-363l-3.831.059" transform="translate(12114.84 13669.009)"/><path class="o" d="M575.756-501.119s26.765,46.52,16.369,48.914c-8.39,1.934-5.453,2.024-27.03-34.7l10.662-14.214" transform="translate(12127.088 13646.333)"/><path class="t" d="M547.132-441.355s-48.581-1.873-54.7,0c-2.58.792-12.475,3.2-11.515,22.392s3.2,63.046,3.2,63.046H502.99s-2.879-62.086,0-64,24.631-2.219,24.631-2.219l19.511-19.215" transform="translate(12112.891 13656.265)"/><path class="t" d="M575.359-441.96c-6.028,2.8-4.9,2.279-11.543,2.086-11.534-.337-29.332-.672-32.594.338-4.9,1.516-10.556,3.777-12.064,19.234s-6.408,63.618-6.408,63.618l21.072-.64,7.935-62.349s23.19.235,31.235-1.628c4.607-1.067,2.367-20.658,2.367-20.658" transform="translate(12118.266 13656.303)"/><path class="u" d="M592.523-490.814s-18.164-25.857-31.33-27.526H541.674s-10.571-.195-17.078,7.832l1.173,27.353.291,49.26a2.754,2.754,0,0,0,2.737,2.738l43.538.28a2.9,2.9,0,0,0,2.912-3.012l-1.341-44.977,18.617-11.948" transform="translate(12120.263 13643.431)"/><path class="o" d="M559.173-534.859v19.209a22.033,22.033,0,0,1-19.521,0v-18.444l19.521-.765" transform="translate(12122.8 13640.647)"/><path class="o" d="M530.712-554.465s1.1,22.358,1.9,27.138c.773,4.6,2.889,9.15,9.144,9.862,5.785.659,14.72-5.078,16.478-10.85s-.416-26.15-.416-26.15h-27.11" transform="translate(12121.293 13637.343)"/><path class="l" d="M540.214-544.6c-.865,4.235-1.709,8.446-2.292,12.732-.047.35.235.854.673.672a5.756,5.756,0,0,0,3.121-2.714.493.493,0,0,0-.851-.5,4.783,4.783,0,0,1-2.561,2.158c.229.176.461.352.692.528.5-4.253.975-8.526,1.669-12.753.047-.291-.39-.422-.45-.125" transform="translate(12122.507 13638.978)"/><path class="l" d="M546.285-534.327a16.594,16.594,0,0,0-2.379,1.444c-1.045.55-2.159.826-3.239,1.273-.327.134-.326.678.092.667a7.868,7.868,0,0,0,3.428-1.1c.829-.455,2.018-1.133,2.283-2.1l-.184-.184" transform="translate(12122.932 13640.737)"/><path class="v" d="M551.732-546.408c-3.093-.469-5.632-1-8.708.009-.728.238-1.052-.925-.316-1.148,2.867-.869,6.636-1.109,9.216.685a.249.249,0,0,1-.192.453" transform="translate(12123.244 13638.397)"/><path class="v" d="M539.39-546.157a10.756,10.756,0,0,1-3.054.477,27.616,27.616,0,0,1-3.454.383c-.565-.016-.925-.907-.316-1.169a10.2,10.2,0,0,1,3.523-.6,6.6,6.6,0,0,1,3.362.447c.215.109.122.386-.061.46" transform="translate(12121.552 13638.586)"/><path class="l" d="M555.192-529.643c-4.356,4.285-9.065,6.86-15.2,7.446-.584.055-.608.952,0,.929a20.185,20.185,0,0,0,15.518-8.127c.136-.195-.159-.405-.319-.248" transform="translate(12122.782 13641.517)"/><path class="e" d="M515.457-422.009h0m13.634-19.782c-1.6-.045-3.3-.09-5.065-.134a1.485,1.485,0,0,1,.27-.036.227.227,0,0,1,.034,0l4.785.07-.023.1" transform="translate(12118.723 13656.303)"/><path class="w" d="M515.457-422.015v-7.257c.09-9.735,6.969-12.338,8.569-12.659,1.767.044,3.467.089,5.065.134l-.442,1.924-1.326.748c-9.027,2.317-8.549,13.8-8.329,16.336-.023.167-.045.335-.068.5l-3.462.269h-.006" transform="translate(12118.723 13656.308)"/><path class="w" d="M518.425-425.045c.023-.17.045-.338.068-.5.028.318.052.5.052.5l-.12.009" transform="translate(12119.223 13659.068)"/><path class="u" d="M525.839-447.366l.209,9.583H575.52l-.7-12.862-48.978,3.278" transform="translate(12120.472 13654.84)"/><path class="u" d="M526.946-511.637l-16.3,26.787s18.076,9.682,18.338,9.113-2.043-35.9-2.043-35.9" transform="translate(12117.912 13644.561)"/><path class="v" d="M528.92-548.138c3.325,1.346,7.126,1.049,10.606.167a54.447,54.447,0,0,0,9.979-3.989,1.731,1.731,0,0,0,.318,2.421,2.825,2.825,0,0,0,2.616.307,8.368,8.368,0,0,0,2.337-1.416,1.876,1.876,0,0,0-.539,2.454,2.237,2.237,0,0,0,2.407.968,2.8,2.8,0,0,0,1.927-1.837c-.327,2.3.312,6.453.76,8.736l4.19.527s.731-11.107-.872-14.3-8.412-2.731-8.412-2.731-2.036-5.149-8.691-4.31-26.049,9.2-16.626,13" transform="translate(12120.563 13636.202)"/><path class="v" d="M556.709-524.253c1.787-3.155,3.174-6.24,3.138-9.865a5.853,5.853,0,0,0-1.2-2.8c-.4-.218-.269,1.306-.7,1.449a2.38,2.38,0,0,0-1.58,1.092,2.351,2.351,0,0,0-.1,1.038q.217,4.543.438,9.09" transform="translate(12125.599 13640.296)"/><path class="o" d="M554.58-543.323s6.094-1.4,6.268,4.726-6.268,5.953-6.268,5.953v-10.679" transform="translate(12125.315 13639.197)"/><path class="l" d="M556.547-540.266a2.016,2.016,0,0,1,.7,1.971c-.22.7-.813.8-1.27,1.259a.511.511,0,0,0,.224.848c1.094.176,2.03-1.01,2.211-2a2.353,2.353,0,0,0-1.521-2.678.361.361,0,0,0-.349.6" transform="translate(12125.528 13639.632)"/><path class="x" d="M550.609-427.578a19.931,19.931,0,0,0,3.719-1.444.267.267,0,0,0-.206-.486,19.723,19.723,0,0,0-3.66,1.4c-.326.131-.192.661.146.534" transform="translate(12124.59 13658.4)"/><path class="x" d="M542.858-429.5c.838-.436,1.719-.835,2.515-1.345a.4.4,0,0,0-.407-.693c-.871.368-1.7.868-2.533,1.312-.477.254-.055.975.425.726" transform="translate(12123.233 13658.053)"/><path class="x" d="M534.92-430.858l1.6-1.455c.335-.305-.165-.8-.5-.5q-.795.734-1.589,1.466c-.326.3.159.784.485.486" transform="translate(12121.902 13657.829)"/><path class="x" d="M528.069-423.2c-.294-1.376-.566-2.759-.887-4.129-.137-.578-1.014-.333-.89.245.3,1.373.647,2.737.972,4.105.125.523.915.3.8-.221" transform="translate(12120.546 13658.714)"/><path class="x" d="M534.2-425.181c-.048-.22-.1-.441-.143-.661-.114-.519-.883-.3-.788.217l.122.667c.1.528.925.308.81-.223" transform="translate(12121.723 13658.97)"/><path class="x" d="M525.9-411.5a13.753,13.753,0,0,0,.925-2.223.32.32,0,0,0-.581-.245,13.062,13.062,0,0,0-.968,2.1c-.181.421.433.791.623.365" transform="translate(12120.371 13660.995)"/><path class="x" d="M521.709-416.312l.823-1.711c.227-.477-.5-.89-.706-.414l-.771,1.743c-.195.438.441.827.654.382" transform="translate(12119.659 13660.232)"/><path class="x" d="M532.963-413.509c.354-.626.709-1.239,1-1.895a.421.421,0,0,0-.726-.424c-.416.586-.763,1.2-1.122,1.824a.49.49,0,0,0,.846.494" transform="translate(12121.519 13660.674)"/><path class="x" d="M524.4-432.372l2.8-.905c.393-.128.221-.754-.17-.62l-2.783.955c-.358.123-.207.689.156.57" transform="translate(12120.169 13657.659)"/><path class="x" d="M541.631-435.5q1.26.208,2.519.413c.486.079.689-.665.2-.74l-2.527-.383c-.463-.072-.667.634-.2.71" transform="translate(12123.088 13657.271)"/><path class="x" d="M555.719-435.333a6.529,6.529,0,0,0,1.7.333.338.338,0,0,0,.168-.626,6.43,6.43,0,0,0-1.651-.509.416.416,0,0,0-.221.8" transform="translate(12125.457 13657.282)"/><path class="x" d="M561.721-428.076l.4-.114c.5-.143.262-.949-.21-.768l-.394.151c-.447.17-.279.869.2.731" transform="translate(12126.44 13658.49)"/><path class="x" d="M555.649-432.163a15.648,15.648,0,0,0,1.988,1.2.343.343,0,0,0,.346-.592,15.46,15.46,0,0,0-2-1.187.333.333,0,0,0-.335.575" transform="translate(12125.47 13657.85)"/><path class="x" d="M564.08-433.8c.226-.709.439-1.416.64-2.133a.5.5,0,0,0-.958-.263c-.245.7-.472,1.407-.689,2.117-.2.645.8.916,1.006.279" transform="translate(12126.742 13657.216)"/><path class="x" d="M529.491-403.56a11.417,11.417,0,0,0,.805,2.7.332.332,0,0,0,.614-.167,11.484,11.484,0,0,0-.567-2.773.442.442,0,0,0-.852.235" transform="translate(12121.085 13662.682)"/><path class="x" d="M524.2-401.551a33.226,33.226,0,0,0-3.693,1.775c-.352.215-.128.826.29.687a34.181,34.181,0,0,0,3.837-1.717c.5-.238.064-.972-.435-.745" transform="translate(12119.544 13663.105)"/><path class="x" d="M516.686-392.738l-.425.913a.255.255,0,1,0,.467.2q.182-.467.366-.938c.092-.232-.3-.4-.408-.171" transform="translate(12118.853 13664.58)"/><path class="x" d="M520.878-385.954l.134.4c.165.5.963.287.795-.218l-.134-.4c-.167-.5-.964-.287-.795.22" transform="translate(12119.632 13665.656)"/><path class="x" d="M528.354-394.353l.4,1.061c.2.527,1.052.3.852-.235-.131-.354-.263-.709-.394-1.064-.2-.533-1.063-.3-.86.238" transform="translate(12120.891 13664.235)"/><path class="x" d="M524.127-392.992v.265a.45.45,0,0,0,.9,0v-.265a.45.45,0,0,0-.9,0" transform="translate(12120.184 13664.482)"/><path class="x" d="M527.037-381.361c.1.309.192.615.285.924a.5.5,0,0,0,.972-.268c-.079-.312-.162-.623-.245-.935a.525.525,0,0,0-1.013.279" transform="translate(12120.669 13666.406)"/><path class="x" d="M522.227-376.774c-.176.178-.352.354-.531.531a.56.56,0,0,0,.792.792q.264-.266.531-.533a.559.559,0,0,0-.791-.79" transform="translate(12119.746 13667.261)"/><path class="x" d="M515.481-370.835a.446.446,0,0,0,0-.891.446.446,0,0,0,0,.891" transform="translate(12118.653 13668.14)"/><path class="x" d="M515.353-381.146c.089.575.178,1.15.28,1.723.092.524,1.01.408.94-.128-.081-.62-.173-1.239-.27-1.857s-1.045-.36-.95.262" transform="translate(12118.703 13666.447)"/><path class="x" d="M526.1-374.53q.131.334.263.665c.265.673,1.365.372,1.091-.3-.09-.221-.179-.443-.27-.664-.268-.659-1.351-.377-1.084.3" transform="translate(12120.509 13667.554)"/><path class="x" d="M519.265-409.607l-.932.664c-.432.31-.017,1.033.421.72l.93-.664c.432-.31.017-1.031-.419-.72" transform="translate(12119.176 13661.742)"/><path class="x" d="M531.457-408.557q.068.533.132,1.063c.083.654,1.12.662,1.038,0q-.065-.531-.132-1.063c-.081-.653-1.119-.661-1.038,0" transform="translate(12121.418 13661.85)"/><path class="x" d="M531.859-419.73a.529.529,0,0,0,0-1.058.529.529,0,0,0,0,1.058" transform="translate(12121.4 13659.871)"/><path class="x" d="M521.6-426.985a.348.348,0,0,0,0-.695.348.348,0,0,0,0,.695" transform="translate(12119.702 13658.71)"/><path class="x" d="M545.894-424.663l1.052-.171c.614-.1.477-1.145-.148-1.091q-.53.047-1.061.092a.593.593,0,1,0,.157,1.17" transform="translate(12123.729 13659.005)"/><path class="x" d="M484.812-392.943q.362,1.346.726,2.691a.442.442,0,0,0,.852-.235q-.372-1.344-.74-2.688a.435.435,0,0,0-.838.232" transform="translate(12113.555 13664.473)"/><path class="x" d="M494.383-393.753q.257.729.517,1.458c.2.566,1.091.335.908-.251q-.231-.736-.461-1.474c-.193-.617-1.179-.34-.964.266" transform="translate(12115.165 13664.324)"/><path class="x" d="M496.521-377.17a.41.41,0,0,0,0-.82.41.41,0,0,0,0,.82" transform="translate(12115.465 13667.084)"/><path class="x" d="M490.031-381.811a.376.376,0,0,0,0-.753.376.376,0,0,0,0,.753" transform="translate(12114.376 13666.313)"/><path class="x" d="M485.753-384.944q.608,1.346,1.217,2.692c.187.414.8.056.611-.357q-.612-1.341-1.228-2.686c-.185-.405-.782-.053-.6.351" transform="translate(12113.711 13665.822)"/><path class="x" d="M487.121-373.9c.809.5,1.609,1.01,2.445,1.468a.384.384,0,0,0,.386-.664c-.8-.52-1.622-.988-2.445-1.466a.384.384,0,0,0-.386.662" transform="translate(12113.916 13667.651)"/><path class="x" d="M495.1-381.956a31.946,31.946,0,0,0,.4-3.791.366.366,0,0,0-.717-.1,32.269,32.269,0,0,0-.6,3.763c-.067.517.849.647.919.125" transform="translate(12115.136 13665.717)"/><path class="x" d="M490.842-394.98c0-.408,0-.815,0-1.223a.391.391,0,0,0-.782,0c0,.408,0,.815,0,1.223a.387.387,0,0,0,.774,0" transform="translate(12114.442 13663.951)"/><path class="x" d="M489.386-407.911q.245-1.1.458-2.209c.089-.469-.606-.675-.726-.2q-.276,1.091-.52,2.191c-.114.514.675.732.788.218" transform="translate(12114.193 13661.59)"/><path class="x" d="M484.944-403.01a14.022,14.022,0,0,0-.287-3.742c-.083-.246-.494-.3-.55,0a13.955,13.955,0,0,0,.2,3.742c.039.4.653.414.636,0" transform="translate(12113.426 13662.202)"/><path class="x" d="M496.1-403.266q.121-.488.245-.977a.424.424,0,0,0-.816-.226c-.083.326-.164.651-.246.978a.424.424,0,0,0,.818.224" transform="translate(12115.319 13662.57)"/><path class="x" d="M491.231-401.289q.241-.488.481-.982c.229-.464-.461-.876-.7-.408l-.5.974c-.24.474.48.893.714.416" transform="translate(12114.511 13662.889)"/><path class="x" d="M494.838-412.189l.257-1.463c.1-.55-.751-.779-.838-.231l-.229,1.471c-.083.525.714.759.81.223" transform="translate(12115.109 13660.982)"/><path class="x" d="M487.842-419.149c-.323-.654-.653-1.3-.994-1.946-.259-.488-.96-.059-.732.428.312.661.633,1.313.963,1.965.259.508,1.013.061.763-.447" transform="translate(12113.77 13659.783)"/><path class="x" d="M485.229-413.7a25.722,25.722,0,0,0-.774-4.143.3.3,0,0,0-.589.079,26.174,26.174,0,0,0,.7,4.247c.079.435.735.248.661-.184" transform="translate(12113.398 13660.332)"/><path class="x" d="M490.992-429.169l.488-.734c.273-.408-.385-.788-.654-.383q-.245.367-.489.734c-.273.408.385.788.656.383" transform="translate(12114.478 13658.241)"/><path class="x" d="M493.055-420.759a26.809,26.809,0,0,0,2.5-3.267.408.408,0,0,0-.637-.492,26.844,26.844,0,0,0-2.518,3.255c-.282.372.365.877.654.5" transform="translate(12114.825 13659.223)"/><path class="x" d="M500.731-425.773l.735-.731a.347.347,0,0,0-.489-.491c-.245.245-.488.491-.731.735a.343.343,0,0,0,.485.486" transform="translate(12116.142 13658.808)"/><path class="x" d="M495.1-429.111a27.569,27.569,0,0,0,1.952-2.311c.2-.282-.227-.575-.464-.358a27.287,27.287,0,0,0-2.005,2.152c-.307.352.2.868.517.517" transform="translate(12115.188 13658.006)"/><path class="x" d="M496.928-437.156a20.408,20.408,0,0,0,.969-2.446.389.389,0,0,0-.707-.3,21.444,21.444,0,0,0-1.016,2.538c-.182.472.569.667.754.207" transform="translate(12115.468 13656.618)"/><path class="x" d="M488.178-434.8a8.252,8.252,0,0,0-.538-1.553c-.212-.408-.76-.1-.693.293a7.85,7.85,0,0,0,.478,1.469c.173.463.9.284.753-.209" transform="translate(12113.917 13657.216)"/><path class="x" d="M485.014-426.837q-.238-.369-.474-.742c-.287-.45-1.014-.017-.712.416l.5.724c.287.411.957.036.681-.4" transform="translate(12113.38 13658.694)"/><path class="x" d="M503.974-434.751a27.717,27.717,0,0,0,2.413-3.333.345.345,0,0,0-.539-.416,27.613,27.613,0,0,0-2.6,3.186c-.318.414.407.98.728.562" transform="translate(12116.651 13656.87)"/><path class="x" d="M507.46-429.464q.5-.477,1-.952c.393-.372-.22-.986-.592-.594q-.479.5-.954,1a.384.384,0,0,0,.542.542" transform="translate(12117.265 13658.127)"/><path class="x" d="M511.769-425.512,512.5-426c.4-.266.023-.918-.38-.65q-.367.245-.734.489c-.4.268-.025.919.38.65" transform="translate(12118.008 13658.872)"/><path class="x" d="M511.3-435.263c.351-.679.7-1.351,1-2.055.165-.4-.474-.642-.682-.287-.368.631-.676,1.288-1,1.944-.22.452.447.852.681.4" transform="translate(12117.898 13657.008)"/><path class="x" d="M514.826-438.461a10.777,10.777,0,0,0,1.217-.265c.388-.117.338-.784-.1-.738a12.408,12.408,0,0,0-1.329.237c-.5.107-.285.86.212.767" transform="translate(12118.532 13656.724)"/><path class="o" d="M588.31-468.455S572.522-461.2,560.3-441.208l6.324,4.048s16.593-16.133,27.529-20.546c0,0-.025-11.261-5.847-10.749" transform="translate(12126.28 13651.835)"/><path class="o" d="M560.936-445.14s-3.194,7.231-3.7,7.986c0,0-1.363,2.247-.232,1.4a8.87,8.87,0,0,0,1.98-2.34s-1.295,3.471-.609,2.987a10.866,10.866,0,0,0,1.776-2.543s-1.251,3.644-.4,3.032a8.918,8.918,0,0,0,1.776-2.669s-1.694,4.049-.584,3.135,6.324-6.94,6.324-6.94l-6.324-4.048" transform="translate(12125.647 13655.768)"/><path class="o" d="M560.661-444.78s-4.152,2.959-3.516,3.3,3.1-1.081,3.1-1.081l.421-2.214" transform="translate(12125.736 13655.828)"/><path class="o" d="M588.31-468.455S572.522-461.2,560.3-441.208l6.324,4.048s16.593-16.133,27.529-20.546c0,0-.025-11.261-5.847-10.749" transform="translate(12126.28 13651.835)"/><path class="o" d="M560.936-445.14s-3.194,7.231-3.7,7.986c0,0-1.363,2.247-.232,1.4a8.87,8.87,0,0,0,1.98-2.34s-1.295,3.471-.609,2.987a10.866,10.866,0,0,0,1.776-2.543s-1.251,3.644-.4,3.032a8.918,8.918,0,0,0,1.776-2.669s-1.694,4.049-.584,3.135,6.324-6.94,6.324-6.94l-6.324-4.048" transform="translate(12125.647 13655.768)"/><path class="o" d="M560.661-444.78s-4.152,2.959-3.516,3.3,3.1-1.081,3.1-1.081l.421-2.214" transform="translate(12125.736 13655.828)"/><circle class="v" cx="1.5" cy="1.5" r="1.5" transform="translate(12657.079 13095.9)"/><circle class="v" cx="1.5" cy="1.5" r="1.5" transform="translate(12667.079 13094.9)"/></g></svg>