<svg xmlns="http://www.w3.org/2000/svg" xmlns:xlink="http://www.w3.org/1999/xlink" width="317.923" height="436.273" viewBox="0 0 317.923 436.273"><defs><style>.a{fill:#d9dbd8;}.b{fill:#122235;}.c{fill:#f0365e;}.d{fill:#f68678;}.e{fill:#040606;}.f{fill:#e9eae7;}.g{fill:#192b48;}.h{fill:#2a96af;}.i{clip-path:url(#a);}.j{fill:#278ba3;}.k{fill:#f47063;}.l{fill:#0f1929;}.m{fill:#fff;}</style><clipPath id="a"><path d="M203.154-249.5c0-.036,0-.073,0-.109v.109m0-.109-.74-51.752.124-.655.612,52.144c0,.089,0,.176,0,.263"/></clipPath></defs><g transform="translate(-12396 1856.578)"><path class="a" d="M159.152,0C73.6,0,4.236-6.386,4.236-14.264S73.6-28.528,159.152-28.528s154.914,6.387,154.914,14.264S244.71,0,159.152,0" transform="translate(12396 -1420.305)"/><path class="b" d="M57.838-59.983s2.63,43.224,1.513,47.333S44.6-8.641,41.306-9.784s-3.934-11.327,9.4-10.035A55.607,55.607,0,0,0,49.468-32.36c-2.512-11.091-7.53-26.476-9.434-37.391" transform="translate(12396 -1420.305)"/><path class="b" d="M120.565-61.592s2.632,43.221,1.515,47.333-14.754,4.006-18.047,2.866-3.933-11.33,9.4-10.037a25.293,25.293,0,0,0-.343-11.677c-3.135-10.731-10.279-26.164-10.327-38.252" transform="translate(12396 -1420.305)"/><path class="c" d="M61.046-121.04a41.28,41.28,0,0,0,22.79,6.739,39.443,39.443,0,0,0,25.621-9.161c7.429-6.284,13.079-15.972,15.068-29.48.772-5.243,1.009-12.541,1.535-20.567.785-12.035,2.229-25.691,6.981-36.244a31.815,31.815,0,0,1,9.885-12.943c4.324-3.172,9.789-5.049,16.825-5.052a46.553,46.553,0,0,1,7.308.611,26.39,26.39,0,0,1,14.716,8.344,25.3,25.3,0,0,1,6.943,17.068,25.238,25.238,0,0,1-2.031,9.777,5.511,5.511,0,0,1-5.169,3.727c-3,.011-6.628-2.383-8.749-7.528-2.6-6.281-4-14.289-6.585-20.8a22.494,22.494,0,0,0-5.151-8.264,12.562,12.562,0,0,0-8.945-3.391,19,19,0,0,0-2.488.169.667.667,0,0,0-.573.748.666.666,0,0,0,.748.573,17.81,17.81,0,0,1,2.313-.157,11.21,11.21,0,0,1,8.036,3.032c3.06,2.848,4.959,7.56,6.539,12.789s2.871,10.943,4.873,15.805c2.263,5.489,6.269,8.344,9.983,8.353a6.859,6.859,0,0,0,6.4-4.545,26.593,26.593,0,0,0,2.133-10.292,26.639,26.639,0,0,0-7.293-17.971,27.7,27.7,0,0,0-15.489-8.759,47.943,47.943,0,0,0-7.517-.627c-9.7-.009-16.749,3.5-21.771,9.085-7.535,8.371-10.6,21.235-12.142,33.927s-1.5,25.257-2.633,32.932c-1.956,13.243-7.448,22.592-14.61,28.656a38.106,38.106,0,0,1-24.759,8.846,39.951,39.951,0,0,1-22.048-6.513.666.666,0,0,0-.925.183.667.667,0,0,0,.183.925" transform="translate(12396 -1420.305)"/><path class="b" d="M34.078-106.1c-1.533-5.206-18.253-4.432-20.291-5.187-10.258-3.8-14.931-17.644-13.55-23.27s37.717-3.051,37.717-3.051.27-20.779,4.356-19.867c4.161,3.633,12.379,18.672,12.385,30.59,0,0,5.659,4.407-5.17,13.311" transform="translate(12396 -1420.305)"/><path class="b" d="M54.209-132.219c-.542,4.6-10.382,15.81-20.132,26.114,0,0,3.225,6.631,1.876,13.216-2.691,13.152-2.759,36.347,28.254,38.3,37.326,2.349,42.952-.148,48.232-1.1s.337,13.1,17.318,22.643,8.882,12.2,6.478,13.888-3.4,3.355-3.719,7.034c-.228,2.684,8.5,3.187,13.865,2.612,1.993-.216,4.579-4.1,4.511-7.518-.151-7.43-1.067-13.287-1.167-17.194-.049-1.952-8.195-8.837-9.743-13.825-2.968-9.563-.512-24.963-1.165-29.52-.995-6.934-43.51-21.338-64.419-24.882l-20.19-29.767" transform="translate(12396 -1420.305)"/><path class="b" d="M35.995-80.335S22.608-58.56,20.471-56.131,18.109-49.852,19.63-45.4c2.921,8.549,9.557,15.736,10.985,17.8,3.906,2.9,13.1-7.658.5-16.479l-3.033-5.313L43.589-61.6" transform="translate(12396 -1420.305)"/><path class="b" d="M149.372-99.368c-2.245,7.951-7.68,18.982-14.9,19.3a3.913,3.913,0,0,0-2.5,1.495c11.369,8.351,19.564-12.407,19.961-20.544.083-1.664-2.279-1.254-2.563-.249" transform="translate(12396 -1420.305)"/><path class="c" d="M60.139-121.978a13.369,13.369,0,0,1-2.609,4.463,27.346,27.346,0,0,1-9.09,6.879,32.963,32.963,0,0,1-14.363,3.2,1.334,1.334,0,0,0-1.333,1.333,1.333,1.333,0,0,0,1.333,1.333,35.014,35.014,0,0,0,19.509-5.735,28.238,28.238,0,0,0,5.991-5.3,15.933,15.933,0,0,0,3.116-5.4,1.334,1.334,0,0,0-.893-1.661,1.334,1.334,0,0,0-1.661.893" transform="translate(12396 -1420.305)"/><path class="c" d="M131.315-200.881c2-7.277,5.006-13.705,9.494-18.227a23.54,23.54,0,0,1,7.965-5.335,28.9,28.9,0,0,1,10.977-1.972,45.144,45.144,0,0,1,7.1.595,25.081,25.081,0,0,1,13.944,7.928,23.973,23.973,0,0,1,6.591,16.167,23.918,23.918,0,0,1-1.928,9.264,4.934,4.934,0,0,1-1.7,2.225,3.856,3.856,0,0,1-2.239.681,6.288,6.288,0,0,1-3.868-1.537A12.73,12.73,0,0,1,174-196.258a91.276,91.276,0,0,1-3.245-10.161c-1.507-5.4-2.98-10.944-5.645-15.377a16.7,16.7,0,0,0-5.175-5.556,14.184,14.184,0,0,0-7.848-2.181,20.612,20.612,0,0,0-2.661.18,2,2,0,0,0-1.723,2.244,2,2,0,0,0,2.244,1.723,16.438,16.438,0,0,1,2.14-.147,10.941,10.941,0,0,1,4.063.713,10.87,10.87,0,0,1,4.964,4.2c2.065,2.991,3.531,7.289,4.849,11.917a135.707,135.707,0,0,0,4.34,13.967,16.7,16.7,0,0,0,4.845,6.764,10.271,10.271,0,0,0,6.369,2.415,7.871,7.871,0,0,0,4.516-1.392,8.942,8.942,0,0,0,3.115-3.973,27.937,27.937,0,0,0,2.236-10.805,27.965,27.965,0,0,0-7.645-18.872,29.017,29.017,0,0,0-16.261-9.173,49.169,49.169,0,0,0-7.725-.644,32.906,32.906,0,0,0-12.48,2.264,28.711,28.711,0,0,0-12.837,10.484,51,51,0,0,0-6.976,15.724,2,2,0,0,0,1.4,2.459,2,2,0,0,0,2.459-1.4" transform="translate(12396 -1420.305)"/><path class="d" d="M152.177-235.385c.629,8.564-5.947,12.663-8.945,16.793-2.039,2.811-3.219,1.8-4.524-1.049-2.339-5.095,2.364-6.177.629-4.792-3,2.4,1.521,6.849-.753,9.932-2.417,3.284-6.395-3.44-8.533-8.716-3.682-8.344,6.969-16.852,7.846-17.735,1.905-1.908,7.209-7.4,7.209-7.4l15.881,2.261s-8.868,9.32-8.811,10.7" transform="translate(12396 -1420.305)"/><path class="d" d="M297.266-227.861c-6.108,5.4-4.359,12.545-5.06,17.34-.479,3.257-2.327,6.927.444,5.861,4.969-1.911,4.189-10.124,4.189-10.124a3.754,3.754,0,0,1,1.885,2.877c.453,3.62-3.868,11.107-4.369,14.708-.533,3.836,7.395.573,10.52-3.688,5.789-7.288,5.793-20.107,5.781-21.288-.028-2.557.008-9.805.008-9.805l-14.248-9.243s1.8,12.461.849,13.361" transform="translate(12396 -1420.305)"/><path class="e" d="M306.643-50.16a42.7,42.7,0,0,1,2.444,3.685c.491.915,5.105,5.906,7.931,8.929,1.283,1.368,1.027,2.445.311,3.743-4.215,7.6-27.8,26.964-37.312,20.986-2.787-1.749-.6-8.364,5.085-14.841,3.541-4.033,2.2-13.62,2.816-12.692l.748-1.729,17.977-8.081" transform="translate(12396 -1420.305)"/><path class="f" d="M299.481-70.685c1.4,5.823,6.128,18.807,7.867,21.508s2.1,8.437-2.484,10.83-15.379-6.385-16.945-2l-8.683-22.3,20.245-8.039" transform="translate(12396 -1420.305)"/><path class="e" d="M221.529-31.847a42.763,42.763,0,0,1,0,4.421c-.1,1.033.991,7.745,1.672,11.828.313,1.847-.331,3.2-1.793,3.281-6.769.36-24.857,1.372-29.083,1.372-5.135,0-14.792-.345-15.7-2.351-1.355-3-.523-8.573,9.728-11.707,5.135-1.567,13.352-8.085,13.352-6.973l21.824.128" transform="translate(12396 -1420.305)"/><path class="f" d="M221.585-51.292s.056,18.648,0,21.257-.551,7.211-7.727,6.706-12.139-10.755-15.329-7.564l.059-.868c.22-3.3.171-15.071.295-18.989.145-4.576,22.7-.542,22.7-.542" transform="translate(12396 -1420.305)"/><path class="g" d="M238.578-209.521c2.331,22.169,17.817,79.689,19.723,86.765,2.519,9.364,21.46,62.628,23.852,67.024s19.607-4.79,18.727-9.814-.253-6.244-5.936-32.466c-5.08-23.433-8.355-37.554-8.82-42.669-3.812-41.983.883-76.169-5.836-101.286,0,0-35.544,10.861-76.212,3.984C198.529-195.5,190.1-151.4,190.816-131.056c1.367,38.707,7.713,55.784,8.067,80.306.419,1.8,22.752,3.125,22.7-.542-.649-49.034,2.632-52.3-.7-83.485l17.692-74.744" transform="translate(12396 -1420.305)"/><path class="h" d="M232.29-381.583l21.057.333,24.325,8.924,1.908,49.977,3.08,73.74-2.045,4.024s.805,2.237,2.045,7.148-80.926,6.143-79.506.78,1.993-7.529,1.993-7.529l-1.993-5.315-1.433-121.8,19.809-6.321,10.76-3.957" transform="translate(12396 -1420.305)"/><path class="b" d="M260.689-378.556c0,6.365-6.752,15.933-19.579,16.317-16.629.5-19.58-15.387-19.58-15.387l3.417-1.257,7.343-2.7,21.057.333,7.341,2.693" transform="translate(12396 -1420.305)"/><path class="h" d="M201.721-371.3c-8.3,5.493-23.98,58.875-25.179,64.1s-16.216,27.063-28.769,48.109c-.523.877.172,3.185-.305,3.992-2.915,4.925-4.9,8.4-5.476,9.657-1.688,3.669,13.28,9.72,15.24,6.325.591-1.024,2.543-3.844,5.341-7.787.6-.836,1.927-.707,2.6-1.637,6.883-9.605,29.153-43.821,29.153-43.821l11.659-31.149s5.913-26.079,5.763-26.824S201.721-371.3,201.721-371.3" transform="translate(12396 -1420.305)"/><path class="h" d="M277.673-372.326c6.909,2.569,12.628,4.559,21.911,41.355,4.415,17.5,13.1,61.1,14.483,85.564.056,1.02-1.627,2.744-1.579,3.68.3,5.717.453,9.719.383,11.1-.2,4.035-16.261,3.135-16.425-.785-.052-1.181-.475-4.583-1.133-9.375-.139-1.017-1.376-1.517-1.537-2.652-3.311-23.459-14.193-78.905-14.193-78.905l-6.537-19.064,4.629-30.913" transform="translate(12396 -1420.305)"/><g transform="translate(12396 -1420.305)"><g class="i"><path class="f" d="M202.413-249.5h.741v-52.515h-.741Z"/></g></g><path class="j" d="M203.149-249.873l-.612-52.144,7.58-40.107s-7.109,75.132-6.968,92.25" transform="translate(12396 -1420.305)"/><path class="j" d="M282.661-248.609c-1.009-8.231-4.781-60.852-6.373-83.342l3.293,9.6,3.08,73.74" transform="translate(12396 -1420.305)"/><path class="j" d="M279.581-322.349l-3.293-9.6c-.443-6.249-.716-10.172-.716-10.172l4.009,19.775" transform="translate(12396 -1420.305)"/><path class="j" d="M242.869-242.671c-21.243,0-37.721-1.515-37.721-1.515h0l-1.993-5.315a326.307,326.307,0,0,0,44.743,3.116c21.492,0,34.764-2.224,34.764-2.224l-2.045,4.024h0a340.587,340.587,0,0,1-37.747,1.913" transform="translate(12396 -1420.305)"/><path class="f" d="M147.468-255.1l.143-1.864a3.844,3.844,0,0,1-.143,1.864" transform="translate(12396 -1420.305)"/><path class="j" d="M165.169-248.545c-2.1-.477-17.7-6.559-17.7-6.559h0a3.845,3.845,0,0,0,.143-1.864l.163-2.128c2.98,4.009,17.4,10.551,17.4,10.551h0" transform="translate(12396 -1420.305)"/><path class="j" d="M303.542-240.625A18.654,18.654,0,0,1,294-242.8a37.889,37.889,0,0,0,4.751.295,41.554,41.554,0,0,0,15.312-2.9l-.843,1.964a3.857,3.857,0,0,0-.736,1.716h0a39,39,0,0,1-8.945,1.1" transform="translate(12396 -1420.305)"/><path class="j" d="M219.361-271.489c-1.881-17.856,4.856-28.677,4.856-28.677l-4.856,28.677" transform="translate(12396 -1420.305)"/><path class="j" d="M264.67-271.489l-4.855-28.677s6.735,10.821,4.855,28.677" transform="translate(12396 -1420.305)"/><path class="d" d="M244.153-409.123c.776,9.041,2.329,18.039,5.992,24.883,0,0,4.044,3.481,7.351,4.511,0,0-2.576,13.944-17.671,13.424-.741-.025-2.36,11.156-3.011,11.064-1.2-.171-1.325-11.691-2.247-12.053-7.376-2.9-9.444-10.069-9.427-11.659l7.149-2.629s.792-.664-1.847-6.225,3.384-19.963,3.384-19.963l10.325-1.352" transform="translate(12396 -1420.305)"/><path class="k" d="M231.313-385.778c3.165-.915,8.88-11.741,8.9-13.94s.341-6.705.341-6.705,3.3,9.393.845,15.339c-2.648,6.4-9.115,9.5-9.115,9.5a32.369,32.369,0,0,0-.973-4.195" transform="translate(12396 -1420.305)"/><path class="d" d="M245.179-420.679a18.612,18.612,0,0,1-13.921,22.34c-10.015,2.324-20.489-4.819-22.815-14.832-.5-2.16-1.487-5.624-1.24-7.707,1.495-12.629,18.607-19.956,30.836-12.235,4.269,2.695,6.093,7.927,7.14,12.433" transform="translate(12396 -1420.305)"/><path class="d" d="M209.913-409.208c2.785,9.427,11.732,24.119,20.611,23.567,4.167-.26,12.2-9.419,11.149-16.216s-2.232-14.2-2.232-14.2" transform="translate(12396 -1420.305)"/><path class="b" d="M213.25-403.646c.535,1.255,1.727,1.953,2.663,1.556s1.259-1.737.724-3-1.724-1.957-2.659-1.56-1.264,1.74-.728,3" transform="translate(12396 -1420.305)"/><path class="b" d="M225.821-409.132c.451,1.288,1.6,2.06,2.557,1.723s1.365-1.657.912-2.945-1.6-2.064-2.556-1.727-1.368,1.657-.913,2.949" transform="translate(12396 -1420.305)"/><path class="k" d="M220.322-396.516a8.439,8.439,0,0,0,2.841-.117,11.277,11.277,0,0,0,2.676-2.245c.045-.323-6.221,2.251-5.517,2.363" transform="translate(12396 -1420.305)"/><path class="b" d="M223.07-415.755a1.949,1.949,0,0,1,.12-.379,3.381,3.381,0,0,1,.5-.849,4.112,4.112,0,0,1,1.052-.927,4.5,4.5,0,0,1,1.545-.565,5.011,5.011,0,0,1,1.625-.017,5.116,5.116,0,0,1,1.291.416,4.905,4.905,0,0,1,1.063.695.7.7,0,0,1,.031.993.693.693,0,0,1-.532.221h-.053l-.295-.011a4.82,4.82,0,0,0-.729-.047c-.291-.025-.613-.009-.941,0-.161.031-.327.031-.489.052-.159.049-.324.056-.48.1a6.909,6.909,0,0,0-.9.309c-.289.115-.571.236-.819.357s-.469.227-.631.3-.24.087-.249.107a.667.667,0,0,1-.925.177.666.666,0,0,1-.179-.925" transform="translate(12396 -1420.305)"/><path class="b" d="M214.043-410.538l-.065.005-.08.048-.136.071-.257.117a6.419,6.419,0,0,0-1.3.759,4.895,4.895,0,0,0-.919.943c-.087.157-.2.291-.248.4l-.109.173a.667.667,0,0,1-.715.615.667.667,0,0,1-.615-.715,2.6,2.6,0,0,1,.009-1.1,3.166,3.166,0,0,1,.459-1.075A3.707,3.707,0,0,1,211-411.2a4.406,4.406,0,0,1,2.136-.771,3.448,3.448,0,0,1,.436-.005c.145.009.229.012.405.033a.707.707,0,0,1,.268.072l.057.028a.689.689,0,0,1,.32.92.686.686,0,0,1-.545.385l-.032,0" transform="translate(12396 -1420.305)"/><path class="k" d="M247.379-413.151c.321,3.325-1.223,8.044-3.909,7.353-2.164-.559-3.5-10.488-1.051-11.6,2.635-1.2,4.641.919,4.96,4.248" transform="translate(12396 -1420.305)"/><path class="l" d="M239.307-411.732c.3,1.624,1.347,10.52.1,11.592-1.659,1.427-10.057,1.315-14.977,3.912-4.216,2.225-3.9,3.471-4.883,3.479s-4.776-5.609-4.776-5.609,10.855,20.545,20.8,19.051,11.281-17.4,7.551-25.06a24.991,24.991,0,0,1-1.944-8.731s-1.981.075-1.869,1.367" transform="translate(12396 -1420.305)"/><path class="m" d="M223.041-392.34c.068-.6,7.653-3.167,8.273-3.063s-1.252,4.013-2.939,4.661c-1.309.5-5.419-.884-5.335-1.6" transform="translate(12396 -1420.305)"/><path class="c" d="M131.315-200.881c1.891-6.887,4.689-13.021,8.789-17.487a2,2,0,0,0-.123-2.825,2,2,0,0,0-2.825.123c-4.713,5.149-7.7,11.873-9.7,19.128a2,2,0,0,0,1.4,2.459,2,2,0,0,0,2.459-1.4" transform="translate(12396 -1420.305)"/></g></svg>