<svg xmlns="http://www.w3.org/2000/svg" width="534.201" height="358.503" viewBox="0 0 534.201 358.503"><defs><style>.a{fill:#d9dbd8;}.b{fill:#5768de;}.c{fill:#7d8aeb;}.d{fill:#b5431d;}.e{fill:#e05728;}.f{fill:#f4bb9b;}.g{fill:#4d3530;}.h{fill:#423123;}.i{fill:#664833;}.j{fill:#96694b;}.k{fill:#d8653a;}.l{fill:#8ea39f;}.m{fill:#c7ddda;}.n{fill:#daefeb;}.o{fill:#ffa400;}.p{fill:#ffa90f;}.q{fill:#ffc04f;}.r{fill:#ffaa12;}.s{fill:#f49d00;}.t{fill:#ffda99;}</style></defs><g transform="translate(61.331 -301.859)"><path class="a" d="M599.285-1.333c-147.515,0-267.1-6.386-267.1-14.264,0-7,94.485-12.827,219.1-14.034,1.268.273,3.7.01,7.609,0,4.166,0,11.319-.23,19.546-.228,5.375,0,10.628-.068,16.36,0h7.76c146.015.093,263.83,6.444,263.83,14.262,0,7.878-119.578,14.264-267.1,14.264" transform="translate(-393.512 661.695)"/><path class="b" d="M113-53.641s-2.624,8.494.133,14.947l43.161-.392s-.6-7-6.031-9.659c-5.41-2.65-18.374-5.058-22.794-15.627L113-53.641" transform="translate(94 688.695)"/><path class="c" d="M105.968-50.168s-4.055,10.4-1.194,18.745l54.148,3.47s-.112-8.838-6.669-12.667S129.655-48.652,125.1-62.3L105.968-50.168" transform="translate(63 684.924)"/><path class="d" d="M103.041-119.082c-1.683,8.621-3.256,19.731,4.488,32.877s22.028,37.242,25.527,53.366,4.657,68.7,4.657,68.7h23.192s2.175-55.9.923-70.7-4.953-61.128-13.18-87.069l-45.608,2.818" transform="translate(69.216 600.117)"/><path class="e" d="M103.528-124.778c-3.691,7.792-4.2,20.974,0,35.362s11.272,37.754,10.7,53.936-6.639,71.465-6.639,71.465l28.694,2.644S142.388-15.1,144.8-29.488c2.39-14.385,4.16-64.125,2.609-90.793l-43.881-4.5" transform="translate(62 598.998)"/><path class="f" d="M133.466-110.8s3.919,5.963,4.657,8.39S155.455-87.5,160.285-91.043c4.831-3.575,1.669-3.087-2.473-6.592-4.158-3.466-8.6-6.7-6.369-8.41s3.93,2.8,6.755,2.423c2.087-.278.023-3.018-2.825-6.63-1.14-1.454-3.544-3.924-4.224-4.587-5.174-5.039-7.547-4.275-9.023-6.852-1.519-2.616-8.66,10.89-8.66,10.89" transform="translate(114 596.291)"/><path class="g" d="M221.428-147.785a3.209,3.209,0,0,1-2.174,3.99L158.428-125.92a3.211,3.211,0,0,1-3.993-2.184,3.209,3.209,0,0,1,2.174-3.984l60.826-17.875a3.22,3.22,0,0,1,3.993,2.177" transform="translate(140 553.787)"/><path class="f" d="M151.468-138.255s6.015-3.274,7.746-4.985,21.423-4.783,23.916.425c2.463,5.229.008,3.371-5.09,4.451-5.094,1.047-10.323,1.778-9.2,4.224,1.114,2.471,4.573-.576,6.826,1.03,1.627,1.177-1.362,2.556-5.414,4.321-1.627.715-4.771,1.719-5.653,1.967-6.679,1.912-8.322.2-10.739,1.715-2.48,1.513-2.4-13.147-2.4-13.147" transform="translate(127 560.998)"/><path class="f" d="M142.11-101.37c1.769-19.76-.009-29.819-.993-32.336-1-2.5-2.73-16.816,8.6-12.381,8.634,3.376,9.13-.24,9.045-3.074-1.221-.719-2.053.023-1.769-1.8l.128-.846-4.768-6.446a3.78,3.78,0,0,1-5.46-.777l-17.19-23.181c-3.781,10.091-1.415,22.413-1.3,24.587.193,3.965-6.235,15.572-11.4,23.819-5.146,8.264-8.079,19.712-8.354,39.284-.175,12.355-5.274,52.3-5.274,52.3l23.695,2.08c.8-5.38,13.274-41.471,15.039-61.231" transform="translate(63.686 518.404)"/><path class="f" d="M146.194-184.95c1.221,1.686,8.827,5.629,9.993,14.159.646,4.712.384,4.206-.561,5.661-1.559,2.444.4,5.665,1.517,7.426,1.706,2.714,3.76,4.464.477,5.69-3.689,1.38-2.366,2.725-1.4,3.825.7.823-.941,2.114-1.45,2.5,0,0,1.472,1.776.243,2.674s-2.426.654-2.64,1.639.382,4.982-1.608,6.129c-2.015,1.157-6.676-.446-9.169-.891-2.106-.377-4.968-.9-7.7.974-8.67,6.035-7.694,9.342-7.694,9.342s-5.554-.083-11.612-6.661c-1.474-1.585-2.195,1.467-1.029-1.909,1.864-5.474-6.614-33.745,2.977-33.109.425.04,21.332-5.32,21.332-5.32l8.327-12.128" transform="translate(80.367 492.643)"/><path class="h" d="M109.354-173.147c4.389-9,9.995-17.84,21.03-16.609,11.015,1.219,22.05,6.831,23.977,2.112,0,0,3.746,10.97-.388,15.432-.819-2.047-16.641,13.775-19.122,16.1-2.489,2.347.237-5.339-3.85-5.464-4.1-.148-7.623,7.692-6.672,11.573.715,2.992-5.862,7.124-5.862,7.124l-7.073,2.866,1.067-6.4s-7.5-17.726-3.108-26.733" transform="translate(79.76 491.73)"/><path class="b" d="M117.287-164.265s7.972,4.2,10.641,4.074c1.6-.068,7.9,7.166,12.094,14.935s12.823,19.315,19.819,26.671c7.067,7.42,26.523,7.488,26.523,7.488L185.19-86.659s-24.655.691-33.191-9.189a204.629,204.629,0,0,0-16.763-17.2l-5.151,72.058-25.1-4.917,12.3-118.354" transform="translate(92 531.084)"/><path class="c" d="M131.094-165.465a53.4,53.4,0,0,0-9.868,12.068c-6.823,10.98-11.437,20.591-11.82,46.577-.213,16.4-7.608,72.641-7.608,72.641l59.026,9.289,9.285-77.313c3.9-30.654-13.633-54.98-13.633-54.98-4.579.12-17.164-3.425-20-4.233a45.624,45.624,0,0,1-5.378-4.049" transform="translate(61 518.635)"/><path class="b" d="M138.731-154.381s11.2,41.754,13.413,49,36.192,43.972,36.192,43.972l-13.96,15.427s-42.784-41.4-43.775-42.833-17.726-38.793-21.518-50.464c-2.441-7.542,4.35-17.227,13.919-19.181,5.231-1.071,15.729,4.078,15.729,4.078" transform="translate(70 537.998)"/><path class="h" d="M128.371-149.142l.361.057c2.188.391,6.28,1.8,8.049.783a3.1,3.1,0,0,0,1.245-2.4c-.01,0-12.326-1.155-15.068-5.181-3.535-5.14-1.769-11.05-2.521-20.775s-1.526,5.964-1.526,5.964-2.354,18.327,6.493,20.51a17.168,17.168,0,0,1,2.967,1.041" transform="translate(93.256 506.453)"/><path class="i" d="M202.741-104.474c-.795,2.853.6,7.612-6.205,7.885s-15.8-1.345-15.338,2.958,5.195,8.517,3.111,13.026c-2.061,4.5-4.425,4.909-7.519-5.79s-4.407-11.374,3.533-16.611,9.123-5.347,11.6-7.3,10.819,5.829,10.819,5.829" transform="translate(164.865 624.717)"/><path class="g" d="M171.188-129.251a56.391,56.391,0,0,1,5.982,3.349c1.025.889-5.16,1.011-7.9,2.026s15.76,4.214,15.76,4.214.053-5.388.108-5.65-9.093-4.943-9.093-4.943-5.583-3.741-4.862,1" transform="translate(166.541 593.727)"/><path class="i" d="M211.719-60.192c-.735,2.816-.516,13.669-.535,16.025-.031,2.337-8.058,12.632-10.569,15.633s-5.547-.46-2.148-6.561S205.438-47.028,204.39-51s-4.571-12.2-2.594-20.848,11.085,7.28,9.923,11.658" transform="translate(196.284 673.998)"/><path class="j" d="M170.862-113.969c.81-1.816,2.957-.6,8.452.472,5.262,1.033,12.1.425,11.763-1.236-.587-2.835-4.825-4.993-10.286-6.143s-6.452-2.216-6.464-.923a7.67,7.67,0,0,1-5.149-2.638c-2.067-2.507-3.834-10.136.749-10.989s15.646,3.287,17.087,2.556c1.455-.734,7.968-5.846,14.964-3.339s10.045,5.213,13.876,11.721c3.81,6.5,10.785,26.375,14.133,30.188A51.5,51.5,0,0,1,241.97-73.64c3.581,11.384,12.849,35.1,19.083,43.671s5.993,13.438,13.335,10.568,13.772-19.91,7.345-28.776,1-8.085,5.241-.713,3.672,22.8-7.241,34.5C268.8-2.688,271.847-3.6,271.571.225a42.388,42.388,0,0,1-4.953,17.366c-3.7,6.488-6.177,10.891-4.122,14.691s2.737,4.2-.183,14.467c-2.379,8.286-5.923,25.721-10.149,24.831s-2.055-8.72-.187-16.359,4.076-15.734,1.929-19.037-12.136-11.368-12.586-21.572-2.043-26.091-12.375-32.4-30.608-24.578-32.883-35.94,1.144-26.465,1.663-33.864c.52-7.421-1.064-13.444-8.4-15.512-7.354-2.054-21.407-4.226-18.462-10.864" transform="translate(161 584.998)"/><path class="g" d="M192.334-121.374c.652-3.122,2.888-16.566-2.331-18.551-5.2-1.977-9.118,1.191-7,1.642.862.178,1.98.058,2.977.147,1.482.139,2.689.741,2.344,3.48a79.267,79.267,0,0,1-1.6,8.688l5.614,4.594" transform="translate(180 578.576)"/><path class="i" d="M168.941-126.359c.823-1.845,3-.608,8.587.479,4.492.884,10.087.578,11.576-.541l.075-.056.14-.149.081-.121.056-.126.025-.262c6.3,3.425,4.166,5.418,11.169,10.409s10.641,6.1,9.535,16.4-12.679,23.68,1.6,37.561S237-44.129,239.37-32.048c2.346,11.883,1.031,19.908.786,30.531-.177-1.83-.41-3.732-.705-5.642l-.025-.113c-.208-1.261-.444-2.522-.736-3.764l-.025-.091c-.131-.6-.292-1.2-.444-1.789l-.059-.227c-.174-.581-.351-1.187-.528-1.762l-.034-.062c-.177-.566-.367-1.118-.578-1.671l-.081-.209c-.2-.537-.423-1.08-.655-1.609l-.118-.276c-.245-.535-.482-1.057-.761-1.573l-.037-.078c-.258-.484-.528-.96-.82-1.434l-.155-.246c-.28-.472-.6-.929-.913-1.37l-.186-.258c-.342-.45-.68-.892-1.056-1.308l-.025-.032c-.373-.419-.749-.811-1.137-1.193l-.221-.205c-.4-.369-.811-.719-1.246-1.056l-.245-.193c-.457-.335-.916-.664-1.407-.96-10.51-6.425-31.1-24.971-33.409-36.516s1.162-26.889,1.69-34.407c.528-7.54-1.081-13.66-8.537-15.761-7.472-2.087-21.75-4.293-18.758-11.038" transform="translate(162.778 596.637)"/><path class="j" d="M183.28-133.32c1.019-.51,4.826-3.422,9.425-3.567.916,2.978,1.853,6.847,3.106,7.889,1.995,1.649,6.133,4.676,4.733,9.921-1.42,5.253-3.406,6.672-3.352,8.705s-2.4,1.411-7.049-.033c-4.67-1.438-4.014-.144-6.738-.414-2.706-.269-5.722-2.425-9.259-3.174-2.676-.557-3.4.992-5.125.7a3.253,3.253,0,0,1-.134-3.186,1.4,1.4,0,0,1,.463-.582,40.083,40.083,0,0,1,5.308.624l.054.016c.523.12,1.087.248,1.706.363,4.689.921,10.782.379,10.482-1.1a16.622,16.622,0,0,0,4.057-2.084c1.643-1.272-2.338-2.106-3.531-4.089s-4.526-2.676-6.038-4.641-3.529.676-5.659.916-3.888-.128-3.981-.834,1.172-2.295,2.954-4.131-1.471-2.954-1.471-2.954l.1-.264c4.278.817,9.074,2.354,9.946,1.918" transform="translate(167 587.998)"/><path class="k" d="M172.647-126.074s-1.393-1.788-3.839,1.027c-2.776,3.17-3.624-1.538-1.334-2.71s7.092-.5,11.387,2.672l-6.214-.989" transform="translate(162 595.904)"/><path class="g" d="M198.33-97.488c.848-4.069-2.355-5.029-1.295-8.955,1.077-3.919.652-5.02,2.9-5.48a41.128,41.128,0,0,1,1.573,4.224c2.387,7.606,8.37,23,12.744,29.756-2.1,1.839-5.085-.248-6.934-2.244-2.055-2.189-4.336-1.1-8.238-3.46s-1.606-9.775-.751-13.841" transform="translate(209.335 636.998)"/><path class="i" d="M198.726-107.5a72.836,72.836,0,0,0,1.893-9.777,47.833,47.833,0,0,1,9.537,17.58q.433,1.37.966,2.959c-.71,5.718-2.379,12.738-8.159,13.5-5.824.783-6.348-1-10.582-4.169s3.068-6.054,4.39-10.765-.565-6.783,1.955-9.328" transform="translate(192.031 610.998)"/><path class="g" d="M208.139-79.74c1.759,3.451,4.269.894,9.074,1.906s4.211,7.437,8.02,15.174c3.826,7.751-5.548,11.549-4.658,22.911s-2.332,4.215-2.435,11.637c-2.407-3.7-13.534-12.677-14.035-24.056-.4-8.944-1.569-21.816-7.672-30.32,2.268-.6,9.94-.706,11.706,2.748" transform="translate(181.95 642.352)"/><path class="g" d="M186.17-136.228c6.818,2.445,9.807,5.09,13.547,11.443,3.042,5.217,8.174,19.177,11.723,26.1-2.92,4.717-3.1,2.283-5.83.03s-2.06,1.764-5.893,3.146c-3.83,1.4-5.6-.666-6.717-4.95s-1.388-1.477-5.49-2.672-1.746-2.227-2.23-3.275,4.767-9.511,5.32-11.484-2.752-8.106-4.938-8.714-1.723-3.866-3.245-4.591-3.26-5.266-3.284-5.311a12.2,12.2,0,0,1,7.036.281" transform="translate(177.795 584.998)"/><path class="j" d="M205.9-98.832c-1.31,3.063-.457,8.578-8.1,7.87s-17.434-3.885-17.563.981,4.52,10.3,1.515,15c-2.982,4.715-5.678,4.817-7.531-7.583s-3.2-13.36,6.462-18.009,10.972-4.6,14.022-6.4,11.192,8.14,11.192,8.14" transform="translate(172.768 618.699)"/><path class="h" d="M169.815-136.206a7.883,7.883,0,0,1,2.247-.024c.077.088,1.87,2.1.233,3.707-1.145,1.107-3.7,1.084-5.235.951-.109-2.22.565-4.228,2.756-4.634" transform="translate(161 585.998)"/><path class="i" d="M174.633-133.622c-1.893-.946,4.991.022,6.833-.715,1.867-.73,4.76-1.452,5.688-.946.9.5,1.141,4.724,3.464,3.89s4.1.74,2.55,2.156c-1.571,1.419-2.525-2.564-6.248.03s-3.316.108-4.623-.972a7.044,7.044,0,0,0-4.32-1.831c-1.419.014-2.608-1.239-3.344-1.611" transform="translate(168 585.564)"/><circle cx="1.5" cy="1.5" r="1.5" transform="translate(351 452)"/><path class="l" d="M1166.651-375.215H993.636v11.72h173.014v-11.72" transform="translate(-1018.818 989.531)"/><path class="l" d="M1017.82-397.544h-8.557v46.887h2.233l6.324-46.887" transform="translate(-1018.818 989.531)"/><path class="l" d="M1145.256-397.544h8.556v46.887h-2.231l-6.325-46.887" transform="translate(-1018.818 989.531)"/><path class="m" d="M1170-478.024l-178.316-2.115v113.853H1170V-478.024" transform="translate(-1018.818 989.531)"/><path class="n" d="M1131.072-478.024H1051.54l-23.72,111.738h79.532l23.72-111.738" transform="translate(-1018.818 989.531)"/><path class="o" d="M54.123-100.43l-.037-.36L46.5-103.314a5.848,5.848,0,0,1-3.948-4.651l-1.037-6.49a5.86,5.86,0,0,1,1.333-4.732,5.862,5.862,0,0,1,4.462-2.066H52l-.144-1.361H47.309a7.231,7.231,0,0,0-7.139,8.375l1.037,6.489a7.224,7.224,0,0,0,4.858,5.724l8.121,2.694a9.056,9.056,0,0,1-.063-1.1" transform="translate(-64.818 574.998)"/><path class="p" d="M92.675-114.238l-1.036,6.489a7.216,7.216,0,0,1-4.867,5.724L78.588-99.3a9.2,9.2,0,0,0,.081-1.127l.028-.343,7.652-2.541a5.879,5.879,0,0,0,3.948-4.651l1.037-6.49A5.858,5.858,0,0,0,90-119.186a5.878,5.878,0,0,0-4.47-2.066H80.787l.135-1.361h4.605a7.237,7.237,0,0,1,7.147,8.375" transform="translate(-64.818 574.998)"/><path class="p" d="M85.64-118.421l-.519,3.248a3.612,3.612,0,0,1-2.437,2.865l-4.1,1.362a4.606,4.606,0,0,0,.04-.564l.014-.172,3.831-1.272a2.943,2.943,0,0,0,1.976-2.328l.519-3.249A2.933,2.933,0,0,0,84.3-120.9a2.943,2.943,0,0,0-2.238-1.034H79.689l.068-.682h2.305a3.623,3.623,0,0,1,3.578,4.193" transform="translate(-36.818 605.639)"/><path class="p" d="M78.634-118.421l.519,3.248a3.612,3.612,0,0,0,2.436,2.865l4.1,1.362a4.606,4.606,0,0,1-.04-.564l-.014-.172-3.83-1.272a2.943,2.943,0,0,1-1.976-2.328l-.519-3.248a2.932,2.932,0,0,1,.668-2.369,2.943,2.943,0,0,1,2.238-1.034h2.373l-.068-.682H82.212a3.623,3.623,0,0,0-3.578,4.192" transform="translate(-53.818 605.639)"/><path class="o" d="M66.367-129.081v4.217c-8.683-.009-15.807-.953-15.807-2.114s7.064-2.1,15.807-2.1" transform="translate(-64.818 574.998)"/><path class="o" d="M62.209-129.081v3.108c-6.4-.007-11.65-.7-11.65-1.558s5.206-1.55,11.65-1.55" transform="translate(-21.818 607.107)"/><path class="p" d="M82.228-126.977l-.164.3v.009c-1.108,1.021-7.735,1.8-15.7,1.8v-4.217c8.736,0,15.862.944,15.862,2.1" transform="translate(-64.818 574.998)"/><path class="p" d="M73.8-128.1l-.077.141v0c-.519.479-3.625.845-7.356.845v-1.976c4.094,0,7.433.442,7.433.986" transform="translate(-29.818 607.238)"/><path class="q" d="M66.367-66.85V-64.7c-5.815,0-10.5-.962-10.5-2.148l.086-.267.009-.016a12.319,12.319,0,0,1,8.745-8.093l.163-.043-.224-6.3a6.491,6.491,0,0,0-3.831-5.849c-4.75-2.336-7.026-8.151-7.489-11.914l-2.766-27.649c0,1.16,7.124,2.1,15.807,2.114V-66.85" transform="translate(-64.818 574.998)"/><path class="q" d="M58.463-96.914v1.074c-2.908,0-5.25-.481-5.25-1.074l.043-.133,0-.008a6.16,6.16,0,0,1,4.372-4.047l.081-.021-.112-3.148a3.245,3.245,0,0,0-1.915-2.924c-2.375-1.168-3.513-4.076-3.745-5.957l-1.383-13.825c0,.58,3.562,1.052,7.9,1.057v29.007" transform="translate(-21.818 606.135)"/><path class="r" d="M66.367-66.85V-64.7c5.815,0,10.5-.962,10.5-2.148l-.086-.267-.009-.016a12.316,12.316,0,0,0-8.744-8.093l-.164-.043.224-6.3a6.491,6.491,0,0,1,3.831-5.849c4.75-2.336,7.026-8.151,7.49-11.914l2.767-27.649c0,1.16-7.125,2.1-15.809,2.114V-66.85" transform="translate(-64.818 574.998)"/><path class="r" d="M66.367-96.812v1.078c2.917,0,5.268-.483,5.268-1.078l-.043-.134,0-.008a6.179,6.179,0,0,0-4.387-4.06l-.082-.021.112-3.159a3.256,3.256,0,0,1,1.922-2.934c2.383-1.172,3.525-4.089,3.757-5.977L74.3-126.977c0,.582-3.575,1.056-7.931,1.06v29.1" transform="translate(-29.818 606.029)"/><path class="s" d="M69.8-121.469a72.676,72.676,0,0,0,8.428-.612L75.99-99.671c-.335,2.7-2.107,7.461-5.589,9.173-.2.1-.405.207-.6.317v-31.289" transform="translate(-64.818 574.998)"/><path class="t" d="M62.931-90.181c-.194-.109-.395-.216-.6-.316-3.481-1.712-5.254-6.469-5.6-9.251L54.5-122.081a72.7,72.7,0,0,0,8.43.612v31.288" transform="translate(-64.818 574.998)"/></g></svg>