<svg xmlns="http://www.w3.org/2000/svg" xmlns:xlink="http://www.w3.org/1999/xlink" width="353.138" height="289.186" viewBox="0 0 353.138 289.186"><defs><style>.a{fill:#d9dbd8;}.b{fill:url(#a);}.c{fill:#d18637;}.d{fill:#bde7f7;}.e{fill:#6fc9eb;}.f{fill:#dcf7ff;}.g{fill:#297bf7;}.h{fill:#ffc625;}.i{fill:#f9b313;}.j{fill:#eca91f;}.k{fill:#ad6bca;}.l{fill:#915fcc;}.m{fill:#081dc0;}.n{fill:#fc0063;}.o{fill:#081ec7;}.p{fill:#0b1b71;}.q{fill:#f3b6ab;}.r{fill:#f4948e;}.s{fill:#061171;}.t{fill:#69e8ff;}.u{fill:#4bd0e2;}.v{fill:#ea0049;}.w{fill:#081293;}.x{fill:#fd66a1;}.y{fill:#6b78dd;}.z{fill:#a4f4ff;}.aa{fill:#082321;}.ab{fill:#993022;}.ac{fill:#fff;}.ad{fill:#1e1724;}.ae{fill:#051917;}</style><linearGradient id="a" x1="0.272" y1="0.31" x2="0.938" y2="0.986" gradientUnits="objectBoundingBox"><stop offset="0" stop-color="#be8447"/><stop offset="1" stop-color="#5f4224"/></linearGradient></defs><g transform="translate(-1168.313 -580.623)"><path class="a" d="M180.448,15.507C83.13,15.507,4.236,5.649,4.236-6.511S83.13-28.528,180.448-28.528,356.659-18.67,356.659-6.511s-78.89,22.017-176.211,22.017" transform="matrix(1, 0.017, -0.017, 1, 1164.349, 848.08)"/><path class="b" d="M11449.094,2385.278l-4.579,144.044-89.8-26.223-28.253-7.815-3.006-133.45Z" transform="translate(-9996 -1670)"/><path class="c" d="M11447.414,2384.477l34.752-10.729-2.509,134.765-35.143,20.808Z" transform="translate(-9996 -1670)"/><path class="d" d="M11385.633,2378.834l-3.489-98.706,125.774,14.8v106.354Z" transform="translate(-10058 -1687)"/><path class="e" d="M11507.754,2294.984l36.318-12.418v108.122l-36.669,12.022Z" transform="translate(-10058 -1687)"/><path class="e" d="M11382.144,2280.128l38.686-12.505,123.758,14.312-37.464,12.839Z" transform="translate(-10058 -1687)"/><path class="d" d="M11420.619,2267.623v16.627l86.5,10.524,37.464-12.628Z" transform="translate(-10058 -1687)"/><path class="f" d="M11439.474,2383.243l29.131-95.718,37.918,3.7-34.681,98.493Z" transform="translate(-10095 -1689)"/><g transform="translate(-10031 -1692)"><path class="g" d="M495.046-975.766c-2.329.44-4.2-.55-5.605-2.607a18.174,18.174,0,0,1-2.485-6.749c-1.213-6.325-.745-17.02,0-22.4a9.091,9.091,0,0,1,9.115-7.828,3.035,3.035,0,0,1,1.46.358c2.292,1.235,3.023,5.545,2.633,10.719-.459,6.132.284,11.438.748,17.295s-1.675,10.42-5.865,11.215" transform="translate(10899.422 3307.984)"/><path class="h" d="M462.493-764.077s-.8.594-1.558,1.2a6.033,6.033,0,0,0-1.33,1.226c-.158,0-12.853-22.1-15.445-31.169-2.6-9.12-.743-22.512-.743-22.512s-4.942-13.026-7.458-21.583c-2.472-8.426-9.167-32.176-9.378-32.922l-.007-.013s-4,35.069-4.743,44.657-3.623,62.515-3.623,62.515l-1.424.834-1.278.743s-10.977-32.835-11.261-43.343a65,65,0,0,1,2.516-19.265s-6.208-45.114-5.495-61.86,6.424-22.142,7.506-22.84l-.24.23a36.634,36.634,0,0,0,9.037,7.048,22.785,22.785,0,0,0,3.941,1.7c7.3,2.329,19.115,3.073,23.951.559,0,0,8.277,61.117,9.393,73.4s7.638,61.4,7.638,61.4" transform="translate(10899.422 3307.984)"/><path class="i" d="M410.73-793.008c.834,8.3,4.433,22.781,6.056,31.162l-1.278.743s-10.977-32.835-11.261-43.343a65,65,0,0,1,2.516-19.265s-6.208-45.114-5.495-61.86,6.424-22.142,7.506-22.84l-.241.23a36.633,36.633,0,0,0,9.037,7.048l-8.387,17.564s-1.118,17.065-.65,29.719,3.068,29.955,3.068,29.955-.559,6.884-.871,9.674a108.079,108.079,0,0,0,0,21.212" transform="translate(10899.422 3307.984)"/><path class="i" d="M460.935-762.879a6.033,6.033,0,0,0-1.33,1.226c-.158,0-12.853-22.1-15.445-31.169-2.6-9.12-.743-22.512-.743-22.512s-4.942-13.026-7.458-21.583c-2.472-8.426-9.167-32.176-9.378-32.921.173.314,2.964,5.393,5.506,11.336,2.628,6.141,16.725,41.491,16.725,41.491a83.278,83.278,0,0,0,0,17.863c1.116,8.561,5.768,25.49,8.931,30.142a25.281,25.281,0,0,1,3.192,6.128" transform="translate(10899.422 3307.984)"/><path class="j" d="M420.673-868.066c-3.885,0-9.943-4.141-9.943-4.141a38.078,38.078,0,0,1,.65-4.9,13.158,13.158,0,0,0,1.59,1.972h0a14.135,14.135,0,0,0,1.853,1.623,14.407,14.407,0,0,0,6.206,2.672s1.452-1.809,3.194-4.214h0a72.813,72.813,0,0,0,4.063-6.084c.761-1.313,1.378-2.4,1.87-3.291h0c1.229-2.24,1.681-3.222,1.681-3.222l-.561-2.986.813.446.477,5.144c-1.242,5.393-10.34,16.686-10.34,16.686a3.693,3.693,0,0,1-1.551.3" transform="translate(10899.422 3307.984)"/><path class="k" d="M447.317-948.378c-.217-.041-.336-.074-.36-.074a13.21,13.21,0,0,1,.925,1.311c.878,1.413,2.03,3.744,1.673,5.933a6.711,6.711,0,0,1-1.2,2.789,10.015,10.015,0,0,1-2.895,2.613l-.028.1c-.676,2.607-2.472,10.108-1.647,15.429.841,5.4,1.675,21.4,1.675,21.4-3.809,1.98-11.937,1.944-18.786.7a40.668,40.668,0,0,1-5.166-1.257c-7.291-2.329-12.979-8.745-12.979-8.745l.241-.23a33.526,33.526,0,0,0,4.97-7.122,44.267,44.267,0,0,0,5.3-15.629c.312-3.291-.693-9.358-1.023-11.182-.059-.34-.1-.533-.1-.533s-.061.162-.147.453c-.061.2-.143.433-.232.721a42.648,42.648,0,0,0-1.482,5.9c-.065.468-.117.975-.162,1.5v.011c-.2,2.522-.186,5.393-.186,5.393s-.789.312-2.026.947c-.871.446-1.961,1.049-3.161,1.822a7.241,7.241,0,0,0-1.346,1.14l-.009.013a11.123,11.123,0,0,0-2.412,4.52c-4.927-6.238-3.348-15.72-1.4-27.448.455-2.726.938-5.07,1.406-7.055a45,45,0,0,1,2.971-9.319,24.267,24.267,0,0,1,3.267-2.522c4.1-2.745,9.913-5.7,11.809-6.127h7.308s3.634,2.028,8.151,4.316h.009c5.267,2.68,11.735,5.733,15.042,6.388a34.848,34.848,0,0,0,11.594.215,34.9,34.9,0,0,1,.73,5.621c.1,1.088.171,2.078.225,2.962.154,2.611.154,4.288.258,4.823l.03.15c-6.8,2.865-18.064.682-20.66.128l-.186-.048" transform="translate(10899.422 3307.984)"/><path class="l" d="M440.275-968.615a56.89,56.89,0,0,1-9.51,3.315c-6.663,1.727-13.9-.156-17.759-1.5,4.1-2.745,9.913-5.7,11.811-6.128h7.308s3.632,2.028,8.149,4.316" transform="translate(10899.422 3307.984)"/><path class="l" d="M409.182-924.992l-.009.013a11.124,11.124,0,0,0-2.412,4.52c-4.927-6.238-3.348-15.72-1.4-27.448.453-2.726.938-5.07,1.406-7.055l.455,3.525s.1,9.484,0,13.949,1.4,9.867,1.959,12.5" transform="translate(10899.422 3307.984)"/><path class="l" d="M422.228-914.878c.832,3.044,3.512,12.645,4.448,16.7a40.664,40.664,0,0,1-5.165-1.257c-7.291-2.329-12.979-8.745-12.979-8.745l.24-.23a33.523,33.523,0,0,0,4.971-7.122,44.265,44.265,0,0,0,5.3-15.629c.312-3.291-.693-9.358-1.023-11.182-.059-.34-.1-.533-.1-.533s-.061.163-.147.453c-.061.195-.143.433-.232.721a17.964,17.964,0,0,1,.923-4.533c1.2-3.259.96-8.706.96-8.706s1.66,9.458,2.8,12.606S428.168-936,428.168-936a10.3,10.3,0,0,1-7.874-5.462,39.6,39.6,0,0,1,1.226,4.6c.878,3.787-.529,9.987-.236,10.262s-.1,7.911.945,11.722" transform="translate(10899.422 3307.984)"/><path class="l" d="M468.163-948.458c-6.8,2.864-18.064.683-20.66.128l-.186-.048c-2.888-3.408-4.884-9.271-4.884-9.271a70.766,70.766,0,0,0,10.1,4.906,23.8,23.8,0,0,0,9.96.936,46.415,46.415,0,0,0,5.382-1.623c.154,2.611.154,4.288.258,4.823l.03.149" transform="translate(10899.422 3307.984)"/><path class="m" d="M415.507-761.1l.652,2.42h13.024s-8.281-7.352-13.676-2.42" transform="translate(10899.422 3307.984)"/><path class="m" d="M459.6-761.657l.557,1.861h12.652s-8.279-9.024-13.208-1.861" transform="translate(10899.422 3307.984)"/><path class="n" d="M431.836-887.653s-.453.982-1.681,3.222c-.492.893-1.109,1.978-1.87,3.291a72.813,72.813,0,0,1-4.063,6.084c-1.742,2.405-3.194,4.214-3.194,4.214a14.407,14.407,0,0,1-6.206-2.672,14.137,14.137,0,0,1-1.853-1.623,10.907,10.907,0,0,1-2.24-3.148,66.367,66.367,0,0,1,3.564-5.811c.5-.739,1.04-1.46,1.584-2.128,1.452-1.79,3.417-4.11,4.905-5.852,1.25-1.465,2.165-2.522,2.165-2.522s3.917-.247,5.049-.364l.1-.013,2.858,2.611.884,4.711" transform="translate(10899.422 3307.984)"/><path class="o" d="M430.154-884.431c-.492.893-1.109,1.978-1.87,3.291a72.813,72.813,0,0,1-4.063,6.084,28.993,28.993,0,0,1-9.928-9.04c.5-.739,1.04-1.46,1.584-2.128,1.452-1.79,3.417-4.11,4.905-5.852,1.7,1.92,5.573,5.991,9.371,7.644" transform="translate(10899.422 3307.984)"/><path class="p" d="M429.957-935.313h0c-3.588-.026-6.45-1.283-8.268-3.631a8.573,8.573,0,0,1-1.863-4.656l.34-.2.208.308a8.69,8.69,0,0,0,2.3,4.843,9.7,9.7,0,0,0,7.285,2.78l.277.28-.28.279" transform="translate(10899.422 3307.984)"/><path class="p" d="M443.027-935.25a5.865,5.865,0,0,1-.9-.067l-.228-.323.321-.227a6,6,0,0,0,5.738-2.5l.39-.056.059.39a6.6,6.6,0,0,1-5.382,2.789" transform="translate(10899.422 3307.984)"/><path class="p" d="M417.975-942.333l-.03,0-.247-.308a21.618,21.618,0,0,1,.462-2.238,26.316,26.316,0,0,0,.988-7.867,13.227,13.227,0,0,0-1.4-5.575l.082-.383.383.08c.048.072,1.17,1.837,1.5,5.831a26.718,26.718,0,0,1-1,8.045c-.208.888-.39,1.655-.449,2.171l-.277.247" transform="translate(10899.422 3307.984)"/><path class="p" d="M447.883-947.141c-2.531-2.13-5.932-10.218-5.963-10.3l.15-.364.364.156c.03.074,2.778,6.569,5.07,9.319-.329-.076-.516-.121-.546-.121a13.185,13.185,0,0,1,.925,1.311" transform="translate(10899.422 3307.984)"/><path class="q" d="M433.467-960.189c-2.8,1.118-8.381-9.577-8.381-9.577l-.18-2.509a25.836,25.836,0,0,0-1.22-4.763c-.923-2.8-2.032-5.642-2.167-5.8.3.3.609.594.953.9a13.7,13.7,0,0,0,5.5,3.057,12.288,12.288,0,0,0,4.494.3l-.2,3.408-.29,4.854s4.273,9.02,1.491,10.136" transform="translate(10899.422 3307.984)"/><path class="r" d="M432.468-978.587l-.2,3.408a23.9,23.9,0,0,1-8.58-1.859c-.923-2.8-2.032-5.642-2.167-5.8.3.3.609.594.953.9a13.7,13.7,0,0,0,5.5,3.057,12.284,12.284,0,0,0,4.494.3" transform="translate(10899.422 3307.984)"/><path class="q" d="M497.941-991c-.046,1.558-5.306,9.141-5.306,9.141s-9.616,19.29-13.436,24.313c-3.3,4.355-9.25,8.3-11.066,8.94-.113-.552-.1-2.338-.275-5.114-.052-.8-.117-1.7-.208-2.672-.357-3.014-.73-5.621-.73-5.621s4.466-1.865,12.407-13.655c2.984-4.427,5.865-9.079,5.865-9.079s-.745-10.422.089-10.795c.329-.149.594.457.8,1.235a22.152,22.152,0,0,1,.5,2.86s.007-.462.037-1.155c.089-1.978.373-5.826,1.265-5.842,1.207-.03.745,4.86.745,4.86l.05-.3.009-.022c.1-.537.342-1.69.626-2.968v-.007c.542-2.375,1.294-5.168,1.831-5.168.407,0,.416,1.235.3,2.615v.013c-.126,1.415-.379,2.971-.459,3.452.072-.312.258-1.1.511-2l.015-.052c.47-1.7,1.153-3.775,1.7-3.833.932-.089.477,3.452.388,5.664s-.312,6.229.334,6.884,2.977-2.513,3.915-1.952l.1.253" transform="translate(10899.422 3307.984)"/><path class="r" d="M497.941-991c-.046,1.558-5.306,9.141-5.306,9.141s-9.616,19.29-13.436,24.313c-3.3,4.355-9.25,8.3-11.066,8.94-.113-.552-.1-2.338-.275-5.114,2.225-1.4,7.822-4.994,10.262-7.859,4.273-5.025,12.782-21.271,12.782-21.271a72.3,72.3,0,0,0,7.04-8.151" transform="translate(10899.422 3307.984)"/><path class="o" d="M433.742-897.306s-.293.6-.784,1.5-1.2,2.158-2.006,3.441l-2.867-1.759-.5-.3s2.823-3.077,4.422-4.661l1.736,1.779" transform="translate(10899.422 3307.984)"/><path class="s" d="M428.085-894.123h0l-.5-.3s2.823-3.077,4.422-4.661h0c.325.368.971,1.068,1.7,1.846-.089.178-.355.706-.75,1.434h0l-4.873,1.681" transform="translate(10899.422 3307.984)"/><path class="t" d="M440.067-896.209l-2.21,1.976-.708.626s-4.136-4.333-5.142-5.477a4.12,4.12,0,0,1-.624-1.779s-2.977-1.92-2.607-2.724c.269-.6,1.668-.752,3.514-.067a10.738,10.738,0,0,1,2.193,1.114c2.851,1.861,5.584,6.331,5.584,6.331" transform="translate(10899.422 3307.984)"/><path class="u" d="M437.857-894.233l-.708.626s-4.136-4.333-5.142-5.477a4.12,4.12,0,0,1-.624-1.779s-2.977-1.92-2.607-2.724c.269-.6,1.668-.752,3.514-.067a4.57,4.57,0,0,0,.7,4.032,70.708,70.708,0,0,0,4.862,5.389" transform="translate(10899.422 3307.984)"/><path class="v" d="M412.97-875.136h0a10.907,10.907,0,0,1-2.24-3.148,66.373,66.373,0,0,1,3.564-5.811h0a22.738,22.738,0,0,0,2,2.665,39.18,39.18,0,0,0-3.324,6.294M423.024-889.7c-.923-.912-1.694-1.753-2.24-2.37,1.25-1.465,2.165-2.522,2.165-2.522s3.917-.247,5.049-.364l-3,2.886s-.7.852-1.974,2.37" transform="translate(10899.422 3307.984)"/><path class="w" d="M416.294-881.43a22.727,22.727,0,0,1-2-2.665c.5-.739,1.04-1.46,1.584-2.128,1.452-1.79,3.417-4.11,4.905-5.852h0c.546.618,1.317,1.458,2.24,2.37-1.135,1.356-2.726,3.243-4.674,5.527a27.312,27.312,0,0,0-2.056,2.747" transform="translate(10899.422 3307.984)"/><path class="q" d="M431.784-891.048c-.648.856-.743-1.04-.832-1.315s-.186,1.118-.745,1.3-1.491-1.3-1.491-1.3a1.052,1.052,0,0,1-.548.713,1.068,1.068,0,0,1-.938-.245c-1.207-.841-2.232-6.422-2.516-6.7s-4.182-3.82-8.368-8.472-8.749-11.254-9.583-13.395a7.947,7.947,0,0,1,2.323-4.929l.407-.407a13.492,13.492,0,0,1,6.223-3.105s2.867,6.119,4.531,10.3c1.684,4.184,7.168,17.581,8.47,18.235a27.53,27.53,0,0,0,3.291,1.281,9.466,9.466,0,0,0-.171,2.381c0,1.467.6,4.808-.052,5.655" transform="translate(10899.422 3307.984)"/><path class="r" d="M428.167-891.651a1.068,1.068,0,0,1-.938-.245c-1.207-.841-2.232-6.422-2.516-6.7s-4.182-3.82-8.368-8.472-8.749-11.254-9.583-13.395a7.947,7.947,0,0,1,2.323-4.929c1.5,6,3.25,9.692,7.538,15.527,4.652,6.336,8.931,11.007,8.931,11.007a44.453,44.453,0,0,0,2.613,7.2" transform="translate(10899.422 3307.984)"/><path class="x" d="M428.417-885.341a21.712,21.712,0,0,1-1.831-1.25L428-888.643l1.558,1.023c-.03.1-.47,1.005-1.138,2.279" transform="translate(10899.422 3307.984)"/><path class="y" d="M423.227-877.107l-1.944-1.768,5.3-7.716a21.712,21.712,0,0,0,1.831,1.25c-1.317,2.516-3.521,6.442-5.189,8.234" transform="translate(10899.422 3307.984)"/><path class="z" d="M438.3-895.728l.9-.637s-2.973-3.629-3.378-3.163,2.474,3.8,2.474,3.8" transform="translate(10899.422 3307.984)"/><path class="o" d="M440.5-894.277l-.962.691-.646.477-.99-1.168.966-.867.676-.6.956,1.469" transform="translate(10899.422 3307.984)"/><path class="s" d="M438.893-893.109l-.988-1.166,0,0,.966-.867c.186.436.438,1.029.67,1.558l-.646.477" transform="translate(10899.422 3307.984)"/><path class="q" d="M441.66-981.534a15.345,15.345,0,0,1-9.029,4.5,11.47,11.47,0,0,1-4.171-.275,11.443,11.443,0,0,1-2.817-1.181h-.007a14.6,14.6,0,0,1-2.277-1.66c-.318-.282-.609-.559-.886-.834a17.388,17.388,0,0,1-2.366-2.971c-2.492.349-6.754-1.814-7.1-4.574s.869-3.887,2.678-3.365,2.416-.262,3.881-2.678a5.7,5.7,0,0,0,.559-1.367c.945-3.194,1.064-9.237,1.43-12.7.425-4.052,3.311-5.09,5.694-5.261a16.808,16.808,0,0,1,5.978.5c5.356,1.616,6.145,6.305,6.884,9.245.2.793.414,1.575.648,2.34a33.023,33.023,0,0,0,2.191,5.51,30.225,30.225,0,0,0,1.558,2.685c2.16,3.274-.253,9.321-2.851,12.082" transform="translate(10899.422 3307.984)"/><path class="r" d="M425.637-978.487a14.6,14.6,0,0,1-2.277-1.66c-.318-.282-.609-.559-.886-.834a17.392,17.392,0,0,1-2.366-2.971c-2.492.349-6.754-1.814-7.1-4.574s.869-3.887,2.678-3.365,2.416-.262,3.881-2.678a5.7,5.7,0,0,0,.559-1.367c.137,5.345.951,9.984,2.76,13.044.966,1.634,1.92,3.135,2.747,4.4" transform="translate(10899.422 3307.984)"/><path class="r" d="M440.763-1001.81c-1.367-.986-1.959-3.655-3.133-5.794-1.855-3.367-1.658-3.982-4.4-5.792,5.356,1.616,6.145,6.305,6.884,9.245.2.793.414,1.575.648,2.34" transform="translate(10899.422 3307.984)"/><path class="aa" d="M444.858-1003.283c-1.8,2.474-1.9,6.886-1.9,6.983q-.6-1.17-1.083-2.381a38.822,38.822,0,0,1-1.755-5.469c-.119-.477-.243-.994-.381-1.547-.91-3.543-2.685-8.151-10.539-8.257-.609-.013-1.259.009-1.941.056-2.383.171-5.269,1.209-5.694,5.261-.353,3.341-.479,9.07-1.335,12.344a6.443,6.443,0,0,1-.654,1.725c-1.465,2.416-2.074,3.192-3.881,2.678s-3.025.6-2.678,3.365,4.6,4.923,7.1,4.574a17.491,17.491,0,0,0,3.252,3.8c-.36.711,2.368,10.53,2.368,10.53s-10.3-4.414-16.17-8.383-6.531-6.73-6.123-13.807a46.369,46.369,0,0,1,1.941-11.128v-.006c1.365-4.331,3.59-8.416,7.122-11.018,6.641-4.9,12.857-4.344,14.409-3.909a19.5,19.5,0,0,1,8.112-2.934,10.194,10.194,0,0,1,10.786,5.259l.1.186c2.182,3.969.739,9.612-1.049,12.073" transform="translate(10899.422 3307.984)"/><path class="aa" d="M423.474-999.832c-.162-.717,2.435-3.15,4.615-3.813s2.373,1.109,1.586,1.786-6.2,2.028-6.2,2.028" transform="translate(10899.422 3307.984)"/><path class="aa" d="M441.1-1001.814c-.128-.084-3.005-3.259-5.391-2.158-1.122.516-.6,1.939.949,1.855a31.716,31.716,0,0,1,4.442.3" transform="translate(10899.422 3307.984)"/><path class="ab" d="M433.606-985.936l-.141,0-.171-.176.173-.169h.137c3.779,0,5.007-2,5.276-2.563-5.293-2.7-4.3-9.9-4.288-9.976l.2-.143.145.2c-.009.071-.982,7.159,4.247,9.685l.089.212c-.045.123-1.109,2.936-5.662,2.936" transform="translate(10899.422 3307.984)"/><path class="ab" d="M416.963-986.714c-.31-.206.039-1.014.327-1.51.3.288.587.6.858.919C417.875-987,417.306-986.487,416.963-986.714Zm2.093.05a15.8,15.8,0,0,0-4.138-3.9l-.236.05.05.236a19.857,19.857,0,0,1,2.3,1.816c-.247.412-.891,1.616-.258,2.041l.379.115a1.987,1.987,0,0,0,1.213-.722l.4.555.145.08.093-.028.052-.238" transform="translate(10899.422 3307.984)"/><path class="ac" d="M428.3-984.844c.171.056,7.952.173,9.872,1.034,0,0-2.8,3.74-5.5,3.683s-4.372-4.717-4.372-4.717" transform="translate(10899.422 3307.984)"/><path class="ad" d="M428.974-995.944c-.085,1.35-.639,2.411-1.242,2.375s-1.021-1.164-.936-2.513.639-2.414,1.244-2.375,1.021,1.164.934,2.513" transform="translate(10899.422 3307.984)"/><path class="ad" d="M439.66-996.282c-.085,1.35-.644,2.414-1.246,2.375s-1.021-1.164-.934-2.513.641-2.414,1.242-2.375,1.025,1.164.938,2.513" transform="translate(10899.422 3307.984)"/><path class="ae" d="M425.728-969.616s-10.3-4.414-16.17-8.383-6.531-6.73-6.123-13.807a46.368,46.368,0,0,1,1.941-11.128c2.9,3.5,9.414,7.7,14.849,6.641a6.443,6.443,0,0,1-.654,1.725c-1.465,2.416-2.074,3.192-3.881,2.678s-3.025.6-2.678,3.365,4.6,4.923,7.1,4.574a17.493,17.493,0,0,0,3.252,3.8c-.36.711,2.368,10.53,2.368,10.53" transform="translate(10899.422 3307.984)"/><path class="ae" d="M445.907-1015.356c-.739,3.859-1.824,6.791-4.19,8.565a11.635,11.635,0,0,0-3.612-7.168c-2.884-2.713-6.489-1.233-8.91,0,7.854.106,9.629,4.715,10.539,8.257.139.553.262,1.07.381,1.547.154.626.323,1.239.5,1.85l.123.414c.156.507.319,1.012.494,1.51l.113.34c.167.453.34.906.524,1.354l0-.026c.329.813.683,1.619,1.086,2.407.007-.1.108-4.509,1.9-6.983s3.231-8.1,1.049-12.073" transform="translate(10899.422 3307.984)"/></g></g></svg>