<svg xmlns="http://www.w3.org/2000/svg" xmlns:xlink="http://www.w3.org/1999/xlink" width="586.865" height="452.857" viewBox="0 0 586.865 452.857"><defs><style>.a{fill:#c93a0e;}.b{fill:#cc4217;}.c{fill:#ff6a27;}.d{fill:#f28b3d;}.e{clip-path:url(#a);}.f{fill:url(#b);}.g{fill:#ba2a08;}.h{clip-path:url(#c);}.i{fill:url(#d);}.j{fill:#ffaa64;}.k{fill:#f7392f;}.l{fill:#e81d13;}.m{clip-path:url(#e);}.n{fill:#ffac92;}.o{fill:#959595;}.p{fill:#6d6d6d;}.q{fill:#5e5b5b;}.r{fill:#444343;}.s{fill:#fb796e;}.t{fill:#ffd1c1;}.u{fill:#f3523d;}.v{fill:#ffc578;}.w{clip-path:url(#f);}.x{clip-path:url(#g);}.y{fill:#dd2c24;}.z{fill:#f24e3d;}.aa{fill:#f7554d;}.ab{fill:#e02b27;}.ac{fill:#cc1f1f;}.ad{fill:#fc6c65;}.ae{fill:#342f2b;}.af{fill:#4e4641;}.ag{fill:#d2c9c3;}.ah{fill:#c5bcb6;}.ai{fill:#c0b6af;}.aj{fill:#a49993;}.ak{fill:#6d2f17;}.al{fill:#e0dad5;}.am{fill:#994936;}.an{fill:#8c3d25;}.ao{clip-path:url(#h);}</style><clipPath id="a"><path d="M1516.183-904.947h-8.96c-.133-63.285-.053-142.168,1.013-170.389.107-2.645.213-4.844.333-6.544.933-13.495,8.827-44.177,15.493-68.243,5.107-18.408,9.493-32.944,9.493-32.944h0s-.373,1.672-.987,4.635c-3.173,15.021-12.987,63.234-15.68,95.032-1.667,19.64-1.293,108.609-.707,178.453"/></clipPath><linearGradient id="b" x1="-57.129" y1="4.254" x2="-57.124" y2="4.254" gradientUnits="objectBoundingBox"><stop offset="0" stop-color="#e0490e"/><stop offset="0.084" stop-color="#e0490e"/><stop offset="0.959" stop-color="#f2973d"/><stop offset="1" stop-color="#f2973d"/></linearGradient><clipPath id="c"><path d="M1556.223-842.623v-225.934h12l-.453,233.046Z"/></clipPath><linearGradient id="d" x1="-129.686" y1="4.585" x2="-129.674" y2="4.585" gradientUnits="objectBoundingBox"><stop offset="0" stop-color="#c23f0c"/><stop offset="0.084" stop-color="#c23f0c"/><stop offset="1" stop-color="#ba1b0b"/></linearGradient><clipPath id="e"><path d="M1410.436-854.094V-805.2c0,4.909,25.96,8.888,58,8.888s58-3.979,58-8.888v-48.889h-116"/></clipPath><clipPath id="f"><path d="M1422.263-904.906v48.888c0,4.911,25.96,8.891,58,8.891s58-3.98,58-8.891v-48.888h-116"/></clipPath><clipPath id="g"><path d="M1425.516-857.755l-.013-.011-.013-.011c-.067-.037-.12-.073-.187-.109-.013-1.06-.027-2.123-.053-3.183a5.7,5.7,0,0,0,1.027-.9c-.32,1.463-.56,2.88-.76,4.212m2.267-9.539a3.084,3.084,0,0,0-1.533-1.027,4.016,4.016,0,0,0-1.107-.236c-.053-4.1-.12-8.195-.173-12.292a3.737,3.737,0,0,0,.92-1.147,3.043,3.043,0,0,0,.44-1.944,2.887,2.887,0,0,0-1.44-1.82c-.013-1.188-.04-2.375-.053-3.563a6,6,0,0,0,1.133.117,2.8,2.8,0,0,0,2.093-.773,2.9,2.9,0,0,0,.667-1.876,3.16,3.16,0,0,0-.48-2.077,3.647,3.647,0,0,0-3.04-1.22c-.12,0-.227,0-.307.005-.053,0-.093,0-.147.007-.013-1.08-.04-2.161-.053-3.241,6.987,1.26,14.333,2.352,22,3.211q4.44.5,8.787.867a7.213,7.213,0,0,0-.067,1.2c.027,1.695.827,4.285,2.347,4.468a1.723,1.723,0,0,0,.173.011c1.52,0,2.773-2.317,3.173-3.793a7.607,7.607,0,0,0,.253-1.436c.947.063,1.893.123,2.827.179-.134,1.547.173,3.352,1.307,3.805a1.534,1.534,0,0,0,.573.107c1.373,0,2.933-1.695,3.627-2.9a6.438,6.438,0,0,0,.387-.717q7.06.29,13.787.283c7.507,0,14.693-.251,21.52-.688a208.463,208.463,0,0,1-28.16,6.084,3.339,3.339,0,0,0,1.107-2.608,3.266,3.266,0,0,0-1.04-1.864,2.931,2.931,0,0,0-1.747-.949c-.053-.005-.12-.007-.173-.007-1.56,0-2.667,1.647-2.987,2.132a6.316,6.316,0,0,0-1.147,4.051q-1.46.16-2.84.288c-.173-.125-.36-.247-.547-.363l-.013-.011-.013-.011a9.487,9.487,0,0,0-5.027-1.445,8.9,8.9,0,0,0-6.347,2.533c-6.373.189-12.693.4-18.653,4.564-5.107,3.577-8.173,8.828-10.027,14.1"/></clipPath><clipPath id="h"><path d="M1183.993-854.586c0,8.6-38.424,15.579-85.822,15.579s-85.823-6.975-85.823-15.579,38.423-15.579,85.823-15.579,85.822,6.975,85.822,15.579"/></clipPath></defs><g transform="translate(-1122.357 -1330.188)"><path class="a" d="M1359.557-816.737h148l48.667-20.552,11.547,1.777.453-233.046c0-.955,0-2.408-.053-4.172-.413-12.6-3.093-22.253-8.4-38.337q-4.98-15.154-10.2-29.284-8-21.36-16.013-42.716h-200l18.493,64.267a176.6,176.6,0,0,1,6.893,48.431l.613,253.633" transform="translate(140.999 2538.588)"/><path class="b" d="M1358.223-816.737h149.333l48.667-20.552v-231.269c-.853-8.511-2.133-17.684-4-27.4-1.453-7.573-3.12-14.693-4.893-21.333q-9.48-39.224-18.947-78.445l-194.826,12.667L1351.1-1118.8a185.357,185.357,0,0,1,6.547,48.431l.573,253.633" transform="translate(140.999 2538.588)"/><path class="c" d="M1532.89-1183.066h-208a12.666,12.666,0,0,1-12.667-12.667,12.667,12.667,0,0,1,12.667-12.667h208a12.673,12.673,0,0,1,12.667,12.667,12.672,12.672,0,0,1-12.667,12.667" transform="translate(140.999 2538.588)"/><path class="c" d="M1507.556-816.737h-208.67c-2.26-50.085-3.273-102.478-2.667-157q.542-48.628,2.667-94.824a176.491,176.491,0,0,1,1.768-24.924,176.49,176.49,0,0,1,5.268-24.425l18.964-65.16h208.67L1515.05-1118.8a176.6,176.6,0,0,0-6.893,48.431l-.6,253.633" transform="translate(140.999 2538.588)"/><path class="d" d="M1324.886-1183.066h208.67s-24.56,83.709-24.987,101.186H1298.886s-1.333-33.187,26-101.186" transform="translate(140.999 2538.588)"/><g transform="translate(140.999 2538.588)"><g class="e"><path class="f" d="M1516.183-904.947h-8.96c-.133-63.285-.053-142.168,1.013-170.389.107-2.645.213-4.844.333-6.544.933-13.495,8.827-44.177,15.493-68.243,5.107-18.408,9.493-32.944,9.493-32.944h0s-.373,1.672-.987,4.635c-3.173,15.021-12.987,63.234-15.68,95.032-1.667,19.64-1.293,108.609-.707,178.453"/></g></g><path class="g" d="M1567.769-835.511l-11.547-7.111-39.347,11.109.227,14.776,50.667-18.775" transform="translate(140.999 2538.588)"/><g transform="translate(140.999 2538.588)"><g class="h"><path class="i" d="M1556.223-842.623v-225.934h12l-.453,233.046-11.547-7.112"/></g></g><path class="j" d="M1312.219-1095.067a299.155,299.155,0,0,0,105.337-21.333,299.025,299.025,0,0,0,89.613-56H1333.557l-21.337,77.333" transform="translate(140.999 2538.588)"/><path class="d" d="M1312.219-937.734v-130.824h77.337s-70.671,24.157-77.337,130.824" transform="translate(140.999 2538.588)"/><path class="d" d="M1500.223-928.4v98.721H1444.89s36.667,1.279,46-25.388,9.333-73.333,9.333-73.333" transform="translate(140.999 2538.588)"/><path class="k" d="M1410.436-854.135v48.889c0,4.909,25.96,8.889,58,8.889s58-3.98,58-8.889v-48.889h-116" transform="translate(140.999 2538.588)"/><path class="l" d="M1521.436-854.135v12.588c0,20.005-13.56,30.723-31.813,38.919-7.533,3.383-21.187,6.272-21.187,6.272,32.027,0,58-3.98,58-8.889v-48.889h-5" transform="translate(140.999 2538.588)"/><g transform="translate(140.999 2538.588)"><g class="m"><path class="n" d="M1526.09-829.267a8.234,8.234,0,0,0-.107-1.391,9.25,9.25,0,0,0-9.12-7.121h-.04a9.233,9.233,0,0,0-9.107,7.121,6.074,6.074,0,0,0-.107,1.391,5.555,5.555,0,0,0,1.88,4.592c1.72,1.393,3.96,1.293,7.36,1.137,3.387.156,5.627.256,7.347-1.137a5.57,5.57,0,0,0,1.893-4.592"/><path class="n" d="M1515.45-843.543c.053,1.588-.52,4.312-2.093,4.592-1.507.268-3.04-1.976-3.547-3.591-.187-.565-.747-2.337.227-3.553a3.292,3.292,0,0,1,1.866-1.039,2.965,2.965,0,0,1,1.987.119c1.48.76,1.547,2.868,1.56,3.472"/><path class="n" d="M1518.623-843.551c-.053,1.588.506,4.312,2.093,4.592,1.507.268,3.027-1.975,3.547-3.591.173-.565.747-2.339-.24-3.555a3.277,3.277,0,0,0-1.853-1.039,2.966,2.966,0,0,0-1.987.12c-1.48.76-1.547,2.868-1.56,3.472"/><path class="n" d="M1525.756-838.517c-.453,1.521-.613,4.3.84,4.977,1.387.647,3.44-1.125,4.36-2.555.32-.5,1.32-2.067.68-3.495a3.315,3.315,0,0,0-1.52-1.483,2.98,2.98,0,0,0-1.96-.4c-1.613.353-2.227,2.373-2.4,2.952"/><path class="n" d="M1508.29-838.8c.453,1.521.613,4.3-.84,4.977-1.387.647-3.453-1.127-4.36-2.555-.32-.5-1.32-2.068-.693-3.495a3.268,3.268,0,0,1,1.533-1.483,2.98,2.98,0,0,1,1.96-.4c1.613.353,2.227,2.373,2.4,2.952"/><path class="n" d="M1496.316-805.662a7.811,7.811,0,0,0-.987-.987,9.25,9.25,0,0,0-11.56.5l-.013.012-.013.013a9.23,9.23,0,0,0-2.307,11.331,6.749,6.749,0,0,0,.813,1.129,5.58,5.58,0,0,0,4.413,2.271c2.213-.057,3.867-1.591,6.333-3.908,2.68-2.081,4.453-3.461,4.867-5.641a5.589,5.589,0,0,0-1.547-4.716"/><path class="n" d="M1478.956-809.622c1.067,1.176,2.413,3.616,1.387,4.856-.973,1.18-3.587.465-5.027-.431-.507-.313-2.08-1.3-2.134-2.857a3.226,3.226,0,0,1,.747-2,2.957,2.957,0,0,1,1.587-1.2c1.613-.377,3.04,1.183,3.44,1.629"/><path class="n" d="M1481.356-811.682c1,1.24,3.2,2.945,4.587,2.133,1.32-.775,1.027-3.472.36-5.035-.227-.547-.947-2.261-2.48-2.552a3.269,3.269,0,0,0-2.093.419,2.973,2.973,0,0,0-1.44,1.381c-.627,1.532.693,3.18,1.067,3.653"/><path class="n" d="M1490.063-812.485c.64,1.455,2.32,3.669,3.867,3.241,1.48-.408,1.893-3.089,1.653-4.769-.08-.587-.333-2.429-1.747-3.105a3.254,3.254,0,0,0-2.12-.136,3,3,0,0,0-1.747.965c-1,1.32-.147,3.251.094,3.8"/><path class="n" d="M1476.583-801.359c1.333.86,3.253,2.875,2.6,4.333-.64,1.392-3.36,1.376-4.973.881-.573-.173-2.346-.716-2.8-2.212a3.311,3.311,0,0,1,.2-2.121,2.991,2.991,0,0,1,1.24-1.569c1.453-.78,3.227.361,3.733.688"/><path class="n" d="M1534.7-793.178a6.379,6.379,0,0,0,0-1.375c-.307-3.353-3.507-7.317-8.507-7.717h-.013l-.027,0a9.234,9.234,0,0,0-9.653,6.264,6.881,6.881,0,0,0-.227,1.357,5.449,5.449,0,0,0,1.507,4.659c1.613,1.507,3.853,1.587,7.24,1.7,3.373.423,5.6.7,7.427-.531a5.475,5.475,0,0,0,2.253-4.359"/><path class="n" d="M1525.25-808.042c-.067,1.563-.853,4.193-2.453,4.341-1.52.143-2.866-2.181-3.24-3.808-.147-.569-.56-2.355.52-3.471a3.251,3.251,0,0,1,1.933-.871,3,3,0,0,1,1.973.275c1.4.863,1.307,2.939,1.267,3.533"/><path class="n" d="M1517.73-803.953c.333,1.529.267,4.271-1.24,4.82-1.44.524-3.347-1.381-4.133-2.856-.28-.516-1.147-2.135-.4-3.487a3.217,3.217,0,0,1,1.64-1.333,3.008,3.008,0,0,1,1.973-.235c1.587.476,2.027,2.508,2.16,3.091"/><path class="n" d="M1459.37-824.111a7.121,7.121,0,0,0,.64-1.24,9.243,9.243,0,0,0-3.973-10.859l-.027-.009-.013-.011A9.236,9.236,0,0,0,1444.5-835a6.671,6.671,0,0,0-.827,1.124,5.545,5.545,0,0,0-.827,4.895c.72,2.093,2.68,3.193,5.64,4.852,2.8,1.921,4.653,3.192,6.853,2.919a5.593,5.593,0,0,0,4.027-2.9"/><path class="n" d="M1457.876-841.851c-.8,1.375-2.72,3.389-4.2,2.792-1.427-.568-1.533-3.28-1.12-4.923.147-.575.6-2.377,2.08-2.895a3.252,3.252,0,0,1,2.12.1,2.929,2.929,0,0,1,1.627,1.152c.854,1.423-.2,3.248-.506,3.772"/><path class="n" d="M1460.57-840.186c-.88,1.321-1.84,3.935-.64,5.007,1.133,1.021,3.613-.075,4.907-1.176.453-.385,1.867-1.593,1.68-3.143a3.267,3.267,0,0,0-1.04-1.864,2.93,2.93,0,0,0-1.747-.949c-1.653-.132-2.827,1.623-3.16,2.125"/><path class="n" d="M1463.97-832.141c-1.187,1.049-2.787,3.327-1.907,4.671.827,1.281,3.507.861,5.04.129.533-.255,2.213-1.059,2.427-2.6a3.245,3.245,0,0,0-.507-2.067,2.939,2.939,0,0,0-1.453-1.369c-1.56-.553-3.147.841-3.6,1.24"/><path class="n" d="M1449.29-841.6c-.427,1.533-1.76,3.975-3.347,3.783-1.52-.184-2.333-2.775-2.347-4.471-.013-.592-.04-2.452,1.253-3.331a3.263,3.263,0,0,1,2.08-.451,3,3,0,0,1,1.88.693c1.187,1.155.627,3.192.48,3.776"/><path class="n" d="M1417.023-794.845a7.171,7.171,0,0,0,.64-1.24,9.243,9.243,0,0,0-3.973-10.859l-.013-.011-.027-.011a9.236,9.236,0,0,0-11.494,1.235,6.62,6.62,0,0,0-.827,1.124,5.545,5.545,0,0,0-.827,4.895c.733,2.093,2.68,3.195,5.64,4.852,2.8,1.921,4.653,3.192,6.853,2.919a5.593,5.593,0,0,0,4.027-2.9"/><path class="n" d="M1415.53-812.585c-.8,1.375-2.72,3.389-4.2,2.793-1.427-.569-1.533-3.28-1.12-4.924.146-.575.6-2.377,2.08-2.893a3.244,3.244,0,0,1,2.12.1,2.928,2.928,0,0,1,1.627,1.152c.853,1.423-.2,3.248-.507,3.772"/><path class="n" d="M1418.223-810.919c-.88,1.321-1.84,3.935-.64,5.007,1.133,1.023,3.613-.075,4.907-1.176.453-.385,1.867-1.593,1.68-3.143a3.266,3.266,0,0,0-1.04-1.864,2.93,2.93,0,0,0-1.747-.949c-1.653-.132-2.827,1.623-3.16,2.125"/><path class="n" d="M1421.623-802.874c-1.187,1.049-2.787,3.328-1.907,4.671.827,1.281,3.52.861,5.04.129.533-.256,2.213-1.057,2.427-2.6a3.246,3.246,0,0,0-.506-2.067,2.945,2.945,0,0,0-1.453-1.369c-1.56-.553-3.147.84-3.6,1.24"/><path class="n" d="M1412.463-838.634c-1.533-.393-4-1.7-3.827-3.292.16-1.521,2.747-2.364,4.44-2.408.6-.015,2.453-.063,3.347,1.216a3.238,3.238,0,0,1,.48,2.075,2.982,2.982,0,0,1-.667,1.879c-1.133,1.2-3.187.68-3.773.531"/><path class="n" d="M1411.6-835.59c-1.52-.491-4.293-.705-5,.735-.667,1.372,1.053,3.464,2.467,4.407.493.331,2.04,1.364,3.48.764a3.19,3.19,0,0,0,1.506-1.5,2.883,2.883,0,0,0,.44-1.943c-.32-1.625-2.32-2.277-2.893-2.464"/><path class="n" d="M1409.9-846.839c-1.587.017-4.293-.608-4.547-2.195-.24-1.511,2.04-2.991,3.667-3.469.573-.168,2.36-.693,3.547.311a3.2,3.2,0,0,1,1,1.883,2.98,2.98,0,0,1-.16,1.987c-.787,1.456-2.907,1.477-3.507,1.484"/></g></g><path class="o" d="M1526.436-854.135c0,4.909-25.973,8.889-58,8.889s-58-3.98-58-8.889,25.96-8.888,58-8.888,58,3.979,58,8.888" transform="translate(140.999 2538.588)"/><path class="p" d="M1519.1-854.135c0,3.628-22.693,6.568-50.667,6.568s-50.667-2.94-50.667-6.568,22.68-6.567,50.667-6.567,50.667,2.94,50.667,6.567" transform="translate(140.999 2538.588)"/><path class="q" d="M1519.1-853.818c0,3.452-17.013,6.251-38,6.251s-38-2.8-38-6.251,17.013-6.252,38-6.252,38,2.8,38,6.252" transform="translate(140.999 2538.588)"/><path class="r" d="M1482.93-856.587s28.64.023,20.693,4.628-24.707,2.491-24.707,2.491l4.013-7.119" transform="translate(140.999 2538.588)"/><path class="o" d="M1482.53-857.562s28.64.023,20.68,4.628-24.707,2.491-24.707,2.491l4.027-7.119" transform="translate(140.999 2538.588)"/><path class="q" d="M1491.556-853.938c0,1.509-2.12,2.732-4.733,2.732s-4.733-1.223-4.733-2.732,2.12-2.731,4.733-2.731,4.733,1.223,4.733,2.731" transform="translate(140.999 2538.588)"/><path class="s" d="M1413.69-806.943l-.013-.011-.027-.011c-.053-.036-.12-.073-.173-.109-.013-1.06-.04-2.121-.053-3.181a6.943,6.943,0,0,0,1.027-.9c-.32,1.461-.573,2.877-.76,4.209m2.267-9.537a3.059,3.059,0,0,0-1.547-1.028,3.939,3.939,0,0,0-1.093-.236c-.067-4.1-.12-8.2-.187-12.292a3.521,3.521,0,0,0,.92-1.147,2.881,2.881,0,0,0,.44-1.943,2.821,2.821,0,0,0-1.427-1.82c-.013-1.188-.04-2.376-.053-3.564a6,6,0,0,0,1.133.117,2.807,2.807,0,0,0,2.093-.772,2.981,2.981,0,0,0,.667-1.879,3.239,3.239,0,0,0-.48-2.075,3.661,3.661,0,0,0-3.053-1.221c-.12,0-.213,0-.293.005l-.16.005q-.02-1.62-.04-3.239c6.987,1.259,14.333,2.351,22,3.211q4.44.5,8.787.867a7.178,7.178,0,0,0-.067,1.2c.013,1.7.827,4.287,2.346,4.471a1.519,1.519,0,0,0,.173.011c1.52,0,2.773-2.317,3.173-3.793a7.62,7.62,0,0,0,.253-1.437c.947.064,1.893.124,2.827.179-.133,1.547.173,3.352,1.307,3.8a1.443,1.443,0,0,0,.56.108c1.387,0,2.947-1.7,3.64-2.9.08-.148.227-.4.373-.717q7.06.29,13.8.284c7.507,0,14.693-.252,21.52-.688a209.094,209.094,0,0,1-28.16,6.083,3.335,3.335,0,0,0,1.107-2.608,3.267,3.267,0,0,0-1.04-1.864,2.93,2.93,0,0,0-1.747-.949c-.067,0-.12-.007-.187-.007-1.547,0-2.653,1.647-2.973,2.132a6.408,6.408,0,0,0-1.16,4.052q-1.44.158-2.84.287c-.173-.125-.347-.247-.533-.363l-.027-.009-.013-.011a9.432,9.432,0,0,0-5.013-1.447,8.881,8.881,0,0,0-6.347,2.533c-6.387.189-12.707.4-18.653,4.564-5.107,3.577-8.173,8.829-10.027,14.1" transform="translate(140.999 2538.588)"/><path class="t" d="M1444.636-835.143a8.882,8.882,0,0,1,6.347-2.533A9.431,9.431,0,0,1,1456-836.23l.013.011.027.009c.187.116.36.237.533.363-3.68.344-7.04.541-10.053.645-.627.023-1.253.04-1.88.059" transform="translate(140.999 2538.588)"/><path class="t" d="M1454.236-838.951a1.443,1.443,0,0,1-.56-.108c-1.133-.452-1.44-2.257-1.307-3.8,1.973.116,3.947.215,5.88.295-.147.317-.293.569-.373.717-.693,1.2-2.253,2.9-3.64,2.9" transform="translate(140.999 2538.588)"/><path class="t" d="M1459.41-836.134a6.407,6.407,0,0,1,1.16-4.052c.32-.485,1.427-2.132,2.973-2.132.067,0,.12,0,.187.007a2.93,2.93,0,0,1,1.747.949,3.265,3.265,0,0,1,1.04,1.864,3.335,3.335,0,0,1-1.107,2.608q-3.12.444-6,.756" transform="translate(140.999 2538.588)"/><path class="t" d="M1446.117-837.811a1.5,1.5,0,0,1-.173-.011c-1.52-.184-2.333-2.775-2.347-4.471a7.2,7.2,0,0,1,.067-1.2q2.96.252,5.88.448a7.6,7.6,0,0,1-.253,1.437c-.4,1.476-1.654,3.793-3.173,3.793" transform="translate(140.999 2538.588)"/><path class="t" d="M1413.49-805.509c0-.521-.013-1.043-.013-1.565.053.036.12.073.173.109l.027.011.013.011c-.08.491-.133.969-.2,1.435" transform="translate(140.999 2538.588)"/><path class="t" d="M1413.423-810.255c-.04-2.5-.067-4.992-.107-7.489a3.935,3.935,0,0,1,1.093.236,3.057,3.057,0,0,1,1.547,1.028,47.593,47.593,0,0,0-1.507,5.328,6.94,6.94,0,0,1-1.027.9" transform="translate(140.999 2538.588)"/><path class="t" d="M1414.143-838.393a6,6,0,0,1-1.133-.117c-.027-1.939-.053-3.879-.094-5.819l.16-.005c.08,0,.173-.005.293-.005a3.661,3.661,0,0,1,3.053,1.221,3.238,3.238,0,0,1,.48,2.075,2.981,2.981,0,0,1-.667,1.879,2.807,2.807,0,0,1-2.093.772" transform="translate(140.999 2538.588)"/><path class="t" d="M1413.13-830.037c-.027-1.637-.04-3.273-.067-4.909a2.821,2.821,0,0,1,1.427,1.82,2.881,2.881,0,0,1-.44,1.943,3.519,3.519,0,0,1-.92,1.147" transform="translate(140.999 2538.588)"/><path class="u" d="M1497.476-799.755c.067-.14.12-.284.173-.429a135.668,135.668,0,0,0,14.093-3.329,5.543,5.543,0,0,0,.494,1.291,113.7,113.7,0,0,1-14.76,2.468m20.307-3.893c-.013-.105-.04-.207-.053-.3a6.446,6.446,0,0,0-.56-1.632,8.692,8.692,0,0,0,2.453-1.664,6.845,6.845,0,0,0,1.4,2.645c-.893.277-1.987.6-3.24.955m2.867-7.773c.76-4.367,2.24-10.385,2.853-12.78.08-.049.173-.1.267-.157v12.668a2.674,2.674,0,0,0-1.093-.212,4.774,4.774,0,0,0-.667.053,3.7,3.7,0,0,0-1.36.428" transform="translate(140.999 2538.588)"/><path class="t" d="M1523.5-824.2c.16-.66.267-1.044.267-1.044v.887c-.093.056-.187.108-.267.157" transform="translate(140.999 2538.588)"/><path class="t" d="M1493.57-799.469s1.627-.256,4.08-.716c-.053.145-.107.289-.173.429-1.293.123-2.6.22-3.907.287" transform="translate(140.999 2538.588)"/><path class="t" d="M1521.023-804.6a6.844,6.844,0,0,1-1.4-2.645,2.012,2.012,0,0,0,.587-1.172c.08-.823.227-1.855.44-3a3.7,3.7,0,0,1,1.36-.428,4.774,4.774,0,0,1,.667-.053,2.673,2.673,0,0,1,1.093.212v6.183s-1,.36-2.747.905" transform="translate(140.999 2538.588)"/><path class="t" d="M1512.236-802.223a5.545,5.545,0,0,1-.494-1.291,36.648,36.648,0,0,0,5.427-2.071,6.447,6.447,0,0,1,.56,1.632c.013.1.04.2.053.3-1.6.451-3.48.941-5.547,1.425" transform="translate(140.999 2538.588)"/><path class="v" d="M1476.263-962.095a17.923,17.923,0,0,0-17.92-17.921,17.9,17.9,0,0,0-17.88,17.119h-76.146a17.908,17.908,0,0,0-17.88-17.119,17.925,17.925,0,0,0-17.923,17.921,17.837,17.837,0,0,0,3.091,10.06,17.84,17.84,0,0,0-3.091,10.06,17.926,17.926,0,0,0,17.923,17.923,17.924,17.924,0,0,0,17.92-17.923h76.053a17.926,17.926,0,0,0,17.933,17.923,17.924,17.924,0,0,0,17.92-17.923,17.863,17.863,0,0,0-3.093-10.06,17.859,17.859,0,0,0,3.093-10.06" transform="translate(140.999 2538.588)"/><path class="k" d="M1422.263-904.947v48.889c0,4.908,25.96,8.888,58,8.888s58-3.98,58-8.888v-48.889h-116" transform="translate(140.999 2538.588)"/><path class="l" d="M1533.263-904.947v12.587c0,20.005-13.56,30.724-31.813,38.92-7.533,3.383-21.187,6.271-21.187,6.271,32.027,0,58-3.98,58-8.888v-48.889h-5" transform="translate(140.999 2538.588)"/><g transform="translate(140.999 2538.588)"><g class="w"><path class="n" d="M1537.916-880.079a7,7,0,0,0-.107-1.392,9.25,9.25,0,0,0-9.12-7.12h-.026a9.25,9.25,0,0,0-9.12,7.12,7,7,0,0,0-.107,1.392,5.6,5.6,0,0,0,1.88,4.592c1.72,1.393,3.973,1.293,7.36,1.137,3.387.156,5.627.256,7.36-1.137a5.6,5.6,0,0,0,1.88-4.592"/><path class="n" d="M1527.276-894.355c.053,1.588-.507,4.312-2.093,4.592-1.507.267-3.027-1.975-3.547-3.591-.173-.565-.747-2.339.24-3.555a3.277,3.277,0,0,1,1.853-1.039,3.005,3.005,0,0,1,2,.12c1.467.76,1.533,2.868,1.547,3.472"/><path class="n" d="M1530.45-894.363c-.053,1.587.52,4.312,2.093,4.592,1.507.267,3.04-1.976,3.547-3.591.187-.567.747-2.339-.227-3.555a3.3,3.3,0,0,0-1.867-1.039,2.966,2.966,0,0,0-1.987.12c-1.48.759-1.547,2.867-1.56,3.472"/><path class="n" d="M1537.583-889.328c-.453,1.521-.613,4.3.84,4.977,1.387.647,3.44-1.127,4.36-2.555.32-.5,1.32-2.068.693-3.495a3.261,3.261,0,0,0-1.533-1.483,3,3,0,0,0-1.96-.4c-1.613.355-2.227,2.375-2.4,2.953"/><path class="n" d="M1520.116-889.608c.453,1.52.613,4.3-.84,4.977-1.387.647-3.44-1.127-4.36-2.555-.32-.5-1.32-2.068-.68-3.495a3.261,3.261,0,0,1,1.52-1.484,3,3,0,0,1,1.96-.4c1.613.355,2.227,2.375,2.4,2.953"/><path class="n" d="M1508.143-856.475a6.4,6.4,0,0,0-.987-.987,9.23,9.23,0,0,0-11.547.5l-.013.012-.027.013a9.247,9.247,0,0,0-2.307,11.331,6.852,6.852,0,0,0,.813,1.129,5.584,5.584,0,0,0,4.413,2.271c2.227-.059,3.867-1.591,6.347-3.909,2.68-2.081,4.453-3.461,4.853-5.64a5.554,5.554,0,0,0-1.547-4.717"/><path class="n" d="M1490.783-860.432c1.08,1.173,2.413,3.615,1.387,4.853-.973,1.18-3.587.467-5.027-.431-.507-.312-2.08-1.3-2.133-2.856a3.311,3.311,0,0,1,.747-2,3,3,0,0,1,1.587-1.2c1.613-.377,3.04,1.183,3.44,1.631"/><path class="n" d="M1493.2-862.5c.987,1.241,3.187,2.947,4.573,2.135,1.32-.775,1.027-3.473.36-5.036-.227-.545-.947-2.26-2.48-2.551a3.294,3.294,0,0,0-2.093.417,2.963,2.963,0,0,0-1.427,1.381c-.627,1.533.68,3.181,1.067,3.653"/><path class="n" d="M1501.89-863.3c.64,1.455,2.32,3.669,3.867,3.241,1.48-.408,1.893-3.091,1.653-4.769-.08-.588-.333-2.429-1.733-3.105a3.293,3.293,0,0,0-2.133-.136,3.009,3.009,0,0,0-1.747.965c-1,1.319-.147,3.251.094,3.8"/><path class="n" d="M1488.41-852.171c1.347.86,3.267,2.873,2.6,4.333-.64,1.391-3.347,1.376-4.973.881-.573-.173-2.347-.716-2.8-2.212a3.2,3.2,0,0,1,.213-2.121,2.882,2.882,0,0,1,1.227-1.569c1.453-.781,3.227.361,3.733.688"/><path class="n" d="M1546.53-843.99a6.373,6.373,0,0,0,0-1.375c-.307-3.355-3.507-7.317-8.507-7.717H1538c-5-.4-8.813,3-9.667,6.264a6.862,6.862,0,0,0-.227,1.357,5.463,5.463,0,0,0,1.52,4.659c1.6,1.505,3.84,1.587,7.24,1.7,3.36.423,5.587.7,7.413-.531a5.475,5.475,0,0,0,2.253-4.359"/><path class="n" d="M1537.09-858.854c-.08,1.563-.867,4.192-2.467,4.341-1.52.143-2.867-2.181-3.24-3.808-.133-.571-.56-2.356.52-3.471a3.3,3.3,0,0,1,1.933-.872,3.006,3.006,0,0,1,1.973.276c1.413.863,1.307,2.937,1.28,3.533"/><path class="n" d="M1529.556-854.765c.333,1.529.267,4.269-1.24,4.82-1.427.524-3.333-1.381-4.134-2.856-.28-.517-1.146-2.135-.4-3.487a3.281,3.281,0,0,1,1.64-1.335,3.036,3.036,0,0,1,1.987-.233c1.573.476,2.027,2.507,2.147,3.091"/><path class="n" d="M1471.2-874.924a6.252,6.252,0,0,0,.64-1.239,9.226,9.226,0,0,0-3.973-10.859l-.013-.011-.013-.011a9.252,9.252,0,0,0-11.507,1.235,6.642,6.642,0,0,0-.827,1.123,5.631,5.631,0,0,0-.827,4.9c.733,2.093,2.693,3.193,5.653,4.852,2.787,1.921,4.64,3.191,6.84,2.919a5.594,5.594,0,0,0,4.027-2.905"/><path class="n" d="M1469.7-892.663c-.787,1.375-2.707,3.388-4.2,2.793-1.427-.569-1.533-3.281-1.12-4.924.147-.576.6-2.377,2.08-2.895a3.232,3.232,0,0,1,2.12.1,2.923,2.923,0,0,1,1.627,1.152c.853,1.421-.2,3.248-.507,3.772"/><path class="n" d="M1472.4-891c-.88,1.321-1.84,3.935-.64,5.007,1.133,1.021,3.613-.076,4.906-1.176.453-.385,1.867-1.593,1.68-3.143a3.266,3.266,0,0,0-1.04-1.864,2.93,2.93,0,0,0-1.747-.949c-1.653-.133-2.827,1.621-3.16,2.125"/><path class="n" d="M1475.8-882.954c-1.187,1.051-2.787,3.328-1.906,4.672.84,1.281,3.52.86,5.04.129.547-.256,2.213-1.059,2.44-2.6a3.318,3.318,0,0,0-.52-2.067,2.939,2.939,0,0,0-1.453-1.369c-1.56-.553-3.133.84-3.6,1.239"/><path class="n" d="M1461.116-892.418c-.413,1.533-1.747,3.975-3.347,3.783-1.52-.183-2.32-2.773-2.346-4.468-.013-.593-.027-2.453,1.253-3.332a3.277,3.277,0,0,1,2.094-.451,2.985,2.985,0,0,1,1.867.693c1.187,1.155.64,3.191.48,3.775"/><path class="n" d="M1428.85-845.658a6.251,6.251,0,0,0,.64-1.239,9.226,9.226,0,0,0-3.973-10.859l-.013-.011-.013-.011a9.255,9.255,0,0,0-11.507,1.235,6.6,6.6,0,0,0-.827,1.123,5.633,5.633,0,0,0-.827,4.9c.733,2.093,2.693,3.193,5.653,4.851,2.787,1.923,4.64,3.193,6.84,2.919a5.535,5.535,0,0,0,4.027-2.9"/><path class="n" d="M1427.356-863.4c-.787,1.376-2.707,3.389-4.2,2.793-1.427-.568-1.533-3.28-1.12-4.923.147-.575.6-2.377,2.08-2.895a3.294,3.294,0,0,1,2.133.1,3.01,3.01,0,0,1,1.627,1.152c.84,1.423-.213,3.248-.52,3.771"/><path class="n" d="M1430.05-861.731c-.88,1.321-1.84,3.935-.64,5.007,1.133,1.021,3.613-.076,4.907-1.176.453-.385,1.866-1.593,1.68-3.143a3.193,3.193,0,0,0-1.04-1.864,2.93,2.93,0,0,0-1.747-.949c-1.653-.132-2.813,1.623-3.16,2.125"/><path class="n" d="M1433.45-853.686c-1.187,1.049-2.787,3.327-1.907,4.671.84,1.281,3.52.861,5.04.129.547-.256,2.213-1.059,2.44-2.6a3.324,3.324,0,0,0-.52-2.068,2.943,2.943,0,0,0-1.453-1.368c-1.56-.553-3.133.84-3.6,1.24"/><path class="n" d="M1424.3-889.447c-1.547-.393-4-1.7-3.827-3.291.16-1.521,2.733-2.365,4.427-2.408.6-.016,2.453-.064,3.347,1.215a3.16,3.16,0,0,1,.48,2.077,2.9,2.9,0,0,1-.667,1.876c-1.133,1.2-3.173.681-3.76.531"/><path class="n" d="M1423.423-886.4c-1.507-.491-4.28-.7-5,.735-.667,1.373,1.053,3.465,2.467,4.408.493.331,2.04,1.364,3.48.764a3.307,3.307,0,0,0,1.52-1.5,3.045,3.045,0,0,0,.44-1.944c-.32-1.625-2.333-2.276-2.907-2.464"/><path class="n" d="M1421.73-897.651c-1.587.016-4.293-.608-4.547-2.193-.227-1.512,2.04-2.992,3.667-3.472.573-.167,2.36-.692,3.547.312a3.2,3.2,0,0,1,1,1.883,2.978,2.978,0,0,1-.16,1.987c-.787,1.455-2.893,1.476-3.507,1.484"/></g></g><path class="o" d="M1538.263-904.947c0,4.909-25.973,8.889-58,8.889s-58-3.98-58-8.889,25.96-8.889,58-8.889,58,3.98,58,8.889" transform="translate(140.999 2538.588)"/><path class="p" d="M1530.93-904.947c0,3.628-22.693,6.568-50.667,6.568s-50.667-2.94-50.667-6.568,22.68-6.567,50.667-6.567,50.667,2.94,50.667,6.567" transform="translate(140.999 2538.588)"/><path class="q" d="M1530.93-904.63c0,3.452-17.013,6.251-38,6.251s-38-2.8-38-6.251,17.013-6.252,38-6.252,38,2.8,38,6.252" transform="translate(140.999 2538.588)"/><path class="r" d="M1494.77-907.4s28.64.024,20.68,4.629-24.707,2.489-24.707,2.489l4.027-7.119" transform="translate(140.999 2538.588)"/><path class="o" d="M1494.356-908.374s28.64.023,20.68,4.628-24.707,2.489-24.707,2.489l4.027-7.117" transform="translate(140.999 2538.588)"/><path class="q" d="M1503.383-904.75c0,1.508-2.12,2.731-4.733,2.731s-4.733-1.223-4.733-2.731,2.12-2.732,4.733-2.732,4.733,1.223,4.733,2.732" transform="translate(140.999 2538.588)"/><g transform="translate(140.999 2538.588)"><g class="x"><path class="s" d="M1424.7-857.755H1505.4v-40.625H1424.7Z"/></g></g><path class="t" d="M1456.463-885.955a8.9,8.9,0,0,1,6.347-2.533,9.487,9.487,0,0,1,5.027,1.445l.013.011.013.011c.187.116.373.237.547.363-3.693.344-7.053.54-10.067.645q-.94.032-1.88.059" transform="translate(140.999 2538.588)"/><path class="t" d="M1466.076-889.763a1.536,1.536,0,0,1-.573-.107c-1.133-.453-1.44-2.259-1.307-3.805,1.987.116,3.947.213,5.893.295a6.481,6.481,0,0,1-.387.717c-.693,1.205-2.253,2.9-3.627,2.9" transform="translate(140.999 2538.588)"/><path class="t" d="M1471.25-886.947A6.314,6.314,0,0,1,1472.4-891c.32-.485,1.427-2.132,2.987-2.132.053,0,.12,0,.173.007a2.929,2.929,0,0,1,1.747.949,3.265,3.265,0,0,1,1.04,1.864,3.34,3.34,0,0,1-1.107,2.608c-2.08.3-4.08.545-5.987.755" transform="translate(140.999 2538.588)"/><path class="t" d="M1457.943-888.625a1.706,1.706,0,0,1-.173-.011c-1.52-.183-2.32-2.773-2.346-4.468a7.206,7.206,0,0,1,.067-1.2c1.987.169,3.933.317,5.88.449a7.581,7.581,0,0,1-.253,1.436c-.4,1.476-1.653,3.793-3.173,3.793" transform="translate(140.999 2538.588)"/><path class="t" d="M1425.33-856.322c-.013-.521-.013-1.043-.027-1.564.067.036.12.072.187.109l.013.011.013.011c-.067.489-.133.968-.187,1.433" transform="translate(140.999 2538.588)"/><path class="t" d="M1425.25-861.068c-.027-2.5-.067-4.992-.107-7.488a4.011,4.011,0,0,1,1.107.236,3.082,3.082,0,0,1,1.533,1.027,47.653,47.653,0,0,0-1.507,5.327,5.7,5.7,0,0,1-1.027.9" transform="translate(140.999 2538.588)"/><path class="t" d="M1425.97-889.2a6,6,0,0,1-1.133-.117q-.04-2.91-.08-5.817c.053,0,.093-.005.147-.007.08,0,.187-.005.307-.005a3.647,3.647,0,0,1,3.04,1.22,3.16,3.16,0,0,1,.48,2.077,2.9,2.9,0,0,1-.667,1.876,2.8,2.8,0,0,1-2.093.773" transform="translate(140.999 2538.588)"/><path class="t" d="M1424.97-880.849q-.04-2.456-.08-4.911a2.887,2.887,0,0,1,1.44,1.82,3.045,3.045,0,0,1-.44,1.944,3.736,3.736,0,0,1-.92,1.147" transform="translate(140.999 2538.588)"/><path class="u" d="M1509.3-850.567c.067-.14.133-.284.187-.431a135.642,135.642,0,0,0,14.08-3.329,5.546,5.546,0,0,0,.493,1.291,113.314,113.314,0,0,1-14.76,2.469m20.32-3.893c-.027-.107-.04-.208-.067-.3a6.858,6.858,0,0,0-.547-1.632,8.8,8.8,0,0,0,2.44-1.664,7.208,7.208,0,0,0,1.4,2.644c-.893.279-1.987.6-3.227.956m2.853-7.773c.76-4.367,2.253-10.385,2.853-12.78.093-.049.173-.1.267-.157V-862.5a2.654,2.654,0,0,0-1.093-.213,4.994,4.994,0,0,0-.667.053,3.715,3.715,0,0,0-1.36.429" transform="translate(140.999 2538.588)"/><path class="t" d="M1535.33-875.014c.16-.66.267-1.044.267-1.044v.887c-.093.055-.173.108-.267.157" transform="translate(140.999 2538.588)"/><path class="t" d="M1505.4-850.281s1.627-.256,4.093-.717c-.053.147-.12.291-.187.431-1.293.123-2.587.22-3.906.287" transform="translate(140.999 2538.588)"/><path class="t" d="M1532.85-855.417a7.208,7.208,0,0,1-1.4-2.644,2.121,2.121,0,0,0,.6-1.172c.067-.823.227-1.856.427-3a3.716,3.716,0,0,1,1.36-.429,4.981,4.981,0,0,1,.667-.053,2.653,2.653,0,0,1,1.093.213v6.181s-1,.36-2.747.905" transform="translate(140.999 2538.588)"/><path class="t" d="M1524.063-853.037a5.544,5.544,0,0,1-.493-1.291,36.712,36.712,0,0,0,5.44-2.069,6.849,6.849,0,0,1,.547,1.632c.027.1.04.2.067.3-1.613.449-3.48.94-5.56,1.424" transform="translate(140.999 2538.588)"/><path class="y" d="M1182.082-800.27h101.026l42.92-15.951v-76a747.418,747.418,0,0,0-18.929-167.15H1163.153a747.49,747.49,0,0,1,18.929,167.15v91.953" transform="translate(140.999 2538.588)"/><path class="z" d="M1283.109-800.27H1139.163v-91.953a747.411,747.411,0,0,1,18.929-167.15h143.946a747.49,747.49,0,0,0-18.929,167.15v91.953" transform="translate(140.999 2538.588)"/><path class="aa" d="M1302.038-1059.373v-19.193H1158.092v19.193h143.946" transform="translate(140.999 2538.588)"/><path class="ab" d="M1302.038-1078.567l5.331,19.193h-5.331Z" transform="translate(140.999 2538.588)"/><path class="ac" d="M1297.343-1037.388s20.607,54.288,27.941,111.921l.744,109.246-42.92,15.951s-7.18-139.038,14.234-237.118" transform="translate(140.999 2538.588)"/><path class="ad" d="M1167.851-1037.388h114.1s-118.408,29-130.6,117.938c0,0-3.26-71.04,16.5-117.938" transform="translate(140.999 2538.588)"/><path class="ad" d="M1275.675-880.482a120.83,120.83,0,0,1-33.055,39.692c-29.734,23.007-61.771,25.1-73.573,25.287,34.24.039,70.145.076,104.384.116-.4-6.389-.643-13.063-.667-20a334.188,334.188,0,0,1,2.911-45.1" transform="translate(140.999 2538.588)"/><path class="n" d="M1236.817-879.8a22.153,22.153,0,0,0-.349-4.407c-1.852-10.673-13-22.559-28.871-22.559h-.124c-15.872,0-27.019,11.885-28.871,22.559a22.071,22.071,0,0,0-.348,4.407c-.092,4.213.8,10.369,5.972,14.548,5.461,4.415,12.571,4.1,23.309,3.605,10.737.493,17.847.809,23.308-3.605,5.169-4.179,6.064-10.335,5.973-14.548" transform="translate(140.999 2538.588)"/><path class="n" d="M1203.117-925.031c.16,5.029-1.635,13.661-6.64,14.549-4.772.847-9.615-6.259-11.241-11.377-.569-1.792-2.354-7.407.745-11.261a10.349,10.349,0,0,1,5.9-3.288c1.064-.235,3.855-.885,6.3.377,4.664,2.407,4.877,9.084,4.939,11" transform="translate(140.999 2538.588)"/><path class="n" d="M1213.15-925.058c-.16,5.031,1.637,13.661,6.641,14.549,4.772.847,9.615-6.259,11.241-11.377.568-1.791,2.352-7.407-.745-11.26a10.344,10.344,0,0,0-5.9-3.289c-1.064-.233-3.855-.884-6.3.377-4.664,2.407-4.879,9.085-4.94,11" transform="translate(140.999 2538.588)"/><path class="n" d="M1235.765-909.106c-1.451,4.819-1.941,13.621,2.665,15.771,4.392,2.047,10.9-3.569,13.793-8.1,1.012-1.584,4.184-6.549,2.184-11.072a10.341,10.341,0,0,0-4.849-4.7c-.967-.5-3.5-1.848-6.185-1.26-5.125,1.123-7.055,7.52-7.608,9.355" transform="translate(140.999 2538.588)"/><path class="n" d="M1180.412-909.992c1.452,4.817,1.941,13.621-2.665,15.769-4.392,2.048-10.9-3.569-13.793-8.095-1.012-1.584-4.184-6.551-2.184-11.072a10.352,10.352,0,0,1,4.849-4.7c.968-.5,3.5-1.848,6.187-1.259,5.125,1.121,7.055,7.52,7.607,9.355" transform="translate(140.999 2538.588)"/><path class="ae" d="M1216.553-774.945c0,10.715-52.651,19.4-117.6,19.4s-117.6-8.688-117.6-19.4,52.649-19.4,117.6-19.4,117.6,8.687,117.6,19.4" transform="translate(140.999 2538.588)"/><path class="af" d="M1210.449-779.135c0,10.716-50.217,19.4-112.165,19.4s-112.166-8.687-112.166-19.4,50.219-19.4,112.166-19.4,112.165,8.688,112.165,19.4" transform="translate(140.999 2538.588)"/><path class="ag" d="M1204.957-783.421l-14.481-73.061H1004.9l-13.457,73.116a2.562,2.562,0,0,0-.16.871c0,8.812,47.873,15.955,106.928,15.955s106.931-7.143,106.931-15.955a2.58,2.58,0,0,0-.184-.925" transform="translate(140.999 2538.588)"/><path class="ah" d="M1204.957-783.421l-14.481-73.061-17.667-1.391c4.227,3.035-7.92,6.068-3.693,9.1l.419,2.615c4.564,28.528-141.544,68.914-178.092,62.788a2.523,2.523,0,0,0-.16.871c0,2.655,4.347,5.159,12.035,7.36,10.024,2.872,25.728,5.231,44.889,6.745,14.922,1.18,31.941,1.849,50,1.849,35.216,0,66.453-2.54,85.937-6.459,1.972-.4,7.285-.263,12.788-3.356a26.5,26.5,0,0,0,8.021-7.065" transform="translate(140.999 2538.588)"/><path class="ai" d="M1204.957-783.421l-14.481-73.061-17.667-1.391q6.34,4.552,12.676,9.105l7.624,38.116a24.506,24.506,0,0,1-20.375,29.068c-15.044,2.233-31.072,4.008-48,5.091a581.406,581.406,0,0,1-133.29-6.873,2.521,2.521,0,0,0-.16.871c0,2.655,4.347,5.159,12.035,7.36,10.024,2.872,25.728,5.231,44.889,6.745,30.8,2.436,23.237,1.831,50,1.849,23.995.016,41.08-1.073,45.9-1.4,27.459-1.843,59.3-4.171,60.885-13.724a4.861,4.861,0,0,0-.039-1.759" transform="translate(140.999 2538.588)"/><path class="aj" d="M1190.476-856.482c0,9.651-41.543,17.475-92.786,17.475s-92.788-7.824-92.788-17.475,41.541-17.473,92.788-17.473,92.786,7.824,92.786,17.473" transform="translate(140.999 2538.588)"/><path class="ak" d="M1183.512-854.586c0,8.6-38.424,15.579-85.823,15.579s-85.824-6.975-85.824-15.579,38.424-15.579,85.824-15.579,85.823,6.975,85.823,15.579" transform="translate(140.999 2538.588)"/><path class="al" d="M1001.655-801.107l8.9-43.455s23.044,9,61.8,10.776c0,0-50.405,6.516-70.705,32.679" transform="translate(140.999 2538.588)"/><path class="al" d="M1197.265-820.363l4.753,32.777s1.923,11.093-42.072,14.585c0,0,34.438-4.712,37.318-16.1s0-31.26,0-31.26" transform="translate(140.999 2538.588)"/><path class="ak" d="M1162.24-847.7c6.319-1.952,12.663-3.807,19.06-5.472a7.628,7.628,0,0,0-.256-.808,7.416,7.416,0,0,0-2.755-3.4,7.434,7.434,0,0,0-.371-4.361,7.456,7.456,0,0,0-9.7-4.131,7.447,7.447,0,0,0-4.239,9.383l-17.108,6.888q7.68,1,15.368,1.9" transform="translate(140.999 2538.588)"/><path class="am" d="M1095.556-866.719a6.241,6.241,0,0,0-5.424-6.965,6.237,6.237,0,0,0-6.917,5.148l-26.319-3.272a6.238,6.238,0,0,0-5.445-6.687,6.245,6.245,0,0,0-6.965,5.425,6.212,6.212,0,0,0,.636,3.609,6.212,6.212,0,0,0-1.5,3.344,6.241,6.241,0,0,0,5.424,6.965,6.241,6.241,0,0,0,6.965-5.424l26.291,3.269a6.242,6.242,0,0,0,5.424,6.965,6.244,6.244,0,0,0,6.967-5.424,6.218,6.218,0,0,0-.637-3.611,6.2,6.2,0,0,0,1.5-3.344" transform="translate(140.999 2538.588)"/><path class="ak" d="M1067.279-857.85a7.457,7.457,0,0,0-4.407-9.577,7.449,7.449,0,0,0-9.445,4.1l-29.705-10.98a7.448,7.448,0,0,0-4.507-9.257,7.455,7.455,0,0,0-9.576,4.408,7.4,7.4,0,0,0-.245,4.371,7.409,7.409,0,0,0-2.656,3.479,7.452,7.452,0,0,0,4.408,9.576,7.452,7.452,0,0,0,9.575-4.407l29.673,10.968a7.452,7.452,0,0,0,4.408,9.576,7.452,7.452,0,0,0,9.575-4.407,7.4,7.4,0,0,0,.245-4.371,7.42,7.42,0,0,0,2.657-3.479" transform="translate(140.999 2538.588)"/><path class="ak" d="M1144.541-877.068a6.908,6.908,0,0,0-8.643-4.559,6.906,6.906,0,0,0-4.636,8.344l-28.043,8.68a6.9,6.9,0,0,0-8.537-4.268,6.91,6.91,0,0,0-4.557,8.645,6.872,6.872,0,0,0,2.285,3.353,6.863,6.863,0,0,0,.008,4.056,6.908,6.908,0,0,0,8.644,4.559,6.909,6.909,0,0,0,4.557-8.644l28.015-8.671a6.91,6.91,0,0,0,8.644,4.559,6.91,6.91,0,0,0,4.557-8.645,6.871,6.871,0,0,0-2.285-3.352,6.866,6.866,0,0,0-.009-4.057" transform="translate(140.999 2538.588)"/><path class="an" d="M1138.286-859.623a7.456,7.456,0,0,0-6.28-8.469,7.451,7.451,0,0,0-8.4,5.952l-31.324-4.651a7.449,7.449,0,0,0-6.311-8.135,7.455,7.455,0,0,0-8.469,6.279,7.421,7.421,0,0,0,.657,4.328,7.407,7.407,0,0,0-1.885,3.949,7.455,7.455,0,0,0,6.279,8.469,7.455,7.455,0,0,0,8.468-6.28l31.292,4.645a7.454,7.454,0,0,0,6.28,8.468,7.454,7.454,0,0,0,8.467-6.279,7.41,7.41,0,0,0-.657-4.328,7.422,7.422,0,0,0,1.887-3.949" transform="translate(140.999 2538.588)"/><path class="am" d="M1166.684-872.869a7.454,7.454,0,0,0-9.247-5.061,7.449,7.449,0,0,0-5.14,8.921l-30.395,8.889a7.45,7.45,0,0,0-9.139-4.747,7.453,7.453,0,0,0-5.06,9.247,7.408,7.408,0,0,0,2.407,3.656,7.415,7.415,0,0,0-.059,4.376,7.453,7.453,0,0,0,9.247,5.063,7.453,7.453,0,0,0,5.063-9.247l30.363-8.88a7.454,7.454,0,0,0,9.247,5.063,7.455,7.455,0,0,0,5.063-9.248,7.422,7.422,0,0,0-2.408-3.655,7.422,7.422,0,0,0,.059-4.377" transform="translate(140.999 2538.588)"/><g transform="translate(140.999 2538.588)"><g class="ao"><path class="an" d="M1078.705-856.867a7.452,7.452,0,0,0-7.041-7.844,7.446,7.446,0,0,0-7.811,6.708l-31.623-1.707a7.448,7.448,0,0,0-7.043-7.511,7.455,7.455,0,0,0-7.845,7.043,7.415,7.415,0,0,0,1.059,4.247,7.428,7.428,0,0,0-1.509,4.109,7.453,7.453,0,0,0,7.041,7.844,7.452,7.452,0,0,0,7.845-7.041l31.589,1.705a7.454,7.454,0,0,0,7.041,7.845,7.455,7.455,0,0,0,7.845-7.043,7.425,7.425,0,0,0-1.057-4.247,7.423,7.423,0,0,0,1.508-4.109"/><path class="am" d="M1061.472-860.666a7.454,7.454,0,0,0-10.255-2.445,7.448,7.448,0,0,0-2.607,9.96l-26.976,16.588a7.448,7.448,0,0,0-10.065-2.169,7.454,7.454,0,0,0-2.445,10.253,7.41,7.41,0,0,0,3.287,2.892,7.428,7.428,0,0,0,1.1,4.237,7.454,7.454,0,0,0,10.253,2.445,7.454,7.454,0,0,0,2.445-10.255l26.948-16.569a7.456,7.456,0,0,0,10.255,2.445,7.454,7.454,0,0,0,2.445-10.255,7.423,7.423,0,0,0-3.287-2.891,7.412,7.412,0,0,0-1.1-4.237"/><path class="am" d="M1134.321-837.958a7.454,7.454,0,0,0-5.123-9.213,7.448,7.448,0,0,0-9.105,4.807l-30.453-8.688a7.45,7.45,0,0,0-5.2-8.887,7.455,7.455,0,0,0-9.213,5.123,7.438,7.438,0,0,0,.089,4.377,7.421,7.421,0,0,0-2.385,3.671,7.456,7.456,0,0,0,5.124,9.213,7.453,7.453,0,0,0,9.213-5.123L1117.689-834a7.455,7.455,0,0,0,5.124,9.213,7.456,7.456,0,0,0,9.213-5.124,7.421,7.421,0,0,0-.089-4.376,7.425,7.425,0,0,0,2.384-3.671"/><path class="an" d="M1195.688-829.63a7.454,7.454,0,0,0-2.371-10.272,7.45,7.45,0,0,0-10.081,2.1l-26.857-16.781a7.449,7.449,0,0,0-2.533-9.98,7.456,7.456,0,0,0-10.272,2.372,7.422,7.422,0,0,0-1.127,4.231,7.4,7.4,0,0,0-3.307,2.867,7.454,7.454,0,0,0,2.371,10.272,7.456,7.456,0,0,0,10.272-2.372l26.828,16.763a7.453,7.453,0,0,0,2.372,10.272,7.455,7.455,0,0,0,10.272-2.372,7.414,7.414,0,0,0,1.125-4.229,7.407,7.407,0,0,0,3.308-2.867"/></g></g></g></svg>