<svg xmlns="http://www.w3.org/2000/svg" xmlns:xlink="http://www.w3.org/1999/xlink" width="350" height="300" viewBox="0 0 350 300"><defs><style>.a{fill:#c93a0e;}.b{fill:#cc4217;}.c{fill:#ff6a27;}.d{fill:#f28b3d;}.e{clip-path:url(#a);}.f{fill:url(#b);}.g{fill:#ba2a08;}.h{clip-path:url(#c);}.i{fill:url(#d);}.j{fill:#ffaa64;}.k{fill:#f7392f;}.l{fill:#e81d13;}.m{clip-path:url(#e);}.n{fill:#ffac92;}.o{fill:#959595;}.p{fill:#6d6d6d;}.q{fill:#5e5b5b;}.r{fill:#444343;}.s{fill:#fb796e;}.t{fill:#ffd1c1;}.u{fill:#f3523d;}.v{fill:#ffc578;}.w{clip-path:url(#f);}.x{clip-path:url(#g);}.y{fill:#dd2c24;}.z{fill:#f24e3d;}.aa{fill:#f7554d;}.ab{fill:#e02b27;}.ac{fill:#cc1f1f;}.ad{fill:#fc6c65;}.ae{fill:#342f2b;}.af{fill:#4e4641;}.ag{fill:#d2c9c3;}.ah{fill:#c5bcb6;}.ai{fill:#c0b6af;}.aj{fill:#a49993;}.ak{fill:#6d2f17;}.al{fill:#e0dad5;}.am{fill:#994936;}.an{fill:#8c3d25;}.ao{clip-path:url(#h);}</style><clipPath id="a"><path d="M1512.547-998.823H1507.2c-.08-41.924-.032-94.18.6-112.876.064-1.752.127-3.209.2-4.335.556-8.94,5.264-29.266,9.24-45.208,3.045-12.195,5.662-21.824,5.662-21.824h0s-.223,1.108-.588,3.07c-1.893,9.951-7.745,41.89-9.351,62.955-.994,13.011-.771,71.949-.422,118.218" transform="translate(-1507.174 1183.067)"/></clipPath><linearGradient id="b" x1="-57.129" y1="4.254" x2="-57.124" y2="4.254" gradientUnits="objectBoundingBox"><stop offset="0" stop-color="#e0490e"/><stop offset="0.084" stop-color="#e0490e"/><stop offset="0.959" stop-color="#f2973d"/><stop offset="1" stop-color="#f2973d"/></linearGradient><clipPath id="c"><path d="M1556.223-918.885v-149.672h7.157l-.27,154.384Z" transform="translate(-1556.223 1068.557)"/></clipPath><linearGradient id="d" x1="-129.686" y1="4.585" x2="-129.674" y2="4.585" gradientUnits="objectBoundingBox"><stop offset="0" stop-color="#c23f0c"/><stop offset="0.084" stop-color="#c23f0c"/><stop offset="1" stop-color="#ba1b0b"/></linearGradient><clipPath id="e"><path d="M1410.436-854.094v32.387c0,3.252,15.482,5.888,34.59,5.888s34.591-2.636,34.591-5.888v-32.387h-69.181" transform="translate(-1410.436 854.094)"/></clipPath><clipPath id="f"><path d="M1422.263-904.906v32.386c0,3.253,15.482,5.89,34.591,5.89s34.59-2.637,34.59-5.89v-32.386h-69.181" transform="translate(-1422.263 904.906)"/></clipPath><clipPath id="g"><path d="M1425.188-871.468l-.008-.007-.008-.007c-.04-.025-.072-.049-.111-.072-.008-.7-.016-1.406-.032-2.109a3.533,3.533,0,0,0,.612-.6c-.191.969-.334,1.908-.453,2.79m1.352-6.319a1.835,1.835,0,0,0-.915-.68,2.2,2.2,0,0,0-.66-.156c-.032-2.715-.072-5.429-.1-8.143a2.458,2.458,0,0,0,.549-.76,2.192,2.192,0,0,0,.262-1.288,1.89,1.89,0,0,0-.859-1.206c-.008-.787-.024-1.573-.032-2.36a3.251,3.251,0,0,0,.676.078,1.578,1.578,0,0,0,1.248-.512,2.059,2.059,0,0,0,.4-1.243,2.286,2.286,0,0,0-.286-1.376,2.065,2.065,0,0,0-1.813-.808c-.072,0-.135,0-.183,0l-.088,0c-.008-.715-.024-1.432-.032-2.147,4.167.835,8.548,1.558,13.12,2.127q2.648.33,5.24.574a5.322,5.322,0,0,0-.04.8c.016,1.123.493,2.839,1.4,2.96a.931.931,0,0,0,.1.007c.907,0,1.654-1.535,1.893-2.513a5.547,5.547,0,0,0,.151-.951c.565.041,1.13.081,1.686.118-.08,1.025.1,2.221.779,2.521a.833.833,0,0,0,.342.071c.819,0,1.75-1.123,2.163-1.921a4.382,4.382,0,0,0,.231-.475q4.211.192,8.222.187c4.477,0,8.763-.166,12.834-.456a113.682,113.682,0,0,1-16.794,4.03,2.331,2.331,0,0,0,.66-1.728,2.224,2.224,0,0,0-.62-1.235,1.715,1.715,0,0,0-1.042-.629,1.013,1.013,0,0,0-.1,0c-.931,0-1.59,1.091-1.781,1.412a4.53,4.53,0,0,0-.684,2.683q-.87.106-1.694.191c-.1-.083-.215-.163-.326-.24l-.008-.007-.008-.007a5.246,5.246,0,0,0-3-.958,5.05,5.05,0,0,0-3.785,1.678c-3.8.125-7.57.267-11.125,3.023a18.73,18.73,0,0,0-5.98,9.339" transform="translate(-1424.703 898.381)"/></clipPath><clipPath id="h"><path d="M1114.715-859.844c0,5.7-22.916,10.32-51.184,10.32s-51.183-4.62-51.183-10.32,22.915-10.32,51.183-10.32,51.184,4.62,51.184,10.32" transform="translate(-1012.348 870.164)"/></clipPath></defs><g transform="translate(-1122.357 -1330.188)"><path class="a" d="M1349.063-940.388h88.266L1466.352-954l6.886,1.177.271-154.384c0-.633,0-1.6-.032-2.764-.246-8.344-1.845-14.742-5.01-25.4q-2.97-10.039-6.083-19.4-4.771-14.15-9.55-28.3H1333.557l11.029,42.574a129.09,129.09,0,0,1,4.111,32.083l.366,168.022" transform="translate(-1.153 2530.037)"/><path class="b" d="M1348.268-944.663h89.061l29.024-13.615v-153.206c-.509-5.638-1.272-11.715-2.386-18.15-.867-5.017-1.861-9.734-2.918-14.132q-5.654-25.984-11.3-51.967l-116.192,8.391,10.465,42.574a135.6,135.6,0,0,1,3.9,32.083l.342,168.022" transform="translate(-1.153 2534.313)"/><path class="c" d="M1443.825-1191.617H1319.774c-4.172,0-7.554-3.757-7.554-8.391s3.382-8.391,7.554-8.391h124.051c4.167,0,7.554,3.757,7.554,8.391s-3.388,8.391-7.554,8.391" transform="translate(7.459 2538.588)"/><path class="c" d="M1422.189-940.388H1297.74c-1.348-33.179-1.952-67.888-1.59-104q.323-32.214,1.59-62.817a129.681,129.681,0,0,1,1.054-16.511,128.228,128.228,0,0,1,3.142-16.181l11.31-43.166h124.449l-11.037,42.574a129.108,129.108,0,0,0-4.111,32.083l-.358,168.022" transform="translate(13.987 2530.037)"/><path class="d" d="M1314.388-1183.066h124.449s-14.648,55.454-14.9,67.032H1298.882s-.8-21.985,15.506-67.032" transform="translate(12.845 2530.037)"/><g transform="translate(1435.948 1346.97)"><g class="e" transform="translate(0)"><path class="f" d="M1512.547-998.823H1507.2c-.08-41.924-.032-94.18.6-112.876.064-1.752.127-3.209.2-4.335.556-8.94,5.264-29.266,9.24-45.208,3.045-12.195,5.662-21.824,5.662-21.824h0s-.223,1.108-.588,3.07c-1.893,9.951-7.745,41.89-9.351,62.955-.994,13.011-.771,71.949-.422,118.218" transform="translate(-1507.174 1183.067)"/></g></g><path class="g" d="M1547.228-837.911l-6.886-4.711-23.466,7.359.135,9.788,30.217-12.437" transform="translate(-75.142 2415.123)"/><g transform="translate(1465.2 1422.828)"><g class="h" transform="translate(0)"><path class="i" d="M1556.223-918.885v-149.672h7.157l-.27,154.384-6.886-4.711" transform="translate(-1556.223 1068.557)"/></g></g><path class="j" d="M1312.219-1121.17a162.93,162.93,0,0,0,62.822-14.132,177.184,177.184,0,0,0,53.444-37.1H1324.945l-12.726,51.23" transform="translate(7.459 2526.436)"/><path class="d" d="M1312.219-981.892v-86.666h46.123s-42.147,16-46.123,86.666" transform="translate(7.459 2491.386)"/><path class="d" d="M1477.89-928.4V-863h-33s21.867.847,27.434-16.819,5.566-48.58,5.566-48.58" transform="translate(-46.088 2444.077)"/><path class="k" d="M1410.436-854.135v32.387c0,3.252,15.482,5.889,34.59,5.889s34.591-2.637,34.591-5.889v-32.387h-69.181" transform="translate(-32.182 2419.01)"/><path class="l" d="M1500.045-854.135v8.339c0,13.253-8.087,20.352-18.973,25.782-4.493,2.241-12.635,4.155-12.635,4.155,19.1,0,34.59-2.637,34.59-5.889v-32.387h-2.982" transform="translate(-55.592 2419.01)"/><g transform="translate(1378.254 1564.902)"><g class="m" transform="translate(0)"><path class="n" d="M1518.629-832.141a6.056,6.056,0,0,0-.064-.921,5.687,5.687,0,0,0-5.439-4.718h-.024a5.678,5.678,0,0,0-5.431,4.718,4.456,4.456,0,0,0-.063.921,3.9,3.9,0,0,0,1.121,3.042c1.026.923,2.362.857,4.389.753,2.02.1,3.356.17,4.382-.753a3.912,3.912,0,0,0,1.129-3.042" transform="translate(-1449.655 848.587)"/><path class="n" d="M1513.04-844.8c.032,1.052-.31,2.857-1.248,3.042-.9.178-1.813-1.309-2.115-2.379a2.851,2.851,0,0,1,.135-2.354,1.91,1.91,0,0,1,1.113-.688,1.6,1.6,0,0,1,1.185.079c.883.5.922,1.9.93,2.3" transform="translate(-1450.411 851.785)"/><path class="n" d="M1518.622-844.8c-.032,1.052.3,2.856,1.248,3.042.9.177,1.805-1.308,2.115-2.379a2.859,2.859,0,0,0-.143-2.355,1.9,1.9,0,0,0-1.105-.688,1.6,1.6,0,0,0-1.185.08c-.883.5-.922,1.9-.93,2.3" transform="translate(-1454.1 851.788)"/><path class="n" d="M1525.628-839.529c-.271,1.008-.366,2.849.5,3.3.827.428,2.051-.745,2.6-1.692a2.808,2.808,0,0,0,.405-2.315,2.076,2.076,0,0,0-.907-.982,1.636,1.636,0,0,0-1.169-.263c-.962.234-1.328,1.572-1.432,1.955" transform="translate(-1456.852 849.848)"/><path class="n" d="M1505.829-839.809c.27,1.008.366,2.849-.5,3.3-.827.428-2.06-.746-2.6-1.692a2.836,2.836,0,0,1-.414-2.315,2.045,2.045,0,0,1,.914-.982,1.636,1.636,0,0,1,1.169-.263c.962.234,1.328,1.572,1.431,1.956" transform="translate(-1447.471 849.943)"/><path class="n" d="M1489.889-806.6a4.919,4.919,0,0,0-.588-.654,5.1,5.1,0,0,0-6.894.329l-.008.008-.008.009a6.594,6.594,0,0,0-1.376,7.506,4.516,4.516,0,0,0,.485.748,3.248,3.248,0,0,0,2.632,1.5c1.32-.038,2.306-1.054,3.777-2.589,1.6-1.379,2.656-2.293,2.9-3.737a3.956,3.956,0,0,0-.922-3.124" transform="translate(-1438.672 838.684)"/><path class="n" d="M1476.626-810.192c.636.779,1.439,2.4.827,3.217-.58.782-2.139.308-3-.285a2.589,2.589,0,0,1-1.272-1.893,2.27,2.27,0,0,1,.445-1.323,1.806,1.806,0,0,1,.946-.795c.962-.25,1.813.783,2.052,1.079" transform="translate(-1435.761 839.652)"/><path class="n" d="M1480.859-813.537c.6.821,1.908,1.951,2.735,1.413.787-.513.612-2.3.215-3.335-.135-.362-.564-1.5-1.479-1.691a1.794,1.794,0,0,0-1.248.277,1.861,1.861,0,0,0-.859.915,2.844,2.844,0,0,0,.636,2.42" transform="translate(-1438.563 841.633)"/><path class="n" d="M1489.834-814.134c.382.964,1.384,2.431,2.306,2.147.883-.27,1.129-2.047.986-3.159-.048-.389-.2-1.609-1.042-2.057a1.761,1.761,0,0,0-1.265-.09,1.744,1.744,0,0,0-1.042.64,2.908,2.908,0,0,0,.056,2.52" transform="translate(-1442.345 841.699)"/><path class="n" d="M1474.454-801.682c.8.57,1.94,1.9,1.55,2.871-.382.922-2,.911-2.966.584a2.4,2.4,0,0,1-1.67-1.465,2.413,2.413,0,0,1,.119-1.405,1.972,1.972,0,0,1,.739-1.04c.867-.517,1.924.239,2.227.456" transform="translate(-1435.005 836.616)"/><path class="n" d="M1527.249-796.259a4.684,4.684,0,0,0,0-.911,5.755,5.755,0,0,0-5.073-5.112h-.008l-.016,0a5.55,5.55,0,0,0-5.757,4.15,5,5,0,0,0-.135.9,3.877,3.877,0,0,0,.9,3.086c.962,1,2.3,1.051,4.318,1.129,2.012.28,3.34.464,4.429-.352a3.776,3.776,0,0,0,1.344-2.887" transform="translate(-1453.138 836.613)"/><path class="n" d="M1522.871-809.346c-.04,1.035-.509,2.778-1.463,2.876-.906.095-1.71-1.445-1.932-2.523a2.726,2.726,0,0,1,.31-2.3,1.847,1.847,0,0,1,1.153-.577,1.631,1.631,0,0,1,1.177.182c.835.572.779,1.947.755,2.341" transform="translate(-1454.397 839.853)"/><path class="n" d="M1515.28-805.025c.2,1.013.159,2.829-.74,3.193-.859.347-2-.915-2.465-1.892a2.763,2.763,0,0,1-.239-2.31,1.962,1.962,0,0,1,.978-.883,1.636,1.636,0,0,1,1.177-.155c.946.315,1.209,1.661,1.288,2.047" transform="translate(-1451.292 838.242)"/><path class="n" d="M1452.594-828.69a4.939,4.939,0,0,0,.382-.821,6.481,6.481,0,0,0-2.37-7.193l-.016-.006-.008-.007a5.109,5.109,0,0,0-6.854.817,4.422,4.422,0,0,0-.493.745,4,4,0,0,0-.493,3.243c.429,1.387,1.6,2.115,3.364,3.214,1.67,1.273,2.775,2.115,4.087,1.934a3.391,3.391,0,0,0,2.4-1.924" transform="translate(-1423.411 848.552)"/><path class="n" d="M1455.644-843.595c-.477.911-1.622,2.245-2.5,1.85-.851-.376-.914-2.173-.668-3.261.088-.381.358-1.575,1.241-1.918a1.76,1.76,0,0,1,1.264.067,1.754,1.754,0,0,1,.97.763,2.869,2.869,0,0,1-.3,2.5" transform="translate(-1427.351 851.705)"/><path class="n" d="M1460.084-840.906c-.525.875-1.1,2.606-.382,3.317.676.677,2.155-.049,2.926-.779a2.68,2.68,0,0,0,1-2.082,2.222,2.222,0,0,0-.62-1.235,1.714,1.714,0,0,0-1.042-.629c-.986-.087-1.686,1.075-1.884,1.408" transform="translate(-1430.185 850.119)"/><path class="n" d="M1463.1-832.6c-.708.7-1.662,2.2-1.137,3.094.493.849,2.091.571,3.006.086a2.49,2.49,0,0,0,1.447-1.725,2.33,2.33,0,0,0-.3-1.369,1.854,1.854,0,0,0-.867-.907c-.93-.367-1.877.557-2.147.821" transform="translate(-1431.171 847.146)"/><path class="n" d="M1446.991-843.119c-.254,1.016-1.05,2.633-2,2.506-.906-.122-1.392-1.838-1.4-2.962a2.752,2.752,0,0,1,.748-2.206,1.784,1.784,0,0,1,1.24-.3,1.681,1.681,0,0,1,1.121.459,2.919,2.919,0,0,1,.286,2.5" transform="translate(-1423.819 851.393)"/><path class="n" d="M1410.247-799.424a4.965,4.965,0,0,0,.382-.821,6.481,6.481,0,0,0-2.37-7.193l-.008-.007-.016-.007a5.109,5.109,0,0,0-6.855.818,4.382,4.382,0,0,0-.493.745,4,4,0,0,0-.493,3.243c.438,1.387,1.6,2.116,3.364,3.214,1.67,1.273,2.775,2.115,4.087,1.934a3.391,3.391,0,0,0,2.4-1.924" transform="translate(-1406.319 838.674)"/><path class="n" d="M1413.3-814.328c-.477.911-1.622,2.245-2.505,1.85-.851-.377-.914-2.173-.668-3.262.087-.381.358-1.575,1.24-1.917a1.757,1.757,0,0,1,1.264.066,1.753,1.753,0,0,1,.97.763,2.87,2.87,0,0,1-.3,2.5" transform="translate(-1410.26 841.826)"/><path class="n" d="M1417.738-811.639c-.525.875-1.1,2.607-.382,3.317.676.677,2.155-.049,2.926-.779a2.68,2.68,0,0,0,1-2.082,2.222,2.222,0,0,0-.62-1.235,1.715,1.715,0,0,0-1.041-.629c-.986-.087-1.686,1.075-1.885,1.408" transform="translate(-1413.094 840.241)"/><path class="n" d="M1420.751-803.336c-.708.7-1.662,2.2-1.137,3.094.493.849,2.1.571,3.006.086a2.491,2.491,0,0,0,1.447-1.725,2.33,2.33,0,0,0-.3-1.369,1.86,1.86,0,0,0-.867-.907c-.93-.367-1.877.556-2.147.821" transform="translate(-1414.08 837.267)"/><path class="n" d="M1410.915-840.559c-.914-.261-2.385-1.125-2.282-2.181.1-1.008,1.638-1.566,2.648-1.6a2.2,2.2,0,0,1,2,.806,2.342,2.342,0,0,1,.286,1.374,2.122,2.122,0,0,1-.4,1.245c-.676.8-1.9.451-2.25.352" transform="translate(-1409.707 850.801)"/><path class="n" d="M1409.519-835.715c-.907-.325-2.561-.467-2.982.487-.4.909.628,2.295,1.471,2.919a2.177,2.177,0,0,0,2.075.506,2.034,2.034,0,0,0,.9-.993,2.077,2.077,0,0,0,.263-1.287c-.191-1.077-1.384-1.509-1.726-1.632" transform="translate(-1408.827 847.973)"/><path class="n" d="M1408.061-848.848c-.946.011-2.56-.4-2.711-1.454-.143-1,1.217-1.981,2.187-2.3a2.138,2.138,0,0,1,2.115.206,2.216,2.216,0,0,1,.6,1.247,2.18,2.18,0,0,1-.1,1.316c-.469.964-1.734.979-2.091.983" transform="translate(-1408.379 853.654)"/></g></g><path class="o" d="M1479.617-857.135c0,3.252-15.49,5.889-34.591,5.889s-34.59-2.637-34.59-5.889,15.482-5.888,34.59-5.888,34.591,2.636,34.591,5.888" transform="translate(-32.182 2422.01)"/><path class="p" d="M1478.2-856.352c0,2.4-13.534,4.351-30.217,4.351s-30.217-1.948-30.217-4.351,13.526-4.35,30.217-4.35,30.217,1.948,30.217,4.35" transform="translate(-35.142 2421.226)"/><path class="q" d="M1488.429-855.928c0,2.287-10.147,4.141-22.663,4.141s-22.663-1.854-22.663-4.141,10.146-4.142,22.663-4.142,22.663,1.855,22.663,4.142" transform="translate(-45.367 2421.013)"/><path class="r" d="M1481.31-856.587s17.081.015,12.341,3.066-14.735,1.65-14.735,1.65l2.393-4.716" transform="translate(-59.821 2419.837)"/><path class="o" d="M1480.9-857.562s17.08.015,12.333,3.066-14.735,1.65-14.735,1.65l2.4-4.716" transform="translate(-59.655 2420.166)"/><path class="q" d="M1487.736-854.86c0,1-1.265,1.81-2.823,1.81s-2.823-.81-2.823-1.81,1.264-1.809,2.823-1.809,2.823.81,2.823,1.809" transform="translate(-61.102 2419.865)"/><path class="s" d="M1413.362-820.655l-.008-.007-.016-.007c-.032-.024-.072-.049-.1-.072-.008-.7-.024-1.405-.032-2.107a4.3,4.3,0,0,0,.612-.594c-.191.968-.342,1.906-.453,2.789m1.352-6.318a1.815,1.815,0,0,0-.922-.681,2.147,2.147,0,0,0-.652-.156c-.04-2.714-.072-5.43-.111-8.143a2.318,2.318,0,0,0,.549-.76,2.074,2.074,0,0,0,.262-1.287,1.848,1.848,0,0,0-.851-1.206c-.008-.787-.024-1.574-.032-2.361a3.231,3.231,0,0,0,.676.078,1.58,1.58,0,0,0,1.248-.511,2.12,2.12,0,0,0,.4-1.245,2.345,2.345,0,0,0-.286-1.374,2.072,2.072,0,0,0-1.821-.809c-.072,0-.127,0-.175,0l-.1,0q-.012-1.073-.024-2.146c4.167.834,8.548,1.557,13.121,2.127q2.648.33,5.24.574a5.3,5.3,0,0,0-.04.793c.008,1.124.493,2.84,1.4,2.962a.814.814,0,0,0,.1.007c.906,0,1.654-1.535,1.892-2.513a5.558,5.558,0,0,0,.151-.952c.564.042,1.129.082,1.686.118-.08,1.025.1,2.221.779,2.52a.785.785,0,0,0,.334.072c.827,0,1.758-1.124,2.171-1.921.048-.1.135-.265.222-.475q4.211.192,8.23.188c4.477,0,8.763-.167,12.834-.456a114.044,114.044,0,0,1-16.794,4.029,2.328,2.328,0,0,0,.66-1.728,2.223,2.223,0,0,0-.62-1.235,1.714,1.714,0,0,0-1.042-.629c-.04,0-.072,0-.111,0-.922,0-1.583,1.091-1.773,1.412a4.594,4.594,0,0,0-.692,2.684q-.859.1-1.694.19c-.1-.083-.207-.163-.318-.24l-.016-.006-.008-.007a5.217,5.217,0,0,0-2.99-.958,5.036,5.036,0,0,0-3.785,1.678c-3.809.125-7.578.268-11.125,3.023a18.735,18.735,0,0,0-5.98,9.34" transform="translate(-33.167 2416.793)"/><path class="t" d="M1444.636-836a5.039,5.039,0,0,1,3.785-1.678,5.218,5.218,0,0,1,2.99.958l.008.007.016.006c.111.077.215.157.318.24-2.195.228-4.2.359-6,.427-.374.015-.748.027-1.121.039" transform="translate(-45.985 2413.454)"/><path class="t" d="M1453.471-840.272a.784.784,0,0,1-.334-.072c-.676-.3-.859-1.5-.779-2.52,1.177.077,2.354.142,3.507.2-.088.21-.175.377-.223.475-.414.8-1.344,1.921-2.171,1.921" transform="translate(-49.095 2415.205)"/><path class="t" d="M1459.391-838.221a4.593,4.593,0,0,1,.692-2.684c.191-.322.851-1.412,1.773-1.412.04,0,.072,0,.111,0a1.715,1.715,0,0,1,1.042.629,2.221,2.221,0,0,1,.62,1.235,2.329,2.329,0,0,1-.66,1.728q-1.861.294-3.578.5" transform="translate(-51.929 2415.021)"/><path class="t" d="M1445.1-839.728a.8.8,0,0,1-.1-.007c-.907-.122-1.392-1.838-1.4-2.962a5.291,5.291,0,0,1,.04-.793q1.766.167,3.507.3a5.569,5.569,0,0,1-.151.952c-.239.978-.986,2.513-1.893,2.513" transform="translate(-45.566 2415.416)"/><path class="t" d="M1413.485-806.037c0-.345-.008-.691-.008-1.037.032.024.071.048.1.072l.016.007.008.007c-.047.325-.079.642-.119.95" transform="translate(-33.409 2403.125)"/><path class="t" d="M1413.38-812.783c-.024-1.654-.04-3.307-.063-4.961a2.152,2.152,0,0,1,.652.156,1.814,1.814,0,0,1,.922.681,34.339,34.339,0,0,0-.9,3.53,4.3,4.3,0,0,1-.612.594" transform="translate(-33.345 2406.726)"/><path class="t" d="M1413.648-840.4a3.235,3.235,0,0,1-.676-.078c-.016-1.284-.032-2.569-.056-3.855l.1,0c.048,0,.1,0,.175,0a2.073,2.073,0,0,1,1.821.809,2.342,2.342,0,0,1,.286,1.374,2.119,2.119,0,0,1-.4,1.245,1.581,1.581,0,0,1-1.249.511" transform="translate(-33.183 2415.703)"/><path class="t" d="M1413.1-831.694c-.016-1.085-.024-2.168-.04-3.252a1.848,1.848,0,0,1,.851,1.206,2.073,2.073,0,0,1-.262,1.287,2.312,2.312,0,0,1-.549.76" transform="translate(-33.242 2412.532)"/><path class="u" d="M1497.476-808.06c.04-.093.072-.188.1-.284a74.181,74.181,0,0,0,8.4-2.205,3.932,3.932,0,0,0,.295.855,61.651,61.651,0,0,1-8.8,1.635m12.111-2.579c-.008-.07-.024-.137-.032-.2a4.619,4.619,0,0,0-.334-1.081,5.2,5.2,0,0,0,1.463-1.1,4.723,4.723,0,0,0,.835,1.752c-.533.184-1.185.4-1.932.632m1.71-5.149c.453-2.893,1.336-6.88,1.7-8.466.048-.033.1-.067.159-.1v8.392a1.456,1.456,0,0,0-.652-.14,2.574,2.574,0,0,0-.4.035,2.049,2.049,0,0,0-.811.284" transform="translate(-67.312 2408.959)"/><path class="t" d="M1523.5-824.554c.1-.437.159-.692.159-.692v.587c-.056.037-.111.072-.159.1" transform="translate(-77.817 2409.258)"/><path class="t" d="M1493.57-799.71s.97-.17,2.433-.474c-.032.1-.064.192-.1.284-.771.081-1.551.146-2.33.19" transform="translate(-65.736 2400.799)"/><path class="t" d="M1520.458-807.067a4.72,4.72,0,0,1-.835-1.752,1.4,1.4,0,0,0,.35-.776c.048-.545.135-1.229.263-1.988a2.048,2.048,0,0,1,.811-.283,2.564,2.564,0,0,1,.4-.035,1.455,1.455,0,0,1,.652.14v4.1s-.6.239-1.638.6" transform="translate(-76.251 2404.755)"/><path class="t" d="M1512.037-803.358a3.939,3.939,0,0,1-.294-.855,20.574,20.574,0,0,0,3.237-1.372,4.606,4.606,0,0,1,.334,1.081c.008.064.024.132.032.2-.954.3-2.076.624-3.308.944" transform="translate(-73.07 2402.622)"/><path class="v" d="M1416.63-968.144c0-6.557-4.787-11.872-10.687-11.872-5.741,0-10.417,5.032-10.663,11.341h-45.413c-.255-6.308-4.922-11.341-10.663-11.341-5.9,0-10.689,5.316-10.689,11.872a12.753,12.753,0,0,0,1.843,6.664,12.756,12.756,0,0,0-1.843,6.664c0,6.557,4.789,11.873,10.689,11.873s10.687-5.316,10.687-11.873h45.357c0,6.557,4.787,11.873,10.7,11.873s10.687-5.316,10.687-11.873a12.773,12.773,0,0,0-1.845-6.664,12.77,12.77,0,0,0,1.845-6.664" transform="translate(0.883 2461.5)"/><path class="k" d="M1422.263-904.947v32.387c0,3.251,15.482,5.888,34.591,5.888s34.59-2.637,34.59-5.888v-32.387h-69.181" transform="translate(-36.956 2436.161)"/><path class="l" d="M1511.872-904.947v8.338c0,13.253-8.087,20.353-18.973,25.783-4.493,2.241-12.635,4.154-12.635,4.154,19.1,0,34.59-2.637,34.59-5.888v-32.387h-2.982" transform="translate(-60.365 2436.161)"/><g transform="translate(1385.308 1531.241)"><g class="w"><path class="n" d="M1530.457-882.952a5.152,5.152,0,0,0-.064-.922,5.687,5.687,0,0,0-5.439-4.717h-.016a5.687,5.687,0,0,0-5.439,4.717,5.151,5.151,0,0,0-.063.922,3.931,3.931,0,0,0,1.121,3.042c1.026.923,2.37.857,4.389.753,2.02.1,3.356.17,4.389-.753a3.932,3.932,0,0,0,1.121-3.042" transform="translate(-1461.483 899.399)"/><path class="n" d="M1524.869-895.608c.032,1.052-.3,2.856-1.249,3.042-.9.177-1.8-1.308-2.115-2.379a2.859,2.859,0,0,1,.143-2.355,1.9,1.9,0,0,1,1.105-.688,1.626,1.626,0,0,1,1.193.08c.875.5.915,1.9.922,2.3" transform="translate(-1462.241 902.597)"/><path class="n" d="M1530.448-895.616c-.032,1.051.31,2.856,1.249,3.042.9.177,1.813-1.309,2.115-2.379a2.851,2.851,0,0,0-.135-2.355,1.914,1.914,0,0,0-1.113-.688,1.6,1.6,0,0,0-1.185.08c-.883.5-.922,1.9-.93,2.3" transform="translate(-1465.927 902.6)"/><path class="n" d="M1537.454-890.341c-.271,1.008-.366,2.848.5,3.3.827.428,2.052-.746,2.6-1.692a2.837,2.837,0,0,0,.413-2.315,2.04,2.04,0,0,0-.915-.982,1.644,1.644,0,0,0-1.169-.264c-.962.235-1.328,1.573-1.431,1.957" transform="translate(-1468.679 900.66)"/><path class="n" d="M1517.658-890.621c.271,1.007.366,2.848-.5,3.3-.827.428-2.052-.746-2.6-1.692a2.809,2.809,0,0,1-.406-2.315,2.043,2.043,0,0,1,.906-.983,1.645,1.645,0,0,1,1.169-.263c.962.235,1.328,1.573,1.432,1.956" transform="translate(-1459.3 900.755)"/><path class="n" d="M1501.718-857.413a4.051,4.051,0,0,0-.589-.654,5.085,5.085,0,0,0-6.886.329l-.008.008-.016.009a6.607,6.607,0,0,0-1.376,7.506,4.59,4.59,0,0,0,.485.748,3.251,3.251,0,0,0,2.632,1.5c1.328-.039,2.306-1.054,3.785-2.59,1.6-1.379,2.656-2.293,2.894-3.736a3.933,3.933,0,0,0-.922-3.125" transform="translate(-1450.5 889.496)"/><path class="n" d="M1488.453-861c.644.777,1.439,2.395.827,3.215-.581.782-2.139.309-3-.285a2.586,2.586,0,0,1-1.272-1.892,2.333,2.333,0,0,1,.445-1.323,1.833,1.833,0,0,1,.946-.795c.962-.25,1.813.784,2.052,1.08" transform="translate(-1447.588 890.464)"/><path class="n" d="M1492.7-864.35c.588.822,1.9,1.952,2.727,1.414.787-.513.613-2.3.215-3.336-.135-.361-.564-1.5-1.479-1.69a1.808,1.808,0,0,0-1.248.276,1.856,1.856,0,0,0-.851.915,2.816,2.816,0,0,0,.636,2.42" transform="translate(-1450.395 892.445)"/><path class="n" d="M1501.66-864.946c.382.964,1.384,2.431,2.306,2.147.883-.27,1.129-2.047.986-3.159-.048-.39-.2-1.609-1.034-2.057a1.782,1.782,0,0,0-1.272-.09,1.748,1.748,0,0,0-1.042.639,2.908,2.908,0,0,0,.056,2.52" transform="translate(-1454.172 892.511)"/><path class="n" d="M1486.281-852.494c.8.57,1.948,1.9,1.551,2.871-.382.921-2,.911-2.966.584a2.4,2.4,0,0,1-1.67-1.465,2.334,2.334,0,0,1,.127-1.405,1.9,1.9,0,0,1,.732-1.04c.867-.518,1.924.239,2.226.456" transform="translate(-1446.832 887.429)"/><path class="n" d="M1539.077-847.071a4.7,4.7,0,0,0,0-.911,5.754,5.754,0,0,0-5.073-5.112h-.016a5.553,5.553,0,0,0-5.765,4.15,4.993,4.993,0,0,0-.135.9,3.885,3.885,0,0,0,.906,3.086c.954,1,2.29,1.051,4.318,1.129,2,.28,3.332.464,4.421-.352a3.776,3.776,0,0,0,1.344-2.888" transform="translate(-1464.966 887.425)"/><path class="n" d="M1534.707-860.158c-.048,1.035-.517,2.777-1.471,2.876-.907.094-1.71-1.445-1.932-2.523a2.755,2.755,0,0,1,.31-2.3,1.872,1.872,0,0,1,1.153-.578,1.633,1.633,0,0,1,1.177.183c.843.572.779,1.946.763,2.341" transform="translate(-1466.226 890.665)"/><path class="n" d="M1527.107-855.837c.2,1.013.159,2.828-.74,3.193-.851.347-1.988-.915-2.465-1.892a2.764,2.764,0,0,1-.239-2.31,2,2,0,0,1,.978-.884,1.652,1.652,0,0,1,1.185-.155c.938.315,1.209,1.661,1.28,2.048" transform="translate(-1463.119 889.054)"/><path class="n" d="M1464.424-879.5a4.35,4.35,0,0,0,.382-.821,6.469,6.469,0,0,0-2.37-7.193l-.008-.007-.008-.007a5.118,5.118,0,0,0-6.862.818,4.39,4.39,0,0,0-.493.744,4.068,4.068,0,0,0-.493,3.243c.437,1.387,1.606,2.115,3.372,3.214,1.662,1.273,2.767,2.114,4.079,1.933a3.392,3.392,0,0,0,2.4-1.925" transform="translate(-1435.241 899.365)"/><path class="n" d="M1467.471-894.407c-.469.911-1.614,2.244-2.5,1.85-.851-.377-.914-2.174-.668-3.262.087-.381.358-1.575,1.24-1.918a1.75,1.75,0,0,1,1.264.067,1.75,1.75,0,0,1,.97.763,2.871,2.871,0,0,1-.3,2.5" transform="translate(-1439.178 902.517)"/><path class="n" d="M1471.911-891.718c-.525.875-1.1,2.607-.382,3.317.676.677,2.155-.05,2.926-.779a2.68,2.68,0,0,0,1-2.082,2.222,2.222,0,0,0-.62-1.235,1.716,1.716,0,0,0-1.042-.629c-.986-.088-1.686,1.074-1.885,1.408" transform="translate(-1442.012 900.931)"/><path class="n" d="M1474.925-883.415c-.708.7-1.662,2.2-1.137,3.095.5.849,2.1.57,3.006.086a2.5,2.5,0,0,0,1.455-1.725,2.382,2.382,0,0,0-.31-1.369,1.855,1.855,0,0,0-.867-.907c-.93-.367-1.869.556-2.147.82" transform="translate(-1442.998 897.957)"/><path class="n" d="M1458.818-893.932c-.246,1.016-1.042,2.633-2,2.506-.906-.121-1.384-1.837-1.4-2.96a2.781,2.781,0,0,1,.747-2.207,1.792,1.792,0,0,1,1.249-.3,1.673,1.673,0,0,1,1.113.459,2.89,2.89,0,0,1,.286,2.5" transform="translate(-1435.646 902.205)"/><path class="n" d="M1422.078-850.236a4.352,4.352,0,0,0,.381-.821,6.468,6.468,0,0,0-2.37-7.193l-.008-.007-.008-.007a5.119,5.119,0,0,0-6.863.818,4.352,4.352,0,0,0-.493.744,4.069,4.069,0,0,0-.493,3.243c.437,1.387,1.606,2.115,3.371,3.213,1.662,1.274,2.767,2.115,4.079,1.933a3.358,3.358,0,0,0,2.4-1.924" transform="translate(-1418.149 889.486)"/><path class="n" d="M1425.124-865.141c-.469.911-1.614,2.245-2.5,1.85-.851-.376-.914-2.173-.668-3.261.087-.381.358-1.575,1.24-1.918a1.784,1.784,0,0,1,1.272.067,1.8,1.8,0,0,1,.97.763,2.891,2.891,0,0,1-.31,2.5" transform="translate(-1422.087 892.638)"/><path class="n" d="M1429.564-862.451c-.525.875-1.1,2.607-.382,3.317.676.677,2.155-.05,2.926-.779a2.68,2.68,0,0,0,1-2.082,2.172,2.172,0,0,0-.62-1.235,1.714,1.714,0,0,0-1.042-.629c-.986-.088-1.678,1.075-1.885,1.408" transform="translate(-1424.921 891.052)"/><path class="n" d="M1432.578-854.148c-.708.7-1.662,2.2-1.137,3.094.5.849,2.1.571,3.006.086a2.5,2.5,0,0,0,1.455-1.725,2.386,2.386,0,0,0-.31-1.37,1.858,1.858,0,0,0-.867-.906c-.93-.367-1.869.556-2.147.821" transform="translate(-1425.906 888.079)"/><path class="n" d="M1422.755-891.372c-.922-.26-2.385-1.124-2.282-2.18.1-1.008,1.63-1.567,2.64-1.6a2.2,2.2,0,0,1,2,.8,2.286,2.286,0,0,1,.286,1.376,2.06,2.06,0,0,1-.4,1.243c-.676.8-1.893.451-2.242.352" transform="translate(-1421.539 901.613)"/><path class="n" d="M1421.345-886.528c-.9-.325-2.552-.466-2.982.487-.4.91.628,2.3,1.471,2.92a2.177,2.177,0,0,0,2.076.506,2.1,2.1,0,0,0,.906-.993,2.193,2.193,0,0,0,.262-1.288c-.191-1.077-1.392-1.508-1.734-1.632" transform="translate(-1420.654 898.785)"/><path class="n" d="M1419.888-899.66c-.946.011-2.561-.4-2.711-1.453-.135-1,1.217-1.982,2.187-2.3a2.14,2.14,0,0,1,2.115.207,2.212,2.212,0,0,1,.6,1.247,2.177,2.177,0,0,1-.1,1.316c-.469.964-1.726.978-2.091.983" transform="translate(-1420.207 904.466)"/></g></g><path class="o" d="M1491.444-907.948c0,3.252-15.49,5.889-34.59,5.889s-34.591-2.637-34.591-5.889,15.482-5.889,34.591-5.889,34.59,2.637,34.59,5.889" transform="translate(-36.956 2439.161)"/><path class="p" d="M1490.031-907.164c0,2.4-13.534,4.351-30.217,4.351s-30.217-1.948-30.217-4.351,13.526-4.35,30.217-4.35,30.217,1.948,30.217,4.35" transform="translate(-39.915 2438.377)"/><path class="q" d="M1500.255-906.74c0,2.287-10.147,4.141-22.663,4.141s-22.663-1.854-22.663-4.141,10.146-4.142,22.663-4.142,22.663,1.854,22.663,4.142" transform="translate(-50.14 2438.164)"/><path class="r" d="M1493.144-907.4s17.081.016,12.333,3.067-14.735,1.649-14.735,1.649l2.4-4.716" transform="translate(-64.595 2436.989)"/><path class="o" d="M1492.731-908.374s17.08.015,12.333,3.066-14.735,1.649-14.735,1.649l2.4-4.715" transform="translate(-64.428 2437.317)"/><path class="q" d="M1499.562-905.672c0,1-1.264,1.809-2.823,1.809s-2.823-.81-2.823-1.809,1.265-1.81,2.823-1.81,2.823.81,2.823,1.81" transform="translate(-65.876 2437.016)"/><g transform="translate(1386.763 1535.564)"><g class="x" transform="translate(0)"><path class="s" d="M1424.7-871.468h48.124v-26.913H1424.7Z" transform="translate(-1424.703 898.381)"/></g></g><path class="t" d="M1456.463-886.81a5.05,5.05,0,0,1,3.785-1.678,5.248,5.248,0,0,1,3,.958l.008.007.008.007c.111.077.223.157.326.24-2.2.228-4.207.358-6,.428q-.561.021-1.121.039" transform="translate(-50.759 2430.605)"/><path class="t" d="M1465.306-891.084a.835.835,0,0,1-.342-.071c-.676-.3-.859-1.5-.779-2.521,1.185.077,2.354.141,3.515.2a4.469,4.469,0,0,1-.231.475c-.413.8-1.344,1.921-2.163,1.921" transform="translate(-53.869 2432.356)"/><path class="t" d="M1471.229-889.034a4.527,4.527,0,0,1,.684-2.683c.191-.322.851-1.412,1.781-1.412a1.008,1.008,0,0,1,.1,0,1.715,1.715,0,0,1,1.042.629,2.223,2.223,0,0,1,.62,1.235,2.331,2.331,0,0,1-.66,1.728c-1.24.2-2.433.361-3.57.5" transform="translate(-56.706 2432.172)"/><path class="t" d="M1456.926-890.541a.917.917,0,0,1-.1-.007c-.906-.121-1.384-1.837-1.4-2.96a5.274,5.274,0,0,1,.04-.795c1.185.112,2.346.21,3.507.3a5.519,5.519,0,0,1-.151.951c-.239.978-.986,2.513-1.893,2.513" transform="translate(-50.339 2432.568)"/><path class="t" d="M1425.319-856.85c-.008-.345-.008-.691-.016-1.036.04.024.072.048.111.072l.008.007.008.007c-.04.324-.08.641-.112.95" transform="translate(-38.182 2420.276)"/><path class="t" d="M1425.207-863.6c-.016-1.654-.04-3.307-.063-4.961a2.191,2.191,0,0,1,.66.156,1.831,1.831,0,0,1,.915.68,34.286,34.286,0,0,0-.9,3.529,3.533,3.533,0,0,1-.613.6" transform="translate(-38.118 2423.877)"/><path class="t" d="M1425.48-891.212a3.236,3.236,0,0,1-.676-.078l-.048-3.854.087,0c.048,0,.111,0,.183,0a2.065,2.065,0,0,1,1.813.808,2.286,2.286,0,0,1,.286,1.376,2.061,2.061,0,0,1-.4,1.243,1.578,1.578,0,0,1-1.249.512" transform="translate(-37.962 2432.854)"/><path class="t" d="M1424.938-882.506l-.048-3.253a1.889,1.889,0,0,1,.859,1.206,2.194,2.194,0,0,1-.262,1.288,2.461,2.461,0,0,1-.549.76" transform="translate(-38.016 2429.684)"/><path class="u" d="M1509.3-858.872c.04-.093.079-.188.111-.285a74.191,74.191,0,0,0,8.4-2.206,3.946,3.946,0,0,0,.294.855,61.458,61.458,0,0,1-8.8,1.636m12.119-2.579c-.016-.071-.024-.138-.04-.2a4.905,4.905,0,0,0-.326-1.081,5.273,5.273,0,0,0,1.455-1.1,4.969,4.969,0,0,0,.835,1.752c-.533.185-1.185.4-1.924.633m1.7-5.149c.453-2.893,1.344-6.88,1.7-8.466.056-.033.1-.068.159-.1v8.392a1.445,1.445,0,0,0-.652-.141,2.7,2.7,0,0,0-.4.035,2.058,2.058,0,0,0-.811.284" transform="translate(-72.086 2426.11)"/><path class="t" d="M1535.33-875.366c.1-.437.159-.692.159-.692v.587c-.056.036-.1.072-.159.1" transform="translate(-82.59 2426.409)"/><path class="t" d="M1505.4-850.523s.97-.17,2.441-.475c-.032.1-.072.193-.111.285-.771.081-1.543.146-2.33.19" transform="translate(-70.509 2417.951)"/><path class="t" d="M1532.285-857.881a4.966,4.966,0,0,1-.835-1.752,1.468,1.468,0,0,0,.358-.776c.04-.545.135-1.229.255-1.988a2.055,2.055,0,0,1,.811-.284,2.68,2.68,0,0,1,.4-.035,1.444,1.444,0,0,1,.652.141v4.095s-.6.239-1.638.6" transform="translate(-81.024 2421.906)"/><path class="t" d="M1523.864-854.171a3.919,3.919,0,0,1-.294-.855,20.62,20.62,0,0,0,3.245-1.371,4.924,4.924,0,0,1,.326,1.081c.016.064.024.131.04.2-.962.3-2.076.623-3.316.943" transform="translate(-77.844 2419.773)"/><path class="y" d="M1174.443-887.728h60.251l25.6-10.567v-50.349A547.679,547.679,0,0,0,1249-1059.373h-85.848a547.733,547.733,0,0,1,11.289,110.73v60.915" transform="translate(67.624 2488.286)"/><path class="z" d="M1225.011-887.728h-85.848v-60.915a547.662,547.662,0,0,1,11.289-110.73H1236.3a547.733,547.733,0,0,0-11.289,110.73v60.915" transform="translate(77.307 2488.286)"/><path class="aa" d="M1243.94-1065.852v-12.715h-85.848v12.715h85.848" transform="translate(69.667 2494.764)"/><path class="ab" d="M1302.038-1078.567l3.179,12.715h-3.179Z" transform="translate(11.569 2494.764)"/><path class="ac" d="M1291.131-1037.388s12.289,35.964,16.664,74.143l.444,72.371-25.6,10.567s-4.282-92.107,8.489-157.081" transform="translate(19.676 2480.865)"/><path class="ad" d="M1161.112-1037.388h68.049s-70.617,19.214-77.887,78.13c0,0-1.944-47.061,9.838-78.13" transform="translate(72.467 2480.865)"/><path class="ad" d="M1232.64-880.482a78.972,78.972,0,0,1-19.714,26.294,69.187,69.187,0,0,1-43.878,16.751c20.42.026,41.834.05,62.253.077-.241-4.233-.383-8.654-.4-13.248a245.55,245.55,0,0,1,1.736-29.874" transform="translate(65.245 2427.903)"/><path class="n" d="M1213.178-888.905a16.272,16.272,0,0,0-.208-2.919c-1.1-7.071-7.752-14.944-17.218-14.944h-.074c-9.466,0-16.114,7.874-17.218,14.944a16.2,16.2,0,0,0-.208,2.919c-.055,2.791.479,6.869,3.562,9.637,3.257,2.924,7.5,2.715,13.9,2.388,6.4.327,10.644.536,13.9-2.388,3.083-2.768,3.617-6.846,3.563-9.637" transform="translate(61.532 2436.775)"/><path class="n" d="M1195.485-929c.1,3.332-.975,9.05-3.96,9.638-2.846.561-5.734-4.146-6.7-7.537-.34-1.187-1.4-4.907.444-7.46a6,6,0,0,1,3.516-2.178,5.085,5.085,0,0,1,3.758.25c2.782,1.594,2.909,6.018,2.945,7.287" transform="translate(59.127 2446.907)"/><path class="n" d="M1213.146-929.025c-.1,3.333.976,9.05,3.961,9.638,2.846.561,5.734-4.146,6.7-7.537.339-1.186,1.4-4.906-.445-7.459a6,6,0,0,0-3.516-2.179,5.094,5.094,0,0,0-3.758.25c-2.781,1.594-2.91,6.019-2.946,7.287" transform="translate(47.449 2446.916)"/><path class="n" d="M1235.355-912.313c-.865,3.192-1.158,9.024,1.59,10.447,2.619,1.356,6.5-2.365,8.226-5.363.6-1.049,2.5-4.339,1.3-7.335a6.472,6.472,0,0,0-2.892-3.112,5.17,5.17,0,0,0-3.689-.835c-3.057.744-4.207,4.982-4.537,6.2" transform="translate(38.727 2440.771)"/><path class="n" d="M1172.626-913.2c.866,3.191,1.158,9.024-1.59,10.447-2.619,1.357-6.5-2.365-8.226-5.362-.6-1.049-2.5-4.34-1.3-7.335a6.479,6.479,0,0,1,2.892-3.113,5.168,5.168,0,0,1,3.69-.834c3.057.743,4.207,4.982,4.536,6.2" transform="translate(68.445 2441.071)"/><path class="ae" d="M1121.625-781.494c0,7.1-31.4,12.853-70.134,12.853s-70.134-5.755-70.134-12.853,31.4-12.853,70.134-12.853,70.134,5.755,70.134,12.853" transform="translate(140.999 2398.829)"/><path class="af" d="M1119.906-785.685c0,7.1-29.949,12.854-66.894,12.854s-66.895-5.755-66.895-12.854,29.95-12.853,66.895-12.853,66.894,5.755,66.894,12.853" transform="translate(139.078 2400.243)"/><path class="ag" d="M1118.716-808.082l-8.637-48.4H999.4l-8.026,48.436a1.866,1.866,0,0,0-.1.577c0,5.837,28.551,10.569,63.771,10.569s63.772-4.732,63.772-10.569a1.878,1.878,0,0,0-.11-.613" transform="translate(136.993 2419.802)"/><path class="ah" d="M1118.716-808.551l-8.636-48.4-10.536-.921c2.521,2.01-4.724,4.02-2.2,6.031l.25,1.732c2.722,18.9-84.415,45.653-106.212,41.594a1.837,1.837,0,0,0-.1.577c0,1.759,2.592,3.417,7.177,4.876,5.978,1.9,15.344,3.465,26.771,4.468,8.9.782,19.049,1.225,29.822,1.225,21,0,39.632-1.683,51.252-4.279,1.176-.263,4.345-.174,7.627-2.223a16.5,16.5,0,0,0,4.784-4.681" transform="translate(136.993 2420.271)"/><path class="ai" d="M1118.716-808.551l-8.636-48.4-10.536-.921q3.781,3.015,7.56,6.032l4.547,25.25c1.638,9.094-3.892,17.893-12.151,19.256-8.972,1.479-18.531,2.655-28.627,3.372a312.727,312.727,0,0,1-79.493-4.553,1.833,1.833,0,0,0-.1.577c0,1.759,2.592,3.417,7.177,4.876,5.978,1.9,15.344,3.465,26.771,4.468,18.37,1.614,13.859,1.213,29.822,1.225,14.31.011,24.5-.711,27.374-.926,16.376-1.221,35.365-2.763,36.311-9.092a3.573,3.573,0,0,0-.023-1.165" transform="translate(136.993 2420.271)"/><path class="aj" d="M1115.576-862.38c0,6.393-24.776,11.576-55.337,11.576s-55.338-5.183-55.338-11.576,24.775-11.575,55.338-11.575,55.337,5.183,55.337,11.575" transform="translate(131.496 2425.699)"/><path class="ak" d="M1114.233-859.844c0,5.7-22.916,10.32-51.183,10.32s-51.184-4.62-51.184-10.32,22.915-10.32,51.184-10.32,51.183,4.62,51.183,10.32" transform="translate(128.686 2424.42)"/><path class="al" d="M1001.655-815.775l5.31-28.787s13.743,5.96,36.858,7.139c0,0-30.061,4.316-42.168,21.648" transform="translate(132.807 2415.778)"/><path class="al" d="M1182.2-820.363l2.835,21.714s1.147,7.349-25.091,9.662c0,0,20.539-3.121,22.256-10.667s0-20.708,0-20.708" transform="translate(68.918 2407.61)"/><path class="ak" d="M1156.037-854.02c3.768-1.293,7.552-2.522,11.367-3.625a5.5,5.5,0,0,0-.153-.535,4.845,4.845,0,0,0-1.643-2.253,5.438,5.438,0,0,0-.221-2.889,4.311,4.311,0,0,0-5.785-2.736,5.118,5.118,0,0,0-2.528,6.216l-10.2,4.563q4.581.66,9.165,1.26" transform="translate(74.196 2423.156)"/><path class="am" d="M1074.575-870.71a4.069,4.069,0,0,0-3.235-4.614,3.8,3.8,0,0,0-4.125,3.41l-15.7-2.168a4.046,4.046,0,0,0-3.247-4.43,3.826,3.826,0,0,0-4.154,3.594,4.515,4.515,0,0,0,.379,2.391,4.343,4.343,0,0,0-.895,2.215,4.068,4.068,0,0,0,3.235,4.614,3.823,3.823,0,0,0,4.154-3.593l15.68,2.166a4.069,4.069,0,0,0,3.235,4.614,3.825,3.825,0,0,0,4.155-3.593,4.521,4.521,0,0,0-.38-2.392,4.332,4.332,0,0,0,.9-2.215" transform="translate(115.888 2427.248)"/><path class="ak" d="M1042.656-866.686a5.112,5.112,0,0,0-2.628-6.345,4.308,4.308,0,0,0-5.633,2.716l-17.716-7.274a5.091,5.091,0,0,0-2.688-6.133,4.334,4.334,0,0,0-5.711,2.92,5.42,5.42,0,0,0-.146,2.9,4.881,4.881,0,0,0-1.584,2.3,5.109,5.109,0,0,0,2.629,6.344,4.332,4.332,0,0,0,5.71-2.919l17.7,7.266a5.109,5.109,0,0,0,2.629,6.344,4.332,4.332,0,0,0,5.71-2.919,5.423,5.423,0,0,0,.146-2.9,4.889,4.889,0,0,0,1.585-2.3" transform="translate(130.943 2429.1)"/><path class="ak" d="M1122.453-878.712a4.061,4.061,0,0,0-5.154-3.02,4.668,4.668,0,0,0-2.765,5.528l-16.724,5.75a4.037,4.037,0,0,0-5.092-2.827,4.688,4.688,0,0,0-2.718,5.727,4.6,4.6,0,0,0,1.363,2.221,5.028,5.028,0,0,0,0,2.687,4.061,4.061,0,0,0,5.155,3.02,4.687,4.687,0,0,0,2.718-5.726l16.708-5.744a4.062,4.062,0,0,0,5.155,3.02,4.688,4.688,0,0,0,2.718-5.727,4.6,4.6,0,0,0-1.363-2.221,5.033,5.033,0,0,0-.005-2.688" transform="translate(97.225 2428.394)"/><path class="an" d="M1113.224-864.816a4.888,4.888,0,0,0-3.745-5.611,4.513,4.513,0,0,0-5.011,3.943l-18.681-3.081a4.861,4.861,0,0,0-3.763-5.389,4.54,4.54,0,0,0-5.051,4.159,5.4,5.4,0,0,0,.392,2.867,5.147,5.147,0,0,0-1.124,2.616,4.887,4.887,0,0,0,3.745,5.611,4.541,4.541,0,0,0,5.05-4.16l18.662,3.077a4.887,4.887,0,0,0,3.745,5.61,4.54,4.54,0,0,0,5.049-4.159,5.393,5.393,0,0,0-.392-2.867,5.16,5.16,0,0,0,1.125-2.616" transform="translate(102.723 2426.055)"/><path class="am" d="M1142.757-874.679a4.4,4.4,0,0,0-5.515-3.353,5.018,5.018,0,0,0-3.065,5.91l-18.127,5.889a4.37,4.37,0,0,0-5.45-3.145,5.04,5.04,0,0,0-3.018,6.126,4.978,4.978,0,0,0,1.435,2.422,5.436,5.436,0,0,0-.035,2.9,4.4,4.4,0,0,0,5.515,3.354,5.039,5.039,0,0,0,3.019-6.126l18.108-5.883a4.4,4.4,0,0,0,5.515,3.354,5.041,5.041,0,0,0,3.019-6.126,4.986,4.986,0,0,0-1.436-2.421,5.438,5.438,0,0,0,.035-2.9" transform="translate(90.126 2427.143)"/><g transform="translate(1140.839 1554.256)"><g class="ao"><path class="an" d="M1053.753-860.366a4.775,4.775,0,0,0-4.2-5.2,4.617,4.617,0,0,0-4.658,4.444l-18.859-1.13a4.747,4.747,0,0,0-4.2-4.976,4.648,4.648,0,0,0-4.679,4.665,5.343,5.343,0,0,0,.631,2.813,5.261,5.261,0,0,0-.9,2.722,4.775,4.775,0,0,0,4.2,5.2,4.646,4.646,0,0,0,4.679-4.665l18.839,1.13a4.776,4.776,0,0,0,4.2,5.2,4.648,4.648,0,0,0,4.679-4.665,5.352,5.352,0,0,0-.631-2.813,5.259,5.259,0,0,0,.9-2.722" transform="translate(-1014.178 869.174)"/><path class="am" d="M1039.9-861.865a4.2,4.2,0,0,0-6.116-1.62,5.254,5.254,0,0,0-1.555,6.6L1016.139-845.9a4.178,4.178,0,0,0-6-1.437,5.264,5.264,0,0,0-1.458,6.792,4.6,4.6,0,0,0,1.96,1.916,5.35,5.35,0,0,0,.655,2.807,4.2,4.2,0,0,0,6.115,1.62,5.263,5.263,0,0,0,1.458-6.793l16.072-10.977a4.2,4.2,0,0,0,6.116,1.62,5.264,5.264,0,0,0,1.458-6.793,4.608,4.608,0,0,0-1.96-1.915,5.337,5.337,0,0,0-.654-2.807" transform="translate(-1010.601 868.157)"/><path class="am" d="M1109.427-845.475a5.033,5.033,0,0,0-3.055-6.1,4.375,4.375,0,0,0-5.43,3.184l-18.162-5.755a5.011,5.011,0,0,0-3.1-5.887,4.4,4.4,0,0,0-5.495,3.393,5.449,5.449,0,0,0,.053,2.9,4.993,4.993,0,0,0-1.423,2.432,5.035,5.035,0,0,0,3.056,6.1,4.4,4.4,0,0,0,5.495-3.394l18.143,5.748a5.034,5.034,0,0,0,3.056,6.1,4.4,4.4,0,0,0,5.495-3.394,5.435,5.435,0,0,0-.053-2.9,5,5,0,0,0,1.422-2.432" transform="translate(-1036.684 866.81)"/><path class="an" d="M1172.407-841.8a5.268,5.268,0,0,0-1.414-6.8,4.176,4.176,0,0,0-6.012,1.389l-16.017-11.117a5.259,5.259,0,0,0-1.511-6.611,4.2,4.2,0,0,0-6.126,1.571,5.341,5.341,0,0,0-.672,2.8,4.586,4.586,0,0,0-1.972,1.9,5.268,5.268,0,0,0,1.414,6.8,4.2,4.2,0,0,0,6.126-1.571l16,11.1a5.267,5.267,0,0,0,1.415,6.8,4.2,4.2,0,0,0,6.126-1.571,5.336,5.336,0,0,0,.671-2.8,4.589,4.589,0,0,0,1.973-1.9" transform="translate(-1063.065 868.657)"/></g></g></g></svg>