<svg xmlns="http://www.w3.org/2000/svg" width="353.138" height="291.145" viewBox="0 0 353.138 291.145"><defs><style>.a{fill:#d9dbd8;}.b{fill:#ffa63b;}.c{fill:#ffbe57;}.d{fill:#845a6a;}.e{fill:#49383f;}.f{fill:#6b4c59;}.g{fill:#93697a;}.h{fill:#917383;}.i{fill:#a58e99;}.j{fill:#baa4b0;}.k{fill:#d63c1e;}.l{fill:#ed572f;}.m{fill:#9b2a1b;}.n{fill:#b72c1a;}.o{fill:#f7bd84;}.p{fill:#ffd6a9;}.q{fill:#eaa568;}.r{fill:#ff7639;}.s{fill:#ffa245;}.t{fill:#ef7048;}.u{fill:#fc896b;}.v{fill:#dd5631;}.w{fill:#7c4343;}.x{fill:#6d3333;}.y{fill:#5e2929;}.z{fill:#ffb882;}.aa{fill:#ff9566;}.ab{fill:#5b2d2d;}.ac{fill:#ffca55;}.ad{fill:#ffa13b;}.ae{fill:#ffad40;}.af{fill:#f4404e;}.ag{fill:#f2e7d6;}.ah{fill:#431515;}.ai{fill:#b5682c;}.aj{fill:#ad2128;}.ak{fill:#b55f43;}.al{fill:#b55921;}.am{fill:#ea7b59;}.an{fill:#66423b;}.ao{fill:#491d2e;}.ap{fill:#ffebeb;}.aq{fill:#ef8f6f;}</style></defs><g transform="translate(-1145.313 -644.664)"><path class="a" d="M180.448,15.507C83.13,15.507,4.236,5.649,4.236-6.511S83.13-28.528,180.448-28.528,356.659-18.67,356.659-6.511s-78.89,22.017-176.211,22.017" transform="matrix(1, 0.017, -0.017, 1, 1141.349, 914.08)"/><g transform="translate(-10263 3311)"><path class="b" d="M865.186-788.575c-76.162,9.139-119.382,9.751-192.867,0l9.528,23.545H856.929l8.257-23.545" transform="translate(10791 -1635.468)"/><path class="c" d="M869.137-801.263l-21.735,29.9,13.7,14.3,13.964-44.2h-5.929" transform="translate(10791 -1635.468)"/><path class="d" d="M824.622-865.541s-2.692,10.721-2.917,15.163c3.316,1.745,10.432.087,10.432.087-.987-5.909-5.081-13.3-7.515-15.249" transform="translate(10791 -1635.468)"/><path class="e" d="M825.883-861.387s-1.819,7.247-1.971,10.248c2.239,1.18,7.051.059,7.051.059-.667-3.993-3.436-8.989-5.08-10.307" transform="translate(10791 -1635.468)"/><path class="d" d="M808.1-837.335c-3.084-3.76-5.781-11.567-5.872-15.275,0,0,8.811,3.308,11.911,5.629,3.02,2.261-6.039,9.645-6.039,9.645" transform="translate(10791 -1635.468)"/><path class="e" d="M808.774-839.113a21.788,21.788,0,0,1-3.925-10.212s5.889,2.212,7.961,3.764c2.019,1.512-4.036,6.448-4.036,6.448" transform="translate(10791 -1635.468)"/><path class="d" d="M799.682-768.959c-30.549,1.912-15.367-24.743-10.591-34.66,9.58-19.887,11.529-45.527,6.435-57.943s-13.492-3.936-7.441.627,5.816,16.423,6.413,31.164-13.409,36.315-14.935,45.557,1.464,20.072,20.261,19.347l-.143-4.092" transform="translate(10791 -1635.468)"/><path class="d" d="M837.566-786.909s-.671-50.025-2.717-52.268-24.581-3.067-26.036-1.787.957,26.2.957,26.2-13.429,29.915-14.879,56.525l45.783-3.569c3.76-15.233-3.108-25.1-3.108-25.1" transform="translate(10791 -1635.468)"/><path class="f" d="M837.325-767.159c3.767-1.289,14.119-4.759,11.563,5.877L836.2-762.19l1.12-4.969" transform="translate(10791 -1635.468)"/><path class="f" d="M831.487-817.1l-1.371,23.72,1.168,29.112-10.079-.755L821-792l1.405-22.552,6.049-4.985,3.032,2.447" transform="translate(10791 -1635.468)"/><path class="f" d="M813.918-796.229l-.251,14.085,2.019,17.336-8.257-.632L806.273-781.5l.324-13.389,4.757-2.855,2.564,1.511" transform="translate(10791 -1635.468)"/><path class="f" d="M811.415-773.4c3.4-25.265,13.041-44.82,21.525-43.677a6.6,6.6,0,0,1,3.991,2.341c-.2-9.211-.735-22.964-2.083-24.441-2.048-2.244-24.581-3.067-26.036-1.787s.957,26.2.957,26.2-13.429,29.915-14.879,56.525l15.391-1.7a132.6,132.6,0,0,1,1.133-13.456" transform="translate(10791 -1635.468)"/><path class="d" d="M802.865-796.8c-4.719,4.925-6.492,14.651-9.041,30.991l12.725-.717c.148-14-1.719-32.325-3.684-30.273" transform="translate(10791 -1635.468)"/><path class="d" d="M800.945-769.753c3.725-.972,13.961-3.585,11.665,5.116l-12.663-1.048,1-4.068" transform="translate(10791 -1635.468)"/><path class="d" d="M818.061-768.373c2.5-1.137,9.367-4.2,7.456,4.548l-8.3-.46.845-4.088" transform="translate(10791 -1635.468)"/><path class="d" d="M814.057-848.725c-5.3,6.076-12.251,19.232-11.745,20.776s17.363,8.439,32.408,6.695c2.128-3.5,5.524-25.031,4.515-28.117s-21.977-3.021-25.177.647" transform="translate(10791 -1635.468)"/><path class="g" d="M808.583-832.514c1.608-8.8,1.684-11.407,5.053-12.479s13.129,5.184,13.129,5.184l3.864-2.888s-12.8-4.037-8.745-6.181,16.092-.389,16.092-.389l-5.509,8.944-23.884,7.809" transform="translate(10791 -1635.468)"/><path class="f" d="M804.755-827.922c4.439,2.967,18.625,8.253,30.593,6.867,1.881-3.093,4.1-21.156,4.047-27.231-1.972,3.3-8.133,4.521-10.909,7.5-3.743,4.023-19.025,9.264-23.731,12.86" transform="translate(10791 -1635.468)"/><path class="h" d="M833.517-840.393c.753-4.109-7.809,2.679-7.272,4.516s6.583-.765,7.272-4.516" transform="translate(10791 -1635.468)"/><path class="f" d="M837.9-763.734c0-.345-2.3-24.113-2.3-24.113l-5.857-25.721,2.068-5.512,5.053,1.837,1.605,29.855s6.432,14.353,4.709,23.195c-1.264,1.264-5.283.46-5.283.46" transform="translate(10791 -1635.468)"/><path class="i" d="M828.793-840.782c-.383,6.736-3.827,15.387-17.836,11.405s17.836-11.405,17.836-11.405" transform="translate(10791 -1635.468)"/><path class="j" d="M827.8-840.706c-.279,4.9-5.851,12.2-16.048,9.3s16.048-9.3,16.048-9.3" transform="translate(10791 -1635.468)"/><path class="i" d="M839.4-848.286c-.7-5.244-10.756,7.809-10.756,7.809s12.86,7.881,10.756-7.809" transform="translate(10791 -1635.468)"/><path class="j" d="M838.591-848.438c-.519-3.864-8.967,6.8-8.967,6.8s4.229,1.131,6.593-.448c1.228-.82,2.9-2.4,2.373-6.355" transform="translate(10791 -1635.468)"/><path class="e" d="M829.678-838.734c-1.541-.256-3.56-1.168-3.592-1.852s3.751-3.428,4.977-2.415c.6.5-1.385,4.267-1.385,4.267" transform="translate(10791 -1635.468)"/><path class="e" d="M820.6-841.854c-3.751-.229-6.2,3.063-6.2,3.063s.612-4.517,6.2-3.063" transform="translate(10791 -1635.468)"/><path class="e" d="M831.593-848.043c-2.939-.217-5.249,2.909-5.249,2.909s1-4.291,5.249-2.909" transform="translate(10791 -1635.468)"/><path class="k" d="M738.481-823.386c.364,8.8-9.239,18.205-2.935,23.263s-.253,9.877-7.273,6.035-5.127-10.411-2.667-14.476,7.023-8.959,6.825-10.784,5.927-7.048,6.049-4.037" transform="translate(10791 -1635.468)"/><path class="l" d="M768.731-834.035c-1.74.124-7.495,6.813-11.141,12.425l9.227,5.032c.64-3.375,3.653-17.581,1.915-17.457" transform="translate(10791 -1635.468)"/><path class="m" d="M766.4-831.029c-.932.123-4.368,4.821-6.617,8.737l4.629,3.245c.528-2.323,2.92-12.1,1.988-11.983" transform="translate(10791 -1635.468)"/><path class="k" d="M765.593-827.522c-.645.129-2.825,3.576-4.216,6.421l3.391,2.051c.259-1.649,1.473-8.6.825-8.472" transform="translate(10791 -1635.468)"/><path class="k" d="M697.466-781.8c-9.564-9.3,3.616-27.2,7.112-31.163s-.885-9.144-4.815-10.085c-3.911-.937,4.1-16.027,10.36-22.06,8.34-8.04,12.205-2.565,6.849,3.5-8.053,9.117-14.779,15.176-12.432,17.325s18.6,7.731,16.183,23.831c-1.815,12.08-13.016,28.613-23.257,18.655" transform="translate(10791 -1635.468)"/><path class="l" d="M710.124-845.111c-3.768,3.633-8.171,10.549-10.224,15.683,3.411.9,10.647-4.791,16.912-13.519.952-1.324,1.821-2.644,2.619-3.947-.095-2.911-3.68-3.643-9.307,1.783" transform="translate(10791 -1635.468)"/><path class="l" d="M695.581-798.627c-5.992,9.745-8.4,22.1,4.335,29.247s46.463,4.063,59.061-20.96l-9.347-16.411s-9.483,11.373-19.913,8.611-24.247-16.572-34.136-.487" transform="translate(10791 -1635.468)"/><path class="k" d="M700.834-788.518a18.513,18.513,0,0,1-7.155-6.661c-4.44,9.065-5.037,19.471,6.236,25.8,12.732,7.149,46.463,4.063,59.061-20.96l-5.591-9.815c-13.249,27.481-41.621,17.775-52.552,11.637" transform="translate(10791 -1635.468)"/><path class="k" d="M704.2-771.158c-13.885-.163-29.057-21.692-29.667-46.552s-12.6-35.583-27.837-35.1-10.769,19.255,1.423,11.212S670.4-832.821,671.35-814.7c.768,14.668,9.889,40.62,33.053,47.2l-.2-3.655" transform="translate(10791 -1635.468)"/><path class="l" d="M646.7-852.806c-15.239.488-8.283,14.7,4.577,7.775,7.464-4.019,17.1,5.383,20.611,18.545.036-7.619-1.553-13.293-6.341-18.884-4.924-5.3-11.505-7.671-18.847-7.436" transform="translate(10791 -1635.468)"/><path class="n" d="M740.65-772.078a41.859,41.859,0,0,0,18.327-18.263l-1.832-3.216L744.95-802.4a25.942,25.942,0,0,1-5.716,3.367c-2.436,6.5-4.177,21.019,1.416,26.952" transform="translate(10791 -1635.468)"/><path class="k" d="M769.17-814.266c-.915-3.047-4.264-12.013-9.937-9.745-6.1,2.437-13.532-2.563-16.275-.125-2.137,1.9-4.775,26.444-2.235,29.856,6,5.384,18.044,10.807,24.688,10.115,2.337-.244,4.672-27.053,3.759-30.1" transform="translate(10791 -1635.468)"/><path class="l" d="M759.409-823.925c-5.813,2.324-12.9-2.444-15.52-.12-1.292,1.148-2.773,10.967-3.071,18.835,5.343,4.7,12.8,8.971,17.751,9.251,1.849.105,6.705-17.252,8.027-24.843-1.62-2.605-4.183-4.324-7.187-3.123" transform="translate(10791 -1635.468)"/><path class="k" d="M744.871-817.271a52.109,52.109,0,0,1-2.032-6.723c-2.113,2.664-5.339,26.864-2.845,30.213,6,5.385,18.773,10.307,25.417,9.615.977-.1,1.953-4.857,2.693-10.573-8.244.364-18.081-8.887-23.233-22.532" transform="translate(10791 -1635.468)"/><path class="k" d="M766.838-819.225l.083,19.3s13.32-14.64,13.219-22.553c-.024-1.949-13.3,3.252-13.3,3.252" transform="translate(10791 -1635.468)"/><path class="l" d="M765.8-820.315l-4.375,17.776s16.017-10.484,18.759-20.1c.535-1.875-14.384,2.323-14.384,2.323" transform="translate(10791 -1635.468)"/><path class="m" d="M767.3-818.646c1.225,4.832-.168,7.9-2.779,11.292,0,0,10.173-6.661,11.916-12.769.34-1.191-9.137,1.477-9.137,1.477" transform="translate(10791 -1635.468)"/><path class="k" d="M768.013-817.033A12.362,12.362,0,0,1,765.5-808.5s7.248-4.747,8.491-9.1c.243-.848-5.981.568-5.981.568" transform="translate(10791 -1635.468)"/><path class="o" d="M748.845-813.631c-6.575,1.883-8.995-.324-9.411-2.347s.619-8.419,3.705-9.389c3.82-1.2,8.705,10.877,5.705,11.736" transform="translate(10791 -1635.468)"/><path class="p" d="M745.784-822.311c-.115.747-4.475,2.071-4.756.916a3.6,3.6,0,0,1,2.395-3.835c2.035-.544,2.611,1.3,2.361,2.919" transform="translate(10791 -1635.468)"/><path class="q" d="M743.554-810.238c-1.531-2.105-2.564-4.057-1.76-6.048a1.3,1.3,0,0,1,2.257-.612l-.5,6.66" transform="translate(10791 -1635.468)"/><path class="o" d="M752.852-804.507c-6.423,2.888-9.023-.5-9.6-3.6s-.063-12.92,2.945-14.411c3.721-1.843,9.587,16.695,6.657,18.013" transform="translate(10791 -1635.468)"/><path class="p" d="M751.882-810.945c-3.751,1.932-5.412-.012-5.857-1.852s-.447-7.727,1.307-8.713c2.168-1.221,6.263,9.685,4.551,10.565" transform="translate(10791 -1635.468)"/><path class="d" d="M746.212-827.062c-1.32-.732-2.417,1.915-1.692,5.361l5.071,1.611c-.137-2.955-2.057-6.241-3.379-6.972" transform="translate(10791 -1635.468)"/><path class="k" d="M696.664-774.093c-11.763-5.159-5.012-27.621-2.98-32.821s-3.639-8.452-7.587-7.8c-3.927.649-1.12-17.056,2.845-25.348,5.284-11.049,10.567-7.311,7.451.651-4.685,11.972-9.076,20.472-6.232,21.609s19.691.064,22.4,16.523c2.031,12.349-3.3,32.711-15.9,27.185" transform="translate(10791 -1635.468)"/><path class="l" d="M711.48-801.894c-2.708-16.459-19.451-15.035-22.295-16.172s1.725-9.011,6.409-20.983c3.116-7.961-1.529-11.4-6.652-1.012-3.305,6.7-5.084,19.4-3.777,23.66,7.833-2.045,25.72,1.7,26.315,26.831a44.119,44.119,0,0,0,0-12.324" transform="translate(10791 -1635.468)"/><path class="r" d="M715.217-843.538a21.449,21.449,0,0,0,2.676-2.927c1.12-2.256-.811-3.547-5-.241a32.57,32.57,0,0,0-6.095,6.919c1.5.849,5.1-.713,8.42-3.751" transform="translate(10791 -1635.468)"/><path class="r" d="M694.249-838.526a27.887,27.887,0,0,0,1.433-4.917c.011-3.253-2.957-3.652-5.931,2.565a42.071,42.071,0,0,0-3.12,11.492c2.223.132,5.5-3.727,7.617-9.14" transform="translate(10791 -1635.468)"/><path class="k" d="M727.9-820.766c-5.343-2.552-2.392-10.337.935-9.949s9.529,4.839,9.643,7.185-2.891,6.437-10.577,2.764" transform="translate(10791 -1635.468)"/><path class="l" d="M728.745-823.8c-4.283-2.129-2.381-7.405.225-6.923s9.159,4.931,9.365,6.584-3.429,3.4-9.591.339" transform="translate(10791 -1635.468)"/><path class="n" d="M727.1-788.422c-5.165,2.74-6.173,14.951-4.771,21.981a52.917,52.917,0,0,0,21.541-7.487c-.1-.556-.208-1.06-.312-1.481-.88-3.549-10.353-.267-16.459-13.013" transform="translate(10791 -1635.468)"/><path class="k" d="M733.713-801.349c2.375,7.835-4.977,18.888,2.236,21.325s2.031,9.019-5.589,7.921-7.315-7.677-5.892-12.187,4.673-10.48,4.064-12.064,4.369-7.677,5.181-5" transform="translate(10791 -1635.468)"/><path class="k" d="M722.578-800.089c-4.884-3.156-.425-8.345,2.844-7.287s8.655,5.844,8.32,7.639c-.236,1.265-5.007,7.055-5.211,3.384-.116-2.067-3.879-2.395-5.953-3.736" transform="translate(10791 -1635.468)"/><path class="l" d="M724.028-801.639c-3.749-2.424-.325-6.411,2.187-5.6s6.647,4.488,6.389,5.868-3.18,3.216-8.576-.272" transform="translate(10791 -1635.468)"/><path class="n" d="M757.641-818.362a1.453,1.453,0,0,1,1.9.931c.128,1.025-1.152,2.564-2.12,3.548h0c1.109-.679,2.716-2.551,2.643-3.733-.047-.752-1.039-1.381-2.419-.747" transform="translate(10791 -1635.468)"/><path class="n" d="M755.562-820.73c.631-.3,1.027-.888.944-1.143-.14-.424-1.233-.432-2.021-.375h0c.809-.228,2.169-.239,2.375.219.129.291-.335.94-1.3,1.3" transform="translate(10791 -1635.468)"/><path class="c" d="M670.273-801.263l21.736,29.9-13.7,14.3-13.961-44.2h5.928" transform="translate(10791 -1635.468)"/><path class="c" d="M865.609-774.941c-74.474,6.908-117.46,6.957-191.666,0l4.507,17.873H861.1l4.507-17.873" transform="translate(10791 -1635.468)"/><path class="s" d="M772.758-761.017c-37.911,0-72.2-2.4-96.889-6.283l2.58,10.232H861.1l2.351-9.317c-24.084,3.337-55.858,5.368-90.694,5.368" transform="translate(10791 -1635.468)"/><path class="t" d="M849.146-768.534c0,6.333,5.5,11.467,12.28,11.467S873.7-762.2,873.7-768.534,868.207-780,861.426-780s-12.28,5.135-12.28,11.468" transform="translate(10791 -1635.468)"/><path class="u" d="M858.126-778.249c-.935,1.4,1.429,4.62,5.283,7.195s7.731,3.528,8.667,2.129-.551-5.9-4.4-8.473-8.612-2.249-9.547-.851" transform="translate(10791 -1635.468)"/><path class="v" d="M858.8-770.007a22.156,22.156,0,0,1-5.905-6.765,11.079,11.079,0,0,0-3.749,8.239c0,6.333,5.5,11.467,12.28,11.467a12.143,12.143,0,0,0,11.9-8.681c-4.311.825-9.788-.617-14.524-4.259" transform="translate(10791 -1635.468)"/></g><g transform="translate(-10529 3311)"><path class="w" d="M1127.207-973.984c-12.449-12.383-25.481-29.207-12.9-39.059,0,0-2.224-9.076,7.607-11.117,0,0-.179-10.671,13.457-5.1s17.645,15.792,17.645,15.792,12.7-5.707,26.379,18.275c1.421,2.495.443,4.131.443,4.131s9.609,7.241,3.481,15.677-19.476,18.409-29.915,16.619c0,0-10.161,6.6-18.457.628s-7.741-15.849-7.741-15.849" transform="translate(10791 -1635.468)"/><path class="x" d="M1179.838-991.059s.979-1.636-.443-4.131c-13.68-23.981-26.379-18.275-26.379-18.275s-3.507-8.928-15.108-14.647c3.329,5.356-13.889,9.063-13.889,16.749,0,15.924,10.575,32.292-.46,33.623,1.205,1.287,2.428,2.543,3.646,3.755,0,0-.556,9.875,7.741,15.849s18.457-.628,18.457-.628c10.439,1.791,23.787-8.183,29.915-16.619s-3.481-15.677-3.481-15.677" transform="translate(10791 -1635.468)"/><path class="y" d="M1178.792-970.182c-10.985-14.457-28.783-17.989-37.463-26.585-7.54-7.467-10.561,19.093-1.235,34.769a59.548,59.548,0,0,0,4.319,6.291,22.226,22.226,0,0,0,8.992-3.056c8.325,1.428,18.5-4.628,25.387-11.419" transform="translate(10791 -1635.468)"/><path class="z" d="M1169.628-758.762h1.065c12.341-45.753,28.525-99.44,30.532-157.909l-22.291,8.247c-.989,50.709-1.835,92.852-9.307,149.662" transform="translate(10791 -1635.468)"/><path class="aa" d="M1185.573-814.743c7.789-31.668,14.415-65.888,15.652-101.928l-22.291,8.247c-.627,32.051-.937,56.969-3.156,88.041l9.795,5.64" transform="translate(10791 -1635.468)"/><path class="z" d="M1178.516-758.762h1.065c12.341-45.753,28.525-99.44,30.532-157.909l-22.291,8.247c-.989,50.709-1.835,92.852-9.307,149.662" transform="translate(10791 -1635.468)"/><path class="aa" d="M1194.026-812.981c7.979-32.16,14.827-66.981,16.087-103.69l-22.291,8.247c-.632,32.371-.979,58.032-3.255,89.465l9.459,5.979" transform="translate(10791 -1635.468)"/><path class="w" d="M1173.66-923.976c2.512,17.807-1.119,91.385-1.119,91.385l30.193,7.548s24.805-82.04,6.921-101.673c-6.639-7.289-21.688-7.459-27.853-11.568s-8.143,14.308-8.143,14.308" transform="translate(10791 -1635.468)"/><path class="ab" d="M1209.656-926.716c-6.639-7.289-21.688-7.459-27.853-11.568s-8.143,14.308-8.143,14.308a141.8,141.8,0,0,1,.836,15.549c1.579-5.491,3.465-9.095,5.809-9.775,29.351-8.515,22.2,51.853,18.344,82.149q-.628,4.94-1.49,9.615l5.576,1.395s24.805-82.04,6.921-101.673" transform="translate(10791 -1635.468)"/><path class="ac" d="M1152.426-951.374c10.2,4.413,20.853,19.787,21.157,32.42,0,0,15.6-2.091,22.6-14.572,0,0-21.993-8.564-36.607-42.811-6.083-14.256-7.153,24.963-7.153,24.963" transform="translate(10791 -1635.468)"/><path class="ad" d="M1190.144-926.351a25.593,25.593,0,0,0,6.043-7.175s-17.211-4.892-31.823-39.137c-6.083-14.259-11.937,21.289-11.937,21.289,4.769,2.064,12.048,10.285,15.912,15.743,5.156-2.605,16.38.895,21.805,9.28" transform="translate(10791 -1635.468)"/><path class="ac" d="M1143.409-972.835c-.4,4.625-1.273,38.192-.343,40.3.692,1.565,4.565,3.881,6.051,2.055s2.3-33.863,1.827-36.871c-.685-4.337-7.236-8.948-7.535-5.48" transform="translate(10791 -1635.468)"/><path class="ae" d="M1150.944-967.355c-.54-3.417-4.709-6.985-6.605-6.659a186.482,186.482,0,0,1,1.005,20.487,175.522,175.522,0,0,1-1.227,22.244c1.455,1.219,3.892,2.163,5,.8,1.484-1.827,2.3-33.863,1.827-36.871" transform="translate(10791 -1635.468)"/><path class="ac" d="M1143.6-972.683c-.064,9.451,3.821,33.273,5.48,33.789,1.469.459,17.6-5.111,18.365-6.48s-5.571-30.128-8.032-33.324c-.951-1.237-4.377-1.723-7.185-.9-4.445,1.295-8.615,4.925-8.628,6.919" transform="translate(10791 -1635.468)"/><path class="af" d="M1155.244-980a10.618,10.618,0,0,0-3.016.395,15.9,15.9,0,0,0-8.021,5.365l6.821,3.455,4.216-9.215" transform="translate(10791 -1635.468)"/><path class="ae" d="M1158.5-976.351a1.834,1.834,0,0,0-.376-.357c2.733,7.48,3.029,29.051,2.279,30.315-.659,1.107-7.024,4.695-12.12,6.044.3.859.568,1.385.8,1.456,1.469.459,17.6-5.111,18.365-6.48s-6.484-27.781-8.945-30.977" transform="translate(10791 -1635.468)"/><path class="z" d="M1142.953-1000.574l-4.681,10.844,7.661,14.057,4.757,3.235,2.965-7.465-10.7-20.671" transform="translate(10791 -1635.468)"/><path class="ac" d="M1157.549-977.982c.389,4.445,4.552,37.349,4.689,38.116s4.123,2.7,5.3.944-2.363-31.512-3.349-34.4c-1.425-4.168-6.928-7.991-6.636-4.657" transform="translate(10791 -1635.468)"/><path class="ae" d="M1157.025-968.567s-5.065,19.587-7.076,29.636a48.043,48.043,0,0,0,5.947-1.632c1.669-10.987,2.055-27.792,2.055-27.792l-.925-.212" transform="translate(10791 -1635.468)"/><path class="ae" d="M1158.142-969.21s3.593,18.041,5.808,25.707c1.909-.8,3.285-1.495,3.495-1.871.249-.452-.271-3.88-1.167-8.38-3.1-7.761-7.234-15.715-7.234-15.715l-.9.259" transform="translate(10791 -1635.468)"/><path class="ae" d="M1164.342-973.6a9.737,9.737,0,0,0-5.081-5.423,9.025,9.025,0,0,1,1.661,2.981c.989,2.892,5.628,33.679,4.455,35.433-.541.811-1.916.612-3.255.092.064.361.105.6.116.651.135.769,4.871,3.244,6.044,1.488s-2.953-32.331-3.94-35.223" transform="translate(10791 -1635.468)"/><path class="ag" d="M1162.692-757.067h8.767s.684-5.052-.84-5.163-7.927,5.163-7.927,5.163" transform="translate(10791 -1635.468)"/><path class="ag" d="M1175.776-757.067h6.189s-1.2-5.407-2.315-5.525-3.875,5.525-3.875,5.525" transform="translate(10791 -1635.468)"/><path class="af" d="M1150.436-931.99c.269-1.761.633-4.8-1.637-6.644l-3.6-.111c-5.883,2.92-1.92,10.165.317,11.052l1.6-1.844,1.295,1.749a12.958,12.958,0,0,0,2.027-4.2" transform="translate(10791 -1635.468)"/><path class="af" d="M1169.238-941.4c-.544-1.833-1.591-4.949-4.648-5.289l-3.305,1.993c-3.625,5.529,2.649,9.985,5.073,9.781l.7-2.445,2.06,1s.663-3.2.119-5.036" transform="translate(10791 -1635.468)"/><path class="ah" d="M1143.409-972.835v0m2.353-3.148-7.491-13.747,7.492,13.745a0,0,0,0,1,0,0m13.5-3.039h0s0,0,0,0" transform="translate(10791 -1635.468)"/><path class="ai" d="M1144.339-962.2a10.573,10.573,0,0,1-1.333-1.024c.137-4.62.291-8.291.4-9.609h0v-.013a1.228,1.228,0,0,1,.573-1.037,2.591,2.591,0,0,0-.383,1.2,95.525,95.525,0,0,0,.739,10.481" transform="translate(10791 -1635.468)"/><path class="ai" d="M1148.561-960.89a7.712,7.712,0,0,1-4.223-1.312,95.547,95.547,0,0,1-.739-10.481,2.588,2.588,0,0,1,.383-1.2l.007,0a7.827,7.827,0,0,1,1.287-1.625,8.651,8.651,0,0,0-1.069,1.279l6.821,3.455,4.216-9.215a7.215,7.215,0,0,1,3.636.831,1.807,1.807,0,0,0-.515-.084c-.56,0-.893.379-.816,1.268.105,1.2.487,4.489.991,8.659l-.4.113s.061.307.172.856q-.188.338-.381.661c.012-.429.017-.663.017-.663l-.925-.212s-.339,1.309-.875,3.425c-2,2.428-4.332,3.947-6.821,4.211a7.089,7.089,0,0,1-.768.041m-3.031-14.873h0l0,0,0,0m.153-.143.08-.076h0a0,0,0,0,0,0,0v0l-.081.075m7.971-3.993v0h0" transform="translate(10791 -1635.468)"/><path class="aj" d="M1151.028-970.782l-6.821-3.455a8.672,8.672,0,0,1,1.069-1.279c.081-.08.164-.161.249-.243l.005-.005,0,0,.149-.139.081-.075.168.308,4.757,3.235,2.964-7.461h0v0c.133-.017.265-.029.4-.041a11.023,11.023,0,0,1,1.123-.059h.068l-4.216,9.215" transform="translate(10791 -1635.468)"/><path class="ak" d="M1150.691-972.438l-4.757-3.235-.168-.308v0l-7.492-13.745,4.681-10.844,10.7,20.671v0l-2.964,7.461" transform="translate(10791 -1635.468)"/><path class="ai" d="M1158.54-969.323c-.5-4.169-.885-7.456-.991-8.659-.077-.889.256-1.268.816-1.268a1.8,1.8,0,0,1,.515.084l.033.023a3.216,3.216,0,0,1,.357.132l-.009-.011h0a9.024,9.024,0,0,1,1.66,2.98c.056.163.123.413.2.741a33.777,33.777,0,0,1-2.245,5.88l-.337.1" transform="translate(10791 -1635.468)"/><path class="al" d="M1156.151-965.142c.536-2.116.875-3.425.875-3.425l.925.212s-.005.233-.017.663a21,21,0,0,1-1.783,2.551" transform="translate(10791 -1635.468)"/><path class="al" d="M1158.314-968.354c-.111-.549-.172-.856-.172-.856l.4-.113.337-.1c-.181.365-.369.72-.563,1.067" transform="translate(10791 -1635.468)"/><path class="al" d="M1161.123-975.3c-.077-.328-.144-.579-.2-.741a9.023,9.023,0,0,0-1.66-2.98s0,0,0,0a8.968,8.968,0,0,1,2.411,1.56q-.25,1.106-.549,2.163" transform="translate(10791 -1635.468)"/><path class="z" d="M1147.835-932.739c-1.2,1.683-3.873,1.579-4.379-1.347-.5-2.9,7.863-35.228,7.863-35.228l.925.212s-.711,31.16-4.409,36.363" transform="translate(10791 -1635.468)"/><path class="aa" d="M1146.9-933.631a2.255,2.255,0,0,1-3.18.429c.933,2.224,3.632,2.863,4.7,1.363,3.7-5.2,3.827-37.263,3.827-37.263s-2.4,31.131-5.345,35.471" transform="translate(10791 -1635.468)"/><path class="z" d="M1166.38-940.076c-.312,2.091-2.725,2.985-4.44.608-1.7-2.355-6.989-28.925-6.989-28.925l.9-.259s11.5,22.117,10.528,28.576" transform="translate(10791 -1635.468)"/><path class="aa" d="M1155.852-968.652l-.695.2c3.331,6.812,10.593,22.437,9.855,27.717a2.318,2.318,0,0,1-2.467,1.925c1.785,1.551,4.429.812,4.709-1.053.968-6.459-11.4-28.788-11.4-28.788" transform="translate(10791 -1635.468)"/><path class="z" d="M1138.973-971.647c5.992-4.964,9.8-18.484,8.031-25.115-1.751-6.56-11.412-19.7-19.208-16.733-7.817,2.969-8.469,12.547-5.183,23.881,3.259,11.245,16.36,17.967,16.36,17.967" transform="translate(10791 -1635.468)"/><path class="x" d="M1125.689-1014.936c-3.613,5.691-1.9,7.245,7.789,9.872s5.887,10.507,12.5,11.595l.635-13.587s-14.311-18.3-20.923-7.88" transform="translate(10791 -1635.468)"/><path class="z" d="M1147.449-992.523c1.695-1.736,3.669-8.923.017-9.872-3.467-.9-3.551,2.935-3.141,5.753.375,2.584,1.721,5.556,3.124,4.119" transform="translate(10791 -1635.468)"/><path class="am" d="M1147.246-994.343c1.167-1.22,2.376-5.877-.033-6.505-2.332-.608-2.428,1.837-2.168,3.708.247,1.767,1.2,3.843,2.2,2.8" transform="translate(10791 -1635.468)"/><path class="z" d="M1146.879-993.836c.755-.787,1.475-3.68-.048-4.108-1.489-.42-1.565,1.089-1.4,2.277.156,1.144.791,2.519,1.451,1.831" transform="translate(10791 -1635.468)"/><path class="w" d="M1140.1-1017.652c2.331-5.467.776-9.863-3.469-9.819s-9.579,4.509-11.908,9.975-.776,9.863,3.472,9.819,9.576-4.509,11.905-9.975" transform="translate(10791 -1635.468)"/><path class="ab" d="M1194.823-827.022l.248-33.755s-2.043,18.585-3.768,32.875l3.52.88" transform="translate(10791 -1635.468)"/><path class="an" d="M1125.167-990.362c-.593-1.52-.371-3.023.5-3.357s2.064.636,2.66,2.161.372,3.024-.5,3.355-2.065-.633-2.664-2.159" transform="translate(10791 -1635.468)"/><path class="an" d="M1133.713-993.642c-.739-1.737-.6-3.475.324-3.9s2.255.649,2.992,2.385.595,3.481-.323,3.9-2.253-.651-2.993-2.384" transform="translate(10791 -1635.468)"/><path class="an" d="M1138.327-996.258s-3.863-1.168-6.252.357a2.358,2.358,0,0,1,2.139-2.056c2.067-.4,4.113,1.7,4.113,1.7" transform="translate(10791 -1635.468)"/><path class="an" d="M1123.531-991.223s1.939-2.835,4.523-3.051a2.362,2.362,0,0,0-2.741-.288c-1.668.809-1.781,3.339-1.781,3.339" transform="translate(10791 -1635.468)"/><path class="w" d="M1137.672-999.732l-.057-.411a8.123,8.123,0,0,0-6.424-2.171l.395,1.368a7.341,7.341,0,0,1,6.087,1.213" transform="translate(10791 -1635.468)"/><path class="w" d="M1121.873-994.419a6.84,6.84,0,0,1,4.044-4.564l-.6-1.279a7.281,7.281,0,0,0-3.825,5.461l.377.381" transform="translate(10791 -1635.468)"/><path class="am" d="M1130.933-986.855l.075.14a1.765,1.765,0,0,0,2.62.267,2.065,2.065,0,0,0,.631-1.653,2.127,2.127,0,0,1-.3,2.711,1.765,1.765,0,0,1-2.621-.264,2.149,2.149,0,0,1-.4-1.2" transform="translate(10791 -1635.468)"/><path class="ao" d="M1138.419-983.791l-5.919,2.459s2.032,2.924,4.416,1.851c2.284-1.028,1.5-4.309,1.5-4.309" transform="translate(10791 -1635.468)"/><path class="ap" d="M1138.071-983.494l-5.027,2.088s.252,1.563,3.132.429c3.033-1.193,1.895-2.517,1.895-2.517" transform="translate(10791 -1635.468)"/><path class="aq" d="M1136.063-977.916c-.185-.389.513-.216,1.145-.483s.961-.873,1.148-.483-.179.923-.812,1.189-1.3.167-1.481-.224" transform="translate(10791 -1635.468)"/><path class="z" d="M1149.909-962.44c.543-3.3-.66-7.784.125-9.576.611-1.4,4.295-1.707,4.712-.772s-3.181,9.545-3.181,9.545l-1.656.8" transform="translate(10791 -1635.468)"/><path class="z" d="M1153-966.57c1.332-1.645,4.32-3.564,4.815-4.052s-.072-1.115-1.713-.333-1.9,1.528-2.6.9c-.776-.7-1.145,4.283-.5,3.489" transform="translate(10791 -1635.468)"/><path class="z" d="M1153.126-972.043c.8-1.811,2.657-6.112,3.169-5.863s-1.979,6.732-1.979,6.732l-1.191-.869" transform="translate(10791 -1635.468)"/><path class="z" d="M1151.788-972.211c.365-1.857,1.193-6.265,1.72-6.112s-.435,6.741-.435,6.741l-1.285-.629" transform="translate(10791 -1635.468)"/><path class="z" d="M1149.814-970.788c0-1.9-.044-6.389.5-6.379s.879,6.652.879,6.652l-1.379-.273" transform="translate(10791 -1635.468)"/><path class="z" d="M1156.115-962.068c-.924-3.219-3.929-6.751-3.988-8.708-.045-1.523,3.149-3.381,3.927-2.715s1.213,9.988,1.213,9.988l-1.152,1.435" transform="translate(10791 -1635.468)"/><path class="z" d="M1157.136-967.123c.5-2.056,2.376-5.071,2.613-5.724s-.543-.976-1.691.433-1.057,2.193-1.964,1.923c-1-.3.8,4.361,1.041,3.368" transform="translate(10791 -1635.468)"/><path class="z" d="M1154.908-972.124c-.052-1.979-.216-6.661.352-6.655s1.1,6.929,1.1,6.929l-1.449-.275" transform="translate(10791 -1635.468)"/><path class="z" d="M1153.628-971.7c-.467-1.835-1.605-6.172-1.065-6.26s2.5,6.279,2.5,6.279l-1.431-.019" transform="translate(10791 -1635.468)"/><path class="z" d="M1152.453-969.572c-.815-1.713-2.776-5.753-2.28-5.977s3.643,5.635,3.643,5.635l-1.363.343" transform="translate(10791 -1635.468)"/></g></g></svg>