<svg xmlns="http://www.w3.org/2000/svg" xmlns:xlink="http://www.w3.org/1999/xlink" width="697.192" height="377.122" viewBox="0 0 697.192 377.122"><defs><style>.a{fill:#d9dbd8;}.b{fill:#e99712;}.c{fill:#fab418;}.d{fill:#333033;}.e{fill:#fab226;}.f{fill:#363235;}.g{fill:#ef3248;}.h{clip-path:url(#a);}.i{fill:#ccecf6;}.j{fill:#a2a5a4;}.k{fill:url(#b);}.l{fill:#b1ddf2;}.m{clip-path:url(#c);}.n{clip-path:url(#d);}.o{fill:url(#e);}.p{clip-path:url(#f);}.q{fill:url(#g);}.r{fill:#353841;}.s{fill:#e58116;}.t{fill:#171717;}.u{fill:#252c34;}.v{fill:#c5761a;}.w{fill:#85751b;}</style><clipPath id="a"><path d="M775.394-131.013c-.255-.4-39.572-1.261-38.311,3.783s11.345,26.864,42.247,21.631a32.329,32.329,0,0,0-3.936-25.414"/></clipPath><linearGradient id="b" x1="-0.023" y1="1.042" x2="-0.023" y2="1.042" gradientUnits="objectBoundingBox"><stop offset="0" stop-color="#f5fcfe"/><stop offset="0.997" stop-color="#d4f1f8"/><stop offset="1" stop-color="#d4f1f8"/></linearGradient><clipPath id="c"><path d="M425.579-139.21c0,4.527-7.905,8.2-17.656,8.2s-17.656-3.67-17.656-8.2,7.9-8.2,17.656-8.2,17.656,3.671,17.656,8.2"/></clipPath><clipPath id="d"><path d="M750.8-396.71H600.827s28.565-28.565,59.512-14.283S729.373-489.548,750.8-396.71Z"/></clipPath><linearGradient id="e" x1="-4.006" y1="10.488" x2="-4.005" y2="10.488" xlink:href="#b"/><clipPath id="f"><path d="M379.988-348.248H323.718v-10.843a17.4,17.4,0,0,0,6.108,1.223,12.426,12.426,0,0,0,5.276-1.153,32.206,32.206,0,0,1,13.632-3.016,37.718,37.718,0,0,1,12.444,2.221,55.358,55.358,0,0,1,18.811,11.568"/></clipPath><linearGradient id="g" x1="-5.753" y1="26.255" x2="-5.751" y2="26.255" xlink:href="#b"/></defs><g transform="translate(-11813.923 -19481.44)"><path class="a" d="M697.192-25.264C697.192-11.311,541.121,0,348.6,0S0-11.311,0-25.264,156.072-50.531,348.6-50.531s348.6,11.313,348.6,25.267" transform="translate(11813.923 19858.561)"/><path class="b" d="M281.807-46.516H711.861V-95.7H281.807Z" transform="translate(11675 19858.561)"/><path class="c" d="M517.643-200.377l2.793-10.244a4.928,4.928,0,0,1,4.752-3.629h21.133a4.925,4.925,0,0,1,4.847,4.045l1.787,9.828H517.643" transform="translate(11675 19858.561)"/><path class="d" d="M555.477-195.332H515.12v-6.307h40.357v6.307" transform="translate(11675 19858.561)"/><path class="e" d="M774.287-111.466s2.523-26.484,0-32.789-49.185-7.567-49.185-7.567-52.968-26.485-81.974-37.835-147.556-7.567-174.04-5.044-112.242,52.968-112.242,52.968c-63.057,1.26-107.2,15.135-116.026,23.962-6.288,6.288-10.017,41.369-11.641,61.036A12.5,12.5,0,0,0,241.5-43.209l78.757.907a37.78,37.78,0,0,1-1.88-11.781,37.835,37.835,0,0,1,37.835-37.835A37.836,37.836,0,0,1,394.05-54.084a37.747,37.747,0,0,1-2.16,12.608l231.126,2.662a37.651,37.651,0,0,1-3.22-15.27,37.836,37.836,0,0,1,37.836-37.835,37.836,37.836,0,0,1,37.835,37.835,37.757,37.757,0,0,1-2.049,12.28l92.221-11.648c10.089-40.357-11.351-58.014-11.351-58.014" transform="translate(11675 19858.561)"/><path class="f" d="M661.474-134.8H382.282a3.147,3.147,0,0,1-1.813-5.723c14.329-10.02,47.039-31.093,87.989-45.984,0,0,116.028-8.828,147.556,0,23.141,6.479,41.528,31.3,49.672,44.053a4.981,4.981,0,0,1-4.211,7.653" transform="translate(11675 19858.561)"/><path class="g" d="M775.394-131.013c-.255-.4-39.572-1.261-38.311,3.783s11.345,26.864,42.247,21.631a32.329,32.329,0,0,0-3.936-25.414" transform="translate(11675 19858.561)"/><g transform="translate(11675 19858.561)"><g class="h"><path class="i" d="M797.619-127.23h-90.8v-16.395h90.8v16.395"/></g></g><path class="i" d="M232.621-88.135s29.639-3.151,40.988-6.936,18.917-16.4,18.917-16.4H237.542s-8.075,11.352-4.921,23.332" transform="translate(11675 19858.561)"/><path class="j" d="M231.89-73s12.712-3.153,13.973,3.152S243.089-52.6,229.342-58.7c0,0-3.859-6.1,2.548-14.3" transform="translate(11675 19858.561)"/><g transform="translate(11677 19859.561)"><path class="k" d="M825.877-30.847c-18.376-4.925-60.559-9.305-118.852-12.676l78.613-9.929c4.349-17.4,2.839-30.581-.288-39.946h40.527v62.551M644.253-46.516H694.7q-.236,1.154-.541,2.28m-370.443-95.6v-129.12h6.48v128.546c-2.189.176-4.355.368-6.48.573m37.46-4.416v-204h18.811a55.357,55.357,0,0,0-18.811-11.568v-18.3h53.109v70.812H471.82V-194.94q-1.5.12-2.732.239c-22.909,2.181-90.166,40.22-107.91,50.452m376.186-7.009c-7.041-.423-12.261-.564-12.261-.564s-22.848-11.424-46.748-22.481V-236.5h59.009v85.238M625.245-193.714c-8.028-1.139-17.611-1.967-28.029-2.544v-53.516l28.029,28.029v28.031M496.9-196.332V-348.615h51.633v132.772l18.579,18.579c-5.667-.088-11.388-.128-17.072-.128-19.2,0-38.008.453-53.14,1.061"/></g><path class="d" d="M356.215-88.135a34.051,34.051,0,0,0-34.052,34.051,34,34,0,0,0,1.693,10.6,34.057,34.057,0,0,0,32.359,23.448,34.057,34.057,0,0,0,32.107-22.706,33.975,33.975,0,0,0,1.944-11.346,34.051,34.051,0,0,0-34.051-34.051" transform="translate(11675 19858.561)"/><path class="j" d="M356.215-73A18.916,18.916,0,0,0,337.3-54.084a18.868,18.868,0,0,0,.94,5.891,18.922,18.922,0,0,0,17.977,13.028A18.921,18.921,0,0,0,374.052-47.78a18.863,18.863,0,0,0,1.08-6.3A18.916,18.916,0,0,0,356.215-73" transform="translate(11675 19858.561)"/><path class="d" d="M356.215-88.135a34.051,34.051,0,0,0-34.052,34.051,34,34,0,0,0,1.693,10.6,34.057,34.057,0,0,0,32.359,23.448,34.057,34.057,0,0,0,32.107-22.706,33.975,33.975,0,0,0,1.944-11.346,34.051,34.051,0,0,0-34.051-34.051" transform="translate(11976 19858.561)"/><path class="j" d="M356.215-73A18.916,18.916,0,0,0,337.3-54.084a18.868,18.868,0,0,0,.94,5.891,18.922,18.922,0,0,0,17.977,13.028A18.921,18.921,0,0,0,374.052-47.78a18.863,18.863,0,0,0,1.08-6.3A18.916,18.916,0,0,0,356.215-73" transform="translate(11976 19858.561)"/><path class="d" d="M416.751-89.4H406.66V-99.484h10.091V-89.4" transform="translate(11678 19862.561)"/><path class="d" d="M426.839-79.307H416.751V-89.4h10.088v10.089" transform="translate(11678 19862.561)"/><path class="l" d="M653.045-138.581h-256.1a2.7,2.7,0,0,1-1.664-4.943,371.233,371.233,0,0,1,80.71-39.724s106.429-7.625,135.349,0c21.228,5.6,38.093,27.044,45.564,38.055a4.3,4.3,0,0,1-3.863,6.612" transform="translate(11675 19858.561)"/><path class="d" d="M436.93-89.4H426.839V-99.484H436.93V-89.4" transform="translate(11678 19862.561)"/><path class="d" d="M447.018-79.307H436.93V-89.4h10.088v10.089" transform="translate(11678 19862.561)"/><path class="d" d="M457.107-89.4H447.018V-99.484h10.089V-89.4" transform="translate(11678 19862.561)"/><path class="d" d="M467.2-79.307H457.107V-89.4H467.2v10.089" transform="translate(11678 19862.561)"/><path class="d" d="M477.285-89.4H467.2V-99.484h10.088V-89.4" transform="translate(11678 19862.561)"/><path class="d" d="M487.376-79.307H477.286V-89.4h10.091v10.089" transform="translate(11678 19862.561)"/><path class="d" d="M497.464-89.4H487.376V-99.484h10.088V-89.4" transform="translate(11678 19862.561)"/><path class="d" d="M507.553-79.307H497.464V-89.4h10.089v10.089" transform="translate(11678 19862.561)"/><path class="d" d="M517.643-89.4H507.553V-99.484h10.089V-89.4" transform="translate(11678 19862.561)"/><path class="d" d="M527.732-79.307H517.643V-89.4h10.089v10.089" transform="translate(11678 19862.561)"/><path class="d" d="M537.82-89.4H527.732V-99.484H537.82V-89.4" transform="translate(11678 19862.561)"/><path class="d" d="M547.911-79.307H537.82V-89.4h10.091v10.089" transform="translate(11678 19862.561)"/><path class="d" d="M558-89.4H547.911V-99.484H558V-89.4" transform="translate(11678 19862.561)"/><path class="d" d="M568.089-79.307H558V-89.4h10.089v10.089" transform="translate(11678 19862.561)"/><path class="d" d="M578.179-89.4H568.089V-99.484h10.089V-89.4" transform="translate(11678 19862.561)"/><path class="d" d="M588.267-79.307H578.179V-89.4h10.088v10.089" transform="translate(11678 19862.561)"/><path class="d" d="M598.357-89.4H588.267V-99.484h10.091V-89.4" transform="translate(11678 19862.561)"/><path class="d" d="M608.445-79.307H598.357V-89.4h10.088v10.089" transform="translate(11678 19862.561)"/><path class="d" d="M618.536-89.4H608.445V-99.484h10.091V-89.4" transform="translate(11678 19862.561)"/><g transform="translate(11675 19858.561)"><g class="m"><path class="e" d="M420.534-142.994c0,4.527-7.905,8.2-17.656,8.2s-17.656-3.671-17.656-8.2,7.9-8.2,17.656-8.2,17.656,3.671,17.656,8.2"/></g></g><path class="f" d="M536.779-186.5s1.875,32.789-2.435,47.923h6.744s-3.559-24.227,0-48.056l-4.309.133" transform="translate(11669 19858.561)"/><g transform="translate(11690 19924.561)"><g class="n"><path class="o" d="M750.8-396.71H600.827s28.565-28.565,59.512-14.283,69.034-78.556,90.46,14.283"/></g></g><g transform="translate(11690 19924.561)"><g class="p"><path class="q" d="M379.988-348.248H323.718v-10.843a17.4,17.4,0,0,0,6.108,1.223,12.426,12.426,0,0,0,5.276-1.153,32.206,32.206,0,0,1,13.632-3.016,37.718,37.718,0,0,1,12.444,2.221,55.358,55.358,0,0,1,18.811,11.568"/></g></g><g transform="translate(10699 18899)"><path class="r" d="M713.124-657.451s2.489-5.911,3.889-6.689,15.656-4.044,19.572-1.089,5.053,29.737,4.874,31.435c0,0,11.931,4.54,9.563,8.9s-23.167.408-25.033-1.771-7.731-11.8-7.731-11.8-13.52,1.59-14.3.639-2.34-3.128-2.34-3.128-.622.622-2.022-.311-3.889-7.622-3.422-8.711,13.844-6.223,16.955-7.467" transform="translate(837 1447.715)"/><path class="s" d="M724.748-602.9c.638-1.913-.956-8.607-.956-9.139s2.232-2.125,3.719-3.76,2.55-7.822,1.807-8.566-2.763,1.487-3.719,2.444-3.4,1.488-4.038,1.063-.85-2.125-1.169-2.869-2.55-1.807-4.463-2.338-5.95,1.913-7.544,3.087-5.1.313-6.527,0c-1.1-.242-4.223-.939-5.58-1.243a.494.494,0,0,0-.113.139c-.425.992,1.842,7.084,3.117,7.934s1.842.283,1.842.283,1.417,1.984,2.131,2.849,13.029-.582,13.029-.582,4.071,10.343,4.109,12.043c.01.452,5.2-1.674,5.207,0,1.461-.779-1.358.178-.85-1.346" transform="translate(837 1422.844)"/><path class="t" d="M696.274-623.134a9.944,9.944,0,0,1,4.487-1.073c2.885-.1,4.247.406,4.087,1.073s-3.686,2.751-4.808,2.751-3.686-2.057-3.766-2.751" transform="translate(838 1422.016)"/><path class="r" d="M782.353-697.264s7.168-15.529,8.285-15.733,2.241,15.733,2.241,15.733,3.311,1.533,2.575,2.452-3.9,2.146-3.9,2.146-7.77,1.532-9.2-4.6" transform="translate(780 1483.59)"/><path class="u" d="M758.963-689.392s.981-8.239.813-9.836c0,0,.9-2.033,5.58,8.357,0,0-.059,2.824-6.393,1.479" transform="translate(799 1472.088)"/><path class="v" d="M793.465-691.1a7.743,7.743,0,0,1,0-3.434c.481-1.168,2.825-6.525,3.1-6.25s.6,7.973.79,8.328-2.786,2.455-3.885,1.356" transform="translate(774 1474.889)"/><path class="t" d="M770.353-640.262c0,1.034-.61,1.873-1.363,1.873s-1.362-.839-1.362-1.873.61-1.874,1.362-1.874,1.363.839,1.363,1.874" transform="translate(792 1430.004)"/><path class="t" d="M752.387-642.122c0,.877-.517,1.587-1.154,1.587s-1.155-.711-1.155-1.587.517-1.587,1.155-1.587,1.154.711,1.154,1.587" transform="translate(805 1431.576)"/><path class="w" d="M711.588-599.006a.852.852,0,0,1,.183-.092,2.121,2.121,0,0,1,.529-.119,5.9,5.9,0,0,1,1.96.184,8.285,8.285,0,0,1,1.307.442,4.622,4.622,0,0,0,1.394.43,13.9,13.9,0,0,0,3.494-.381,76.778,76.778,0,0,0,8.128-2.322l2.093-.7a4.312,4.312,0,0,1,.568-.165c.109-.023.217-.049.326-.066l.335.006a2.337,2.337,0,0,1,.638.126,3.635,3.635,0,0,1,.555.279,5.271,5.271,0,0,1,1.522,1.655,9.449,9.449,0,0,1,.888,1.881l-.247-.4a12.862,12.862,0,0,0-.792-1.1c-.708-.839-2.092-2.567-4.138-1.193a49.359,49.359,0,0,1-7.923,2.516c-.8.174-1.628.325-2.5.431a12.687,12.687,0,0,1-2.732.086,3.789,3.789,0,0,1-1.406-.443c-.426-.224-.827-.455-1.268-.637a7.843,7.843,0,0,0-1.387-.434,4.364,4.364,0,0,0-.743-.1,1.737,1.737,0,0,0-.783.117" transform="translate(826 1405.645)"/></g></g></svg>