<svg xmlns="http://www.w3.org/2000/svg" xmlns:xlink="http://www.w3.org/1999/xlink" width="588.458" height="560.291" viewBox="0 0 588.458 560.291">
  <defs>
    <filter id="path16" x="189.129" y="185.247" width="216.372" height="216.372" filterUnits="userSpaceOnUse">
      <feOffset dx="3" dy="3" input="SourceAlpha"/>
      <feGaussianBlur stdDeviation="5" result="blur"/>
      <feFlood flood-opacity="0.161"/>
      <feComposite operator="in" in2="blur"/>
      <feComposite in="SourceGraphic"/>
    </filter>
    <filter id="path18" x="36.099" y="7.723" width="530" height="552.568" filterUnits="userSpaceOnUse">
      <feOffset dx="3" dy="3" input="SourceAlpha"/>
      <feGaussianBlur stdDeviation="5" result="blur-2"/>
      <feFlood flood-opacity="0.161"/>
      <feComposite operator="in" in2="blur-2"/>
      <feComposite in="SourceGraphic"/>
    </filter>
  </defs>
  <g id="bg" transform="translate(-116.257 -756.431)">
    <g id="inner-icon">
      <path id="path378" d="M476.84-175.548s-2.343.579-2.869-.61-9.708-6.615-11.967-4.516-.671,1.675,1.652,3.2c2.321,1.549,4.773,2.936,3.736,3.94s-2.17-1.2-3.6-.847c-1.043.271.171,1.546,1.829,3.224.668.677,2.041,1.8,2.424,2.091,2.933,2.273,4.091,1.742,5,2.978s3.791-9.459,3.791-9.459" transform="translate(-30 1196.066)" fill="#db9f82"/>
      <g transform="matrix(1, 0, 0, 1, 116.26, 756.43)" filter="url(#path16)">
        <path id="path16-2" data-name="path16" d="M488.572-34.548A93.2,93.2,0,0,1,403.4-89.866l.149-.153c3.361-3.359,2.285-2.285,11.427-6.588,5.172-2.434,8.019-6.287,10.152-10.074.175,2.027.27,3.614.27,4.29,0,2.421-3.834,5.851-5.246,7.264s-1.634,3.177,4.539,10.286c5.092,5.862,6.147,8.265,8.369,8.671a13.433,13.433,0,0,0,2.269.177c1.857,0,3.67-.313,3.588-.891-.387-2.85-4.256-2.943-4.764-2.943H434.1s-1.472-1.976-3.864-5.215c-3.966-5.38-4.723-5.449-1.007-9.685s13.511-11.7,13.911-19.563c.1-2.006.156-3.8.175-5.36,3.746,1.171,10.314,4.208,12.264,6.372,2.421,2.691,11.427,3.495,10.489,4.971s-4.169,12.51-5.782,15.2-3.045,9.849-4.571,12.629c-2.291,4.17-2.291,4.17-2.291,5.922s1.755,2.546,4.442,2.546,4.705-.938,2.522-3.354c-1.357-1.5-1.582-1.885.575-4.975S471.979-95.8,474.534-99.028c.248-.313.521-.644.8-.973.236-.283.493-.571.748-.86l.361-.409c.218-.24.45-.482.681-.724l.54-.553q.327-.324.67-.642.327-.308.672-.612c.223-.192.447-.387.679-.577l.074-.061c2.36,5.3,5.7,12.947,6.947,16.571,2.019,5.847,3.564,13.441,6.387,13.98a14.412,14.412,0,0,0,2.687.285c3.566,0,4.264-1.924,1.552-3.912a.925.925,0,0,0-.564-.162,3.239,3.239,0,0,0-.735.115,3.248,3.248,0,0,1-.653.114.47.47,0,0,1-.266-.067c-1.323-.914-1.092-2.172-1.548-4.308-.605-2.818-2.019-13.707-1.815-17.544.114-2.153.225-7.05.3-11.317a15.581,15.581,0,0,0,6.687-7.3c1.939-4.6,2.572-12.147,3.854-16.048,0,0-.294.409-.8,1.076a21.385,21.385,0,0,1,1.245-4.863,6.526,6.526,0,0,1,.555-.957,3.255,3.255,0,0,0,.668.1.571.571,0,0,0,.134-.013,14.353,14.353,0,0,1,2.691-.175c.283,0,.542,0,.754.007l-.417,1.58s16.649,6.287,21.039,6.287a2.521,2.521,0,0,0,.622-.063c1.654-.43,8.047-4.645,13.6-8.451a79.744,79.744,0,0,0,3.646,15.346c-2.425-.45-18.246-3.352-22.656-3.352a5.593,5.593,0,0,0-.661.032c-3.376.424-6.119,2.955-6.119,5.7s5.276,40.742,5.276,40.742h2.38c-1.156,2.1-5.894,3.458-9.873,4.223-4.433.843-2.4,5.484-2.4,5.484h8.942c5.278,0,4.325-.845,6.435-2a2.262,2.262,0,0,1,1.076-.327c1.191,0,1.459,1.485,1.459,1.485h7.063a6.426,6.426,0,0,0,3.679,4.187h7.178l15.5-4.487a93.053,93.053,0,0,1-75.043,37.928M537.19-77.6a25.415,25.415,0,0,0-.661-3.439h.421l-4.04-27.873,11.911,4.189c-2.849,9.409-6.655,22.293-7.632,27.123m18.484-6.439s17.347-18.009,17.989-23.87a31.093,31.093,0,0,0-.642-10.184l-19.792,2.081.171-.5c3.268-.307,9.527-1.139,21.545-3.156,0,0-8.11-35.57-10.854-40.213s-9.865-10.794-9.865-10.794l-.292.151,1.675-4.414a12.128,12.128,0,0,0,1.541-8.624c-1.042-4.79-2.68-9.642-8.06-10.344a34.607,34.607,0,0,0-4.429-.225c-.4,0-.782,0-1.161,0s-.748,0-1.107,0c-2.706,0-4.733-.147-4.947-1.558,0,0-3.054,4.777-1.61,7.379l.134-.039a7.114,7.114,0,0,0-2.287,3c-.769,1.939-.6,1.757-.357,2.477.411,1.2-.757,2.373-1.416,3-1.016.986-2.068,1.515-.8,2.382,1.431.973.724,1.407.2,1.781-.383.275.173,1,.35,1.215,0,0-.808.6-.378,1.113s.962.523.949.968-.674,2.09.05,2.784,2.9.506,4,.571a4.245,4.245,0,0,1,3.182,1.223,9.52,9.52,0,0,1,2.012,3.409l.076.387-.069.037s-.013.214-.028.584c-1.07,1.653-12.383,14.818-15.089,15.341a2.521,2.521,0,0,1-.486.041,10.2,10.2,0,0,1-2.252-.35,12.845,12.845,0,0,0,.11-1.545l-.03-.365-.011-.052-.026-.067-.089-.2-.047-.078-.026-.043-.164-.179-.032-.03-.069-.058-.052-.035-.19-.125-.03-.015-.106-.052-.045-.024-.195-.082-.069-.026-.4-.123-.032-.009a19.861,19.861,0,0,0-3.495-.376l-.434-.1-.117-.056-.294-.166-.121-.093-.272-.251-.1-.106-.285-.361-.052-.073a9.4,9.4,0,0,1-1.1-2.46h0a12.44,12.44,0,0,1-.581-3.264l-.067-.363a2.358,2.358,0,0,0-.309-.575l-.041-.058-.115-.158-.006-.011-.244-.27-.024-.028-.1-.108-.009-.009-.406-.376-.03-.037-.05-.037-.46-.372-.013-.011-.02-.017c-.339-.257-.709-.512-1.1-.761l-.069-.043,0,0h0a14.051,14.051,0,0,0-5.539-2.189c-1.282-.082-2.317-.3-3.469-.3a10.758,10.758,0,0,0-5.265,1.563c-4.305,2.28-11.566,18.893-15.6,19.967a32.513,32.513,0,0,1-7.738.72,103.662,103.662,0,0,1-19.822-2.2,70.494,70.494,0,0,0-13.816-1.552,50.359,50.359,0,0,0-9.711,1.018c-3.888.644-9.145,3.912-14.09,3.912-.19,0-.378,0-.566-.013-5.107-.268-9.547-1.615-16.671-2.821a16.685,16.685,0,0,1-2.985-.815,93.212,93.212,0,0,1,91.638-76.178,93.185,93.185,0,0,1,93.186,93.186,92.846,92.846,0,0,1-8.311,38.527l-17.773,5.17M400.3-97.794a93.07,93.07,0,0,1-4.913-29.939,94.145,94.145,0,0,1,.938-13.284,79.551,79.551,0,0,0,20.939,5.419c-4.169,2.961-4.839,10.759-5.914,14.658s.8,15.188-3.365,18.147c-3.45,2.449-5.883,2.873-7.686,5" transform="translate(-194.26 418.17)" fill="#b5431d"/>
      </g>
      <path id="path370" d="M564.632-97.427a90.956,90.956,0,0,0,9.587-16.314l5.551-1.614,3.922,8.424.639-.183c-1.475-2.491-2.28-9.349-2.28-9.349a22.072,22.072,0,0,1,7.267-3.743l2.637,6.466a1.577,1.577,0,0,0-.044,2.719c1.775,1.528,2.137.369,4.1,5.193.362.889.7,1.73,1.02,2.508a43.13,43.13,0,0,0-4.084,4.084c-1.935-2.96-4.371-6.236-6.3-6.917l.558,1.2-2.283.662.407.875-20.7,5.989M401.26-98.012c-4.782,0-3.178-4.239-2.535-6.953a109.3,109.3,0,0,1,5.64-15.6,8.243,8.243,0,0,1,1.022-1.551q1.34,3.948,3.024,7.73c-3.182,3.33-4.839,9.971-5.1,11.387-.257,1.44,1.313,1.44,1.838,2.755s-.527,2.141-3.669,2.226c-.076,0-.148,0-.219,0m.251-66.248c-6.257-2.748-11.927-6.828-13.537-12.805-1.465-5.431-1.753-7.254-1.458-7.254.525,0,2.894,5.747,3.817,7.254a27.369,27.369,0,0,0,11.773,9.174c-.221,1.2-.419,2.415-.594,3.631" transform="translate(-79.685 1198.598)" fill="#41322d"/>
      <path id="path380" d="M445.184-149.731s7.784,17.028,9.88,23.13,3.717,14.012,6.658,14.572c6.043,1.152,7.854-1.264,4.418-3.783-.687-.5-1.87.3-2.312,0-1.379-.953-1.138-2.264-1.613-4.488-.629-2.94-2.1-14.291-1.893-18.29s.421-17.024.421-19.34-15.559,8.2-15.559,8.2" transform="translate(-46 1214.006)" fill="#9c6b49"/>
      <path id="path382" d="M412.432-160.007c1.765,4.126,2.945,17.866,2.945,20.218s-3.732,5.7-5.106,7.071-1.588,3.093,4.42,10.012c4.954,5.706,5.981,8.045,8.146,8.44s5.813.11,5.7-.694c-.406-2.969-4.692-2.864-4.692-2.864s-1.428-1.925-3.762-5.079c-3.861-5.236-4.593-5.3-.98-9.427s13.151-11.382,13.544-19.042a97.607,97.607,0,0,0,0-12.166l-20.218,3.53" transform="translate(-68 1212.244)" fill="#9c6b49"/>
      <path id="path384" d="M526.817-172.4c-.243,3.709-1.325,5.975-4.646,7.83s-4.91,3.056-7.17,1.865-1.325-.67-3.18-.269-3.852-.8-5.444,2.52-2.13,14.541-4.247,19.584-6.906,7.964-12.217,9.693-9.157,5.845-11.681,9.029-11.28,15.395-13.4,18.448-1.906,3.429-.568,4.912c2.157,2.386.166,3.317-2.49,3.317s-4.383-.792-4.383-2.518,0-1.731,2.26-5.845c1.507-2.744,2.917-9.818,4.513-12.471s4.776-13.544,5.708-15.006-7.964-2.254-10.354-4.908-11.814-6.635-14.2-6.771-8.094.529-11.547,5.442-5.311,13.54-14.336,17.787-7.966,3.188-11.285,6.507-5.043,10.224-5.311,11.679,1.332,1.458,1.861,2.789-.533,2.171-3.715,2.256c-5.111.13-3.448-4.249-2.789-7.035a110.609,110.609,0,0,1,5.711-15.8c1.854-3.581,4.507-3.581,8.626-6.5s2.258-14.067,3.32-17.919,1.722-11.547,5.839-14.471c0,0-30.264-3.054-34.378-18.316s.926-2.386,2.386,0,7.832,8.9,14.872,10.092,11.413,2.52,16.457,2.785,10.484-3.186,14.468-3.85,9.953-2.125,23.231.527,23.228,2.524,27.213,1.462,11.146-17.465,15.4-19.712,5.841-1.426,8.623-1.246,8.5,3.493,8.5,5.354,1.2,6.711,3.325,6.844,5.156.154,5.038,1.918" transform="translate(-81 1197.727)" fill="#c48e6a"/>
      <path id="path388" d="M456.51-181.5s1.047,2.269,2.142,2.26a22.644,22.644,0,0,1,3.651.448c.91.156,1.5-2.029,1.5-2.029s.831,5.965-1.119,5.773-6.781-2.913-6.172-6.452" transform="translate(-36.395 1207)" fill="#9c6b49"/>
      <path id="path390" d="M456.632-183.5a15.859,15.859,0,0,0,.975,7.04,18.054,18.054,0,0,0,1.424,3.117,6.478,6.478,0,0,0,2.017,2.289,1.287,1.287,0,0,0,1.947-.37,7.289,7.289,0,0,0,.389-3.191c-.033-1.2-.128-2.432-.124-3.692a8.954,8.954,0,0,1,.209-1.9c.113-.628.551-1.279,1.12-1.325a1.558,1.558,0,0,0-.762,1.405,8.275,8.275,0,0,0,.111,1.769c.152,1.192.389,2.388.523,3.643a7.864,7.864,0,0,1-.326,4.026,2.535,2.535,0,0,1-3.722,1.033,7.645,7.645,0,0,1-2.482-2.891,15.908,15.908,0,0,1-1.339-3.519,12.811,12.811,0,0,1,.041-7.437" transform="translate(-36.395 1201.73)" fill="#16171a"/>
      <path id="path392" d="M472.877-176.525c-1.853-.115-2.9-4.344-2.9-5.967l-.056-.311-.067-.149-.089-.184-.145-.214-.1-.136-.238-.264-.084-.093-.337-.309-.048-.056-.421-.333-.028-.028c-.154-.119-.313-.234-.484-.348l-.011-.009c-.171-.117-.348-.236-.528-.35l0,0a7.262,7.262,0,0,0-2,3.215c-.227,1.542.982,3.548.608,5.211-.192.821,6.927,3.732,4.644,6.166-.819.873-.871,2.754-.586,4.363a31.559,31.559,0,0,0,3.211-1.7c2.9-1.617,3.838-3.593,4.05-6.826.1-1.539-2.543-1.557-4.393-1.673" transform="translate(-32 1200.627)" fill="#6b5e50"/>
      <path id="path394" d="M467.075-181.454a2.454,2.454,0,0,0,1.177,3.423c2.239,1.105,3.625,1.541,3.956.3-1.823-.107-2.852-4.033-2.852-5.539-.883-.43-2.171,1.691-2.281,1.814" transform="translate(-36 1201.553)" fill="#4f453b"/>
      <path id="path396" d="M467.74-181.5c.607-1.393.808.853.808.853s-1.224.1-.808-.853" transform="translate(-35.579 1202.105)" fill="#1e0f06"/>
      <path id="path398" d="M473.882-177.806c.051-.784-.889-1.015-1.915-1.113-1.2.541-.329.659-.029,1.031s-.092.828.327,1.325-.088,1.08-.295,1.525c-.2.425.552.844.613.876a5.639,5.639,0,0,0,1.3-3.644" transform="translate(-29 1202.998)" fill="#9c6b49"/>
      <path id="path400" d="M474.15-176.564a3.46,3.46,0,0,0,.177-1.243c.058-.709-.92-.968-2.073-1.084a4.312,4.312,0,0,0,1.9,2.327" transform="translate(-29.446 1202.998)" fill="#4f453b"/>
      <path id="path412" d="M500.537-140.582l-15.389-5.409,3.907,26.961H474.764s-5.1-36.752-5.1-39.409,2.653-5.1,5.919-5.511,22.868,3.27,22.868,3.27l6.586,7.165-4.495,12.933" transform="translate(-31 1210.998)" fill="#30b0a9"/>
      <path id="path420" d="M518.292-158.172,496.385-156.9s-12.656,32.017-14.136,39.652,3.814,9.405,3.814,9.405h7.208l36.89-10.677-5.723-12.3-23.573,6.856s17.427-18.089,18.072-23.977a31.239,31.239,0,0,0-.645-10.23" transform="translate(-23 1214.58)" fill="#75ded8"/>
      <path id="path424" d="M486.9-202.731c-.681.587-4.317,1.475-5.7,4.966-.765,1.928-.6,1.75-.355,2.464.411,1.191-.752,2.358-1.408,2.982-1.008.98-2.057,1.5-.791,2.369,1.423.965.72,1.4.2,1.769-.38.273.174.993.346,1.21,0,0-.8.6-.376,1.1s.957.52.946.965-.671,2.079.047,2.769,2.881.5,3.981.565a4.237,4.237,0,0,1,3.162,1.219c3.055,3.452,2.229,6.354,2.229,6.354s1.116,1.87,5.679-3.209c.639-.714,4.119-1.7,4.252-3.252.174-1.982,2.683-11.079-1.447-11.8l-8.491-4.467-2.279-6.006" transform="translate(-26 1186.998)" fill="#edb38d"/>
      <path id="path428" d="M503.64-193.445c-1.082-4.974-2.781-10.012-8.368-10.743s-11.706.716-12.093-1.843c0,0-3.172,4.963-1.67,7.664.653-.914,6.552,8.806,7.493,10.256s.528-2.662,2.559-2.24,2.831,4.725,1.9,6.523c-.723,1.389,2.027,4.225,2.027,4.225l3.116,2.759-.572,2.927,4.007-10.568a12.6,12.6,0,0,0,1.6-8.959" transform="translate(-24.036 1183.832)" fill="#6b5e50"/>
      <path id="Path_677" data-name="Path 677" d="M3323.36,21000.969h14.2v10.178h-6.309a2.947,2.947,0,0,0-1-1.291c-.609-.322-.573-.322-1.434,0a9.038,9.038,0,0,0-2.008,1.291l-2.437,1.146h-11.328s-.645-3.262,0-4.732.645-.572,2.581-1.146,2.724-.143,5.305-1a25.623,25.623,0,0,0,5.019-2.437l-2.581-.574Z" transform="translate(-2879 -19909)" fill="#41322d"/>
      <path id="path406" d="M473.592-165.355a31.457,31.457,0,0,0-5.321.2c-1.349.339-12.075-3.9-11.779-7.223s.981-1.688,3.834-.716,5.655,2.14,5.819.584-2.459-1.053-3.1-2.514c-.466-1.064,1.421-.872,3.958-.567a34.3,34.3,0,0,1,3.4.682c3.875,1,4.2,2.339,5.857,2.3s-2.667,7.252-2.667,7.252" transform="translate(-44 1202.26)" fill="#edb38d"/>
      <path id="path422" d="M495.432-118.711h-6.373s-4.685-1.572-3.374-8.317c1.031-5.3,6.467-23.191,8.745-30.593l-1.278.136s-8.44,27.1-9.747,33.847,3.372,8.313,3.372,8.313h6.371l32.61-9.438-1.115-2.4-29.211,8.456" transform="translate(-24 1222.088)" fill="#30b0a9"/>
      <path id="path416" d="M494.351-149.166l-16.277-5.409,3.77,26.5h1.673l-3.429-23.66,13.505,4.746.758-2.181" transform="translate(-26 1215.426)" fill="#29948e"/>
      <path id="Path_678" data-name="Path 678" d="M3311.522,20943.3l-1.781.727-1.175,2.154,18.993,5.939h2.545l3.133-1.633,10.7-6.854,3.394,15.99,6.4,7.572,21.987-2.3-8.607-35.555-2.727-6.443-9.034-9.895-3.011,2.438-3.3,3.154h-1.706l-3.394,3.729h-2.213v-1.578l-11.623,13.336-5.44,1.721v2.182l-1.129,1.908-2.711,2.461-4.368,2.309-2.51.252-1.858-.887Z" transform="translate(-2879 -19909)" fill="#fff" stroke="#e2e2e2" stroke-width="1"/>
    </g>
    <g id="outer-circle" transform="translate(-387 -85)">
      <g id="ring" transform="translate(-79 87.949)">
        <g transform="matrix(1, 0, 0, 1, 582.26, 753.48)" filter="url(#path18)">
          <path id="path18-2" data-name="path18" d="M591.416,239.775a59.432,59.432,0,0,1-46.528-22.387c3.182-11.886,10.175-18.946,16.549-31.262l.105-.87.485.052.117,0a1.142,1.142,0,0,0,.114-2.279l-.438-.043.657-5.432c.085.56.161,1.164.219,1.666.336,2.758.52,3.981,1.325,3.981s.992-1.223,1.328-3.984c.105-.868.251-2.058.414-2.741.167.683.31,1.877.417,2.747.336,2.755.517,3.978,1.328,3.978s.989-1.223,1.328-3.984c.1-.868.251-2.058.414-2.744.166.686.312,1.88.417,2.75.336,2.755.52,3.978,1.328,3.978s.989-1.223,1.325-3.981c.1-.867.251-2.06.414-2.743.164.683.309,1.877.414,2.743.339,2.758.523,3.981,1.328,3.981s.992-1.223,1.331-3.978c.1-.873.254-2.075.42-2.758a27.29,27.29,0,0,1,.42,2.755c.342,2.758.523,3.981,1.337,3.981s.989-1.223,1.331-3.981c.061-.513.14-1.141.228-1.707l1.045,8.61c7.428,14.354,15.7,21.569,17.8,37.6l.5,3.876a17.328,17.328,0,0,0,5.683,10.712,59.805,59.805,0,0,1-13.161,1.459m15.475-8.079a139.257,139.257,0,0,0-15.948-64.712l-.161-.307-7.212-8.16c2.151-4.224,4.18-9.527,4.18-14.565,0-3.4-1.127-11.963-8.563-11.963-1.293,0-2.359.028-3.243.069a1.184,1.184,0,0,0-.63,2.131,13.348,13.348,0,0,1,4.507,9.264c.158,4.974-4.291,6.879-8.648,7.613-4.358-.733-8.806-2.638-8.648-7.613a13.479,13.479,0,0,1,4.229-9.033,1.35,1.35,0,0,0-.814-2.378c-.788-.032-1.7-.052-2.782-.052-7.437,0-8.561,8.566-8.561,11.963,0,5.038,2.029,10.341,4.18,14.565l-7.212,8.16h-.318l-.16.307a138.811,138.811,0,0,0-6.223,13.584c-1.707-.311-5.794,17.318-7.279,25.137a59.149,59.149,0,0,1-4.868-15.449c-.663-3.666-2.551-12.88-3.628-13.161-10.169-26.843-34.841-43.23-61.851-43.23a68.527,68.527,0,0,0-19.22,2.775c-1.054-.843-9.938,3.594-13.543,5.48a59.557,59.557,0,0,1-66.265-98.33c3.319-2.738,10.755-10.341,10.5-10.487,21.564-26.272,19.912-61.942-3.672-85.954.213-1.2-9.042-8-13.17-10.653a59.679,59.679,0,0,1-25.513-34.076,4.09,4.09,0,0,0,1.894-.546l.289-.169a2.991,2.991,0,0,0,.423.032,2.141,2.141,0,0,0,1.086-.277l.02-.017c.677.756,1.392,1.477,2.137,2.166q1.077,1.134,2.262,2.16l-.849,1.471a4.107,4.107,0,0,0,1.5,5.613,0,0,0,0,1,0,0,4.092,4.092,0,0,0,1.5,1.5,4.1,4.1,0,0,0,2.052.552,4.109,4.109,0,0,0,3.564-2.058l.946-1.635a32.443,32.443,0,0,0,5.934,1.824,2.8,2.8,0,0,0,1.039,1.392,4.121,4.121,0,0,0,2.014,2.992,4.107,4.107,0,0,0,3.558,2.052,4.112,4.112,0,0,0,4.11-4.11v-1.906c.873-.108,1.731-.266,2.58-.441l.66-.155c.429-.1.855-.19,1.278-.306.447-.12.887-.263,1.325-.4l.63-.2.487-.181a5.028,5.028,0,0,0,1.068-.184,4.061,4.061,0,0,0,1.357,1.264,4.055,4.055,0,0,0,2.163,1.8c-.736,2.037,1.576,2.347,2.388.126a3.978,3.978,0,0,0,1.057-.42l.021-.018a4.258,4.258,0,0,0,.765-.59l.032-.026,0-.006.015-.015c7.379,7.239,19.763,10.864,32.672,10.864a66.827,66.827,0,0,0,24.22-4.445,59.831,59.831,0,0,1-11.082,12.011c-36.648,30.235-33.592,81.451,6.345,107.1A59.575,59.575,0,0,1,464.73,79.76c6.232,34.552,34.3,56.394,65.479,56.394a70.636,70.636,0,0,0,32.763-8.255,59.633,59.633,0,0,1,56.887,0,70.564,70.564,0,0,0,32.763,8.255c31.178,0,59.248-21.844,65.479-56.4A59.322,59.322,0,0,1,731.969,50.6c.4.613,8.391-7.942,9.833-8.992,35-25.428,38.218-69.919,9.641-98.849a6.491,6.491,0,0,0,.68-2.9v-44.406h16.444c3.085,0,5.73-.05,6.842-1.824a1.586,1.586,0,0,0-1.416-2.35h-19.8a3.2,3.2,0,0,1-2.072-.54v-.52a3.154,3.154,0,0,1,2.072-.558h20.177a1.6,1.6,0,0,0,1.6-1.6v-.032a1.58,1.58,0,0,0-.178-.733c.318-.353-.64-.429-.885-.867-.257-.461-3.875-.082-4.132-.54.476-.277,5.2-2.087,5.2-2.676v-.032a1.6,1.6,0,0,0-1.6-1.6h-.937c-.318-.543-6.038.537-6.359,0l2.089-1.617c.881,0,6.807-.718,6.807-1.6v-.029a1.6,1.6,0,0,0-1.6-1.6H754.195a3.182,3.182,0,0,1-2.072-.543v-.517a3.137,3.137,0,0,1,2.072-.558h20.177a1.6,1.6,0,0,0,1.6-1.6v-.029a1.6,1.6,0,0,0-1.6-1.6H759.209c-.359-.54,1.775-1.08,1.408-1.62h13.755a1.6,1.6,0,0,0,1.6-1.6v-.035a1.6,1.6,0,0,0-1.6-1.6H756.9c-.123-.178,2.8-.622,2.676-.8-.222-.312,3.5-.213,3.144-.213a1.137,1.137,0,0,0-.66.213,1.144,1.144,0,0,0-.473.8h-7.387a3.183,3.183,0,0,1-2.072-.543v-.522a3.177,3.177,0,0,1,2.072-.552h20.177a1.6,1.6,0,0,0,1.6-1.6v-.032a1.6,1.6,0,0,0-1.6-1.6H754.195a3.2,3.2,0,0,1-2.072-.54v-.52a3.157,3.157,0,0,1,2.072-.555h2.157c.307.391.61.779.911,1.17a1.139,1.139,0,0,0,.908.444l.7-.236c.429-.33-23.013-.9-23.229-1.378h38.734a1.6,1.6,0,0,0,1.6-1.6v-.032a1.6,1.6,0,0,0-1.6-1.6H747.677c-.432-.54-4.025-2.679-4.463-3.214l31.158,1.6a1.6,1.6,0,0,0,1.6-1.6v-.035a1.6,1.6,0,0,0-1.6-1.6H754.195a3.2,3.2,0,0,1-2.072-.54v-.522a3.176,3.176,0,0,1,2.072-.552h20.177a1.6,1.6,0,0,0,1.6-1.6v-.032a1.6,1.6,0,0,0-1.6-1.6H754.195a3.2,3.2,0,0,1-2.072-.54v-.52a3.138,3.138,0,0,1,2.072-.557h20.177a1.6,1.6,0,0,0,1.6-1.6v-.032a1.6,1.6,0,0,0-1.6-1.6H754.195a3.185,3.185,0,0,1-2.072-.54v-.52a3.155,3.155,0,0,1,2.072-.557h19.731a1.606,1.606,0,0,0,1.267-2.6c-1.217-1.483-3.721-1.524-6.626-1.524h-20.89v.009H743.76l-.263,5.566c-.09-.023-.458,2.574-.137,2.913l-4.1,87.02a59.449,59.449,0,0,1-21.733-40.6c-3.6-37.961-39.062-66.069-75.491-66.069a67.609,67.609,0,0,0-26.456,5.312c-.321.143-.642.283-.966.42a1.962,1.962,0,0,0,.166-.274c.534-1.039.4-2.691-2.014-2.779l-.531-.044-.149-.026-.341-.076-.158-.055-.286-.134-.137-.085-.274-.236a3.942,3.942,0,0,1-.9-1.8,22.11,22.11,0,0,1-.42-8.823,6.724,6.724,0,0,0-.181-2.566,32.714,32.714,0,0,1-.514-9.244,45.651,45.651,0,0,1,.709-4.588c.6-3.041.088-5.236.158-9.206.108-.277.239-.607.382-.954l.158-.391c.128-.321.263-.648.406-1.007.181-.461.374-.943.569-1.445l.093-.236c.137-.353.277-.715.414-1.08l.058-.158c.146-.382.289-.771.429-1.156l.117-.327c.123-.35.242-.695.356-1.036l.055-.163c.123-.374.234-.733.342-1.086l.087-.3c.093-.336.181-.663.257-.966l.021-.076c.058-.26-4.562-9.468-4.507-16.625a11.515,11.515,0,0,1,.07-1.179l.064-.412c.035-.26.076-.522.131-.791l.12-.508.2-.75.178-.569.263-.768.237-.63c.1-.263.213-.534.33-.812l.295-.7q.188-.429.394-.884c.114-.257.231-.508.353-.773.146-.315.3-.645.461-.978.137-.289.271-.572.417-.876l.05-.1c1.7,1.967,3.316,2.679,4.6,2.679a2.891,2.891,0,0,0,2.367-1.13c.943-1.29.231-2.957,0-6.053,3.123-.66,6.459-.975,10.192-3.286,2.023-1.255,2.005-2,1.894-2.758v0l0-.012,0-.029-.064-.482a.361.361,0,0,0-.245-.055c-.73,0-2.819.557-4.107.747l-.181.038h-.222c1.85-.7,4.1-1.217,5.881-2.595.493-.382,1.068-.826,1.421-1.135l.257-.239a4.96,4.96,0,0,0,1.529-2.49A59.32,59.32,0,0,1,650.7-228.866c.531,5.6,4.621,18.858,4.621,18.858,11.369,28.049,40.787,47.211,70.864,47.211a69.48,69.48,0,0,0,8.266-.49c.861.806,13.2-2.709,18.19-4.822a59.378,59.378,0,0,1,24.164-5.108,59.34,59.34,0,0,1,25.761,5.843c-12.445,2.6-21.8,13.327-21.8,26.12v17.7c0,12.8,9.372,23.522,21.832,26.117l-2.787,38.113a5.686,5.686,0,0,0,1.109,3.383C773.7-27,777.32,16.56,811.808,41.612a59.555,59.555,0,0,1-63.445,100.5,72.518,72.518,0,0,0-20.344-7.1c1.6-1.343-9.258-1.154-12.419-1.154a65.456,65.456,0,0,0-47.841,20.668,9.776,9.776,0,0,0-6.719-9.88l-4.285-1.4a9.766,9.766,0,0,0-12.305,6.261l-1.6,4.9-7.227,20.858-7.962-23.254-.99-3.035a9.731,9.731,0,0,0-9.279-6.737,8.9,8.9,0,0,0-1.194.1c-1.792-9.927-5.327-13.864-8.972-15.531a.934.934,0,0,0-.388-.091.9.9,0,0,0-.639,1.527,18.469,18.469,0,0,1,4.6,7.475,27.1,27.1,0,0,1,1.112,7.805l-1.83.6a9.774,9.774,0,0,0-6.255,12.305l2.2,6.754a9.757,9.757,0,0,0,12.305,6.258l4.282-1.4a9.679,9.679,0,0,0,3.669-2.193c4.32,13.748,4.947,15.952,6.106,18.736l-6.874,19.844a100.575,100.575,0,0,0-4.9,27.7,59.182,59.182,0,0,1-13.733,5.613M458.344,71.155a9.613,9.613,0,0,0-9.614-9.614H432.19V54.457a10.536,10.536,0,0,0-10.522-10.524H394.873c-4.612,0-11.418,9.723-10.522,11.908v5.7H367.811a9.613,9.613,0,0,0-9.611,9.614v44.208a9.613,9.613,0,0,0,9.611,9.615M754.9,126.971a4.67,4.67,0,0,0,3.967,2.2h46.452a4.67,4.67,0,0,0,4.673-4.667V57.869a4.663,4.663,0,0,0-2.2-3.963,4.673,4.673,0,0,0-3.966-2.2H791.284V35.095a1.147,1.147,0,0,0,.66.5l.312.041M635.562,194.3l5.922,18.169a59.9,59.9,0,0,1-17.6,17.679M645.7,204.727c-.032-.1-.061-.2-.1-.3l-6.833-19.97,5.931-18.21a9.66,9.66,0,0,0,3.8,2.32l4.282,1.4a9.75,9.75,0,0,0,3.027.481c.292,0,.581-.015.87-.038a72.884,72.884,0,0,0-6.567,19.848,58.938,58.938,0,0,1-4.416,14.469m-68.138-25.619c-.336-2.76-.525-3.98-1.334-3.98s-.992,1.222-1.328,3.984c-.108.87-.254,2.064-.423,2.747-.163-.683-.309-1.88-.414-2.75-.336-2.76-.523-3.98-1.328-3.98s-.989,1.22-1.325,3.98c-.105.868-.248,2.062-.417,2.741-.164-.679-.307-1.873-.414-2.738-.336-2.761-.52-3.984-1.331-3.984s-.99,1.22-1.325,3.98c-.1.868-.248,2.064-.414,2.747-.166-.683-.312-1.876-.417-2.743-.336-2.761-.523-3.984-1.328-3.984s-.989,1.22-1.325,3.98c-.105.864-.251,2.062-.417,2.741-.161-.679-.307-1.873-.411-2.741-.26-2.122-.432-3.327-.861-3.77l1.048-8.661h14.433l1.051,8.651c-.438.441-.61,1.644-.873,3.779-.105.873-.254,2.076-.42,2.756m77.829-14.591a6.55,6.55,0,0,1-2.043-.325l-4.282-1.4a6.587,6.587,0,0,1-4.223-8.3l2.2-6.754a6.594,6.594,0,0,1,6.264-4.55,6.483,6.483,0,0,1,2.04.33l4.285,1.4a6.581,6.581,0,0,1,4.22,8.3l-1.456,4.466a67.66,67.66,0,0,0-4.048,6.133,6.606,6.606,0,0,1-2.957.7m-40.5-.529a6.592,6.592,0,0,1-6.261-4.547l-2.2-6.758a6.59,6.59,0,0,1,4.221-8.3l4.285-1.394a6.581,6.581,0,0,1,8.3,4.22l2.2,6.76a6.582,6.582,0,0,1-4.224,8.3l-4.282,1.4a6.654,6.654,0,0,1-2.043.326m-188.4-105.2H389.628V54.457a5.248,5.248,0,0,1,5.245-5.241h26.794a5.248,5.248,0,0,1,5.245,5.241v7.085M816.788-69.543l-2.04-27.9A27.24,27.24,0,0,0,836.136-118.8q.219,2.535.219,5.125a59.386,59.386,0,0,1-19.567,44.129m-43.206-44.024H754.2a3.2,3.2,0,0,1-2.073-.54v-.522a3.155,3.155,0,0,1,2.073-.557h18.47c.309.54,3.838.54,4.141,1.08M438.255-115.79c-6.433,0-13.566-2.656-18.808-4.588-2.977-1.027-6.9-2.712-10.478-2.712a8.129,8.129,0,0,0-4.08.981l-.537.342c-.009-3.68,1.238-6.973,2.712-10.21.012.009,4.334-20.933-.794-25.352a14.488,14.488,0,0,0-3.987-3.228,16.839,16.839,0,0,0-8.146-2.026c-6.24,0-12.5,3.193-14.646,9.314a4.088,4.088,0,0,0-1.775,1.649l-.946,1.637a32.175,32.175,0,0,0-6.935-2.026v-.628a4.11,4.11,0,0,0-2.052-3.558,4.108,4.108,0,0,0-3.558-2.049,4.108,4.108,0,0,0-4.11,4.11v1.9a32.311,32.311,0,0,0-7.921,2.04,4.121,4.121,0,0,0-1.462-1.436,4.11,4.11,0,0,0-1.623-1.564,59.4,59.4,0,0,1,44.54-20.023,59.277,59.277,0,0,1,25.629,5.782,64.075,64.075,0,0,0,26.7,5.531c38.948,0,81.576-30.51,86.319-68.506a59.56,59.56,0,0,1,59.119-52.383,59.943,59.943,0,0,1,9.83.806,2.887,2.887,0,0,0-.3,1.275,3.462,3.462,0,0,0,1.229,1.626c.219.219.414.435.639.63a9.693,9.693,0,0,0,.861.87l.19.193a16.033,16.033,0,0,1-3.254,2.5,20.862,20.862,0,0,0-5.443,4.308c-3.216,3.377-5.079,6.824-4.159,7.7a.835.835,0,0,0,.592.2,2.244,2.244,0,0,0,.441-.05l-.032.026,1.848,2.014c.082.087.128.128.146.128a21.454,21.454,0,0,0-1.34-2.373l.055-.023,1.713,1.865.029.026a31.479,31.479,0,0,0-2.387,5.429l-.082-.026c-2.907,9.5-2.968,11.316-10.837,22.142a157.064,157.064,0,0,1-12.332,15.253c-9.314,10.1-9.97,16.917-11.123,18.674-1.276,1.956-6.836,3.421-7.93,12.183-.359,2.84.59,6.751,1.208,11.979a11.928,11.928,0,0,1,.07,1.439,69.66,69.66,0,0,0-11.964-1.013c-32,0-66.5,20.6-80.406,49.029a18.3,18.3,0,0,0-8.438-4.772,23.656,23.656,0,0,1-4.775,11.1l-.009.012a25.3,25.3,0,0,1-3.31,3.476,19.191,19.191,0,0,1-3.894.374M571.1-221.931,754.2-118.417a3.183,3.183,0,0,1-2.073-.543v-.52a3.157,3.157,0,0,1,2.073-.555h15.776a1.151,1.151,0,0,0,.163.552c.216.353.429.709.642,1.065m-6.173-9.7H754.2a3.183,3.183,0,0,1-2.072-.543v-.522a3.174,3.174,0,0,1,2.072-.555h9.3c.374.537.744,1.08,1.109,1.62m-10.849-14.57a2.7,2.7,0,0,1-1.632-.523l-10.706,2.172c.108-.117,10.992-2.916,11.223-3,.374.45.744.9,1.115,1.354m-411.3-1.427q.784-1.313,1.629-2.58l.479.829q-1.09.832-2.107,1.751M591.416-163.7a59.386,59.386,0,0,1-21.45-3.981c.061-.782-.514-1.953-2.081-2.954l.654.152.222.055.435.108.213.058.362.1.187.058.318.1.163.053.295.1.131.044.347.12.172.055.2.07.172.05.169.055.181.047.163.047.19.044.172.035.21.035.178.032.242.029.2.017.266.02.233.018.283.009c.213.006.441.009.689.009.312,0,.654-.006,1.039-.018.056.5.082.893.12,1.226h0l.012.079.026.181.055.309.038.14.125.3.023.05.242.289.1.076.274.19.155.085.391.184.184.079c.219.088.458.181.741.283a7.591,7.591,0,0,0,2.545.482,4.337,4.337,0,0,0,2.122-.5,8.738,8.738,0,0,0,2.247.28c1.091,0,2.166-.21,2.385-.873a4.905,4.905,0,0,0,.49.026c2.466,0,2.253-2.157,1.226-3.193l-.435-.347-.056-.032-.032-.023a18.886,18.886,0,0,1,2.63-.417c.085,0,.172-.006.263-.006a26.255,26.255,0,0,1,3.182.321,27.46,27.46,0,0,0,3.529.321,4.907,4.907,0,0,0,2.606-.557,1.667,1.667,0,0,0,.636-.779l.006.018.076.225.061.155.117.193.088.137.166.166.12.114.225.137.149.088.309.111.166.058.578.108c-.213,2.043.073,2.843,1.22,2.843a7.718,7.718,0,0,0,2.113-.447,15.124,15.124,0,0,0,2.2.187,4.265,4.265,0,0,0,2.493-.578c.114.006.228.009.336.009h.018a59.383,59.383,0,0,1-20.817,3.742m10.525-10.268c-.455-1.039-1.658-1.354-3.114-1.354a57.9,57.9,0,0,0-6,.741c-2.589.274-3.2.563-3.984.563a12.031,12.031,0,0,1-2.922-.619,17.657,17.657,0,0,1,2.142-6.284l.452-.514c.374-.42.736-.82,1.08-1.179l.61-.622c.33-.33.648-.633.957-.925l.166-.149c.3-.277.6-.546.884-.8l.073-.061c.3-.269.607-.531.908-.794.283-.245.569-.493.849-.741l.172-.155c.28-.248.56-.5.849-.773l.058-.053c.295-.28.6-.584.917-.9l.178-.184c.324-.33.654-.68,1-1.065l.052-.058c.339-.376.695-.791,1.063-1.232l.093-.111v0l.237-.283.058.257h0c.164.738.339,1.5.517,2.274l.131.6c.14.639.286,1.281.42,1.929.091.435.164.867.245,1.3.073.4.161.806.222,1.206.131.829.234,1.646.292,2.44.152,2.1.222,3.721,1.731,5.23-.079.8-.216,1.585-.341,2.317m-7.428-87.195-.047-.093.061.067-.015.026m.117-.2-.33-.557,0,0c.082.087.128.128.146.128a5.548,5.548,0,0,0-.663-1.235l1.1,1.205-.26.455m.4-.7-.149-.254.044-.131.2.222-.1.164m-.149-.254,0-.006,0,.006h0m.414-.166c-.283-.476-.619-1.025-.852-1.43l.049-.032,1.025,1.118-.222.344m.426-.651-.263-.435.318.35-.055.085m.295-.45c-.216-.356-.435-.724-.61-1.022l.026-.02.75.817-.166.225m.452-.6-.082-.134.1.108-.02.026m.391-.514-.234-.388.292.315-.058.073m.484-.549-.035-.058.044.047-.009.012m.429-.508-.128-.213.155.169-.026.044m33.674-1.579c-3.818-.4-7.16-.572-10.219-2.732-1.065-2.516-1.278-2.367-4.016-2.656a15.607,15.607,0,0,0-2.948-.753c-.33-.032-.689-.047-1.071-.047a29.13,29.13,0,0,0-7.974,1.36c-.178-.318-.47-.8-.75-1.267l.627.68c.079.088.125.128.143.128a12.827,12.827,0,0,0-1.08-1.924l.122-.111,1.387,1.506c.082.09.128.128.146.128a14.032,14.032,0,0,0-1.127-2c.476-.426.954-.823,1.4-1.188l.187.026.379.032c.721.058,1.556.082,2.16.082a4.083,4.083,0,0,0,.841-.041,2.015,2.015,0,0,0-.289-1.67c.146-.2.312-.429.5-.695.508-.184,1.165-.289,1.43-.385a1.736,1.736,0,0,0,.6-.318,59.518,59.518,0,0,1,19.547,11.844m-29.389-3.54-.356-.6.012-.023.5.537-.152.082m.622-.318-.047-.079.064.067-.018.012m.286-.128-.158-.263.219.236-.061.026m.327-.146-.193-.324.268.295-.076.029m.321-.128-.231-.388.324.353-.093.035m.336-.128c-.16-.277-.35-.593-.54-.908l.628.683c.082.088.128.128.146.128.038,0-.047-.172-.193-.429l.35.382-.391.143m.593-.216c-.222-.385-.537-.9-.817-1.372l.887.966c.079.085.125.125.143.125.038,0-.044-.172-.19-.429l.493.537-.517.172" transform="translate(-288.26 302.52)" fill="#b5431d"/>
        </g>
      </g>
      <path id="path26" d="M534.422-227.094c-15.671,0-28.469-2.44-29.255-5.507l-.105-.11c-1.051-3.729-4.816-17.7-4.2-27.13.36,3.044,8.125,4.923,18.675,6.027h0l0-.11-.06-1.792c-9.366-.879-15.884-2.353-15.972-4.373-.075-1.8,13.589-5.043,30.864-5.043s30.867,2.708,31.044,5.159c.128,1.725-6.8,3.274-16.259,4.15l.075,1.84,0,.033c10.527-1.094,18.287-2.848,18.7-5.87a92.852,92.852,0,0,1-4.215,26.98c-.158,3.181-13.211,5.747-29.29,5.747m-.055-24.6c-5.2,0-10.094.243-14.407.671l1.562,10.663c4.42.37,8.485.526,12.422.526,4.475,0,8.785-.2,13.268-.526l1.559-10.663c-4.313-.428-9.211-.671-14.4-.671" transform="translate(411 1165.291)" fill="#b5431d"/>
      <g id="oil" transform="translate(545 346)">
        <path id="path30" d="M576.187-131.437H555.7a2.14,2.14,0,0,1-2.063-2.206V-165.09a2.133,2.133,0,0,1,2.063-2.2h20.488a2.133,2.133,0,0,1,2.061,2.2v31.448a2.14,2.14,0,0,1-2.061,2.206m-10.248-26.622c-4.484,0-8.123,3.894-8.123,8.7s3.639,8.692,8.123,8.692a8.426,8.426,0,0,0,8.129-8.692,8.427,8.427,0,0,0-8.129-8.7" transform="translate(-54 948.041)" fill="#b5431d"/>
        <path id="path32" d="M558.781-168.232H566.5v-5.9h-7.721Z" transform="translate(-50.511 948.041)" fill="#b5431d"/>
        <path id="path34" d="M562.936-149.419a5.368,5.368,0,0,1-.68-.044l-.11-3.755-1.434.726-1.934.275-.582-.8,1.836-2.974v-.477l.782-1.434.455-.3-.26-.451.26-1.906,1.334,1.936v.375l.08-.428.254-1.883,1.029,1.377-.008.9-.2.227,1.527,2.529,1.762,4.414a5.838,5.838,0,0,1-4.109,1.688m-4.319-4.037-.288.462.157.254h.2l.108.182.051-.216.349-.095v-.405l-.22-.182h-.354m3.088-2.891-.269.269.269.267.267-.267-.267-.269" transform="translate(-50.368 953.945)" fill="#b5431d"/>
        <path id="path36" d="M577.674-134.032c-3.212,0-5.766-2.264-5.553-4.672.259-2.977,1.528-5.962,1.917-8.945.685-4.843-.768-9.222-2.221-13.6-.978-3.112-1.741-12.34,4.671-12.656l.349-.012h12.879v.887h-8.986l-.418.3.418.3h8.986v.625h-8.986l-.418.3.418.3h8.986v.623h-8.986l-.418.3.418.3h8.986v.623h-8.986l-.418.3.418.3h8.986v.623h-8.986l-.418.3.418.307h8.986v.619h-8.986l-.418.3.418.3h8.986v.617h-8.986l-.418.3.418.3h8.986v.621h-8.986l-.418.3.418.3h8.986v.623h-8.986l-.418.3.418.3h8.986V-162h-8.986l-.418.3.418.3h8.986v.623h-8.986l-.418.3.418.307h8.986v.617h-8.986l-.418.3.418.3h8.986v.621h-8.986l-.418.3.418.3h8.986v.619h-8.986l-.418.307.418.3h8.986v.652l-6.654.492c-2.706.3-2.162,7.412-.874,11.7.587,1.874,2.255,6.4-.128,8.156l-.264.175a7.547,7.547,0,0,1-4.121,1.278" transform="translate(-43 950.694)" fill="#b5431d"/>
      </g>
      <path id="path24" d="M514.622-29.818a4.474,4.474,0,0,1-1.059-.128,4.505,4.505,0,0,1-2.928-2.3,22.9,22.9,0,0,1-4.441-2.3,4.768,4.768,0,0,1-.618.042,4.49,4.49,0,0,1-3.062-1.2,4.511,4.511,0,0,1-1.439-3.509,23.072,23.072,0,0,1-2.347-3.528,4.508,4.508,0,0,1-2.849-2.779,4.507,4.507,0,0,1,.49-3.994,22.883,22.883,0,0,1-.353-4.024c0-.242,0-.486.012-.728a4.507,4.507,0,0,1-1.309-4.08,4.519,4.519,0,0,1,2.81-3.376,22.584,22.584,0,0,1,1.756-3.585,4.519,4.519,0,0,1,.75-4.568,4.506,4.506,0,0,1,3.447-1.589,4.554,4.554,0,0,1,1.076.13c.5-.4,1.018-.779,1.552-1.138a4.517,4.517,0,0,1,2.675-4.124,4.425,4.425,0,0,1,1.817-.387,4.576,4.576,0,0,1,3.1,1.218c.3-.069.6-.13.9-.187a4.509,4.509,0,0,1,4.217-2.9,4.508,4.508,0,0,1,4.215,2.9c.505.094,1,.2,1.5.334a4.527,4.527,0,0,1,3.2-1.329,4.464,4.464,0,0,1,1.971.459,4.505,4.505,0,0,1,2.513,4.5c.343.247.679.508,1.005.772a4.47,4.47,0,0,1,1.535-.269,4.513,4.513,0,0,1,3.528,1.691,4.528,4.528,0,0,1,.4,5.052c.333.591.645,1.2.924,1.822a4.524,4.524,0,0,1,3.727,3.548,4.521,4.521,0,0,1-1.746,4.541c.022.426.034.861.034,1.3,0,.611-.022,1.212-.069,1.81a4.51,4.51,0,0,1,1.317,4.72,4.514,4.514,0,0,1-3.359,3.07,23.51,23.51,0,0,1-1.383,2.54,4.514,4.514,0,0,1-1.106,4.45A4.506,4.506,0,0,1,533.8-35.6a4.5,4.5,0,0,1-.809-.073,23.087,23.087,0,0,1-3.1,2.074,4.5,4.5,0,0,1-2.962,3.026,4.483,4.483,0,0,1-1.366.214,4.529,4.529,0,0,1-2.516-.767,22.961,22.961,0,0,1-4.227.392c-.476,0-.947-.017-1.415-.044a4.518,4.518,0,0,1-2.783.964m-.14-6.058a2.21,2.21,0,0,0-2.145,1.688,2.209,2.209,0,0,0,1.625,2.668,2.163,2.163,0,0,0,.525.063,2.213,2.213,0,0,0,2.148-1.69,2.214,2.214,0,0,0-1.626-2.669,2.263,2.263,0,0,0-.527-.061m11.3-.564a2.211,2.211,0,0,0-.669.105,2.209,2.209,0,0,0-1.437,2.776,2.215,2.215,0,0,0,2.109,1.545,2.182,2.182,0,0,0,.669-.106,2.215,2.215,0,0,0,1.437-2.778,2.217,2.217,0,0,0-2.109-1.542m-20.641-4.281a2.217,2.217,0,0,0-1.623.709,2.212,2.212,0,0,0,.118,3.126,2.2,2.2,0,0,0,1.5.588,2.211,2.211,0,0,0,1.626-.709,2.214,2.214,0,0,0-.12-3.123,2.209,2.209,0,0,0-1.5-.591m29.152-1.133a2.2,2.2,0,0,0-1.577.663,2.208,2.208,0,0,0,.03,3.125,2.2,2.2,0,0,0,1.55.636,2.206,2.206,0,0,0,1.579-.663,2.213,2.213,0,0,0-.032-3.126,2.2,2.2,0,0,0-1.55-.635m-14.1-1.633a2.21,2.21,0,0,0-2.212,2.209,2.211,2.211,0,0,0,2.212,2.212,2.209,2.209,0,0,0,2.209-2.212,2.208,2.208,0,0,0-2.209-2.209m-8.925-.1a2.212,2.212,0,0,0-2.212,2.212,2.21,2.21,0,0,0,2.212,2.209,2.212,2.212,0,0,0,2.214-2.209,2.214,2.214,0,0,0-2.214-2.212m16.377-.395a2.214,2.214,0,0,0-2.209,2.213,2.21,2.21,0,0,0,2.209,2.21,2.211,2.211,0,0,0,2.214-2.21,2.215,2.215,0,0,0-2.214-2.213M499.508-49a2.229,2.229,0,0,0-.74.128,2.212,2.212,0,0,0-1.346,2.824,2.217,2.217,0,0,0,2.087,1.471,2.157,2.157,0,0,0,.736-.127,2.212,2.212,0,0,0,1.346-2.823A2.21,2.21,0,0,0,499.508-49m39.7-1.365a2.206,2.206,0,0,0-2.111,1.555,2.209,2.209,0,0,0,1.452,2.768,2.3,2.3,0,0,0,.66.1,2.212,2.212,0,0,0,2.109-1.553,2.208,2.208,0,0,0-1.452-2.771,2.2,2.2,0,0,0-.657-.1m-12.162-.479a2.209,2.209,0,0,0-2.209,2.211,2.211,2.211,0,0,0,2.209,2.213,2.213,2.213,0,0,0,2.212-2.213,2.211,2.211,0,0,0-2.212-2.211m-14.317-.1a2.212,2.212,0,0,0-2.209,2.215,2.208,2.208,0,0,0,2.209,2.209,2.208,2.208,0,0,0,2.209-2.209,2.212,2.212,0,0,0-2.209-2.215m-7.65-2.844a2.214,2.214,0,0,0-2.209,2.213,2.21,2.21,0,0,0,2.209,2.21,2.209,2.209,0,0,0,2.212-2.21,2.213,2.213,0,0,0-2.212-2.213m28.639-1.859a2.212,2.212,0,0,0-2.214,2.209,2.214,2.214,0,0,0,2.214,2.212,2.21,2.21,0,0,0,2.209-2.212,2.208,2.208,0,0,0-2.209-2.209m-14.123,0a2.21,2.21,0,0,0-2.212,2.209,2.212,2.212,0,0,0,2.212,2.212,2.212,2.212,0,0,0,2.212-2.212,2.21,2.21,0,0,0-2.212-2.209m-21.1-4.187a2.211,2.211,0,0,0-2.173,1.8,2.212,2.212,0,0,0,1.763,2.582,2.431,2.431,0,0,0,.412.037,2.208,2.208,0,0,0,2.17-1.8A2.214,2.214,0,0,0,498.9-59.8a2.323,2.323,0,0,0-.4-.036m41.075-.984a2.162,2.162,0,0,0-.449.047,2.208,2.208,0,0,0-1.721,2.609,2.214,2.214,0,0,0,2.163,1.767,2.161,2.161,0,0,0,.449-.046,2.21,2.21,0,0,0,1.721-2.612,2.213,2.213,0,0,0-2.163-1.765m-27.234-.422a2.212,2.212,0,0,0-2.209,2.214,2.208,2.208,0,0,0,2.209,2.209,2.21,2.21,0,0,0,2.212-2.209,2.214,2.214,0,0,0-2.212-2.214m14.712-.294a2.212,2.212,0,0,0-2.212,2.211,2.212,2.212,0,0,0,2.212,2.212,2.21,2.21,0,0,0,2.209-2.212,2.21,2.21,0,0,0-2.209-2.211m-21.381-2.06a2.212,2.212,0,0,0-2.209,2.214,2.21,2.21,0,0,0,2.209,2.21,2.214,2.214,0,0,0,2.214-2.21,2.216,2.216,0,0,0-2.214-2.214m27.754-.588a2.212,2.212,0,0,0-2.212,2.212,2.213,2.213,0,0,0,2.212,2.214,2.212,2.212,0,0,0,2.212-2.214,2.21,2.21,0,0,0-2.212-2.212M519.2-66.631a2.212,2.212,0,0,0-2.214,2.209,2.215,2.215,0,0,0,2.214,2.214,2.213,2.213,0,0,0,2.212-2.214,2.21,2.21,0,0,0-2.212-2.209m-6.571-2.452a2.21,2.21,0,0,0-2.212,2.209,2.214,2.214,0,0,0,2.212,2.214,2.215,2.215,0,0,0,2.212-2.214,2.21,2.21,0,0,0-2.212-2.209m-9.668-.506a2.215,2.215,0,0,0-1.689.78,2.211,2.211,0,0,0,.255,3.117,2.2,2.2,0,0,0,1.43.525,2.206,2.206,0,0,0,1.687-.78,2.211,2.211,0,0,0-.253-3.117,2.2,2.2,0,0,0-1.43-.525m32.312-.024a2.2,2.2,0,0,0-1.378.485,2.214,2.214,0,0,0-.346,3.11,2.207,2.207,0,0,0,1.729.83,2.2,2.2,0,0,0,1.378-.486,2.208,2.208,0,0,0,.346-3.109,2.2,2.2,0,0,0-1.729-.83m-9.207-.059a2.212,2.212,0,0,0-2.214,2.209,2.215,2.215,0,0,0,2.214,2.214,2.21,2.21,0,0,0,2.209-2.214,2.208,2.208,0,0,0-2.209-2.209m1.944-5.576A2.208,2.208,0,0,0,526.026-74a2.207,2.207,0,0,0,1.02,2.954,2.163,2.163,0,0,0,.969.226A2.208,2.208,0,0,0,530-72.068a2.214,2.214,0,0,0-1.02-2.957,2.2,2.2,0,0,0-.969-.223m-17.676-.044a2.216,2.216,0,0,0-.9.191,2.211,2.211,0,0,0-1.123,2.918,2.214,2.214,0,0,0,2.023,1.314,2.189,2.189,0,0,0,.9-.192,2.21,2.21,0,0,0,1.123-2.917,2.217,2.217,0,0,0-2.023-1.314m8.474-1.93a2.21,2.21,0,0,0-2.212,2.209,2.212,2.212,0,0,0,2.212,2.212,2.21,2.21,0,0,0,2.212-2.212,2.209,2.209,0,0,0-2.212-2.209" transform="translate(426 1395.998)" fill="#b5431d"/>
      <g id="duck" transform="translate(316.181 165.955)">
        <path id="path38" d="M394.6-40.572a1.932,1.932,0,0,1-1.975-1.886v-.871a16.172,16.172,0,0,1-4.066-1.037l-.462.752a1.99,1.99,0,0,1-1.712.945,2.052,2.052,0,0,1-.995-.257,1.844,1.844,0,0,1-.725-2.576l.462-.749a15.184,15.184,0,0,1-2.972-2.835l-.8.439a2.067,2.067,0,0,1-.987.25,2.017,2.017,0,0,1-1.722-.94,1.843,1.843,0,0,1,.727-2.575l.786-.432a14.21,14.21,0,0,1-1.075-3.867h-.924a1.935,1.935,0,0,1-1.975-1.886,1.937,1.937,0,0,1,1.975-1.89h.924a14.248,14.248,0,0,1,1.075-3.867l-.786-.43a1.844,1.844,0,0,1-.727-2.575,2.017,2.017,0,0,1,1.724-.942,2.066,2.066,0,0,1,.985.249l.8.442a15,15,0,0,1,2.972-2.835l-.462-.749a1.844,1.844,0,0,1,.732-2.578,2.025,2.025,0,0,1,.99-.255,1.985,1.985,0,0,1,1.71.945l.462.749a16.214,16.214,0,0,1,4.066-1.032v-.872a1.933,1.933,0,0,1,1.975-1.886,1.936,1.936,0,0,1,1.982,1.886v.872a16.091,16.091,0,0,1,3.115.688,5.658,5.658,0,0,1-1.16.095c-.362,0-.722-.016-1.1-.035l-.36-.009-.289-.033a7.47,7.47,0,0,0-1.06-.095,2.044,2.044,0,0,0-2.3,1.775v.1a2.431,2.431,0,0,0,.961,1.75l.2.19-.073.224a1.912,1.912,0,0,0,.09,1.69,2.513,2.513,0,0,0,1.766.965,5.912,5.912,0,0,0,1,.077,11.829,11.829,0,0,0,1.948-.2c.343-.068.686-.146,1.024-.222.623-.148,1.221-.276,1.819-.38.934,1.86.3,3.673-.834,6.5-1.223,3.072-2.753,6.9-1.467,11.924a11.347,11.347,0,0,0,3.016,5.195h-.053a2.02,2.02,0,0,1-1.722-.946l-.452-.752a16.3,16.3,0,0,1-4.066,1.037v.871a1.936,1.936,0,0,1-1.982,1.886" transform="translate(-57.055 1233.998)" fill="#b5431d"/>
        <path id="path40" d="M413.507-39.223c-9.474,0-18.4-3.164-20.222-9.47-2.452-8.479,5.331-12.964,2.284-17.942,1.631.049,2.843.788,4.432,1.165a4.925,4.925,0,0,0,1.314.17c1.387,0,2.911-.529,3.362-1.887.587-1.716-.341-3.834-3.4-3.894a2.478,2.478,0,0,1,2.145,3.3,2.9,2.9,0,0,1-2.932,1.646,4.291,4.291,0,0,1-1.138-.148c-1.453-.347-2.523-1.024-4.036-1.024-.066,0-.134,0-.2,0l-.178.009c-1.277.123-2.622.443-3.97.695a11.807,11.807,0,0,1-1.77.163,5.085,5.085,0,0,1-.829-.061c-1.571-.247-.771-.715-.7-1.6.076-.755-1.269-1.158-1.269-1.783l.186-.352a1.351,1.351,0,0,1,.836-.2c.451,0,.954.085,1.3.113.577.017,1.148.044,1.7.044a6.471,6.471,0,0,0,2.858-.512l.459-.263v-.033c.294-3.731,4.159-5.688,8.006-5.688a10.142,10.142,0,0,1,4.227.881,6.425,6.425,0,0,1,3.5,8.406c-1.1,2.661-3.215,5-3.2,7.9a5.9,5.9,0,0,0,.058.8c.6,3.912,5.391,5.545,9.589,5.677.094,0,.189,0,.289,0,3.223,0,8.881-1.313,12.209-4.889l.008-.009a9.568,9.568,0,0,0,2.481-4.845,9.2,9.2,0,0,1,6.425,13.611l-.039.066-.244.417-.089.133c-4.059,6.27-14.018,9.4-23.437,9.4M412.348-49.46a14.735,14.735,0,0,0-1.883.116c-3.388.437-6.637,2.185-6.249,5.357a4.142,4.142,0,0,0,1.233,2.277,31.948,31.948,0,0,0,8.653,1.127c7.7,0,15.817-2.4,19.672-7.233a9.65,9.65,0,0,1-4.038.766c-.095,0-.189,0-.286,0a52.37,52.37,0,0,1-9.238-1.306,47.113,47.113,0,0,0-7.864-1.1M391.329-68.523c-.642,0-.991.048-.787.245a1.589,1.589,0,0,0,.836.245h.042a15.36,15.36,0,0,0,1.66.069c1.474,0,3.32-.093,4.82-.093.207,0,.619.015,1.093.015,1.232,0,2.908-.1,2.7-.794l-.129-.24a1.7,1.7,0,0,0-1.272-.365,14.569,14.569,0,0,0-3.668.7,11.185,11.185,0,0,1-2.816.271c-.469,0-.933-.013-1.358-.024s-.808-.024-1.12-.024m8.769-5.03a.913.913,0,0,0-.976.821.914.914,0,0,0,.976.823.914.914,0,0,0,.978-.823.914.914,0,0,0-.978-.821" transform="translate(-49 1233.998)" fill="#b5431d"/>
      </g>
      <path id="path28" d="M381.478-217.8l-12.105-11.481,4.6-6.765c5.545-6.517,4.913-8.208,7.938-15.9.73-1.849,1.984-3.12,2.993-4.625,1.128-1.674,2.439-4.059,3.976-6.084,1.655-2.175,3.09-3.6,4.5-4.207a12.678,12.678,0,0,1,2.151-1.6,3.716,3.716,0,0,1,1.486-.579c.447,0,.382.458-.649,1.561l-.4.417h.019a35.753,35.753,0,0,0-7.61,9.139c-1.042,1.709-2.568,4.277-1.814,4.751,1.028-1.456,1.981-2.759,2.929-4.232,3-3.963,6.757-9.136,9.637-10.859a4.006,4.006,0,0,1,.708-.065h.043a15.649,15.649,0,0,1,1.892-1.545,4.141,4.141,0,0,1,1.911-.948c.813,0,.24,1.448-.8,2.649-.223.258-.433.525-.641.8a3.241,3.241,0,0,1,.719,3.01,34.6,34.6,0,0,0-7.858,6.234,30.718,30.718,0,0,0-3.831,4.412c-.46.794-1.887,2.988-.991,3.844a.082.082,0,0,0,.027,0c.555,0,1.413-1.954,1.954-2.813a23.838,23.838,0,0,1,3.327-3.761c3.823-3.935,4.175-4.487,7.72-6.261l.544.2.318-.153a14.745,14.745,0,0,0,.307,3.508c.065.307.145.619.237.931a17.394,17.394,0,0,0,1.516,3.5c.738,1.327,1.572,2.641,2.385,3.917.63.993,1.343,2.1,2.145,3.373l-.729.342.342,1.308c.506.436.948.63.993,1.365.331,7.971,1.882,17.764,7.077,25.454l-.9.011c-5.031-7.637-6.544-17.279-6.875-25.142-.04-.735-.261-.9-.762-1.335l-.7-1.857.573-.4c-.888-1.351-1.682-2.557-2.382-3.715a6.243,6.243,0,0,1-2,4.921c-3.836,3.7-10.229,7.43-12.7,10.827-.977,1.341,1.284.536-.024,2.423s-3.747,2.415-4.98,4.078a63.075,63.075,0,0,0-6.226,11.354m23.9-37.538c-.293.175-.576.3-.773.4l-4.611,2.18c-1.478.625-2.665,2.6-3.963,3.524-2.643,1.884-2.713,2.3-2.339,5.51.843-3.228.571-2.267,3.669-4.762,1.171-.942,1.949-2.415,3.384-3.082l4.353-2.014h0c.334-.132.649-.25.921-.342-.229-.466-.444-.937-.641-1.416M421.084-219c-4.73-6.267-7.715-14.816-8.181-25.385l-.008-.137a3.005,3.005,0,0,1,.334-2.059l-.5-1.664,2.186,1.305.011.054c7.815,6.38,13.608,11.616,17.766,17.562h-1.717c-3.36-4.719-7.772-7.976-15.818-14.66a57.528,57.528,0,0,0,.678,6.369,38.086,38.086,0,0,0,6.267,15.85L421.084-219m14.17-10.323c-4.129-6.705-11.89-12.509-18.1-17.454l-3.292-1.133c-3.793-6.735-7.782-10.929-9.306-18.017l1.629,2.53.2-.059a6.443,6.443,0,0,1,1.707-.326.949.949,0,0,1,.536.118h0c-.277-.651-.565-1.3-.856-1.946q-.282-.63-.573-1.254a20.411,20.411,0,0,1,5.432,9.131l-.541.005,5.564,8.738.1,2.03c6.565,4.781,13.107,9.718,17.653,16.647l-.153.991m-25.3-28.889h0l-.1-.361.218-1.311c-.172-.509-.35-1-.528-1.472-.25-.67-.517-1.332-.791-1.995-.046.425-.67,1.079-1.5,1.631l2.194,3.416.5.091" transform="translate(266.051 1163.242)" fill="#b5431d"/>
      <g id="dog" transform="translate(230 325)">
        <path id="path44" d="M342.835-116.747H316.257v-2.746l3.645-2.587,1.819.415,3.942-1.181,3.422,1.031-.08-5.9,2.553-4.674,4.5-3.686,2.7-9.5,2.647-6.277,4.232-4.128.742-3.14v-.019l.826-1.758.017-.036.043-.087,1.891-3.635.116-2.391.976-1.418.739-1.857.956-.616-.35-3.966.529-1.242.959.87-.07-.906.667-.6,2.669,4.522-.292,1.126h2.2l2.461,1.937,4.48.2,1.056.043v2.039l-1.382,2.572.08.58-2.314,1.988-4.092.386-.036.266,1.068,3.942h-.925l-.266.87-.816-.273-.592,1.524,2.28,2.71.343,4.232h-4.717a2.921,2.921,0,0,0-2.91,2.911v1.971H345.4a3.076,3.076,0,0,0-3.067,3.072v21.738a3.033,3.033,0,0,0,.5,1.681" transform="translate(-43 962.998)" fill="#b5431d"/>
        <path id="path46" d="M362.276-130.215H333.123a1.734,1.734,0,0,1-1.741-1.736v-21.668a1.743,1.743,0,0,1,1.741-1.748h7.868v-3.279a1.585,1.585,0,0,1,1.587-1.587h10.235a1.585,1.585,0,0,1,1.587,1.587v3.279h7.878a1.745,1.745,0,0,1,1.736,1.748v21.668a1.737,1.737,0,0,1-1.736,1.736m-19.538-25.152h9.917v-3.123h-9.917" transform="translate(-31 976.466)" fill="#b5431d"/>
      </g>
      <path id="path444" d="M532.946-228.731v104.16a6.619,6.619,0,0,1-6.618,6.615h-.13a6.621,6.621,0,0,1-6.633-6.615l4.912-104.16h8.469" transform="translate(434 1209.861)" fill="#ff9b10"/>
      <path id="path446" d="M530.047-223.031h20.059a1.591,1.591,0,0,1,1.593,1.59v.032a1.594,1.594,0,0,1-1.593,1.593H530.047c-1.2,0-2.185.369-2.185.8V-219c0,.432.981.789,2.185.789h20.059a1.593,1.593,0,0,1,1.593,1.59v.032a1.594,1.594,0,0,1-1.593,1.593H530.047c-1.2,0-2.185.368-2.185.8v.017c0,.435.981.789,2.185.789h20.059a1.591,1.591,0,0,1,1.593,1.59v.032a1.591,1.591,0,0,1-1.593,1.59H530.047c-1.2,0-2.185.371-2.185.8v.017c0,.435.981.789,2.185.789h20.059a1.591,1.591,0,0,1,1.593,1.59v.029a1.594,1.594,0,0,1-1.593,1.593H530.047c-1.2,0-2.185.371-2.185.8v.015c0,.435.981.789,2.185.789h20.059a1.594,1.594,0,0,1,1.593,1.593v.029a1.594,1.594,0,0,1-1.593,1.593H530.047c-1.2,0-2.185.368-2.185.8v.014c0,.435.981.789,2.185.789h20.059a1.592,1.592,0,0,1,1.593,1.593v.032a1.591,1.591,0,0,1-1.593,1.587H530.047c-1.2,0-2.185.371-2.185.807v.017c0,.432.981.786,2.185.786h20.059a1.591,1.591,0,0,1,1.593,1.59v.035a1.591,1.591,0,0,1-1.593,1.587H530.047c-1.2,0-2.185.371-2.185.807v.015c0,.435.981.786,2.185.786h20.059a1.594,1.594,0,0,1,1.593,1.593v.032a1.594,1.594,0,0,1-1.593,1.593H530.047c-1.2,0-2.185.369-2.185.8v.017c0,.432.981.786,2.185.786h20.059a1.592,1.592,0,0,1,1.593,1.593v.032a1.594,1.594,0,0,1-1.593,1.593H530.047c-1.2,0-2.185.368-2.185.8v.017c0,.432.981.786,2.185.786h20.059a1.593,1.593,0,0,1,1.593,1.59v.035a1.591,1.591,0,0,1-1.593,1.59H530.047c-1.2,0-2.185.371-2.185.8v.014c0,.435.981.789,2.185.789h19.682a1.575,1.575,0,0,1,1.407,2.333c-1.1,1.77-3.734,1.813-6.8,1.813h-20.77v-58.07h20.77c2.884,0,5.374.038,6.584,1.515a1.6,1.6,0,0,1-1.256,2.582H530.047c-1.2,0-2.185.371-2.185.8v.017c0,.432.981.786,2.185.786" transform="translate(439 1209.998)" fill="#ff9b10"/>
      <path id="path440" d="M559.326-117.482h-6.2a5.629,5.629,0,0,1-4.545-2.3,76.037,76.037,0,0,1,10.741-9.424,60.075,60.075,0,0,0,4.914-4l.737,10.081a5.644,5.644,0,0,1-5.642,5.642m24-64.328A58.793,58.793,0,0,0,550.2-229.747a28.274,28.274,0,0,1,5.781-.6h.492c15.047,0,27.288,11.832,27.288,26.372v17.463a25.274,25.274,0,0,1-.435,4.7" transform="translate(467.758 1206.414)" fill="#41322d"/>
      <path id="path442" d="M559.318-119.777a5.628,5.628,0,0,1-1.1-3.348l2.759-37.723c-12.333-2.568-21.609-13.176-21.609-25.85v-17.516c0-12.662,9.256-23.276,21.574-25.853a58.969,58.969,0,0,1,33.225,48.08A26.962,26.962,0,0,1,573-160.849l2.019,27.612a60.226,60.226,0,0,1-4.929,4.007,76.314,76.314,0,0,0-10.773,9.453" transform="translate(457.09 1207.043)" fill="#382822"/>
      <path id="path450" d="M551.433-198.232v40.895h3.109a5.541,5.541,0,0,0,5.661-5.41l-2.76-36.059a29.53,29.53,0,0,1-5.762.574h-.248" transform="translate(472 1245.551)" fill="#ff9b10"/>
      <path id="path452" d="M551.679-231.027h-.246v2.985h.246a24.163,24.163,0,0,1,24.2,24.131v17.956a24.162,24.162,0,0,1-24.2,24.128h-.246v1.365h5.876l.069,1a27.143,27.143,0,0,0,21.374-26.5v-17.959a27.125,27.125,0,0,0-27.072-27.114" transform="translate(472.427 1207.098)" fill="#ffb93a"/>
      <path id="path454" d="M552.6-226.1l.2.015h-.2Zm14.581,65.2v-1.357h-.256c-13.934,0-25.231-10.733-25.231-23.977v-17.844c0-13.247,11.3-23.98,25.231-23.98h.256v-2.967h-.256c-15.567,0-28.235,12.087-28.235,26.944v17.847c0,12.908,9.568,23.718,22.293,26.331l.072-1h6.127" transform="translate(456.684 1207.098)" fill="#ff9b10"/>
      <path id="path458" d="M559.506-219.186a2.037,2.037,0,0,1-2.057-2.017,2.039,2.039,0,0,1,2.057-2.02,2.043,2.043,0,0,1,2.063,2.02A2.04,2.04,0,0,1,559.506-219.186Zm0,12.432a2.039,2.039,0,0,1-2.057-2.017,2.039,2.039,0,0,1,2.057-2.02,2.043,2.043,0,0,1,2.063,2.02A2.042,2.042,0,0,1,559.506-206.753Zm0,12.432a2.039,2.039,0,0,1-2.057-2.02,2.039,2.039,0,0,1,2.057-2.02,2.043,2.043,0,0,1,2.063,2.02A2.043,2.043,0,0,1,559.506-194.321Zm0,12.429a2.039,2.039,0,0,1-2.057-2.017,2.037,2.037,0,0,1,2.057-2.017,2.04,2.04,0,0,1,2.063,2.017A2.042,2.042,0,0,1,559.506-181.891Zm0,12.432a2.039,2.039,0,0,1-2.057-2.02,2.037,2.037,0,0,1,2.057-2.017,2.04,2.04,0,0,1,2.063,2.017A2.043,2.043,0,0,1,559.506-169.459Zm-6.372-43.515a2.042,2.042,0,0,1-2.06-2.02,2.04,2.04,0,0,1,2.06-2.017,2.038,2.038,0,0,1,2.063,2.017A2.041,2.041,0,0,1,553.134-212.974Zm0,12.429a2.038,2.038,0,0,1-2.06-2.017,2.041,2.041,0,0,1,2.06-2.017,2.04,2.04,0,0,1,2.063,2.017A2.036,2.036,0,0,1,553.134-200.544Zm0,12.432a2.04,2.04,0,0,1-2.06-2.017,2.042,2.042,0,0,1,2.06-2.02,2.041,2.041,0,0,1,2.063,2.02A2.038,2.038,0,0,1,553.134-188.112Zm0,12.429a2.038,2.038,0,0,1-2.06-2.017,2.041,2.041,0,0,1,2.06-2.017A2.04,2.04,0,0,1,555.2-177.7,2.036,2.036,0,0,1,553.134-175.682Zm-6.348-31.071a2.042,2.042,0,0,1-2.063-2.017,2.043,2.043,0,0,1,2.063-2.02,2.039,2.039,0,0,1,2.057,2.02A2.039,2.039,0,0,1,546.785-206.753Zm0,12.432a2.043,2.043,0,0,1-2.063-2.02,2.043,2.043,0,0,1,2.063-2.02,2.039,2.039,0,0,1,2.057,2.02A2.039,2.039,0,0,1,546.785-194.321Zm0,12.429a2.042,2.042,0,0,1-2.063-2.017,2.04,2.04,0,0,1,2.063-2.017,2.037,2.037,0,0,1,2.057,2.017A2.039,2.039,0,0,1,546.785-181.891Zm-6.756-23.69v17.934c0,13.311,11.449,24.1,25.571,24.1h.26v-12.134A2.038,2.038,0,0,1,563.8-177.7a2.042,2.042,0,0,1,2.063-2.017v-8.395a2.04,2.04,0,0,1-2.063-2.017,2.043,2.043,0,0,1,2.063-2.02v-8.395a2.038,2.038,0,0,1-2.063-2.017,2.042,2.042,0,0,1,2.063-2.017v-8.395a2.043,2.043,0,0,1-2.063-2.02,2.04,2.04,0,0,1,2.063-2.017v-12.672h-.26c-14.122,0-25.571,10.788-25.571,24.1" transform="translate(458 1208.387)" fill="#30b0a9"/>
      <path id="path460" d="M557.462-172.724a2,2,0,0,1,1.955,2.045,2.005,2.005,0,0,1-1.955,2.048,2,2,0,0,1-1.947-2.048A2,2,0,0,1,557.462-172.724Zm0-12.6a2,2,0,0,1,1.955,2.045,2,2,0,0,1-1.955,2.045,2,2,0,0,1-1.947-2.045A2,2,0,0,1,557.462-185.324Zm0-12.606a2.005,2.005,0,0,1,1.955,2.048,2.005,2.005,0,0,1-1.955,2.048,2,2,0,0,1-1.947-2.048A2,2,0,0,1,557.462-197.931Zm0-12.6a2.005,2.005,0,0,1,1.955,2.048,2,2,0,0,1-1.955,2.045,2,2,0,0,1-1.947-2.045A2,2,0,0,1,557.462-210.531Zm0-12.6a2.005,2.005,0,0,1,1.955,2.048,2,2,0,0,1-1.955,2.045,2,2,0,0,1-1.947-2.045A2,2,0,0,1,557.462-223.134Zm6.014,44.1a2,2,0,0,1,1.949,2.045,2,2,0,0,1-1.949,2.045,2,2,0,0,1-1.953-2.045A2,2,0,0,1,563.476-179.03Zm0-12.6a2,2,0,0,1,1.949,2.048,2,2,0,0,1-1.949,2.045,2,2,0,0,1-1.953-2.045A2,2,0,0,1,563.476-191.633Zm0-12.6a2,2,0,0,1,1.949,2.045,2,2,0,0,1-1.949,2.045,2,2,0,0,1-1.953-2.045A2,2,0,0,1,563.476-204.234Zm0-12.6a2,2,0,0,1,1.949,2.045,2,2,0,0,1-1.949,2.048,2,2,0,0,1-1.953-2.048A2,2,0,0,1,563.476-216.837Zm6.031,31.513a2,2,0,0,1,1.952,2.045,2,2,0,0,1-1.952,2.045,2,2,0,0,1-1.95-2.045A2,2,0,0,1,569.508-185.324Zm0-12.606a2,2,0,0,1,1.952,2.048,2,2,0,0,1-1.952,2.048,2,2,0,0,1-1.95-2.048A2,2,0,0,1,569.508-197.931Zm0-12.6a2,2,0,0,1,1.952,2.048,2,2,0,0,1-1.952,2.045,2,2,0,0,1-1.95-2.045A2,2,0,0,1,569.508-210.531Zm-16.125-4.261a2,2,0,0,1-1.949,2.048v8.51a2,2,0,0,1,1.949,2.045,2,2,0,0,1-1.949,2.045v8.51a2,2,0,0,1,1.949,2.048,2,2,0,0,1-1.949,2.045v8.51a2,2,0,0,1,1.949,2.045,2,2,0,0,1-1.949,2.045v12.3h.246a24.317,24.317,0,0,0,24.2-24.43V-205.25a24.318,24.318,0,0,0-24.2-24.433h-.246v12.846a2,2,0,0,1,1.949,2.045" transform="translate(472 1208.387)" fill="#29948e"/>
      <path id="path526" d="M554.649-198.232a21.535,21.535,0,0,1-4.91-.574l-2.352,36.058c0,2.988,2.16,5.41,4.824,5.41h2.65v-40.893h-.212" transform="translate(469 1245.553)" fill="#ffb93a"/>
      <path id="path198" d="M581.989-57.848a4.684,4.684,0,0,1-4.641,4.725H531.185a4.684,4.684,0,0,1-4.641-4.725v-67.415a4.685,4.685,0,0,1,4.641-4.727h46.163a4.685,4.685,0,0,1,4.641,4.727v67.415" transform="translate(441.324 1325.93)" fill="#7d8aeb"/>
      <path id="path200" d="M535.087-116.469h18.584v-24.887H535.087Z" transform="translate(452 1312.408)" fill="#eaeaea"/>
      <path id="path206" d="M565.3-94.88a25.317,25.317,0,0,1-14.493,4.268c-.808,0-1.6-.031-2.4-.109l-.382-9.5-5.044,1.833-6.816.707-2.054-2.032,6.471-7.515v-1.216l2.745-3.62,1.608-.771-.9-1.14.9-4.836,4.7,4.9v.955l.3-1.077.9-4.775,3.625,3.5-.048,2.3-.7.57,5.381,6.409L565.3-94.88" transform="translate(446.149 1340.176)" fill="#c48e6a"/>
      <path id="path208" d="M537.9-113.14a.745.745,0,0,1,.745-.747.743.743,0,0,1,.738.747.748.748,0,0,1-.738.749.749.749,0,0,1-.745-.749" transform="translate(454.814 1345.502)" fill="#2b2823"/>
      <path id="path210" d="M534.271-109.641l.336.473h.414l.243.336.095-.406.752-.181v-.752l-.467-.338h-.749l-.623.868" transform="translate(446.168 1349.998)" fill="#3a3730"/>
      <path id="path214" d="M537.705-116.054l-.075-.131-.223-.4.16-1.2.137-1.027,1.217,1.767.34.493v.441l-.28-.132-1.277.191" transform="translate(460 1342.998)" fill="#9d7255"/>
      <path id="path194" d="M579.578-38.919H531.644a4.844,4.844,0,0,1-4.093-2.22,4.877,4.877,0,0,0,2.545.71h47.937a4.767,4.767,0,0,0,4.819-4.712v-67.224a4.607,4.607,0,0,0-.726-2.49,4.683,4.683,0,0,1,2.274,4v67.23a4.767,4.767,0,0,1-4.822,4.708M565.1-117.079h-1.548v-5.627c.476-1.334.937-2.674,1.38-4.005a1.15,1.15,0,0,0-.756-1.455,1.207,1.207,0,0,0-.367-.056,1.07,1.07,0,0,0-.256.029v-12.48H565.1v5.454c-.045.153-.09.309-.132.462a1.107,1.107,0,0,0,.132.922v16.756" transform="translate(440.317 1311.727)" fill="#382822"/>
      <path id="path236" d="M404.882-191.356h-1.931a32.579,32.579,0,0,0-2.277-8.548l1.662-.958a4.164,4.164,0,0,0,1.523-5.683,4.166,4.166,0,0,0-5.689-1.523l-1.668.961a33.2,33.2,0,0,0-6.251-6.251l.964-1.671a4.164,4.164,0,0,0-1.526-5.686A4.161,4.161,0,0,0,384-219.188l-.958,1.659a32.652,32.652,0,0,0-8.545-2.28v-1.925a4.162,4.162,0,0,0-4.163-4.163,4.162,4.162,0,0,0-4.163,4.163v1.925a32.682,32.682,0,0,0-8.545,2.28l-.958-1.659a4.161,4.161,0,0,0-5.686-1.526,4.16,4.16,0,0,0-1.523,5.686l.961,1.671a33.107,33.107,0,0,0-6.25,6.251l-1.668-.961a4.165,4.165,0,0,0-5.689,1.523,4.162,4.162,0,0,0,1.526,5.683L340-199.9a32.766,32.766,0,0,0-2.274,8.545H335.8a4.164,4.164,0,0,0-4.166,4.163,4.163,4.163,0,0,0,4.166,4.16h1.928A32.56,32.56,0,0,0,340-174.488l-1.659.961a4.166,4.166,0,0,0-1.526,5.686,4.164,4.164,0,0,0,5.689,1.526l1.668-.964a33.035,33.035,0,0,0,6.253,6.251l-.964,1.668a4.161,4.161,0,0,0,1.52,5.686,4.165,4.165,0,0,0,5.689-1.52l.958-1.662a32.562,32.562,0,0,0,8.545,2.277v1.928a4.165,4.165,0,0,0,4.163,4.163,4.165,4.165,0,0,0,4.163-4.163v-1.928a32.534,32.534,0,0,0,8.545-2.277l.958,1.662a4.161,4.161,0,0,0,5.686,1.52,4.163,4.163,0,0,0,1.526-5.686l-.964-1.668a33.1,33.1,0,0,0,6.251-6.251l1.668.964a4.169,4.169,0,0,0,5.689-1.526,4.166,4.166,0,0,0-1.523-5.686l-1.659-.961a32.611,32.611,0,0,0,2.274-8.545h1.931a4.159,4.159,0,0,0,4.16-4.16,4.163,4.163,0,0,0-4.16-4.163" transform="translate(209.519 1212.119)" fill="#30b0a9"/>
      <path id="path320" d="M365.9-195.3c1.568-2.7,1.266-5.79-.665-6.905s-4.773.185-6.341,2.889-1.27,5.79.665,6.9,4.773-.181,6.34-2.881" transform="translate(223.967 1244.93)" fill="#75ded8"/>
      <path id="path322" d="M440.557-164.93l-.079.163c-.152.327-.312.636-.479.946l-.163.309c-15.659,28.751-77.016,28.579-84.008-.175-4.926-20.235,11.62-30.511,3.522-42.548,3.12-.14,5.235,1.5,8.154,2.335,2.594.864,6.82.187,7.83-3.414,1.153-4.036-1.246-9.172-8.842-7.395-2.16,1.15-3.312-1.3-4.9-2.162-2.305-1.153-2.6-.289-4.036,1.3a7.072,7.072,0,0,1-.861.779c.738-11.869,14.72-15.948,23.536-11.057,7.223,4,9.035,12.584,6.73,19.214-2.119,6.082-6.175,11.44-6.158,18.07a14.4,14.4,0,0,0,.105,1.824c1.15,8.933,10.375,12.683,18.446,12.969,6.088.2,17.443-2.737,24.047-11.165l.009-.012a23.653,23.653,0,0,0,4.774-11.1c13.448,3.467,17.8,19.585,12.371,31.126" transform="translate(237.335 1209.73)" fill="#ff9b10"/>
      <path id="path324" d="M410.444-205.446c-6.774,8.648-18.428,11.667-24.675,11.457-8.283-.293-17.749-4.141-18.928-13.308a14.775,14.775,0,0,1-.108-1.872l.548-.347c4.441-2.515,10.649.293,14.937,1.776,8.034,2.962,20.411,7.582,28.227,2.294" transform="translate(251 1231.998)" fill="#ffb93a"/>
      <path id="path326" d="M383.747-212.476c-1.063,3.79-5.51,4.5-8.241,3.593-3.071-.878-5.3-2.6-8.582-2.457l-.372.031c-2.577.3-5.31,1.063-8.038,1.668a15.491,15.491,0,0,1-5.261.255c-3.185-.605-1.566-1.723-1.413-3.845.151-1.821-2.58-2.78-2.58-4.3.154-1.975,3.185-1.216,4.7-1.063,3.7.141,7.276.525,10.169-1.76a7.438,7.438,0,0,0,.906-.82c1.514-1.668,1.821-2.577,4.248-1.364,1.668.912,2.881,3.486,5.154,2.276,7.995-1.87,10.519,3.535,9.306,7.783" transform="translate(229.747 1215.107)" fill="#f70"/>
      <path id="path328" d="M359.218-215.8c-3.143,0-5.587-.2-6.218-.943-.508-.584.37-.729,1.978-.729.8,0,1.772.038,2.845.073s2.249.073,3.441.073a23.858,23.858,0,0,0,7.073-.81c1.073-.416,5.836-2.081,9.239-2.081,1.787,0,3.2.462,3.5,1.807.542,2.078-3.647,2.372-6.745,2.372-1.218,0-2.265-.046-2.8-.046-3.831,0-8.574.286-12.321.286" transform="translate(229 1217.998)" fill="#e25d00"/>
      <path id="path330" d="M363.783-223.211a1.517,1.517,0,0,1-1.665,1.31,1.515,1.515,0,0,1-1.66-1.31,1.517,1.517,0,0,1,1.66-1.308,1.519,1.519,0,0,1,1.665,1.308" transform="translate(250 1213.094)" fill="#333"/>
      <path id="path332" d="M390.915-197.625c-4.735,7.035-16.757,9.144-24.9,6.369a4.578,4.578,0,0,1-1.075-2.372c-.344-3.315,2.513-5.144,5.484-5.6s5.715.456,8.572,1.028a38.825,38.825,0,0,0,8.115,1.372,7.57,7.57,0,0,0,3.805-.8" transform="translate(255 1249.998)" fill="#ffb93a"/>
      <path id="path320-2" data-name="path320" d="M365.9-195.3c1.568-2.7,1.266-5.79-.665-6.905s-4.773.185-6.341,2.889-1.27,5.79.665,6.9,4.773-.181,6.34-2.881" transform="translate(220.967 1229.93)" fill="#75ded8"/>
      <path id="path320-3" data-name="path320" d="M365.9-195.3c1.568-2.7,1.266-5.79-.665-6.905s-4.773.185-6.341,2.889-1.27,5.79.665,6.9,4.773-.181,6.34-2.881" transform="translate(211.967 1241.93)" fill="#75ded8"/>
      <path id="path320-4" data-name="path320" d="M365.9-195.3c1.568-2.7,1.266-5.79-.665-6.905s-4.773.185-6.341,2.889-1.27,5.79.665,6.9,4.773-.181,6.34-2.881" transform="translate(201.967 1235.93)" fill="#75ded8"/>
      <path id="path320-5" data-name="path320" d="M365.9-195.3c1.568-2.7,1.266-5.79-.665-6.905s-4.773.185-6.341,2.889-1.27,5.79.665,6.9,4.773-.181,6.34-2.881" transform="translate(192.967 1224.93)" fill="#75ded8"/>
      <path id="path320-6" data-name="path320" d="M365.9-195.3c1.568-2.7,1.266-5.79-.665-6.905s-4.773.185-6.341,2.889-1.27,5.79.665,6.9,4.773-.181,6.34-2.881" transform="translate(208.967 1222.93)" fill="#75ded8"/>
      <path id="path320-7" data-name="path320" d="M365.9-195.3c1.568-2.7,1.266-5.79-.665-6.905s-4.773.185-6.341,2.889-1.27,5.79.665,6.9,4.773-.181,6.34-2.881" transform="translate(194.967 1209.93)" fill="#75ded8"/>
      <path id="path320-8" data-name="path320" d="M365.9-195.3c1.568-2.7,1.266-5.79-.665-6.905s-4.773.185-6.341,2.889-1.27,5.79.665,6.9,4.773-.181,6.34-2.881" transform="translate(206.967 1209.93)" fill="#75ded8"/>
      <path id="path320-9" data-name="path320" d="M365.9-195.3c1.568-2.7,1.266-5.79-.665-6.905s-4.773.185-6.341,2.889-1.27,5.79.665,6.9,4.773-.181,6.34-2.881" transform="translate(219.967 1211.93)" fill="#75ded8"/>
      <path id="path320-10" data-name="path320" d="M365.9-195.3c1.568-2.7,1.266-5.79-.665-6.905s-4.773.185-6.341,2.889-1.27,5.79.665,6.9,4.773-.181,6.34-2.881" transform="translate(206.967 1196.93)" fill="#75ded8"/>
      <path id="path568" d="M436.715-52.629c-14.43-.338-80.785,0-80.785,0a9.6,9.6,0,0,1-9.6-9.6v-44.134a9.6,9.6,0,0,1,9.6-9.6h16.513v-5.691c.079.192.157.387.239.579a1.141,1.141,0,0,0,1.055.708h-1.055c.583-.242.239-.122,0-.708-.612-1.487.9-3.857.324-5.355a10.524,10.524,0,0,1,9.942-7.113H409.7a10.518,10.518,0,0,1,10.5,10.507v7.073h16.513a9.6,9.6,0,0,1,9.6,9.6v44.134a9.6,9.6,0,0,1-9.6,9.6m-59-70.4v7.073h37.222v-7.073a5.239,5.239,0,0,0-5.236-5.233h-26.75" transform="translate(226.493 1321.998)" fill="#382822"/>
      <path id="path576" d="M427.083-62.74H364.371a18.72,18.72,0,0,1-18.723-18.723v-25.994a18.723,18.723,0,0,1,18.723-18.723h62.712a18.725,18.725,0,0,1,18.723,18.723v25.994A18.722,18.722,0,0,1,427.083-62.74" transform="translate(227 1332.998)" fill="#5768de"/>
      <path id="path578" d="M346.854-75.78v-35.838a13.222,13.222,0,0,1,13.086-13.355h73.808a13.22,13.22,0,0,1,13.086,13.355v35.84a13.222,13.222,0,0,1-13.086,13.356h-73.8A13.23,13.23,0,0,1,346.854-75.78" transform="translate(225.973 1331.791)" fill="#7d8aeb"/>
      <path id="path582" d="M364.165-103.547c.213,1.4-1.1,2.639-2.8,2.639H349.732s.275-2.236,4.456-1.918c8.407.639,9.691-2.558,9.691-2.558l.285,1.837" transform="translate(239.159 1365.658)" fill="#fff"/>
      <path id="path584" d="M373.331-106.359c-2.969,1.093-18.376,13.827-18.337,19.875a13.012,13.012,0,0,0,1.3,5.979,2.977,2.977,0,0,0,2.637,1.452h14.006a1.515,1.515,0,0,0-.786-2.247c-1.678-.6-7-.262-7-.262A5.239,5.239,0,0,0,370-83.129a3.236,3.236,0,0,0,.462-4.173l5.922-3.936.576,8.689,1.595,3.5H382.5s.391-1.643-.691-2.077-1.776-2.507-1.776-2.507l1.48-7.34.79-3.461c2.2-2.033,2.128-.818,3.806-4.449l2.4-7.212a17.253,17.253,0,0,0-.213-4.449s2.9-.139,4.342-.237,1.666-.625,1.666-.625,2.159-2.024,1.863-2.553c-.217-.39-2.55-.859-4.188-1.563-.482-.207-1.078-1.555-2.234-2.2l-3.45-1.169a12.165,12.165,0,0,0-3.6,1.458,4.306,4.306,0,0,0-2.167,2.4c-.2.326-3.679,7.375-7.2,8.669" transform="translate(247 1345.803)" fill="#fff"/>
      <path id="path538" d="M497.029,3.848,487.761-24.16a60.358,60.358,0,0,0,4.349-7.868,100.859,100.859,0,0,1,4.921,35.689l0,.186m-30.743,0-.009-.186q-.167-3.931-.027-7.854c1.141-.634,2.264-1.3,3.359-2.009l-3.323,10.05m37.151-70.733q1.02-2,2.152-3.9A6.7,6.7,0,0,0,509-74.692l.767-2.324a68.2,68.2,0,0,1,5.093-6,9.754,9.754,0,0,1-.479,2.463l-2.269,6.861a10.014,10.014,0,0,1-8.672,6.807" transform="translate(369 1379.998)" fill="#41322d"/>
      <path id="path540" d="M475.678,10.194A101.058,101.058,0,0,1,480.6-17.64l6.906-19.939-.927-2.844c2.285-.475,4.575-.991,6.821-1.532a1.145,1.145,0,0,0,.848-1.384,1.145,1.145,0,0,0-1.117-.88,1.09,1.09,0,0,0-.27.032c-2.3.554-3.941,4.751-6.282,5.235L481.37-56.4a9.726,9.726,0,0,1-3.686,2.2l-4.3,1.4a9.874,9.874,0,0,1-3.041.484,9.783,9.783,0,0,1-9.323-6.772l-2.211-6.787a9.821,9.821,0,0,1,6.285-12.364l1.839-.6a27.23,27.23,0,0,0-1.117-7.843,18.558,18.558,0,0,0-4.625-7.51.908.908,0,0,1,.642-1.534.939.939,0,0,1,.39.092c3.663,1.675,7.214,5.63,9.015,15.605a8.946,8.946,0,0,1,1.2-.1,9.777,9.777,0,0,1,9.323,6.769l.994,3.049,8,23.365L498.013-67.9l1.6-4.921a9.78,9.78,0,0,1,9.326-6.772,9.847,9.847,0,0,1,3.038.481l4.305,1.4a9.823,9.823,0,0,1,6.751,9.927,67.225,67.225,0,0,0-4.962,5.935l1.464-4.487a6.612,6.612,0,0,0-4.241-8.34l-4.305-1.4a6.514,6.514,0,0,0-2.05-.331,6.625,6.625,0,0,0-6.293,4.572l-2.211,6.786a6.619,6.619,0,0,0,4.244,8.34l4.3,1.4a6.58,6.58,0,0,0,2.053.326,6.636,6.636,0,0,0,2.971-.707q-1.1,1.881-2.1,3.859c-.29.023-.581.038-.874.038A9.8,9.8,0,0,1,508-52.265l-4.3-1.406A9.707,9.707,0,0,1,499.872-56l-5.959,18.3,6.865,20.065c.035.1.065.2.1.3a59.96,59.96,0,0,1-4.238,7.783l-5.95-18.256L478.951,8.206c-1.067.7-2.161,1.36-3.273,1.987m-3.244-87.127a6.681,6.681,0,0,0-2.05.327l-4.305,1.4a6.621,6.621,0,0,0-4.241,8.343l2.211,6.79a6.623,6.623,0,0,0,6.291,4.569,6.685,6.685,0,0,0,2.053-.328l4.3-1.406a6.613,6.613,0,0,0,4.244-8.338l-2.214-6.792a6.618,6.618,0,0,0-6.291-4.566" transform="translate(360.135 1366.49)" fill="#382822"/>
      <path id="path548" d="M446.33-75.092,433.98-60.418h24.872s8.482-11.61,8.482-22c0-3.288-1.038-11.581-7.892-11.581-1.192,0-2.176.029-2.989.071a1.158,1.158,0,0,0-.581,2.063,13.174,13.174,0,0,1,4.153,8.965c.223,7.4-9.584,7.809-13.695,7.809" transform="translate(335.415 1370.709)" fill="#d9d9d9"/>
      <path id="path550" d="M474.406,2.166l-.066-.051a19.249,19.249,0,0,1-7.815-13.573l-.5-4.243c-2.068-17.547-10.22-25.445-17.54-41.163l-2.324-21.289h12.371l.158.338A166.149,166.149,0,0,1,474.406-6.979V2.166" transform="translate(348 1386.998)" fill="#ffa300"/>
      <path id="path552" d="M426.478-7.314l.082-.045c5.1-2.652,8.514-7.039,9.295-11.971l.6-3.743c2.461-15.476,12.164-22.442,20.876-36.3l2.763-18.776H445.372l-.192.3c-12.287,19.269-18.7,40.711-18.7,62.475v8.065" transform="translate(322.479 1386.998)" fill="#ffa90f"/>
      <path id="path554" d="M446.785-80.608a2.784,2.784,0,0,1-2.753,2.815,2.784,2.784,0,0,1-2.751-2.815,2.782,2.782,0,0,1,2.751-2.809,2.783,2.783,0,0,1,2.753,2.809" transform="translate(343 1383.998)" fill="#696969"/>
      <path id="path556" d="M486.688-89.072h0a9.357,9.357,0,0,0-8.923,6.476L475.649-76.1a9.4,9.4,0,0,0,6.016,11.83l4.119,1.342a9.348,9.348,0,0,0,2.907.463,9.367,9.367,0,0,0,8.923-6.479l2.113-6.493a9.387,9.387,0,0,0-6.01-11.826l-4.122-1.342a9.246,9.246,0,0,0-2.907-.462Zm0,3.053a6.308,6.308,0,0,1,1.961.311l4.119,1.341a6.326,6.326,0,0,1,4.057,7.981l-2.116,6.5a6.33,6.33,0,0,1-6.019,4.369,6.3,6.3,0,0,1-1.961-.311l-4.119-1.345a6.325,6.325,0,0,1-4.057-7.977l2.113-6.5a6.336,6.336,0,0,1,6.022-4.369" transform="translate(382 1376.432)" fill="#d9d9d9"/>
      <path id="path558" d="M487.382-73.754,485.524-83.78,469.952-38.835a90.442,90.442,0,0,0-4.373,31.8l.008.168,21.795-66.89" transform="translate(372 1383.227)" fill="#d9d9d9"/>
      <path id="path560" d="M464.055-89.314a4.467,4.467,0,0,0-1.381.22l-1.957.637a4.464,4.464,0,0,0-2.859,5.62l1.005,3.087a4.45,4.45,0,0,0,4.24,3.079,4.408,4.408,0,0,0,1.381-.221l1.957-.637a4.462,4.462,0,0,0,2.857-5.62l-1.005-3.087a4.448,4.448,0,0,0-4.239-3.077Zm0,1.449a3.006,3.006,0,0,1,2.859,2.077L467.92-82.7a3.011,3.011,0,0,1-1.928,3.794l-1.957.636a3.034,3.034,0,0,1-.932.151,3.014,3.014,0,0,1-2.861-2.079l-1.005-3.086a3.01,3.01,0,0,1,1.929-3.792l1.957-.639a3.023,3.023,0,0,1,.932-.148" transform="translate(262 1468.998)" fill="#fff"/>
      <path id="path566" d="M474.6-69.215a1.5,1.5,0,0,1-1.5,1.5,1.5,1.5,0,0,1-1.5-1.5,1.5,1.5,0,0,1,1.5-1.5,1.5,1.5,0,0,1,1.5,1.5" transform="translate(377 1396.998)" fill="#696969"/>
      <path id="path50" d="M465.564-164.972a7.7,7.7,0,0,1-2.582-.488c-.287-.1-.53-.2-.752-.287l-.186-.08-.4-.187-.157-.086-.278-.192-.1-.077-.246-.293-.024-.05-.127-.308-.038-.142-.056-.314-.027-.184-.012-.08h0c-.038-.337-.065-.734-.121-1.243-.391.012-.737.018-1.054.018-.252,0-.482,0-.7-.009l-.287-.009L458.19-169l-.269-.021-.2-.018-.246-.03-.181-.033-.213-.036-.175-.036-.192-.044-.166-.047-.184-.047-.172-.056-.175-.05-.2-.071-.175-.056-.352-.121-.133-.044-.3-.1-.166-.053-.323-.1-.189-.059-.367-.1-.216-.059-.441-.11-.225-.056-.663-.154c1.59,1.015,2.173,2.2,2.111,3q-2.163-.839-4.239-1.83a61.319,61.319,0,0,0-14.947-4.583,12.1,12.1,0,0,0-.071-1.459c-.628-5.3-1.59-9.269-1.226-12.15,1.11-8.887,6.75-10.373,8.043-12.357,1.169-1.782,1.835-8.7,11.282-18.941a159.366,159.366,0,0,0,12.508-15.471c7.981-10.98,8.043-12.824,10.992-22.458l.083.027a31.923,31.923,0,0,1,2.422-5.506l-.03-.027-1.738-1.892-.056.024a21.832,21.832,0,0,1,1.359,2.407c-.018,0-.065-.042-.148-.13l-1.874-2.043.033-.027a2.267,2.267,0,0,1-.447.05.847.847,0,0,1-.6-.2c-.933-.891.956-4.387,4.219-7.812a21.161,21.161,0,0,1,5.521-4.369,16.258,16.258,0,0,0,3.3-2.537l-.192-.2a9.8,9.8,0,0,1-.873-.882,3.082,3.082,0,0,0,.989.607,3.857,3.857,0,0,0,.835.163,2.59,2.59,0,0,0,.56.062c.027,0,.053,0,.08,0,.7.053,1.486.074,2.072.074A4.374,4.374,0,0,0,493.1-279a2.073,2.073,0,0,0-.272-1.723c.145-.2.3-.42.488-.678a6.316,6.316,0,0,1,.637-.187c.995.308,1.975.637,2.946.995a1.76,1.76,0,0,1-.613.323c-.269.1-.936.2-1.451.391-.192.269-.361.5-.509.7a2.045,2.045,0,0,1,.293,1.693,4.135,4.135,0,0,1-.853.041c-.613,0-1.46-.024-2.191-.083l-.385-.033-.189-.027c-.45.37-.935.773-1.418,1.2a14.234,14.234,0,0,1,1.143,2.031c-.018,0-.065-.038-.148-.13l-1.406-1.527-.124.112a13,13,0,0,1,1.1,1.951c-.018,0-.065-.041-.145-.13l-.637-.69c.284.474.58.962.761,1.285a29.541,29.541,0,0,1,8.088-1.38c.388,0,.752.015,1.086.047a15.848,15.848,0,0,1,2.99.764c2.777.293,2.993.142,4.074,2.694,3.1,2.191,6.492,2.365,10.364,2.771a60.961,60.961,0,0,1,4.482,4.523,5.032,5.032,0,0,1-1.551,2.525l-.26.243c-.358.314-.941.764-1.442,1.152-1.806,1.4-4.088,1.918-5.965,2.632h.225l.184-.038c1.305-.192,3.425-.758,4.165-.758a.366.366,0,0,1,.249.056l.065.488,0,.03,0,.012v0c.113.773.13,1.525-1.921,2.8-3.786,2.345-7.17,2.664-10.338,3.333.231,3.141.953,4.831,0,6.14a2.932,2.932,0,0,1-2.4,1.146c-1.305,0-2.946-.722-4.668-2.718l-.05.1c-.148.308-.284.6-.423.888-.163.337-.32.672-.468.992-.124.269-.243.524-.358.785q-.209.462-.4.9l-.3.714c-.118.281-.231.557-.335.823l-.24.639-.266.779-.181.577-.2.761-.121.515c-.056.272-.1.539-.133.8l-.065.417a11.706,11.706,0,0,0-.071,1.2c-.056,7.259,4.159,8.683,4.772,13.792-1.711-.213-3.422-.409-5.121-.583a1,1,0,0,0-.133-.006,1.147,1.147,0,0,0-1.137,1.042,1.16,1.16,0,0,0,1.033,1.273c1.758.178,3.538.382,5.3.607-.041.231-.089.474-.148.737l-.021.077c-.077.308-.166.639-.26.98l-.089.308c-.11.358-.222.722-.346,1.1l-.056.166c-.115.346-.237.7-.361,1.051l-.118.332c-.142.391-.287.785-.435,1.172l-.059.16c-.139.37-.281.737-.42,1.1l-.095.24c-.2.509-.394,1-.577,1.465-.145.364-.281.7-.411,1.021l-.16.4c-.145.352-.278.687-.388.968-.071,4.026.45,6.252-.16,9.337a46.287,46.287,0,0,0-.719,4.654,33.182,33.182,0,0,0,.521,9.376,6.817,6.817,0,0,1,.184,2.6,22.425,22.425,0,0,0,.426,8.949,4,4,0,0,0,.912,1.827l.278.24.139.086.29.136.16.056.346.077.151.027.539.044c2.448.089,2.584,1.764,2.043,2.818a1.987,1.987,0,0,1-.169.278q-1.194.506-2.413.962h-.018c-.11,0-.225,0-.34-.009a4.326,4.326,0,0,1-2.528.586,15.351,15.351,0,0,1-2.232-.189,7.829,7.829,0,0,1-2.143.453c-1.163,0-1.454-.811-1.237-2.883l-.586-.11-.169-.059-.314-.112-.151-.089-.228-.139-.121-.115-.169-.169-.089-.139-.118-.2-.062-.157-.077-.228-.006-.018a1.69,1.69,0,0,1-.645.79,4.977,4.977,0,0,1-2.644.565,27.861,27.861,0,0,1-3.579-.326,26.624,26.624,0,0,0-3.227-.326c-.092,0-.181,0-.266.006a19.143,19.143,0,0,0-2.667.423l.033.024.056.033.441.352c1.042,1.051,1.258,3.239-1.243,3.239a4.977,4.977,0,0,1-.5-.027c-.222.672-1.311.885-2.419.885a8.863,8.863,0,0,1-2.28-.284,4.4,4.4,0,0,1-2.152.506m18.082-10.282c1.477,0,2.7.32,3.159,1.374.127-.743.266-1.536.346-2.351-1.531-1.531-1.6-3.177-1.756-5.305-.059-.805-.163-1.634-.3-2.475-.062-.406-.151-.817-.225-1.223-.083-.444-.157-.882-.249-1.323-.136-.657-.284-1.309-.426-1.957l-.133-.6c-.181-.782-.358-1.557-.524-2.306h0l-.059-.261-.24.287v0l-.095.112c-.373.447-.734.867-1.077,1.249l-.053.059c-.352.391-.687.746-1.015,1.08l-.181.187c-.317.317-.63.625-.929.909l-.059.053c-.293.272-.577.533-.861.785l-.175.157c-.284.252-.574.5-.861.752-.3.266-.613.533-.921.805l-.074.062c-.293.26-.6.533-.9.814l-.169.151c-.314.3-.636.6-.971.938l-.619.631c-.349.364-.716.77-1.1,1.2l-.459.521a17.91,17.91,0,0,0-2.173,6.374,12.2,12.2,0,0,0,2.963.628c.79,0,1.415-.293,4.041-.571a58.72,58.72,0,0,1,6.081-.752m-5.634-48.728a1.137,1.137,0,0,0-1.152,1.119,1.163,1.163,0,0,0,1.119,1.2c2.537.086,5.127.219,7.7.4l.08,0a1.157,1.157,0,0,0,1.154-1.078,1.158,1.158,0,0,0-1.077-1.237c-2.6-.181-5.21-.317-7.777-.4h-.047m-8.159-.145c-2.6,0-5.213.044-7.786.13a1.156,1.156,0,0,0-1.119,1.2,1.16,1.16,0,0,0,1.158,1.122h.038c2.549-.086,5.139-.13,7.709-.13h.423a1.159,1.159,0,0,0,1.157-1.158,1.16,1.16,0,0,0-1.157-1.16h-.423m9.37-38.287.047.095.015-.027-.062-.068m-.169-.675.335.565.263-.462-1.119-1.223a5.624,5.624,0,0,1,.672,1.252c-.018,0-.065-.041-.148-.13l0,0m.586-.4.151.258.1-.166-.207-.225-.044.133,0-.006,0,.006h0m-.394-1.652-.05.033c.237.411.577.968.864,1.451l.225-.349-1.039-1.134m.98.382.266.441.056-.086-.323-.355m-.027-1.072-.027.021c.178.3.4.675.619,1.036l.169-.228-.761-.829m.968.311.083.136.021-.027-.1-.11m.243-.779.237.394.059-.074-.3-.32m.693-.222.036.059.009-.012-.044-.047m.34-.672.13.216.027-.044-.157-.172m4.127-5.6-.012.024.361.6.154-.083-.5-.545m.932.225.047.08.018-.012-.065-.068m.178-.317.16.266.062-.027-.222-.24m.3-.21.2.329.077-.03-.272-.3m.287-.2.234.394.095-.035-.329-.358m.027-.657c.192.32.385.639.548.921l.4-.145-.355-.388c.148.26.234.435.2.435-.018,0-.065-.041-.148-.13l-.636-.693m.32-.69c.284.474.6,1,.829,1.391l.524-.175-.5-.545c.148.26.231.435.192.435-.018,0-.065-.041-.145-.127l-.9-.98" transform="translate(330.014 1144.676)" fill="#382822"/>
      <path id="path54" d="M449.246-233.967c4.877,1.347,2.868.791,7.521.3,3.3-.349,9.592-2.314,8.871,2.256a2.453,2.453,0,0,1-.9,1.954c-2,1.291-6.775-.176-9.173-.073a22.113,22.113,0,0,0-2.784.45c-.774.14-1.252.252-1.878.374l-1.579-1.353-.075-3.907" transform="translate(352 1204.027)" fill="#d49a70" fill-rule="evenodd"/>
      <path id="path56" d="M474.978-271.087c-2.876,9.4-2.94,11.2-10.722,21.906a155.46,155.46,0,0,1-12.2,15.094c-9.211,9.988-9.864,16.734-11,18.475-1.265,1.935-6.763,3.384-7.849,12.053-.352,2.807.583,6.676,1.2,11.848a16,16,0,0,1,.026,2.755c-.141,2.564-.615,3.918.133,4.562.673.586,2.044.43,4.9,1.314a30.531,30.531,0,0,0,6.737,1.554c1.12.029,2.417.459,2.685-.612.592.338,3.058.115,2.613-1.253.918.823,1.395.11,1.568-.2.384-.707-.055-2.157-1.935-3.358,4.323.938,3.578,1.623,8,1.476.243,2.339-.032,2.541,2.452,3.439a5.757,5.757,0,0,0,4.62-.02c1.037.32,4.187.6,4.58-.583,2.948.292,2.778-2.047,1.7-3.136-1.415-1.424-2.541.355-3.272-1.88-.962-2.951.476-6.965,1.886-9.474,4.164-4.845,6.269-5.3,10.491-10.488a75.484,75.484,0,0,1,1.86,9.9c.15,2.079.219,3.685,1.712,5.175-.323,3.379-1.735,6.364,1.553,6.757-.3,2.937.43,3.277,3.3,2.371,1.987.3,3.76.271,4.64-.387,1.45.066,2.391-.274,2.865-1.2.528-1.028.4-2.66-1.99-2.749-1.348-.049-2.189-.381-2.746-2.428a21.836,21.836,0,0,1-.419-8.732,6.629,6.629,0,0,0-.176-2.538,32.367,32.367,0,0,1-.511-9.145c.133-1.351.364-2.815.7-4.539.595-3.009.09-5.178.159-9.1,1.086-2.769,3.991-9.549,3.971-12.122-.049-5.96-4.785-7.008-4.727-14.6.023-3.257,1.461-6.428,4.329-12.275l-21.129-7.846" transform="translate(330 1162.998)" fill="#edd7c6" fill-rule="evenodd"/>
      <path id="path58" d="M472.216-234.06a61.505,61.505,0,0,1,1.548,8.268c.129,1.783.188,3.16,1.468,4.437-.277,2.9-1.488,5.458,1.332,5.794-.26,2.518.369,2.81,2.833,2.033,1.7.26,3.224.233,3.979-.332,1.243.057,2.05-.235,2.456-1.03.453-.882.339-2.281-1.706-2.357-1.156-.042-1.877-.327-2.355-2.083a18.723,18.723,0,0,1-.359-7.488,5.687,5.687,0,0,0-.151-2.177,27.754,27.754,0,0,1-.438-7.842c.114-1.159.312-2.414.6-3.893.51-2.58.077-4.44.136-7.805.206-.525.485-1.218.8-2-2.125,1.8-2.377,3.179-3.64,6.1-.5,1.156-1,2.305-1.587,3.506A34.705,34.705,0,0,1,472.216-234.06Zm-8.771,8.459c.364-.414.708-.787,1.04-1.132-.364-3.739-.768-8.427-.228-11.7.57-3.437,1.808-3.868,4.041-8.427a30.267,30.267,0,0,0-3.908,5.685c-1.154,2.251-1.25,4.212-1.248,10.239C463.143-229.184,463.656-227.48,463.446-225.6ZM446.4-216.478c3.306.76,2.845,1.3,6.473,1.186l.008-.166c1.585-6.317.168-4.217.292-7.882.067-1.964,1.013-2.073,1.4-4.7a77.157,77.157,0,0,0,.334-7.884c-6.136,5.876-7.067,5.418-13.456.666,2.761,6.191,2.977,5.116-.4,11.413-1.233,2.3-5.594,3.179-4.925,5.373,4.076,1.983,6.748-.389,10.031,1.82l.25.178" transform="translate(342.006 1189.998)" fill="#d49a70" fill-rule="evenodd"/>
      <path id="path60" d="M479.488-194.361a2.038,2.038,0,0,0,2.09,2.356c-.3,2.881.422,3.215,3.24,2.325,1.949.3,3.688.266,4.552-.38,1.422.065,2.345-.269,2.81-1.178.518-1.008.388-2.609-1.951-2.7a2.419,2.419,0,0,1-1.9-.7,7.653,7.653,0,0,1-1.079.057c-.819,0-1.617-.252-2.436-.306a23.8,23.8,0,0,0-3.509-.076,2.982,2.982,0,0,0-1.75.532Zm-11.151-11.012c2.776-2.767,4.744-3.843,7.984-7.766l.034-.334c2.8-1.4,6.311-8.134,8.738-13.388,1.617-3.492,2.458-4.741,3.232-5.438,1.252-3.141,2.878-7.4,2.864-9.31-.048-5.846-4.693-6.874-4.637-14.323.02-2.892,1.178-5.71,3.478-10.471a10.415,10.415,0,0,1-1.558.431c-1.382.224-.889-.7-1.983-.765s-3.339-.776-4.418.382-.507,4.189-.609,5.027-2.974,4.724-3.048,5.413c-.949,8.506.62,10.454-.847,14.858-.768,2.311-2.379,5.3-5.631,10.284-.448,1.762-.87,3.484-1.26,5.192-1.7,7.469-1.977,7.271-2.932,20.11Zm-13.7,14.864c.133,1.218.368,1.49,2.294,2.184a5.646,5.646,0,0,0,4.532-.02c1.017.314,4.107.589,4.492-.572,2.892.286,2.725-2.008,1.665-3.076-1.24-1.252-2.26.02-2.974-1.283l-.255.071a13.429,13.429,0,0,1-2.212.838c-.784.091-1.583-.473-2.359-.3-.833.178-1.433.943-2.212,1.294a11.86,11.86,0,0,1-1.98.609Zm-17.861,1.629a23.077,23.077,0,0,0,5.064,1.056c1.1.028,2.371.45,2.634-.6.581.331,3,.113,2.563-1.229.9.807,1.368.108,1.538-.2.377-.694-.054-2.116-1.9-3.294l.348.076-.691-.518a5.04,5.04,0,0,0-2.365-.988,4.127,4.127,0,0,0-2.818.762c-1.1.94-1.575,2.439-2.362,3.657,0,0-.923.606-2.014,1.277" transform="translate(337.376 1168.004)" fill="#ededed" fill-rule="evenodd"/>
      <path id="path62" d="M469.254-269.21c0,3.988,1.1,5.888.058,7.308-1.2,1.633-4.76,2.135-8.312-3.908l5.13-4.015,3.125.615" transform="translate(365.512 1161.816)" fill="#d49a70" fill-rule="evenodd"/>
      <path id="path64" d="M493.955-272.85c-4.2-.471-7.831-.527-11.143-2.866-1.087-2.568-1.3-2.413-4.1-2.711a16.615,16.615,0,0,0-3.006-.769c-3.476-.334-10.193,1.135-13.026,2.991-2.237,1.465-2.469,2.32-3.84,4.956-2.246,2.252-5.079,7.173-6.324,12.12-1.927,7.685,1.987-.417,7.375,16.2-.11-1.626,5.058-9.755,5.067-9.773.03-.059,6.074,1.85,9.258.343a8.492,8.492,0,0,0,2.863-2.231c4.337-2,8.945-1.218,14.387-4.587,2.389-1.48,1.99-2.264,1.877-3.187l-4.867.581c1.889-.715,4.185-1.242,6-2.648.658-.509,1.463-1.132,1.713-1.4a5.81,5.81,0,0,0,1.615-5.692c-.36-.852-1.933-1.108-3.848-1.326" transform="translate(353.506 1148.504)" fill="#edd7c6" fill-rule="evenodd"/>
      <path id="path66" d="M488.364-270.487l-.1-1.178c-.346-.572-4.164,1.047-6.373,1.542s-3.109,1.672-4.656,2.244c-3.238,1.2-8.709,1.047-11.148,1.711-1.111.306-6.065,3.688-2.161,4.606s8.79-3.649,12.267-4.606c3.374-.93,6.193-.917,8-1.626a16.092,16.092,0,0,0,4.173-2.693" transform="translate(358.654 1157.934)" fill="#d49a70" fill-rule="evenodd"/>
      <path id="path68" d="M471.675-273.13l.116-.109a2.6,2.6,0,0,0,.723-2.548c-.112-.267-.488-.4-.995-.493-.956.172-1.173.583-1.22.933a.786.786,0,0,0,.535.844c.329.064.735-.009.689-.493.183-.139.3-.209.363-.177.271.144.133.5-.048.7-.211.231-.677.227-.677.408a1.688,1.688,0,0,0,.515.935" transform="translate(376 1152.998)" fill="#423123" fill-rule="evenodd"/>
      <path id="path76" d="M457.292-276.013c.233.239.58.6.7.721a5.966,5.966,0,0,1,.713,1.669,14.674,14.674,0,0,1-.508,1.495l-.474,1.187c-.081.2.253.915.238,1.132s-.629,1.452-.664,1.569a15.894,15.894,0,0,0-.744,4.551c-.318,3.45-.855,7.954-2.407,8.682.163-4.014.508-13.658,1.8-17.239l1.356-3.765" transform="translate(356 1156.998)" fill="#d49a70" fill-rule="evenodd"/>
      <path id="path78" d="M454.555-269.6a3.163,3.163,0,0,1,.774-.583,11.739,11.739,0,0,0-.891,1.648,26.3,26.3,0,0,0-.651,2.677c-.34,1.514-.7,3.141-1.067,4.458-1.2,4.359-.736,6.243.718,6.871,3.649,1.576,5.905-3.174,6.219-5.415a43.314,43.314,0,0,0,0-4.369c.047-1.739.015-6.327.683-8.157.5-1.37,1.354-1.948,1.8-3.635-1.723,1.411-2.509,1.286-3.874,1.78-1.8.655-3.115,3.325-3.713,4.724" transform="translate(352 1156.998)" fill="#f0ae7f" fill-rule="evenodd"/>
      <circle id="Ellipse_85" data-name="Ellipse 85" cx="1.5" cy="1.5" r="1.5" transform="translate(823 877)" fill="rgba(0,0,0,0.8)"/>
      <path id="path48" d="M463.52-272.664c-.864-.319-1.735-.611-2.62-.885.3-.071.577-.126.724-.179.708-.255.692-.442,1.127-1.3.2-.4.763-.792.671-1.366.01-.129,3.265-2.693,3.509-2.946a11.456,11.456,0,0,0,1.261-3.415,7.7,7.7,0,0,1,.629-2.543,21.985,21.985,0,0,1,2.562-3.265l1.182-1.274h2.6l-2.433,2.625a22.136,22.136,0,0,0-2.562,3.265,7.712,7.712,0,0,0-.629,2.546c-.105.424-.671,2.793-1.264,3.412-.245.255-3.5,2.82-3.509,2.946.092.574-.474.971-.674,1.369a3.6,3.6,0,0,1-.579,1.014" transform="translate(364.595 1137.521)" fill="#41322d"/>
      <path id="path80" d="M472.94-290.522l-2.827,4.944a42.007,42.007,0,0,1-7.692,5.965c-.945.555-2.358.71-2.869,1.617s-.128,2.076-.462,3.958a16.66,16.66,0,0,1-.924,2.872c-.434,1.334-1.055,2.562-.931,3.089a4.089,4.089,0,0,0,1.451,1.92,5.108,5.108,0,0,0,1.907,1.452,21.315,21.315,0,0,0,5.151.3c.141-.531.172-1.762-.528-2.176.086-.669,1.938-.883,2.469-1.072.927-.334.906-.579,1.476-1.707.258-.521,1-1.038.879-1.789.014-.169,4.275-3.527,4.6-3.858.772-.814,1.514-3.917,1.652-4.472a10.083,10.083,0,0,1,.824-3.33,28.8,28.8,0,0,1,3.355-4.275l3.193-3.434H472.94" transform="translate(358.595 1131.953)" fill="#edb38d" fill-rule="evenodd"/>
      <path id="path82" d="M462.205-289.553l-.157.269,7.155,2.925,2.966-3.194h-9.964" transform="translate(366.595 1135.998)" fill="#75ded8" fill-rule="evenodd"/>
      <path id="path84" d="M462.765-284.6a15.372,15.372,0,0,1-.762,2.423c-.036.069-.935.707-1.691,1.48a4.823,4.823,0,0,0-1.667,2.572,1.287,1.287,0,0,0,.765,1.562c2.176,1.191,3.694-2.412,4.976-3.353l2.074-1.527-.044.237c-.454.371-.919.726-1.356,1.117a9.177,9.177,0,0,0-1.2,1.056c-.613.776-.952,1.3-1.262,1.7a2.77,2.77,0,0,1-3.556,1.012,1.412,1.412,0,0,1-.828-1.84,4.988,4.988,0,0,1,.979-1.689c.264-.393.292-.586.135-1.348a3.457,3.457,0,0,0,1.345-.294c1.24-.655,1.54-1.9,2.093-3.108" transform="translate(363.595 1140.576)" fill="#db9f82" fill-rule="evenodd"/>
      <path id="path86" d="M459.653-279.227a1.054,1.054,0,0,1-1.073-1.315,4.474,4.474,0,0,1,1.351-1.8,13.156,13.156,0,0,1,1.805,1.184,6.747,6.747,0,0,1-1.281,1.628,1.2,1.2,0,0,1-.8.306" transform="translate(364.595 1142.498)" fill="#f2d0b3"/>
    </g>
  </g>
</svg>
