<svg xmlns="http://www.w3.org/2000/svg" width="424.59" height="346.818" viewBox="0 0 424.59 346.818"><defs><style>.a{fill:#d9dbd8;}.b{fill:#cc4040;}.c{fill:#ffca83;}.d{fill:#f9955f;}.e{fill:#752929;}.f{fill:#ffae6c;}.g{fill:#dd4a4a;}.h{fill:#ad3131;}.i{fill:#f45353;}.j{fill:#f66;}.k{fill:#f4beae;}.l{fill:#ffd3c2;}.m{fill:#4c383f;}.n{fill:#ffd199;}.o{fill:#ffe1bd;}.p{fill:#5db3c6;}.q{fill:#40a2b2;}.r{fill:#ffca55;}.s{fill:#ffea92;}.t{fill:#ffb882;}.u{fill:#ff9566;}.v{fill:#65516d;}.w{fill:#4c3a54;}.x{fill:#f4e0d3;}.y{fill:#ead0c3;}.z{fill:#f9e9e1;}.aa{fill:#e0c2b1;}.ab{fill:#b58383;}.ac{fill:#425c66;}.ad{fill:#ad736d;}.ae{fill:#b55f43;}.af{fill:#ea7b59;}.ag{fill:#d3354f;}.ah{fill:#bc2642;}.ai{fill:#e2a19e;}.aj{fill:#e7a7a9;}.ak{fill:#5b302c;}</style></defs><g transform="translate(-1280.93 -589.744)"><path class="a" d="M424.59-25.264C424.59-11.311,329.542,0,212.295,0S0-11.311,0-25.264,95.048-50.531,212.295-50.531,424.59-39.217,424.59-25.264" transform="translate(1280.93 936.561)"/><g transform="translate(-9369 2156)"><path class="b" d="M113.838-155.257l8.743.073C118.267-160.57,112-165.6,102-163.744a24.975,24.975,0,0,1,11.842,8.487" transform="translate(10866 -1257.468)"/><path class="b" d="M107.462-155.109l8.5-2.049c-5.49-4.181-12.784-7.545-22.043-3.313a24.967,24.967,0,0,1,13.544,5.363" transform="translate(10866 -1257.468)"/><path class="b" d="M118.586-154.558l8.52,1.963c-3.047-6.192-8.073-12.461-18.247-12.808a24.978,24.978,0,0,1,9.727,10.845" transform="translate(10866 -1257.468)"/><path class="c" d="M175.036-113.478l1.512,1.036L163.442-77.65,106.066-77.8l68.97-35.683" transform="translate(10866 -1257.468)"/><path class="d" d="M109.642-99.195l65.393-14.284L161.54-77.65,104.164-77.8l5.479-21.4" transform="translate(10866 -1257.468)"/><path class="b" d="M135.854-96.862c2.985-3.078-3.99-60.255-9.546-60.963l-13.894,4.383s3.839,43.326,6.376,48.119,14.988,10.6,17.065,8.461" transform="translate(10866 -1257.468)"/><path class="e" d="M133.147-99.738c2.986-3.078-3.682-56.084-9.239-56.791l-13.487,3.451s3.75,39.038,6.287,43.829,14.362,11.652,16.439,9.511" transform="translate(10866 -1257.468)"/><path class="b" d="M104.4-160.085c5.519-1.153,18.362,1.6,21.224,1.949,1.672.2,2.474,2.244.766,2.015-6.553-.884-3.514,7.587-3.514,7.587L104.4-160.085" transform="translate(10866 -1257.468)"/><path class="b" d="M88.365-147.749c-3.816-4.664-4.869-5.795-4.339-8.02s16.142-4.189,16.142-4.189l-11.8,12.209" transform="translate(10866 -1257.468)"/><path class="f" d="M29.483-114.14l-1.925.52-3.278,37.1,31.108-1.748L29.483-114.14" transform="translate(10866 -1257.468)"/><path class="d" d="M27.558-113.619,0-92.635,21.834-76.524l32.241-1.748L27.558-113.619" transform="translate(10866 -1257.468)"/><path class="b" d="M69.394-57.659c7.843-24.165,16.958-57.657,16.958-57.657s-1.908-31.161,4.663-40.065,31.489-6.023,34.478-1.691c3.146,4.559,1.812,27.444,1.993,32.515.058,1.656-5.865,8.376-6.069,9.693a24.788,24.788,0,0,0,.182,7.155S136.8-71.225,136.8-62.321c-10.388,0-67.41,4.663-67.41,4.663" transform="translate(10866 -1257.468)"/><path class="g" d="M98.026-125.756c-.544-7.405,1.63-27.581,14.47-25.746s15.08,13.179,14.6,24.524-29.074,1.222-29.074,1.222" transform="translate(10866 -1257.468)"/><path class="b" d="M124.936-126.723c-7.464-3.818-9.315-19.006-9.043-14.59s-.136,12.092-1.562,15.625l10.606-1.035" transform="translate(10866 -1257.468)"/><path class="b" d="M135.552-78.729c-7.336,6.764-10.1,10.243-13.718,7.321s-7.165-5.509-4.673-7.769S134-93.465,137.9-88.42c3.491,4.52-2.347,9.691-2.347,9.691" transform="translate(10866 -1257.468)"/><path class="h" d="M136.91-75.533c-7.336,6.153-10.1,9.319-13.718,6.661s-1.1-7.532,1.4-9.59,10.773-10.481,14.669-5.889c3.491,4.112-2.347,8.817-2.347,8.817" transform="translate(10866 -1257.468)"/><path class="h" d="M118.881-124.873c-10.88,0-18.946,2.455-22.417-2.173-2.039-2.717-3.117-31.493-5.448-28.334-6.572,8.9-5.964,39.476-5.964,39.476S77.237-81.824,69.394-57.659c0,0,.8-1.439,17.56-2.68,4.076-53.121,33.422-42.389,39.911-34.18-2.88-7.462-4.9-13.19-4.9-13.19a24.786,24.786,0,0,1-.181-7.155c.2-1.3.787-10.009-2.9-10.009" transform="translate(10866 -1257.468)"/><path class="b" d="M81.68-73.381c-5.042-4.4-7.593-5.767-5.7-9.856s5.748-3.512,7.434-2.008,8.516,5.968,5.148,10.959c-3.017,4.468-6.882.905-6.882.905" transform="translate(10866 -1257.468)"/><path class="i" d="M113.838-115.217c-.409,6.857,1.115,10.772,3.482,10.452,4.007-.544,4.779-11.432,4.779-11.432l-4.565-.952-3.7,1.932" transform="translate(10866 -1257.468)"/><path class="j" d="M118.924-110.343c-1.414-.271-2.861,1.051-4.076,2.694.532,1.779,1.415,2.69,2.51,2.54,1.4-.189,2.342-1.84,2.968-3.738a1.855,1.855,0,0,0-1.4-1.5" transform="translate(10866 -1257.468)"/><path class="k" d="M99.956-128.761c-4.835,2.425-5.282,11.828-3.084,14.214s12.5,5.974,15.352,4.348,8.017-5.975,8.456-7.025,1.449-5.076.57-5.945-19.242-6.618-21.294-5.591" transform="translate(10866 -1257.468)"/><path class="l" d="M102.323-127.832c-3.437,1.594-3.756,7.591-2.193,9.091s8.884,3.688,10.916,2.624,5.7-3.885,6.012-4.557,1.03-3.251.405-3.8-13.681-4.036-15.14-3.361" transform="translate(10866 -1257.468)"/><path class="k" d="M127.939-127.273c3.6,1.484,4.515,10.163,2.536,13.767-1.346,2.452-4.7,3.33-7.042,2.627-2.12-.634-5.741-5.405-6.026-6.45s-1.109-4.965-.54-5.844,9.531-4.733,11.072-4.1" transform="translate(10866 -1257.468)"/><path class="l" d="M128.168-126.861c2.84,1.051,3.557,7.193,2,9.744-1.061,1.736-3.706,2.356-5.549,1.86-1.67-.451-4.524-3.827-4.748-4.567s-.875-3.515-.426-4.136,7.51-3.351,8.725-2.9" transform="translate(10866 -1257.468)"/><path class="m" d="M121.287-121.747c-3.8-.1-6.983-3.469-6.571-4.38s9.378-1.631,10.415-.444c.476.543-2.576,4.859-3.844,4.824" transform="translate(10866 -1257.468)"/><path class="e" d="M126.325-130.056c-.315-1.772-1.327-4.592-2.52-4.357s-1.7,2.964-1.83,3.871c0,0,.756-1.663,1.966-1.753s2.384,2.24,2.384,2.24" transform="translate(10866 -1257.468)"/><path class="e" d="M112.738-130.8c-.341-1.769-1.551-4.569-3.005-4.307s-2.083,3.005-2.26,3.917a3.692,3.692,0,0,1,2.423-1.8c1.469-.119,2.842,2.192,2.842,2.192" transform="translate(10866 -1257.468)"/><path class="c" d="M53.442-79.208,52.223,0h100.92l10.58-78.432L53.442-79.208" transform="translate(10866 -1257.468)"/><path class="n" d="M53.442-79.208l60.005,46.042,50.277-45.266Z" transform="translate(10866 -1257.468)"/><path class="d" d="M132.908-66.622c6.5.949,9.417-3.7,9.244-6.659-.061-1.055.047-3.1-.189-5.3l-15.11-.113c.277,7.74-.07,11.18,6.056,12.076" transform="translate(10866 -1257.468)"/><path class="d" d="M72.883-63.94c7.5,1.2,10.866-4.677,10.666-8.417-.072-1.335.054-3.927-.219-6.708l-17.435-.143c.319,9.787-.082,14.136,6.988,15.268" transform="translate(10866 -1257.468)"/><path class="f" d="M53.442-79.208,58.371,0H27.288L21.7-76.524l31.744-2.684" transform="translate(10866 -1257.468)"/><path class="b" d="M129.848-82.744c.938,9.215.491,13.213,6.33,14.213a6.365,6.365,0,0,0,7.775-6.995c-.349-3.108-.012-14.43-7.935-14.43-7.1,0-6.17,7.212-6.17,7.212" transform="translate(10866 -1257.468)"/><path class="b" d="M84.452-79.95c-.222,9.213.6,13.212-5.614,14.212s-9.1-3.885-8.992-6.993-1.223-14.432,7.327-14.432c7.659,0,7.278,7.213,7.278,7.213" transform="translate(10866 -1257.468)"/><path class="o" d="M95.923-22.024h-32.2l1.22,16.847h32.2l-1.22-16.847" transform="translate(10866 -1257.468)"/><path class="b" d="M69.835-111.559c-.079-4.185,10.462-41.881,14.776-44.764l8.793-1.323s-3.283,54.56-6.18,59.4-17.254-6.114-17.39-13.315" transform="translate(10866 -1257.468)"/><path class="g" d="M84.951-154.857c-1.29.861-3.237,5.412-5.214,11.081.359,13.259,3.442,23.617,7.192,23.617,1.006,0,1.963-.746,2.833-2.093,1.469-14.685,2.614-33.722,2.614-33.722l-7.425,1.117" transform="translate(10866 -1257.468)"/></g><g transform="translate(449 -160)"><path class="p" d="M1018.283-229.4c-17.284,4.8-46.491,39.183-46.219,53.077s25.425,8.007,28.488,3.921,14.729-14.712,20.443-14.537c2.768.084,4.844-10.611,4.975-21.307.14-11.379-1.92-22.757-7.687-21.155" transform="translate(-98 1060.531)"/><path class="q" d="M1024.894-205.357c-13.344,4.319-32.043,22.14-40.379,37.747,6.919-.076,14.449-2.673,16.037-4.792,3.063-4.085,14.688-12.613,20.4-12.439,2.773.084,3.816-9.8,3.94-20.516" transform="translate(-98 1060.531)"/><path class="r" d="M1000.867-167.993l3.205-6.136c-2.595-7.783-14.8-18.089-28.068-13.191,0,0-5.149,3.263-5.4,8.572s2.087,9.633,5.555,10.805,24.7-.051,24.7-.051" transform="translate(-98 1060.531)"/><path class="s" d="M997.39-182.189c-5.087-4.5-12.805-7.527-20.955-4.485a13.334,13.334,0,0,0-3.849,4.076,22.458,22.458,0,0,0,5.393,1.785,22.525,22.525,0,0,1,19.411-1.376" transform="translate(-98 1060.531)"/><path class="t" d="M1013.469-137.581c-6.532-4.536-38.241-30.336-39.255-35.44s21.261-10.815,25.589-7.021,19.149,35.881,19.149,35.881l-5.484,6.58" transform="translate(-98 1060.531)"/><path class="u" d="M984.45-172.478c-1.013-5.1,12-8.345,16.329-4.552,1.041.913,4.2,6.475,6.7,9.467-3.133-5.965-6.1-11.1-7.675-12.479-4.328-3.793-23.549-3.984-26.4,6.749-1.336,5.029,33.536,31.176,40.068,35.712v-.812c-11.5-9.1-28.211-30.005-29.021-34.085" transform="translate(-98 1060.531)"/><path class="t" d="M1015.927-150.1c4.5,4.883,8.26,4.887,10.939,8.555,0,0,.875,10.164-.912,14.385,0,0-11.563-1.5-12.627-3.908s-2.037-4.727-2.055-6.395c-.021-2.155-4.639-7.525-4.639-7.525l9.293-5.112" transform="translate(-98 1060.531)"/><path class="v" d="M1053.849-123.058l40.336,121.27h.827L1077.1-152.12l-25.14,1.407,1.889,27.654" transform="translate(-98 1060.531)"/><path class="v" d="M1025.65-149.78,1032.32-1.788h1.059l18.147-107.921,12.389-3.968.771-39.082-39.036,2.979" transform="translate(-98 1060.531)"/><path class="w" d="M1079.252-134.048l-2.187-24.165-51.416,8.433,1.2,26.52,52.405-10.788" transform="translate(-98 1060.531)"/><path class="p" d="M1019.31-186.486c3.041,22.6,4.259,53.979,6.037,55.536s52.189-6.82,54.224-9.417.071-43.312.071-44.871,3.215-38.131,1.689-42.547-26.948-8.051-31.016-8.051-29.591,3.049-33.912,7.724c-2.716,2.939.355,37.467,2.907,41.625" transform="translate(-98 1060.531)"/><path class="x" d="M1066.556-233.51c-6.987-1.435-14.221-3.147-16.235-3.147-2.5,0-13.116,1.976-21.923,3.949,6.707,3.44,20,10.775,20,10.775l18.157-11.577" transform="translate(-98 1060.531)"/><path class="q" d="M1081.191-207.634l-4.941,23.427-26.9,10.416,7.427,34.6s-27.263,6.431-29.075,5.524-5.389-46.011-6.476-49.816a26.126,26.126,0,0,0-4.847-10.2,20.671,20.671,0,0,0,1.528,5.569c3.04,22.6,5.661,55.608,7.44,57.165s52.189-6.82,54.224-9.417.071-43.312.071-44.871c0-.836.928-11.769,1.549-22.4" transform="translate(-98 1060.531)"/><path class="q" d="M1018.915-185.386l27.445-1.223-25.949,4.756Z" transform="translate(-98 1060.531)"/><path class="q" d="M1079.364-193.164l-26.617,6.284,25.988-4.085Z" transform="translate(-98 1060.531)"/><path class="t" d="M1033.2-233.6l1.883-12.2,25.228-2.039,1.7,13.441-13.839,8.623L1033.2-233.6" transform="translate(-98 1060.531)"/><path class="x" d="M1048.739-179.476l21.533,54.957,2.583-4.756c6.524-2.7,31.42-10.565,47.279,2.311l.632,3.345,25.318-43.7-3.261-.815c-30.524-27.355-63.131-22.827-88.51-11.537l-5.573.192" transform="translate(-98 1060.531)"/><path class="y" d="M1142.823-168.13c-9.943-8.912-20.108-14.423-30.172-17.435a61.323,61.323,0,0,1-1.023,28.752,62.1,62.1,0,0,1-11.489,22.763c6.976.388,14.109,2.307,20,7.087l.631,3.347,25.318-43.7-3.261-.815" transform="translate(-98 1060.531)"/><path class="z" d="M1064.344-158.508c12.32-.14,26.759-9.749,32.429-18.121a24.412,24.412,0,0,1-11.915,14.509,35.313,35.313,0,0,1-20.515,3.612" transform="translate(-98 1060.531)"/><path class="z" d="M1056.553-179.5l-.577.02,7.791,18.656a59.531,59.531,0,0,0,16.9-4.063c12.741-5.015,22.121-13.14,24.423-20.319-17.348-4.52-34.263-.644-48.54,5.705" transform="translate(-98 1060.531)"/><path class="aa" d="M1113.205-135.388c4.424-5.788,15.609-36.985,14.492-41.933-1.112-4.931-22.5-5.712-25.089-1.181s-8.876,41.664-8.876,41.664l19.473,1.451" transform="translate(-98 1060.531)"/><path class="aa" d="M1076.657-186.609c5.731-.328,19.8,8.827,23.356,12.672s25.875,9.683,24.536-3.693c-.451-4.5-4.527-11.127-10.413-18.1l-38.089,9a1.348,1.348,0,0,0,.611.124" transform="translate(-98 1060.531)"/><path class="aa" d="M1123.079-129.409l-.388-2.4,20.32-36.276-.188-.047c-.545-.491-1.093-.947-1.641-1.416-3.855,13.467-17.179,32.94-20.1,33.751-3.261.905-13.859-3.532-21.285-3.668-5.123-.095-20.968,1.585-24.773,1.767-3.523.167-12.583-19.248-20.039-42.263-.224.1-.452.193-.676.292l-.252.009,17.3,50.249-1.721,2.627-20.505-52.706-.393.013,21.08,56.541,3.352-4.981c6.524-2.7,30.388-10.868,46.246,2.008l1.623,3.744,24.629-44.4-22.591,37.159" transform="translate(-98 1060.531)"/><path class="p" d="M1074.865-230.937c17.949,4.133,51.333,36.4,52.672,49.773s-22.6,8.589-26.152,4.745-16.009-14.051-21.739-13.723c-2.791.16-6.753-10.148-8.743-20.456-2.093-10.856-2-21.712,3.961-20.34" transform="translate(-98 1060.531)"/><path class="q" d="M1091.468-189.189c-6.851-4.711-13.5-6.16-17.936-14.764,2.028,7.721,3.659,16.532,5.76,16.411,5.729-.328,16.476,7.109,20.032,10.955,1.513,1.635,7.083,3.465,12.881,4.008-4.583-6.335-12.632-11.036-20.737-16.609" transform="translate(-98 1060.531)"/><path class="r" d="M1100.163-173.612l-2.733-4.783c3-5.9,15.5-13.512,28.095-9.437,0,0,4.8,2.627,4.709,6.7a8.284,8.284,0,0,1-6.068,8.151c-3.443.815-24-.635-24-.635" transform="translate(-98 1060.531)"/><path class="s" d="M1103.081-183.913a40.781,40.781,0,0,0,12.909,1.789,40.359,40.359,0,0,0,13.021-1.833,11.647,11.647,0,0,0-3.692-3.4c-8.379-2.712-16.712-.249-22.239,3.443" transform="translate(-98 1060.531)"/><path class="t" d="M1099.539-132.952c4.425-5.788,26.2-40.421,25.079-45.369-1.112-4.931-20.2-5.968-22.792-1.436s-7.468,37.5-7.468,37.5l5.181,9.3" transform="translate(-98 1060.531)"/><path class="u" d="M1126.429-179.228c-1.113-4.931-22.016-5.061-24.6-.529-1.16,2.029-2.78,9.775-4.215,17.7,2.087-6.363,4.091-12.076,5.087-13.821,2.588-4.531,17.955-5.833,19.068-.9.965,4.277-16.163,35.091-16.163,35.091,4.424-5.789,21.943-32.593,20.827-37.541" transform="translate(-98 1060.531)"/><path class="q" d="M1038.124-197.145l-15.528,1.269.8,9.751,15.527-1.271-.8-9.749" transform="translate(-98 1060.531)"/><path class="q" d="M1031-200.672l-3.12.256-.145,6.541,4.473-.365L1031-200.671" transform="translate(-98 1060.531)"/><path class="x" d="M1030.478-201.149l-2.08.171-.14,3.851,2.987-.245-.767-3.776" transform="translate(-98 1060.531)"/><path class="x" d="M1037.175-196.82l-13.335,1.091.685,8.373,13.333-1.092-.684-8.372" transform="translate(-98 1060.531)"/><path class="ab" d="M1029.019-232.846l.02,0-.012,0h-.008m37.1-.753-.023,0c-1.375-.284-2.755-.577-4.1-.865h0c1.352.288,2.737.584,4.12.869" transform="translate(-98 1060.531)"/><path class="ac" d="M1015.348-220.6a31.571,31.571,0,0,1-4.268-5.567,31.276,31.276,0,0,1,6.951-3.156,6.7,6.7,0,0,0-1.628,1.208c-.7.759-1.016,3.617-1.055,7.515" transform="translate(-98 1060.531)"/><path class="ac" d="M1041.637-209.759a36.37,36.37,0,0,1-26.289-10.837c.039-3.9.353-6.756,1.055-7.515a6.7,6.7,0,0,1,1.628-1.208l.016-.005a42.2,42.2,0,0,1,10.352-3.383h0c6.707,3.44,20,10.775,20,10.775l18.157-11.577h0a77.859,77.859,0,0,1,9.408,2.452c-.053.12-.107.24-.161.359-.317-.087-.629-.167-.937-.237a4.37,4.37,0,0,0-.975-.117c-3.108,0-4.268,3.972-4.224,9.44a37.983,37.983,0,0,1-22.064,11.4,39.522,39.522,0,0,1-5.965.452m-13.045-22.991.427-.1h.008c-.145.032-.291.064-.435.1m37.964-.76-.457-.093.023,0,.435.089" transform="translate(-98 1060.531)"/><path class="ad" d="M1048.4-221.933s-13.293-7.335-20-10.775l.013,0,.18-.04c.144-.033.289-.065.435-.1l.012,0,.3-.064c1.279-.283,2.581-.563,3.889-.837l-.024.156,14.972,7.821,13.839-8.623-.009-.072c1.343.288,2.723.581,4.1.865l.457.093h0L1048.4-221.933" transform="translate(-98 1060.531)"/><path class="ae" d="M1048.172-225.774,1033.2-233.6l.024-.156h0l1.857-12.048,25.228-2.039L1062-234.469h0l.009.072-13.839,8.623" transform="translate(-98 1060.531)"/><path class="ac" d="M1069.667-221.614c-.044-5.468,1.116-9.44,4.224-9.44a4.372,4.372,0,0,1,.975.117c.308.071.62.151.937.237a33.885,33.885,0,0,1-6.136,9.085" transform="translate(-98 1060.531)"/><path class="t" d="M1061.8-254.2c7.931-4.651,10.243-7.815,8.928-11.529-1-2.84-4.584-2.753-7.085.077S1061.8-254.2,1061.8-254.2" transform="translate(-98 1060.531)"/><path class="af" d="M1063.133-256.951c5.4-3.168,6.973-5.324,6.079-7.852-.685-1.935-3.121-1.875-4.824.053s-1.255,7.8-1.255,7.8" transform="translate(-98 1060.531)"/><path class="t" d="M1063.937-257.229c3.3-2.471,4.2-4.037,3.488-5.723-.541-1.291-2.1-1.116-3.095.3s-.393,5.421-.393,5.421" transform="translate(-98 1060.531)"/><path class="t" d="M1032.579-251.855c-8.008-6.781-10.005-10.217-8.939-13.828.861-2.913,4.292-2.839,6.951.436,2.883,3.552,1.988,13.392,1.988,13.392" transform="translate(-98 1060.531)"/><path class="af" d="M1031.763-254.382c-5.667-5.328-7.081-7.9-6.329-10.411.605-2.024,3.032-1.761,4.915.737,2.04,2.711,1.415,9.673,1.415,9.673" transform="translate(-98 1060.531)"/><path class="t" d="M1032.649-252.683c-4.345-4.085-5.429-6.057-4.852-7.983.464-1.552,2.324-1.349,3.768.565,1.565,2.079,1.084,7.417,1.084,7.417" transform="translate(-98 1060.531)"/><path class="ag" d="M1034.3-249.637c-9.675-15.592-11.439-37.808-10.215-39.047a1.732,1.732,0,0,1,2.5.051s-2.672-8.012-.643-11.485,6.775-1.137,6.775-1.137.728-6.113,5.612-7.356,9.091,3.12,9.091,3.12,2.083-6.685,10.048-5.033a9.814,9.814,0,0,1,8.249,8.836,14.579,14.579,0,0,1,4.108,6.217c3.976,11.3-8.1,47.416-8.1,47.416l-27.431-1.581" transform="translate(-98 1060.531)"/><path class="ah" d="M1069.831-295.471a14.579,14.579,0,0,0-4.108-6.217,8.244,8.244,0,0,0-.212-1.321c-1.4,9.115-10.095,14.821-18.788,14.821-8.364,0-23.641-6.431-18.117-13.761a3.646,3.646,0,0,0-2.657,1.832c-2.029,3.473.643,11.485.643,11.485a1.732,1.732,0,0,0-2.5-.051c-1.224,1.239.54,23.455,10.215,39.047l27.431,1.581s12.072-36.117,8.1-47.416" transform="translate(-98 1060.531)"/><path class="t" d="M1031.856-291.149c-1.312,20.128-.284,45.335.48,47.9s12.96,6.815,15.724,6.952,14.689-4.675,15.593-6.139c1.513-2.452-.079-45.36-.4-47.6-1.112-7.867-12.285-3.277-16.14-3.269-3.749.005-14.793-5.008-15.26,2.161" transform="translate(-98 1060.531)"/><path class="aa" d="M1133.109-153.8c-4.139,7.507-9.848,13.044-9.1,11.82,3.8-6.251,10.351-18.133,11.82-20.584.611-1.019-1.761,7.031-2.717,8.764" transform="translate(-98 1060.531)"/><path class="ai" d="M1077.265-137.852l-5.113-20.541a35.36,35.36,0,0,0,7.251-1.433l5.309,21.332c-2.853.249-5.516.488-7.447.643m-5.42-21.775-.585-2.349a63.561,63.561,0,0,0,7.1-2.047l.447,1.795a42.978,42.978,0,0,1-6.96,2.6m-5.856-23.527-.227-.908q3.492-1.126,7.108-2.007l.225.9c-2.413.571-4.787,1.248-7.107,2.012" transform="translate(-98 1060.531)"/><path class="aj" d="M1072.152-158.393l-.307-1.233a42.985,42.985,0,0,0,6.96-2.6l.6,2.4a35.36,35.36,0,0,1-7.251,1.433" transform="translate(-98 1060.531)"/><path class="aj" d="M1071.26-161.976l-5.271-21.177c2.32-.764,4.693-1.441,7.107-2.012l5.263,21.143a63.564,63.564,0,0,1-7.1,2.047" transform="translate(-98 1060.531)"/><path class="ak" d="M1055.967-273.358l-3.831.1c-.068,2.04.189,4.615,2.033,4.615s1.876-3.205,1.8-4.711" transform="translate(-98 1060.531)"/><path class="ag" d="M1050.577-278.717c-.469.321-.248,3.111.124,3.361a84.173,84.173,0,0,0,10.853.012c.557-.219.495-3.063.185-3.429s-10.667-.283-11.163.056" transform="translate(-98 1060.531)"/><path class="af" d="M1049.173-276.851c1.513,8.449,3.917,19.861,3.917,21.485s-7.165,1.951-7.985,1.409,2.267-22.895,2.267-22.895h1.8" transform="translate(-98 1060.531)"/><path class="t" d="M1049.364-277.665c.481,7.5,3.005,19.884,3.005,21.509s-5.516,2.064-6.337,1.523,1.107-23.032,1.107-23.032h2.225" transform="translate(-98 1060.531)"/><path class="ak" d="M1044.1-272.547l-3.831.1c-.068,2.041.191,4.615,2.036,4.615s1.875-3.205,1.795-4.712" transform="translate(-98 1060.531)"/><path class="ag" d="M1034.128-278.281c-.449.315-.237,2.916.119,3.137a82.2,82.2,0,0,0,10.368-.332c.533-.221.473-2.879.179-3.211s-10.192.073-10.665.405" transform="translate(-98 1060.531)"/><path class="af" d="M1039.8-251.339l-.441,1c2.377,2.8,7.585,3.2,16.387,1.259l-.087-.425c-8.449,1.865-13.717.689-15.859-1.835" transform="translate(-98 1060.531)"/><path class="af" d="M1051.309-246.6c.025.283-.785.872-1.952.923s-2.248-.459-2.273-.741,1.1-.02,2.268-.071,1.932-.393,1.957-.111" transform="translate(-98 1060.531)"/><path class="t" d="M1096.232-154.093c-.972,4.424-1.528,6.5-4.495,9.92,0,0-1.764,10.047-.38,14.408,0,0,11.527-.478,12.789-2.783s2.751-4.527,2.593-6.188a15.432,15.432,0,0,1,3.1-10.776l-13.605-4.581" transform="translate(-98 1060.531)"/></g></g></svg>