<svg xmlns="http://www.w3.org/2000/svg" xmlns:xlink="http://www.w3.org/1999/xlink" width="427.185" height="366.841" viewBox="0 0 427.185 366.841"><defs><style>.a{fill:#d9dbd8;}.b{fill:#fff;}.c{fill:#85cb28;}.d{fill:#845434;}.e{fill:#74492d;}.f{fill:#abd71c;}.g{fill:#f8a62c;}.h{fill:#d2d3d2;}.i{fill:#f57d2e;}.j{fill:#e9eae9;}.k{fill:#6fd1f6;}.l{fill:#f5f013;}.m{fill:#4a93b6;}.n{fill:#bab8b7;}.o{fill:#b1b11c;}.p{fill:#3b393d;}.q{fill:#7c6960;}.r{fill:#88786f;}.s{fill:#957e72;}.t{fill:#6f5f57;}.u{fill:#867067;}.v{fill:#9f897f;}.w{fill:#af978d;}.x{fill:#bea9a0;}.y{fill:#c1c2c2;}.z{fill:#e8e8e8;}.aa{fill:#d0d1d0;}.ab{fill:#97999b;}.ac{fill:#52423b;}.ad{fill:#79c5e5;}.ae{fill:#898c8e;}.af{fill:#aeb0b0;}.ag{fill:#4a3b36;}.ah{fill:#92dcf8;}.ai{fill:#61524c;}.aj{fill:#cfd0cf;}.ak{fill:#b9baba;}.al{fill:#e7e7e7;}.am{fill:#f3f4f4;}.an{fill:#79675e;}.ao{fill:#fabd41;}.ap{clip-path:url(#a);}.aq{fill:#68abca;}.ar{fill:#de7129;}.as{fill:#e29727;}.at{fill:#66524b;}.au{fill:#a7a8a9;}.av{fill:#babbbc;}.aw{fill:#4386a7;}.ax{fill:#a8a6a5;}.ay{fill:#62bee4;}.az{fill:#6d5d55;}.ba{fill:#716058;}.bb{fill:#79d4f6;}.bc{fill:#85766d;}.bd{fill:#eb1d27;}.be{fill:#cf1e25;}.bf{fill:#a11c21;}.bg{fill:#6e1417;}.bh{fill:#76bfd8;}.bi{fill:#694028;}.bj{fill:#78492d;}.bk{fill:#955f3a;}.bl{fill:#875635;}.bm{fill:#68adcb;}.bn{fill:#c21e25;}.bo{fill:#c4c2c1;}.bp{fill:#a61c22;}.bq{fill:#82171c;}.br{fill:#561216;}.bs{fill:#d0cbb7;}.bt{fill:#bcb8a6;}.bu{fill:#79655d;}.bv{fill:#e4dfc9;}.bw{fill:#e0cdad;}.bx{fill:#ccb99a;}.by{fill:#e5d8c1;}.bz{fill:#eadfce;}.ca{fill:#c68a73;}.cb{fill:#514a43;}.cc{fill:#b7a180;}</style><clipPath id="a"><path d="M503.051-50.062c-7.088,0-107.6-7.952-111.217-8.49h0c3.615.538,104.129,8.489,111.217,8.49.118,0,.21,0,.276-.007l.042,0-.042,0c-.065,0-.158.007-.276.007m.329-.011.032,0-.032,0m.046,0,.036,0-.036,0m.042,0,.04,0-.04,0m.057,0,.024,0-.024,0m.044,0,.02,0-.02,0" transform="translate(-391.834 58.552)"/></clipPath></defs><g transform="translate(-1161.055 -582.396)"><g transform="translate(-9174 -14236.043)"><path class="a" d="M205.379,25.993C94.292,25.993,4.236,13.787,4.236-1.268s90.056-27.26,201.143-27.26S406.519-16.322,406.519-1.268s-90.052,27.26-201.141,27.26" transform="matrix(1, 0.017, -0.017, 1, 10331.273, 15152.197)"/><path class="b" d="M505.3-142.038c-8.821,0-12.625-9.572.093-11.869,0,0-3.524-5.168,1.389-7.848s8.552,2.106,8.552,2.106-2.571-7.083,6-7.849,6,11.1,6,11.1,1.928-4.4,5.141-2.106,1.285,3.715,1.285,3.715,2.789-2.028,4.924,0,0,3.559,0,3.559,9.433-7.083,13.931-.957-2.571,10.146-6.644,10.146H505.3" transform="translate(10208.178 15085.854)"/><path class="b" d="M411.213-160.849a.465.465,0,0,1-.372-.178.374.374,0,0,1,.123-.555c1.462-.87,2.29-1.328,2.29-1.328a.48.48,0,0,1,.616.131.377.377,0,0,1-.145.551c-.005,0-.823.453-2.263,1.311ZM406.78-158.1a.469.469,0,0,1-.364-.167.374.374,0,0,1,.1-.558q1.194-.765,2.209-1.393a.484.484,0,0,1,.623.1.374.374,0,0,1-.113.557c-.67.416-1.405.878-2.2,1.385Zm-4.331,2.861a.466.466,0,0,1-.355-.157.372.372,0,0,1,.085-.56q1.121-.763,2.158-1.448a.487.487,0,0,1,.626.084.372.372,0,0,1-.093.559q-1.032.681-2.149,1.441A.48.48,0,0,1,402.449-155.242Zm-4.235,2.966a.47.47,0,0,1-.349-.149.372.372,0,0,1,.068-.562q1.079-.777,2.11-1.5a.486.486,0,0,1,.629.068.374.374,0,0,1-.077.562c-.683.48-1.386.977-2.1,1.493A.48.48,0,0,1,398.214-152.276Zm-4.142,3.069a.468.468,0,0,1-.34-.14.371.371,0,0,1,.049-.564q1.043-.8,2.064-1.551a.485.485,0,0,1,.63.053.371.371,0,0,1-.059.563q-1.012.75-2.052,1.544A.48.48,0,0,1,394.072-149.207Zm-4.041,3.174a.475.475,0,0,1-.332-.132.371.371,0,0,1,.031-.565q1.014-.821,2.013-1.6a.487.487,0,0,1,.632.036.373.373,0,0,1-.041.565q-.994.779-2,1.6a.475.475,0,0,1-.3.1Zm-3.935,3.276a.473.473,0,0,1-.322-.122.371.371,0,0,1,.013-.566q.983-.843,1.958-1.656a.486.486,0,0,1,.632.019.37.37,0,0,1-.022.565q-.97.81-1.948,1.648A.475.475,0,0,1,386.1-142.758Zm-3.814,3.386a.471.471,0,0,1-.313-.114.371.371,0,0,1-.007-.566q.948-.867,1.9-1.71a.485.485,0,0,1,.633,0,.371.371,0,0,1,0,.566q-.944.838-1.888,1.7a.478.478,0,0,1-.32.12Zm-3.684,3.5a.479.479,0,0,1-.3-.1.371.371,0,0,1-.031-.565q.911-.9,1.831-1.77a.485.485,0,0,1,.633-.018.371.371,0,0,1,.019.566q-.913.867-1.819,1.759a.472.472,0,0,1-.332.132Zm-3.535,3.619a.48.48,0,0,1-.288-.094.371.371,0,0,1-.055-.563q.871-.927,1.754-1.831a.488.488,0,0,1,.632-.039.372.372,0,0,1,.042.565q-.878.9-1.742,1.819a.471.471,0,0,1-.343.143Zm-3.369,3.743a.485.485,0,0,1-.273-.082.372.372,0,0,1-.082-.561q.824-.959,1.668-1.895a.486.486,0,0,1,.629-.061.372.372,0,0,1,.069.562q-.836.931-1.655,1.882A.469.469,0,0,1,371.693-128.51Zm-3.172,3.866-.256-.072a.373.373,0,0,1-.111-.556q.771-.992,1.567-1.96a.485.485,0,0,1,.626-.086.374.374,0,0,1,.1.559q-.79.961-1.556,1.943a.462.462,0,0,1-.367.172Zm-2.959,4.008-.235-.06a.376.376,0,0,1-.144-.551q.712-1.025,1.456-2.032a.482.482,0,0,1,.621-.113.375.375,0,0,1,.127.554q-.739,1-1.445,2.013A.462.462,0,0,1,365.562-120.635Zm-2.708,4.153-.214-.048a.379.379,0,0,1-.179-.543q.645-1.061,1.327-2.106a.477.477,0,0,1,.613-.144.377.377,0,0,1,.162.546q-.675,1.033-1.314,2.085a.46.46,0,0,1-.394.209Zm-2.417,4.3-.187-.037a.383.383,0,0,1-.22-.531q.568-1.1,1.175-2.178a.472.472,0,0,1,.6-.177.38.38,0,0,1,.2.536q-.6,1.07-1.162,2.154A.455.455,0,0,1,360.436-112.185Zm-2.075,4.436-.158-.026a.39.39,0,0,1-.262-.515q.476-1.132,1-2.248a.468.468,0,0,1,.586-.214.386.386,0,0,1,.241.523q-.516,1.1-.987,2.22A.449.449,0,0,1,358.361-107.749Zm-1.682,4.558-.123-.016a.4.4,0,0,1-.308-.494q.37-1.161.794-2.31a.459.459,0,0,1,.566-.254.392.392,0,0,1,.284.506q-.418,1.131-.783,2.276a.443.443,0,0,1-.43.291Zm-1.237,4.66-.084-.007a.405.405,0,0,1-.357-.467c.166-.783.355-1.576.564-2.359a.451.451,0,0,1,.539-.3.4.4,0,0,1,.332.481c-.205.771-.392,1.552-.555,2.323A.438.438,0,0,1,355.442-98.531Zm-.744,4.747-.04,0a.416.416,0,0,1-.406-.434c.081-.795.184-1.6.31-2.4a.448.448,0,0,1,.506-.341.411.411,0,0,1,.381.452c-.123.786-.226,1.581-.3,2.362a.432.432,0,0,1-.446.364Zm-.207,4.791a.428.428,0,0,1-.448-.395c0-.207,0-.416,0-.622q0-.9.038-1.8a.445.445,0,0,1,.465-.384.421.421,0,0,1,.429.416q-.037.879-.038,1.767c0,.2,0,.407.005.611a.425.425,0,0,1-.442.406Zm22.2,1.973-.05,0a18.905,18.905,0,0,0-2.611-.082.433.433,0,0,1-.467-.382.421.421,0,0,1,.428-.418,19.863,19.863,0,0,1,2.749.087.413.413,0,0,1,.4.442A.434.434,0,0,1,376.692-87.02Zm-7.882.968a.454.454,0,0,1-.412-.241.385.385,0,0,1,.232-.526,15.863,15.863,0,0,1,2.627-.764.455.455,0,0,1,.535.3.4.4,0,0,1-.339.478,14.746,14.746,0,0,0-2.466.718Zm13.094.146-.15-.024c-.854-.273-1.7-.5-2.525-.681a.4.4,0,0,1-.33-.482.459.459,0,0,1,.541-.294c.851.184,1.731.422,2.615.7a.391.391,0,0,1,.271.512A.45.45,0,0,1,381.9-85.906Zm-27.055,1.7a.434.434,0,0,1-.445-.352c-.107-.8-.192-1.606-.253-2.41a.419.419,0,0,1,.418-.426.432.432,0,0,1,.476.372c.06.79.143,1.586.249,2.368a.413.413,0,0,1-.391.445Zm31.9.348-.236-.061a22.33,22.33,0,0,0-2.314-1.112.384.384,0,0,1-.219-.532.472.472,0,0,1,.594-.2,23.337,23.337,0,0,1,2.412,1.161.374.374,0,0,1,.142.55.461.461,0,0,1-.379.189Zm-22.374.465a.471.471,0,0,1-.325-.125.37.37,0,0,1,.017-.565,16.622,16.622,0,0,1,2.142-1.546.481.481,0,0,1,.622.107.375.375,0,0,1-.12.556,15.569,15.569,0,0,0-2.027,1.462.481.481,0,0,1-.309.11Zm26.427,2.65a.471.471,0,0,1-.345-.145,14.1,14.1,0,0,0-1.829-1.654.371.371,0,0,1-.051-.564.485.485,0,0,1,.631-.045,15.11,15.11,0,0,1,1.938,1.754.371.371,0,0,1-.06.563.478.478,0,0,1-.285.092ZM361.046-79.65l-.232-.059a.377.377,0,0,1-.149-.55,20.677,20.677,0,0,1,1.559-2.009.487.487,0,0,1,.629-.067.372.372,0,0,1,.074.562,19.964,19.964,0,0,0-1.5,1.931.461.461,0,0,1-.382.192Zm-5.271.167a.44.44,0,0,1-.436-.31c-.2-.783-.383-1.581-.538-2.373a.406.406,0,0,1,.364-.462.441.441,0,0,1,.518.325c.152.777.331,1.56.529,2.33a.4.4,0,0,1-.336.48Zm37.548,2.937a.443.443,0,0,1-.429-.285,10.664,10.664,0,0,0-.989-2.138.38.38,0,0,1,.182-.542.476.476,0,0,1,.606.162,11.518,11.518,0,0,1,1.058,2.289.4.4,0,0,1-.3.5Zm-34.617,1.207-.161-.027a.389.389,0,0,1-.258-.516c.331-.772.693-1.523,1.076-2.235a.472.472,0,0,1,.6-.186.382.382,0,0,1,.21.533c-.372.69-.725,1.421-1.046,2.173A.45.45,0,0,1,358.706-75.339Zm-1.479.475a.447.447,0,0,1-.426-.276q-.406-1.117-.786-2.31a.4.4,0,0,1,.308-.494.454.454,0,0,1,.553.275q.375,1.179.777,2.281a.393.393,0,0,1-.288.5Zm36.6,3.066h-.04a.416.416,0,0,1-.406-.434q.058-.583.058-1.166a11.263,11.263,0,0,0-.06-1.158.416.416,0,0,1,.405-.435.446.446,0,0,1,.487.362,12.08,12.08,0,0,1,.063,1.231c0,.407-.022.823-.062,1.236a.43.43,0,0,1-.445.365ZM359.1-70.37a.451.451,0,0,1-.412-.244c-.262-.545-.518-1.11-.766-1.684-.123.407-.241.821-.352,1.239a.452.452,0,0,1-.539.3.4.4,0,0,1-.332-.482c.211-.8.449-1.586.7-2.341a.458.458,0,0,1,.559-.266.4.4,0,0,1,.3.479.421.421,0,0,1,.256.233c.314.754.647,1.5.988,2.21a.386.386,0,0,1-.235.525Zm33.418,3.212-.172-.031a.387.387,0,0,1-.241-.523,14.968,14.968,0,0,0,.831-2.22.452.452,0,0,1,.544-.29.4.4,0,0,1,.323.486,15.78,15.78,0,0,1-.872,2.331.452.452,0,0,1-.414.246ZM361.5-66.082a.459.459,0,0,1-.388-.2c-.443-.677-.876-1.4-1.287-2.135a.381.381,0,0,1,.2-.536.472.472,0,0,1,.6.18c.4.723.826,1.426,1.26,2.088a.377.377,0,0,1-.161.546Zm-5.324.053-.058,0a.412.412,0,0,1-.386-.449c.117-.808.257-1.612.415-2.392a.448.448,0,0,1,.519-.322.406.406,0,0,1,.362.465c-.154.767-.292,1.559-.408,2.353a.434.434,0,0,1-.444.348Zm33.641,3.007a.481.481,0,0,1-.273-.083.372.372,0,0,1-.08-.561,18.38,18.38,0,0,0,1.47-1.946.48.48,0,0,1,.613-.143.377.377,0,0,1,.16.547,18.965,18.965,0,0,1-1.534,2.03.465.465,0,0,1-.354.156Zm-25.234.858a.47.47,0,0,1-.34-.14,25.443,25.443,0,0,1-1.666-1.929.373.373,0,0,1,.11-.557.483.483,0,0,1,.623.1c.52.664,1.064,1.293,1.613,1.867a.372.372,0,0,1-.049.564A.475.475,0,0,1,364.588-62.164Zm-8.869.915H355.7a.42.42,0,0,1-.427-.417q.061-1.22.175-2.411a.429.429,0,0,1,.484-.364.414.414,0,0,1,.407.432q-.112,1.174-.172,2.379a.429.429,0,0,1-.447.382Zm30.3,1.6a.466.466,0,0,1-.358-.159.372.372,0,0,1,.087-.559,19.378,19.378,0,0,0,1.98-1.538.486.486,0,0,1,.632,0,.371.371,0,0,1,0,.566,20.035,20.035,0,0,1-2.071,1.609A.48.48,0,0,1,386.022-59.649Zm-17.482.71-.252-.07a18.911,18.911,0,0,1-2.145-1.532.371.371,0,0,1-.026-.566.49.49,0,0,1,.632-.023,18,18,0,0,0,2.044,1.461.374.374,0,0,1,.116.556.463.463,0,0,1-.37.174Zm12.785,1.572a.446.446,0,0,1-.422-.267.39.39,0,0,1,.274-.51,17.083,17.083,0,0,0,2.38-.953.475.475,0,0,1,.607.158.378.378,0,0,1-.177.543,17.906,17.906,0,0,1-2.513,1.007Zm-7.925.4-.106-.011a15.586,15.586,0,0,1-2.611-.816.383.383,0,0,1-.22-.531.469.469,0,0,1,.594-.2,14.724,14.724,0,0,0,2.448.765.4.4,0,0,1,.328.483A.44.44,0,0,1,373.4-56.962Zm3.117.342c-.16,0-.32,0-.481-.008a.423.423,0,0,1-.43-.417.44.44,0,0,1,.465-.383c.166.006.332,0,.5.008a14.957,14.957,0,0,0,2.09-.148.444.444,0,0,1,.512.332.408.408,0,0,1-.372.458,17.517,17.517,0,0,1-2.281.157Zm-20.836.17a.428.428,0,0,1-.447-.388q-.033-1-.033-1.978l0-.436a.425.425,0,0,1,.448-.4h0a.426.426,0,0,1,.446.4l0,.432c0,.645.011,1.3.033,1.953a.425.425,0,0,1-.435.412Zm.341,4.789a.432.432,0,0,1-.445-.361q-.13-1.207-.218-2.4a.419.419,0,0,1,.419-.424.431.431,0,0,1,.475.373q.085,1.183.215,2.377a.414.414,0,0,1-.4.437Zm.693,4.757a.436.436,0,0,1-.442-.336q-.218-1.2-.391-2.386a.411.411,0,0,1,.386-.448.441.441,0,0,1,.5.345q.171,1.178.388,2.361a.408.408,0,0,1-.371.458Zm1.029,4.708a.441.441,0,0,1-.436-.311q-.3-1.179-.559-2.36a.4.4,0,0,1,.353-.469.442.442,0,0,1,.525.316q.256,1.167.554,2.335a.4.4,0,0,1-.336.48Zm1.363,4.642a.446.446,0,0,1-.429-.286q-.385-1.157-.728-2.324a.4.4,0,0,1,.32-.488.452.452,0,0,1,.546.285q.339,1.154.719,2.3a.4.4,0,0,1-.3.5Zm1.7,4.552a.447.447,0,0,1-.42-.26q-.471-1.131-.9-2.277a.393.393,0,0,1,.283-.507.461.461,0,0,1,.566.253q.423,1.133.887,2.252a.387.387,0,0,1-.263.514Zm2.046,4.438a.453.453,0,0,1-.408-.234q-.558-1.1-1.074-2.216a.385.385,0,0,1,.244-.521.466.466,0,0,1,.585.217q.508,1.106,1.06,2.19a.384.384,0,0,1-.222.53Zm2.455,4.265a.458.458,0,0,1-.386-.2c-.463-.706-.9-1.42-1.306-2.123a.38.38,0,0,1,.194-.538.475.475,0,0,1,.6.174c.395.689.826,1.389,1.28,2.082a.377.377,0,0,1-.16.547Zm2.957,4a.465.465,0,0,1-.362-.163c-.537-.653-1.057-1.321-1.548-1.985A.374.374,0,0,1,366.48-23a.478.478,0,0,1,.62.114c.483.652,1,1.309,1.524,1.951a.374.374,0,0,1-.1.559Zm3.365,3.739a.472.472,0,0,1-.336-.136q-.9-.92-1.74-1.85a.371.371,0,0,1,.067-.562.484.484,0,0,1,.629.061q.829.917,1.717,1.823a.37.37,0,0,1-.041.564A.478.478,0,0,1,371.628-16.558Zm3.691,3.485a.472.472,0,0,1-.313-.115q-.973-.854-1.894-1.722a.37.37,0,0,1,.018-.565.488.488,0,0,1,.632.016q.91.856,1.871,1.7a.369.369,0,0,1,.005.565A.472.472,0,0,1,375.319-13.073Zm3.954,3.248a.477.477,0,0,1-.291-.1q-1.032-.795-2.018-1.6a.37.37,0,0,1-.027-.564.488.488,0,0,1,.633-.024q.975.8,2,1.586a.371.371,0,0,1,.047.564A.471.471,0,0,1,379.274-9.825ZM383.442-6.8a.474.474,0,0,1-.272-.082q-1.079-.739-2.119-1.495a.371.371,0,0,1-.065-.562.488.488,0,0,1,.63-.058q1.03.749,2.1,1.481a.373.373,0,0,1,.084.561.473.473,0,0,1-.357.156Zm4.347,2.822-.254-.07q-1.12-.69-2.2-1.393a.372.372,0,0,1-.1-.558.483.483,0,0,1,.625-.088q1.074.7,2.185,1.38a.376.376,0,0,1,.114.557A.466.466,0,0,1,387.789-3.976Zm4.5,2.629-.237-.06q-1.152-.64-2.273-1.3a.376.376,0,0,1-.131-.554.485.485,0,0,1,.62-.117q1.113.65,2.258,1.286a.378.378,0,0,1,.144.552.464.464,0,0,1-.38.188ZM396.907,1.1l-.221-.051q-1.18-.6-2.333-1.207a.375.375,0,0,1-.156-.547.48.48,0,0,1,.613-.141q1.144.607,2.318,1.2A.379.379,0,0,1,397.3.9a.46.46,0,0,1-.39.2Zm4.732,2.276-.205-.044q-1.205-.553-2.386-1.121a.38.38,0,0,1-.181-.543.479.479,0,0,1,.606-.162q1.172.564,2.371,1.113a.381.381,0,0,1,.194.539A.459.459,0,0,1,401.638,3.376Zm4.825,2.11-.19-.037q-1.228-.513-2.432-1.039a.382.382,0,0,1-.205-.535.477.477,0,0,1,.6-.183q1.2.524,2.417,1.033a.383.383,0,0,1,.216.532A.453.453,0,0,1,406.464,5.486Zm4.909,1.951-.175-.031q-1.245-.472-2.471-.959a.384.384,0,0,1-.227-.528.47.47,0,0,1,.591-.2q1.219.485,2.457.954a.385.385,0,0,1,.237.524.451.451,0,0,1-.411.244Zm4.982,1.8-.161-.027q-1.263-.433-2.508-.883a.386.386,0,0,1-.247-.52.469.469,0,0,1,.582-.221q1.238.446,2.493.878a.389.389,0,0,1,.257.518.449.449,0,0,1-.418.256Zm5.046,1.647-.146-.022q-1.278-.394-2.54-.808a.389.389,0,0,1-.266-.513.467.467,0,0,1,.574-.238q1.255.41,2.524.8a.39.39,0,0,1,.277.508.447.447,0,0,1-.423.269Zm5.105,1.5-.134-.018q-1.287-.36-2.565-.734a.392.392,0,0,1-.285-.5.459.459,0,0,1,.565-.255q1.27.374,2.553.73a.4.4,0,0,1,.294.5.448.448,0,0,1-.428.28Zm5.155,1.355-.12-.015q-1.3-.321-2.589-.66a.393.393,0,0,1-.3-.5.458.458,0,0,1,.555-.271q1.284.336,2.578.657a.4.4,0,0,1,.311.493.441.441,0,0,1-.43.293Zm5.191,1.207-.106-.012q-1.308-.283-2.6-.586a.4.4,0,0,1-.32-.487.45.45,0,0,1,.545-.286q1.291.3,2.59.583a.4.4,0,0,1,.33.482.442.442,0,0,1-.435.306ZM442.079,16l-.092-.008q-1.317-.246-2.626-.512a.4.4,0,0,1-.337-.478.447.447,0,0,1,.535-.3q1.3.264,2.611.509a.4.4,0,0,1,.347.473A.439.439,0,0,1,442.079,16Zm5.266.914-.079-.006c-.882-.14-1.765-.287-2.644-.439a.406.406,0,0,1-.354-.47.452.452,0,0,1,.526-.317q1.312.229,2.63.437a.407.407,0,0,1,.363.465.437.437,0,0,1-.441.329Zm5.3.764-.065,0q-1.334-.174-2.662-.365a.406.406,0,0,1-.37-.458.441.441,0,0,1,.513-.331q1.32.19,2.646.362a.41.41,0,0,1,.379.453.434.434,0,0,1-.441.343Zm5.327.613-.051,0q-1.339-.135-2.674-.287a.413.413,0,0,1-.388-.448.446.446,0,0,1,.5-.345q1.329.153,2.66.285a.415.415,0,0,1,.4.443A.433.433,0,0,1,457.973,18.294Zm29.508.423a.43.43,0,0,1-.445-.366.416.416,0,0,1,.407-.432q1.143-.088,2.284-.194a.437.437,0,0,1,.491.356.412.412,0,0,1-.4.439q-1.147.108-2.3.2Zm-24.156.031h-.035q-1.345-.094-2.686-.208a.415.415,0,0,1-.4-.436.454.454,0,0,1,.487-.361q1.336.114,2.671.208a.417.417,0,0,1,.412.43A.43.43,0,0,1,463.325,18.749Zm18.8.285a.428.428,0,0,1-.447-.381.42.42,0,0,1,.426-.419q1.339-.056,2.673-.135a.436.436,0,0,1,.476.373.418.418,0,0,1-.417.426q-1.345.078-2.69.134Zm-13.428.008h-.02q-1.348-.054-2.7-.128a.417.417,0,0,1-.419-.423.434.434,0,0,1,.474-.375q1.339.074,2.678.127a.421.421,0,0,1,.429.417.43.43,0,0,1-.448.382Zm8.059.126a.4.4,0,1,1,0-.8q1.34-.013,2.679-.044h.012a.4.4,0,1,1,.011.8q-1.345.032-2.694.044Zm-2.686,0h0q-1.346-.01-2.694-.042a.424.424,0,0,1-.436-.41.433.433,0,0,1,.459-.39q1.341.032,2.679.043a.4.4,0,1,1,0,.8" transform="translate(10018.413 15090.774)"/><path class="c" d="M412.3-127.8s-48.5.257-29.888,42.386l8.935-17.053-3.723-6.894,5.212,2.754L412.3-127.8" transform="translate(10050.376 15128.669)"/><path class="c" d="M393.056-120.326s5.339-14.93,24.449-14.93,25.316,13.15,25.316,13.15H417.938l-1.828-5.685-1,5.685-22.056,1.78" transform="translate(10070.128 15120.637)"/><path class="c" d="M419.572-114.851s-4.553-35.061-47.55-22.936l17.015,8.159,5.494-1.533-2,4.486,27.042,11.824" transform="translate(10042.25 15115.162)"/><path class="d" d="M419.274-26.368s-6.287-9.461,1.655-28.677-5.957-54.99-28.46-71.546l1.362-1.479s36.362,19.218,40.335,50.851-4.3,39.321,6.287,50.851c0,0-15.884,2.07-21.179,0" transform="translate(10069.352 15128.38)"/><path class="e" d="M433.682-77.219c-3.972-31.633-40.335-50.851-40.335-50.851l-.512.557c4.855,3.23,26.8,20.635,32.9,36.621,7.2,18.847,4.467,25.5,3.227,37.029-1.059,9.843-2.835,21.459,3,28.236,4.371-.268,8.007-.741,8.007-.741-10.589-11.529-2.317-19.217-6.287-50.851" transform="translate(10069.836 15128.38)"/><path class="f" d="M401.863-127.8s-29.888,18.144-7.551,50.665l3.723-20.918-4.091-3.1,4.835.444,3.084-27.086" transform="translate(10060.809 15128.669)"/><path class="f" d="M422.832-122.83s-12.034-12.047-27.67-9.83-24.571,15.965-24.571,25.278l24.075-7.983.5-7.465,5.305,5.912,22.365-5.912" transform="translate(10040.352 15123.14)"/><path class="f" d="M392.836-126.59l23.142,13.118,4.549-3.991-1.488,5.765L437.9-99.947s1.985-18.4-14.891-25.5-30.174-1.144-30.174-1.144" transform="translate(10069.836 15127.457)"/><path class="f" d="M394.906-110.914s-9.622-13.712,2.458-25.464,29.573-6.209,35.346-2.439l-18.8,10.569-6.453-1.257,2.419,4.7-14.972,13.9" transform="translate(10067.766 15111.781)"/><path class="c" d="M455.955-146.885s-52.223-17.529-51.6,34.562l17.441-15.04-.829-8.773,4.333,4.872,30.656-15.622" transform="translate(10085.096 15105.05)"/><path class="c" d="M426.887-143.873s12.6-14.079,33.132-7.064,21.148,23.419,21.148,23.419l-26.731-9.134.651-6.778-3.687,5.741-24.512-6.184" transform="translate(10114.97 15101.629)"/><path class="c" d="M449.361-126.962s11.233-39.336-40.534-42.093l14.526,15.011,6.608.37-4.213,4.084,23.612,22.628" transform="translate(10091.032 15084.216)"/><path class="d" d="M418.592-29.959s-2.4-12.471,14.966-30.2,18.891-61.26,2.331-87.305l2.143-1.088s30.225,33.992,19.944,69.433S435.27-38.458,441.343-22.186c0,0-18.015-3.607-22.751-7.773" transform="translate(10103.825 15106.308)"/><path class="e" d="M450.475-79.12c10.282-35.441-19.943-69.433-19.943-69.433l-.806.409c3.73,5.253,19.3,32,18.506,51.42-.936,22.888-6.927,29.032-13.563,40.963C429-45.576,421.753-33.749,424.9-24.33c4.819,1.318,8.942,2.144,8.942,2.144-6.073-16.273,6.35-21.494,16.633-56.934" transform="translate(10111.325 15106.308)"/><path class="f" d="M445.2-148.356s-40.453,8.521-31.412,51.655l13.618-21.1-2.968-4.837,4.992,2.252L445.2-148.356" transform="translate(10095.855 15106.521)"/><path class="f" d="M462.924-137.5s-7.387-17.359-25.2-20.717-33.737,8.131-38.02,18.136l29.532.261,3.967-7.837,2.981,8.3,26.744,1.859" transform="translate(10078.933 15095.254)"/><path class="f" d="M426.54-148.33l18.828,22.586,6.723-2.617-4.251,5.646L462.7-103.167s10.593-19.042-4.271-32.859a44.8,44.8,0,0,0-31.889-12.3" transform="translate(10114.511 15106.495)"/><path class="f" d="M426.754-133.227s-4.031-18.263,14.351-26.454,34.629,4.186,39.1,10.354l-25.06,4.454-6.354-3.719.441,5.932-22.475,9.432" transform="translate(10114.298 15091.393)"/><path class="b" d="M434-83.969l-25.879-24.572-18.912,15.9,25.879,24.571a2.184,2.184,0,0,0,2.834.078l15.991-13.443A1.664,1.664,0,0,0,434-83.969" transform="translate(10065.035 15149.423)"/><path class="g" d="M404.554-112.374a2.185,2.185,0,0,0-2.835-.077L385.728-99.009a1.665,1.665,0,0,0-.086,2.533l9.023,8.568,18.912-15.9-9.023-8.568" transform="translate(10059.583 15144.688)"/><path class="h" d="M420.12-83.118l-24.252-23.027.585-.492L420.7-83.609l-.585.491" transform="translate(10073.855 15151.476)"/><path class="h" d="M404.383-93.786l-10.305-9.785,2.629-2.21L407.012-96l-2.629,2.21" transform="translate(10071.483 15152.399)"/><path class="h" d="M402.829-92.323l-10.306-9.785,2.629-2.21,10.305,9.785-2.629,2.21" transform="translate(10069.423 15153.976)"/><path class="h" d="M401.29-90.875l-10.305-9.786,2.629-2.21,10.305,9.786-2.629,2.21" transform="translate(10067.383 15155.534)"/><path class="h" d="M409.4-88.44l-10.305-9.785,2.629-2.21,10.305,9.785L409.4-88.44" transform="translate(10078.13 15158.159)"/><path class="h" d="M407.844-86.977l-10.305-9.785,2.629-2.211,10.306,9.786-2.629,2.21" transform="translate(10076.069 15159.734)"/><path class="h" d="M406.3-85.53,396-95.315l2.629-2.21,10.305,9.786L406.3-85.53" transform="translate(10074.029 15161.295)"/><path class="i" d="M398.761-100.839l-.224-.593-.091-.241a2.339,2.339,0,0,0,.221-.169l.029-.031.025-.108-.057-.1-.1-.079-.1-.038-.026.007-.143.112-.346-.917.033-.021.05-.033h0l.236-.162a1.219,1.219,0,0,0,.2-.164l0,0,.006-.1-.023-.067a1.567,1.567,0,0,0-.227-.331l-.161-.172a1.371,1.371,0,0,0-.461-.335l-.051-.006-.022.006-.028.013h0l-.005,0-.06.04-.4-1.062-.06-.159c.249-.231.473-.458.672-.679l.058-.066a7.36,7.36,0,0,0,.536-.673l.067-.1c.072-.107.135-.209.19-.307l.037-.069a2.521,2.521,0,0,0,.151-.334l.036-.114a.611.611,0,0,0,.012-.361l-.024-.048-.032-.042a.7.7,0,0,0-.588-.076l-.087.017-.185.046c-.1.027-.2.061-.311.1a6.534,6.534,0,0,0-.619.269c-.241.119-.5.259-.765.422l-.14.087c-.189.119-.38.248-.576.389l-.011-.006-.012,0,.007-.006.007-.007-.033-.013-.162-.065-.019.012-1.4-.558.06-.049,0,0h0l.1-.1.01-.022c.023-.1-.182-.356-.419-.569l-.09-.078-.181-.136-.086-.055c-.111-.064-.207-.1-.263-.072l-.005,0a2.029,2.029,0,0,0-.322.277l-.082.082-.088.089h0l-.065.068-.694-.277.084-.072.015-.018c.1-.14-.113-.31-.236-.326l-.149.1-.046.042-.1.1-.909-.363-.687.558.842.735.841.735-.026.037-.035.05,0,0,0,0h0a2.313,2.313,0,0,0-.165.276l-.044.109-.006.093.018.031c.088.086.343.032.669-.094h0l0,0h0l.113-.046.771.674.741.647c-.775.775-1.577,1.656-2.19,2.389l-.13.155-.122.149.076-.1.077-.1-2.026-.354-.578.759,1.7.806.066-.089-.1.171-.038.112.009.04.023.009a.836.836,0,0,0,.35-.092l-.029.014-.077.037.739,1.587.9-.445-.2-1.834-.107.051-.134.065c.758-.4,1.709-.952,2.614-1.522.208-.132.415-.265.615-.4l1.135,1.251-.07.107h0l0,0h0a1.736,1.736,0,0,0-.183.369c-.032.1-.031.18.013.223l.139.021a1.948,1.948,0,0,0,.46-.156h0l.059-.027.05-.022,1.672,1.845.686-.558" transform="translate(10064.051 15148.805)"/><path class="i" d="M393.919-97.269l-8.166-7.754.973-.819,8.166,7.755-.973.818" transform="translate(10060.449 15152.332)"/><path class="i" d="M400.157-102.609l-8.166-7.754,2.19-1.841,8.166,7.754-2.19,1.841" transform="translate(10068.718 15145.476)"/><path class="b" d="M433.734-79.232l-11.485-32.141-24.738,7.055L409-72.178a2.068,2.068,0,0,0,2.52,1.162l20.918-5.966a1.766,1.766,0,0,0,1.3-2.251" transform="translate(10076.034 15146.371)"/><path class="g" d="M420.581-116.121a2.068,2.068,0,0,0-2.52-1.161l-20.918,5.966a1.766,1.766,0,0,0-1.3,2.251l4,11.206,24.737-7.055-4-11.207" transform="translate(10073.699 15139.912)"/><path class="h" d="M416.656-79.845l-10.764-30.122.764-.218L417.42-80.063l-.764.219" transform="translate(10087.143 15147.652)"/><path class="h" d="M408.126-96.024l-4.574-12.8,3.438-.981L411.564-97l-3.438.981" transform="translate(10084.04 15148.063)"/><path class="h" d="M406.091-95.375l-4.573-12.8,3.438-.981,4.574,12.8-3.439.981" transform="translate(10081.346 15148.762)"/><path class="h" d="M404.08-94.733l-4.574-12.8,3.438-.981,4.574,12.8-3.438.981" transform="translate(10078.678 15149.455)"/><path class="h" d="M410.344-89.039l-4.573-12.8,3.438-.981,4.573,12.8-3.438.981" transform="translate(10086.98 15155.59)"/><path class="h" d="M408.31-88.39l-4.573-12.8,3.438-.981,4.573,12.8-3.438.981" transform="translate(10084.286 15156.289)"/><path class="h" d="M406.3-87.746l-4.573-12.8,3.438-.981,4.573,12.8-3.438.981" transform="translate(10081.618 15156.98)"/><path class="i" d="M407.525-104.659l.084-.62.033-.253a2.649,2.649,0,0,0,.281-.068l.042-.017.075-.088,0-.114-.053-.109L407.91-106l-.026,0-.183.046.13-.96.04-.007.061-.01h0c.11-.019.208-.037.291-.055a1.313,1.313,0,0,0,.26-.07l0,0,.055-.087.01-.069a1.374,1.374,0,0,0-.045-.385l-.061-.218a1.191,1.191,0,0,0-.255-.48l-.044-.025-.022,0-.032,0h-.006l-.073.013.15-1.114.022-.167c.337-.112.649-.232.934-.353l.085-.037c.3-.132.572-.268.808-.4l.108-.063c.116-.069.223-.137.319-.2l.067-.047a2.94,2.94,0,0,0,.3-.244l.088-.089a.663.663,0,0,0,.186-.321l0-.053-.009-.05c-.044-.129-.217-.23-.493-.295l-.086-.019-.191-.031c-.1-.012-.211-.022-.329-.028a6.869,6.869,0,0,0-.688,0c-.276.014-.574.042-.895.086l-.168.025c-.227.034-.463.077-.707.128l-.008-.008-.009-.009.01,0,.01,0-.024-.026-.115-.12-.023,0-.993-1.043.079-.021h0l.144-.054.021-.016c.071-.085.007-.391-.1-.675l-.044-.1-.1-.193-.052-.081c-.069-.1-.14-.167-.2-.167h-.007a2.332,2.332,0,0,0-.424.127l-.114.042-.122.047h0l-.09.035-.492-.517.111-.033.022-.009c.163-.085.048-.324-.055-.385a.382.382,0,0,0-.185.034l-.061.02-.14.05-.645-.677-.889.239.4.988.4.987-.042.023-.056.031-.005,0,0,0h0a2.643,2.643,0,0,0-.282.185l-.092.082-.05.082v.033c.037.112.294.162.649.173h.007l.125,0,.37.906.356.87c-1.074.4-2.221.886-3.129,1.31l-.191.091-.183.087.118-.062.117-.063-1.657-1.1-.888.461,1.144,1.382.1-.055-.171.117-.089.087-.01.04.016.017a.863.863,0,0,0,.361.053h-.032l-.088,0-.1,1.717,1.026-.054.7-1.734-.121.006-.152.007c.877-.069,2-.2,3.094-.367.252-.039.5-.079.746-.121l.42,1.566-.115.07h0l0,0h0a2.035,2.035,0,0,0-.344.262l-.1.207.116.073a2.063,2.063,0,0,0,.49.037h0l.067,0h.054l.619,2.308.889-.239" transform="translate(10078.002 15142.061)"/><path class="i" d="M399.981-103.252l-3.625-10.142,1.274-.363,3.624,10.142-1.273.363" transform="translate(10074.503 15143.803)"/><path class="i" d="M408.14-105.621l-3.624-10.142,2.865-.818,3.625,10.143-2.866.817" transform="translate(10085.317 15140.76)"/><path class="j" d="M409.029-111.766l6.765,56.6,19.61-6.347-6.821-57.061-19.555,6.812" transform="translate(10091.299 15138.608)"/><path class="j" d="M438.162-115.609l6.766,56.6-20.669-2.5-6.821-57.061,20.724,2.969" transform="translate(10102.445 15138.608)"/><path class="j" d="M426.35-113.616l6.766,56.6,19.61-6.347L445.9-120.428l-19.555,6.812" transform="translate(10114.258 15136.615)"/><path class="j" d="M455.482-117.458l6.763,56.6-20.665-2.5-6.821-57.061,20.723,2.97" transform="translate(10125.404 15136.615)"/><path class="k" d="M434.392-61.7l-18.3,5.924-6.427-53.764,18.251-6.358,20.724,2.97,19.555-6.812,19.342,2.771L493.962-63.2l-19.29-2.336-19.611,6.346-20.669-2.5" transform="translate(10092.141 15137.36)"/><path class="b" d="M488.04-112.494l-.128-1.072-19.191-2.4-.108-.014-19.6,6.344L431.367-112.4l-.11-.018-21.206,6.37.128,1.067,21.179-6.361,17.764,2.782,19.618-6.35,19.3,2.412" transform="translate(10092.655 15141.411)"/><path class="b" d="M430.415-117.208l3.559,29.779v.051c-.3.491-3.5-.166-4.7-.412a18.344,18.344,0,0,0-2.517-.418c-1.845-.064-7.963,1.175-10.164,2.648-1.964,1.314-1.44,4.839-.885,8.57.121.813.246,1.653.343,2.461l1.572,13.159.981-.318L417.06-74.625c-.1-.824-.225-1.672-.346-2.492-.482-3.242-.981-6.594.452-7.553,1.992-1.334,7.833-2.548,9.592-2.486a18.34,18.34,0,0,1,2.352.4c2.858.584,4.789.913,5.562.169a1.073,1.073,0,0,0,.309-.937l-3.53-29.535-1.036-.148" transform="translate(10099.483 15140.084)"/><path class="b" d="M481.744-107.358l-.128-1.061c-7.034-.526-18.343-1.349-19.163-1.271a14.872,14.872,0,0,0-2.946.9c-.84.31-1.708.631-2.355.792l-.1.024c-1.53.379-3.844.952-3.435,4.371L455.15-90.8c.033.274.073.578.114.9.195,1.5.712,5.48-.063,5.765a85.488,85.488,0,0,1-11.782,2.639,94.614,94.614,0,0,1-10.874-.735,74.06,74.06,0,0,0-7.613-.562c-2.061.2-8.773,2.889-9.058,3l.394.983c.067-.028,6.868-2.756,8.789-2.939.85-.081,4.045.232,7.426.562,4.348.425,9.276.907,11.062.736a85.043,85.043,0,0,0,12.023-2.694c1.41-.518,1.166-3.292.7-6.866-.043-.319-.081-.618-.113-.889l-1.532-12.81c-.3-2.509,1.155-2.869,2.7-3.25l.1-.024c.7-.174,1.592-.5,2.456-.822a14.985,14.985,0,0,1,2.7-.843c.659-.062,10.5.637,19.165,1.284" transform="translate(10100.373 15148.18)"/><path class="b" d="M444.111-75.744l1.033.126-4.01-33.545-1.007.1,3.983,33.322" transform="translate(10132.52 15148.753)"/><path class="b" d="M439.753-102.764l-1.008.1-1.514-12.673,1.007-.1,1.515,12.673" transform="translate(10128.681 15141.993)"/><path class="b" d="M410.577-103.953l.126,1.06c6.507-1.664,16.988-4.307,18.48-4.45,2.155-.206,10.1.928,10.181.94l.107-1.043c-.332-.047-8.143-1.162-10.413-.945-1.557.148-11.936,2.762-18.481,4.437" transform="translate(10093.352 15149.558)"/><path class="b" d="M427.7-109.963l.706,5.906A1.335,1.335,0,0,0,430-102.88l3.772-.876a1.277,1.277,0,0,0,.954-1.42l-.758-6.342a1.327,1.327,0,0,0-1.72-1.139l-3.72,1.31a1.286,1.286,0,0,0-.825,1.383" transform="translate(10116.033 15144.914)"/><path class="b" d="M431.237-110.7l.652,5.455a1.547,1.547,0,0,0,1.861,1.36l5.016-1.224a1.481,1.481,0,0,0,1.09-1.643l-.709-5.935a1.539,1.539,0,0,0-1.984-1.324l-4.959,1.7a1.489,1.489,0,0,0-.967,1.607" transform="translate(10120.721 15143.45)"/><path class="b" d="M490.5-90.358c-1.487-.052-3.243-.135-5-.268-8.508-.644-8.747-1.833-8.749-1.845-.094-.787-.172-2.044-.256-3.376-.372-5.972-.6-7.12-1.411-7.229a46.592,46.592,0,0,0-7.18-.211c-1.08.1-4.663,1.41-8.811,2.924-4.371,1.594-9.326,3.4-10.786,3.54a95.112,95.112,0,0,1-10.511-.784,77,77,0,0,0-7.99-.631c-1.6.153-13.156,3.565-18.4,5.13l.128,1.066c6.813-2.037,17.012-5.016,18.4-5.148.871-.083,4.392.28,7.8.63a91.918,91.918,0,0,0,10.7.785c1.584-.152,6.383-1.9,11.025-3.595a78.892,78.892,0,0,1,8.571-2.869,45.88,45.88,0,0,1,6.791.187,39.064,39.064,0,0,1,.663,6.239c.083,1.347.163,2.621.26,3.438.123,1.03,1.373,2.167,9.715,2.8,1.818.138,3.639.223,5.165.275l-.126-1.057" transform="translate(10094.463 15155.009)"/><path class="b" d="M464.233-104c-6.922-.819-19.929-2.284-21.354-1.92l-.824.212c-2.782.715-8.571,2.2-9.747,2.632-1.251.46-2.808,1.032-2.525,3.406l2.9,24.28.981-.318-2.877-24.059c-.177-1.484.562-1.831,1.884-2.316,1.129-.414,7.1-1.948,9.654-2.6l.825-.212c1.1-.282,12.17.894,21.207,1.966L464.233-104" transform="translate(10118.765 15152.185)"/><path class="b" d="M425.789-81.513l1.032.126-2.253-18.856-1.007.1,2.227,18.634" transform="translate(10110.563 15158.365)"/><path class="l" d="M491-90.111c-6.365-.637-17.994-1.8-19.125-1.883a3.147,3.147,0,0,0-2.6.921,2.185,2.185,0,0,0-.587,1.756l.585,4.891c.379,3.173-.071,3.833-.373,3.943-1.359.5-13.514,4.449-14.9,4.581-1.16.11-3.876.231-4.027-1.029l-3.308-27.676c-.338-2.824-.933-5.735-2.789-5.917-1.368-.132-12.373-.863-15.134-.6-1.865.178-12,2.989-18.435,4.812l.169,1.418c7.407-2.1,16.78-4.675,18.433-4.832,2.627-.251,13.58.472,14.884.6.3.03,1.039.54,1.529,4.647L448.627-76.8c.152,1.274,1.237,2.709,5.537,2.3,1.639-.157,13.932-4.18,15.224-4.653,1.794-.658,1.412-3.859,1.227-5.4l-.585-4.891a.821.821,0,0,1,.24-.645,1.9,1.9,0,0,1,1.549-.506c1.117.084,13.062,1.276,19.35,1.906L491-90.111" transform="translate(10092.989 15146.582)"/><path class="b" d="M412.191-95.223l1.42,11.88a1.6,1.6,0,0,0,2.07,1.38l3.37-1.164a1.553,1.553,0,0,0,1.005-1.674l-1.409-11.786a1.607,1.607,0,0,0-2.035-1.392l-3.381,1.071a1.55,1.55,0,0,0-1.041,1.685" transform="translate(10095.476 15160.729)"/><path class="b" d="M415.758-104.249l.447,3.74a1.33,1.33,0,0,0,1.648,1.159l3.425-.983a1.279,1.279,0,0,0,.892-1.4l-.48-4.014a1.322,1.322,0,0,0-1.734-1.13l-3.392,1.256a1.282,1.282,0,0,0-.805,1.372" transform="translate(10100.205 15151.135)"/><path class="b" d="M422.392-89.318l3.784.4a1.163,1.163,0,0,0,1.254-1.333l-.43-3.6a1.259,1.259,0,0,0-1.05-1.1l-3.8-.54a1.162,1.162,0,0,0-1.3,1.327l.448,3.744a1.254,1.254,0,0,0,1.092,1.108" transform="translate(10106.958 15163.466)"/><path class="b" d="M430.769-114.977l.238,2a.977.977,0,0,0,1.265.838l6-2.111a.943.943,0,0,0,.607-1.017l-.281-2.355a.973.973,0,0,0-1.31-.821l-5.959,2.468a.947.947,0,0,0-.562,1" transform="translate(10120.106 15138.679)"/><path class="b" d="M414.225-113.8l.28,2.339a.975.975,0,0,0,1.262.838l4.213-1.472a.944.944,0,0,0,.608-1.016l-.3-2.52a.974.974,0,0,0-1.295-.826L414.8-114.8a.946.946,0,0,0-.575,1" transform="translate(10098.178 15140.829)"/><path class="b" d="M431.889-91.877l.194,1.624a.8.8,0,0,0,1.025.693l7.1-2.355a.773.773,0,0,0,.511-.838l-.2-1.639a.8.8,0,0,0-1.026-.692l-7.1,2.368a.776.776,0,0,0-.51.839" transform="translate(10121.592 15163.885)"/><path class="m" d="M445.527-93.2l-3.242-.227-.411-3.448c.935.112,2,.215,3.222.307l.432.032V-93.2" transform="translate(10134.832 15161.997)"/><path class="m" d="M450.59-68.858l-9.757-.683L439.42-81.363c.586.049,2.433.228,4.845.465.076.958.137,1.944.187,2.735.083,1.347.163,2.621.26,3.438s.912,1.71,5.458,2.356l.42,3.511m4.268-4.089-.391-.029c-1.32-.1-2.44-.213-3.392-.332l-.837-7,4.619.46v6.9m-4.818-.5c-4.172-.627-4.321-1.361-4.322-1.371-.094-.787-.172-2.044-.256-3.376-.062-.995-.119-1.855-.177-2.6l3.923.388.831,6.958m4.818-7.8-4.789-.477-.878-7.339c1.857.2,3.779.417,5.667.634v7.182m-5.819-.58-3.875-.383c-.249-2.524-.53-3.135-1.112-3.212s-3.024-.274-5.153-.282l-.521-4.363c2.147.12,5.76.464,9.782.893l.879,7.347m-4.9-.484c-2.5-.245-4.358-.424-4.778-.456l-.112-.007-.224-1.877c1.879.014,4,.171,4.762.254a9.917,9.917,0,0,1,.351,2.086m10.719-7.17c-1.8-.207-3.793-.433-5.794-.649l-.839-7.018c2.128.152,4.4.318,6.633.483v7.183m-6.826-.759c-3.806-.4-7.513-.757-9.779-.87l-.8-6.707h0c.028,0,.072,0,.131,0,.837,0,4.767.257,9.616.6l.834,6.981m6.826-7.477c-3.815-.282-8.433-.619-11.979-.855L441.5-110.154l13.363,1.67v10.762m-13.006-.922c-2.162-.141-3.788-.232-4.354-.232-.078,0-.135,0-.172,0l-1.433-11.982,4.568.57,1.391,11.639m13.006-10.9-18.983-2.373-.108-.014h0l-.934-7.811,19.342,2.771.684,5.724v1.7" transform="translate(10125.501 15137.36)"/><path class="n" d="M454.326-112.535l-13.363-1.67-.078-.649-1.006.1.051.423-4.568-.57-.128-1.071h0l.108.014,18.983,2.373v1.056" transform="translate(10126.032 15141.411)"/><path class="n" d="M453.437-107.489c-2.238-.166-4.5-.332-6.633-.483l-.074-.616-1.007.1.053.446c-4.849-.344-8.78-.6-9.616-.6-.059,0-.1,0-.131,0h0l-.125-1.048c.037,0,.094,0,.172,0,.567,0,2.192.091,4.354.231l.073.611,1.008-.1-.054-.447c3.546.236,8.165.572,11.98.855v1.053" transform="translate(10126.922 15148.18)"/><path class="n" d="M444.6-80.18l-1.026-.072-.42-3.511c.326.046.67.091,1.035.135l.411,3.448m-.54-4.523c-.37-.046-.714-.094-1.036-.142l-.831-6.958,1.03.1.837,7m-1.007-8.42-1.03-.1-.879-7.347,1.031.111.878,7.339m-1.005-8.407-1.031-.11-.834-6.981-.053-.446,1.007-.1.074.616.839,7.018" transform="translate(10132.52 15148.753)"/><path class="n" d="M438.746-102.667l-.073-.611-1.391-11.639-.051-.423,1.007-.1.078.649,1.384,11.577.054.447-1.008.1" transform="translate(10128.681 15141.993)"/><path class="n" d="M452.54-89.544l-.432-.032c-1.219-.092-2.287-.194-3.222-.307-.365-.044-.709-.089-1.034-.135-4.546-.646-5.36-1.535-5.459-2.356s-.177-2.091-.26-3.438c-.05-.791-.111-1.776-.187-2.735l1.021.1c.058.745.115,1.6.177,2.6.084,1.333.162,2.589.256,3.376,0,.009.149.744,4.321,1.371.321.048.665.1,1.035.142.952.119,2.072.232,3.392.332l.391.029v1.053m-9.694-10.32-1.025-.1a9.916,9.916,0,0,0-.351-2.086c-.761-.082-2.883-.24-4.762-.254l-.126-1.053c2.129.008,4.556.2,5.153.282s.863.687,1.112,3.212" transform="translate(10127.818 15155.009)"/><path class="n" d="M452.908-103.278c-1.888-.218-3.809-.434-5.667-.634l-1.031-.111c-4.022-.429-7.635-.772-9.782-.893l-.124-1.045c2.266.114,5.973.467,9.779.87l1.032.11c2,.216,4,.442,5.794.649v1.053" transform="translate(10127.452 15152.205)"/><path class="o" d="M452.34-99.015l-4.619-.46-1.03-.1-3.923-.388-1.021-.1c-2.412-.237-4.259-.416-4.845-.465l-.17-1.416.112.007c.42.031,2.278.21,4.777.456l1.025.1,3.875.383,1.03.1,4.789.477v1.406" transform="translate(10128.019 15156.529)"/><path class="m" d="M436.008-92.244l-5.135-.359-.83-6.942c1.909.189,3.713.355,5.145.442l.82,6.859m-6.162-.432-9.586-.672-.771-6.454c.818.044,1.383.07,1.546.073h.142a1.838,1.838,0,0,0,1.3-.574c1.358.122,2.97.288,4.557.452l1.979.2.833,6.973" transform="translate(10105.163 15158.301)"/><path class="m" d="M429.705-92.568l-2.055-.144-.824-6.895c.146,0,.285,0,.417,0,.3,0,.561-.009.768-.029a6.654,6.654,0,0,0,.831-.15l.862,7.212" transform="translate(10114.89 15158.864)"/><path class="m" d="M439.446-81.216c-.155,0-.324,0-.506-.007L437-97.451c-.338-2.824-.933-5.735-2.789-5.917-.493-.047-2.242-.173-4.4-.3l-.532-4.446,8.649,1.354L440.957-81.4a6.383,6.383,0,0,1-.83.157c-.18.018-.409.025-.68.025m-10.665-22.513c-2.723-.154-5.857-.3-7.952-.3-.638,0-1.179.014-1.583.044l-.547-4.575,2.664-.8,6.876,1.076.543,4.55m9.014-4.112-8.649-1.355-.847-7.089,8.634,1.237.861,7.207m-9.687-1.517-6.736-1.056-.11-.018-2.691.808-.98-8.2,9.671,1.385.846,7.075" transform="translate(10102.649 15139.427)"/><path class="n" d="M437.367-110.593l-8.649-1.354-.13-1.08,8.649,1.355.13,1.079m-9.687-1.517-6.876-1.076-2.664.8-.128-1.067,2.691-.808.11.018,6.737,1.056.129,1.079" transform="translate(10103.207 15143.258)"/><path class="n" d="M424.3-104.388c-.333-.02-.676-.04-1.026-.059l-.543-4.55-.13-1.079-.846-7.075,1.036.148.847,7.089.13,1.08.532,4.446" transform="translate(10108.161 15140.146)"/><path class="m" d="M436.536-89.172c-2.169-.139-5.185-.45-7.959-.735-1.477-.152-2.875-.3-4.088-.409.358-1.371-.306-3.15-1.98-3.243l-2.127-.112-.059-.492a14.431,14.431,0,0,1,2.095-.219l.136,0a18.329,18.329,0,0,1,2.352.4,22.838,22.838,0,0,0,4.038.6,2.155,2.155,0,0,0,1.525-.431,1.073,1.073,0,0,0,.309-.937l-1.839-15.387c2.053.123,3.7.241,4.152.285.3.03,1.039.54,1.529,4.647l1.917,16.033m-7.5-5.254a25.5,25.5,0,0,1-3.966-.589,18.349,18.349,0,0,0-2.517-.418l-.144,0a15.363,15.363,0,0,0-2.212.229l-1.184-9.9c.142-.008.3-.012.481-.012,2.378,0,7.641.7,9.132.908l1.142,9.558v.051c-.079.127-.351.177-.734.177m-.538-10.861c-1.761-.241-6.668-.884-9.054-.884q-.308,0-.556.016l-.515-4.31c.372-.027.87-.039,1.457-.039,2.089,0,5.317.149,8.08.307l.588,4.911" transform="translate(10103.687 15147.31)"/><path class="n" d="M427.9-93.541a22.837,22.837,0,0,1-4.038-.6,18.342,18.342,0,0,0-2.352-.4l-.136,0a14.429,14.429,0,0,0-2.095.219l-.124-1.043a15.362,15.362,0,0,1,2.212-.229l.144,0a18.342,18.342,0,0,1,2.517.418,25.509,25.509,0,0,0,3.966.589c.383,0,.655-.05.734-.177v-.051l-1.142-9.558.4.056.107-1.043-.635-.089-.588-4.911q.527.029,1.026.06l1.839,15.387a1.073,1.073,0,0,1-.309.937,2.155,2.155,0,0,1-1.525.431" transform="translate(10104.727 15147.468)"/><path class="n" d="M428.735-106.4l-.4-.057c-1.491-.206-6.754-.908-9.132-.908-.177,0-.339,0-.481.012L418.6-108.4c.165-.01.35-.016.556-.016,2.386,0,7.293.644,9.054.884l.635.089-.107,1.043" transform="translate(10103.98 15149.555)"/><path class="n" d="M435.267-98.516c-.131,0-.271,0-.417,0l-.126-1.055c.181,0,.35.007.506.007.271,0,.5-.007.68-.025a6.376,6.376,0,0,0,.83-.157l.127,1.055a6.663,6.663,0,0,1-.831.15c-.207.019-.465.029-.768.029m-1.782-.066c-1.432-.087-3.236-.253-5.145-.442l-.076-.633-1.006.1.052.433-1.979-.2c-1.587-.164-3.2-.33-4.557-.452a2.067,2.067,0,0,0,.339-.482,2.534,2.534,0,0,0,.2-.522c1.213.113,2.611.257,4.088.409,2.774.285,5.789.6,7.959.735l.128,1.06" transform="translate(10106.866 15157.779)"/><path class="n" d="M425.474-92.668l-1.027-.072-.833-6.973-.052-.433,1.007-.1.076.633.83,6.942" transform="translate(10110.563 15158.365)"/><path class="o" d="M438.948-80.429l-1.369-.1-.82-6.859-.128-1.06-1.917-16.033c-.49-4.107-1.232-4.617-1.529-4.647-.457-.044-2.1-.162-4.152-.285q-.5-.031-1.026-.06c-2.763-.157-5.991-.307-8.08-.307-.588,0-1.085.012-1.457.039l-.167-1.4c.4-.03.945-.043,1.583-.043,2.095,0,5.229.142,7.952.3.35.019.693.039,1.026.059,2.162.129,3.911.255,4.4.3,1.856.181,2.451,3.093,2.789,5.917L438-88.378l.126,1.055.824,6.895" transform="translate(10103.593 15146.582)"/><path class="p" d="M464.147-49.155h-.612a4.686,4.686,0,0,1-4.913-4.39V-55.3a4.685,4.685,0,0,1,4.913-4.39h.612a4.686,4.686,0,0,1,4.913,4.39v1.751a4.686,4.686,0,0,1-4.913,4.39" transform="translate(10157.032 15202.067)"/><path class="p" d="M485.847-51.691h-.622a4.692,4.692,0,0,1-4.913-4.39v-1.752a4.692,4.692,0,0,1,4.913-4.39h.622a4.686,4.686,0,0,1,4.913,4.39v1.752a4.686,4.686,0,0,1-4.913,4.39" transform="translate(10185.782 15199.335)"/><path class="q" d="M553.869-126.487l-27.158-1.71c-7.515-1.6-67.594-.4-76.55,3.8-5.51,2.586-6.718,11.8-6.718,22.194V3.523c0,5.4,6.552,12.318,14.036,13.438a24.292,24.292,0,0,0,4.043.663l26.391,4.118s3.649-2.212,8.593-5.183c10.987-1.011,21-2.009,23.488-2.758,5.369-1.616,18.357-6.416,18.357-18.814V-61.275c7.764-32.366,15.517-65.212,15.517-65.212" transform="translate(10136.915 15127.51)"/><path class="r" d="M470.8-114.366l-27.058-2.327c.594-3.761,1.632-6.914,3.366-9.016l27.009,1.9c-1.741,2.218-2.757,5.525-3.317,9.446" transform="translate(10137.315 15130.923)"/><path class="s" d="M538.39-127.374c-7.515-1.6-67.594-.4-76.55,3.8-5.5,2.585-6.717,11.8-6.717,22.194V9.545c0,7.062,11.195,12.619,21.042,11.04s50.138-4.346,55.507-5.962S550.03,8.209,550.03-4.189V-99.377c0-14-2.239-26-11.641-28" transform="translate(10152.395 15128.397)"/><path class="t" d="M454.035-63.336A59.421,59.421,0,0,0,456.564-74v10.429c-.829.064-1.679.142-2.529.232" transform="translate(10150.953 15186.646)"/><path class="u" d="M502.867-21.84c-2.1-3.788-9.194-6.136-17.642-7.507-.052-.291-.1-.587-.166-.887,3.462.165,7.173.287,10.977.287,19.176,0,40.913-3.1,46.531-19.378A143.781,143.781,0,0,0,550.03-91.2V-43.9c0,12.4-12.988,17.2-18.357,18.813a24.3,24.3,0,0,1-2.933.569c-5.235.789-15.579,1.742-25.872,2.675M455.123-45.028V-55.455a37.606,37.606,0,0,0,3.182,10.236c-1.036.044-2.1.107-3.182.191" transform="translate(10152.396 15168.104)"/><path class="q" d="M457.142-95.869c0,6.4,1.576,12.123,5.38,12.361s65.427-3.763,69.76-4.762,5.224-9.2,5.224-14.8-2.021-12.2-10.967-12.8-55.518,3.2-61.561,3.4-7.836,6.2-7.836,16.6" transform="translate(10155.072 15141.461)"/><path class="v" d="M456.453-109.656s-1.119-12.627,10.967-14.512c9.7-1.513,38.29-2.971,54.056-2.971,3.887,0,6.986.088,8.842.285,9.4,1,12.086,3.2,14.108,11.6,0,0-2.643-10-15.082-10-.124,0-.249,0-.363,0-12.76.2-52.377,1.8-59.094,2.6s-12.086,5-13.434,13" transform="translate(10154.122 15129.383)"/><path class="w" d="M458.622-95.612c0,6.4,1.565,12.123,5.369,12.361s65.427-3.763,69.76-4.763,5.224-9.2,5.224-14.8-2.021-12.2-10.967-12.8-55.518,3.2-61.561,3.4-7.826,6.2-7.826,16.6" transform="translate(10157.032 15141.737)"/><path class="q" d="M457.4-78.89c0,6.4-3.8,41.15,11.869,40.357,3.8-.193,52.875-3.551,57.3-4.123,14.325-1.851,11.184-37.834,11.184-43.433s-2.011-12.2-10.967-12.8-55.508,3.2-61.551,3.4-7.836,6.2-7.836,16.6" transform="translate(10154.874 15159.757)"/><path class="w" d="M459.028-78.377c0,6.4-3.8,41.149,11.858,40.357,3.814-.193,52.885-3.551,57.311-4.123,14.315-1.851,11.184-37.834,11.184-43.433s-2.011-12.2-10.967-12.8-55.508,3.2-61.551,3.4-7.836,6.2-7.836,16.6" transform="translate(10157.032 15160.31)"/><path class="x" d="M459.491-100.649a4.705,4.705,0,0,1,.041-.906c-.041.562-.041.906-.041.906m.041-.906c.187-2.454,1.057-9.08,5.183-9.514,4.789-.5,50.1-3.5,59.954-3.5.591,0,1.057.011,1.379.033,5.67.4,9.547,3.866,9.1,9.332,0,0-1.047-7.465-9.847-7.865q-.731-.033-1.773-.032c-11.931,0-53.092,3.095-57.322,3.5-3.97.379-6.3,5.359-6.676,8.048" transform="translate(10158.174 15142.93)"/><path class="x" d="M459.782-83.285a3.992,3.992,0,0,1,.042-.9c-.042.562-.042.9-.042.9m.042-.9C460-86.644,460.871-93.27,465-93.7c4.789-.5,50.107-3.5,59.965-3.5q.886,0,1.368.033c5.67.4,9.557,3.866,9.1,9.332,0,0-1.036-7.466-9.847-7.865-.477-.022-1.078-.032-1.762-.032-11.931,0-53.092,3.095-57.332,3.5-3.97.378-6.292,5.358-6.665,8.047" transform="translate(10158.557 15161.64)"/><path class="b" d="M462.035-108.949a.315.315,0,0,1-.332-.275.3.3,0,0,1,.3-.324c.487-.036,48.832-3.653,62.152-3.494a.32.32,0,0,1,.332.3.319.319,0,0,1-.342.3c-13.258-.169-61.592,3.456-62.079,3.492h-.031" transform="translate(10161.114 15144.567)"/><path class="b" d="M463.631-104.968c-1.679,0-1.534-2.086-1.534-2.086h3.016S465.32-104.968,463.631-104.968Zm0-6.285a.7.7,0,0,1,.632.757.7.7,0,0,1-.632.757A.7.7,0,0,1,463-110.5.7.7,0,0,1,463.631-111.254Zm1.451,1.788c-.187-1.133-.653-1.974-1.451-1.974s-1.265.842-1.451,1.974-1.047,4.71,1.451,4.71,1.627-3.577,1.451-4.71" transform="translate(10161.363 15146.3)"/><path class="b" d="M462.74-90.942a.332.332,0,0,1-.342-.275.318.318,0,0,1,.311-.324c.487-.036,48.832-3.653,62.142-3.494a.313.313,0,0,1,.332.3.307.307,0,0,1-.342.3c-13.247-.169-61.592,3.456-62.079,3.492h-.021" transform="translate(10162.037 15163.972)"/><path class="b" d="M464.333-86.962c-1.69,0-1.545-2.086-1.545-2.086h3.027S466.012-86.962,464.333-86.962Zm0-6.285a.708.708,0,0,1,.632.757.708.708,0,0,1-.632.757.7.7,0,0,1-.632-.757A.7.7,0,0,1,464.333-93.247Zm1.441,1.788c-.176-1.133-.643-1.974-1.441-1.974s-1.275.842-1.451,1.974-1.047,4.71,1.451,4.71,1.627-3.578,1.441-4.71" transform="translate(10162.288 15165.703)"/><path class="y" d="M457.263-129.527c.58-.238,5.742-.4,6.5-.477s6.4.461,6.727.9S464.3-127.7,464.3-127.7l-7.038-1.829" transform="translate(10155.23 15126.288)"/><path class="z" d="M456.42-125.395s1.161-4.383,1.959-4.383,6.768.4,7.038.557,0,4.93,0,4.93l-9-1.1" transform="translate(10154.115 15126.539)"/><path class="aa" d="M460.289-129.364s6.054-.636,6.406,0a26.2,26.2,0,0,1,.8,4.175l-7.2.756v-4.93" transform="translate(10159.243 15126.681)"/><path class="y" d="M474.281-129.959c.456-.187,4.561-.3,5.162-.359s5.069.384,5.328.731-4.913,1.1-4.913,1.1l-5.577-1.471" transform="translate(10177.788 15125.951)"/><path class="z" d="M473.608-126.677s.933-3.474,1.565-3.472,5.369.335,5.577.462a24.527,24.527,0,0,1-.021,3.911l-7.121-.9" transform="translate(10176.896 15126.141)"/><path class="aa" d="M476.691-129.817s4.8-.487,5.079.018a19.486,19.486,0,0,1,.622,3.314l-5.722.578.021-3.911" transform="translate(10180.955 15126.271)"/><path class="ab" d="M458.524-110.235v-29.877c0-2.933.187-7.2,6.665-7.333s27.448-.533,30.983-.667,5.328,2.933,5.328,6.132v31.19h-4.478v-28.124c0-2.8-1.327-3.866-4.468-4s-26.08.8-27.365.933-1.3,2.266-1.3,4.266v27.477s-3.13,1.08-5.369,0" transform="translate(10156.903 15106.78)"/><path class="y" d="M459.549-109.836v-30.276c0-2.933.2-7.2,6.665-7.333s27.448-.533,30.982-.667,5.328,2.933,5.328,6.132v31.19h-4.478v-28.124c0-2.8-1.327-3.866-4.467-4s-26.08.8-27.365.933-1.285,2.266-1.285,4.266v27.477s-3.141,1.48-5.38.4" transform="translate(10158.263 15106.78)"/><path class="ac" d="M464.392-146.922v5.454l-1.316.079s.124,1.333,2.063,1.267,21.716-.867,22.908-.933,2.011-2.2,1.71-4.066-.591-3.466-2.384-3.533-22.607.533-23.582.533-1.42,1.3-1.42,1.3l2.021-.1" transform="translate(10162.002 15106.192)"/><path class="ad" d="M473.354-144.462l.135-.007a1.673,1.673,0,0,0,1.265-1.025h0a1.673,1.673,0,0,1-1.265,1.025l-.135.007" transform="translate(10176.56 15109.604)"/><path class="ae" d="M473.956-145.363h0a2.125,2.125,0,0,0,.114-.252h0a2.132,2.132,0,0,1-.114.252" transform="translate(10177.357 15109.475)"/><path class="af" d="M474-144.9h0a5.077,5.077,0,0,0,.363-1.376A5.077,5.077,0,0,1,474-144.9" transform="translate(10177.422 15108.76)"/><path class="ag" d="M464.6-141.344c-1.814,0-1.928-1.269-1.928-1.269l1.316-.079v-4.121a3.5,3.5,0,0,0,3.213,2.867c.363.008.9.013,1.586.013,4.271,0,13.786-.165,16.689-.28,2.239-.089,3.244-2.03,3.669-3.313.073.372.145.768.207,1.18a4.964,4.964,0,0,1,.031,1.413,5.077,5.077,0,0,1-.363,1.376,2.114,2.114,0,0,1-.114.252,1.673,1.673,0,0,1-1.265,1.025l-.135.007c-2.094.1-20.887.861-22.773.927h0c-.052,0-.093,0-.135,0" transform="translate(10162.403 15107.415)"/><path class="ah" d="M462.616-147.738a1.238,1.238,0,0,1,.788-.384,1.238,1.238,0,0,0-.788.384m.788-.385h0m.021,0h0m.01,0h0m.021,0h0m23.654-.531h0m-.021,0h0m-.021,0h0" transform="translate(10162.326 15106.195)"/><path class="ai" d="M469.455-144.9a11.813,11.813,0,0,1-5.152-1.063v-.958l-1.482.073c-.135-.1-.259-.207-.384-.308a2.7,2.7,0,0,1,.414-.578,1.237,1.237,0,0,1,.788-.384h.062c.923,0,19.664-.538,23.146-.538.2,0,.342,0,.435,0h.062A1.886,1.886,0,0,1,489-147.617c0,1.165-1.016,2.314-2.912,2.427-1.182.07-2.851.075-4.862.075h-.777c-2.923,0-6.458.007-10.179.192-.28.014-.56.021-.819.021" transform="translate(10162.091 15106.192)"/><path class="aj" d="M397.141-158.264c1.019,1.576,16.491-4.089,17.463-5.011s-2.381-6.478-3.73-6.623-15.091,9.532-13.733,11.634" transform="translate(10075.418 15083.305)"/><path class="ak" d="M399.611-158.388a84.323,84.323,0,0,0,11.038-3.561l-1.132-7.924c-1.709.546-8.385,5.13-11.674,8.466l1.767,3.019" transform="translate(10076.474 15083.335)"/><path class="aj" d="M388.688-173.2c-1.018-1.576,12.213-10.71,13.593-11s5.086,5.082,4.553,6.2-16.788,6.9-18.146,4.8" transform="translate(10064.266 15067.888)"/><path class="ak" d="M389.426-176.843l2.066,2.823a61.6,61.6,0,0,0,13.482-4.433l-7.135-4.8a74.2,74.2,0,0,0-8.414,6.409" transform="translate(10065.316 15068.917)"/><path class="al" d="M410.722-173.375l3.529,28.326-4.588,2.366-13.746-24.435,14.8-6.257" transform="translate(10073.922 15079.562)"/><path class="al" d="M416.747-169.446l-25.687-16.9-4.588,2.366,16.8,22.858,13.471-8.321" transform="translate(10061.402 15065.58)"/><path class="al" d="M416.747-169.446l-25.687-16.9-4.588,2.366,16.8,22.858,13.471-8.321" transform="translate(10061.402 15065.58)"/><path class="aj" d="M395.918-167.117l.864,1.537a73.875,73.875,0,0,0,14.074-6.71l-.135-1.084-14.8,6.257" transform="translate(10073.922 15079.562)"/><path class="aj" d="M394.24-169.664l-1.057-1.438a72.984,72.984,0,0,1,13.544-7.53l.984.647-13.47,8.321" transform="translate(10070.296 15073.896)"/><path class="b" d="M440.679-179.353c-1.562-2.418-12.1-.768-24.216,5.48s-33.954,22.69-33.072,24.056,27.745-7.3,39.862-13.547,18.92-13.678,17.427-15.989" transform="translate(10057.283 15071.973)"/><path class="al" d="M395.119-166.9l-10.8-4.171-4.262,3.6,8.372,6.338,6.69-5.766" transform="translate(10052.899 15082.046)"/><path class="al" d="M392.969-166.734l-1.361,10.441-5.62,1.5-1.954-9.647,8.935-2.291" transform="translate(10058.17 15086.718)"/><path class="p" d="M408.566-177.324a4.86,4.86,0,0,0-3.28-2.162l-2.13,1.8a2.777,2.777,0,0,1,3.174,1.515,2.272,2.272,0,0,1-.119,3.214l2.81-.748a3.875,3.875,0,0,0-.455-3.618" transform="translate(10083.516 15072.976)"/><path class="am" d="M387.968-180.293s7.007-5.32,7.669-5.1,1.646,1.41.869,2.073-7.392,3.163-8.538,3.028" transform="translate(10063.384 15066.603)"/><path class="am" d="M400.579-158.439s7.008-5.32,7.671-5.1,1.646,1.41.869,2.074-7.392,3.162-8.539,3.027" transform="translate(10080.101 15090.151)"/><path class="aj" d="M391.767-168.1l-7.379,3.805s2.719.209,7.379-3.805" transform="translate(10058.64 15085.241)"/><path class="al" d="M399.974-177.069l-.026-.035a.316.316,0,0,1,.1-.466l1.372-.817a.406.406,0,0,1,.521.094l.026.035a.315.315,0,0,1-.1.465l-1.373.817a.4.4,0,0,1-.52-.093" transform="translate(10079.181 15074.1)"/><path class="al" d="M398.648-176.4l-.026-.035a.315.315,0,0,1,.1-.466l1.372-.817a.406.406,0,0,1,.521.093l.026.035a.316.316,0,0,1-.1.466l-1.373.817a.406.406,0,0,1-.521-.093" transform="translate(10077.423 15074.825)"/><path class="al" d="M397.367-175.648l-.027-.035a.315.315,0,0,1,.1-.465l1.373-.817a.4.4,0,0,1,.52.093l.026.035a.315.315,0,0,1-.1.466l-1.374.817a.4.4,0,0,1-.52-.094" transform="translate(10075.724 15075.632)"/><path class="al" d="M396.085-174.9l-.026-.035a.315.315,0,0,1,.1-.465l1.373-.818a.407.407,0,0,1,.521.094l.026.035a.315.315,0,0,1-.1.465l-1.373.818a.405.405,0,0,1-.52-.094" transform="translate(10074.025 15076.438)"/><path class="al" d="M394.893-174l-.026-.035a.315.315,0,0,1,.1-.466l1.372-.817a.406.406,0,0,1,.521.094l.026.035a.315.315,0,0,1-.1.465l-1.372.818a.406.406,0,0,1-.521-.093" transform="translate(10072.446 15077.407)"/><path class="al" d="M393.657-173.177l-.026-.035a.315.315,0,0,1,.1-.466l1.374-.817a.4.4,0,0,1,.52.094l.027.034a.316.316,0,0,1-.1.466l-1.374.817a.4.4,0,0,1-.52-.093" transform="translate(10070.807 15078.294)"/><path class="al" d="M392.465-172.279l-.026-.035a.315.315,0,0,1,.1-.465l1.373-.817a.406.406,0,0,1,.522.093l.026.035a.316.316,0,0,1-.1.466l-1.373.817a.4.4,0,0,1-.52-.094" transform="translate(10069.227 15079.263)"/><path class="al" d="M391.273-171.379l-.026-.035a.315.315,0,0,1,.1-.465l1.373-.818a.407.407,0,0,1,.522.094l.026.035a.316.316,0,0,1-.1.466l-1.374.817a.405.405,0,0,1-.52-.094" transform="translate(10067.647 15080.232)"/><path class="al" d="M390.081-170.48l-.026-.035a.315.315,0,0,1,.1-.466l1.372-.817a.407.407,0,0,1,.521.094l.026.035a.315.315,0,0,1-.1.465l-1.372.818a.407.407,0,0,1-.521-.094" transform="translate(10066.067 15081.2)"/><path class="al" d="M388.892-169.583l-.026-.035a.315.315,0,0,1,.1-.466l1.372-.817a.407.407,0,0,1,.521.094l.026.035a.315.315,0,0,1-.1.465l-1.372.817a.406.406,0,0,1-.521-.093" transform="translate(10064.492 15082.167)"/><path class="al" d="M402.149-173.374l.021.038a.4.4,0,0,0,.5.152l1.479-.654a.321.321,0,0,0,.17-.449l-.021-.038a.4.4,0,0,0-.5-.152l-1.478.653a.321.321,0,0,0-.17.45" transform="translate(10082.129 15078.335)"/><path class="al" d="M400.9-172.563l.021.038a.4.4,0,0,0,.5.152l1.478-.653a.321.321,0,0,0,.17-.45l-.021-.037a.4.4,0,0,0-.5-.153l-1.479.654a.321.321,0,0,0-.17.449" transform="translate(10080.478 15079.21)"/><path class="al" d="M399.613-171.828l.021.038a.4.4,0,0,0,.5.152l1.479-.653a.322.322,0,0,0,.17-.45l-.022-.038a.4.4,0,0,0-.5-.152l-1.479.654a.321.321,0,0,0-.17.449" transform="translate(10078.77 15080.003)"/><path class="al" d="M398.324-171.093l.022.038a.4.4,0,0,0,.5.152l1.479-.653a.322.322,0,0,0,.17-.45l-.021-.037a.4.4,0,0,0-.5-.153l-1.478.654a.321.321,0,0,0-.171.449" transform="translate(10077.06 15080.795)"/><path class="al" d="M396.949-170.51l.022.037a.4.4,0,0,0,.5.153l1.479-.654a.321.321,0,0,0,.17-.449l-.021-.038a.4.4,0,0,0-.5-.152l-1.478.653a.321.321,0,0,0-.171.45" transform="translate(10075.237 15081.422)"/><path class="al" d="M395.618-169.852l.021.038a.4.4,0,0,0,.5.152l1.479-.653a.322.322,0,0,0,.17-.45l-.021-.038a.4.4,0,0,0-.5-.152l-1.478.654a.32.32,0,0,0-.17.449" transform="translate(10073.473 15082.131)"/><path class="al" d="M394.244-169.27l.021.038a.4.4,0,0,0,.5.152l1.479-.653a.321.321,0,0,0,.17-.45l-.021-.037a.4.4,0,0,0-.5-.153l-1.478.654a.32.32,0,0,0-.17.449" transform="translate(10071.651 15082.759)"/><path class="al" d="M392.869-168.687l.021.037a.4.4,0,0,0,.5.152l1.479-.653a.321.321,0,0,0,.17-.449l-.021-.038a.4.4,0,0,0-.5-.152l-1.478.653a.321.321,0,0,0-.17.45" transform="translate(10069.828 15083.387)"/><path class="al" d="M391.494-168.1l.021.038a.4.4,0,0,0,.5.152l1.479-.654a.32.32,0,0,0,.17-.449l-.021-.038a.4.4,0,0,0-.5-.152l-1.478.653a.321.321,0,0,0-.17.45" transform="translate(10068.006 15084.014)"/><path class="al" d="M390.123-167.525l.021.038a.4.4,0,0,0,.5.152l1.479-.654a.321.321,0,0,0,.17-.449l-.021-.038a.4.4,0,0,0-.5-.152l-1.478.653a.321.321,0,0,0-.17.45" transform="translate(10066.188 15084.64)"/><path class="an" d="M434.427-101.3l-16.089-.666a1.151,1.151,0,0,0-.587.138l0-.008-1.6.661.917.431-2.878,8.153a1.08,1.08,0,0,1-1.149.661l-1.582-.172a1.15,1.15,0,0,0-.6.108L410.85-92l-1.6.665.927.643a.98.98,0,0,0,.94,1.032l.628.057,1.085.753,1.664-.694,0,0a.983.983,0,0,0,.468-.507L418.7-99.8a1.071,1.071,0,0,1,1.06-.644l13.85.585a1.516,1.516,0,0,1,.812-1.438" transform="translate(10091.591 15156.507)"/><path class="i" d="M519.29-90.781s-109.651-7.662-112.714-7.936a4.558,4.558,0,0,0-1.851.244h0c-.142.048-.284.1-.423.157l-13.652,5.055,9.8,7.076v59.711c0,3.557,3.676,5.2,7.351,5.746,2.777.414,62.707,5.2,93.574,7.4l7.363,5.315,12.615-4.606c.135-.044.269-.1.4-.147h0c2.5-.958,3.97-3.145,3.97-6.317V-82.3c0-5.473-2.705-8.222-6.437-8.483" transform="translate(10066.937 15159.991)"/><path class="g" d="M507.517-88.147S397.862-95.809,394.8-96.083s-6.126,3.01-6.126,5.2V-23.84c0,3.557,3.676,5.2,7.351,5.746S503.535-9.337,507.517-9.611s6.432-2.737,6.432-6.841V-79.664c0-5.473-2.708-8.222-6.432-8.483" transform="translate(10064.318 15162.83)"/><path class="ao" d="M389.61-87.75s-1.838-8.347,7.658-7.662,100.466,7.252,105.06,7.662,8.117,1.642,7.5,9.577c0,0,.153-6.978-8.73-7.662S403.548-93.223,398.647-93.5s-7.045-.136-9.037,5.747" transform="translate(10065.37 15163.528)"/><g transform="translate(10460.343 15144.737)"><g class="ap" transform="translate(0 0)"><path class="aq" d="M391.834-50.062H503.587v-8.49H391.834Z" transform="translate(-391.834 58.552)"/></g></g><path class="ar" d="M442.545-51.006V-61.438c0,.757.109,6.251,2.326,9.41a24.972,24.972,0,0,0-2.326,1.022m12.438-3.612a12.841,12.841,0,0,0,.487-1.276c-.062.4-.135.814-.2,1.228-.093.016-.187.032-.29.048m1.658-6.881a55.338,55.338,0,0,0,.3-6.143v4.92c-.1.392-.207.8-.3,1.222" transform="translate(10135.722 15193.496)"/><path class="as" d="M507.241-43.441c-7.088,0-107.6-7.952-111.217-8.49h0c-3.676-.547-7.351-2.189-7.351-5.747v-6.975c2.59,4.018,7.321,8.221,15.928,9.165,17.459,1.915,86.682,7.115,93.114,7.115s16.2-3.9,16.234-16.262v10.457c-3.461,1.754-5.458,4.023-5.045,6.927a4.807,4.807,0,0,0,1.827,2.941,7.81,7.81,0,0,1-2.954.84l-.02,0-.02,0-.024,0H507.7l-.04,0h-.005l-.036,0H507.6l-.032,0h-.01l-.042,0c-.065,0-.158.007-.276.007m6.708-21.194V-64.7h0v.062" transform="translate(10064.318 15196.669)"/><path class="ac" d="M425.535-97.163s-10.764,4.584-12.545,5.6S411.751-82.927,411.751-78v64.645l-12.3-.988V-89.578c0-4.3,12.091-8.573,12.091-8.573l13.989.987" transform="translate(10078.608 15160.62)"/><path class="ac" d="M450.307-95.264s-12.617,4.977-14.4,6-1.239,8.634-1.239,13.559v64.645l-12.3-.988V-87.287c0-4.294,15.973-9.035,15.973-9.035l11.961,1.058" transform="translate(10108.985 15162.591)"/><path class="at" d="M413.793-98.15s-10.1,2.847-12.091,5.636-3.784,12.051-3.937,15.745,2.3,7.662,5.667,7.8,5.667-2.737,6.891-7.525,1.257-13.456,5.843-15.539,11.617-5.129,11.617-5.129l-13.989-.987" transform="translate(10076.36 15160.621)"/><path class="at" d="M437.507-96.322s-10.1,2.847-12.091,5.636-3.783,12.051-3.936,15.745,2.3,7.662,5.666,7.8,5.667-2.736,6.892-7.525,1.257-13.456,5.843-15.539S451.5-95.335,451.5-95.335l-13.99-.987" transform="translate(10107.795 15162.591)"/><path class="s" d="M400.74-95.881s13.507,1.4,14.338,1.443,2.307-.6,1.321-.87-13.432-1.419-14.4-1.421-2.278.742-1.259.847" transform="translate(10079.824 15162.152)"/><path class="s" d="M403.323-97.14s12.786,1.116,13.572,1.149,2.2-.489,1.265-.707-12.714-1.13-13.632-1.131-2.169.6-1.2.688" transform="translate(10083.277 15160.968)"/><path class="s" d="M424.66-94.152s13.506,1.4,14.337,1.443,2.307-.6,1.322-.87S426.887-95,425.918-95s-2.277.742-1.258.847" transform="translate(10111.529 15164.015)"/><path class="s" d="M427.242-95.411s12.786,1.117,13.573,1.149,2.2-.489,1.265-.707S429.365-96.1,428.448-96.1s-2.169.6-1.206.688" transform="translate(10114.979 15162.83)"/><path class="au" d="M429.222-78.415a2.622,2.622,0,0,1-2.757,2.462,2.622,2.622,0,0,1-2.756-2.462,2.622,2.622,0,0,1,2.756-2.463,2.623,2.623,0,0,1,2.757,2.463" transform="translate(10110.757 15179.231)"/><path class="av" d="M423.709-78.415a2.31,2.31,0,0,0,.721,1.648,2.823,2.823,0,0,0,1.259.3A2.485,2.485,0,0,0,428.3-78.8a2.3,2.3,0,0,0-1.355-2.035,3.063,3.063,0,0,0-.483-.044,2.622,2.622,0,0,0-2.756,2.463" transform="translate(10110.757 15179.231)"/><path class="h" d="M425.5-79.433a.823.823,0,0,1-.717.9.823.823,0,0,1-.718-.9.823.823,0,0,1,.718-.9.823.823,0,0,1,.717.9" transform="translate(10111.233 15179.822)"/><path class="au" d="M406.118-79.6a2.622,2.622,0,0,1-2.756,2.463A2.623,2.623,0,0,1,400.6-79.6a2.622,2.622,0,0,1,2.757-2.462,2.621,2.621,0,0,1,2.756,2.462" transform="translate(10080.134 15177.954)"/><path class="av" d="M400.6-79.6a2.31,2.31,0,0,0,.723,1.649,2.832,2.832,0,0,0,1.259.3,2.486,2.486,0,0,0,2.613-2.335,2.3,2.3,0,0,0-1.356-2.035,3.059,3.059,0,0,0-.482-.044A2.622,2.622,0,0,0,400.6-79.6" transform="translate(10080.134 15177.954)"/><path class="h" d="M402.4-80.618a.823.823,0,0,1-.718.9.823.823,0,0,1-.717-.9.823.823,0,0,1,.717-.9.823.823,0,0,1,.718.9" transform="translate(10080.608 15178.544)"/><path class="au" d="M429.222-59.776a2.623,2.623,0,0,1-2.757,2.463,2.622,2.622,0,0,1-2.756-2.463,2.622,2.622,0,0,1,2.756-2.462,2.622,2.622,0,0,1,2.757,2.462" transform="translate(10110.757 15199.316)"/><path class="av" d="M423.709-59.776a2.309,2.309,0,0,0,.721,1.648,2.823,2.823,0,0,0,1.259.3A2.485,2.485,0,0,0,428.3-60.16a2.3,2.3,0,0,0-1.355-2.035,3.06,3.06,0,0,0-.483-.044,2.622,2.622,0,0,0-2.756,2.462" transform="translate(10110.757 15199.316)"/><path class="h" d="M425.5-60.794a.823.823,0,0,1-.717.9.823.823,0,0,1-.718-.9.823.823,0,0,1,.718-.9.823.823,0,0,1,.717.9" transform="translate(10111.233 15199.907)"/><path class="au" d="M406.118-61.6a2.622,2.622,0,0,1-2.756,2.463A2.623,2.623,0,0,1,400.6-61.6a2.623,2.623,0,0,1,2.757-2.462,2.622,2.622,0,0,1,2.756,2.462" transform="translate(10080.134 15197.353)"/><path class="av" d="M400.6-61.6a2.308,2.308,0,0,0,.723,1.649,2.82,2.82,0,0,0,1.259.3,2.486,2.486,0,0,0,2.613-2.335,2.3,2.3,0,0,0-1.356-2.035,3.058,3.058,0,0,0-.482-.044A2.623,2.623,0,0,0,400.6-61.6" transform="translate(10080.134 15197.353)"/><path class="h" d="M402.4-62.616a.823.823,0,0,1-.718.9.823.823,0,0,1-.717-.9.823.823,0,0,1,.717-.9.823.823,0,0,1,.718.9" transform="translate(10080.608 15197.942)"/><path class="s" d="M434.156-100.933l-17.04-.706a1.069,1.069,0,0,0-1.069.667l-3.075,8.709a1.078,1.078,0,0,1-1.15.66l-1.58-.171a1.06,1.06,0,0,0-1.181.772l-.113.541a.977.977,0,0,0,.943,1.124l2.724.247a1.081,1.081,0,0,0,1.118-.64l3.746-9.746a1.072,1.072,0,0,1,1.061-.644l15.685.662a1.772,1.772,0,0,1-.073-1.476" transform="translate(10091.171 15156.861)"/><path class="an" d="M417.009-102.64c1.206.059,10.451.532,11.946.616,2.756.155,2.776,4.878,0,4.823-.87-.017-13.152-.718-14.473-.82s-1.945-4.836,2.527-4.618" transform="translate(10097.242 15155.773)"/><path class="aw" d="M420.173-100.025h0m.02,0h0m.014,0h0" transform="translate(10106.07 15158.599)"/><path class="aw" d="M420.194-99.728h0m.016,0h0m.014,0h0m.016,0a1.843,1.843,0,0,0,1.3-.574h0a1.839,1.839,0,0,1-1.3.574" transform="translate(10106.1 15158.301)"/><path class="ax" d="M420.773-100.053h0a2.126,2.126,0,0,0,.339-.482,2.067,2.067,0,0,1-.339.482" transform="translate(10106.866 15158.051)"/><path class="ay" d="M413.963-100.417h0m-.008,0h0m-.008,0h0m-.007,0h0m-.008,0h0m-.007,0h0m-.008,0h0m-.008,0h0m-.008,0h0" transform="translate(10097.754 15158.167)"/><path class="az" d="M429-97.551h-.047c-.3-.006-2.014-.1-4.162-.215-1.046-.057-2.2-.122-3.338-.188-1.029-.058-2.052-.118-2.989-.172l-1.018-.06c-1.485-.088-2.615-.157-2.968-.185h-.048l-.006,0h-.009l-.007,0h0c-.648-.135-1.095-1.388-.8-2.555a2.3,2.3,0,0,0,2.21,1.915c2.109.1,9.861.52,11.533.52.118,0,.206,0,.26-.006.748-.064-.957-2.826,1.654-3.814,1.641.33,2.137,2.411,1.468,3.714a2.133,2.133,0,0,1-.339.482,1.843,1.843,0,0,1-1.3.574H429" transform="translate(10097.247 15156.124)"/><path class="ba" d="M429.871-90.022l-1.488-.1a1.025,1.025,0,0,1-.983-.834l-1.355-9.7a1.028,1.028,0,0,0-1.011-.835l-3.88-.1a1.3,1.3,0,0,0-.812,1.439l2.95.069a1.022,1.022,0,0,1,1.015.879l.9,10.219a1.021,1.021,0,0,0,.994.878l1.779.106.64.664,1.66-.695,0-.009a.959.959,0,0,0,.511-.618l.05-.219a.98.98,0,0,0-.969-1.146" transform="translate(10106.283 15156.912)"/><path class="s" d="M428.227-89.654l-1.487-.1a1.023,1.023,0,0,1-.983-.833l-1.355-9.7a1.029,1.029,0,0,0-1.011-.836l-2.927-.18a1.774,1.774,0,0,0,.073,1.477l1.112.107a1.022,1.022,0,0,1,1.016.878l.9,10.22a1.019,1.019,0,0,0,.994.877l3.466.209a1.056,1.056,0,0,0,1.118-.759l.051-.22a.98.98,0,0,0-.969-1.145" transform="translate(10106.287 15157.227)"/><path class="bb" d="M414.264-102.414h0m.048-.017.006,0-.006,0m.023-.008.006,0-.006,0m.026-.008.013,0-.013,0m.021-.007.014,0-.014,0m.019-.006.028-.009-.028.009m.032-.01a4.344,4.344,0,0,1,1.285-.178c.1,0,.194,0,.294.007-.1,0-.2-.007-.294-.007a4.344,4.344,0,0,0-1.285.178m1.588-.169h0" transform="translate(10098.239 15155.773)"/><path class="bc" d="M425.408-99.175c-1.685,0-6.844-.266-9.194-.411a2.609,2.609,0,0,1-2.534-1.722,2.575,2.575,0,0,1,1.361-1.106h0l.047-.017.006,0,.017-.006.006,0,.02-.006.013,0,.008,0,.014,0,.005,0,.028-.009h0a4.344,4.344,0,0,1,1.285-.178c.1,0,.194,0,.294.007h.008c1.024.05,7.479.381,10.534.541-.829.959-.706,2.856-1.507,2.913-.093.007-.234.01-.416.01" transform="translate(10097.463 15155.773)"/><path class="bd" d="M499.2-178.051s-10.718-.242-16.212,11.315-4.312,30.011,16.948,50.443l-.736-61.758" transform="translate(10185.643 15074.521)"/><path class="am" d="M502.635-178.624s-9.961-2.085-17.134,11.453-4.7,29.4,12.418,51.62l5.058.569-.342-63.642" transform="translate(10187.663 15073.78)"/><path class="bd" d="M504.653-178.845a10.363,10.363,0,0,0-8.417,1.344c-4.437,2.755-12.335,9.758-11.972,28.487s11.381,34.086,11.381,34.086l2.622.294,6.385-64.211" transform="translate(10191.004 15073.278)"/><path class="am" d="M504.539-178.655s-4.126-1.789-7.484.606-8.976,10.8-9.619,27.123,5.162,36.218,5.162,36.218l2.882.325,9.06-64.272" transform="translate(10195.16 15073.18)"/><path class="bd" d="M510.525-176.542s10.459,2.141,12.573,14.553-4.146,30.029-30.413,45.115l17.839-59.668" transform="translate(10202.183 15076.148)"/><path class="am" d="M508.505-177.737s10.22.186,13.413,14.889-3.607,29.527-26.349,47.26l-5.058-.569,17.995-61.58" transform="translate(10199.3 15074.86)"/><path class="bd" d="M502.729-178.634a10.009,10.009,0,0,1,7.774,3.166c3.535,3.651,9.246,12.185,3.7,30.251s-20.493,30.5-20.493,30.5l-2.612-.295,11.63-63.622" transform="translate(10200.079 15073.87)"/><path class="am" d="M499.57-178.98s4.488-.821,7.08,2.242,5.691,12.454,1.783,28.408-15.04,33.947-15.04,33.947l-2.882-.324,9.06-64.272" transform="translate(10199.3 15073.413)"/><path class="bd" d="M501.117-179.338c-6.416-.721-8.241,17.162-10.117,30.446s-.415,34.424-.415,34.424l1.368.154,1.358.154s7.277-20.157,9.153-33.442,5.058-31.014-1.347-31.735" transform="translate(10198.686 15073.112)"/><path class="be" d="M486.9-149.674a20.519,20.519,0,0,1,18.648,2.1l-5.2,3.188-9.982-1.123-3.462-4.163" transform="translate(10194.521 15103.662)"/><path class="bf" d="M498.567-147.011c-.062.437-2.4.533-5.245.214s-5.079-.932-5.017-1.369,2.4-.532,5.245-.213,5.079.931,5.017,1.368" transform="translate(10196.374 15106.293)"/><path class="bg" d="M493.191-147.159c-2.892-.325-4.468-.852-4.758-1.1.352-.172,2.021-.336,4.913-.01s4.457.853,4.747,1.1c-.342.172-2.011.335-4.9.009" transform="translate(10196.547 15106.417)"/><path class="e" d="M494.851-144.677l-4.022-.694-.84,5.932s3.8-.013,4.136-.1.726-5.141.726-5.141" transform="translate(10198.608 15109.738)"/><path class="d" d="M489.033-145.476l4.095.219-.84,5.932s-3.69-.857-3.98-1.01.726-5.141.726-5.141" transform="translate(10196.311 15109.624)"/><path class="bh" d="M489.989-139.85h0m4.136-.1h0m0,0h0m0,0h0m.01,0h0m0,0h0m0,0h0m0,0h0m0,0v0m0,0c.3-.214.653-4.331.7-5.033h0c-.052.695-.4,4.819-.7,5.033" transform="translate(10198.608 15110.15)"/><path class="bi" d="M489.989-139.613l.788-5.594,3.586.4.477.054c-.052.7-.4,4.819-.7,5.033h0v0h-.01c-.321.082-3.9.1-4.125.1h-.01" transform="translate(10198.608 15109.913)"/><path class="bh" d="M491.951-139.376h0m0,0h0m-.01,0h0m-3.431-5.2h0c.073-.4.135-.706.166-.856h0c-.031.151-.093.46-.166.856" transform="translate(10196.646 15109.676)"/><path class="bj" d="M492.157-139.376h-.01c-.176-.042-3.027-.7-3.794-.945a4.634,4.634,0,0,0,1.3.185c1.078,0,2.135-.38,2.374-1.362.373-1.525.28-2.581-.176-2.712-.363-.106-2.374-.292-3.13-.36.073-.4.135-.7.166-.856l4.063.457-.788,5.594" transform="translate(10196.44 15109.676)"/><path class="bk" d="M492.946-145.409s-4.053-.256-4.229-.235-.342.906-.28,1.054,4.343.387,4.343.387l.166-1.206" transform="translate(10196.533 15109.441)"/><path class="bl" d="M490.462-145.532s4,.65,4.167.709.083.954-.021,1.082-4.312-.585-4.312-.585l.166-1.206" transform="translate(10199.016 15109.563)"/><path class="am" d="M488.7-142.72l-.28-5.636.062,0,.27,5.635-.052,0" transform="translate(10196.528 15106.518)"/><path class="am" d="M490.411-142.5l-.052-.006.819-5.831.052.006-.819,5.831" transform="translate(10199.099 15106.538)"/><path class="am" d="M492.029-142.412l-.052-.01,1.4-5.415.052.011-1.4,5.414" transform="translate(10201.244 15107.081)"/><path class="bm" d="M499.321-115.4h0l.207-.815-.207.815m-.052-.012h0l.166-.678-.166.678m-3.991-.951h0l.28-1.943h0l-.28,1.943m.259-1.442.072-.5h0l-.072.5m-.373-.542h0l-.021,0,.021,0h0m-.042,0-.01,0,.01,0m-.031,0h0m5.318-.2h0m0,0v-.006h0v.006M490.147-119.7v0m0,0v0m.083-.127-3.317-4h0l3.317,4h0m40.592-43.435v0m-.01-.036v0m0-.029s0-.007-.01-.01c.01,0,.01.006.01.01m-.01-.034v0m0-.032c0-.006-.01-.011-.01-.017s.01.011.01.017m-.01-.033v0m0-.035a.019.019,0,0,1-.01-.019.018.018,0,0,0,.01.019m-.01-.036v0m-.01-.035v0m0-.035v0m-.01-.034v0m0-.035c0-.012-.01-.023-.01-.035,0,.012.01.023.01.035m-.01-.035c0-.021-.01-.044-.01-.065,0,.021.01.043.01.065m-.01-.082a.1.1,0,0,1-.01-.053c0,.017.01.035.01.053m-.01-.066a.131.131,0,0,1-.01-.062.132.132,0,0,0,.01.062m-.021-.081a.079.079,0,0,0-.01-.047.081.081,0,0,1,.01.047m-.01-.065c0-.021-.01-.041-.01-.061,0,.02.01.041.01.061m-.01-.078a.084.084,0,0,1-.01-.048.084.084,0,0,0,.01.048m-.01-.068c-.01-.019-.01-.041-.021-.06.01.019.01.041.021.06m-.021-.075a.079.079,0,0,0-.01-.047.077.077,0,0,1,.01.047m-.01-.069a.119.119,0,0,1-.01-.059.121.121,0,0,0,.01.059m-.01-.068c-.01-.019-.01-.036-.021-.055.01.019.01.036.021.055m-.021-.074c0-.018-.01-.037-.01-.054,0,.018.01.036.01.054m-.01-.062c0-.019-.01-.04-.01-.059a.12.12,0,0,0,.01.059m-.021-.081a.073.073,0,0,0-.01-.045.073.073,0,0,1,.01.045m-.01-.062c0-.019-.01-.039-.01-.059,0,.02.01.04.01.059m-.021-.078a.067.067,0,0,0-.01-.044.067.067,0,0,1,.01.044m-.01-.064c0-.019-.01-.037-.01-.057,0,.019.01.037.01.057m-.021-.075a.07.07,0,0,0-.01-.044.07.07,0,0,1,.01.044m-.01-.064c0-.019-.01-.04-.01-.059,0,.02.01.04.01.059m-.01-.067c-.01-.018-.01-.036-.021-.054.01.018.01.036.021.054m-.021-.07c0-.019-.01-.036-.01-.055,0,.019.01.036.01.055m-.01-.061c-.01-.02-.01-.041-.021-.06.01.019.01.04.021.06m-.021-.075c0-.019-.01-.037-.01-.055,0,.019.01.036.01.055m-.01-.061c-.01-.02-.01-.042-.021-.062.01.02.01.041.021.062m-.021-.073a.094.094,0,0,1-.01-.052.094.094,0,0,0,.01.052m-.021-.064c0-.02-.01-.042-.01-.062,0,.021.01.041.01.062m-.01-.068c-.01-.019-.01-.037-.021-.056.01.018.01.037.021.056m-.021-.068c-.01-.042-.021-.081-.031-.123l.031.123m-.031-.132a.566.566,0,0,0-.042-.124.582.582,0,0,1,.042.124m-.042-.132c0-.02-.01-.041-.01-.061,0,.021.01.041.01.061m-.01-.061c-.01-.021-.01-.043-.021-.064.01.021.01.043.021.064m-.021-.068a17.5,17.5,0,0,0-5.608-8.949,17.5,17.5,0,0,1,5.608,8.949m-5.608-8.95-.062-.052.062.052m-.073-.062s-.01-.009-.021-.014c.01,0,.021.009.021.014m-.042-.036s-.01-.006-.01-.008.01.006.01.008m-.031-.024s0,0-.01-.007c.01,0,.01,0,.01.007" transform="translate(10194.532 15077.84)"/><path class="bn" d="M489.5-147.573h0l-.021-.02.021.02m-.01-.021h0q-2.488-2.7-4.519-5.345c.777.414,1.71.875,2.778,1.327.8,1.219,1.638,2.459,2.529,3.718-.477.164-.757.285-.788.3" transform="translate(10191.949 15101.58)"/><path class="bo" d="M488.689-148.583c-.891-1.259-1.731-2.5-2.529-3.718.819.343,1.7.68,2.654.986.425.842.829,1.622,1.223,2.335-.549.139-.995.279-1.348.4" transform="translate(10193.533 15102.269)"/><path class="bn" d="M488.524-149.491c-.394-.713-.8-1.494-1.223-2.335a28.772,28.772,0,0,0,3.742.947c.073.306.135.6.207.89a20.812,20.812,0,0,0-2.726.5" transform="translate(10195.046 15102.78)"/><path class="bo" d="M489.118-150.481c-.072-.288-.135-.584-.207-.89a25.067,25.067,0,0,0,2.861.356c0,.134.01.267.01.4h-.259a20.973,20.973,0,0,0-2.4.138" transform="translate(10197.179 15103.272)"/><path class="bn" d="M492.717-117.365v0l5.131-3.142-.114.07q-2.379,1.552-5.017,3.074m5.121-3.148c-.238-.154-.466-.3-.7-.444,19.145-16.146,24.826-29.938,21.861-43.624-1.264-5.842-3.648-9.391-6.053-11.549a17.277,17.277,0,0,1,3.866,2.4c.01,0,.01,0,.01.007s.01.01.021.016.01.006.01.008.021.015.021.022.021.009.021.014.01.006.01.01l.062.052v0a17.5,17.5,0,0,1,5.608,8.949v0c.01.021.01.043.021.064h0c0,.02.01.041.01.061v.008a.564.564,0,0,1,.042.124v.009l.031.123v.012c.01.018.01.037.021.056v.006c0,.02.01.042.01.062,0,0,0,.008.01.012a.093.093,0,0,0,.01.052v.011c.01.02.01.042.021.062v.006c0,.018.01.036.01.055v.015c.01.019.01.04.021.06v.006c0,.018.011.036.011.055v.017c.01.018.01.036.021.054v.007c0,.019.01.04.01.059v.019a.072.072,0,0,1,.01.044.018.018,0,0,1,.01.018c0,.019.01.037.01.057v.02a.067.067,0,0,1,.01.044.018.018,0,0,1,.01.019c0,.02.01.04.01.059v.017a.074.074,0,0,1,.01.045c0,.007.01.014.01.021s.01.04.01.059v.008c0,.017.01.036.01.054v.019c.01.019.01.036.021.055v.008a.12.12,0,0,0,.01.059V-163a.078.078,0,0,1,.01.047v.015c.01.019.01.041.021.06v.019a.083.083,0,0,0,.01.048v.017c0,.02.01.04.01.061v.018a.08.08,0,0,1,.01.047.018.018,0,0,0,.01.019.132.132,0,0,0,.01.062v.013a.1.1,0,0,0,.01.053v.018c0,.021.01.044.01.065h0c0,.012.01.023.01.035v.035s0,.008.01.013v.056c.01.007.01.011.01.018v.034a.019.019,0,0,0,.01.019v.052c0,.006.011.011.011.017v.056c.01,0,.01.006.01.01v.029a.039.039,0,0,0,.01.032v0c1.762,11.515-3.659,27.355-25.292,41.513" transform="translate(10202.225 15076.595)"/><path class="bo" d="M495.3-119.359c-.4-.242-.8-.465-1.2-.671a79.555,79.555,0,0,0,8.064-9.949h0c8.116-8.966,13.154-22.924,10.075-34.543a21.156,21.156,0,0,0-5.711-12.071,10.764,10.764,0,0,0-1.119-1.016,13.376,13.376,0,0,1,5.691,3.074s.01,0,.01,0c2.4,2.158,4.789,5.707,6.054,11.549,2.965,13.686-2.716,27.478-21.861,43.624" transform="translate(10204.056 15074.998)"/><path class="bn" d="M495.517-118.93a20.852,20.852,0,0,0-2.488-1.092c.446-.808.933-1.7,1.441-2.651a21.757,21.757,0,0,0,9.111-6.206,79.509,79.509,0,0,1-8.064,9.95m18.14-44.493a24.085,24.085,0,0,0-11.588-14.913c-.166-.107-.321-.206-.487-.3a10.223,10.223,0,0,1,5.224,2.118l.021,0a10.774,10.774,0,0,1,1.119,1.016,21.154,21.154,0,0,1,5.711,12.071" transform="translate(10202.637 15073.896)"/><path class="bo" d="M494.022-119.99c-.591-.215-1.171-.4-1.741-.547.145-.441.3-.9.456-1.383a19.879,19.879,0,0,0,2.726-.721c-.508.955-1,1.843-1.441,2.651M503.06-178.3c-.207-.121-.425-.24-.632-.357l.124.059.021,0c.166.091.321.189.487.3" transform="translate(10201.646 15073.865)"/><path class="bn" d="M495.116-149.967a20.385,20.385,0,0,0-4.965-.673c0-.131-.01-.263-.01-.4.5.032,1,.05,1.5.05a21.126,21.126,0,0,0,3.929-.362c-.156.479-.311.942-.456,1.383" transform="translate(10198.81 15103.295)"/><path class="bp" d="M500.421-144.435c-.124-.432-2.3-1.008-5.017-1.313a27.911,27.911,0,0,0-3.047-.189,4.906,4.906,0,0,0-2.115.28l-3.317-4-.021-.02h.01c.031-.016.311-.137.788-.3.352-.118.8-.257,1.348-.4a20.8,20.8,0,0,1,2.726-.5,20.969,20.969,0,0,1,2.4-.138h.259a20.39,20.39,0,0,1,4.965.673c.57.152,1.151.332,1.741.547a20.865,20.865,0,0,1,2.488,1.092c.4.207.8.43,1.2.671.238.142.466.29.7.444h0l.01,0-5.131,3.142" transform="translate(10194.521 15103.662)"/><path class="bq" d="M496.369-146.609c-.746,0-1.638-.046-2.6-.142h0l.031-.237c1.016.1,1.866.141,2.55.141a6.409,6.409,0,0,0,1.886-.183l-.062.27a7.981,7.981,0,0,1-1.8.152m-2.654-.147h0l-.394-.041h0l-.021,0-.021,0-.01,0-.021,0h0a16.653,16.653,0,0,1-4.6-1.017l-.01-.288a13.987,13.987,0,0,0,4.727,1.075c.124.015.259.029.384.042l-.031.237m4.509-.022.072-.26-.031-.006h0a12.223,12.223,0,0,0-4.312-1.046h0l-.435-.052a27.279,27.279,0,0,0-2.985-.187,5.969,5.969,0,0,0-1.928.2h-.031l.021.278c-.2-.106-.3-.208-.29-.3v-.009h0l.093-.119-.01,0h0a4.907,4.907,0,0,1,2.115-.28,27.926,27.926,0,0,1,3.048.189c2.716.306,4.893.881,5.017,1.313V-147h0c-.021.09-.145.164-.342.223" transform="translate(10196.375 15106.292)"/><path class="br" d="M496.177-146.971c-.684,0-1.534-.039-2.55-.141l.155-1.1a12.223,12.223,0,0,1,4.312,1.045h0l-.021-.006-.01.019a6.414,6.414,0,0,1-1.887.183m-2.6-.146c-.124-.013-.259-.027-.384-.042a13.984,13.984,0,0,1-4.727-1.075v-.022h-.031a5.971,5.971,0,0,1,1.928-.2,27.284,27.284,0,0,1,2.985.187l.435.052-.052-.006-.155,1.1" transform="translate(10196.547 15106.417)"/><path class="bm" d="M488.533-146.526h0l-.073-1.507.073,1.507m-.062-.014h0v0" transform="translate(10196.582 15106.869)"/><path class="bo" d="M488.586-146.176l-.062-.014v-.151l-.083-1.737h0l-.021-.278h.062v.022l.01.288h0l.021.365.073,1.507" transform="translate(10196.528 15106.518)"/><path class="bo" d="M490.562-145.046l-.052-.012.28-1.943.031-.237.155-1.1.052.006h0l-.156,1.1-.031.237-.073.5-.207,1.454" transform="translate(10199.3 15106.538)"/><path class="bo" d="M492.279-144.637l-.052-.012.166-.678.58-2.221h0l.062-.269.01-.019.021.006.031.006-.073.26h0l-.539,2.113-.207.815" transform="translate(10201.574 15107.081)"/><path class="bs" d="M481.719-62.229c-17.114,0-42.7,2.609-41.313,12.32s41.313,10,41.313,10,39.918-.29,41.307-10-24.2-12.32-41.307-12.32" transform="translate(10132.817 15199.327)"/><path class="aq" d="M458.152-45.907h0s39.918-.29,41.307-10a6.3,6.3,0,0,0,.052-.753,6.3,6.3,0,0,1-.052.753c-1.389,9.712-41.307,10-41.307,10m-.021,0h0" transform="translate(10156.383 15205.326)"/><path class="bt" d="M469.969-40.769h-.021c-.218,0-1.969-.02-4.633-.127,6.437-.542,30.05-2.87,30.278-7.9.042-1.091-.829-1.486-2.415-1.486a76.286,76.286,0,0,0-9.536,1.382A84.921,84.921,0,0,1,469.5-47.521a40.542,40.542,0,0,1-20.285-4.863c3.193,1.76,9.277,3.585,20.752,3.585,21.56,0,24.079-6.16,24.193-6.473v-.012h0v0h0v0h0v-.019c-.021-.065-.052-.251-.1-.537-.166-.968-.539-3.084-1.005-5.582,10.106,1.639,18.264,4.679,18.274,9.907a6.3,6.3,0,0,1-.052.753c-1.389,9.712-41.307,10-41.307,10" transform="translate(10144.567 15200.189)"/><path class="bs" d="M451.713-66.775a85.074,85.074,0,0,0-3.98,19.456s2.073,6.795,24.2,6.795,24.193-6.485,24.193-6.485-2.933-16.831-3.98-19.765a87.974,87.974,0,0,0-40.436,0" transform="translate(10142.6 15191.914)"/><path class="ac" d="M496.129-55.569s-.425-2.427-1.005-5.6c-2.063,1.422-7.93,4.052-23.188,4.052-13.869,0-20.669-2.171-23.675-3.635-.228,1.581-.415,3.217-.529,4.87,0,0,2.073,6.795,24.2,6.795s24.193-6.485,24.193-6.485" transform="translate(10142.6 15200.474)"/><path class="u" d="M469.81-55.187h0c-.922-4.987-2.114-11.075-2.705-12.731,0,0-.166-.047-.477-.129.311.081.477.129.477.129.591,1.657,1.783,7.745,2.705,12.731" transform="translate(10167.645 15193.057)"/><path class="bu" d="M468.162-60.97h0c-.052-.291-.1-.587-.166-.887h0c.062.3.114.6.166.887" transform="translate(10169.457 15199.729)"/><path class="bt" d="M458.269-40.55h0m-.062,0h0m-.062,0h0m-.072,0h0m-.062,0h0m24.525-6.486h0m0,0h0m0,0v0m0,0v0m0-.019c-.052-.27-.456-2.593-1.006-5.57a18.7,18.7,0,0,1-6.178,2.449c2.923-8.085-4.737-16.315-12.522-18.18-1.223-.293-1.679-.53-1.576-.721a82.475,82.475,0,0,1,16.823,2.156c.311.082.477.129.477.129.591,1.657,1.783,7.745,2.705,12.731.062.3.114.6.166.887h0c.466,2.5.84,4.615,1.006,5.582.052.286.083.472.1.537" transform="translate(10156.195 15191.939)"/><path class="ag" d="M465.792-49.084h-.353a68.007,68.007,0,0,1-13.071-1.125c.187.013,2.1.13,4.882.13,7.536,0,21.467-.864,24.826-7.033a12.022,12.022,0,0,0,.725-1.6,18.7,18.7,0,0,0,6.178-2.449c.549,2.977.954,5.3,1.005,5.57v.019h0v0h0v0h0s-2.073,6.485-24.193,6.485" transform="translate(10148.744 15200.474)"/><path class="bv" d="M449.444-65.647s3.628-4.015,19.7-4.478,20.731,4.478,20.731,4.478-12.957-3.551-40.436,0" transform="translate(10144.867 15190.786)"/><path class="b" d="M456.526-158.446h-20c-9.849,0-5.694-14.083,7.748-9.55,0,0-4.764-4.532,1.5-7.465s7.162,2.933,7.162,2.933-4.35-11.466,8.271-11.732,4.86,12.907,4.86,12.907,2.985-4.908,7.163-2.509,1.6,4,1.6,4,9.744-5.332,13.921,1.333-4.177,10.084-10.739,10.084H456.526" transform="translate(10120.566 15067.826)"/><path class="b" d="M410.96-182.485c-11.462,0-16.4-12.436.125-15.421,0,0-4.591-6.715,1.794-10.2S424-205.367,424-205.367s-3.341-9.2,7.795-10.2,7.795,14.425,7.795,14.425,2.505-5.72,6.681-2.736,1.671,4.827,1.671,4.827,3.619-2.635,6.4,0,0,4.625,0,4.625,12.249-9.2,18.1-1.244-3.341,13.182-8.63,13.182H410.96" transform="translate(10079.927 15034.05)"/><path class="b" d="M374.6-149.046H353.486c-7.587,0-3.629-16.154,9.236-9.207,0,0-4.947-5.579.99-7.125s6.267,3.113,6.267,3.113,0-11.005,8.247-9.306,3.628,11.618,3.628,11.618,3.959-6.075,6.6-3.134a3.716,3.716,0,0,1,0,5.389s3.628-6.956,7.916-2.2c0,0,4.948-5.643,9.566,0s.33,10.849-4.288,10.849H374.6" transform="translate(10012.593 15081.313)"/></g><g transform="translate(-9041 -14129)"><path class="bw" d="M1104.649-842.979c-4.377-5.784-8.488-12.005-8.081-12.505s13.867,5.877,13.867,5.877l-5.785,6.628" transform="translate(9166 15797.532)"/><path class="bx" d="M1091.787-815.541c8.1,10.319,4.927,34.1-4.552,58.473h-.791s1.7-20.488-1.163-31.7-1.6-37.088,6.505-26.769" transform="translate(9166 15797.532)"/><path class="bx" d="M1123.9-815.541c8.105,10.319,4.927,34.1-4.552,58.473h-.791s1.7-20.488-1.161-31.7-1.6-37.088,6.5-26.769" transform="translate(9166 15797.532)"/><path class="by" d="M1074.061-819.135c4.719,2.131,16.439,4.892,27.835-7.795l22.344-1.715s7.183,21.349,3.836,34.744-44.167,16.056-52.476,9.275c-16.075-13.12-11.28-25.833-1.539-34.509" transform="translate(9166 15797.532)"/><path class="bz" d="M1096.66-822.13c-9.588,7.052-18.6,4.8-22.6,2.995-1.787,1.591-8.152,11.956-4.529,16.485,8.556,4.889,24.719-11.369,27.128-19.48" transform="translate(9166 15797.532)"/><path class="bw" d="M1124.24-830.185l-17.14,4.421c9.532,26.193-24.072,42.587-40.647,19.943-.7,6.1.773,14.36,9.147,21.195,8.309,6.781,49.127,4.119,52.476-9.275s-3.836-36.284-3.836-36.284" transform="translate(9166 15797.532)"/><path class="bw" d="M1104.027-791.506c.947-8.181-.967-14.853-4.033-16.2-2.971-1.3-6.729,2.539-8.793,9.636-2.524,8.685.868,12.931,4.816,15.216,4.12,2.384,6.835,1.5,8.011-8.656" transform="translate(9166 15797.532)"/><path class="bx" d="M1108.025-799.774c-17.321,22.757-37.488,7.044-42.456-1.841.339,6.067,3.261,12.4,10.124,18.064,8.217,6.78,47.471,4.533,52.577-9.815a9.507,9.507,0,0,0,.173-2.249c-3.841,5.555-16.816,7.525-20.419-4.159" transform="translate(9166 15797.532)"/><path class="bx" d="M1109.765-793.887c.091-8.941-2.633-16.191-6.085-16.191s-6.323,7.249-6.415,16.191,3.505,10.711,6.957,10.711,5.452-1.769,5.543-10.711" transform="translate(9166 15797.532)"/><path class="bx" d="M1082.249-791.985c.092-8.9-2.643-17.412-6.105-19.013s-6.341,4.317-6.433,13.216,3.517,12.336,6.98,13.937,5.468.759,5.559-8.14" transform="translate(9166 15797.532)"/><path class="bz" d="M1079.675-849c-18.419,12.279-17.2,40.639-13.243,52.815l11.711-21.619c-16.037-11.295,2.444-31.805,1.532-31.2" transform="translate(9166 15797.532)"/><path class="by" d="M1097.787-820.385c-1.98-7.915-2.132-22.069-1.065-23.744s32.408-15.233,34.537-13.863-1.041,21.647-7.381,30.252c-7.087,3.035-26.091,7.355-26.091,7.355" transform="translate(9166 15797.532)"/><path class="bz" d="M1117.852-844c7.237-3.771,11.453-8.751,12.187-13.208l-.056-.056c-1.975-1.271-31.04,11.3-32.028,12.856-.376.591-.588,2.853-.605,5.833a50.088,50.088,0,0,0,20.5-5.425" transform="translate(9166 15797.532)"/><path class="bw" d="M1124.195-827.694c3.788-5.143,6.128-14.495,7.2-21.448-3.056,3.308-11.837,18.831-22.008,16.42-1.273-.3-2.605-1.8-3.429-3.608-1.093,2.528-.613,12.456,3.973,14.613,5.773,2.717,13.071-4.868,14.265-5.977" transform="translate(9166 15797.532)"/><path class="by" d="M1101.561-826.373c-5.749-11.231-13.273-24.413-12.583-25.82s12.211,6.393,12.211,6.393l.372,19.427" transform="translate(9166 15797.532)"/><path class="ca" d="M1097.079-836.939c-4.533-8.856-7.248-12.591-6.7-13.7s9.231,6.219,9.231,6.219l-2.528,7.481" transform="translate(9166 15797.532)"/><path class="by" d="M1070.121-816.622c-2.32.889-5.388,6.123-6.113,10.711-1.924,12.145,3.908,31.152,11.86,48.844h.915s-1.971-20.488,1.343-31.7,5.011-32.836-8-27.851" transform="translate(9166 15797.532)"/><path class="bw" d="M1097.86-816.418c-4.641,5.607-7.281,15.5-4.945,26.931,2.029,9.925,8.3,20.924,14.156,32.42h.913s-3.353-20.8-.8-32.18-.656-37.645-9.327-27.171" transform="translate(9166 15797.532)"/><path class="cb" d="M1131.915-854.427c-.453,2.348-6.316-.667-6.5-1.663s4.4-2.524,6.12-2.609c.907-.045.544,3.411.377,4.272" transform="translate(9166 15797.532)"/><path class="cc" d="M1108.887-847.143a2.777,2.777,0,0,1,2.228.157c-.415-.216-1.915-.945-2.641-.481a3.1,3.1,0,0,0-.691,3.553,3.409,3.409,0,0,1,1.1-3.229" transform="translate(9166 15797.532)"/><path class="bx" d="M1106.839-836.507l-1.065.215c4.495,10.84,19.475-1.252,25.745-13.695.067-.407.1-.7.145-1.131-11.139,19.747-23.411,21.592-24.825,14.611" transform="translate(9166 15797.532)"/><path class="bw" d="M1070.167-832.133c0,6.389,3.264,11.879,7.955,14.371l.021-.041c-14.932-10.516.052-29.011,1.453-31.021-5.092,4.673-9.429,11.5-9.429,16.692" transform="translate(9166 15797.532)"/><path class="by" d="M1105.383-835.171l-2.857,4.416c3.741,7.345,11.491,9.876,11.491,9.876a22.95,22.95,0,0,1-8.633-14.292" transform="translate(9166 15797.532)"/><path class="by" d="M1107.664-801.813c.361-10.417-2.827-18.861-7.121-18.861s-8.067,8.444-8.427,18.861,2.827,18.863,7.12,18.863,8.067-8.445,8.428-18.863" transform="translate(9166 15797.532)"/><path class="bz" d="M1080.461-803.1c.36-10.417-3.737-17.389-8.031-17.389s-8.408,8.428-8.575,20.312c-.147,10.423,2.827,18.863,7.12,18.863s9.124-11.368,9.485-21.785" transform="translate(9166 15797.532)"/><path class="bw" d="M1107.984-757.067H1104.9s-.816-2.333.724-3.239c1.083-.637,2.357,3.239,2.357,3.239" transform="translate(9166 15797.532)"/><path class="by" d="M1076.464-757.067h-3.083s-.815-2.333.725-3.239c1.083-.637,2.357,3.239,2.357,3.239" transform="translate(9166 15797.532)"/><path class="bx" d="M1118.819-757.067h2.908s.545-2.461-.993-3.416c-1.083-.672-1.915,3.416-1.915,3.416" transform="translate(9166 15797.532)"/><path class="bx" d="M1086.845-757.067h2.908s.547-2.461-.995-3.416c-1.081-.672-1.913,3.416-1.913,3.416" transform="translate(9166 15797.532)"/></g></g></svg>